<?xml version="1.0" encoding="utf-8"?>
<!-- Generator: Adobe Illustrator 19.2.0, SVG Export Plug-In . SVG Version: 6.00 Build 0)  -->
<svg version="1.1" id="Layer_1" xmlns="http://www.w3.org/2000/svg" xmlns:xlink="http://www.w3.org/1999/xlink" x="0px" y="0px"
	 viewBox="0 0 135.3 43.3" style="enable-background:new 0 0 135.3 43.3;" xml:space="preserve">
<style type="text/css">
	.st0{fill:#fff;}
</style>
<path class="st0" d="M135.3,32.8c0.2-3-6.7-5.7-9.9-5.7c-11.5-0.1-22.9-0.3-34.4-0.4L60.3,0l-5.2,2.7L64,26.3c-11,0-31.2,0-34.9,0
	C26,26.3,45.9,36.5,51,37.4c0,0,41.2,0.8,59.4,1c4.7,0.1,9.4,0.1,14.1,0.2C127.7,38.6,135,36.1,135.3,32.8z"/>
<polygon class="st0" points="27.9,11.3 24.1,12.9 28.6,24.4 40.9,24.3 "/>
<ellipse transform="matrix(0.941 -0.3385 0.3385 0.941 -10.5075 22.5983)" class="st0" cx="59.5" cy="41.4" rx="1.9" ry="1.9"/>
<ellipse transform="matrix(0.941 -0.3385 0.3385 0.941 -10.8442 20.6675)" class="st0" cx="53.8" cy="41.4" rx="1.9" ry="1.9"/>
<ellipse transform="matrix(0.941 -0.3385 0.3385 0.941 -6.7812 43.9656)" class="st0" cx="122.7" cy="41.4" rx="1.9" ry="1.9"/>
<ellipse transform="matrix(0.941 -0.3385 0.3385 0.941 -7.1179 42.0348)" class="st0" cx="117" cy="41.4" rx="1.9" ry="1.9"/>
<rect y="26.1" class="st0" width="25" height="2.2"/>
<rect x="9.7" y="30.3" class="st0" width="18.3" height="2.2"/>
<rect x="21.2" y="34.4" class="st0" width="9.8" height="2.2"/>
</svg>
