<?xml version="1.0" encoding="utf-8"?>
<!-- Generator: Adobe Illustrator 19.2.0, SVG Export Plug-In . SVG Version: 6.00 Build 0)  -->
<svg version="1.1" id="Layer_1" xmlns="http://www.w3.org/2000/svg" xmlns:xlink="http://www.w3.org/1999/xlink" x="0px" y="0px"
	 viewBox="0 0 112.9 48.7" style="enable-background:new 0 0 112.9 48.7;" xml:space="preserve">
<style type="text/css">
	.st0{fill:#fff;}
</style>
<path class="st0" d="M112.9,17.5c-0.4-3-7.7-4.3-10.8-3.7c-11.3,2.1-22.5,4.2-33.8,6.3L33,0l-4.5,3.7l13.3,21.4
	C31,27.2,11.2,31.2,7.6,31.8c-3.1,0.6,18.5,6.8,23.7,6.6c0,0,40.5-7.3,58.5-10.6c4.6-0.9,9.2-1.7,13.8-2.6
	C106.7,24.7,113.3,20.8,112.9,17.5z"/>
<polygon class="st0" points="3.4,17.3 0,19.7 6.7,30.1 18.7,27.6 "/>
<ellipse transform="matrix(0.8753 -0.4835 0.4835 0.8753 -14.3735 24.9956)" class="st0" cx="41.3" cy="40.4" rx="1.9" ry="1.9"/>
<ellipse transform="matrix(0.8753 -0.4835 0.4835 0.8753 -15.5339 22.3815)" class="st0" cx="35.6" cy="41.3" rx="1.9" ry="1.9"/>
<rect x="7.3" y="46.5" class="st0" width="25" height="2.2"/>
</svg>
