<?xml version="1.0" encoding="utf-8"?>
<!-- Generator: Adobe Illustrator 20.0.0, SVG Export Plug-In . SVG Version: 6.00 Build 0)  -->
<svg version="1.1" id="Layer_1" xmlns="http://www.w3.org/2000/svg" xmlns:xlink="http://www.w3.org/1999/xlink" x="0px" y="0px"
	 viewBox="0 0 11.4 11.5" style="enable-background:new 0 0 11.4 11.5;" xml:space="preserve">
<title>blog</title>
<path d="M5.8,11.5H0.5C0.3,11.5,0,11.3,0,11c0-0.1,0.1-0.3,0.1-0.3l1.2-1.2C-0.7,7-0.4,3.4,2,1.4S8-0.4,10.1,2s1.8,6-0.6,8.1
	C8.4,10.9,7.1,11.4,5.8,11.5L5.8,11.5z M1.8,10.5h4c2.6,0,4.7-2.1,4.7-4.7S8.4,1,5.7,1.1C3.1,1.1,1,3.2,1,5.8C1,7,1.5,8.2,2.4,9.1
	c0.2,0.2,0.2,0.5,0,0.7c0,0,0,0,0,0L1.8,10.5z"/>
</svg>
