<svg xmlns="http://www.w3.org/2000/svg" viewBox="3165 1323 80 78.056">
  <defs>
    <style>
      .cls-1 {
        fill: #ed4c06;
      }
    </style>
  </defs>
  <path id="Path_9" data-name="Path 9" class="cls-1" d="M1583.188,1512.407h-30.994a10.108,10.108,0,0,0-10.1,10.1v29.049a10.108,10.108,0,0,0,10.1,10.1h31a10.108,10.108,0,0,0,10.1-10.1V1522.5h0A10.11,10.11,0,0,0,1583.188,1512.407Zm0,45.351h-30.994a6.212,6.212,0,0,1-6.2-6.2V1522.5a6.212,6.212,0,0,1,6.2-6.2h31a6.213,6.213,0,0,1,6.2,6.2v29.049A6.212,6.212,0,0,1,1583.188,1557.759Zm-6.105-33.142H1558.3a3.981,3.981,0,0,0-3.959,3.993v16.839a3.963,3.963,0,0,0,3.959,3.959h18.785a3.981,3.981,0,0,0,3.993-3.959V1528.61h0a4,4,0,0,0-3.993-3.992Zm-18.785,20.9c-.046,0-.066-.021-.066-.066V1528.61c0-.056.035-.1.066-.1h18.785a.115.115,0,0,1,.1.1v16.839c0,.031-.044.066-.1.066Zm-10.8-37.416v-8.153a1.946,1.946,0,1,1,3.892,0v8.151a1.946,1.946,0,1,1-3.892,0Zm9.124,0v-8.153a1.946,1.946,0,1,1,3.892,0v8.151a1.946,1.946,0,0,1-3.892,0Zm8.956,0v-8.153a1.946,1.946,0,1,1,3.892,0v8.151a1.946,1.946,0,0,1-3.892,0Zm8.957,0v-8.153a1.946,1.946,0,1,1,3.892,0v8.151a1.946,1.946,0,0,1-3.892,0Zm8.956,0v-8.153a1.946,1.946,0,1,1,3.892,0v8.151a1.946,1.946,0,0,1-3.892,0Zm-32.1,57.859v8.151a1.946,1.946,0,0,1-3.892,0v-8.151a1.946,1.946,0,1,1,3.892,0Zm9.124,0v8.151a1.946,1.946,0,0,1-3.892,0v-8.151a1.946,1.946,0,1,1,3.892,0Zm8.956,0v8.151a1.946,1.946,0,0,1-3.892,0v-8.151a1.946,1.946,0,1,1,3.892,0Zm8.957,0v8.151a1.946,1.946,0,1,1-3.892,0v-8.151a1.946,1.946,0,1,1,3.892,0Zm8.956,0v8.151a1.946,1.946,0,1,1-3.892,0v-8.151a1.946,1.946,0,1,1,3.892,0Zm-47.648-47.212a1.946,1.946,0,0,1-1.946,1.946h-8.151a1.946,1.946,0,1,1,0-3.892h8.151a1.946,1.946,0,0,1,1.947,1.946Zm0,9.124a1.946,1.946,0,0,1-1.946,1.946h-8.151a1.946,1.946,0,1,1,0-3.892h8.151a1.946,1.946,0,0,1,1.947,1.946Zm0,8.99a1.946,1.946,0,0,1-1.946,1.946h-8.151a1.946,1.946,0,1,1,0-3.892h8.151a1.946,1.946,0,0,1,1.947,1.946Zm0,8.956a1.946,1.946,0,0,1-1.946,1.946h-8.151a1.946,1.946,0,1,1,0-3.892h8.151a1.946,1.946,0,0,1,1.947,1.947Zm0,8.957a1.946,1.946,0,0,1-1.946,1.946h-8.151a1.946,1.946,0,1,1,0-3.892h8.151a1.946,1.946,0,0,1,1.947,1.946Zm67.955.537a1.946,1.946,0,0,1-1.946,1.946h-8.151a1.946,1.946,0,1,1,0-3.892h8.151a1.946,1.946,0,0,1,1.947,1.946Zm0-9.124a1.946,1.946,0,0,1-1.946,1.946h-8.151a1.946,1.946,0,1,1,0-3.892h8.151a1.946,1.946,0,0,1,1.947,1.946Zm0-8.99a1.946,1.946,0,0,1-1.946,1.946h-8.151a1.946,1.946,0,1,1,0-3.892h8.151a1.946,1.946,0,0,1,1.947,1.946Zm0-8.957a1.946,1.946,0,0,1-1.946,1.946h-8.151a1.946,1.946,0,1,1,0-3.892h8.151a1.946,1.946,0,0,1,1.947,1.947Zm-12.043-8.956a1.946,1.946,0,0,1,1.946-1.946h8.151a1.946,1.946,0,1,1,0,3.892h-8.151a1.946,1.946,0,0,1-1.945-1.946Z" transform="translate(1637.31 -175)"/>
</svg>
