<svg id="Layer_1" xmlns="http://www.w3.org/2000/svg" viewBox="0 0 320 120"><style>.st0{fill:#fff}.st1{fill:#ed4c06}.st2{enable-background:new}.st3{fill:#3ab449}.st4{fill:#d9d9d6}.st5{fill:#75787b}</style><title>Artboard 1 copy</title><path class="st0" d="M8 0h304c4.4 0 8 3.6 8 8v104c0 4.4-3.6 8-8 8H8c-4.4 0-8-3.6-8-8V8c0-4.4 3.6-8 8-8z"/><path class="st1" d="M257.4 29.9h-.5c-2.4 0-4.4-2-4.4-4.4V13.9c0-2.4 2-4.4 4.4-4.4h46.5c2.4 0 4.4 2 4.4 4.4v11.6c0 2.4-2 4.4-4.4 4.4h-46zm-.5-19.4c-1.9 0-3.4 1.5-3.4 3.4v11.6c0 1.8 1.4 3.3 3.2 3.4h46.7c1.9 0 3.4-1.5 3.4-3.4V13.9c0-1.9-1.5-3.4-3.4-3.4h-46.5z" id="Stroke-6"/><g class="st2"><path class="st1" d="M261.4 21.8c.6.5 1.3.8 1.9.8.7 0 1.1-.3 1.1-.8s-.4-.6-1.1-.9l-1-.4c-.8-.3-1.6-1-1.6-2.1 0-1.3 1.2-2.3 2.8-2.3.9 0 1.8.4 2.5 1l-.9 1.1c-.5-.4-1-.6-1.6-.6-.6 0-1 .3-1 .7 0 .5.5.6 1.2.9l1 .4c.9.4 1.5 1 1.5 2.1 0 1.3-1.1 2.4-2.9 2.4-1 0-2.1-.4-2.9-1.1l1-1.2zm6.4-5.6h1.8V24h-1.8v-7.8zm7.3-.2c1.1 0 1.9.5 2.4 1l-1 1.1c-.4-.4-.8-.6-1.4-.6-1.2 0-2.1.9-2.1 2.5s.7 2.5 2.2 2.5c.3 0 .6-.1.8-.2V21h-1.3v-1.4h2.9v3.6c-.6.5-1.5.9-2.6.9-2.1 0-3.8-1.4-3.8-4s1.8-4.1 3.9-4.1zm4.4.2h1.8l2 3.9.8 1.7c-.1-.8-.2-1.9-.2-2.9v-2.8h1.7V24h-1.8l-2-3.9-.8-1.7c.1.9.2 1.9.2 2.8V24h-1.7v-7.8zm8.2 0h4.9v1.5h-3.1v1.6h2.7v1.5h-2.7v1.8h3.2V24h-5v-7.8zm11 7.8l-1.5-2.8h-1V24h-1.8v-7.8h2.8c1.7 0 3 .6 3 2.4 0 1.2-.6 1.9-1.4 2.3l1.8 3.1h-1.9zm-2.5-4.2h.9c.9 0 1.4-.4 1.4-1.2s-.5-1-1.4-1h-.9v2.2z"/></g><g class="st2"><path class="st3" d="M103.8 101.6h-2.9l-.8 2.4h-1l2.7-7.9h1.1l2.7 7.9h-1.1l-.7-2.4zm-.3-.8l-.4-1.2c-.3-.9-.5-1.7-.8-2.7-.3.9-.5 1.8-.8 2.7l-.4 1.2h2.4z"/></g><g class="st2"><path class="st3" d="M109.1 98c.8 0 1.3.3 1.7.7l-.5.6c-.3-.3-.7-.5-1.2-.5-1.1 0-1.8.9-1.8 2.3 0 1.3.7 2.2 1.8 2.2.6 0 1-.3 1.4-.6l.4.6c-.5.5-1.2.8-1.9.8-1.5 0-2.7-1.1-2.7-3 0-2 1.3-3.1 2.8-3.1z"/></g><g class="st2"><path class="st3" d="M114.4 98c.8 0 1.3.3 1.7.7l-.5.6c-.3-.3-.7-.5-1.2-.5-1.1 0-1.8.9-1.8 2.3 0 1.3.7 2.2 1.8 2.2.6 0 1-.3 1.4-.6l.4.6c-.5.5-1.2.8-1.9.8-1.5 0-2.7-1.1-2.7-3 0-2 1.3-3.1 2.8-3.1z"/></g><g class="st2"><path class="st3" d="M119.8 98c1.5 0 2.3 1.1 2.3 2.7v.5h-3.9c.1 1.3.8 2.1 1.9 2.1.6 0 1-.2 1.5-.5l.3.6c-.5.3-1.1.6-1.9.6-1.6 0-2.8-1.1-2.8-3s1.2-3 2.6-3zm1.4 2.7c0-1.2-.5-1.8-1.4-1.8-.8 0-1.6.7-1.7 1.8h3.1zm3.6 3.8v2h-1v-8.3h.8l.1.7c.5-.4 1.2-.8 1.9-.8 1.5 0 2.3 1.2 2.3 3 0 2-1.2 3.1-2.5 3.1-.5 0-1.1-.3-1.6-.7v1zm1.4-1.2c1 0 1.7-.9 1.7-2.3 0-1.3-.4-2.1-1.5-2.1-.5 0-1 .3-1.6.8v3.1c.5.3 1 .5 1.4.5z"/></g><g class="st2"><path class="st3" d="M130.8 99h-.9v-.7l.9-.1.1-1.6h.8v1.6h1.6v.8h-1.6v3.2c0 .7.2 1.1.9 1.1.2 0 .5-.1.7-.2l.2.7c-.3.1-.7.2-1.1.2-1.2 0-1.7-.8-1.7-1.9V99z"/></g><g class="st2"><path class="st3" d="M136.9 98c1.5 0 2.3 1.1 2.3 2.7v.5h-3.9c.1 1.3.8 2.1 1.9 2.1.6 0 1-.2 1.5-.5l.3.6c-.5.3-1.1.6-1.9.6-1.6 0-2.8-1.1-2.8-3s1.3-3 2.6-3zm1.5 2.7c0-1.2-.5-1.8-1.4-1.8-.8 0-1.6.7-1.7 1.8h3.1zM143 98c.7 0 1.1.3 1.6.7v-3.2h1v8.5h-.8l-.1-.7c-.5.4-1.1.8-1.8.8-1.5 0-2.4-1.1-2.4-3s1.2-3.1 2.5-3.1zm.1 5.3c.5 0 1-.3 1.5-.8v-3c-.5-.4-.9-.6-1.4-.6-.9 0-1.7.9-1.7 2.2 0 1.4.6 2.2 1.6 2.2z"/></g><circle class="st3" cx="87.5" cy="100.5" r="6.5" id="Oval-46"/><path class="st0" d="M86.6 103.3c-.1 0-.3-.1-.4-.2l-1.6-1.7c-.2-.2-.2-.5 0-.7.2-.2.5-.2.7 0l1.2 1.3 4-4.4c.2-.2.5-.2.7 0 .2.2.2.5 0 .7l-4.4 4.8c.1.1 0 .2-.2.2z" id="Page-1"/><path class="st4" d="M80.9 85.5H225v-10H80.9z" id="Line-02"/><path class="st4" d="M80.9 66.1h120v-10h-120z" id="Line-01"/><path class="st5" d="M81 24h100V14H81z" id="Name"/><path class="st3" d="M68.8 39.8c0 16.1-13 29.1-29.1 29.1s-29.1-13-29.1-29.1 13-29.1 29.1-29.1 29.1 13 29.1 29.1z" id="Fill-8"/><path class="st0" d="M51.9 61.6c-.3 0-.5-.2-.5-.5 0-5.7-4.6-10.3-10.3-10.3h-2.7c-5.7 0-10.3 4.6-10.3 10.3 0 .3-.2.5-.5.5s-.5-.2-.5-.5c0-6.2 5.1-11.3 11.3-11.3h2.7c6.2 0 11.3 5.1 11.3 11.3 0 .3-.2.5-.5.5z" id="Stroke-14"/><path class="st0" d="M39.8 45c-5.1 0-9.2-4.1-9.2-9.2s4.1-9.2 9.2-9.2 9.2 4.1 9.2 9.2c-.1 5.1-4.2 9.2-9.2 9.2zm0-17.4c-4.5 0-8.2 3.7-8.2 8.2 0 4.5 3.7 8.2 8.2 8.2s8.2-3.7 8.2-8.2c-.1-4.5-3.7-8.2-8.2-8.2z" id="Stroke-15"/></svg>