<svg id="Layer_1" xmlns="http://www.w3.org/2000/svg" viewBox="0 0 320 120"><style>.st0{fill:#fff}.st1{fill:#ed4c06}.st2{enable-background:new}.st3{fill:#d9d9d6}.st4{fill:#75787b}.st5{fill:#4bb9dd}</style><title>Artboard 1</title><path class="st0" d="M8 0h304c4.4 0 8 3.6 8 8v104c0 4.4-3.6 8-8 8H8c-4.4 0-8-3.6-8-8V8c0-4.4 3.6-8 8-8z"/><path class="st1" d="M257.4 29.9h-.5c-2.4 0-4.4-2-4.4-4.4V13.9c0-2.4 2-4.4 4.4-4.4h46.5c2.4 0 4.4 2 4.4 4.4v11.6c0 2.4-2 4.4-4.4 4.4h-46zm-.5-19.4c-1.9 0-3.4 1.5-3.4 3.4v11.6c0 1.8 1.4 3.3 3.2 3.4h46.7c1.9 0 3.4-1.5 3.4-3.4V13.9c0-1.9-1.5-3.4-3.4-3.4h-46.5z" id="Stroke-6-2"/><g class="st2"><path class="st1" d="M260.6 20.1c0-2.6 1.5-4 3.6-4s3.5 1.5 3.5 4c0 2.6-1.4 4.1-3.5 4.1-2.2-.1-3.6-1.6-3.6-4.1zm5.3 0c0-1.6-.7-2.5-1.7-2.5-1.1 0-1.7.9-1.7 2.5s.7 2.6 1.7 2.6c1-.1 1.7-1.1 1.7-2.6zm2.7-3.9h1.8l.5 3.7c.1.8.2 1.6.3 2.5.1-.8.3-1.7.5-2.5l.8-3.7h1.5l.9 3.7c.2.8.3 1.6.5 2.5.1-.8.2-1.7.3-2.5l.5-3.7h1.7l-1.4 7.8h-2.2l-.8-3.5-.3-1.8-.3 1.8-.7 3.5H270l-1.4-7.8zm10.8 0h1.8l2 3.9.8 1.7c-.1-.8-.2-1.9-.2-2.9v-2.8h1.7V24h-1.8l-2-3.9-.8-1.7c.1.9.2 1.9.2 2.8V24h-1.7v-7.8zm8.2 0h4.9v1.5h-3.1v1.6h2.7v1.5h-2.7v1.8h3.2V24h-5v-7.8zm11 7.8l-1.5-2.8h-1V24h-1.8v-7.8h2.8c1.7 0 3 .6 3 2.4 0 1.2-.6 1.9-1.4 2.3l1.8 3.1h-1.9zm-2.5-4.2h.9c.9 0 1.4-.4 1.4-1.2s-.5-1-1.4-1h-.9v2.2z"/></g><path class="st3" d="M80.9 104.9H168v-10H80.9z" id="Line-03"/><path class="st3" d="M80.9 85.5H225v-10H80.9z" id="Line-02-2"/><path class="st3" d="M80.9 66.1h120v-10h-120z" id="Line-01-2"/><path class="st4" d="M81 24h100V14H81z" id="Name-2"/><path class="st5" d="M68.8 39.8c0 16.1-13 29.1-29.1 29.1s-29.1-13-29.1-29.1 13-29.1 29.1-29.1 29.1 13 29.1 29.1z" id="Fill-8-2"/><path class="st0" d="M51.9 61.6c-.3 0-.5-.2-.5-.5 0-5.7-4.6-10.3-10.3-10.3h-2.7c-5.7 0-10.3 4.6-10.3 10.3 0 .3-.2.5-.5.5s-.5-.2-.5-.5c0-6.2 5.1-11.3 11.3-11.3h2.7c6.2 0 11.3 5.1 11.3 11.3 0 .3-.2.5-.5.5z" id="Stroke-14-2"/><path class="st0" d="M39.8 45c-5.1 0-9.2-4.1-9.2-9.2s4.1-9.2 9.2-9.2 9.2 4.1 9.2 9.2c-.1 5.1-4.2 9.2-9.2 9.2zm0-17.4c-4.5 0-8.2 3.7-8.2 8.2 0 4.5 3.7 8.2 8.2 8.2s8.2-3.7 8.2-8.2c-.1-4.5-3.7-8.2-8.2-8.2z" id="Stroke-15-2"/></svg>