<svg id="Layer_1" data-name="Layer 1" xmlns="http://www.w3.org/2000/svg" viewBox="0 0 34.23 21.68"><defs><style>.cls-1{fill:#f87d08}</style></defs><title>Artboard 1</title><path class="cls-1" d="M28 21.68H6.54A6.54 6.54 0 0 1 4.69 8.87a4.54 4.54 0 0 1 7.39-3.51 8.88 8.88 0 0 1 17 3.52v.45A6.22 6.22 0 0 1 28 21.68zM9.23 5.35a3.54 3.54 0 0 0-3.54 3.54v.32a.5.5 0 0 1-.39.53 5.54 5.54 0 0 0 1.24 10.94H28a5.22 5.22 0 0 0 .51-10.42.5.5 0 0 1-.45-.55 8.08 8.08 0 0 0 0-.83A7.88 7.88 0 0 0 12.75 6.4a.5.5 0 0 1-.38.33.51.51 0 0 1-.48-.16 3.54 3.54 0 0 0-2.66-1.22z" id="Page-1"/></svg>