<svg id="Layer_1" data-name="Layer 1" xmlns="http://www.w3.org/2000/svg" viewBox="0 0 72 53.97"><defs><style>.cls-1{fill:#fff}.cls-2{fill:none}</style></defs><title>Artboard 4</title><path class="cls-1" d="M8.68 18.55h-3a1 1 0 0 1 0-2h3a1 1 0 1 1 0 2zm4.65 3.19H5.66a1 1 0 0 1 0-2h7.67a1 1 0 0 1 0 2zm12.19-3.19H23.9a1 1 0 0 1 0-2h1.63a1 1 0 0 1 0 2zm0 10.87H5.66a1 1 0 1 1 0-2h19.86a1 1 0 0 1 0 2zm0 4.46H5.66a1 1 0 0 1 0-2h19.86a1 1 0 0 1 0 2zm0 4.47H5.66a1 1 0 0 1 0-2h19.86a1 1 0 0 1 0 2zm-7.78 10.37H5.66a1 1 0 0 1 0-2h12.08a1 1 0 1 1 0 2zm-4.98-2.79a1 1 0 0 1-.51-.15 3.84 3.84 0 0 1-.56-.43 1.53 1.53 0 0 1-1.78.33 1.77 1.77 0 0 1-.76-1l-.79.32c-1.76.88-2.12 1.06-2.69.72a1 1 0 0 1 .42-1.85c.26-.1.93-.43 1.38-.66 1.76-.88 2.13-1.06 2.69-.73a1.71 1.71 0 0 1 .73.94 1.34 1.34 0 0 1 1.48-.11 4.07 4.07 0 0 1 .59.45l1-.51c1.69-.85 2.1-1 2.66-.71a1 1 0 0 1-.42 1.85c-.26.1-.91.42-1.35.65a6.24 6.24 0 0 1-2.09.89zm2.88-1.64zM6.7 44z"/><path class="cls-2" d="M44.69 5.66H19.38v5.64h10.8a1 1 0 0 1 1 1v8.94L33.43 19a3.05 3.05 0 0 1-.33-1.35 3.09 3.09 0 0 1 6.18 0A3.05 3.05 0 0 1 39 19l7.38 7.38a3 3 0 0 1 2.7 0l9.65-9.65a3.05 3.05 0 0 1-.32-1.35 3.09 3.09 0 1 1 3.09 3.09 3.06 3.06 0 0 1-1.35-.32L50.5 27.8a3.05 3.05 0 0 1 .33 1.35 3.09 3.09 0 0 1-6.18 0 3.05 3.05 0 0 1 .32-1.35l-7.38-7.38a3 3 0 0 1-2.7 0l-3.66 3.66v14.78H70V5.66H44.69z"/><path class="cls-2" d="M36.2 16.55a1.09 1.09 0 1 0 .8 1.86 1.09 1.09 0 0 0-.77-1.86zm-7.02-3.25H2v38.67h27.18V13.3z"/><circle class="cls-2" cx="47.7" cy="29.14" r="1.09"/><circle class="cls-2" cx="61.46" cy="15.38" r="1.09"/><path class="cls-1" d="M71 3.66H45.69V1a1 1 0 0 0-2 0v2.66H18.38a1 1 0 0 0-1 1v6.64H1a1 1 0 0 0-1 1V53a1 1 0 0 0 1 1h29.18a1 1 0 0 0 1-1V40.86h12.51v1.94l-9.46 9.46a1 1 0 0 0 1.41 1.41l8-8v2.94a1 1 0 0 0 2 0v-2.98l8 8a1 1 0 1 0 1.41-1.41l-9.36-9.42v-1.94H71a1 1 0 0 0 1-1V4.66a1 1 0 0 0-1-1zM29.18 52H2V13.3h27.18v26.56zM70 38.86H31.18V24.07l3.66-3.66a3 3 0 0 0 2.7 0l7.38 7.38a3.05 3.05 0 0 0-.32 1.35 3.09 3.09 0 0 0 6.18 0 3.05 3.05 0 0 0-.33-1.35l9.65-9.65a3.06 3.06 0 0 0 1.35.32 3.09 3.09 0 1 0-3.09-3.09 3.05 3.05 0 0 0 .32 1.35L49 26.37a3 3 0 0 0-2.7 0L39 19a3.05 3.05 0 0 0 .32-1.35 3.09 3.09 0 0 0-6.18 0 3.05 3.05 0 0 0 .29 1.35l-2.25 2.25V12.3a1 1 0 0 0-1-1h-10.8V5.66H70zM37 18.41a1.09 1.09 0 1 1 .32-.77 1.08 1.08 0 0 1-.32.77zm11.79 10.73A1.09 1.09 0 1 1 47.7 28a1.09 1.09 0 0 1 1.09 1.14zm11.58-13.76a1.09 1.09 0 1 1 1.09 1.09 1.09 1.09 0 0 1-1.09-1.09z"/></svg>