<svg id="Layer_1" data-name="Layer 1" xmlns="http://www.w3.org/2000/svg" viewBox="0 0 72 53.97"><defs><style>.cls-1{fill:#fff}</style></defs><title>Artboard 1</title><path class="cls-1" d="M17.19 36.88a1 1 0 0 1-1-1v-8.42a5.28 5.28 0 0 0-5.27-5.27H9.37a5.28 5.28 0 0 0-5.27 5.27v8.43a1 1 0 0 1-2 0v-8.43a7.28 7.28 0 0 1 7.27-7.27h1.55a7.28 7.28 0 0 1 7.27 7.27v8.43a1 1 0 0 1-1 .99zm-1-24.09a6 6 0 1 0-6 6 6 6 0 0 0 5.98-6zm-2 0a4 4 0 1 1-4-4 4 4 0 0 1 3.98 4zM29.1 6.05a6 6 0 1 0-6 6 6 6 0 0 0 6-6zm-2 0a4 4 0 1 1-4-4 4 4 0 0 1 4 4zm27.9 0a6 6 0 1 0-6 6 6 6 0 0 0 6-6zm-2 0a4 4 0 1 1-4-4 4 4 0 0 1 4 4zm-6.16 30.77a1 1 0 0 0 .61-1.28L43.74 25a7.29 7.29 0 0 0-6.86-4.85h-1.76A7.29 7.29 0 0 0 28.26 25l-3.71 10.55a1 1 0 1 0 1.89.67l3.71-10.52a5.28 5.28 0 0 1 5-3.52h1.75a5.28 5.28 0 0 1 5 3.52l3.71 10.51a1 1 0 0 0 1.28.61zM42 12.79a6 6 0 1 0-6 6 6 6 0 0 0 6-6zm-2 0a4 4 0 1 1-4-4 4 4 0 0 1 4 4zm29.9 23.09v-8.42a7.28 7.28 0 0 0-7.27-7.27h-1.55a7.28 7.28 0 0 0-7.27 7.27v8.43a1 1 0 0 0 2 0v-8.43a5.28 5.28 0 0 1 5.27-5.27h1.55a5.28 5.28 0 0 1 5.27 5.27v8.43a1 1 0 0 0 2 0zm-2-23.09a6 6 0 1 0-6 6 6 6 0 0 0 5.98-6zm-2 0a4 4 0 1 1-4-4 4 4 0 0 1 3.98 4zM7.94 52.95V34.16a1 1 0 0 0-2 0v18.79a1 1 0 0 0 2 0zm6.41 0V34.16a1 1 0 0 0-2 0v18.79a1 1 0 0 0 2 0zm45.3 0V34.16a1 1 0 0 0-2 0v18.79a1 1 0 0 0 2 0zm6.41 0V34.16a1 1 0 0 0-2 0v18.79a1 1 0 0 0 2 0zm-19.94-9.73l-4.44-12.56a1 1 0 1 0-1.89.67l4 11.23H28.24l4-11.23a1 1 0 0 0-1.89-.67l-4.47 12.56a1 1 0 0 0 .94 1.33h5v8.39a1 1 0 0 0 2 0v-8.39h4.41v8.39a1 1 0 0 0 2 0v-8.39h5a1 1 0 0 0 .94-1.33z"/></svg>