<svg id="Layer_1" data-name="Layer 1" xmlns="http://www.w3.org/2000/svg" viewBox="0 0 31.89 29.26"><defs><style>.cls-1{fill:#f87d08}</style></defs><title>Artboard 1</title><path class="cls-1" d="M14.24 21.51a.5.5 0 0 0 .5-.5v-1.24a3.48 3.48 0 0 0-3.48-3.48h-.73a3.48 3.48 0 0 0-3.48 3.48V21a.5.5 0 0 0 1 0v-1.23a2.48 2.48 0 0 1 2.48-2.48h.73a2.48 2.48 0 0 1 2.48 2.48V21a.5.5 0 0 0 .5.51zm-3.34-5.82A2.88 2.88 0 1 0 8 12.81a2.89 2.89 0 0 0 2.9 2.88zm0-4.77A1.88 1.88 0 1 1 9 12.81a1.89 1.89 0 0 1 1.9-1.88zm10.78 7.39a.5.5 0 0 0 .5-.5v-1.2a3.48 3.48 0 0 0-3.48-3.48H18a3.48 3.48 0 0 0-3.48 3.48.5.5 0 0 0 1 0A2.48 2.48 0 0 1 18 14.13h.7a2.48 2.48 0 0 1 2.48 2.48v1.2a.5.5 0 0 0 .5.5zm-3.34-5.78a2.88 2.88 0 1 0-2.88-2.88 2.89 2.89 0 0 0 2.88 2.88zm0-4.77a1.88 1.88 0 1 1-1.88 1.88 1.89 1.89 0 0 1 1.88-1.88z"/><path class="cls-1" d="M31.74 14.45a.5.5 0 0 0-.71 0l-1.77 1.77v-1.6A14.62 14.62 0 1 0 25 25a.5.5 0 0 0-.71-.71 13.63 13.63 0 1 1 4-9.64v1.62l-1.79-1.8a.5.5 0 0 0-.71.71l2.61 2.62a.5.5 0 0 0 .71 0l2.62-2.62a.5.5 0 0 0 .01-.73z"/></svg>