<svg id="Layer_1" data-name="Layer 1" xmlns="http://www.w3.org/2000/svg" viewBox="0 0 23.37 31.54"><defs><style>.cls-1{fill:#f87d08}</style></defs><title>Artboard 1</title><path class="cls-1" d="M3.54 4.48h5a.5.5 0 0 0 0-1h-5a.5.5 0 0 0 0 1zm11.91 0h1.06a.5.5 0 0 0 0-1h-1.06a.5.5 0 0 0 0 1zM3.54 10.84h13a.5.5 0 0 0 0-1h-13a.5.5 0 0 0 0 1zm0 4.07h13a.5.5 0 0 0 0-1h-13a.5.5 0 0 0 0 1zM16.51 19a.5.5 0 0 0 0-1h-13a.5.5 0 1 0 0 1zM5.27 23.73l.65-.33a1.14 1.14 0 0 0 .48.78c.47.27.89-.1 1.09-.28l.1.09a2.28 2.28 0 0 0 .31.25.51.51 0 0 0 .29.09 4.37 4.37 0 0 0 1.5-.64c.25-.13.59-.31.73-.37a.51.51 0 0 0 .27-.1.5.5 0 0 0 .09-.7c-.29-.38-.58-.22-1.56.29-.27.14-.69.36-.93.47a2.93 2.93 0 0 0-.43-.34.81.81 0 0 0-1 .21 1.14 1.14 0 0 0-.46-.75c-.3-.2-.5-.09-1.61.47-.32.16-.78.4-1 .46a.5.5 0 0 0-.23.93c.37.15.6.03 1.71-.53z"/><path class="cls-1" d="M22.87 3.51h-2.81V.5a.5.5 0 0 0-.5-.5H.5a.5.5 0 0 0-.5.5v27a.5.5 0 0 0 .5.5h2.81v3a.5.5 0 0 0 .5.5h19.06a.5.5 0 0 0 .5-.5V4a.5.5 0 0 0-.5-.49zM1 1h18.06v26H1zm21.37 29.54H4.31V28h15.25a.5.5 0 0 0 .5-.5v-23h2.31z"/></svg>