<svg version="1.1" xmlns="http://www.w3.org/2000/svg" xmlns:xlink="http://www.w3.org/1999/xlink" viewBox="0 0 19 19" xml:space="preserve">
  <path d="M9.5,19C4.3,19,0,14.7,0,9.5S4.3,0,9.5,0S19,4.3,19,9.5S14.7,19,9.5,19z M9.5,1C4.8,1,1,4.8,1,9.5C1,14.2,4.8,18,9.5,18 c4.7,0,8.5-3.8,8.5-8.5C18,4.8,14.2,1,9.5,1z M15.7,6.7L15.7,6.7c0-0.5-0.4-0.8-0.8-0.8H4.2c-0.4,0-0.8,0.3-0.8,0.7v0.1v6.5v0.1 c0,0.4,0.4,0.7,0.8,0.7h10.6c0.4,0,0.8-0.3,0.8-0.7v-0.1L15.7,6.7z M4.2,7.5L8,10.1l-3.8,2.4V7.5z M9.5,10.2L9,9.8L4.4,6.7l10.2,0.1 L9.5,10.2z M8.7,10.6L9.3,11c0.1,0.1,0.3,0.1,0.5,0l0.6-0.4l4.3,2.7H4.4L8.7,10.6z M11,10.1l3.8-2.6v5.1L11,10.1z"/>
</svg>