<?xml version="1.0" encoding="utf-8"?>
<!-- Generator: Adobe Illustrator 20.0.0, SVG Export Plug-In . SVG Version: 6.00 Build 0)  -->
<svg version="1.1" id="Layer_1" xmlns="http://www.w3.org/2000/svg" xmlns:xlink="http://www.w3.org/1999/xlink" x="0px" y="0px"
	 viewBox="0 0 75 79.2" style="enable-background:new 0 0 75 79.2;" xml:space="preserve">
<path id="Path_7" d="M40.6,60.3v5.2h-5v-4.9h-5.3v-5h9.5c1.4,0,2.5-1.1,2.5-2.5c0-1.4-1.1-2.5-2.5-2.5c0,0,0,0,0,0h-4.5
	c-4.2,0-7.6-3.4-7.6-7.6s3.4-7.6,7.6-7.6l0,0v-5h5v4.9h3.5v5h-8.5c-1.4,0-2.5,1.1-2.5,2.5v0c-0.1,1.4,1.1,2.6,2.5,2.7c0,0,0,0,0,0
	h4.5c4.1,0,7.5,3.3,7.5,7.5l0,0C47.3,56.8,44.4,59.9,40.6,60.3L40.6,60.3z M68.2,79.2c5.2,0,6.6-6.6,6.8-7.8
	c0.2-18.7-7.7-36.6-21.8-48.9l-3.4-2.6H23.1L19.9,23C7.6,36.2,0.6,53.3,0,71.3v0.6c0,0.7,1.7,7.2,6.8,7.2L68.2,79.2 M5,71.2
	c0.6-16.7,7.3-32.6,18.7-44.7l1.5-1.6h23.1l1.5,1.4c12.8,11.3,20.1,27.6,19.9,44.6c0,1.3-1.2,3.3-1.9,3.3h-61
	C6.3,74.2,5.4,72.6,5,71.2 M57.7,8C59,5.2,57.8,1.9,55,0.5C54.3,0.2,53.5,0,52.7,0H22.8c-3.1,0-5.6,2.6-5.5,5.6
	c0,0.8,0.2,1.6,0.5,2.3l3.7,7.7h32.9L57.7,8z M21.8,5.8c-0.1-0.3,0-0.7,0.4-0.8c0,0,0.1,0,0.1,0h29.9c0.1,0.2,0.1,0.3,0,0.5
	l-2.4,4.9H24.2L21.8,5.8z"/>
</svg>
