<svg xmlns="http://www.w3.org/2000/svg" viewBox="4191 1322 75 79.177">
  <defs>
    <style>
      .cls-1 {
        fill: #ed4c06;
      }
    </style>
  </defs>
  <path id="Path_7" data-name="Path 7" class="cls-1" d="M40.634,60.254v5.179h-4.98v-4.88H30.376v-4.98h9.461a2.49,2.49,0,1,0,0-4.98H35.356a7.569,7.569,0,1,1,0-15.138h0v-4.98h4.98v4.88h3.486v4.98H35.356a2.49,2.49,0,0,0-2.49,2.49,2.589,2.589,0,0,0,2.49,2.689h4.482a7.47,7.47,0,0,1,7.47,7.47,7.37,7.37,0,0,1-6.673,7.27ZM68.222,79.177c5.179,0,6.573-6.573,6.772-7.768a63.84,63.84,0,0,0-21.811-48.9L49.8,19.919H23.106l-3.187,3.087A74.1,74.1,0,0,0,0,71.309v.6c0,.7,1.693,7.171,6.772,7.171h61.45M4.98,71.21A69.118,69.118,0,0,1,23.7,26.492L25.2,24.9H48.3L49.8,26.293A58.86,58.86,0,0,1,69.716,70.911c0,1.295-1.2,3.287-1.892,3.287H6.872c-.6,0-1.494-1.594-1.793-2.988M57.665,7.968A5.577,5.577,0,0,0,52.685,0H22.807a5.577,5.577,0,0,0-4.98,7.968l3.685,7.669H54.378ZM21.811,5.776a.6.6,0,0,1,.5-.8H52.187a.5.5,0,0,1,0,.5l-2.39,4.88H24.2Z" transform="translate(4191 1322)"/>
</svg>
