<svg id="Layer_1" xmlns="http://www.w3.org/2000/svg" viewBox="0 0 300 230.3"><style>.st0{fill:#fff}.st1{enable-background:new}.st2{fill:#75787b}.st3{fill:#d9d9d6}.st4{fill:#f87d08}.st5{fill:#00396b}.st6{opacity:.1}.st7{fill:#00a1e0}.st8{fill:#ed4c06}</style><title>Artboard 1</title><path class="st0" d="M60.5 36.7V15.6h-30v21.1z" id="path-3"/><path class="st0" d="M8 0h284c4.4 0 8 3.6 8 8v214c0 4.4-3.6 8-8 8H8c-4.4 0-8-3.6-8-8V8c0-4.4 3.6-8 8-8z"/><g class="st1"><path class="st2" d="M32 108.7h-1.8v-.6h4.3v.6h-1.8v5.3H32v-5.3zm3.7-.6h.8v5.9h-.8v-5.9zm2.5 0h.9l1.1 3.2.4 1.2.4-1.2 1.1-3.2h.9v5.9h-.7v-3.2c0-.5.1-1.2.1-1.7l-.5 1.3-1.1 3.1h-.4l-1.1-3.1-.5-1.3c0 .5.1 1.2.1 1.7v3.2h-.7v-5.9zm6.7 0h3.4v.6h-2.6v1.9h2.2v.6h-2.2v2.1h2.7v.6h-3.5v-5.8zm6.9 4.6c.4.4 1 .7 1.6.7.8 0 1.2-.4 1.2-1s-.4-.8-1-1l-.8-.4c-.5-.2-1.2-.7-1.2-1.5 0-.9.8-1.6 1.9-1.6.7 0 1.3.3 1.7.7l-.4.5c-.4-.3-.8-.6-1.3-.6-.7 0-1.1.3-1.1.9 0 .6.5.8 1 1l.8.4c.7.3 1.2.7 1.2 1.6 0 .9-.8 1.7-2 1.7-.8 0-1.5-.3-2.1-.9l.5-.5zm4.9-4.6h1.8c1.3 0 2.2.4 2.2 1.7 0 1.2-.9 1.8-2.2 1.8h-1.1v2.3h-.8v-5.8zm1.7 2.9c1 0 1.5-.4 1.5-1.2 0-.9-.5-1.1-1.5-1.1h-1v2.3h1zm3.6-2.9h3.4v.6h-2.6v1.9H65v.6h-2.2v2.1h2.7v.6H62v-5.8zm4.9 0h.8l2.1 3.7.6 1.2c0-.6-.1-1.3-.1-1.9V108h.7v5.9h-.8l-2.1-3.7-.6-1.2c0 .6.1 1.2.1 1.8v3.1h-.7v-5.8zm7.1.6h-1.8v-.6h4.3v.6h-1.8v5.3H74v-5.3zm5.8-.6h1.8c1.3 0 2.2.4 2.2 1.7 0 1.2-.9 1.8-2.2 1.8h-1.1v2.3h-.8v-5.8zm1.7 2.9c1 0 1.5-.4 1.5-1.2 0-.9-.5-1.1-1.5-1.1h-1v2.3h1zm3.6-2.9h3.4v.6h-2.6v1.9h2.2v.6h-2.2v2.1h2.7v.6h-3.5v-5.8zm8.1 5.9l-1.4-2.5h-1.1v2.5h-.8v-5.9h1.9c1.2 0 2.1.4 2.1 1.7 0 .9-.5 1.5-1.3 1.7L94 114h-.8zm-2.5-3.1h1c.9 0 1.4-.4 1.4-1.1 0-.8-.5-1.1-1.4-1.1h-1v2.2z"/></g><g class="st1"><path class="st2" d="M96.9 108.1h1.8c1.3 0 2.2.4 2.2 1.7 0 1.2-.9 1.8-2.2 1.8h-1.1v2.3h-.8v-5.8zm1.7 2.9c1 0 1.5-.4 1.5-1.2 0-.9-.5-1.1-1.5-1.1h-1v2.3h1z"/></g><g class="st1"><path class="st2" d="M104.4 112.2h-2.2l-.6 1.8h-.8l2-5.9h.8l2 5.9h-.6l-.6-1.8zm-.2-.6l-.3-.9c-.2-.7-.4-1.3-.6-2-.2.7-.4 1.3-.6 2l-.3.9h1.8z"/></g><g class="st1"><path class="st2" d="M109 108c.8 0 1.3.4 1.7.7l-.4.5c-.3-.3-.7-.5-1.3-.5-1.2 0-2 .9-2 2.4s.7 2.4 2 2.4c.4 0 .8-.1 1.1-.4v-1.5h-1.3v-.6h1.9v2.5c-.4.4-1 .7-1.8.7-1.5 0-2.7-1.1-2.7-3.1.1-2 1.2-3.1 2.8-3.1zm3.3.1h3.4v.6H113v1.9h2.2v.6H113v2.1h2.7v.6h-3.5v-5.8z"/></g><path class="st2" d="M30 136.7h29.3V129H30z" id="Fill-21"/><path class="st3" d="M30 151.7h45.6V144H30z" id="Fill-23"/><path class="st3" d="M30 167.7h90.9V160H30z" id="Fill-24"/><path class="st3" d="M30 182.7h45.6V175H30z" id="Fill-25"/><path class="st3" d="M30 197.7h67.5V190H30z" id="Fill-26"/><path class="st4" d="M167.4 153.8h102.3v-11.5H167.4z" id="Fill-28"/><path class="st4" d="M167.4 169.2h85.4v-11.5h-85.4z" id="Fill-29"/><path class="st4" d="M167.4 184.6h60.4v-11.5h-60.4z" id="Fill-30"/><path class="st4" d="M167.4 200h29.3v-11.5h-29.3z" id="Fill-31"/><path class="st5" d="M0 51.4h300V8c0-4.4-3.6-8-8-8H8C3.6 0 0 3.6 0 8v43.4z" id="Fill-33"/><g id="Fill-33-2" class="st6"><path class="st3" d="M0 89.8h300v132.5c0 4.4-3.6 8-8 8H8c-4.4 0-8-3.6-8-8V89.8z"/></g><path class="st7" d="M43 17.9c2-2.1 5.3-2.2 7.5-.2.4.4.7.8 1 1.3.8-.4 1.7-.6 2.6-.6 3.6 0 6.6 2.9 6.6 6.5s-2.9 6.6-6.5 6.6c-.5 0-.9 0-1.4-.1a4.72 4.72 0 0 1-6.2 2c-1.2 2.7-4.4 4-7.1 2.8-1.3-.6-2.4-1.7-2.9-3-.3.1-.7.1-1 .1-2.8 0-5.1-2.3-5-5.1 0-1.8 1-3.4 2.5-4.3-1.3-3 .1-6.4 3.1-7.7 2.4-1.1 5.3-.4 6.8 1.7" id="Fill-1"/><path class="st0" d="M34.8 26.5l.2.2c.3.1.6.2.9.2.6 0 1-.3 1-.9 0-.5-.4-.7-.8-.8H36c-.3-.1-.6-.2-.6-.4s.2-.3.4-.3c.3 0 .5.1.8.2h.1l.1-.3v-.1c-.3-.2-.6-.2-.9-.2h-.1c-.5-.1-.9.2-1 .7v.1c0 .5.4.7.8.8h.1c.3.1.5.2.5.4s-.2.3-.4.3c-.3 0-.6-.1-.8-.2h-.1l-.1.3z" id="Fill-4"/><path class="st0" d="M43.9 26.5l.2.2c.3.1.6.2.9.2.6 0 1-.3 1-.9 0-.5-.4-.7-.8-.8H45c-.3-.1-.6-.2-.6-.4s.2-.3.4-.3c.3 0 .5.1.8.2h.1l.1-.3v-.1c-.3-.2-.6-.2-.9-.2h-.1c-.5-.1-.9.2-1 .7v.1c0 .5.4.7.8.8h.1c.3.1.5.2.5.4s-.2.3-.4.3c-.3 0-.6-.1-.8-.2h-.1v.3z" id="Fill-6"/><path class="st0" d="M50 25.5c0 .2 0 .5-.2.7-.1.2-.3.3-.5.2-.2 0-.4-.1-.5-.2-.2-.4-.2-1 0-1.4.1-.2.3-.3.5-.2.2 0 .4.1.5.2.2.2.2.5.2.7m.5-.5c0-.2-.1-.3-.2-.5-.1-.1-.2-.2-.4-.3-.4-.1-.7-.1-1.1 0-.2.1-.3.2-.4.3-.1.1-.2.3-.2.5-.1.4-.1.7 0 1.1 0 .2.1.3.2.5.1.1.2.2.4.3.4.1.7.1 1.1 0 .2-.1.3-.2.4-.3.1-.1.2-.3.2-.5.1-.4.1-.8 0-1.1" id="Fill-8"/><path class="st0" d="M54.8 26.4l-.2.1h-.3c-.2 0-.5-.1-.6-.2-.2-.2-.2-.4-.2-.7 0-.2.1-.5.2-.7.1-.2.4-.3.6-.2.2 0 .4 0 .5.1h.1l.1-.4-.3-.1h-.4c-.2 0-.4 0-.6.1-.2.1-.3.2-.4.3-.1.1-.2.3-.2.5-.1.2-.1.4-.1.5 0 .4.1.7.3 1 .3.3.6.4 1 .4.2 0 .5 0 .7-.1l-.2-.6z" id="Fill-10"/><path class="st0" d="M55.7 25.2c0-.1.1-.3.1-.4.1-.2.3-.3.5-.2.2 0 .4.1.5.2.1.1.1.3.1.4h-1.2zm1.7-.4c0-.2-.1-.3-.2-.4-.1-.1-.2-.2-.3-.2-.2-.1-.3-.1-.5-.1s-.4 0-.6.1c-.2.1-.3.2-.4.3-.1.1-.2.3-.2.5-.1.2-.1.4-.1.6 0 .2 0 .4.1.6.1.3.4.6.7.7.2.1.4.1.6.1.3 0 .6 0 .9-.2v-.1l-.1-.3c-.2.1-.5.1-.7.1-.4.1-.8-.2-.8-.5v-.3h1.8c-.1-.4-.1-.6-.2-.9z" id="Fill-12"/><path class="st0" d="M41.7 25.2c0-.1.1-.3.1-.4.1-.2.3-.3.5-.2.2 0 .4.1.5.2.1.1.1.3.1.4h-1.2zm1.7-.4c0-.2-.1-.3-.2-.4-.1-.1-.2-.2-.3-.2-.2-.1-.3-.1-.5-.1s-.4 0-.6.1c-.2.1-.3.2-.4.3-.1.1-.2.3-.2.5-.1.2-.1.4-.1.6 0 .2 0 .4.1.6 0 .2.1.3.2.4.1.1.3.2.4.3.2.1.4.1.6.1.3 0 .6 0 .9-.2v-.1l-.1-.3c-.2.1-.5.1-.7.1-.2 0-.4-.1-.6-.2-.1-.2-.2-.4-.2-.6h1.8c.1-.3.1-.5-.1-.9z" id="Fill-14"/><path class="st0" d="M37.9 26.4l-.1-.1c0-.1-.1-.2 0-.2 0-.1.1-.3.2-.3.1-.1.3-.1.5-.1h.5v.8c-.2 0-.3.1-.5.1-.2-.2-.4-.2-.6-.2m.7-1.3h-.7c-.1 0-.3.1-.4.2-.1.1-.2.2-.2.3-.1.1-.1.3-.1.4 0 .1 0 .3.1.4.1.1.1.2.2.3.1.1.2.1.3.1h1l.4-.1h.1v-1.6c0-.3-.1-.6-.3-.8-.2-.2-.5-.3-.8-.2h-.5c-.2 0-.4.1-.5.2v.1l.1.3c.2-.1.5-.2.8-.2.2 0 .3 0 .4.1.1.1.1.2.1.4v.1h-.3" id="Fill-16"/><path class="st0" d="M52.7 24.2h-.3c-.2 0-.3 0-.5.1-.1 0-.2.1-.3.2v-.2h-.5v2.6h.3v-1.3c0-.2 0-.3.1-.5 0-.1.1-.2.2-.3.1-.1.1-.1.2-.1h.4l.1-.4" id="Fill-18"/><path class="st0" d="M48.4 23H48c-.3 0-.5.1-.7.3-.2.2-.3.5-.3.8v.1h-.5l-.1.4s0 .1.1.1h.4l-.4 2.2c0 .1-.1.3-.1.4 0 .1-.1.2-.1.2 0 .1-.1.1-.2.1h-.5l-.1.4h.4c.1 0 .3 0 .4-.1.1 0 .2-.1.3-.1.1-.1.2-.2.2-.4.1-.2.1-.4.2-.6l.4-2.2h.7l.1-.4h-.6c0-.1 0-.3.1-.4 0-.1 0-.1.1-.2 0 0 .1-.1.2-.1h.5l.1-.4" id="Fill-20"/><path class="st0" d="M40.6 26.8h-.5v-3.7h.5v3.7z" id="Fill-22"/><path class="st2" d="M271.1 73.6c0 4.7-3.9 8.6-8.6 8.5-4.7 0-8.6-3.9-8.5-8.6 0-4.7 3.9-8.6 8.6-8.5 4.7 0 8.6 3.9 8.5 8.6" id="Fill-35"/><path class="st8" d="M43 70.8c-.3 0-.6-.1-.8-.3l-2-2c-.5-.3-.6-1-.3-1.5s1-.6 1.5-.3l.3.3 2 2c.4.4.4 1.1-.1 1.5-.1.2-.4.3-.6.3" id="Fill-38"/><path class="st8" d="M36.2 78.8c-.3 0-.6-.1-.8-.3l-3.3-3.3c-.4-.4-.4-1.1 0-1.5.4-.4 1.1-.4 1.5 0L37 77c.4.4.4 1.1 0 1.5-.2.2-.5.3-.8.3" id="Fill-39"/><path class="st8" d="M43 75.7c-.3 0-.6-.1-.8-.3l-6.9-6.9c-.5-.4-.5-1.1-.1-1.5.4-.5 1.1-.5 1.5-.1.1 0 .1.1.2.2l6.9 6.9c.4.4.4 1.1-.1 1.5-.2.1-.4.2-.7.2" id="Fill-40"/><path class="st8" d="M43 80.7c-.3 0-.6-.1-.8-.3L30.4 68.5c-.4-.5-.3-1.2.2-1.5.4-.3.9-.3 1.3 0l11.9 11.8c.4.4.4 1.1 0 1.5-.3.2-.5.3-.8.4" id="Fill-41"/><path class="st7" d="M262.4 34.4c4.3-.2 7.6-3.7 7.4-8-.1-4-3.4-7.3-7.4-7.4h-31.7c-4.3.2-7.6 3.7-7.4 8 .1 4 3.4 7.3 7.4 7.4h31.7z" id="Fill-53"/><g class="st1"><path class="st0" d="M237.3 26.7c0-1.5.8-2.4 2-2.4 1.1 0 2 .9 2 2.4s-.8 2.4-2 2.4c-1.1 0-2-.9-2-2.4zm3.4 0c0-1.1-.5-1.8-1.4-1.8-.8 0-1.4.7-1.4 1.8s.5 1.9 1.4 1.9c.8 0 1.4-.8 1.4-1.9z"/></g><g class="st1"><path class="st0" d="M244.1 24.3c.5 0 1 .3 1.3.6l-.3.4c-.2-.3-.5-.4-.9-.4-.9 0-1.5.7-1.5 1.9s.6 1.9 1.4 1.9c.4 0 .8-.2 1-.5l.3.4c-.4.4-.8.7-1.4.7-1.2 0-2-.9-2-2.4.1-1.7.9-2.6 2.1-2.6z"/></g><g class="st1"><path class="st0" d="M247.2 24.9h-1.4v-.5h3.4v.5h-1.4V29h-.6v-4.1zm2.9-.5h.6V29h-.6v-4.6zm1.4 0h.6l.7 2.5c.2.5.3 1 .4 1.5.2-.5.3-1 .4-1.5l.7-2.5h.6l-1.5 4.6h-.7l-1.2-4.6z"/></g></svg>