<svg id="FINAL" xmlns="http://www.w3.org/2000/svg" xmlns:xlink="http://www.w3.org/1999/xlink" viewBox="0 0 212.82 37.32"><defs><style>.cls-1{fill:#455560}.cls-2{fill:#cee39b}.cls-3{fill:#a8c933}.cls-4{fill:url(#linear-gradient)}.cls-5{fill:url(#linear-gradient-2)}.cls-6{fill:#fff}.cls-7{fill:#35933a}</style><linearGradient id="linear-gradient" x1="14.41" y1="41.81" x2="14.41" y2="-12.07" gradientUnits="userSpaceOnUse"><stop offset="0" stop-color="#42aa44"/><stop offset=".5" stop-color="#75b940"/><stop offset="1" stop-color="#a1cd3a"/></linearGradient><linearGradient id="linear-gradient-2" x1="142.19" y1="-186.11" x2="142.19" y2="-242.36" gradientTransform="matrix(.77 0 0 .77 -86.44 181.05)" xlink:href="#linear-gradient"/></defs><title>Artboard 1</title><path class="cls-1" d="M63.32 4.71h-12.6a2.11 2.11 0 0 0-1.3.5 1.66 1.66 0 0 0-.5 1.3v24.7c0 1.5 1.2 1.5 2.7 1.5s2.7-.1 2.7-1.5v-10.7h7.5c1.4 0 1.5-1.1 1.5-2.5s-.1-2.5-1.5-2.5h-7.5v-6.1h9.1c1.4 0 1.5-1.1 1.5-2.5-.2-1.1-.2-2.2-1.6-2.2zm33.8 7.4a7.78 7.78 0 0 0-5.6 1.9 4.17 4.17 0 0 1-.2-.6c-.3-1-.8-1.4-2.2-1.4s-2.5 0-2.5 1.4v17.9c0 1.5 1.2 1.5 2.6 1.5s2.6-.1 2.6-1.5v-8.9c0-4.9 2.6-5.4 5.2-5.4 1.4 0 1.5-1.1 1.5-2.5s0-2.4-1.4-2.4zm43.3 8a27.48 27.48 0 0 0-2.8-.9c-1.3-.5-1.5-1.1-1.5-1.5 0-1.1 1.4-1.3 2.6-1.3a14.08 14.08 0 0 1 3.1.5 5.16 5.16 0 0 0 1.1.2c1.2 0 1.5-1.2 1.5-2.4 0-1 0-1.8-1.1-2.1a16.88 16.88 0 0 0-4.8-.8c-4.9 0-7.8 2.3-7.8 6.3 0 3.2 2 4.6 5 5.7.9.3 2.2.8 2.6.9 1 .5 1.5.9 1.5 1.8 0 1.2-1.4 2-3.4 2a12.06 12.06 0 0 1-3.3-.5 4.4 4.4 0 0 0-1-.2c-1.3 0-1.7 1.2-1.7 2.5 0 1.1.2 1.9 1.2 2.2a20.61 20.61 0 0 0 5 .6c5.1 0 8.5-2.8 8.5-6.9.2-3.9-2.5-5.3-4.7-6.1zm-65.8-8.4c-4.4 0-9.6 2.8-9.6 10.7s5.2 10.7 9.6 10.7 9.6-2.8 9.6-10.7-5.22-10.7-9.6-10.7zm0 16.7c-2.7 0-4.1-2.1-4.1-6.1 0-6 3.1-6 4.1-6s4.1 0 4.1 6c0 4.1-1.4 6.1-4.1 6.1zM168 11.71a21.58 21.58 0 0 0-5.6.8c-1.2.3-1.3 1.4-1.1 2.5s.5 2 1.6 2a.75.75 0 0 0 .5-.1h.1a18.44 18.44 0 0 1 4.1-.6c2.5 0 3.4.7 3.5 2.8a15.52 15.52 0 0 0-2.3-.1c-4.3 0-8.7 2.2-8.7 7.1 0 3.1 1.5 6.9 8.7 6.9a35.35 35.35 0 0 0 5.6-.7c1.5-.4 2.1-.7 2.1-2.1v-10.7c-.28-5.1-2.98-7.8-8.5-7.8zm3 16.5a15.74 15.74 0 0 1-2.5.2c-2.8 0-3.3-.9-3.3-2.3 0-.6 0-2.6 3.8-2.6a11.24 11.24 0 0 1 2 .2zm17.42-11.9a11.94 11.94 0 0 1 2.9.4 1.49 1.49 0 0 0 .6.1c1.1 0 1.3-.9 1.5-1.9.3-1.2.3-2.3-.9-2.7a13.27 13.27 0 0 0-4.5-.7c-4.6 0-9.8 3.3-9.8 10.7 0 7.9 5.6 10.7 9.8 10.7a12.88 12.88 0 0 0 4.5-.7c1.2-.4 1.2-1.5.9-2.7-.2-1-.5-1.8-1.5-1.8-.2 0-.5 0-.6.1a11.93 11.93 0 0 1-2.9.4c-2.9 0-4.6-2-4.6-6 0-3.8 1.7-5.9 4.6-5.9zM157 28.11a.9.9 0 0 0-.5.1 9 9 0 0 1-1.8.2c-1.4 0-1.9 0-1.9-3.9v-7.6h4c1.2 0 1.5-1 1.5-2.3s-.2-2.3-1.5-2.3h-4v-4.4c0-1.5-1.2-1.5-2.6-1.5s-2.6.1-2.6 1.5v18.8c0 4.2 2.2 6.3 6.4 6.3a25.28 25.28 0 0 0 3.5-.3c1.2-.3 1.4-1.4 1.2-2.7s-.58-1.9-1.7-1.9zm-35.28-16.4a7.64 7.64 0 0 0-5.9 2.6 5.85 5.85 0 0 0-5.2-2.6 7.45 7.45 0 0 0-5.1 2.2 2 2 0 0 0-.1-.5c-.3-1-.8-1.4-2.2-1.4-1.4 0-2.5 0-2.5 1.4v17.9c0 1.5 1.2 1.5 2.6 1.5s2.6-.1 2.6-1.5v-9.1c0-5.6 2.7-5.6 3.6-5.6.5 0 2.2 0 2.2 4.2v10.5c0 1.5 1.2 1.5 2.6 1.5s2.6-.1 2.6-1.5V21c0-2.9 1.2-4.4 3.4-4.4 1.5 0 2.3 1.4 2.3 4.2v10.5c0 1.5 1.2 1.5 2.6 1.5s2.6-.1 2.6-1.5V19.91c.5-6.7-3.1-8.2-6.1-8.2zm90.9 19.4l-5.1-9.4 4.3-7.9c.5-1.1-.1-1.7-2.3-1.7-1.9 0-2.5.1-3.2 1.3l-2.9 5.5c-.2.2-.3.5-.5.7a2.18 2.18 0 0 1-.8.5l-.8.3V6.21c0-1.5-1.2-1.5-2.6-1.5s-2.6.1-2.6 1.5v25.1c0 1.5 1.2 1.5 2.6 1.5s2.6-.1 2.6-1.5v-5.6l2.2-.9 3.5 6.6c.6 1.2 1.4 1.3 3.3 1.3 2.2.2 2.9-.5 2.3-1.6z"/><path class="cls-2" d="M39.32 7.21A1.07 1.07 0 0 0 38.22 6h-4.45a104.63 104.63 0 0 0 0 25.1h4.44a1 1 0 0 0 1.1-1.2 86.26 86.26 0 0 1 .01-22.69z"/><path class="cls-3" d="M33.78 31.11a104.63 104.63 0 0 1 0-25.1c0-.46.09-.92.15-1.4.2-.7-.4-1.3-1.2-1.3l-4.07.2c-.09.83-.18 1.67-.25 2.5a147.87 147.87 0 0 0 0 25.1c.07.83.16 1.67.24 2.5l4.11.2a1.13 1.13 0 0 0 1.2-1.4c-.09-.41-.13-.87-.18-1.3z"/><path class="cls-4" d="M20.52 6h7.87c.07-.84.17-1.67.25-2.5.06-.57.11-1.13.17-1.7.1-1.2-.5-1.9-1.5-1.8l-15.8 1.5C6.92 6 4.62 8.11.22 12.21a104.69 104.69 0 0 0 .7 20.9 2 2 0 0 0 1.9 1.7l24.5 2.5c.9.1 1.5-.6 1.5-1.6-.08-.7-.14-1.4-.21-2.1s-.17-1.67-.24-2.5h-7.85a1.38 1.38 0 0 1-1.3-1.2 86.26 86.26 0 0 1 0-22.7A1.31 1.31 0 0 1 20.52 6z"/><path class="cls-5" d="M19.22 7.21a86.26 86.26 0 0 0 0 22.7 1.38 1.38 0 0 0 1.3 1.2h7.85a147.87 147.87 0 0 1 0-25.1h-7.85a1.31 1.31 0 0 0-1.3 1.2z"/><path class="cls-6" d="M4.32 31.71c4.2.3 6.3.5 10.4.9-.3-2.8-.4-4.2-.5-7-4.2-.2-6.3-.2-10.4-.4.1 2.6.18 3.9.5 6.5zm-.6-9.8c7 .2 10.4.2 17.3.3-.1-2.9-.1-4.3 0-7.3-7 .2-10.4.2-17.3.4-.1 2.6-.1 4 0 6.6z"/><path class="cls-2" d="M11.62 1.61C7 6.11 4.72 8.21.32 12.31c2.8-.9 4.2-1.3 7-2.2a4.05 4.05 0 0 0 .9-.5 1.46 1.46 0 0 0 .6-.9c1.1-3 1.6-4.4 2.8-7.1z"/><path class="cls-7" d="M8.62 11.81a2.2 2.2 0 0 0 1.5-.6 1.8 1.8 0 0 0 .7-1.5c.2-3.2.4-4.9.8-8.2-1.2 2.8-1.7 4.2-2.7 7a4.7 4.7 0 0 1-.6.9c-.3.2-.6.5-.9.5-2.9.9-4.2 1.3-7 2.2 3.2 0 4.9-.11 8.2-.3z"/><path class="cls-6" d="M11.22 5c-.2 1.9-.3 2.9-.4 4.8a1.93 1.93 0 0 1-.7 1.5 2.4 2.4 0 0 1-1.5.6c6.4-.2 9.6-.4 15.9-.6.2-2.9.2-4.4.5-7.3-5.5.31-8.2.51-13.8 1z"/></svg>