<svg id="Layer_1" data-name="Layer 1" xmlns="http://www.w3.org/2000/svg" viewBox="0 0 19 19"><defs><style>.cls-1{fill:none;stroke:#000}</style></defs><title>g+</title><path d="M4.09 16.47l-1.34-1.34a9.09 9.09 0 0 0 1.34 1.34z"/><path d="M10.23 4.17H5.1a4.91 4.91 0 0 0-3.44 1.45L.8 9a3.72 3.72 0 0 0 3.75 2.63H5a2.18 2.18 0 0 0-.25 1 2.07 2.07 0 0 0 .7 1.37h-.88a6.26 6.26 0 0 0-2.31.44l.48.67a4.51 4.51 0 0 1 2.37-.62 4 4 0 0 1 1.27.21c1.06.73 1.83 1.14 2 2a2.09 2.09 0 0 1 .06.52 2.65 2.65 0 0 1-.23 1.15 8.94 8.94 0 0 1-4.18-1.91l1.48 1.44 2.68.72 1.24-.12a3.26 3.26 0 0 0 .4-1.5A3.57 3.57 0 0 0 8 13.71c-.47-.33-1.34-1.12-1.34-1.61s.14-.81 1-1.46A3.43 3.43 0 0 0 9.1 8a3 3 0 0 0-1.64-3h1.61zm-4.94 7C4 11.08 2.72 9.65 2.49 7.92s.65-3.07 2-3S7 6.34 7.26 8.06s-.66 3.11-1.97 3.07zm9-5.04V3.88h-1.13v2.25h-2.25v1.12h2.25V9.5h1.13V7.25h2.25V6.13h-2.25z"/><path class="cls-1" d="M18.5 9.5a9 9 0 1 1-9-9 9 9 0 0 1 9 9z"/></svg>