<svg id="Layer_1" data-name="Layer 1" xmlns="http://www.w3.org/2000/svg" viewBox="0 0 511.96 511.96"><defs><style>.cls-1,.cls-2,.cls-3,.cls-4{opacity:.8;isolation:isolate}.cls-1{fill:url(#linear-gradient)}.cls-2{fill:url(#linear-gradient-2)}.cls-3{fill:url(#linear-gradient-3)}.cls-4{fill:url(#linear-gradient-4)}</style><linearGradient id="linear-gradient" x1="73.36" y1="258.53" x2="272.92" y2="58.97" gradientTransform="matrix(.97 0 0 -.97 -.83 499.45)" gradientUnits="userSpaceOnUse"><stop offset="0" stop-color="#ff4d00"/><stop offset="1" stop-color="#fff300"/></linearGradient><linearGradient id="linear-gradient-2" x1="3.86" y1="510.66" x2="524.86" y2="-10.34" gradientTransform="matrix(.97 0 0 -.97 -.83 499.45)" gradientUnits="userSpaceOnUse"><stop offset="0" stop-color="#9500ff"/><stop offset="1" stop-color="#00fffc"/></linearGradient><linearGradient id="linear-gradient-3" x1="186.31" y1="510.84" x2="524.87" y2="172.28" gradientTransform="matrix(.97 0 0 -.97 -.83 499.45)" gradientUnits="userSpaceOnUse"><stop offset="0" stop-color="#a700ff"/><stop offset="1" stop-color="#f60"/></linearGradient><linearGradient id="linear-gradient-4" x1="368.39" y1="509.21" x2="523.42" y2="354.17" gradientTransform="matrix(.97 0 0 -.97 -.83 499.45)" gradientUnits="userSpaceOnUse"><stop offset="0" stop-color="#06e3e5"/><stop offset="1" stop-color="#06fb5f"/></linearGradient></defs><title>Artboard 1</title><path id="Rounded_Rectangle_1" data-name="Rounded Rectangle 1" class="cls-1" d="M138.62 259.32l114.5 114.73a39.91 39.91 0 0 1-55.51 57.34l-.86-.86L82.24 315.8a39.9 39.9 0 0 1 56.37-56.48z"/><path id="Rounded_Rectangle_1_copy" data-name="Rounded Rectangle 1 copy" class="cls-2" d="M71 13.61l427.35 428.22A39.9 39.9 0 0 1 442 498.31L14.6 70.1A39.91 39.91 0 1 1 70 12.69q.52.46 1 .92z"/><path id="Rounded_Rectangle_1_copy_2" data-name="Rounded Rectangle 1 copy 2" class="cls-3" d="M248.54 13.61l249.8 250.29a39.9 39.9 0 1 1-55.83 57l-.54-.54L192.17 70.1a39.91 39.91 0 0 1 56.37-56.48z"/><path id="Rounded_Rectangle_1_copy_3" data-name="Rounded Rectangle 1 copy 3" class="cls-4" d="M425.76 15.38l71.17 71.31a39.9 39.9 0 0 1-56.37 56.48l-71.17-71.31a39.91 39.91 0 0 1 56.37-56.48z"/></svg>