<svg xmlns="http://www.w3.org/2000/svg" viewBox="3787 2505 60.001 47.375">
  <defs>
    <style>
      .cls-1 {
        fill: #ed4c06;
      }
    </style>
  </defs>
  <path id="Path_100" data-name="Path 100" class="cls-1" d="M84.1,56.438,75.976,36.025a1.311,1.311,0,0,0-1.4-.812l-4.642.638-13.462-6.1a1.323,1.323,0,0,0-.812-.093L44.747,31.975a1.311,1.311,0,0,0-.708.418l-1.462,1.66-9.435,1.242a1.311,1.311,0,0,0-1.044.812L24.253,55.834a1.311,1.311,0,0,0,.545,1.613l6.684,3.946-.545.812a3.331,3.331,0,0,0,1.16,4.642l.29.174a3.354,3.354,0,0,0,1.462.464,3.365,3.365,0,0,0,1.358,4.1l1.033.638a3.342,3.342,0,0,0,3.656-.1,3.307,3.307,0,0,0,1.16,1.288l1.033.638a3.365,3.365,0,0,0,3.481,0,3.331,3.331,0,0,0,1.265,1.416l1.033.638a3.377,3.377,0,0,0,4.642-1.091l.371-.6A11.361,11.361,0,0,0,58.395,77h.395c2.4,0,4.015-2.321,4.735-3.551a5.8,5.8,0,0,0,5.257-4.572,6.568,6.568,0,0,0,3.667-6.325,7.032,7.032,0,0,0,2.321-2.321l.395.522a1.309,1.309,0,0,0,1.6.383l6.615-3.11a1.311,1.311,0,0,0,.72-1.59Zm-51,8.681a1.358,1.358,0,0,1-.453-1.88L35.637,58.4a1.439,1.439,0,0,1,1.219-.673,1.4,1.4,0,0,1,.72.2l.29.174a1.358,1.358,0,0,1,.453,1.88l-2.994,4.9a1.474,1.474,0,0,1-1.95.476ZM37.251,70.5l-1.033-.638a1.393,1.393,0,0,1-.453-1.915l6.116-9.969a1.347,1.347,0,0,1,1.88-.453l1.033.638a1.393,1.393,0,0,1,.453,1.915l-6.116,9.969A1.427,1.427,0,0,1,37.251,70.5Zm5.884,1.822L42.1,71.687a1.393,1.393,0,0,1-.453-1.915l4.642-7.5a1.4,1.4,0,0,1,1.915-.453l1.033.638a1.393,1.393,0,0,1,.453,1.915l-4.642,7.5a1.427,1.427,0,0,1-1.915.453Zm7.706,1.613a1.439,1.439,0,0,1-1.926.453l-1.033-.638a1.381,1.381,0,0,1-.453-1.915l3.423-5.512a1.416,1.416,0,0,1,1.926-.453l1.033.638a1.381,1.381,0,0,1,.453,1.9Zm7.822.429a9.284,9.284,0,0,1-4.387-2.24l1.66-2.611a3.354,3.354,0,0,0,.232-.476l5.106,3.122c-.557.952-1.6,2.321-2.611,2.217Zm12.1-13.833L52.14,48.93A.986.986,0,1,0,51.1,50.6L69.8,62.252a4.062,4.062,0,0,1-2.414,4.375l-18.649-11.6A.986.986,0,0,0,47.7,56.693L66.263,68.3a3.133,3.133,0,0,1-3.307,2.588l-6.65-4.062a3.319,3.319,0,0,0-1.474-1.95L53.8,64.236a3.365,3.365,0,0,0-1.752-.522h-.22a3.377,3.377,0,0,0-.081-.87,3.331,3.331,0,0,0-1.509-2.077L49.2,60.128a3.354,3.354,0,0,0-1.752-.5h0a3.354,3.354,0,0,0-1.578-3.157l-1.01-.627a3.342,3.342,0,0,0-1.752-.5,3.389,3.389,0,0,0-2.89,1.6l-.279.453a3.308,3.308,0,0,0-1.033-.986l-.29-.174a3.377,3.377,0,0,0-1.741-.476,3.481,3.481,0,0,0-2.89,1.6l-1.16,1.776-5.721-3.423,7.2-17.906,5.686-.789-2.414,2.739a1.311,1.311,0,0,0-.151,1.52,6.731,6.731,0,0,0,6.011,3.725c3.574,0,7.079-2.588,8.123-3.481l3.423-.313c3.7,6.255,11.454,9.737,13.23,10.444l4.77,6.243A4.352,4.352,0,0,1,70.766,60.534Zm5.9-2.135-6.534-8.541a1.311,1.311,0,0,0-.569-.429c-.093,0-9.284-3.6-12.626-10.154a1.311,1.311,0,0,0-1.161-.708h-.116L51.014,39a1.311,1.311,0,0,0-.754.325s-3.563,3.11-6.766,3.11a3.888,3.888,0,0,1-3.273-1.648L45.78,34.47l10.073-2.147L69.315,38.4a1.311,1.311,0,0,0,.72.1l3.946-.557,7.242,18.313Z" transform="translate(3762.841 2475.373)"/>
</svg>
