<svg xmlns="http://www.w3.org/2000/svg" viewBox="3803.5 461 53.254 53.379">
  <defs>
    <style>
      .cls-1 {
        fill: #fff;
      }
    </style>
  </defs>
  <path id="Path_88" data-name="Path 88" class="cls-1" d="M128.766-147.5a5.835,5.835,0,0,0-5.823,5.823,5.788,5.788,0,0,0,.7,2.775l-9.536,9.536a7.711,7.711,0,0,0-9.5,0l-7.445-7.441a3.83,3.83,0,0,0,.551-1.96,3.886,3.886,0,0,0-3.881-3.881,3.886,3.886,0,0,0-3.881,3.881,3.886,3.886,0,0,0,3.881,3.881,3.83,3.83,0,0,0,1.96-.551l7.442,7.442a7.714,7.714,0,0,0,0,9.5L90.944-106.2a5.763,5.763,0,0,0-7.8.094,5.763,5.763,0,0,0-.569,7.775,5.763,5.763,0,0,0,7.7,1.228,5.763,5.763,0,0,0,1.879-7.566l12.449-12.448a7.717,7.717,0,0,0,3.783,1.566v9.863a5.823,5.823,0,0,0-4.832,6.228,5.823,5.823,0,0,0,5.8,5.336,5.823,5.823,0,0,0,5.8-5.336,5.823,5.823,0,0,0-4.832-6.228v-9.863a7.717,7.717,0,0,0,3.783-1.566l7.442,7.442A3.827,3.827,0,0,0,121-107.72a3.881,3.881,0,0,0,3.881,3.881,3.881,3.881,0,0,0,3.881-3.881,3.881,3.881,0,0,0-3.881-3.881,3.83,3.83,0,0,0-1.96.551l-7.435-7.437a7.714,7.714,0,0,0,0-9.5l9.379-9.379a5.79,5.79,0,0,0,3.9,1.516,5.835,5.835,0,0,0,5.823-5.823A5.835,5.835,0,0,0,128.766-147.5Zm-36.876,8.733a1.943,1.943,0,0,1,1.941-1.941,1.943,1.943,0,0,1,1.941,1.941,1.943,1.943,0,0,1-1.941,1.941A1.943,1.943,0,0,1,91.891-138.767ZM87.039-98.009a3.881,3.881,0,0,1-3.881-3.883,3.881,3.881,0,0,1,3.885-3.879,3.881,3.881,0,0,1,3.877,3.887A3.886,3.886,0,0,1,87.039-98.009Zm26.2-1.941a3.881,3.881,0,0,1-3.881,3.881,3.881,3.881,0,0,1-3.881-3.881,3.881,3.881,0,0,1,3.881-3.881A3.886,3.886,0,0,1,113.24-99.95Zm-3.881-17.468a5.823,5.823,0,0,1-5.823-5.825,5.823,5.823,0,0,1,5.827-5.82,5.823,5.823,0,0,1,5.818,5.83A5.835,5.835,0,0,1,109.359-117.418Zm17.474,9.7a1.941,1.941,0,0,1-1.941,1.941,1.941,1.941,0,0,1-1.941-1.941,1.941,1.941,0,0,1,1.941-1.941A1.943,1.943,0,0,1,126.832-107.72Zm1.934-30.077a3.886,3.886,0,0,1-3.881-3.881,3.886,3.886,0,0,1,3.881-3.881,3.886,3.886,0,0,1,3.881,3.881A3.886,3.886,0,0,1,128.766-137.8Z" transform="translate(3722.165 608.5)"/>
</svg>
