<svg xmlns="http://www.w3.org/2000/svg" viewBox="3840 1320.32 95 84.728">
  <defs>
    <style>
      .cls-1 {
        fill: #ed4c06;
      }
    </style>
  </defs>
  <path id="Path_6" data-name="Path 6" class="cls-1" d="M33.82,53.664V51.946a5.154,5.154,0,0,0-5.154-5.154H-9.128a5.154,5.154,0,0,0-5.154,5.154v1.718A1.718,1.718,0,0,0-16,55.382V65.69a1.718,1.718,0,0,0,1.718,1.718h48.1a1.718,1.718,0,0,0,1.718-1.718V55.382A1.718,1.718,0,0,0,33.82,53.664Zm-44.666-1.718a1.718,1.718,0,0,1,1.718-1.718H28.666a1.718,1.718,0,0,1,1.718,1.718v1.718h-41.23ZM32.1,63.972H-12.564V57.1H32.1Zm46.607-32.64a4.9,4.9,0,0,0-2.731-2.92L34.7,11.094l1.718-3.436a5.061,5.061,0,0,0,5.652-2.731L44.127.821A5.154,5.154,0,0,0,44.4-3.113,5.154,5.154,0,0,0,41.825-6.1L20.489-16.77a5.154,5.154,0,0,0-2.3-.55,5.154,5.154,0,0,0-4.621,2.852l-2.079,4.157a5.154,5.154,0,0,0-.275,3.934,5.154,5.154,0,0,0,1.495,2.233L3.756,13.74A5.154,5.154,0,0,0,2.725,13.6,5.154,5.154,0,0,0-1.9,16.454l-2.079,4.157a5.154,5.154,0,0,0-.275,3.934,5.154,5.154,0,0,0,2.577,2.989L19.664,38.2a5.154,5.154,0,0,0,6.872-2.3l2.13-4.157a5.154,5.154,0,0,0-1.22-6.15l1.718-3.436L67.783,44.817a4.982,4.982,0,0,0,2.508.687,4.9,4.9,0,0,0,4.4-2.749l3.8-7.576A4.9,4.9,0,0,0,78.709,31.331ZM6.917,15.1,15.7-2.443l17.54,8.779-8.779,17.54ZM14.562-8.782l2.079-4.14a1.718,1.718,0,0,1,1.546-.945,1.718,1.718,0,0,1,.756.172L40.279-3.027a1.718,1.718,0,0,1,.859,1,1.718,1.718,0,0,1-.086,1.306L38.973,3.432a1.718,1.718,0,0,1-2.3.773L15.335-6.463a1.718,1.718,0,0,1-.859-1,1.718,1.718,0,0,1,.086-1.306ZM25.591,30.2l-2.079,4.157a1.718,1.718,0,0,1-2.3.773L-.126,24.46a1.731,1.731,0,0,1-.773-2.3L1.179,18a1.741,1.741,0,0,1,2.3-.773L24.818,27.9A1.718,1.718,0,0,1,25.591,30.2ZM33.15,14.152l31.593,13.3-4.467,9.036L30.693,19.1ZM75.41,33.6l-3.8,7.628a1.477,1.477,0,0,1-2.1.618L63.248,38.2l4.707-9.4,6.717,2.817a1.46,1.46,0,0,1,.756,2.044Z" transform="translate(3856 1337.64)"/>
</svg>
