<svg xmlns="http://www.w3.org/2000/svg" viewBox="346.535 3648.85 51.73 51.73">
  <path id="Path_48" data-name="Path 48" d="M7.6,7a.6.6,0,0,0-.6.6V58.129a.6.6,0,0,0,.6.6H58.129a.6.6,0,1,0,0-1.2H8.2V7.6A.6.6,0,0,0,7.6,7ZM50.61,18.429a3.014,3.014,0,0,0-1.823,5.131L41.04,35.722a2.941,2.941,0,0,0-1.558-.451,3.008,3.008,0,0,0-2.46,1.281l-6.785-4.385a2.966,2.966,0,0,0,.223-1.107A3.008,3.008,0,1,0,25.346,33.2L18.014,45.01a2.929,2.929,0,0,0-.788-.114,3.008,3.008,0,1,0,1.859.656l7.26-11.706a2.965,2.965,0,0,0,1.107.223,3.008,3.008,0,0,0,2.123-.884l6.954,4.493a3.152,3.152,0,0,0-.054.6,3.008,3.008,0,1,0,5.468-1.726L49.8,24.221a2.965,2.965,0,0,0,1.113.223,3.008,3.008,0,0,0,0-6.015,2.912,2.912,0,0,0-.3,0Zm.3,1.2a1.8,1.8,0,1,1-1.8,1.8A1.8,1.8,0,0,1,50.911,19.632ZM27.452,29.256a1.8,1.8,0,1,1-1.8,1.8A1.8,1.8,0,0,1,27.452,29.256Zm12.03,7.218a1.8,1.8,0,1,1-1.8,1.8A1.8,1.8,0,0,1,39.482,36.474ZM17.226,46.1a1.8,1.8,0,1,1-1.8,1.8A1.8,1.8,0,0,1,17.226,46.1Z" transform="translate(339.535 3641.85)"/>
</svg>
