<svg id="Layer_1" data-name="Layer 1" xmlns="http://www.w3.org/2000/svg" viewBox="0 0 19 19"><defs><style>.cls-1{fill:none;stroke:#000}</style></defs><title>linkedin</title><path class="cls-1" d="M18.5 9.5a9 9 0 1 1-9-9 9 9 0 0 1 9 9z"/><path d="M7.25 5.18a1.36 1.36 0 0 0-1.5-1.31 1.35 1.35 0 0 0-1.5 1.31A1.35 1.35 0 0 0 5.73 6.5a1.36 1.36 0 0 0 1.52-1.32zm-.38 2.45H4.62V14h2.25zm8.25 3c0-2.07-1-3.37-2.63-3.37a1.93 1.93 0 0 0-1.86 1.34l-.08-1H8.31c0 .25.06 1.49.06 1.49V14h2.25v-3.37c0-.91.41-1.5 1.11-1.5s1.14.36 1.14 1.5V14h2.25z"/></svg>