<svg id="Layer_1" data-name="Layer 1" xmlns="http://www.w3.org/2000/svg" viewBox="0 0 126.12 126.08"><defs><style>.cls-1{fill:#ed4c06}</style></defs><title>Artboard 1</title><path class="cls-1" d="M116.39 37.27a9.67 9.67 0 0 1-6.82-2.78l-18-18a9.67 9.67 0 0 1 13.78-13.6l18 18a9.68 9.68 0 0 1 0 13.63 10.06 10.06 0 0 1-6.96 2.75zm-60.77 72.39a9.67 9.67 0 0 1-6.82-2.78L19.23 77.3a9.64 9.64 0 0 1 13.63-13.63l29.57 29.48a9.68 9.68 0 0 1 0 13.63 9.53 9.53 0 0 1-6.81 2.88zm60.77-27.94a9.67 9.67 0 0 1-6.82-2.78L47.26 16.53a9.68 9.68 0 0 1 0-13.63 9.59 9.59 0 0 1 13.64-.1l62.31 62.31a9.68 9.68 0 0 1 0 13.63 9.11 9.11 0 0 1-6.82 2.98zm0 44.36a9.67 9.67 0 0 1-6.82-2.78L2.81 16.53A9.67 9.67 0 0 1 16.54 2.89l106.67 106.68a9.68 9.68 0 0 1 0 13.63 9.37 9.37 0 0 1-6.82 2.88z"/></svg>