<svg id="Layer_1" data-name="Layer 1" xmlns="http://www.w3.org/2000/svg" viewBox="0 0 576 126.08"><defs><style>.cls-1{fill:#fff}</style></defs><title>Artboard 1</title><path class="cls-1" d="M116.39 37.27a9.67 9.67 0 0 1-6.82-2.78l-18-18a9.67 9.67 0 0 1 13.78-13.6l18 18a9.68 9.68 0 0 1 0 13.63 10.06 10.06 0 0 1-6.96 2.75zm-60.77 72.39a9.67 9.67 0 0 1-6.82-2.78L19.23 77.3a9.64 9.64 0 0 1 13.63-13.63l29.57 29.48a9.68 9.68 0 0 1 0 13.63 9.53 9.53 0 0 1-6.81 2.88zm60.77-27.94a9.67 9.67 0 0 1-6.82-2.78L47.26 16.53a9.68 9.68 0 0 1 0-13.63 9.59 9.59 0 0 1 13.64-.1l62.31 62.31a9.68 9.68 0 0 1 0 13.63 9.11 9.11 0 0 1-6.82 2.98zm0 44.36a9.67 9.67 0 0 1-6.82-2.78L2.81 16.53A9.67 9.67 0 0 1 16.54 2.89l106.67 106.68a9.68 9.68 0 0 1 0 13.63 9.37 9.37 0 0 1-6.82 2.88zm98.23-16.61A46.47 46.47 0 1 1 261.09 63a46.51 46.51 0 0 1-46.47 46.47zm0-73.55a27.17 27.17 0 1 0 27.17 27.17 27.21 27.21 0 0 0-27.17-27.17zM467 109.47h-12.1a3.54 3.54 0 0 1-3.55-3.55v-84.5a3.54 3.54 0 0 1 3.55-3.55H467a3.54 3.54 0 0 1 3.55 3.55v84.49a3.43 3.43 0 0 1-3.55 3.56zm-35.1-91.7h-67.31a3.54 3.54 0 0 0-3.59 3.56v12.1a3.54 3.54 0 0 0 3.59 3.57h24v68.75a3.54 3.54 0 0 0 3.55 3.55h12.1a3.54 3.54 0 0 0 3.55-3.55V37.17h24a3.54 3.54 0 0 0 3.55-3.55v-12.2a3.38 3.38 0 0 0-3.44-3.65zm-114.35 91.7a46.47 46.47 0 1 1 31-81 3.64 3.64 0 0 1 .1 5.38l-8.55 8a4.24 4.24 0 0 1-5.57.19 26.75 26.75 0 0 0-16.9-6 27.12 27.12 0 1 0-.19 54.25 26.73 26.73 0 0 0 17.09-6 4.24 4.24 0 0 1 5.57.19l8.55 8a3.6 3.6 0 0 1 0 5.28 46.73 46.73 0 0 1-31.1 11.71zM556 20l-24.82 58.46L506.41 20a3.57 3.57 0 0 0-3.41-2.23h-13.11a3.62 3.62 0 0 0-3.36 5l35.72 84.49a3.57 3.57 0 0 0 3.36 2.21h10.95a3.45 3.45 0 0 0 3.26-2.21l35.91-84.49a3.61 3.61 0 0 0-3.26-5h-13.16A3.45 3.45 0 0 0 556 20z"/></svg>