<svg xmlns="http://www.w3.org/2000/svg" viewBox="0 0 600 131.3">
  <path style="fill: #ed4c06;" d="M121.2 38.8c-2.6 0-5.2-1-7.1-2.9L95.4 17.2c-3.9-3.9-3.9-10.3 0-14.2 3.9-4 10.3-4 14.3 0l18.7 18.7c3.9 3.9 3.9 10.3 0 14.2-2 1.9-4.6 2.9-7.2 2.9zm-63.3 75.4c-2.6 0-5.2-1-7.1-2.9L20 80.5c-3.9-3.9-3.9-10.3 0-14.2 3.9-3.9 10.3-3.9 14.2 0L65 97c3.9 3.9 3.9 10.3 0 14.2-2 2-4.5 3-7.1 3zm63.3-29.1c-2.6 0-5.2-1-7.1-2.9l-64.9-65c-3.9-3.9-3.9-10.3 0-14.2 3.9-4 10.3-4 14.2-.1l64.9 64.9c3.9 3.9 3.9 10.3 0 14.2-1.9 2.1-4.5 3.1-7.1 3.1zm0 46.2c-2.6 0-5.2-1-7.1-2.9L2.9 17.2C-1 13.3-1 6.9 2.9 3c4-4 10.4-4 14.3 0l111.1 111.1c3.9 3.9 3.9 10.3 0 14.2-1.9 2-4.5 3-7.1 3z"/>
  <path d="M223.5 114c-26.7 0-48.4-21.7-48.4-48.4s21.7-48.4 48.4-48.4 48.4 21.7 48.4 48.4-21.7 48.4-48.4 48.4zm0-76.6c-15.6 0-28.3 12.7-28.3 28.3 0 15.6 12.7 28.3 28.3 28.3s28.3-12.7 28.3-28.3c0-15.6-12.7-28.3-28.3-28.3zM486.4 114h-12.6c-2.1 0-3.7-1.7-3.7-3.7v-88c0-2.1 1.7-3.7 3.7-3.7h12.6c2.1 0 3.7 1.7 3.7 3.7v88c.1 2.1-1.6 3.7-3.7 3.7zm-36.6-95.5h-70.1c-2.1 0-3.7 1.7-3.7 3.7v12.6c0 2.1 1.7 3.7 3.7 3.7h25v71.6c0 2.1 1.7 3.7 3.7 3.7H421c2.1 0 3.7-1.7 3.7-3.7V38.7h25c2.1 0 3.7-1.7 3.7-3.7V22.3c.2-2.1-1.5-3.8-3.6-3.8zM330.7 114c-26.7 0-48.4-21.7-48.4-48.4s21.7-48.4 48.4-48.4c11.9 0 23.5 4.5 32.3 12.4 1.7 1.5 1.7 4 .1 5.6l-8.9 8.3c-1.6 1.5-4.1 1.6-5.8.2-4.9-4-11.1-6.3-17.6-6.3-14.7-.1-27.3 11.3-28.4 26-1.3 16.6 11.8 30.5 28.2 30.5 6.6 0 12.8-2.2 17.8-6.3 1.7-1.4 4.2-1.3 5.8.2l8.9 8.3c1.6 1.5 1.6 4 0 5.5-8.8 7.9-20.4 12.4-32.4 12.4zm248.4-93.2l-25.9 60.9-25.8-60.9c-.6-1.4-1.9-2.3-3.5-2.3h-13.7c-2.7 0-4.5 2.7-3.5 5.2l37.2 88c.6 1.4 1.9 2.3 3.5 2.3h11.4c1.5 0 2.9-.9 3.4-2.3l37.4-88c1-2.5-.8-5.2-3.4-5.2h-13.7c-1.5 0-2.9.9-3.4 2.3z"/>
</svg>
