<svg xmlns="http://www.w3.org/2000/svg" viewBox="4309 468 57.943 46.419">
  <defs>
    <style>
      .cls-1 {
        fill: #fff;
      }
    </style>
  </defs>
  <path id="Path_93" data-name="Path 93" class="cls-1" d="M9.6-29.113a2.863,2.863,0,0,0-1.342-1.718h0l-8.827-5.1h0a2.892,2.892,0,0,0-3.937,1.066h0L-11.836-22.1h0a2.88,2.88,0,0,0,.03,2.926L-14.165-15.1l-5.222,3.545h0a4.892,4.892,0,0,0-2.132,3.879h0l-.476,14.821h-24.8A1.446,1.446,0,0,0-48.24,8.593a1.446,1.446,0,0,0,1.446,1.446h26.388a2.17,2.17,0,0,0,.555.072A2.136,2.136,0,0,0-18.8,9.836q.046-.025.091-.053L-5.527,1.49h0a4.883,4.883,0,0,0,2.28-3.8h0l.411-6.3,2.343-4.119h.011a2.887,2.887,0,0,0,2.456-1.361c.015-.023.03-.047.043-.071l.009-.014h0l7.295-12.76h0A2.835,2.835,0,0,0,9.6-29.113ZM-5.519-9.747l-.012.023c-.015.028-.03.056-.043.085l-.021.049q-.016.039-.031.079t-.02.063q-.01.034-.019.068c-.007.026-.012.052-.017.078s-.007.038-.009.058-.008.06-.01.085v.029L-6.14-2.5A1.982,1.982,0,0,1-7.065-.963h0L-19.092,6.6l.456-14.187h0a1.991,1.991,0,0,1,.866-1.583h0l5.473-3.715.007-.005.014-.01.006,0a1.069,1.069,0,0,0,.107-.085l.006-.005q.05-.042.1-.089l.02-.02q.035-.037.068-.077l.02-.025q.036-.046.068-.094l.025-.039.022-.036,2.35-4.062,6.3,3.6Zm5.037-5.875h0l-8.847-5.055h0l7.316-12.741h0l8.8,5.079Zm-10.592,5.56a2.777,2.777,0,0,0-2.5,1.566,2.777,2.777,0,0,0,.321,2.933c-3.848,6.7-3.673,7.352-3.163,7.645a1.063,1.063,0,0,0,1.452-.393L-11.4-4.52A2.778,2.778,0,0,0-8.784-5.708a2.778,2.778,0,0,0,.167-2.866,2.778,2.778,0,0,0-2.457-1.484Z" transform="translate(4357.24 504.307)"/>
</svg>
