<?xml version="1.0" encoding="utf-8"?>
<!-- Generator: Adobe Illustrator 20.0.0, SVG Export Plug-In . SVG Version: 6.00 Build 0)  -->
<svg version="1.1" id="Layer_1" xmlns="http://www.w3.org/2000/svg" xmlns:xlink="http://www.w3.org/1999/xlink" x="0px" y="0px"
	 viewBox="0 0 60.6 60.6" style="enable-background:new 0 0 60.6 60.6;" xml:space="preserve">
<path d="M11,53.6l-0.2-0.2C-2,42.7-3.6,23.6,7.1,10.8C12.7,3.9,21,0,29.8,0c0.2,0,0.3,0,0.5,0l0.2,0l0,30.4l-0.1,0.1L11,53.6z
	 M29.8,0.5C21.1,0.5,13,4.4,7.5,11.1C-3,23.7-1.5,42.3,10.9,52.9L30,30.2l0-29.7C30,0.5,29.9,0.5,29.8,0.5z M30.3,30.3l29.6,5.2
	C57,51.9,41.4,62.8,25.1,59.9C19.8,59,15,56.8,11,53.3L30.3,30.3z M30.3,60.6c-1.7,0-3.5-0.2-5.3-0.5c-5.3-0.9-10.2-3.1-14.2-6.6
	l-0.2-0.2l0.2-0.2L30.2,30l30,5.3l0,0.2C57.5,50.2,44.7,60.6,30.3,60.6z M11.3,53.3c3.9,3.3,8.7,5.5,13.8,6.3
	c16.1,2.8,31.5-7.9,34.5-23.9l-29.2-5.2L11.3,53.3z M60.1,35.8l-30-5.3V0h0.2C47,0,60.6,13.6,60.6,30.3c0,1.8-0.1,3.5-0.5,5.3
	L60.1,35.8z M30.5,30.1l29.1,5.1c0.3-1.6,0.4-3.3,0.4-4.9C60.1,14,46.8,0.6,30.5,0.5V30.1z"/>
</svg>
