<svg id="Tablet" xmlns="http://www.w3.org/2000/svg" viewBox="0 0 560 1000"><defs><style>.cls-1{fill:#f5f5f5}.cls-2{fill:#989898}.cls-3{fill:#e1e1e1}.cls-4{fill:#fff}.cls-5{fill:#42b0d8}.cls-6{fill:#b9b9b9}.cls-7{fill:#e2e2e2}.cls-8{fill:#b5db69}.cls-9{fill:#b949f5}.cls-10{fill:#ebebeb}.cls-11{fill:#bdbdbd}.cls-12{fill:#434343}.cls-13{fill:#33ab40}.cls-14{fill:#585858}.cls-15{fill:#ced0d0}.cls-16{fill:#ed4f23}.cls-17{opacity:.4;isolation:isolate}.cls-18{fill:#f4f5f5}.cls-19{fill:#353535}.cls-20{fill:#424242}.cls-21{fill:#c6c6c6}.cls-22{fill:#d4d4d4}.cls-23{fill:#eee}.cls-24{fill:#919191}.cls-25{fill:#ed4c06}</style></defs><title>Artboard 1</title><path class="cls-1" d="M0 460h560v540H0z"/><path class="cls-2" d="M254.9 575.4v4.6H253v-11.4h3.2a5.71 5.71 0 0 1 3.3.8 3.1 3.1 0 0 1 1.1 2.5 3.05 3.05 0 0 1-2.2 3l3.2 5.1h-2.1l-2.7-4.6h-1.9zm0-1.5h1.3a3.09 3.09 0 0 0 1.9-.5 1.93 1.93 0 0 0 0-2.8 3.36 3.36 0 0 0-1.9-.4H255v3.7zm11.9 6.3a4.38 4.38 0 0 1-3.2-1.2 4.32 4.32 0 0 1-1.1-3.2 4.86 4.86 0 0 1 1.1-3.3 3.7 3.7 0 0 1 2.9-1.2 3.62 3.62 0 0 1 2.7 1 3.8 3.8 0 0 1 1 2.9v1h-5.8a2.74 2.74 0 0 0 .7 1.9 2.14 2.14 0 0 0 1.8.7 6.15 6.15 0 0 0 1.4-.1 12.12 12.12 0 0 0 1.4-.5v1.5a5.78 5.78 0 0 1-1.4.5 7.44 7.44 0 0 0-1.5 0zm-.3-7.6a1.68 1.68 0 0 0-1.4.6 2.58 2.58 0 0 0-.6 1.6h3.9a2.35 2.35 0 0 0-.5-1.6 1.82 1.82 0 0 0-1.4-.6zm9.2 7.6a4.08 4.08 0 0 1-3-1.1 4.66 4.66 0 0 1-1-3.3 5 5 0 0 1 1.1-3.4 3.85 3.85 0 0 1 3.1-1.2 7 7 0 0 1 2.5.5l-.6 1.5a5.94 5.94 0 0 0-1.9-.5c-1.5 0-2.2 1-2.2 3a3.4 3.4 0 0 0 .6 2.2 1.86 1.86 0 0 0 1.6.7 4.65 4.65 0 0 0 2.3-.6v1.6a3.58 3.58 0 0 1-1.1.4 5.22 5.22 0 0 1-1.4.2zm8.3 0a4.38 4.38 0 0 1-3.2-1.2 4.32 4.32 0 0 1-1.1-3.2 4.86 4.86 0 0 1 1.1-3.3 3.7 3.7 0 0 1 2.9-1.2 3.62 3.62 0 0 1 2.7 1 3.8 3.8 0 0 1 1 2.9v1h-5.8a2.74 2.74 0 0 0 .7 1.9 2.14 2.14 0 0 0 1.8.7 6.15 6.15 0 0 0 1.4-.1 12.12 12.12 0 0 0 1.4-.5v1.5a5.78 5.78 0 0 1-1.4.5 7.49 7.49 0 0 0-1.5 0zm-.4-7.6a1.68 1.68 0 0 0-1.4.6 2.58 2.58 0 0 0-.6 1.6h3.9a2.35 2.35 0 0 0-.5-1.6 1.68 1.68 0 0 0-1.4-.6zM297 580h-1.8v-5.3a2.08 2.08 0 0 0-.4-1.5 1.73 1.73 0 0 0-1.3-.5 1.94 1.94 0 0 0-1.7.7 3.57 3.57 0 0 0-.5 2.3v4.3h-1.8v-8.6h1.4l.3 1.1h.1a3.57 3.57 0 0 1 1.1-1 4.15 4.15 0 0 1 1.6-.3c2.1 0 3.1 1.1 3.1 3.2v5.6zm5.8-1.3a5.85 5.85 0 0 0 1.3-.2v1.4a1.88 1.88 0 0 1-.8.2c-.3 0-.7.1-1 .1-1.7 0-2.6-.9-2.6-2.8v-4.7h-1.2v-.8l1.3-.7.6-1.8h1.1v1.9h2.5v1.4h-2.5v4.6a1.49 1.49 0 0 0 .3 1 1.28 1.28 0 0 0 1 .4z"/><path class="cls-3" d="M28 573h208v2H28z"/><path class="cls-3" d="M324 573h208v2H324z" id="Rectangle_13_copy" data-name="Rectangle 13 copy"/><g id="Rounded_Rectangle_4" data-name="Rounded Rectangle 4"><path class="cls-4" d="M32 607h496a4 4 0 0 1 4 4v99.2a4 4 0 0 1-4 4H32a4 4 0 0 1-4-4V611a4 4 0 0 1 4-4z"/><path class="cls-3" d="M528 715.2H32a5 5 0 0 1-5-5V611a5 5 0 0 1 5-5h496a5 5 0 0 1 5 5v99.2a5 5 0 0 1-5 5zM32 608a3 3 0 0 0-3 3v99.2a3 3 0 0 0 3 3h496a3 3 0 0 0 3-3V611a3 3 0 0 0-3-3z"/></g><path class="cls-5" d="M39.3 617.9h52.3a2 2 0 0 1 2 2v51.9a2 2 0 0 1-2 2H39.3a2 2 0 0 1-2-2v-51.9a2 2 0 0 1 2-2z" id="Rounded_Rectangle_5" data-name="Rounded Rectangle 5"/><path class="cls-6" d="M112.4 621h247v24.9h-247z"/><path class="cls-7" d="M112 682.4h185.1v16.3H112z" id="Rectangle_11_copy_6" data-name="Rectangle 11 copy 6"/><path class="cls-7" d="M112 655.9h211.6v16.3H112z" id="Rectangle_11_copy_7" data-name="Rectangle 11 copy 7"/><path class="cls-7" d="M500.5 641.1c-.9 0-1.8-.1-2.7-.1a19.25 19.25 0 0 1-8.6 4.5 15.53 15.53 0 0 1-2.1.4 1 1 0 0 1-.9-.7c-.1-.5.2-.7.5-1.1a11.54 11.54 0 0 0 3.4-5.5c-3.8-2.2-6.3-5.5-6.3-9.3 0-6.6 7.5-11.9 16.7-11.9s16.7 5.3 16.7 11.9-7.4 11.8-16.7 11.8z"/><path d="M76.5 646.5a1.58 1.58 0 0 1-1.6 1.6h-6.7v6.7a1.58 1.58 0 0 1-1.6 1.6h-3.1a1.58 1.58 0 0 1-1.6-1.6v-6.7h-6.7a1.58 1.58 0 0 1-1.6-1.6v-3.1a1.58 1.58 0 0 1 1.6-1.6H62v-6.7a1.58 1.58 0 0 1 1.6-1.6h3.1a1.58 1.58 0 0 1 1.6 1.6v6.7H75a1.58 1.58 0 0 1 1.6 1.6v3.1z"/><g id="Rounded_Rectangle_4-2" data-name="Rounded Rectangle 4-2"><path class="cls-4" d="M32 731.3h496a4 4 0 0 1 4 4v126.4a4 4 0 0 1-4 4H32a4 4 0 0 1-4-4V735.3a4 4 0 0 1 4-4z"/><path class="cls-3" d="M528 866.7H32a5 5 0 0 1-5-5V735.3a5 5 0 0 1 5-5h496a5 5 0 0 1 5 5v126.4a5 5 0 0 1-5 5zM32 732.3a3 3 0 0 0-3 3v126.4a3 3 0 0 0 3 3h496a3 3 0 0 0 3-3V735.3a3 3 0 0 0-3-3z"/></g><path class="cls-8" d="M39.3 742.2h52.3a2 2 0 0 1 2 2v51.9a2 2 0 0 1-2 2H39.3a2 2 0 0 1-2-2v-51.9a2 2 0 0 1 2-2z" id="Rounded_Rectangle_5-2" data-name="Rounded Rectangle 5-2"/><path class="cls-6" d="M112 745.3h292.4v24.9H112z"/><path class="cls-7" d="M112 780.2h315.8v16.3H112z" id="Rectangle_11_copy" data-name="Rectangle 11 copy"/><path class="cls-7" d="M112 833.1h199.1v16.3H112z" id="Rectangle_11_copy_4" data-name="Rectangle 11 copy 4"/><path class="cls-7" d="M112 806.7h157.9V823H112z" id="Rectangle_11_copy_2" data-name="Rectangle 11 copy 2"/><path class="cls-7" d="M500.5 765.4c-.9 0-1.8-.1-2.7-.1a19.25 19.25 0 0 1-8.6 4.5 15.53 15.53 0 0 1-2.1.4 1 1 0 0 1-.9-.7c-.1-.5.2-.7.5-1.1a11.54 11.54 0 0 0 3.4-5.5c-3.8-2.2-6.3-5.5-6.3-9.3 0-6.6 7.5-11.9 16.7-11.9s16.7 5.3 16.7 11.9-7.4 11.8-16.7 11.8z"/><path d="M77.2 766.1l-11.7 11.7-2.2 2.2a1.46 1.46 0 0 1-2.2 0l-2.2-2.2-5.9-5.9a1.46 1.46 0 0 1 0-2.2l2.2-2.2a1.46 1.46 0 0 1 2.2 0l4.8 4.8 10.6-10.6a1.46 1.46 0 0 1 2.2 0l2.2 2.2a1.46 1.46 0 0 1 0 2.2z"/><g id="Rounded_Rectangle_4-3" data-name="Rounded Rectangle 4-3"><path class="cls-4" d="M32 882.8h496a4 4 0 0 1 4 4V986a4 4 0 0 1-4 4H32a4 4 0 0 1-4-4v-99.2a4 4 0 0 1 4-4z"/><path class="cls-3" d="M528 991H32a5 5 0 0 1-5-5v-99.2a5 5 0 0 1 5-5h496a5 5 0 0 1 5 5V986a5 5 0 0 1-5 5zM32 883.8a3 3 0 0 0-3 3V986a3 3 0 0 0 3 3h496a3 3 0 0 0 3-3v-99.2a3 3 0 0 0-3-3z"/></g><path class="cls-9" d="M39.3 893.7h52.3a2 2 0 0 1 2 2v51.9a2 2 0 0 1-2 2H39.3a2 2 0 0 1-2-2v-51.9a2 2 0 0 1 2-2z" id="Rounded_Rectangle_5-3" data-name="Rounded Rectangle 5-3"/><path class="cls-6" d="M112 896.8h99.6v24.9H112z"/><path class="cls-7" d="M112 958.1h199.1v16.3H112z" id="Rectangle_11_copy_8" data-name="Rectangle 11 copy 8"/><path class="cls-7" d="M112 931.7h271.4V948H112z" id="Rectangle_11_copy_9" data-name="Rectangle 11 copy 9"/><path class="cls-7" d="M500.5 916.9c-.9 0-1.8-.1-2.7-.1a19.25 19.25 0 0 1-8.6 4.5 15.53 15.53 0 0 1-2.1.4 1 1 0 0 1-.9-.7c-.1-.5.2-.7.5-1.1a11.54 11.54 0 0 0 3.4-5.5c-3.8-2.2-6.3-5.5-6.3-9.3 0-6.6 7.5-11.9 16.7-11.9s16.7 5.3 16.7 11.9-7.4 11.8-16.7 11.8z"/><path d="M78.6 916.1v18.7a1.58 1.58 0 0 1-1.6 1.6H55.2a1.58 1.58 0 0 1-1.6-1.6v-25.9a1.58 1.58 0 0 1 1.6-1.6h14.5a4.36 4.36 0 0 1 2.7 1.1l5.1 5.1a3.88 3.88 0 0 1 1.1 2.6zm-2.1 1.6h-6.7a1.58 1.58 0 0 1-1.6-1.6v-6.7H55.8v24.9h20.8v-16.6zm-6.2-2.1h6.1c-.1-.3-.2-.6-.4-.7l-5.1-5.1a2.15 2.15 0 0 0-.7-.4v6.2z"/><g id="Background"><path class="cls-4" d="M32 487h496a4 4 0 0 1 4 4v49a4 4 0 0 1-4 4H32a4 4 0 0 1-4-4v-49a4 4 0 0 1 4-4z"/><path class="cls-10" d="M528 545H32a5 5 0 0 1-5-5v-49a5 5 0 0 1 5-5h496a5 5 0 0 1 5 5v49a5 5 0 0 1-5 5zM32 488a3 3 0 0 0-3 3v49a3 3 0 0 0 3 3h496a3 3 0 0 0 3-3v-49a3 3 0 0 0-3-3z"/></g><path class="cls-5" d="M30 489h7v53h-7z"/><path class="cls-5" d="M112 504h235v24H112z" id="text"/><path class="cls-5" d="M86.2 515.5a13 13 0 1 1-13-12.9 13 13 0 0 1 13 12.9zm-8.7-3.9c.1 0 .2-.3.2-.4a1.38 1.38 0 0 1 .4-.3 2.92 2.92 0 0 1 .9-.2.8.8 0 0 1 .9.2c-.1-.1.4-.4.4-.4.2-.1.4-.1.5-.2v-.4c-.3 0-.4-.2-.4-.5a.1.1 0 0 1-.1.1c0-.3-.3-.1-.4-.1-.4-.1-.3-.4-.5-.7s-.3-.2-.3-.4-.1-.3-.3-.3-.3.4-.3.3c-.2-.1-.2 0-.3.1s-.2 0-.3.1c.3-.1-.1-.3-.3-.2.2-.1.1-.3 0-.4h.1c0-.2-.5-.3-.7-.4s-1-.3-1.1-.2.1.5.1.6-.2.3-.2.4c0 .3.5.2.4.6-.1.2-.4.3-.5.5a.48.48 0 0 0 .2.6c.1.1-.2.3-.3.3-.3.1-.5-.3-.6-.5s-.1-.4-.3-.5-.4-.1-.5 0c-.1-.3-.5-.4-.7-.4a3.08 3.08 0 0 0-1-.1c.1 0 0-.5-.3-.5a1.09 1.09 0 0 0 .1-.5.76.76 0 0 1 .2-.4c0-.1.4-.5.3-.5a1.08 1.08 0 0 0 .8-.2c.2-.2.2-.4.4-.6s.5.1.7.1.3-.4.1-.5c.2 0 0-.4-.1-.4s-.7.1-.4.2c-.1 0-.5.8-.7.4-.1-.1-.1-.4-.3-.5s-.2.2-.3.3c.1-.2-.5-.4-.6-.4.3-.2.1-.4-.1-.5s-.6-.2-.7 0c-.3.4.3.4.5.5s.3.2.1.2-.4.1-.4.2.1.3 0 .5c-.2-.2-.2-.4-.3-.6.2.2-.6.1-.6.1-.3 0-.7.2-.8-.1 0-.1 0-.5.1-.4a1.38 1.38 0 0 1-.4-.3 7.74 7.74 0 0 0-1.6.7h.2c.1-.1.3-.1.4-.2s.5-.3.7-.1l.1-.1c.1.1.2.3.3.4-.1-.1-.4 0-.5 0a.76.76 0 0 0-.4.2.37.37 0 0 1 .1.3 1 1 0 0 0-.7-.4H68a11.83 11.83 0 0 0-4 3.7c.1.1.1.1.2.1s0 .5.3.3a.37.37 0 0 1 .1.3s.7.4.7.5.3.2.4.4-.1.3-.2.3-.3-.3-.3-.2 0 .5.2.5c-.3 0-.2 1.1-.2 1.3-.1.2.1 1 .5.9-.2 0 .4.8.5.9s.5.3.6.5.2.6.4.8c-.1.2.4.4.3.7h-.1c.1.2.4.2.5.5.1.1 0 .5.2.4a1.78 1.78 0 0 0-.4-1c-.1-.2-.2-.3-.3-.5s-.1-.3-.2-.5a1.47 1.47 0 0 1 .4.2c-.1.3.5.9.7 1.1s.4.6.2.6c.2 0 .5.3.6.5s.1.6.2.8.6.5.8.6a4.35 4.35 0 0 0 .7.4c.4.1.4 0 .7 0s.5.4.8.6.7.3.9.2c-.1 0 .4.7.4.8.2.2.4.3.6.5.1 0 .1-.1.1-.2-.1.2.3.5.4.5s.2-.4.2-.5c-.3.2-.6 0-.8-.3 0-.1-.3-.6-.1-.6s.1-.3.1-.5-.3-.4-.4-.6a.28.28 0 0 1-.5 0c0 .1-.1.1-.1.2h-.3c0-.2.1-.5.1-.7s.6-.9-.1-.9c-.3 0-.4.1-.4.3s-.1.4-.3.5a1.06 1.06 0 0 1-.8-.1 1.61 1.61 0 0 1-.5-1.1c0-.5.2-.9 0-1.3.1-.1.2-.3.3-.3s.2.1.3-.2a.1.1 0 0 1-.1-.1c.3.1.7-.2.9 0a.3.3 0 0 0 .4 0c0-.1-.1-.3-.1-.4.1.3.2.3.5.2.1.1.4.1.6.2s.2.3.4.1c.1.2.2.2.2.4s.2.7.3.7c.4.2.3-.4.2-.6v-.6c-.5-.1-.3-.5 0-.8a3.29 3.29 0 0 0 .6-.3.71.71 0 0 0 .3-.6.22.22 0 0 0 .2-.2c-.1 0-.3-.2-.3-.2a.19.19 0 0 0 0-.3c.2-.1.1-.3.3-.4.2.3.6 0 .4-.2.2-.2.6-.1.7-.3.3.1.1-.3.2-.4s.3-.2.5-.2c0 0 .4-.2.3-.3.3 0 .9-.3.4-.5.1-.2-.2-.2-.3-.3h.4c.2-.2.1-.2-.1-.3s-.5.1-.7.2c.1.5 0 .7-.1.7zm3.5 11.3a.6.6 0 0 0-.4-.1c-.1-.1-.2-.1-.4-.1 0-.3-.3-.5-.6-.6s-.4-.4-.7-.3c0 0-.4.1-.3.2a1.28 1.28 0 0 0-.6-.4c-.3-.1-.5-.4-.7-.1a.75.75 0 0 0-.1.5c-.2-.2.2-.4 0-.6s-.6.2-.7.3-.2.1-.3.2-.1.3-.2.4c-.1-.1-.3-.1-.4-.2.1.4.1.8.2 1.2a.83.83 0 0 1-.2.8c-.2.2-.5.4-.5.7s0 .4.2.4c0 .3-.3.4-.3.7v.3a12.17 12.17 0 0 0 6-3.3z"/><path class="cls-11" d="M500.4 522.8a.67.67 0 0 1-1 0l-8.6-8.6a.78.78 0 0 1 0-1.1l1.9-1.9a.67.67 0 0 1 1 0l6.1 6.1 6.1-6.1a.67.67 0 0 1 1 0l1.9 1.9a.78.78 0 0 1 0 1.1z"/><path class="cls-12" d="M0-3h560v466H0z"/><path class="cls-5" d="M207.6 328.5c-39.76 0-72.1-32.7-72.1-72.9a73 73 0 0 1 20.06-50.41 72 72 0 0 1 52-22.4c1.34 0 2.73 0 4.17.11 38.06 2.21 67.93 34.15 67.93 72.69.04 40.21-32.3 72.91-72.06 72.91zm0-138.7a65 65 0 0 0-47 20.21 66.08 66.08 0 0 0-18.1 45.59c0 36.34 29.2 65.9 65.1 65.9s65.1-29.56 65.1-65.9c0-34.84-27-63.7-61.4-65.71-1.23-.09-2.43-.09-3.7-.09z"/><path class="cls-12" d="M164.8 215c-2.9-3.5-7.1-8.5-10.7-13.4 8.4-20.3 36.3-29.6 56.5-21.8.2 9.8-.3 11.2-.2 18.1-19.4-3.5-35.3 3.2-45.6 17.1z" id="Shape_2_copy" data-name="Shape 2 copy"/><path class="cls-13" d="M163.9 206.4c-1.4-1.5-2.7-3.1-4-4.7 10.9-11 30.4-18.7 45.5-18 .3 4.2.3 2.9.4 6.1-15.4.7-29.9 6.9-41.9 16.6z"/><path class="cls-4" d="M181.2 226.5a12.23 12.23 0 0 1 7.1 1.8 6 6 0 0 1 2.5 5.2 6.76 6.76 0 0 1-1.2 4 8.49 8.49 0 0 1-3.8 3 14.69 14.69 0 0 1 4.5 3.6 6.31 6.31 0 0 1 1.3 3.9 7 7 0 0 1-2.8 6 12.57 12.57 0 0 1-7.7 2.1q-5.1 0-7.8-2.1a7.15 7.15 0 0 1-2.7-6 7.5 7.5 0 0 1 1.2-4.3 9.58 9.58 0 0 1 4-3.2 10.35 10.35 0 0 1-3.3-3.3 7.56 7.56 0 0 1-1-3.9 6.22 6.22 0 0 1 2.6-5.2 13.81 13.81 0 0 1 7.1-1.6zm-3.4 21.4a2.52 2.52 0 0 0 .9 2 3.61 3.61 0 0 0 2.4.7c2.3 0 3.5-.9 3.5-2.6a3.15 3.15 0 0 0-.8-1.9 11.45 11.45 0 0 0-2.7-2.1 6.54 6.54 0 0 0-2.5 1.9 2.87 2.87 0 0 0-.8 2zm3.3-15.8a2.52 2.52 0 0 0-1.7.6 1.8 1.8 0 0 0-.7 1.5c0 1.1.8 2.1 2.3 3a5.21 5.21 0 0 0 1.9-1.5 2.69 2.69 0 0 0 .5-1.5 1.8 1.8 0 0 0-.7-1.5 2.11 2.11 0 0 0-1.6-.6zm24.8 4.8a8.92 8.92 0 0 1 4.5 1.2 8.22 8.22 0 0 1 3.1 3.3 10.73 10.73 0 0 1 1.1 4.9 9.86 9.86 0 0 1-2.9 7.5c-1.9 1.7-4.9 2.6-8.8 2.6a17.88 17.88 0 0 1-8.2-1.6v-6.4a17.81 17.81 0 0 0 3.9 1.3 19 19 0 0 0 3.7.5 5.39 5.39 0 0 0 3.3-.9 3.16 3.16 0 0 0 1.2-2.7 3.09 3.09 0 0 0-1.2-2.6 6 6 0 0 0-3.6-.9 11.51 11.51 0 0 0-3.9.7l-2.8-1.4 1.1-15.3h16.4v6.5H203l-.4 3.8a12.22 12.22 0 0 1 2.2-.3 2 2 0 0 1 1.1-.2zm26-1.3c0 2.9-.6 5.2-1.9 6.8a6.64 6.64 0 0 1-5.5 2.4 6.19 6.19 0 0 1-5.3-2.5 10.49 10.49 0 0 1-2-6.7c0-2.9.6-5.1 1.9-6.7a6.5 6.5 0 0 1 5.4-2.3 6.91 6.91 0 0 1 5.5 2.4 10.17 10.17 0 0 1 1.9 6.6zm-8.9 0a9.15 9.15 0 0 0 .4 3.3c.2.7.6 1 1.1 1s.9-.3 1.1-1a12.18 12.18 0 0 0 .4-3.3 9.15 9.15 0 0 0-.4-3.3c-.2-.7-.6-1-1.1-1s-.9.3-1.1 1a12.18 12.18 0 0 0-.4 3.3zm23.2-8.7l-15.9 29h-5.8l15.9-29zm7.6 20.2a10.29 10.29 0 0 1-2 6.7 6.64 6.64 0 0 1-5.5 2.4 6.19 6.19 0 0 1-5.3-2.5 10.49 10.49 0 0 1-2-6.7c0-2.9.6-5.1 1.9-6.7a6.5 6.5 0 0 1 5.4-2.3 6.91 6.91 0 0 1 5.5 2.4 10.68 10.68 0 0 1 2 6.7zm-8.9.1a9.15 9.15 0 0 0 .4 3.3c.2.7.6 1 1.1 1s1-.4 1.2-1.2a13 13 0 0 0 .3-3.1 12.39 12.39 0 0 0-.3-3.1q-.3-1.2-1.2-1.2c-.5 0-.9.3-1.1 1a9.15 9.15 0 0 0-.4 3.3zm-77.5 20.7a3.22 3.22 0 0 0-2.6 1.2 5.27 5.27 0 0 0-.9 3.2 5.39 5.39 0 0 0 .9 3.3 3.31 3.31 0 0 0 2.6 1.1 6.15 6.15 0 0 0 1.4-.1 10.26 10.26 0 0 0 1.4-.4v1.6a9.59 9.59 0 0 1-3.1.5 4.72 4.72 0 0 1-3.9-1.6 6.45 6.45 0 0 1-1.4-4.4 6.57 6.57 0 0 1 .7-3.2 4.84 4.84 0 0 1 1.9-2.1 5.43 5.43 0 0 1 2.9-.7 7.31 7.31 0 0 1 3.3.8l-.7 1.6a7.85 7.85 0 0 0-2.5-.8zm7 10.2h-1.9v-12.4h1.9zm10.4-4.4a5.14 5.14 0 0 1-1.1 3.4 4 4 0 0 1-3.1 1.2 4.28 4.28 0 0 1-2.2-.6 3.64 3.64 0 0 1-1.4-1.6 6 6 0 0 1-.5-2.4 5.14 5.14 0 0 1 1.1-3.4 4 4 0 0 1 3.1-1.2 3.77 3.77 0 0 1 3 1.2 5.33 5.33 0 0 1 1.1 3.4zm-6.4 0c0 2 .7 3.1 2.2 3.1s2.2-1 2.2-3.1-.7-3-2.2-3a2 2 0 0 0-1.7.8 4.2 4.2 0 0 0-.5 2.2zm14.4 1.9a2.38 2.38 0 0 1-.9 2 4.15 4.15 0 0 1-2.7.7 7 7 0 0 1-2.8-.5v-1.6a6.48 6.48 0 0 0 2.9.7c1.1 0 1.7-.3 1.7-1a1.42 1.42 0 0 0-.2-.6 3.81 3.81 0 0 0-.6-.5 7.26 7.26 0 0 0-1.2-.5 4.92 4.92 0 0 1-2-1.2 2 2 0 0 1-.5-1.5 2.14 2.14 0 0 1 .9-1.8 4.4 4.4 0 0 1 2.5-.6 7.17 7.17 0 0 1 2.9.6l-.6 1.4a6 6 0 0 0-2.4-.6c-1 0-1.5.3-1.5.8a.75.75 0 0 0 .4.7 6.78 6.78 0 0 0 1.7.8 7.88 7.88 0 0 1 1.6.8 1.78 1.78 0 0 1 .7.8c0 .3.1.7.1 1.1zm5.8 2.7a4.22 4.22 0 0 1-3.2-1.2 4.46 4.46 0 0 1-1.2-3.3 5.14 5.14 0 0 1 1.1-3.4 3.7 3.7 0 0 1 2.9-1.2 3.39 3.39 0 0 1 2.7 1.1 4 4 0 0 1 1 2.9v1h-5.8a3 3 0 0 0 .7 2 2.14 2.14 0 0 0 1.8.7 6.15 6.15 0 0 0 1.4-.1 12.13 12.13 0 0 0 1.4-.5v1.5a7.84 7.84 0 0 1-1.4.5 6.26 6.26 0 0 0-1.4 0zm-.3-7.8a1.68 1.68 0 0 0-1.4.6 2.65 2.65 0 0 0-.6 1.7h4a2.86 2.86 0 0 0-.5-1.7 2 2 0 0 0-1.5-.6zm12.1 3v4.7h-1.9v-11.7h3.3a5.71 5.71 0 0 1 3.3.8 3 3 0 0 1 1.1 2.6 3.09 3.09 0 0 1-2.2 3.1l3.3 5.2h-2.2l-2.8-4.7zm0-1.6h1.3a3.09 3.09 0 0 0 1.9-.5 1.75 1.75 0 0 0 .6-1.5 1.56 1.56 0 0 0-.6-1.4 3.36 3.36 0 0 0-1.9-.4h-1.3zm13.8 6.2l-.4-1.2h-.1a3.34 3.34 0 0 1-1.3 1.1 3.81 3.81 0 0 1-1.6.3 2.44 2.44 0 0 1-2.7-2.7 2.39 2.39 0 0 1 1-2.1 6.07 6.07 0 0 1 3.1-.8h1.5v-.5a1.7 1.7 0 0 0-.4-1.3 1.59 1.59 0 0 0-1.2-.4 5.85 5.85 0 0 0-1.3.2 6.12 6.12 0 0 0-1.2.5l-.6-1.3a7.58 7.58 0 0 1 1.6-.6 10 10 0 0 1 1.6-.2 3.56 3.56 0 0 1 2.5.7 2.87 2.87 0 0 1 .9 2.3v6zm-2.8-1.3a2.06 2.06 0 0 0 2.2-2.2v-.8h-1.1a4.14 4.14 0 0 0-1.9.4 1.43 1.43 0 0 0-.6 1.2 1.22 1.22 0 0 0 .3.9 1.88 1.88 0 0 0 1.1.5zm10 0a6.75 6.75 0 0 0 1.4-.2v1.4a1.88 1.88 0 0 1-.8.2c-.3 0-.7.1-1 .1-1.8 0-2.6-.9-2.6-2.8v-4.8h-1.2v-.8l1.3-.7.6-1.9h1.1v2h2.5v1.4h-2.5v4.7a1.33 1.33 0 0 0 .3 1 1.27 1.27 0 0 0 .9.4zm6.9 1.5a4.22 4.22 0 0 1-3.2-1.2 4.46 4.46 0 0 1-1.2-3.3 5.14 5.14 0 0 1 1.1-3.4 3.7 3.7 0 0 1 2.9-1.2 3.39 3.39 0 0 1 2.7 1.1 4 4 0 0 1 1 2.9v1h-5.8a3 3 0 0 0 .7 2 2.14 2.14 0 0 0 1.8.7 6.15 6.15 0 0 0 1.4-.1 12.13 12.13 0 0 0 1.4-.5v1.5a7.84 7.84 0 0 1-1.4.5 6.39 6.39 0 0 0-1.4 0zm-.3-7.8a1.68 1.68 0 0 0-1.4.6 2.65 2.65 0 0 0-.6 1.7h4a2.86 2.86 0 0 0-.5-1.7 2.2 2.2 0 0 0-1.5-.6z"/><path class="cls-14" d="M317.7 203.6H420V227H317.7z"/><path class="cls-5" d="M317.7 242.2H420v23.5H317.7z" id="Rectangle_4_copy" data-name="Rectangle 4 copy"/><path class="cls-13" d="M317.7 280.8H420v23.4H317.7z" id="Rectangle_4_copy_2" data-name="Rectangle 4 copy 2"/><path class="cls-4" d="M68.9 386.6a7.41 7.41 0 0 1-2.8 6.1 13.89 13.89 0 0 1-7.8 2.8v4.9H55v-4.8a27 27 0 0 1-10.3-2.1v-6.3a26.31 26.31 0 0 0 5 1.8 29.37 29.37 0 0 0 5.3.9v-7.5l-1.6-.6c-3.2-1.3-5.4-2.6-6.8-4.1a8 8 0 0 1-2-5.4 7.1 7.1 0 0 1 2.7-5.7 13.76 13.76 0 0 1 7.6-2.7v-3.7h3.3v3.6a28.73 28.73 0 0 1 10 2.2l-2.3 5.6a26.33 26.33 0 0 0-7.7-1.9v7.1a36.46 36.46 0 0 1 6.7 3.1 10 10 0 0 1 2.9 2.9 6.48 6.48 0 0 1 1.1 3.8zM52 372.4a2.06 2.06 0 0 0 .7 1.7 8.4 8.4 0 0 0 2.4 1.4v-5.7c-2.1.4-3.1 1.2-3.1 2.6zm9.7 14.6a2.29 2.29 0 0 0-.8-1.7 9.22 9.22 0 0 0-2.5-1.4v6c2.2-.4 3.3-1.4 3.3-2.9zm10.8-4.3c0-7 1.5-12.1 4.4-15.5s7.4-5.1 13.2-5.1a19.46 19.46 0 0 1 4.7.4v5.9a20.07 20.07 0 0 0-4.2-.5 13.68 13.68 0 0 0-6.2 1.2 7.92 7.92 0 0 0-3.6 3.4 14.82 14.82 0 0 0-1.4 6.4h.3a8.19 8.19 0 0 1 7.6-4.1 9.5 9.5 0 0 1 7.4 3c1.8 2 2.7 4.7 2.7 8.2a12.27 12.27 0 0 1-3.2 8.9c-2.1 2.2-5.1 3.3-8.8 3.3a11.68 11.68 0 0 1-11.3-7.1 19.68 19.68 0 0 1-1.6-8.4zm12.7 9.5a4.44 4.44 0 0 0 3.7-1.6 7 7 0 0 0 1.3-4.6 6.45 6.45 0 0 0-1.2-4.1 4.33 4.33 0 0 0-3.6-1.5 5.61 5.61 0 0 0-3.9 1.5 4.4 4.4 0 0 0-1.6 3.4 7.64 7.64 0 0 0 1.5 4.8 4.55 4.55 0 0 0 3.8 2.1zm28.5-17a11.3 11.3 0 0 1 8.1 2.9 10.25 10.25 0 0 1 3 7.8c0 3.9-1.2 6.9-3.6 9.1s-5.9 3.2-10.4 3.2c-3.9 0-7.1-.6-9.5-1.9v-6.4a17.5 17.5 0 0 0 4.4 1.6 21 21 0 0 0 4.8.6c4.5 0 6.8-1.9 6.8-5.6 0-3.5-2.4-5.3-7.1-5.3a14.07 14.07 0 0 0-2.8.3c-1 .2-1.9.3-2.5.5l-3-1.6 1.3-17.9h19.1v6.3h-12.6l-.7 6.9.8-.2a23.76 23.76 0 0 1 3.9-.3zm41.3 22.4h-7.3v-15.7a7.75 7.75 0 0 0-1-4.4 3.39 3.39 0 0 0-3.1-1.5 4.47 4.47 0 0 0-4.1 2.1c-.9 1.4-1.3 3.6-1.3 6.8v12.6h-7.3v-26.9h5.6l1 3.4h.4a7.89 7.89 0 0 1 3.1-2.9 10.15 10.15 0 0 1 4.7-1c4 0 6.8 1.3 8.2 3.9h.7a7 7 0 0 1 3.2-2.9 10.58 10.58 0 0 1 4.8-1c3.1 0 5.4.8 6.9 2.3s2.3 4.1 2.3 7.5v17.5h-7.4v-15.7a7.75 7.75 0 0 0-1-4.4 3.39 3.39 0 0 0-3.1-1.5 4.47 4.47 0 0 0-4 1.9c-.9 1.3-1.3 3.3-1.3 6.1v13.8z"/><path class="cls-15" d="M39.5 417.2h1.3l-2.7 7.8h-1.3l-2.7-7.8h1.3l1.6 4.9a4.65 4.65 0 0 1 .3.9 4.5 4.5 0 0 1 .2.8 2.92 2.92 0 0 1 .2-.9 3.09 3.09 0 0 0 .2-.8zm5.9 7.8l-.3-.8a1.85 1.85 0 0 1-.9.7 3.59 3.59 0 0 1-1.1.2 2.17 2.17 0 0 1-1.4-.5 1.9 1.9 0 0 1-.5-1.3 1.51 1.51 0 0 1 .7-1.4 3.81 3.81 0 0 1 2.1-.5h1v-.3c0-.4-.1-.7-.3-.8a1.14 1.14 0 0 0-.8-.3 2.77 2.77 0 0 0-.9.1c-.3.1-.5.2-.8.3l-.4-.9a3.58 3.58 0 0 1 1.1-.4 4.1 4.1 0 0 1 1.1-.1 2.65 2.65 0 0 1 1.7.5 1.75 1.75 0 0 1 .6 1.5v4h-.9zm-1.9-.9a1.38 1.38 0 0 0 1.5-1.5v-.5h-.8a2.27 2.27 0 0 0-1.3.3.81.81 0 0 0-.4.8.85.85 0 0 0 .2.6.91.91 0 0 0 .8.3zm5.8.9H48v-8.3h1.3zm6 0l-.2-.8H55a1.34 1.34 0 0 1-.7.6 2 2 0 0 1-1.1.2 2.35 2.35 0 0 1-1.6-.5 2.07 2.07 0 0 1-.5-1.6V419h1.3v3.6a1.33 1.33 0 0 0 .3 1 1.22 1.22 0 0 0 .9.3 1.66 1.66 0 0 0 1.2-.5 2.83 2.83 0 0 0 .4-1.6v-2.9h1.3v5.9h-1.2zm5.4.1a3.29 3.29 0 0 1-2.2-.8 3.11 3.11 0 0 1-.8-2.2 3.33 3.33 0 0 1 .7-2.3 2.32 2.32 0 0 1 2-.8 2.49 2.49 0 0 1 1.9.7 2.58 2.58 0 0 1 .7 2v.7h-4a1.73 1.73 0 0 0 .5 1.3 1.66 1.66 0 0 0 1.2.5 3.4 3.4 0 0 0 1-.1c.3-.1.6-.2 1-.3v1l-.9.3a4 4 0 0 1-1.1 0zm-.3-5.2a1.28 1.28 0 0 0-1 .4 1.82 1.82 0 0 0-.4 1.1h2.7a1.25 1.25 0 0 0-.4-1.1 1.1 1.1 0 0 0-.9-.4zm12.1 2.1a3.33 3.33 0 0 1-.7 2.3 2.86 2.86 0 0 1-2.1.8 2.6 2.6 0 0 1-1.5-.4 2.17 2.17 0 0 1-1-1.1 4.15 4.15 0 0 1-.3-1.6 2.92 2.92 0 0 1 .7-2.2 2.86 2.86 0 0 1 2.1-.8 2.63 2.63 0 0 1 2 .8 3.11 3.11 0 0 1 .8 2.2zm-4.3 0c0 1.4.5 2 1.5 2s1.5-.7 1.5-2-.5-2-1.5-2a1.29 1.29 0 0 0-1.1.5 2.41 2.41 0 0 0-.4 1.5zm8.7-2h-1.4v5h-1.3v-5h-1v-.6l1-.4v-.4a2.54 2.54 0 0 1 .5-1.6 2.07 2.07 0 0 1 1.5-.5 5.85 5.85 0 0 1 1.3.2l-.3 1a2.77 2.77 0 0 0-.9-.1.6.6 0 0 0-.6.3 1.55 1.55 0 0 0-.2.8v.4h1.4zm9.1 5h-1.3v-3.6a1.33 1.33 0 0 0-.3-1 1.22 1.22 0 0 0-.9-.3 1.66 1.66 0 0 0-1.2.5 2.2 2.2 0 0 0-.4 1.6v2.9h-1.3v-5.9h1l.2.8h.2a1.85 1.85 0 0 1 .8-.7 2 2 0 0 1 1.1-.2c1.4 0 2.1.7 2.1 2.2zm4.3.1a3.29 3.29 0 0 1-2.2-.8 3.11 3.11 0 0 1-.8-2.2 3.33 3.33 0 0 1 .7-2.3 2.32 2.32 0 0 1 2-.8 2.49 2.49 0 0 1 1.9.7 2.58 2.58 0 0 1 .7 2v.7h-3.9a1.73 1.73 0 0 0 .5 1.3 1.66 1.66 0 0 0 1.2.5 3.4 3.4 0 0 0 1-.1c.3-.1.6-.2 1-.3v1l-.9.3a4.8 4.8 0 0 1-1.2 0zm-.2-5.2a1.28 1.28 0 0 0-1 .4 1.82 1.82 0 0 0-.4 1.1h2.7a1.25 1.25 0 0 0-.4-1.1 1.27 1.27 0 0 0-.9-.4zm8.8 5.1l-.8-2.8a18.21 18.21 0 0 1-.5-2c-.2 1-.4 1.6-.5 2l-.8 2.7h-1.4l-1.7-5.9h1.3l.8 2.9c.2.7.3 1.3.4 1.8a2.92 2.92 0 0 1 .2-.9c.1-.3.1-.6.2-.8l.9-3.1h1.4l.9 3.1a4.54 4.54 0 0 1 .2.8 2.81 2.81 0 0 1 .1.8c.1-.4.2-1.1.4-1.8l.8-2.9h1.3l-1.7 5.9h-1.5zm8.9.1a2.14 2.14 0 0 1-1.7-.8 3.71 3.71 0 0 1-.6-2.3 3.92 3.92 0 0 1 .6-2.3 2.14 2.14 0 0 1 1.7-.8 2 2 0 0 1 1.8.9h.1a4.14 4.14 0 0 1-.1-1v-2.2h1.3v8.3h-1l-.2-.8h-.1a1.9 1.9 0 0 1-1.8 1zm.4-1a1.25 1.25 0 0 0 1.1-.4 2.59 2.59 0 0 0 .4-1.4v-.2a2.36 2.36 0 0 0-.4-1.6 1.43 1.43 0 0 0-1.1-.5 1.23 1.23 0 0 0-1 .5 3.31 3.31 0 0 0-.4 1.5 2.81 2.81 0 0 0 .3 1.5 1.36 1.36 0 0 0 1.1.6zm9.7-2.1a3.33 3.33 0 0 1-.7 2.3 2.86 2.86 0 0 1-2.1.8 2.6 2.6 0 0 1-1.5-.4 2.17 2.17 0 0 1-1-1.1 4.15 4.15 0 0 1-.3-1.6 2.92 2.92 0 0 1 .7-2.2 2.86 2.86 0 0 1 2.1-.8 2.63 2.63 0 0 1 2 .8 3.11 3.11 0 0 1 .8 2.2zm-4.3 0c0 1.4.5 2 1.5 2s1.5-.7 1.5-2-.5-2-1.5-2a1.29 1.29 0 0 0-1.1.5 2.41 2.41 0 0 0-.4 1.5zm8.1 3.1a2.48 2.48 0 0 1-2-.8 3.07 3.07 0 0 1-.7-2.2 3.17 3.17 0 0 1 .7-2.3 2.86 2.86 0 0 1 2.1-.8 4.67 4.67 0 0 1 1.7.3l-.4 1a3.91 3.91 0 0 0-1.3-.3c-1 0-1.5.7-1.5 2a2.08 2.08 0 0 0 .4 1.5 1.43 1.43 0 0 0 1.1.5 2.93 2.93 0 0 0 1.6-.4v1.1c-.2.1-.5.2-.7.3a2.79 2.79 0 0 1-1 .1zm7.3-.1l-.2-.8h-.1a1.34 1.34 0 0 1-.7.6 2 2 0 0 1-1.1.2 2.35 2.35 0 0 1-1.6-.5 2.07 2.07 0 0 1-.5-1.6V419h1.3v3.6a1.33 1.33 0 0 0 .3 1 1.22 1.22 0 0 0 .9.3 1.66 1.66 0 0 0 1.2-.5 2.83 2.83 0 0 0 .4-1.6v-2.9h1.3v5.9H129zm7.7 0h-1.3v-3.6a1.33 1.33 0 0 0-.3-1 1 1 0 0 0-.8-.3 1.43 1.43 0 0 0-1.1.5 3 3 0 0 0-.3 1.6v2.9h-1.3v-5.9h1l.2.8h.1a2.34 2.34 0 0 1 .7-.7 2.35 2.35 0 0 1 2.8.7h.1a2.34 2.34 0 0 1 .7-.7 2 2 0 0 1 1.1-.2 2.07 2.07 0 0 1 1.5.5 2.35 2.35 0 0 1 .5 1.6v3.9H139v-3.6a1.33 1.33 0 0 0-.3-1 1 1 0 0 0-.8-.3 1.43 1.43 0 0 0-1.1.5c-.3.3-.3.8-.3 1.4v2.9zm8.1.1a3.29 3.29 0 0 1-2.2-.8 3.11 3.11 0 0 1-.8-2.2 3.33 3.33 0 0 1 .7-2.3 2.32 2.32 0 0 1 2-.8 2.49 2.49 0 0 1 1.9.7 2.58 2.58 0 0 1 .7 2v.7h-3.9a1.73 1.73 0 0 0 .5 1.3 1.66 1.66 0 0 0 1.2.5 3.4 3.4 0 0 0 1-.1c.3-.1.6-.2 1-.3v1l-.9.3a4.8 4.8 0 0 1-1.2 0zm-.2-5.2a1.28 1.28 0 0 0-1 .4 1.82 1.82 0 0 0-.4 1.1h2.7a1.25 1.25 0 0 0-.4-1.1 1.27 1.27 0 0 0-.9-.4zm9.1 5.1h-1.3v-3.6a1.33 1.33 0 0 0-.3-1 1.22 1.22 0 0 0-.9-.3 1.66 1.66 0 0 0-1.2.5 2.2 2.2 0 0 0-.4 1.6v2.9h-1.3v-5.9h1l.2.8h.1a1.85 1.85 0 0 1 .8-.7 2 2 0 0 1 1.1-.2c1.4 0 2.1.7 2.1 2.2v3.7zm4-.9a2.77 2.77 0 0 0 .9-.1v.9c-.1.1-.3.1-.5.2s-.4.1-.7.1c-1.2 0-1.8-.6-1.8-1.9V420h-.8v-.6l.9-.5.4-1.3h.8v1.3h1.7v1h-1.7v3.2a1.45 1.45 0 0 0 .2.7.86.86 0 0 0 .6.3zm6.1-.8a1.49 1.49 0 0 1-.6 1.3 3 3 0 0 1-1.8.5 3.58 3.58 0 0 1-1.9-.4v-1.1a4.89 4.89 0 0 0 1.9.5c.8 0 1.2-.2 1.2-.7 0-.2 0-.3-.1-.4a1.38 1.38 0 0 0-.4-.3 5.9 5.9 0 0 1-.8-.4 4.29 4.29 0 0 1-1.4-.8 1.28 1.28 0 0 1-.4-1 1.43 1.43 0 0 1 .6-1.2 2.86 2.86 0 0 1 1.7-.4 4.48 4.48 0 0 1 2 .4l-.4.9a3.73 3.73 0 0 0-1.6-.4c-.7 0-1 .2-1 .6 0 .2.1.3.3.5s.6.3 1.1.5.8.4 1.1.5.4.3.5.5 0 .6 0 .9z"/><path class="cls-4" d="M277.3 397.6h-24.6v-5.2l8.8-8.9a71.26 71.26 0 0 0 5.1-5.6 9.91 9.91 0 0 0 1.7-2.9 6.46 6.46 0 0 0 .5-2.7 3.72 3.72 0 0 0-1.2-3.1 4.45 4.45 0 0 0-3.1-1 9.34 9.34 0 0 0-4 .9 17.6 17.6 0 0 0-4 2.7l-4-4.8a24.27 24.27 0 0 1 4.3-3.1 14.91 14.91 0 0 1 3.7-1.4 20.65 20.65 0 0 1 4.5-.5 13.36 13.36 0 0 1 5.8 1.2 8.67 8.67 0 0 1 3.9 3.4 9.15 9.15 0 0 1 1.4 5 12.16 12.16 0 0 1-.9 4.6 20.28 20.28 0 0 1-2.6 4.4 70.15 70.15 0 0 1-6.3 6.4l-4.5 4.3v.3h15.3v6zm15.6-35.6a13.73 13.73 0 0 1 8.2 2.3 7.2 7.2 0 0 1 3.1 6.2 8.05 8.05 0 0 1-1.5 4.8 12.83 12.83 0 0 1-4.8 3.8 18.45 18.45 0 0 1 5.7 4.4 8.62 8.62 0 0 1-1.7 12c-2.3 1.8-5.2 2.6-8.9 2.6-3.9 0-6.9-.8-9.1-2.5a8.13 8.13 0 0 1-3.3-6.9 8.75 8.75 0 0 1 1.6-5.3 13.54 13.54 0 0 1 5.1-4.1 12.18 12.18 0 0 1-4.3-4.1 8.54 8.54 0 0 1-1.3-4.7 7.15 7.15 0 0 1 3.1-6.1 13 13 0 0 1 8.1-2.4zm-5.5 26.3a3.88 3.88 0 0 0 1.4 3.2 6.46 6.46 0 0 0 3.9 1.2 6.08 6.08 0 0 0 4.1-1.2 4 4 0 0 0 1.4-3.1 4.22 4.22 0 0 0-1.4-3 20.46 20.46 0 0 0-4.4-3c-3.2 1.5-5 3.5-5 5.9zm5.5-20.8a4.45 4.45 0 0 0-3.1 1 3.09 3.09 0 0 0-1.2 2.6 4.11 4.11 0 0 0 .9 2.6 9 9 0 0 0 3.4 2.3 8.21 8.21 0 0 0 3.3-2.3 4.39 4.39 0 0 0 .9-2.7 3.09 3.09 0 0 0-1.2-2.6 4.66 4.66 0 0 0-3-.9zm40.5 12.6c0 6.1-1 10.7-3 13.6s-5.1 4.4-9.3 4.4-7.1-1.5-9.2-4.6-3.1-7.5-3.1-13.5c0-6.2 1-10.8 3-13.7s5.1-4.4 9.3-4.4 7.1 1.5 9.2 4.6 3.1 7.6 3.1 13.6zm-17.2 0c0 4.3.4 7.4 1.1 9.3a3.81 3.81 0 0 0 3.8 2.8 4 4 0 0 0 3.8-2.8c.8-1.9 1.2-5 1.2-9.2s-.4-7.4-1.2-9.3-2-2.8-3.7-2.8-3 .9-3.8 2.8c-.9 1.7-1.2 4.8-1.2 9.2z"/><path class="cls-15" d="M248.5 421a4.08 4.08 0 0 1-1.1 3 4.29 4.29 0 0 1-3.1 1h-2.2v-7.8h2.4a4 4 0 0 1 2.9 1 3.42 3.42 0 0 1 1.1 2.8zm-1.3.1c0-1.9-.9-2.8-2.6-2.8h-1.1v5.7h.9a2.61 2.61 0 0 0 2.8-2.9zm8.1.9a3.33 3.33 0 0 1-.7 2.3 2.86 2.86 0 0 1-2.1.8 2.6 2.6 0 0 1-1.5-.4 2.17 2.17 0 0 1-1-1.1 4.15 4.15 0 0 1-.3-1.6 2.92 2.92 0 0 1 .7-2.2 2.86 2.86 0 0 1 2.1-.8 2.63 2.63 0 0 1 2 .8 3.11 3.11 0 0 1 .8 2.2zm-4.3 0c0 1.4.5 2 1.5 2s1.5-.7 1.5-2-.5-2-1.5-2a1.29 1.29 0 0 0-1.1.5 2.41 2.41 0 0 0-.4 1.5zm8.2 3.1a2.48 2.48 0 0 1-2-.8 3.07 3.07 0 0 1-.7-2.2 3.17 3.17 0 0 1 .7-2.3 2.86 2.86 0 0 1 2.1-.8 4.67 4.67 0 0 1 1.7.3l-.4 1a3.91 3.91 0 0 0-1.3-.3c-1 0-1.5.7-1.5 2a2.08 2.08 0 0 0 .4 1.5 1.43 1.43 0 0 0 1.1.5 2.93 2.93 0 0 0 1.6-.4v1.1c-.2.1-.5.2-.7.3a3.08 3.08 0 0 1-1 .1zm7.2-.1l-.2-.8h-.1a1.34 1.34 0 0 1-.7.6 2 2 0 0 1-1.1.2 2.35 2.35 0 0 1-1.6-.5 2.07 2.07 0 0 1-.5-1.6V419h1.3v3.6a1.33 1.33 0 0 0 .3 1 1.22 1.22 0 0 0 .9.3 1.66 1.66 0 0 0 1.2-.5 2.83 2.83 0 0 0 .4-1.6v-2.9h1.3v5.9h-1.2zm7.7 0h-1.3v-3.6a1.33 1.33 0 0 0-.3-1 1 1 0 0 0-.8-.3 1.43 1.43 0 0 0-1.1.5 3 3 0 0 0-.3 1.6v2.9H269v-5.9h1l.2.8h.1a2.34 2.34 0 0 1 .7-.7 2.35 2.35 0 0 1 2.8.7h.1a2.34 2.34 0 0 1 .7-.7 2 2 0 0 1 1.1-.2 2.07 2.07 0 0 1 1.5.5 2.35 2.35 0 0 1 .5 1.6v3.9h-1.3v-3.6a1.33 1.33 0 0 0-.3-1 1 1 0 0 0-.8-.3 1.43 1.43 0 0 0-1.1.5c-.3.3-.3.8-.3 1.4v2.9zm8.1.1a3.29 3.29 0 0 1-2.2-.8 3.11 3.11 0 0 1-.8-2.2 3.33 3.33 0 0 1 .7-2.3 2.32 2.32 0 0 1 2-.8 2.49 2.49 0 0 1 1.9.7 2.58 2.58 0 0 1 .7 2v.7h-3.9a1.73 1.73 0 0 0 .5 1.3 1.66 1.66 0 0 0 1.2.5 3.4 3.4 0 0 0 1-.1c.3-.1.6-.2 1-.3v1l-.9.3zm-.2-5.2a1.28 1.28 0 0 0-1 .4 1.82 1.82 0 0 0-.4 1.1h2.7a1.25 1.25 0 0 0-.4-1.1 1.27 1.27 0 0 0-.9-.4zm9.1 5.1h-1.3v-3.6a1.33 1.33 0 0 0-.3-1 1.22 1.22 0 0 0-.9-.3 1.66 1.66 0 0 0-1.2.5 2.2 2.2 0 0 0-.4 1.6v2.9h-1.3v-5.9h1l.2.8h.1a1.85 1.85 0 0 1 .8-.7 2.15 2.15 0 0 1 1.1-.2c1.4 0 2.1.7 2.1 2.2v3.7zm4-.9a2.77 2.77 0 0 0 .9-.1v.9c-.1.1-.3.1-.5.2s-.4.1-.7.1c-1.2 0-1.8-.6-1.8-1.9V420h-.8v-.6l.9-.5.4-1.3h.8v1.3h1.7v1h-1.7v3.2a1.45 1.45 0 0 0 .2.7.86.86 0 0 0 .6.3zm6.1-.8a1.49 1.49 0 0 1-.6 1.3 3 3 0 0 1-1.8.5 3.58 3.58 0 0 1-1.9-.4v-1.1a4.89 4.89 0 0 0 1.9.5c.8 0 1.2-.2 1.2-.7 0-.2 0-.3-.1-.4a1.38 1.38 0 0 0-.4-.3 5.9 5.9 0 0 1-.8-.4 4.29 4.29 0 0 1-1.4-.8 1.78 1.78 0 0 1-.4-1 1.43 1.43 0 0 1 .6-1.2 2.86 2.86 0 0 1 1.7-.4 4.48 4.48 0 0 1 2 .4l-.4.9a3.73 3.73 0 0 0-1.6-.4c-.7 0-1 .2-1 .6 0 .2.1.3.3.5a6.14 6.14 0 0 0 1.1.5c.5.2.8.4 1.1.5s.4.3.5.5a2.7 2.7 0 0 0 0 .9zm6.6 1.8a2.48 2.48 0 0 1-2-.8 3.07 3.07 0 0 1-.7-2.2 3.17 3.17 0 0 1 .7-2.3 2.86 2.86 0 0 1 2.1-.8 4.67 4.67 0 0 1 1.7.3l-.4 1a3.91 3.91 0 0 0-1.3-.3c-1 0-1.5.7-1.5 2a2.08 2.08 0 0 0 .4 1.5 1.43 1.43 0 0 0 1.1.5 2.93 2.93 0 0 0 1.6-.4v1.1c-.2.1-.5.2-.7.3a3.75 3.75 0 0 1-1 .1zm6-6.1c.3 0 .5 0 .6.1l-.1 1.2c-.2 0-.4-.1-.6-.1a1.66 1.66 0 0 0-1.2.5 1.9 1.9 0 0 0-.5 1.3v3.1h-1.3v-5.9h1l.2 1h.1a2 2 0 0 1 .8-.8 2.11 2.11 0 0 1 1-.4zm4.3 6.1a3.29 3.29 0 0 1-2.2-.8 3.11 3.11 0 0 1-.8-2.2 3.33 3.33 0 0 1 .7-2.3 2.32 2.32 0 0 1 2-.8 2.49 2.49 0 0 1 1.9.7 2.58 2.58 0 0 1 .7 2v.7h-3.9a1.73 1.73 0 0 0 .5 1.3 1.66 1.66 0 0 0 1.2.5 3.4 3.4 0 0 0 1-.1c.3-.1.6-.2 1-.3v1l-.9.3zm-.2-5.2a1.28 1.28 0 0 0-1 .4 1.82 1.82 0 0 0-.4 1.1h2.7a1.25 1.25 0 0 0-.4-1.1 1.27 1.27 0 0 0-.9-.4zm7.7 5.1l-.3-.8a1.85 1.85 0 0 1-.9.7 3.59 3.59 0 0 1-1.1.2 2.17 2.17 0 0 1-1.4-.5 1.9 1.9 0 0 1-.5-1.3 1.51 1.51 0 0 1 .7-1.4 3.81 3.81 0 0 1 2.1-.5h1v-.3c0-.4-.1-.7-.3-.8a1.14 1.14 0 0 0-.8-.3 2.77 2.77 0 0 0-.9.1c-.3.1-.5.2-.8.3l-.4-.9a3.58 3.58 0 0 1 1.1-.4 4.1 4.1 0 0 1 1.1-.1 2.65 2.65 0 0 1 1.7.5 1.75 1.75 0 0 1 .6 1.5v4h-.9zm-1.9-.9a1.38 1.38 0 0 0 1.5-1.5v-.5h-.8a2.27 2.27 0 0 0-1.3.3.81.81 0 0 0-.4.8.85.85 0 0 0 .2.6.83.83 0 0 0 .8.3zm6.7 0a2.77 2.77 0 0 0 .9-.1v.9c-.1.1-.3.1-.5.2s-.4.1-.7.1c-1.2 0-1.8-.6-1.8-1.9V420h-.8v-.6l.9-.5.4-1.3h.8v1.3h1.7v1h-1.7v3.2a1.45 1.45 0 0 0 .2.7.86.86 0 0 0 .6.3zm4.7 1a3.29 3.29 0 0 1-2.2-.8 3.11 3.11 0 0 1-.8-2.2 3.33 3.33 0 0 1 .7-2.3 2.32 2.32 0 0 1 2-.8 2.49 2.49 0 0 1 1.9.7 2.58 2.58 0 0 1 .7 2v.7h-3.9a1.73 1.73 0 0 0 .5 1.3 1.66 1.66 0 0 0 1.2.5 3.4 3.4 0 0 0 1-.1c.3-.1.6-.2 1-.3v1l-.9.3zm-.2-5.2a1.28 1.28 0 0 0-1 .4 1.82 1.82 0 0 0-.4 1.1h2.7a1.25 1.25 0 0 0-.4-1.1 1.27 1.27 0 0 0-.9-.4zm5.9 5.2a2.14 2.14 0 0 1-1.7-.8 3.71 3.71 0 0 1-.6-2.3 3.92 3.92 0 0 1 .6-2.3 2.14 2.14 0 0 1 1.7-.8 2 2 0 0 1 1.8.9h.1a4.14 4.14 0 0 1-.1-1v-2.2h1.3v8.3h-1l-.2-.8h-.1a1.9 1.9 0 0 1-1.8 1zm.4-1a1.25 1.25 0 0 0 1.1-.4 2.59 2.59 0 0 0 .4-1.4v-.2a2.36 2.36 0 0 0-.4-1.6 1.29 1.29 0 0 0-1.1-.5 1.23 1.23 0 0 0-1 .5 3 3 0 0 0-.4 1.5 2.81 2.81 0 0 0 .3 1.5 1.25 1.25 0 0 0 1.1.6z"/><path class="cls-4" d="M451.9 362a13.73 13.73 0 0 1 8.2 2.3 7.2 7.2 0 0 1 3.1 6.2 8.05 8.05 0 0 1-1.5 4.8 12.83 12.83 0 0 1-4.8 3.8 18.45 18.45 0 0 1 5.7 4.4 8.62 8.62 0 0 1-1.7 12c-2.3 1.8-5.2 2.6-8.9 2.6-3.9 0-6.9-.8-9.1-2.5a8.13 8.13 0 0 1-3.3-6.9 8.75 8.75 0 0 1 1.6-5.3 13.54 13.54 0 0 1 5.1-4.1 12.18 12.18 0 0 1-4.3-4.1 8.54 8.54 0 0 1-1.3-4.7 7.15 7.15 0 0 1 3.1-6.1 12.6 12.6 0 0 1 8.1-2.4zm-5.5 26.3a3.88 3.88 0 0 0 1.4 3.2 7.26 7.26 0 0 0 8 0 4 4 0 0 0 1.4-3.1 4.22 4.22 0 0 0-1.4-3 20.46 20.46 0 0 0-4.4-3c-3.3 1.5-5 3.5-5 5.9zm5.4-20.8a4.45 4.45 0 0 0-3.1 1 3.09 3.09 0 0 0-1.2 2.6 4.11 4.11 0 0 0 .9 2.6 9 9 0 0 0 3.4 2.3 8.21 8.21 0 0 0 3.3-2.3 4.39 4.39 0 0 0 .9-2.7 3.09 3.09 0 0 0-1.2-2.6 4.66 4.66 0 0 0-3-.9zm34.5 30.1h-7.4v-20.3l.1-3.3.1-3.7a35.08 35.08 0 0 1-2.6 2.4l-4 3.2-3.6-4.5 11.3-9h6.1zm34.4 0H496v-5.2l8.8-8.9a71.26 71.26 0 0 0 5.1-5.6 9.91 9.91 0 0 0 1.7-2.9 6.46 6.46 0 0 0 .5-2.7 3.72 3.72 0 0 0-1.2-3.1 4.45 4.45 0 0 0-3.1-1 9.34 9.34 0 0 0-4 .9 17.6 17.6 0 0 0-4 2.7l-4-4.8a24.27 24.27 0 0 1 4.3-3.1 14.91 14.91 0 0 1 3.7-1.4 20.65 20.65 0 0 1 4.5-.5 13.36 13.36 0 0 1 5.8 1.2 8.67 8.67 0 0 1 3.9 3.4 9.15 9.15 0 0 1 1.4 5 12.16 12.16 0 0 1-.9 4.6 20.28 20.28 0 0 1-2.6 4.4 70.15 70.15 0 0 1-6.3 6.4l-4.5 4.3v.3h15.3v6z"/><path class="cls-15" d="M438.3 421a4.08 4.08 0 0 1-1.1 3 4.29 4.29 0 0 1-3.1 1h-2.2v-7.8h2.4a4 4 0 0 1 2.9 1 3.76 3.76 0 0 1 1.1 2.8zm-1.3.1c0-1.9-.9-2.8-2.6-2.8h-1.1v5.7h.9a2.61 2.61 0 0 0 2.8-2.9zm8.1.9a3.33 3.33 0 0 1-.7 2.3 2.86 2.86 0 0 1-2.1.8 2.6 2.6 0 0 1-1.5-.4 2.17 2.17 0 0 1-1-1.1 4.15 4.15 0 0 1-.3-1.6 2.92 2.92 0 0 1 .7-2.2 2.86 2.86 0 0 1 2.1-.8 2.63 2.63 0 0 1 2 .8 2.86 2.86 0 0 1 .8 2.2zm-4.3 0c0 1.4.5 2 1.5 2s1.5-.7 1.5-2-.5-2-1.5-2a1.29 1.29 0 0 0-1.1.5 2.41 2.41 0 0 0-.4 1.5zm8.1 3.1a2.48 2.48 0 0 1-2-.8 3.07 3.07 0 0 1-.7-2.2 3.17 3.17 0 0 1 .7-2.3 2.86 2.86 0 0 1 2.1-.8 4.67 4.67 0 0 1 1.7.3l-.4 1a3.91 3.91 0 0 0-1.3-.3c-1 0-1.5.7-1.5 2a2.08 2.08 0 0 0 .4 1.5 1.43 1.43 0 0 0 1.1.5 2.93 2.93 0 0 0 1.6-.4v1.1c-.2.1-.5.2-.7.3a3.08 3.08 0 0 1-1 .1zm7.2-.1l-.2-.8h-.1a1.34 1.34 0 0 1-.7.6 2 2 0 0 1-1.1.2 2.35 2.35 0 0 1-1.6-.5 2.07 2.07 0 0 1-.5-1.6V419h1.3v3.6a1.33 1.33 0 0 0 .3 1 1.22 1.22 0 0 0 .9.3 1.66 1.66 0 0 0 1.2-.5 2.83 2.83 0 0 0 .4-1.6v-2.9h1.3v5.9h-1.2zm7.8 0h-1.3v-3.6a1.33 1.33 0 0 0-.3-1 1 1 0 0 0-.8-.3 1.43 1.43 0 0 0-1.1.5 3 3 0 0 0-.3 1.6v2.9h-1.3v-5.9h1l.2.8h.1a2.34 2.34 0 0 1 .7-.7 2.35 2.35 0 0 1 2.8.7h.1a2.34 2.34 0 0 1 .7-.7 2 2 0 0 1 1.1-.2 2.07 2.07 0 0 1 1.5.5 2.35 2.35 0 0 1 .5 1.6v3.9h-1.3v-3.6a1.33 1.33 0 0 0-.3-1 1 1 0 0 0-.8-.3 1.43 1.43 0 0 0-1.1.5c-.3.3-.3.8-.3 1.4v2.9zm8.1.1a3.29 3.29 0 0 1-2.2-.8 3.11 3.11 0 0 1-.8-2.2 3.33 3.33 0 0 1 .7-2.3 2.32 2.32 0 0 1 2-.8 2.49 2.49 0 0 1 1.9.7 2.58 2.58 0 0 1 .7 2v.7h-3.9a1.73 1.73 0 0 0 .5 1.3 1.66 1.66 0 0 0 1.2.5 3.4 3.4 0 0 0 1-.1c.3-.1.6-.2 1-.3v1l-.9.3zm-.2-5.2a1.28 1.28 0 0 0-1 .4 1.82 1.82 0 0 0-.4 1.1h2.7a1.25 1.25 0 0 0-.4-1.1 1.27 1.27 0 0 0-.9-.4zm9.1 5.1h-1.3v-3.6a1.33 1.33 0 0 0-.3-1 1.22 1.22 0 0 0-.9-.3 1.66 1.66 0 0 0-1.2.5 2.83 2.83 0 0 0-.4 1.6v2.9h-1.3v-5.9h1l.2.8h.1a1.85 1.85 0 0 1 .8-.7 2.15 2.15 0 0 1 1.1-.2c1.4 0 2.1.7 2.1 2.2v3.7zm4-.9a2.77 2.77 0 0 0 .9-.1v.9c-.1.1-.3.1-.5.2s-.4.1-.7.1c-1.2 0-1.8-.6-1.8-1.9V420h-.8v-.6l.9-.5.4-1.3h.8v1.3h1.7v1h-1.7v3.2a1.45 1.45 0 0 0 .2.7.6.6 0 0 0 .6.3zm9.5-6.9h1.3L493 425h-1.3l-2.7-7.8h1.3l1.6 4.9a4.65 4.65 0 0 1 .3.9 4.5 4.5 0 0 1 .2.8 2.92 2.92 0 0 1 .2-.9 3.09 3.09 0 0 0 .2-.8zm2.2.3a.68.68 0 1 1 .2.5.76.76 0 0 1-.2-.5zm1.3 7.5h-1.3v-5.9h1.3zm4.4.1a3.29 3.29 0 0 1-2.2-.8 3.11 3.11 0 0 1-.8-2.2 3.33 3.33 0 0 1 .7-2.3 2.32 2.32 0 0 1 2-.8 2.49 2.49 0 0 1 1.9.7 2.58 2.58 0 0 1 .7 2v.7h-3.9a1.73 1.73 0 0 0 .5 1.3 1.66 1.66 0 0 0 1.2.5 3.4 3.4 0 0 0 1-.1c.3-.1.6-.2 1-.3v1l-.9.3zm-.2-5.2a1.28 1.28 0 0 0-1 .4 1.82 1.82 0 0 0-.4 1.1h2.7a1.25 1.25 0 0 0-.4-1.1 1.27 1.27 0 0 0-.9-.4zm8.8 5.1l-.8-2.8a18.21 18.21 0 0 1-.5-2c-.2 1-.4 1.6-.5 2l-.8 2.7h-1.4l-1.7-5.9h1.3l.8 2.9c.2.7.3 1.3.4 1.8a2.92 2.92 0 0 1 .2-.9c.1-.3.1-.6.2-.8l.9-3.1h1.4l.9 3.1a4.54 4.54 0 0 1 .2.8 2.81 2.81 0 0 1 .1.8c.1-.4.2-1.1.4-1.8l.8-2.9h1.3l-1.7 5.9h-1.5zm8.1-1.7a1.49 1.49 0 0 1-.6 1.3 3 3 0 0 1-1.8.5 3.58 3.58 0 0 1-1.9-.4v-1.1a4.89 4.89 0 0 0 1.9.5c.8 0 1.2-.2 1.2-.7 0-.2 0-.3-.1-.4a1.38 1.38 0 0 0-.4-.3 5.9 5.9 0 0 1-.8-.4 4.29 4.29 0 0 1-1.4-.8 1.28 1.28 0 0 1-.4-1 1.43 1.43 0 0 1 .6-1.2 2.86 2.86 0 0 1 1.7-.4 4.48 4.48 0 0 1 2 .4l-.4.9a3.73 3.73 0 0 0-1.6-.4c-.7 0-1 .2-1 .6 0 .2.1.3.3.5a3.83 3.83 0 0 0 1.1.5c.5.2.8.4 1.1.5s.4.3.5.5a2.7 2.7 0 0 0 0 .9z"/><path class="cls-16" d="M330 110h107a2 2 0 0 1 2 2v33a2 2 0 0 1-2 2H330a2 2 0 0 1-2-2v-33a2 2 0 0 1 2-2z" id="Rounded_Rectangle_1" data-name="Rounded Rectangle 1"/><g class="cls-17"><path class="cls-18" d="M343 123h80v12h-80z"/></g><path class="cls-19" d="M123 110h185a2 2 0 0 1 2 2v33a2 2 0 0 1-2 2H123a2 2 0 0 1-2-2v-33a2 2 0 0 1 2-2z" id="Rounded_Rectangle_1_copy" data-name="Rounded Rectangle 1 copy"/><path class="cls-20" d="M137 123h80v12h-80z" id="Rectangle_6_copy" data-name="Rectangle 6 copy"/><path class="cls-20" d="M256 123h38v12h-38z" id="Rectangle_6_copy_2" data-name="Rectangle 6 copy 2"/><path class="cls-15" d="M177.9 38.1c0 3.5-1 6.2-2.9 8.1s-4.7 2.8-8.3 2.8h-5.9V27.6h6.6c3.3 0 5.9.9 7.8 2.8s2.7 4.4 2.7 7.7zm-2.7.1q0-4.2-2.1-6.3c-1.4-1.4-3.5-2.1-6.2-2.1h-3.6v17.1h3c3 0 5.2-.7 6.7-2.2s2.2-3.7 2.2-6.5zm20.9 2.8a8.78 8.78 0 0 1-2 6.1 6.81 6.81 0 0 1-5.5 2.2 7 7 0 0 1-3.8-1 6.69 6.69 0 0 1-2.6-2.9 10.17 10.17 0 0 1-.9-4.4 8.78 8.78 0 0 1 2-6.1 6.73 6.73 0 0 1 5.4-2.2 7 7 0 0 1 5.4 2.2 8.49 8.49 0 0 1 2 6.1zm-12.2 0a7.76 7.76 0 0 0 1.2 4.7 4.85 4.85 0 0 0 7.2 0 7.76 7.76 0 0 0 1.2-4.7 8 8 0 0 0-1.2-4.7 4.2 4.2 0 0 0-3.7-1.6 4.13 4.13 0 0 0-3.6 1.6 7.79 7.79 0 0 0-1.1 4.7zm22.9 8.3a7 7 0 0 1-5.4-2.1c-1.3-1.4-1.9-3.5-1.9-6.1s.6-4.8 1.9-6.2a7.14 7.14 0 0 1 5.5-2.2 17.85 17.85 0 0 1 2.3.2 5.36 5.36 0 0 1 1.8.6l-.7 2.1a7.76 7.76 0 0 0-1.8-.5 11.14 11.14 0 0 0-1.7-.2c-3.3 0-4.9 2.1-4.9 6.2a7.11 7.11 0 0 0 1.2 4.5 4.33 4.33 0 0 0 3.5 1.6 10.49 10.49 0 0 0 4.1-.9v2.2a8.4 8.4 0 0 1-3.9.8zM217 32.9v10.4a4 4 0 0 0 .9 2.9 3.79 3.79 0 0 0 2.8 1 4.67 4.67 0 0 0 3.7-1.4q1.2-1.35 1.2-4.5v-8.4h2.4V49h-2l-.4-2.2h-.1a4.63 4.63 0 0 1-2.1 1.8 7.31 7.31 0 0 1-3 .6 6.27 6.27 0 0 1-4.4-1.4q-1.5-1.35-1.5-4.5V32.9zM253.5 49V38.6a4.77 4.77 0 0 0-.8-2.9 2.92 2.92 0 0 0-2.5-1 4.24 4.24 0 0 0-3.4 1.3 5.79 5.79 0 0 0-1.1 4v9h-2.4V38.6a4.77 4.77 0 0 0-.8-2.9 3 3 0 0 0-2.6-1 4 4 0 0 0-3.3 1.4 7.41 7.41 0 0 0-1.1 4.5V49h-2.4V32.9h2l.4 2.2h.1a4.69 4.69 0 0 1 1.9-1.8 6.44 6.44 0 0 1 2.8-.7c2.5 0 4.2.9 4.9 2.7h.1a5.77 5.77 0 0 1 2.1-2 6.17 6.17 0 0 1 3.1-.7 5.64 5.64 0 0 1 4.1 1.4 6.21 6.21 0 0 1 1.4 4.5V49zm14.3.3a7.17 7.17 0 0 1-5.6-2.2 8.44 8.44 0 0 1-2.1-6 9.38 9.38 0 0 1 1.9-6.2 6.17 6.17 0 0 1 5.1-2.3 6.25 6.25 0 0 1 4.8 2 7.48 7.48 0 0 1 1.8 5.2v1.5h-11.1a6.17 6.17 0 0 0 1.4 4.3 4.9 4.9 0 0 0 3.8 1.5 13.38 13.38 0 0 0 5.1-1.1v2.2a16.79 16.79 0 0 1-2.4.8 10.06 10.06 0 0 1-2.7.3zm-.7-14.6A3.87 3.87 0 0 0 264 36a6.19 6.19 0 0 0-1.4 3.5h8.4a5.22 5.22 0 0 0-1-3.5 3.63 3.63 0 0 0-2.9-1.3zM288.8 49V38.6a4 4 0 0 0-.9-2.9 3.79 3.79 0 0 0-2.8-1 4.67 4.67 0 0 0-3.7 1.4q-1.2 1.35-1.2 4.5V49h-2.4V32.9h2l.4 2.2h.1a4.63 4.63 0 0 1 2.1-1.8 7.35 7.35 0 0 1 3-.7 6.45 6.45 0 0 1 4.4 1.4q1.5 1.35 1.5 4.5V49zm12.6-1.7a4.87 4.87 0 0 0 1.2-.1c.4-.1.7-.1 1-.2v1.9a10.38 10.38 0 0 1-1.2.3 7.08 7.08 0 0 1-1.4.1c-3.1 0-4.7-1.6-4.7-4.9v-9.6H294v-1.2l2.3-1 1-3.4h1.4v3.7h4.7v1.9h-4.7v9.4a2.92 2.92 0 0 0 .7 2.2 2.88 2.88 0 0 0 2 .9zm27 1.7l-2.7-6.8h-8.6l-2.6 6.8H312l8.5-21.5h2.1L331 49zm-3.4-9.1l-2.5-6.6a28.6 28.6 0 0 1-1-3.1 25.43 25.43 0 0 1-.9 3.1l-2.5 6.6zm15 9.4a7 7 0 0 1-5.4-2.1c-1.3-1.4-1.9-3.5-1.9-6.1s.6-4.8 1.9-6.2a7.14 7.14 0 0 1 5.5-2.2 17.85 17.85 0 0 1 2.3.2 5.36 5.36 0 0 1 1.8.6l-.7 2.1a7.76 7.76 0 0 0-1.8-.5 11.14 11.14 0 0 0-1.7-.2c-3.3 0-4.9 2.1-4.9 6.2a7.11 7.11 0 0 0 1.2 4.5 4.33 4.33 0 0 0 3.5 1.6 10.49 10.49 0 0 0 4.1-.9v2.2a8.4 8.4 0 0 1-3.9.8zm13.1-2a4.87 4.87 0 0 0 1.2-.1c.4-.1.7-.1 1-.2v1.9a10.38 10.38 0 0 1-1.2.3 7.08 7.08 0 0 1-1.4.1c-3.1 0-4.7-1.6-4.7-4.9v-9.6h-2.3v-1.2l2.3-1 1-3.4h1.4v3.7h4.7v1.9h-4.7v9.4a2.92 2.92 0 0 0 .7 2.2 2.88 2.88 0 0 0 2 .9zm5.2-18.7c0-.6.1-1 .4-1.2a1.45 1.45 0 0 1 2 0 1.59 1.59 0 0 1 .4 1.2 1.46 1.46 0 0 1-.4 1.2 1.78 1.78 0 0 1-1 .4 1.16 1.16 0 0 1-1-.4 2.14 2.14 0 0 1-.4-1.2zm2.6 20.4h-2.4V32.9h2.4zm8.7 0l-6.1-16.1h2.6l3.5 9.5c.8 2.2 1.2 3.7 1.4 4.3h.1a23.35 23.35 0 0 1 1-3.2c.6-1.6 1.9-5.2 3.8-10.6h2.6L372.4 49zm11.3-20.4c0-.6.1-1 .4-1.2a1.45 1.45 0 0 1 2 0 1.59 1.59 0 0 1 .4 1.2 1.46 1.46 0 0 1-.4 1.2 1.78 1.78 0 0 1-1 .4 1.16 1.16 0 0 1-1-.4 2.14 2.14 0 0 1-.4-1.2zm2.6 20.4h-2.4V32.9h2.4zm10.4-1.7a4.87 4.87 0 0 0 1.2-.1c.4-.1.7-.1 1-.2v1.9a10.38 10.38 0 0 1-1.2.3 7.08 7.08 0 0 1-1.4.1c-3.1 0-4.7-1.6-4.7-4.9v-9.6h-2.3v-1.2l2.3-1 1-3.4h1.4v3.7h4.7v1.9h-4.7v9.4a2.92 2.92 0 0 0 .7 2.2 2.88 2.88 0 0 0 2 .9zm2.8-14.4h2.6l3.5 9.2a22.7 22.7 0 0 1 1.4 4.5h.1c.1-.5.4-1.3.8-2.6s1.7-4.9 4-11.1h2.6l-6.9 18.3a8.88 8.88 0 0 1-2.4 3.8 4.81 4.81 0 0 1-3.4 1.1 16.35 16.35 0 0 1-2.2-.2V54a9 9 0 0 0 1.8.2c1.7 0 2.9-.9 3.6-2.8l.9-2.3z"/><path class="cls-14" d="M28 79h504v2H28z"/><path class="cls-4" d="M0 931h560v69H0z" id="White"/><circle class="cls-21" cx="504" cy="966" r="23" id="Avatar"/><path class="cls-22" d="M111 931h1v69h-1z"/><path class="cls-23" d="M112 931h1v69h-1z" id="Rectangle_8_copy" data-name="Rectangle 8 copy"/><path class="cls-22" d="M223 931h1v69h-1z"/><path class="cls-23" d="M224 931h1v69h-1z" id="Rectangle_8_copy-2" data-name="Rectangle 8 copy-2"/><path class="cls-22" d="M335 931h1v69h-1z"/><path class="cls-23" d="M336 931h1v69h-1z" id="Rectangle_8_copy-3" data-name="Rectangle 8 copy-3"/><path class="cls-22" d="M447 931h1v69h-1z"/><path class="cls-23" d="M448 931h1v69h-1z" id="Rectangle_8_copy-4" data-name="Rectangle 8 copy-4"/><path class="cls-24" d="M182.1 960.3v20.5a1.58 1.58 0 0 1-1.6 1.6h-16.2a1.58 1.58 0 0 1-1.6-1.6V976h-9.2a1.58 1.58 0 0 1-1.6-1.6V963a4.89 4.89 0 0 1 1.1-2.8l6.9-6.9a4.64 4.64 0 0 1 2.8-1.1h7a1.58 1.58 0 0 1 1.6 1.6v5.5a4.73 4.73 0 0 1 2.2-.7h7a1.73 1.73 0 0 1 1.6 1.7zm-12.9 1.1v-7h-6.5v7a1.58 1.58 0 0 1-1.6 1.6h-7v10.8h8.6v-4.3a4.89 4.89 0 0 1 1.1-2.8zm-13.7-.6h5.1v-5.1zm24.5 0h-6.5v7a1.58 1.58 0 0 1-1.6 1.6h-7v10.8H180zm-13.7 6.5h5.1v-5.1zm130 10.3a2.69 2.69 0 0 1-2.7 2.7h-27a2.69 2.69 0 0 1-2.7-2.7v-20.5a2.69 2.69 0 0 1 2.7-2.7h27a2.69 2.69 0 0 1 2.7 2.7zm-29.7-21.1a.54.54 0 0 0-.5.5v20.5a.54.54 0 0 0 .5.5h27a.54.54 0 0 0 .5-.5V957a.54.54 0 0 0-.5-.5zm4.8 8.7a3.22 3.22 0 0 1-3.2-3.2 3.2 3.2 0 1 1 6.4 0 3.22 3.22 0 0 1-3.2 3.2zM292 976h-23.8v-3.2l5.4-5.4 2.7 2.7 8.6-8.6 7 7v7.5zm117.5 4.3h-34.6v-25.9h2.2v23.8h32.4zm-23.8-4.3h-4.3v-8.6h4.3zm6.5 0h-4.3v-17.3h4.3zm6.5 0h-4.3v-13h4.3zm6.4 0h-4.3v-19.5h4.3z"/><path class="cls-3" d="M0 929h560v2H0z"/><path class="cls-25" d="M68 959.81a2.73 2.73 0 0 1-1.9-.81l-5.1-5a2.74 2.74 0 0 1 3.88-3.86l5.12 5.03a2.74 2.74 0 0 1 0 3.83 2.85 2.85 0 0 1-2 .81zm-17.16 20.47a2.73 2.73 0 0 1-1.93-.79l-8.36-8.36a2.73 2.73 0 0 1 3.86-3.86l8.36 8.33a2.74 2.74 0 0 1 0 3.86 2.69 2.69 0 0 1-1.93.82zm17.16-7.9a2.73 2.73 0 0 1-1.93-.79L48.48 954a2.74 2.74 0 0 1 3.86-3.88L70 967.69a2.74 2.74 0 0 1 0 3.86 2.58 2.58 0 0 1-2 .83zm0 12.55a2.73 2.73 0 0 1-1.93-.79L35.91 954a2.74 2.74 0 0 1 3.88-3.86L70 980.26a2.74 2.74 0 0 1 0 3.86 2.65 2.65 0 0 1-2 .81z"/></svg>