<svg id="Tablet" xmlns="http://www.w3.org/2000/svg" viewBox="0 0 750 1000"><defs><style>.cls-1{fill:#f5f5f5}.cls-2{fill:#989898}.cls-3{fill:#e1e1e1}.cls-11,.cls-15,.cls-4{fill:#fff}.cls-4{stroke:#e1e1e1}.cls-11,.cls-4{stroke-width:2px}.cls-5{fill:#42b0d8}.cls-6{fill:#b9b9b9}.cls-7{fill:#e2e2e2}.cls-8{fill:#2a7692}.cls-9{fill:#33ab40}.cls-10{fill:#1f7328}.cls-11{stroke:#ebebeb}.cls-12{fill:#bdbdbd}.cls-13{fill:#434343}.cls-14{fill:none;stroke:#42b0d8;stroke-width:7px}.cls-16{fill:#585858}.cls-17{fill:#ced0d0}.cls-18{fill:#ed4f23}.cls-19{fill:#f09177}.cls-20{fill:#353535}.cls-21{fill:#424242}.cls-22{fill:#c6c6c6}.cls-23{opacity:0}.cls-24{fill:#d4d4d4}.cls-25{fill:#eee}.cls-26{fill:#ed4c06}</style></defs><title>Artboard 1</title><path class="cls-1" d="M0 516h750v484H0z"/><path class="cls-2" d="M349.9 617.4v4.6H348v-11.4h3.2a5.71 5.71 0 0 1 3.3.8 3.1 3.1 0 0 1 1.1 2.5 3.05 3.05 0 0 1-2.2 3l3.2 5.1h-2.1l-2.7-4.6h-1.9zm0-1.5h1.3a3.09 3.09 0 0 0 1.9-.5 1.93 1.93 0 0 0 0-2.8 3.36 3.36 0 0 0-1.9-.4H350v3.7zm11.9 6.3a4.38 4.38 0 0 1-3.2-1.2 4.32 4.32 0 0 1-1.1-3.2 4.86 4.86 0 0 1 1.1-3.3 3.7 3.7 0 0 1 2.9-1.2 3.62 3.62 0 0 1 2.7 1 3.8 3.8 0 0 1 1 2.9v1h-5.8a2.74 2.74 0 0 0 .7 1.9 2.14 2.14 0 0 0 1.8.7 6.15 6.15 0 0 0 1.4-.1 12.12 12.12 0 0 0 1.4-.5v1.5a5.78 5.78 0 0 1-1.4.5 7.44 7.44 0 0 0-1.5 0zm-.3-7.6a1.68 1.68 0 0 0-1.4.6 2.58 2.58 0 0 0-.6 1.6h3.9a2.35 2.35 0 0 0-.5-1.6 1.82 1.82 0 0 0-1.4-.6zm9.2 7.6a4.08 4.08 0 0 1-3-1.1 4.66 4.66 0 0 1-1-3.3 5 5 0 0 1 1.1-3.4 3.85 3.85 0 0 1 3.1-1.2 7 7 0 0 1 2.5.5l-.6 1.5a5.94 5.94 0 0 0-1.9-.5c-1.5 0-2.2 1-2.2 3a3.4 3.4 0 0 0 .6 2.2 1.86 1.86 0 0 0 1.6.7 4.65 4.65 0 0 0 2.3-.6v1.6a3.58 3.58 0 0 1-1.1.4 5.22 5.22 0 0 1-1.4.2zm8.3 0a4.38 4.38 0 0 1-3.2-1.2 4.32 4.32 0 0 1-1.1-3.2 4.86 4.86 0 0 1 1.1-3.3 3.7 3.7 0 0 1 2.9-1.2 3.62 3.62 0 0 1 2.7 1 3.8 3.8 0 0 1 1 2.9v1h-5.8a2.74 2.74 0 0 0 .7 1.9 2.14 2.14 0 0 0 1.8.7 6.15 6.15 0 0 0 1.4-.1 12.12 12.12 0 0 0 1.4-.5v1.5a5.78 5.78 0 0 1-1.4.5 7.49 7.49 0 0 0-1.5 0zm-.4-7.6a1.68 1.68 0 0 0-1.4.6 2.58 2.58 0 0 0-.6 1.6h3.9a2.35 2.35 0 0 0-.5-1.6 1.68 1.68 0 0 0-1.4-.6zM392 622h-1.8v-5.3a2.08 2.08 0 0 0-.4-1.5 1.73 1.73 0 0 0-1.3-.5 1.94 1.94 0 0 0-1.7.7 3.57 3.57 0 0 0-.5 2.3v4.3h-1.8v-8.6h1.4l.3 1.1h.1a3.57 3.57 0 0 1 1.1-1 4.15 4.15 0 0 1 1.6-.3c2.1 0 3.1 1.1 3.1 3.2v5.6zm5.8-1.3a5.85 5.85 0 0 0 1.3-.2v1.4a1.88 1.88 0 0 1-.8.2c-.3 0-.7.1-1 .1-1.7 0-2.6-.9-2.6-2.8v-4.7h-1.2v-.8l1.3-.7.6-1.8h1.1v1.9h2.5v1.4h-2.5v4.6a1.49 1.49 0 0 0 .3 1 1.28 1.28 0 0 0 1 .4z"/><path class="cls-3" d="M54 613.4h277v2.6H54z"/><path id="Rectangle_13_copy" data-name="Rectangle 13 copy" class="cls-3" d="M419 615h280v2H419z"/><path id="Rounded_Rectangle_4" data-name="Rounded Rectangle 4" class="cls-4" d="M55 645h640a4 4 0 0 1 4 4v130a4 4 0 0 1-4 4H55a4 4 0 0 1-4-4V649a4 4 0 0 1 4-4z"/><path id="Rounded_Rectangle_5" data-name="Rounded Rectangle 5" class="cls-5" d="M65 659h68.3a2 2 0 0 1 2 2v68a2 2 0 0 1-2 2H65a2 2 0 0 1-2-2v-68a2 2 0 0 1 2-2z"/><path class="cls-6" d="M159.5 663H477v32H159.5z"/><path id="Rectangle_11_copy_6" data-name="Rectangle 11 copy 6" class="cls-7" d="M159 742h238v21H159z"/><path id="Rectangle_11_copy_7" data-name="Rectangle 11 copy 7" class="cls-7" d="M159 708h272v21H159z"/><path class="cls-7" d="M658.5 688.8c-1.2 0-2.3-.1-3.5-.2a26.53 26.53 0 0 1-11 5.8 25.57 25.57 0 0 1-2.7.5 1.07 1.07 0 0 1-1.1-.9c-.1-.6.3-1 .6-1.4 1.5-1.7 3.2-3.1 4.4-7.1-4.9-2.8-8.1-7.1-8.1-12 0-8.5 9.6-15.3 21.5-15.3S680 665 680 673.5s-9.6 15.3-21.5 15.3z"/><path class="cls-8" d="M113.4 695.9a2 2 0 0 1-2 2h-8.7v8.7a2 2 0 0 1-2 2h-4a2 2 0 0 1-2-2v-8.7H86a2 2 0 0 1-2-2v-4a2 2 0 0 1 2-2h8.7v-8.7a2 2 0 0 1 2-2h4a2 2 0 0 1 2 2v8.7h8.7a2 2 0 0 1 2 2z"/><path id="Rounded_Rectangle_4-2" data-name="Rounded Rectangle 4-2" class="cls-4" d="M55 805h640a4 4 0 0 1 4 4v165a4 4 0 0 1-4 4H55a4 4 0 0 1-4-4V809a4 4 0 0 1 4-4z"/><path id="Rounded_Rectangle_5-2" data-name="Rounded Rectangle 5-2" class="cls-9" d="M65 819h68.3a2 2 0 0 1 2 2v68a2 2 0 0 1-2 2H65a2 2 0 0 1-2-2v-68a2 2 0 0 1 2-2z"/><path class="cls-6" d="M159 823h376v32H159z"/><path id="Rectangle_11_copy" data-name="Rectangle 11 copy" class="cls-7" d="M159 868h406v21H159z"/><path id="Rectangle_11_copy_4" data-name="Rectangle 11 copy 4" class="cls-7" d="M159 936h256v21H159z"/><path id="Rectangle_11_copy_2" data-name="Rectangle 11 copy 2" class="cls-7" d="M159 902h203v21H159z"/><path class="cls-7" d="M658.5 848.8c-1.2 0-2.3-.1-3.5-.2a26.53 26.53 0 0 1-11 5.8 25.57 25.57 0 0 1-2.7.5 1.07 1.07 0 0 1-1.1-.9c-.1-.6.3-1 .6-1.4 1.5-1.7 3.2-3.1 4.4-7.1-4.9-2.8-8.1-7.1-8.1-12 0-8.5 9.6-15.3 21.5-15.3S680 825 680 833.5s-9.6 15.3-21.5 15.3z"/><path class="cls-10" d="M114.3 849.8l-15.1 15.1-2.8 2.8a1.93 1.93 0 0 1-2.8 0l-2.8-2.8-7.6-7.6a1.93 1.93 0 0 1 0-2.8l2.8-2.8a1.93 1.93 0 0 1 2.8 0l6.1 6.2 13.7-13.7a1.93 1.93 0 0 1 2.8 0l2.8 2.8a2 2 0 0 1 .6 1.4 1.87 1.87 0 0 1-.5 1.4z"/><path id="Background" class="cls-11" d="M55 537h640a4 4 0 0 1 4 4v49a4 4 0 0 1-4 4H55a4 4 0 0 1-4-4v-49a4 4 0 0 1 4-4z"/><path class="cls-5" d="M53 539h7v53h-7z"/><path id="text" class="cls-5" d="M135 554h235v24H135z"/><path class="cls-5" d="M109.2 565.5a13 13 0 1 1-13-12.9 13 13 0 0 1 13 12.9zm-8.7-3.9c.1 0 .2-.3.2-.4a1.38 1.38 0 0 1 .4-.3 2.92 2.92 0 0 1 .9-.2.8.8 0 0 1 .9.2c-.1-.1.4-.4.4-.4.2-.1.4-.1.5-.2v-.4c-.3 0-.4-.2-.4-.5a.1.1 0 0 1-.1.1c0-.3-.3-.1-.4-.1-.4-.1-.3-.4-.5-.7s-.3-.2-.3-.4-.1-.3-.3-.3-.3.4-.3.3c-.2-.1-.2 0-.3.1s-.2 0-.3.1c.3-.1-.1-.3-.3-.2.2-.1.1-.3 0-.4h.1c0-.2-.5-.3-.7-.4s-1-.3-1.1-.2.1.5.1.6-.2.3-.2.4c0 .3.5.2.4.6-.1.2-.4.3-.5.5a.48.48 0 0 0 .2.6c.1.1-.2.3-.3.3-.3.1-.5-.3-.6-.5s-.1-.4-.3-.5-.4-.1-.5 0c-.1-.3-.5-.4-.7-.4a3.08 3.08 0 0 0-1-.1c.1 0 0-.5-.3-.5a1.09 1.09 0 0 0 .1-.5.76.76 0 0 1 .2-.4c0-.1.4-.5.3-.5a1.08 1.08 0 0 0 .8-.2c.2-.2.2-.4.4-.6s.5.1.7.1.3-.4.1-.5c.2 0 0-.4-.1-.4s-.7.1-.4.2c-.1 0-.5.8-.7.4-.1-.1-.1-.4-.3-.5s-.2.2-.3.3c.1-.2-.5-.4-.6-.4.3-.2.1-.4-.1-.5s-.6-.2-.7 0c-.3.4.3.4.5.5s.3.2.1.2-.4.1-.4.2.1.3 0 .5c-.2-.2-.2-.4-.3-.6.2.2-.6.1-.6.1-.3 0-.7.2-.8-.1 0-.1 0-.5.1-.4a1.38 1.38 0 0 1-.4-.3 7.74 7.74 0 0 0-1.6.7h.2c.1-.1.3-.1.4-.2s.5-.3.7-.1l.1-.1c.1.1.2.3.3.4-.1-.1-.4 0-.5 0a.76.76 0 0 0-.4.2.37.37 0 0 1 .1.3 1 1 0 0 0-.7-.4H91a11.83 11.83 0 0 0-4 3.7c.1.1.1.1.2.1s0 .5.3.3a.37.37 0 0 1 .1.3s.7.4.7.5.3.2.4.4-.1.3-.2.3-.3-.3-.3-.2 0 .5.2.5c-.3 0-.2 1.1-.2 1.3-.1.2.1 1 .5.9-.2 0 .4.8.5.9s.5.3.6.5.2.6.4.8c-.1.2.4.4.3.7h-.1c.1.2.4.2.5.5.1.1 0 .5.2.4a1.78 1.78 0 0 0-.4-1c-.1-.2-.2-.3-.3-.5s-.1-.3-.2-.5a1.47 1.47 0 0 1 .4.2c-.1.3.5.9.7 1.1s.4.6.2.6c.2 0 .5.3.6.5s.1.6.2.8.6.5.8.6a4.35 4.35 0 0 0 .7.4c.4.1.4 0 .7 0s.5.4.8.6.7.3.9.2c-.1 0 .4.7.4.8.2.2.4.3.6.5.1 0 .1-.1.1-.2-.1.2.3.5.4.5s.2-.4.2-.5c-.3.2-.6 0-.8-.3 0-.1-.3-.6-.1-.6s.1-.3.1-.5-.3-.4-.4-.6a.28.28 0 0 1-.5 0c0 .1-.1.1-.1.2h-.3c0-.2.1-.5.1-.7s.6-.9-.1-.9c-.3 0-.4.1-.4.3s-.1.4-.3.5a1.06 1.06 0 0 1-.8-.1 1.61 1.61 0 0 1-.5-1.1c0-.5.2-.9 0-1.3.1-.1.2-.3.3-.3s.2.1.3-.2a.1.1 0 0 1-.1-.1c.3.1.7-.2.9 0a.3.3 0 0 0 .4 0c0-.1-.1-.3-.1-.4.1.3.2.3.5.2.1.1.4.1.6.2s.2.3.4.1c.1.2.2.2.2.4s.2.7.3.7c.4.2.3-.4.2-.6v-.6c-.5-.1-.3-.5 0-.8a3.29 3.29 0 0 0 .6-.3.71.71 0 0 0 .3-.6.22.22 0 0 0 .2-.2c-.1 0-.3-.2-.3-.2a.19.19 0 0 0 0-.3c.2-.1.1-.3.3-.4.2.3.6 0 .4-.2.2-.2.6-.1.7-.3.3.1.1-.3.2-.4s.3-.2.5-.2c0 0 .4-.2.3-.3.3 0 .9-.3.4-.5.1-.2-.2-.2-.3-.3h.4c.2-.2.1-.2-.1-.3s-.5.1-.7.2c.1.5 0 .7-.1.7zm3.5 11.3a.6.6 0 0 0-.4-.1c-.1-.1-.2-.1-.4-.1 0-.3-.3-.5-.6-.6s-.4-.4-.7-.3c0 0-.4.1-.3.2a1.28 1.28 0 0 0-.6-.4c-.3-.1-.5-.4-.7-.1a.75.75 0 0 0-.1.5c-.2-.2.2-.4 0-.6s-.6.2-.7.3-.2.1-.3.2-.1.3-.2.4c-.1-.1-.3-.1-.4-.2.1.4.1.8.2 1.2a.83.83 0 0 1-.2.8c-.2.2-.5.4-.5.7s0 .4.2.4c0 .3-.3.4-.3.7v.3a12.17 12.17 0 0 0 6-3.3z"/><path class="cls-12" d="M670.4 572.8a.67.67 0 0 1-1 0l-8.6-8.6a.78.78 0 0 1 0-1.1l1.9-1.9a.67.67 0 0 1 1 0l6.1 6.1 6.1-6.1a.67.67 0 0 1 1 0l1.9 1.9a.78.78 0 0 1 0 1.1z"/><path class="cls-13" d="M0 65h750v451H0z"/><path class="cls-14" d="M286 189.4c1.6 0 3.2 0 4.8.1C335 192 370 229 370 274.2c0 46.8-37.6 84.8-84 84.8s-84-38-84-84.8a85 85 0 0 1 23.4-58.7 83.21 83.21 0 0 1 60.6-26.1z"/><path id="Shape_2_copy" data-name="Shape 2 copy" class="cls-13" d="M233.6 224.4c-3.5-4.3-8.7-10.4-13.1-16.4 10.3-24.8 44.4-36.2 69.2-26.7.3 12-.3 13.7-.3 22.2-23.7-4.3-43.2 4-55.8 20.9z"/><path class="cls-9" d="M232.5 214a55.54 55.54 0 0 1-4.9-5.8c13.4-13.4 37.2-22.9 55.7-22 .4 5.1.3 3.5.5 7.5-18.9.9-36.6 8.4-51.3 20.3z"/><path class="cls-15" d="M253.6 238.5c3.7 0 6.6.8 8.6 2.3a7.32 7.32 0 0 1 3.1 6.4 8.14 8.14 0 0 1-1.5 4.9 12.67 12.67 0 0 1-4.6 3.7 17.64 17.64 0 0 1 5.5 4.5 7.91 7.91 0 0 1 1.6 4.8 8.45 8.45 0 0 1-3.4 7.3c-2.3 1.7-5.4 2.6-9.5 2.6s-7.3-.8-9.5-2.5a8.64 8.64 0 0 1-3.3-7.3 9.18 9.18 0 0 1 1.5-5.3 12.59 12.59 0 0 1 4.9-3.9 13.3 13.3 0 0 1-4.1-4.1 8.88 8.88 0 0 1-1.3-4.8 7.26 7.26 0 0 1 3.1-6.3 15.87 15.87 0 0 1 8.9-2.3zm-4.2 26.3a3 3 0 0 0 1.1 2.4 4.37 4.37 0 0 0 2.9.9c2.8 0 4.2-1 4.2-3.1a3.52 3.52 0 0 0-.9-2.3 12.5 12.5 0 0 0-3.3-2.6 11.85 11.85 0 0 0-3.1 2.3 3.3 3.3 0 0 0-.9 2.4zm4.2-19.4a3.14 3.14 0 0 0-2.1.7 2.24 2.24 0 0 0-.8 1.9c0 1.4.9 2.6 2.8 3.7a10.12 10.12 0 0 0 2.3-1.8 3.08 3.08 0 0 0 .6-1.9 2.56 2.56 0 0 0-.8-1.9 3.46 3.46 0 0 0-2-.7zm30.3 5.9a11.52 11.52 0 0 1 5.5 1.4 9.78 9.78 0 0 1 3.8 4 12.66 12.66 0 0 1 1.4 6c0 4-1.2 7-3.5 9.1s-5.9 3.2-10.7 3.2a22.29 22.29 0 0 1-10-1.9v-7.9a28.75 28.75 0 0 0 4.7 1.6 21.47 21.47 0 0 0 4.5.6 6.89 6.89 0 0 0 4.1-1.1 4.22 4.22 0 0 0 1.4-3.3 4 4 0 0 0-1.4-3.2c-1-.8-2.4-1.1-4.4-1.1a17.2 17.2 0 0 0-4.8.8l-3.5-1.7 1.3-18.7h20v8h-12l-.4 4.7a22 22 0 0 1 2.7-.4 5.7 5.7 0 0 1 1.3-.1zm31.9-1.7c0 3.6-.8 6.3-2.4 8.3s-3.8 2.9-6.8 2.9a7.8 7.8 0 0 1-6.5-3c-1.6-2-2.4-4.7-2.4-8.2s.8-6.3 2.4-8.2a8.2 8.2 0 0 1 6.6-2.9 8.32 8.32 0 0 1 6.7 3c1.7 2 2.4 4.7 2.4 8.1zm-10.9.1a12.09 12.09 0 0 0 .5 4c.3.8.8 1.2 1.4 1.2s1.1-.4 1.4-1.2a13.51 13.51 0 0 0 .4-4.1 12.77 12.77 0 0 0-.4-4c-.3-.8-.7-1.2-1.4-1.2s-1.1.4-1.4 1.3a12.52 12.52 0 0 0-.5 4zm28.4-10.7l-19.5 35.5h-7.1l19.5-35.5zm9.2 24.7c0 3.5-.8 6.3-2.4 8.2a8.34 8.34 0 0 1-6.8 2.9 7.8 7.8 0 0 1-6.5-3 12.61 12.61 0 0 1-2.4-8.1c0-3.6.8-6.3 2.4-8.2a8.2 8.2 0 0 1 6.6-2.9 8.32 8.32 0 0 1 6.7 3 12.61 12.61 0 0 1 2.4 8.1zm-10.9.1a12.09 12.09 0 0 0 .5 4c.3.8.8 1.2 1.4 1.2s1.2-.5 1.4-1.4a18.25 18.25 0 0 0 0-7.6c-.3-.9-.7-1.4-1.4-1.4s-1.1.4-1.4 1.3a11.82 11.82 0 0 0-.5 3.9zm-94.9 25.4a3.81 3.81 0 0 0-3.1 1.4 6 6 0 0 0-1.1 3.9 6.36 6.36 0 0 0 1.1 4 3.82 3.82 0 0 0 3.2 1.3 8.81 8.81 0 0 0 1.7-.2 16.69 16.69 0 0 0 1.8-.5v2a11.22 11.22 0 0 1-3.8.6 5.91 5.91 0 0 1-4.8-1.9 8.12 8.12 0 0 1-1.7-5.4 9.35 9.35 0 0 1 .8-3.9 5.82 5.82 0 0 1 2.3-2.6 6.87 6.87 0 0 1 3.6-.9 9 9 0 0 1 4 .9l-.8 1.9-1.5-.6a9.63 9.63 0 0 1-1.7 0zm8.6 12.5H243v-15.2h2.3zm12.8-5.5a5.78 5.78 0 0 1-1.3 4.1 4.68 4.68 0 0 1-3.7 1.5 5 5 0 0 1-2.7-.7 4.38 4.38 0 0 1-1.8-2 7 7 0 0 1-.6-3 5.78 5.78 0 0 1 1.3-4.1 4.76 4.76 0 0 1 3.8-1.5 4.82 4.82 0 0 1 3.7 1.5 7.22 7.22 0 0 1 1.3 4.2zm-7.8 0c0 2.5.9 3.7 2.7 3.7s2.7-1.2 2.7-3.7-.9-3.7-2.7-3.7a2.28 2.28 0 0 0-2.1 1 5.15 5.15 0 0 0-.6 2.7zm17.6 2.4a2.78 2.78 0 0 1-1.1 2.4 5.39 5.39 0 0 1-3.3.8 6.62 6.62 0 0 1-3.4-.7v-2a8.25 8.25 0 0 0 3.5.9c1.4 0 2.1-.4 2.1-1.3a1.45 1.45 0 0 0-.2-.7 2.76 2.76 0 0 0-.8-.6c-.4-.2-.8-.4-1.5-.7a8.73 8.73 0 0 1-2.5-1.4 2.94 2.94 0 0 1-.7-1.9 2.79 2.79 0 0 1 1.1-2.2 5.1 5.1 0 0 1 3-.8 8.63 8.63 0 0 1 3.6.8l-.7 1.7a7.52 7.52 0 0 0-2.9-.7c-1.2 0-1.8.3-1.8 1a1.38 1.38 0 0 0 .5.9 11.73 11.73 0 0 0 2 1 11.57 11.57 0 0 1 1.9.9 2.84 2.84 0 0 1 .9 1 5 5 0 0 1 .3 1.6zm7.1 3.3a5 5 0 0 1-3.9-1.5 5.81 5.81 0 0 1-1.4-4.1 6 6 0 0 1 1.3-4.2 4.61 4.61 0 0 1 3.6-1.5 4.52 4.52 0 0 1 3.4 1.3 5.22 5.22 0 0 1 1.2 3.6v1.2H272a3.46 3.46 0 0 0 .8 2.4 2.73 2.73 0 0 0 2.2.8 11 11 0 0 0 1.8-.2 7.59 7.59 0 0 0 1.8-.6v1.9a5.78 5.78 0 0 1-1.7.6 9.47 9.47 0 0 1-1.9.3zm-.4-9.5a2.06 2.06 0 0 0-1.7.7 3.67 3.67 0 0 0-.8 2h4.9a2.81 2.81 0 0 0-.6-2 2.41 2.41 0 0 0-1.8-.7zm14.9 3.6v5.7h-2.3v-14.3h4a6.71 6.71 0 0 1 4.1 1 3.62 3.62 0 0 1 1.3 3.1c0 1.8-.9 3-2.8 3.8l4 6.3h-2.6l-3.4-5.7h-2.3zm0-2h1.6a3.34 3.34 0 0 0 2.3-.6 2.48 2.48 0 0 0 .7-1.8 1.88 1.88 0 0 0-.8-1.7 3.91 3.91 0 0 0-2.4-.5h-1.5v4.6zm16.8 7.7l-.5-1.5h-.1a3.2 3.2 0 0 1-1.6 1.3 5.44 5.44 0 0 1-2 .4 3.33 3.33 0 0 1-2.5-.9 3.24 3.24 0 0 1-.9-2.4 2.79 2.79 0 0 1 1.2-2.5 6.31 6.31 0 0 1 3.7-.9l1.9-.1v-.6a1.77 1.77 0 0 0-2-2 8.75 8.75 0 0 0-1.6.2 9.38 9.38 0 0 0-1.5.6l-.7-1.6a10.66 10.66 0 0 1 1.9-.7 6.8 6.8 0 0 1 2-.2 4.59 4.59 0 0 1 3.1.9 3.43 3.43 0 0 1 1 2.8v7.3h-1.4zm-3.4-1.6a2.72 2.72 0 0 0 2-.7 2.63 2.63 0 0 0 .8-2v-.9l-1.4.1a4.11 4.11 0 0 0-2.3.5 1.81 1.81 0 0 0-.7 1.5 1.25 1.25 0 0 0 .4 1.1 1.46 1.46 0 0 0 1.2.4zm12.2-.1a5.08 5.08 0 0 0 1.7-.3v1.7c-.3.1-.6.2-1 .3a4.87 4.87 0 0 1-1.2.1c-2.2 0-3.2-1.1-3.2-3.4v-5.8h-1.5v-1l1.6-.8.8-2.3h1.4v2.4h3.1v1.7h-3.1v5.8c0 .6.1 1 .4 1.2a1.16 1.16 0 0 0 1 .4zm8.5 1.9a5 5 0 0 1-3.9-1.5 5.81 5.81 0 0 1-1.4-4.1 6 6 0 0 1 1.3-4.2 4.61 4.61 0 0 1 3.6-1.5 4.52 4.52 0 0 1 3.4 1.3 5.22 5.22 0 0 1 1.2 3.6v1.2h-7.1a3.46 3.46 0 0 0 .8 2.4 2.73 2.73 0 0 0 2.2.8 11 11 0 0 0 1.8-.2 7.59 7.59 0 0 0 1.8-.6v1.9a5.78 5.78 0 0 1-1.7.6 12 12 0 0 1-2 .3zm-.4-9.5a2.06 2.06 0 0 0-1.7.7 3.67 3.67 0 0 0-.8 2h4.9a2.81 2.81 0 0 0-.6-2 2.67 2.67 0 0 0-1.8-.7z"/><path class="cls-16" d="M420.8 210.5H546v28.6H420.8z"/><path id="Rectangle_4_copy" data-name="Rectangle 4 copy" class="cls-5" d="M420.8 257.7H546v28.7H420.8z"/><path id="Rectangle_4_copy_2" data-name="Rectangle 4 copy 2" class="cls-9" d="M420.8 305H546v28.6H420.8z"/><path class="cls-15" d="M113.3 433.1a9 9 0 0 1-3.2 7.2 15.93 15.93 0 0 1-9.1 3.2v5.8h-3.9v-5.7a32.18 32.18 0 0 1-12.1-2.4v-7.4a30.82 30.82 0 0 0 5.9 2.1 32.56 32.56 0 0 0 6.2 1.1v-8.7l-1.9-.7c-3.7-1.5-6.4-3.1-7.9-4.8a9.29 9.29 0 0 1-2.3-6.4 8.34 8.34 0 0 1 3.2-6.7c2.1-1.8 5.1-2.8 8.9-3.2v-4.3h3.9v4.2a33.43 33.43 0 0 1 11.7 2.6l-2.6 6.6a31.22 31.22 0 0 0-9-2.2v8.3a35.86 35.86 0 0 1 7.8 3.7 11 11 0 0 1 3.4 3.4 8.54 8.54 0 0 1 1 4.3zm-19.8-16.6a2.52 2.52 0 0 0 .9 2 9.85 9.85 0 0 0 2.8 1.6v-6.6c-2.5.4-3.7 1.4-3.7 3zm11.4 17.1a2.33 2.33 0 0 0-1-2 13.82 13.82 0 0 0-2.9-1.7v7q3.9-.6 3.9-3.3zm12.6-5.1c0-8.1 1.7-14.2 5.2-18.2s8.6-6 15.5-6a26.86 26.86 0 0 1 5.5.4v6.9a21.36 21.36 0 0 0-5-.6 16.94 16.94 0 0 0-7.3 1.4 8.61 8.61 0 0 0-4.2 4 19.78 19.78 0 0 0-1.7 7.5h.4c1.9-3.2 4.8-4.8 8.9-4.8 3.7 0 6.6 1.2 8.6 3.5s3.1 5.5 3.1 9.6c0 4.4-1.2 7.9-3.7 10.4s-5.9 3.8-10.3 3.8a15.16 15.16 0 0 1-8-2.1 13.31 13.31 0 0 1-5.2-6.2 22.53 22.53 0 0 1-1.8-9.6zm14.9 11.1a5 5 0 0 0 4.3-1.9 8.17 8.17 0 0 0 1.5-5.3 7.31 7.31 0 0 0-1.4-4.7 5.14 5.14 0 0 0-4.2-1.7 6.44 6.44 0 0 0-4.5 1.7 5.44 5.44 0 0 0-1.9 4 9.23 9.23 0 0 0 1.8 5.7 5.06 5.06 0 0 0 4.4 2.2zm33.3-19.9c4 0 7.1 1.1 9.5 3.3s3.5 5.3 3.5 9.2c0 4.6-1.4 8.1-4.3 10.6s-6.9 3.7-12.2 3.7c-4.6 0-8.3-.7-11.1-2.2v-7.5a24.79 24.79 0 0 0 10.8 2.6c5.3 0 8-2.2 8-6.5 0-4.1-2.8-6.2-8.3-6.2a20.2 20.2 0 0 0-3.3.3 28.43 28.43 0 0 0-2.9.6l-3.5-1.9 1.5-21h22.3v7.4H161l-.8 8.1 1-.2c1.4-.1 2.8-.3 4.5-.3zM214 446h-8.6v-18.4a9.65 9.65 0 0 0-1.1-5.1 4.2 4.2 0 0 0-3.6-1.7 5.24 5.24 0 0 0-4.8 2.4c-1 1.6-1.5 4.3-1.5 8V446h-8.6v-31.4h6.6l1.2 4h.5a8.74 8.74 0 0 1 3.7-3.4 12 12 0 0 1 5.5-1.2c4.7 0 7.9 1.5 9.6 4.6h.8a8.16 8.16 0 0 1 3.7-3.4 12.47 12.47 0 0 1 5.6-1.2q5.4 0 8.1 2.7c1.8 1.8 2.7 4.8 2.7 8.8V446H225v-18.4a9.65 9.65 0 0 0-1.1-5.1 4.2 4.2 0 0 0-3.6-1.7 5.32 5.32 0 0 0-4.7 2.3c-1 1.5-1.6 3.9-1.6 7.1V446z"/><path class="cls-17" d="M78.9 468.9h1.6l-3.2 9.1h-1.6l-3.2-9.1H74l1.9 5.7c.1.3.2.6.3 1a4.4 4.4 0 0 1 .2 1 6.15 6.15 0 0 1 .3-1.1 4.65 4.65 0 0 1 .3-.9zm7 9.1l-.3-1a4.06 4.06 0 0 1-1 .9 3.31 3.31 0 0 1-2.9-.3 2.11 2.11 0 0 1-.6-1.6 1.82 1.82 0 0 1 .8-1.6 4.65 4.65 0 0 1 2.4-.6h1.2v-.4a1.49 1.49 0 0 0-.3-1 1.33 1.33 0 0 0-1-.3 3 3 0 0 0-1 .2 3.55 3.55 0 0 0-.9.4l-.5-1a5.64 5.64 0 0 1 1.2-.4 5.85 5.85 0 0 1 1.3-.2 3 3 0 0 1 2 .6 2.48 2.48 0 0 1 .7 1.8v4.7h-1.1zm-2.2-1a1.84 1.84 0 0 0 1.3-.4 1.73 1.73 0 0 0 .5-1.3v-.6h-.9a2.81 2.81 0 0 0-1.5.3 1.05 1.05 0 0 0-.5.9.91.91 0 0 0 .3.7 1 1 0 0 0 .8.4zm6.7 1H89v-9.7h1.5v9.7zm7 0l-.2-.9h-.1a2.36 2.36 0 0 1-.9.8 2.77 2.77 0 0 1-1.3.3 2.71 2.71 0 0 1-1.9-.6 2.55 2.55 0 0 1-.6-1.9v-4.5H94v4.3a2.13 2.13 0 0 0 .3 1.2 1.16 1.16 0 0 0 1 .4 1.68 1.68 0 0 0 1.4-.6 3.16 3.16 0 0 0 .4-1.9v-3.4h1.5v6.9h-1.2zm6.3.1a3.33 3.33 0 0 1-2.5-.9 3.57 3.57 0 0 1-.9-2.6 4.55 4.55 0 0 1 .8-2.7 3.08 3.08 0 0 1 2.3-1 3.29 3.29 0 0 1 2.2.8 3.37 3.37 0 0 1 .8 2.3v.8h-4.6a2.07 2.07 0 0 0 .5 1.5 1.62 1.62 0 0 0 1.4.5 3.75 3.75 0 0 0 1.1-.1 7.6 7.6 0 0 0 1.1-.4v1.2a4.87 4.87 0 0 1-1.1.4c-.2.2-.6.2-1.1.2zm-.3-6a1.37 1.37 0 0 0-1.1.4 2.23 2.23 0 0 0-.5 1.3h3.1a1.7 1.7 0 0 0-.4-1.3 1.25 1.25 0 0 0-1.1-.4zm14.1 2.4a3.57 3.57 0 0 1-.9 2.6 3.54 3.54 0 0 1-4.1.6 2.37 2.37 0 0 1-1.1-1.3 3.81 3.81 0 0 1-.4-1.9 3.57 3.57 0 0 1 .9-2.6 3.24 3.24 0 0 1 2.4-.9 3 3 0 0 1 2.4 1 3.74 3.74 0 0 1 .8 2.5zm-5 0q0 2.4 1.8 2.4t1.8-2.4q0-2.4-1.8-2.4a1.38 1.38 0 0 0-1.3.6 4.28 4.28 0 0 0-.5 1.8zm10.2-2.3H121v5.8h-1.5v-5.8h-1.1v-.7l1.1-.5v-.5a2.12 2.12 0 0 1 2.4-2.4 4 4 0 0 1 1.5.3l-.4 1.1a4.4 4.4 0 0 0-1-.2.78.78 0 0 0-.7.3c-.2.2-.2.5-.2.9v.5h1.7v1.2zm10.6 5.8h-1.5v-4.3a2.13 2.13 0 0 0-.3-1.2 1.16 1.16 0 0 0-1-.4 1.68 1.68 0 0 0-1.4.6 3 3 0 0 0-.4 1.8v3.4h-1.5V471h1.2l.2.9h.1a2.36 2.36 0 0 1 .9-.8 2.77 2.77 0 0 1 1.3-.3 2.18 2.18 0 0 1 2.5 2.5v4.7zm5.1.1a3.33 3.33 0 0 1-2.5-.9 3.57 3.57 0 0 1-.9-2.6 4.55 4.55 0 0 1 .8-2.7 3.08 3.08 0 0 1 2.3-1 3.29 3.29 0 0 1 2.2.8 3.37 3.37 0 0 1 .8 2.3v.8h-4.6a2.07 2.07 0 0 0 .5 1.5 1.62 1.62 0 0 0 1.4.5 3.75 3.75 0 0 0 1.1-.1 7.6 7.6 0 0 0 1.1-.4v1.2a4.87 4.87 0 0 1-1.1.4 2 2 0 0 1-1.1.2zm-.3-6a1.37 1.37 0 0 0-1.1.4 2.23 2.23 0 0 0-.5 1.3h3.1a1.7 1.7 0 0 0-.4-1.3 1.37 1.37 0 0 0-1.1-.4zm10.3 5.9l-.9-3.2q-.15-.45-.6-2.4h-.1a13.61 13.61 0 0 1-.6 2.4l-.9 3.2h-1.6l-1.9-6.9h1.5l.9 3.4c.2.8.3 1.6.4 2.2a3.55 3.55 0 0 1 .2-1 5.07 5.07 0 0 0 .2-.9l1.1-3.6h1.6l1 3.6a6.37 6.37 0 0 1 .2.9c.1.4.1.7.2 1h.1c.1-.5.2-1.2.4-2.1l.9-3.4h1.5l-2 6.9h-1.6zm10.4.1a2.38 2.38 0 0 1-2-.9 5.18 5.18 0 0 1 0-5.2 2.52 2.52 0 0 1 2-.9 2.39 2.39 0 0 1 2.1 1h.1a5.74 5.74 0 0 1-.1-1.2v-2.5h1.5v9.7h-1.2l-.3-.9h-.1a2.15 2.15 0 0 1-2 .9zm.4-1.2a1.73 1.73 0 0 0 1.3-.5 2.5 2.5 0 0 0 .4-1.7v-.2a3.16 3.16 0 0 0-.4-1.9 1.49 1.49 0 0 0-1.3-.6 1.43 1.43 0 0 0-1.2.6 4.25 4.25 0 0 0 0 3.6 1.31 1.31 0 0 0 1.2.7zm11.4-2.4a3.57 3.57 0 0 1-.9 2.6 3.54 3.54 0 0 1-4.1.6 2.37 2.37 0 0 1-1.1-1.3 3.81 3.81 0 0 1-.4-1.9 3.57 3.57 0 0 1 .9-2.6 3.24 3.24 0 0 1 2.4-.9 3 3 0 0 1 2.4 1 3.74 3.74 0 0 1 .8 2.5zm-5 0q0 2.4 1.8 2.4t1.8-2.4q0-2.4-1.8-2.4a1.38 1.38 0 0 0-1.3.6 4.28 4.28 0 0 0-.5 1.8zm9.5 3.6a3.24 3.24 0 0 1-2.4-.9 4 4 0 0 1-.8-2.6 3.67 3.67 0 0 1 .9-2.7 3.33 3.33 0 0 1 2.5-.9 4.48 4.48 0 0 1 2 .4l-.4 1.2a5.62 5.62 0 0 0-1.5-.4q-1.8 0-1.8 2.4a2.5 2.5 0 0 0 .4 1.7 1.78 1.78 0 0 0 1.3.6 4.14 4.14 0 0 0 1.9-.5v1.3a1.33 1.33 0 0 1-.8.3 6.15 6.15 0 0 1-1.3.1zm8.5-.1l-.2-.9h-.1a2.36 2.36 0 0 1-.9.8 2.77 2.77 0 0 1-1.3.3 2.71 2.71 0 0 1-1.9-.6 2.55 2.55 0 0 1-.6-1.9v-4.5h1.5v4.3a2.13 2.13 0 0 0 .3 1.2 1.16 1.16 0 0 0 1 .4 1.68 1.68 0 0 0 1.4-.6 3.16 3.16 0 0 0 .4-1.9v-3.4h1.5v6.9h-1.1zm9 0h-1.5v-4.3a2.13 2.13 0 0 0-.3-1.2 1 1 0 0 0-.9-.4 1.21 1.21 0 0 0-1.2.6 3 3 0 0 0-.4 1.8v3.4h-1.5V471h1.2l.2.9h.1a3 3 0 0 1 .8-.8 2.66 2.66 0 0 1 1.2-.3 2.05 2.05 0 0 1 2.1 1.1h.1a2.36 2.36 0 0 1 .9-.8 2.77 2.77 0 0 1 1.3-.3 2.44 2.44 0 0 1 1.8.6 2.71 2.71 0 0 1 .6 1.9v4.5h-1.5v-4.3a2.13 2.13 0 0 0-.3-1.2 1 1 0 0 0-.9-.4 1.73 1.73 0 0 0-1.3.5 2.54 2.54 0 0 0-.4 1.6v4zm9.5.1a3.33 3.33 0 0 1-2.5-.9 3.57 3.57 0 0 1-.9-2.6 4.55 4.55 0 0 1 .8-2.7 3.08 3.08 0 0 1 2.3-1 3.29 3.29 0 0 1 2.2.8 3.37 3.37 0 0 1 .8 2.3v.8h-4.6a2.07 2.07 0 0 0 .5 1.5 1.62 1.62 0 0 0 1.4.5 3.75 3.75 0 0 0 1.1-.1 7.6 7.6 0 0 0 1.1-.4v1.2a4.87 4.87 0 0 1-1.1.4c-.2.2-.6.2-1.1.2zm-.3-6a1.37 1.37 0 0 0-1.1.4 2.23 2.23 0 0 0-.5 1.3h3.1a1.7 1.7 0 0 0-.4-1.3 1.37 1.37 0 0 0-1.1-.4zm10.7 5.9H211v-4.3a2.13 2.13 0 0 0-.3-1.2 1.16 1.16 0 0 0-1-.4 1.68 1.68 0 0 0-1.4.6 3 3 0 0 0-.4 1.8v3.4h-1.5V471h1.2l.2.9h.1a2.36 2.36 0 0 1 .9-.8 2.77 2.77 0 0 1 1.3-.3 2.18 2.18 0 0 1 2.5 2.5v4.7zm4.7-1.1a4.25 4.25 0 0 0 1.1-.2v1.1c-.2.1-.4.1-.6.2s-.5.1-.8.1c-1.4 0-2.1-.7-2.1-2.2v-3.7h-.9v-.7l1-.5.5-1.5h.9v1.5h2v1.1h-2v3.7a1 1 0 0 0 .3.8.71.71 0 0 0 .6.3zm7.1-.9a1.86 1.86 0 0 1-.7 1.6 3.28 3.28 0 0 1-2.1.5 4.56 4.56 0 0 1-2.2-.4v-1.3a5.25 5.25 0 0 0 2.3.6c.9 0 1.4-.3 1.4-.8a.52.52 0 0 0-.2-.4c-.1-.1-.3-.2-.5-.4a1.88 1.88 0 0 0-1-.4 4.49 4.49 0 0 1-1.6-.9 1.59 1.59 0 0 1-.4-1.2 1.51 1.51 0 0 1 .7-1.4 3.56 3.56 0 0 1 1.9-.5 5.93 5.93 0 0 1 2.3.5l-.5 1.1a5.37 5.37 0 0 0-1.9-.5c-.8 0-1.2.2-1.2.7a.55.55 0 0 0 .3.5 3.12 3.12 0 0 0 1.3.6 3.26 3.26 0 0 1 1.2.6 1.7 1.7 0 0 1 .6.6 2.39 2.39 0 0 1 .3.9z"/><path class="cls-15" d="M356.8 446H328v-6l10.3-10.4a74.86 74.86 0 0 0 6-6.5 13.65 13.65 0 0 0 2-3.4 8.66 8.66 0 0 0 .6-3.2 4.82 4.82 0 0 0-1.4-3.7 5.22 5.22 0 0 0-3.6-1.2 10.72 10.72 0 0 0-4.6 1.1 23.71 23.71 0 0 0-4.7 3.1l-4.7-5.6a41.32 41.32 0 0 1 5-3.7 12.87 12.87 0 0 1 4.4-1.6 21.46 21.46 0 0 1 5.3-.6 16.18 16.18 0 0 1 6.8 1.4 11.06 11.06 0 0 1 4.6 3.9 10.11 10.11 0 0 1 1.6 5.8 13.17 13.17 0 0 1-1 5.3 19.92 19.92 0 0 1-3.1 5.1 96.33 96.33 0 0 1-7.4 7.5l-5.3 5v.4h17.9v7.3zm18.3-41.7a15.51 15.51 0 0 1 9.5 2.7 8.55 8.55 0 0 1 3.6 7.2 9.75 9.75 0 0 1-1.7 5.6 14.6 14.6 0 0 1-5.6 4.4 19.68 19.68 0 0 1 6.6 5.2 10 10 0 0 1 2 5.9 9.52 9.52 0 0 1-4 8.1c-2.6 2.1-6.1 3.1-10.4 3.1-4.5 0-8-1-10.6-2.9a9.44 9.44 0 0 1-3.9-8.1 10.35 10.35 0 0 1 1.9-6.2 15.86 15.86 0 0 1 6-4.8 17 17 0 0 1-5.1-4.8 10.58 10.58 0 0 1-1.5-5.5 8.35 8.35 0 0 1 3.7-7.1 15.75 15.75 0 0 1 9.5-2.8zm-6.4 30.8a4.72 4.72 0 0 0 1.7 3.8 7.19 7.19 0 0 0 4.6 1.3 7.05 7.05 0 0 0 4.8-1.4 4.57 4.57 0 0 0 1.6-3.7 4.75 4.75 0 0 0-1.6-3.5 20.12 20.12 0 0 0-5.2-3.5c-3.9 1.8-5.9 4.1-5.9 7zm6.4-24.4a5.72 5.72 0 0 0-3.6 1.1 4 4 0 0 0-1.4 3.1 4.82 4.82 0 0 0 1.1 3 10.85 10.85 0 0 0 3.9 2.7 13.08 13.08 0 0 0 3.9-2.6 4.89 4.89 0 0 0 1.1-3.1 4 4 0 0 0-1.4-3.1 5.34 5.34 0 0 0-3.6-1.1zm47.3 14.7c0 7.2-1.2 12.5-3.5 15.9s-6 5.2-10.9 5.2-8.3-1.8-10.7-5.3-3.6-8.8-3.6-15.8c0-7.3 1.2-12.6 3.5-16s6-5.2 10.8-5.2 8.3 1.8 10.8 5.4 3.6 8.9 3.6 15.8zm-20.1 0c0 5 .4 8.7 1.3 10.8s2.3 3.3 4.4 3.3 3.5-1.1 4.4-3.3 1.4-5.8 1.4-10.8-.5-8.7-1.4-10.9-2.4-3.3-4.4-3.3-3.5 1.1-4.4 3.3-1.3 5.9-1.3 10.9z"/><path class="cls-17" d="M323.2 473.3a4.46 4.46 0 0 1-1.3 3.5 4.89 4.89 0 0 1-3.6 1.2h-2.6v-9.1h2.8a4.55 4.55 0 0 1 3.4 1.2 3.82 3.82 0 0 1 1.3 3.2zm-1.6.1c0-2.2-1-3.3-3.1-3.3h-1.3v6.6h1.1q3.3 0 3.3-3.3zm9.5 1.1a3.57 3.57 0 0 1-.9 2.6 3.54 3.54 0 0 1-4.1.6 2.37 2.37 0 0 1-1.1-1.3 3.81 3.81 0 0 1-.4-1.9 3.57 3.57 0 0 1 .9-2.6 3.24 3.24 0 0 1 2.4-.9 3 3 0 0 1 2.4 1 3.74 3.74 0 0 1 .8 2.5zm-5 0q0 2.4 1.8 2.4t1.8-2.4q0-2.4-1.8-2.4a1.38 1.38 0 0 0-1.3.6 2.73 2.73 0 0 0-.5 1.8zm9.5 3.6a3.24 3.24 0 0 1-2.4-.9 4 4 0 0 1-.8-2.6 3.67 3.67 0 0 1 .9-2.7 3.33 3.33 0 0 1 2.5-.9 4.48 4.48 0 0 1 2 .4l-.4 1.2a5.62 5.62 0 0 0-1.5-.4q-1.8 0-1.8 2.4a2.5 2.5 0 0 0 .4 1.7 1.49 1.49 0 0 0 1.3.6 4.14 4.14 0 0 0 1.9-.5v1.3a1.33 1.33 0 0 1-.8.3 6.15 6.15 0 0 1-1.3.1zm8.4-.1l-.2-.9h-.1a2.36 2.36 0 0 1-.9.8 2.77 2.77 0 0 1-1.3.3 2.71 2.71 0 0 1-1.9-.6 2.55 2.55 0 0 1-.6-1.9v-4.5h1.5v4.3a2.13 2.13 0 0 0 .3 1.2 1.16 1.16 0 0 0 1 .4 1.68 1.68 0 0 0 1.4-.6 3.16 3.16 0 0 0 .4-1.9v-3.4h1.5v6.9H344zm9.1 0h-1.5v-4.3a2.13 2.13 0 0 0-.3-1.2 1 1 0 0 0-.9-.4 1.21 1.21 0 0 0-1.2.6 3 3 0 0 0-.4 1.8v3.4h-1.5V471h1.2l.2.9h.1a3 3 0 0 1 .8-.8 2.66 2.66 0 0 1 1.2-.3 2.05 2.05 0 0 1 2.1 1.1h.1a2.36 2.36 0 0 1 .9-.8 2.77 2.77 0 0 1 1.3-.3 2.44 2.44 0 0 1 1.8.6 2.71 2.71 0 0 1 .6 1.9v4.5H356v-4.3a2.13 2.13 0 0 0-.3-1.2 1 1 0 0 0-.9-.4 1.73 1.73 0 0 0-1.3.5 2.54 2.54 0 0 0-.4 1.6v4zm9.5.1a3.33 3.33 0 0 1-2.5-.9 3.57 3.57 0 0 1-.9-2.6 4.55 4.55 0 0 1 .8-2.7 3.08 3.08 0 0 1 2.3-1 3.29 3.29 0 0 1 2.2.8 3.37 3.37 0 0 1 .8 2.3v.8h-4.6a2.07 2.07 0 0 0 .5 1.5 2 2 0 0 0 1.4.5 3.75 3.75 0 0 0 1.1-.1 7.6 7.6 0 0 0 1.1-.4v1.2a4.87 4.87 0 0 1-1.1.4c-.2.2-.7.2-1.1.2zm-.3-6a1.37 1.37 0 0 0-1.1.4 1.73 1.73 0 0 0-.5 1.3h3.1a1.7 1.7 0 0 0-.4-1.3 1.37 1.37 0 0 0-1.1-.4zM373 478h-1.5v-4.3a2.13 2.13 0 0 0-.3-1.2 1.16 1.16 0 0 0-1-.4 1.68 1.68 0 0 0-1.4.6 3 3 0 0 0-.4 1.8v3.4h-1.5V471h1.2l.2.9h.1a2.36 2.36 0 0 1 .9-.8 2.77 2.77 0 0 1 1.3-.3 2.18 2.18 0 0 1 2.5 2.5v4.7zm4.6-1.1a4.25 4.25 0 0 0 1.1-.2v1.1c-.2.1-.4.1-.6.2a2 2 0 0 1-.8.1c-1.4 0-2.1-.7-2.1-2.2v-3.7h-.9v-.7l1-.5.5-1.5h.9v1.5h2v1.1h-2v3.7a1 1 0 0 0 .3.8c.1.3.4.3.6.3zm7.2-.9a1.86 1.86 0 0 1-.7 1.6 3.28 3.28 0 0 1-2.1.5 4.56 4.56 0 0 1-2.2-.4v-1.3a5.25 5.25 0 0 0 2.3.6c.9 0 1.4-.3 1.4-.8 0-.2 0-.3-.1-.4s-.3-.2-.5-.4a1.88 1.88 0 0 0-1-.4 4.49 4.49 0 0 1-1.6-.9 1.59 1.59 0 0 1-.4-1.2 1.51 1.51 0 0 1 .7-1.4 3.56 3.56 0 0 1 1.9-.5 5.93 5.93 0 0 1 2.3.5l-.5 1.1a5.37 5.37 0 0 0-1.9-.5c-.8 0-1.2.2-1.2.7a.55.55 0 0 0 .3.5 3.12 3.12 0 0 0 1.3.6 3.26 3.26 0 0 1 1.2.6 1.7 1.7 0 0 1 .6.6 2.92 2.92 0 0 1 .2.9zm7.7 2.1a3.24 3.24 0 0 1-2.4-.9 4 4 0 0 1-.8-2.6 3.67 3.67 0 0 1 .9-2.7 3.33 3.33 0 0 1 2.5-.9 4.48 4.48 0 0 1 2 .4l-.4 1.2a5.62 5.62 0 0 0-1.5-.4q-1.8 0-1.8 2.4a2.5 2.5 0 0 0 .4 1.7 1.49 1.49 0 0 0 1.3.6 4.14 4.14 0 0 0 1.9-.5v1.3a1.33 1.33 0 0 1-.8.3 6.15 6.15 0 0 1-1.3.1zm7-7.1a1.48 1.48 0 0 1 .7.1l-.1 1.4c-.2 0-.4-.1-.7-.1a1.68 1.68 0 0 0-1.4.6 2 2 0 0 0-.5 1.5v3.6H396v-6.9h1.2l.2 1.2h.1a2.84 2.84 0 0 1 .9-1 1.5 1.5 0 0 1 1.1-.4zm5.1 7.1a3.33 3.33 0 0 1-2.5-.9 3.57 3.57 0 0 1-.9-2.6 4.55 4.55 0 0 1 .8-2.7 3.08 3.08 0 0 1 2.3-1 3.29 3.29 0 0 1 2.2.8 3.37 3.37 0 0 1 .8 2.3v.8h-4.6a2.07 2.07 0 0 0 .5 1.5 2 2 0 0 0 1.4.5 3.75 3.75 0 0 0 1.1-.1 7.6 7.6 0 0 0 1.1-.4v1.2a4.87 4.87 0 0 1-1.1.4c-.2.2-.7.2-1.1.2zm-.3-6a1.37 1.37 0 0 0-1.1.4 1.73 1.73 0 0 0-.5 1.3h3.1a1.7 1.7 0 0 0-.4-1.3 1.37 1.37 0 0 0-1.1-.4zm9 5.9l-.3-1h-.1a4.06 4.06 0 0 1-1 .9 3.31 3.31 0 0 1-2.9-.3 2.11 2.11 0 0 1-.6-1.6 1.82 1.82 0 0 1 .8-1.6 3.84 3.84 0 0 1 2.4-.6h1.2v-.4a1.49 1.49 0 0 0-.3-1 1.33 1.33 0 0 0-1-.3 3 3 0 0 0-1 .2 3.55 3.55 0 0 0-.9.4l-.5-1a5.64 5.64 0 0 1 1.2-.4 5.85 5.85 0 0 1 1.3-.2 3 3 0 0 1 2 .6 2.48 2.48 0 0 1 .7 1.8v4.7h-1zm-2.2-1a1.84 1.84 0 0 0 1.3-.4 1.73 1.73 0 0 0 .5-1.3v-.6h-.9a2.81 2.81 0 0 0-1.5.3 1.05 1.05 0 0 0-.5.9.91.91 0 0 0 .3.7 1 1 0 0 0 .8.4zm7.8-.1a4.25 4.25 0 0 0 1.1-.2v1.1c-.2.1-.4.1-.6.2a2 2 0 0 1-.8.1c-1.4 0-2.1-.7-2.1-2.2v-3.7h-.9v-.7l1-.5.5-1.5h.9v1.5h2v1.1h-2v3.7a1 1 0 0 0 .3.8c.1.3.4.3.6.3zm5.5 1.2a3.33 3.33 0 0 1-2.5-.9 3.57 3.57 0 0 1-.9-2.6 4.55 4.55 0 0 1 .8-2.7 3.08 3.08 0 0 1 2.3-1 3.29 3.29 0 0 1 2.2.8 3.37 3.37 0 0 1 .8 2.3v.8h-4.6a2.07 2.07 0 0 0 .5 1.5 2 2 0 0 0 1.4.5 3.75 3.75 0 0 0 1.1-.1 7.6 7.6 0 0 0 1.1-.4v1.2a4.87 4.87 0 0 1-1.1.4c-.2.2-.6.2-1.1.2zm-.2-6a1.37 1.37 0 0 0-1.1.4 1.73 1.73 0 0 0-.5 1.3h3.1a1.7 1.7 0 0 0-.4-1.3 1.5 1.5 0 0 0-1.1-.4zm6.9 6a2.38 2.38 0 0 1-2-.9 5.18 5.18 0 0 1 0-5.2 2.52 2.52 0 0 1 2-.9 2.39 2.39 0 0 1 2.1 1h.1a5.74 5.74 0 0 1-.1-1.2v-2.5h1.5v9.7h-1.2l-.3-.9h-.1a2.26 2.26 0 0 1-2 .9zm.4-1.2a1.73 1.73 0 0 0 1.3-.5 2.5 2.5 0 0 0 .4-1.7v-.2a3.16 3.16 0 0 0-.4-1.9 1.49 1.49 0 0 0-1.3-.6 1.43 1.43 0 0 0-1.2.6 4.25 4.25 0 0 0 0 3.6 1.31 1.31 0 0 0 1.2.7z"/><path class="cls-15" d="M560.9 404.3a15.51 15.51 0 0 1 9.5 2.7 8.55 8.55 0 0 1 3.6 7.2 9.75 9.75 0 0 1-1.7 5.6 14.61 14.61 0 0 1-5.6 4.4 19.68 19.68 0 0 1 6.6 5.2 10 10 0 0 1 2 5.9 9.52 9.52 0 0 1-4 8.1c-2.6 2.1-6.1 3.1-10.4 3.1-4.5 0-8-1-10.6-2.9a9.44 9.44 0 0 1-3.9-8.1 10.35 10.35 0 0 1 1.9-6.2 15.86 15.86 0 0 1 6-4.8 17 17 0 0 1-5.1-4.8 10.58 10.58 0 0 1-1.5-5.5 8.35 8.35 0 0 1 3.7-7.1 15.75 15.75 0 0 1 9.5-2.8zm-6.4 30.8a4.72 4.72 0 0 0 1.7 3.8 7.19 7.19 0 0 0 4.6 1.3 7.05 7.05 0 0 0 4.8-1.4 4.57 4.57 0 0 0 1.6-3.7 4.75 4.75 0 0 0-1.6-3.5 20.12 20.12 0 0 0-5.2-3.5c-3.9 1.8-5.9 4.1-5.9 7zm6.3-24.4a5.72 5.72 0 0 0-3.6 1.1 4 4 0 0 0-1.4 3.1 4.82 4.82 0 0 0 1.1 3 10.85 10.85 0 0 0 3.9 2.7 13.08 13.08 0 0 0 3.9-2.6 4.89 4.89 0 0 0 1.1-3.1 4 4 0 0 0-1.4-3.1 5.18 5.18 0 0 0-3.6-1.1zm40.3 35.3h-8.7v-23.8l.1-3.9.1-4.3c-1.4 1.4-2.5 2.4-3 2.8l-4.7 3.8-4.2-5.2 13.3-10.5h7.2V446zm40.2 0h-28.8v-6l10.3-10.4a74.87 74.87 0 0 0 6-6.5 13.65 13.65 0 0 0 2-3.4 8.66 8.66 0 0 0 .6-3.2 4.82 4.82 0 0 0-1.4-3.7 5.22 5.22 0 0 0-3.6-1.2 10.72 10.72 0 0 0-4.6 1.1 23.72 23.72 0 0 0-4.7 3.1l-4.7-5.6a41.32 41.32 0 0 1 5-3.7 12.87 12.87 0 0 1 4.4-1.6 21.46 21.46 0 0 1 5.3-.6 16.18 16.18 0 0 1 6.8 1.4 11.06 11.06 0 0 1 4.6 3.9 10.11 10.11 0 0 1 1.6 5.8 13.17 13.17 0 0 1-1 5.3 19.92 19.92 0 0 1-3.1 5.1 96.34 96.34 0 0 1-7.4 7.5l-5.3 5v.4h17.9v7.3z"/><path class="cls-17" d="M545 473.3a4.46 4.46 0 0 1-1.3 3.5 4.89 4.89 0 0 1-3.6 1.2h-2.6v-9.1h2.8a4.55 4.55 0 0 1 3.4 1.2 3.82 3.82 0 0 1 1.3 3.2zm-1.6.1c0-2.2-1-3.3-3.1-3.3H539v6.6h1.1q3.3 0 3.3-3.3zm9.6 1.1a3.57 3.57 0 0 1-.9 2.6 3.54 3.54 0 0 1-4.1.6 2.36 2.36 0 0 1-1.1-1.3 3.81 3.81 0 0 1-.4-1.9 3.57 3.57 0 0 1 .9-2.6 3.24 3.24 0 0 1 2.4-.9 3 3 0 0 1 2.4 1 3.74 3.74 0 0 1 .8 2.5zm-5.1 0q0 2.4 1.8 2.4t1.8-2.4q0-2.4-1.8-2.4a1.38 1.38 0 0 0-1.3.6 3.45 3.45 0 0 0-.5 1.8zm9.5 3.6a3.24 3.24 0 0 1-2.4-.9 4 4 0 0 1-.8-2.6 3.67 3.67 0 0 1 .9-2.7 3.33 3.33 0 0 1 2.5-.9 4.48 4.48 0 0 1 2 .4l-.4 1.2a5.62 5.62 0 0 0-1.5-.4q-1.8 0-1.8 2.4a2.5 2.5 0 0 0 .4 1.7 1.49 1.49 0 0 0 1.3.6 4.14 4.14 0 0 0 1.9-.5v1.3a1.33 1.33 0 0 1-.8.3 5.7 5.7 0 0 1-1.3.1zm8.5-.1l-.2-.9h-.1a2.36 2.36 0 0 1-.9.8 2.77 2.77 0 0 1-1.3.3 2.71 2.71 0 0 1-1.9-.6 2.55 2.55 0 0 1-.6-1.9v-4.5h1.5v4.3a2.13 2.13 0 0 0 .3 1.2 1.16 1.16 0 0 0 1 .4 1.68 1.68 0 0 0 1.4-.6 3.16 3.16 0 0 0 .4-1.9v-3.4h1.5v6.9h-1.1zm9.1 0h-1.5v-4.3a2.13 2.13 0 0 0-.3-1.2 1 1 0 0 0-.9-.4 1.21 1.21 0 0 0-1.2.6 3 3 0 0 0-.4 1.8v3.4h-1.5V471h1.2l.2.9h.1a3 3 0 0 1 .8-.8 2.66 2.66 0 0 1 1.2-.3 2.05 2.05 0 0 1 2.1 1.1h.1a2.36 2.36 0 0 1 .9-.8 2.77 2.77 0 0 1 1.3-.3 2.44 2.44 0 0 1 1.8.6 2.71 2.71 0 0 1 .6 1.9v4.5H578v-4.3a2.13 2.13 0 0 0-.3-1.2 1 1 0 0 0-.9-.4 1.73 1.73 0 0 0-1.3.5 2.54 2.54 0 0 0-.4 1.6v4zm9.4.1a3.33 3.33 0 0 1-2.5-.9 3.57 3.57 0 0 1-.9-2.6 4.55 4.55 0 0 1 .8-2.7 3.08 3.08 0 0 1 2.3-1 3.29 3.29 0 0 1 2.2.8 3.37 3.37 0 0 1 .8 2.3v.8h-4.6a2.07 2.07 0 0 0 .5 1.5 2 2 0 0 0 1.4.5 3.75 3.75 0 0 0 1.1-.1 7.6 7.6 0 0 0 1.1-.4v1.2a4.88 4.88 0 0 1-1.1.4c-.2.2-.6.2-1.1.2zm-.3-6a1.37 1.37 0 0 0-1.1.4 1.73 1.73 0 0 0-.5 1.3h3.1a1.7 1.7 0 0 0-.4-1.3 1.25 1.25 0 0 0-1.1-.4zm10.8 5.9h-1.5v-4.3a2.13 2.13 0 0 0-.3-1.2 1.16 1.16 0 0 0-1-.4 1.68 1.68 0 0 0-1.4.6 3 3 0 0 0-.4 1.8v3.4h-1.5V471h1.2l.2.9h.1a2.36 2.36 0 0 1 .9-.8 2.77 2.77 0 0 1 1.3-.3 2.18 2.18 0 0 1 2.5 2.5v4.7zm4.6-1.1a4.25 4.25 0 0 0 1.1-.2v1.1c-.2.1-.4.1-.6.2a2 2 0 0 1-.8.1c-1.4 0-2.1-.7-2.1-2.2v-3.7h-.9v-.7l1-.5.5-1.5h.9v1.5h2v1.1h-2v3.7a1 1 0 0 0 .3.8c.1.3.3.3.6.3zm11.1-8h1.6L609 478h-1.6l-3.2-9.1h1.5l1.9 5.7c.1.3.2.6.3 1a4.4 4.4 0 0 1 .2 1 6.15 6.15 0 0 1 .3-1.1 4.65 4.65 0 0 1 .3-.9zm2.5.4a.8.8 0 1 1 1.6 0 1.07 1.07 0 0 1-.2.6 1 1 0 0 1-1.2 0 1.07 1.07 0 0 1-.2-.6zm1.6 8.7h-1.5v-6.9h1.5zm5.1.1a3.33 3.33 0 0 1-2.5-.9 3.57 3.57 0 0 1-.9-2.6 4.55 4.55 0 0 1 .8-2.7 3.08 3.08 0 0 1 2.3-1 3.29 3.29 0 0 1 2.2.8 3.37 3.37 0 0 1 .8 2.3v.8h-4.6a2.07 2.07 0 0 0 .5 1.5 2 2 0 0 0 1.4.5 3.75 3.75 0 0 0 1.1-.1 7.6 7.6 0 0 0 1.1-.4v1.2a4.88 4.88 0 0 1-1.1.4c-.2.2-.6.2-1.1.2zm-.2-6a1.37 1.37 0 0 0-1.1.4 1.73 1.73 0 0 0-.5 1.3h3.1a1.7 1.7 0 0 0-.4-1.3 1.5 1.5 0 0 0-1.1-.4zm10.3 5.9l-.9-3.2q-.15-.45-.6-2.4h-.1a13.62 13.62 0 0 1-.6 2.4l-.9 3.2h-1.6l-1.9-6.9h1.5l.9 3.4c.2.8.3 1.6.4 2.2a3.55 3.55 0 0 1 .2-1 5.08 5.08 0 0 0 .2-.9l1.1-3.6h1.6l1 3.6a6.38 6.38 0 0 1 .2.9c.1.4.1.7.2 1 .1-.5.2-1.2.4-2.1l.9-3.4h1.5l-2 6.9h-1.5zm9.4-2a1.86 1.86 0 0 1-.7 1.6 3.28 3.28 0 0 1-2.1.5 4.56 4.56 0 0 1-2.2-.4v-1.3a5.25 5.25 0 0 0 2.3.6c.9 0 1.4-.3 1.4-.8 0-.2 0-.3-.1-.4s-.3-.2-.5-.4a1.88 1.88 0 0 0-1-.4 4.49 4.49 0 0 1-1.6-.9 1.59 1.59 0 0 1-.4-1.2 1.51 1.51 0 0 1 .7-1.4 3.56 3.56 0 0 1 1.9-.5 5.93 5.93 0 0 1 2.3.5l-.5 1.1a5.37 5.37 0 0 0-1.9-.5c-.8 0-1.2.2-1.2.7a.55.55 0 0 0 .3.5 3.12 3.12 0 0 0 1.3.6 3.26 3.26 0 0 1 1.2.6 1.7 1.7 0 0 1 .6.6 1.49 1.49 0 0 1 .2.9z"/><path id="Rounded_Rectangle_1" data-name="Rounded Rectangle 1" class="cls-18" d="M622 88h107a2 2 0 0 1 2 2v33a2 2 0 0 1-2 2H622a2 2 0 0 1-2-2V90a2 2 0 0 1 2-2z"/><path class="cls-19" d="M635 101h80v12h-80z"/><path id="Rounded_Rectangle_1_copy" data-name="Rounded Rectangle 1 copy" class="cls-20" d="M415 88h185a2 2 0 0 1 2 2v33a2 2 0 0 1-2 2H415a2 2 0 0 1-2-2V90a2 2 0 0 1 2-2z"/><path id="Rectangle_6_copy" data-name="Rectangle 6 copy" class="cls-21" d="M429 101h80v12h-80z"/><path id="Rectangle_6_copy_2" data-name="Rectangle 6 copy 2" class="cls-21" d="M548 101h38v12h-38z"/><path class="cls-17" d="M46.5 103.1c0 3.5-1 6.2-2.9 8.1S39 114 35.4 114h-5.9V92.6H36c3.3 0 5.9.9 7.8 2.8s2.7 4.4 2.7 7.7zm-2.6.1q0-4.2-2.1-6.3c-1.4-1.4-3.5-2.1-6.2-2.1H32v17.1h3c3 0 5.2-.7 6.7-2.2s2.2-3.7 2.2-6.5zm20.9 2.8a8.78 8.78 0 0 1-2 6.1 6.81 6.81 0 0 1-5.5 2.2 7 7 0 0 1-3.8-1 6.69 6.69 0 0 1-2.6-2.9 10.17 10.17 0 0 1-.9-4.4 8.78 8.78 0 0 1 2-6.1 6.73 6.73 0 0 1 5.4-2.2 7 7 0 0 1 5.4 2.2 8.49 8.49 0 0 1 2 6.1zm-12.2 0a7.76 7.76 0 0 0 1.2 4.7 4.13 4.13 0 0 0 3.6 1.6 4.13 4.13 0 0 0 3.6-1.6 7.76 7.76 0 0 0 1.2-4.7 8 8 0 0 0-1.2-4.7 4.2 4.2 0 0 0-3.7-1.6 4.13 4.13 0 0 0-3.6 1.6 7.79 7.79 0 0 0-1.1 4.7zm22.9 8.3a7 7 0 0 1-5.4-2.1c-1.3-1.4-1.9-3.5-1.9-6.1s.6-4.8 1.9-6.2a7.14 7.14 0 0 1 5.5-2.2 17.85 17.85 0 0 1 2.3.2 5.36 5.36 0 0 1 1.8.6l-.7 2.1a7.76 7.76 0 0 0-1.8-.5 11.14 11.14 0 0 0-1.7-.2c-3.3 0-4.9 2.1-4.9 6.2a7.11 7.11 0 0 0 1.2 4.5 4.33 4.33 0 0 0 3.5 1.6 10.49 10.49 0 0 0 4.1-.9v2.2a8.4 8.4 0 0 1-3.9.8zm10.1-16.4v10.4a4 4 0 0 0 .9 2.9 3.79 3.79 0 0 0 2.8 1 4.67 4.67 0 0 0 3.7-1.4q1.2-1.35 1.2-4.5v-8.4h2.4V114h-2l-.4-2.2h-.1a4.63 4.63 0 0 1-2.1 1.8 7.31 7.31 0 0 1-3 .6 6.27 6.27 0 0 1-4.4-1.4q-1.5-1.35-1.5-4.5V97.9zm36.6 16.1v-10.4a4.77 4.77 0 0 0-.8-2.9 2.92 2.92 0 0 0-2.5-1 4.24 4.24 0 0 0-3.4 1.3 5.79 5.79 0 0 0-1.1 4v9H112v-10.4a4.77 4.77 0 0 0-.8-2.9 3 3 0 0 0-2.6-1 4 4 0 0 0-3.3 1.4 7.41 7.41 0 0 0-1.1 4.5v8.4h-2.4V97.9h2l.4 2.2h.1a4.69 4.69 0 0 1 1.9-1.8 6.44 6.44 0 0 1 2.8-.7c2.5 0 4.2.9 4.9 2.7h.1a5.77 5.77 0 0 1 2.1-2 6.17 6.17 0 0 1 3.1-.7 5.64 5.64 0 0 1 4.1 1.4 6.21 6.21 0 0 1 1.4 4.5V114zm14.3.3a7.17 7.17 0 0 1-5.6-2.2 8.44 8.44 0 0 1-2.1-6 9.38 9.38 0 0 1 1.9-6.2 6.17 6.17 0 0 1 5.1-2.3 6.25 6.25 0 0 1 4.8 2 7.48 7.48 0 0 1 1.8 5.2v1.5h-11.1a6.17 6.17 0 0 0 1.4 4.3 4.9 4.9 0 0 0 3.8 1.5 13.38 13.38 0 0 0 5.1-1.1v2.2a16.79 16.79 0 0 1-2.4.8 10.59 10.59 0 0 1-2.7.3zm-.7-14.6a3.87 3.87 0 0 0-3.1 1.3 6.19 6.19 0 0 0-1.4 3.5h8.4a5.22 5.22 0 0 0-1-3.5 3.63 3.63 0 0 0-2.9-1.3zm21.7 14.3v-10.4a4 4 0 0 0-.9-2.9 3.79 3.79 0 0 0-2.8-1 4.67 4.67 0 0 0-3.7 1.4q-1.2 1.35-1.2 4.5v8.4h-2.4V97.9h2l.4 2.2h.1a4.63 4.63 0 0 1 2.1-1.8 7.35 7.35 0 0 1 3-.7 6.45 6.45 0 0 1 4.4 1.4q1.5 1.35 1.5 4.5V114zm12.6-1.7a4.87 4.87 0 0 0 1.2-.1c.4-.1.7-.1 1-.2v1.9a10.38 10.38 0 0 1-1.2.3 7.08 7.08 0 0 1-1.4.1c-3.1 0-4.7-1.6-4.7-4.9v-9.6h-2.3v-1.2l2.3-1 1-3.4h1.4v3.7h4.7v1.9h-4.7v9.4a2.92 2.92 0 0 0 .7 2.2 2.88 2.88 0 0 0 2 .9zm27 1.7l-2.7-6.8h-8.6l-2.6 6.8h-2.5l8.5-21.5h2.1l8.4 21.5zm-3.4-9.1l-2.5-6.6a28.6 28.6 0 0 1-1-3.1 25.42 25.42 0 0 1-.9 3.1l-2.5 6.6zm15 9.4a7 7 0 0 1-5.4-2.1c-1.3-1.4-1.9-3.5-1.9-6.1s.6-4.8 1.9-6.2a7.14 7.14 0 0 1 5.5-2.2 17.85 17.85 0 0 1 2.3.2 5.36 5.36 0 0 1 1.8.6l-.7 2.1a7.76 7.76 0 0 0-1.8-.5 11.14 11.14 0 0 0-1.7-.2c-3.3 0-4.9 2.1-4.9 6.2a7.11 7.11 0 0 0 1.2 4.5 4.33 4.33 0 0 0 3.5 1.6 10.49 10.49 0 0 0 4.1-.9v2.2a8.4 8.4 0 0 1-3.9.8zm13-2a4.87 4.87 0 0 0 1.2-.1c.4-.1.7-.1 1-.2v1.9a10.38 10.38 0 0 1-1.2.3 7.08 7.08 0 0 1-1.4.1c-3.1 0-4.7-1.6-4.7-4.9v-9.6h-2.3v-1.2l2.3-1 1-3.4h1.4v3.7h4.7v1.9H219v9.4a2.92 2.92 0 0 0 .7 2.2 2.88 2.88 0 0 0 2 .9zm5.2-18.7c0-.6.1-1 .4-1.2a1.45 1.45 0 0 1 2 0 1.59 1.59 0 0 1 .4 1.2 1.46 1.46 0 0 1-.4 1.2 1.78 1.78 0 0 1-1 .4 1.16 1.16 0 0 1-1-.4 2.14 2.14 0 0 1-.4-1.2zm2.7 20.4h-2.4V97.9h2.4zm8.7 0l-6.1-16.1h2.6l3.5 9.5c.8 2.2 1.2 3.7 1.4 4.3h.1a23.35 23.35 0 0 1 1-3.2c.6-1.6 1.9-5.2 3.8-10.6h2.6l-6.1 16.1zm11.3-20.4c0-.6.1-1 .4-1.2a1.45 1.45 0 0 1 2 0 1.59 1.59 0 0 1 .4 1.2 1.46 1.46 0 0 1-.4 1.2 1.78 1.78 0 0 1-1 .4 1.16 1.16 0 0 1-1-.4 2.14 2.14 0 0 1-.4-1.2zm2.6 20.4h-2.4V97.9h2.4zm10.3-1.7a4.87 4.87 0 0 0 1.2-.1c.4-.1.7-.1 1-.2v1.9a10.38 10.38 0 0 1-1.2.3 7.08 7.08 0 0 1-1.4.1c-3.1 0-4.7-1.6-4.7-4.9v-9.6h-2.3v-1.2l2.3-1 1-3.4h1.4v3.7h4.7v1.9H260v9.4a2.92 2.92 0 0 0 .7 2.2 2.43 2.43 0 0 0 1.8.9zm2.9-14.4h2.6l3.5 9.2a22.7 22.7 0 0 1 1.4 4.5h.1c.1-.5.4-1.3.8-2.6s1.7-4.9 4-11.1h2.6l-6.9 18.3a8.88 8.88 0 0 1-2.4 3.8 4.81 4.81 0 0 1-3.4 1.1 16.35 16.35 0 0 1-2.2-.2V119a9 9 0 0 0 1.8.2c1.7 0 2.9-.9 3.6-2.8l.9-2.3z"/><path class="cls-16" d="M25 141h706v2H25z"/><path id="White" class="cls-15" d="M0 0h750v65H0z"/><circle id="Avatar" class="cls-22" cx="714.5" cy="31.5" r="21.5"/><path class="cls-23" d="M13 18h34v34H13z"/><path class="cls-24" d="M66 0h1v65h-1z"/><path id="Rectangle_8_copy" data-name="Rectangle 8 copy" class="cls-25" d="M67 0h1v65h-1z"/><path class="cls-24" d="M197 0h1v65h-1z"/><path id="Rectangle_8_copy-2" data-name="Rectangle 8 copy-2" class="cls-25" d="M198 0h1v65h-1z"/><path class="cls-24" d="M294 0h1v65h-1z"/><path id="Rectangle_8_copy-3" data-name="Rectangle 8 copy-3" class="cls-25" d="M295 0h1v65h-1z"/><path class="cls-24" d="M416 0h1v65h-1z"/><path id="Rectangle_8_copy-4" data-name="Rectangle 8 copy-4" class="cls-25" d="M417 0h1v65h-1z"/><path class="cls-7" d="M85 25h90v17H85z"/><path id="Rectangle_9_copy" data-name="Rectangle 9 copy" class="cls-7" d="M220 25h48v17h-48z"/><path id="Rectangle_9_copy_2" data-name="Rectangle 9 copy 2" class="cls-7" d="M320 25h72v17h-72z"/><path class="cls-26" d="M44.38 28.05a2.61 2.61 0 0 1-1.84-.75l-4.84-4.84a2.61 2.61 0 0 1 3.7-3.68l4.84 4.84a2.61 2.61 0 0 1 0 3.68 2.71 2.71 0 0 1-1.86.75zM28 47.57a2.61 2.61 0 0 1-1.84-.75l-8-8a2.6 2.6 0 1 1 3.68-3.68l8 7.95a2.61 2.61 0 0 1 0 3.68 2.57 2.57 0 0 1-1.84.8zM44.38 40a2.61 2.61 0 0 1-1.84-.75l-16.8-16.79a2.61 2.61 0 0 1 3.68-3.7l16.8 16.8a2.61 2.61 0 0 1 0 3.68 2.46 2.46 0 0 1-1.84.76zm0 12a2.61 2.61 0 0 1-1.84-.75L13.76 22.46a2.61 2.61 0 1 1 3.7-3.68l28.76 28.76a2.61 2.61 0 0 1 0 3.68 2.53 2.53 0 0 1-1.84.78z"/></svg>