<svg id="Desktop" xmlns="http://www.w3.org/2000/svg" viewBox="0 0 1600 1049"><defs><style>.cls-1{fill:#f5f5f5}.cls-2{fill:#fff}.cls-3{fill:#e1e1e1}.cls-4{fill:#e2e2e2}.cls-5{fill:#b9b9b9}.cls-6{fill:#989898}.cls-7{fill:#42b0d8}.cls-8{fill:#286a82}.cls-9{fill:#33ab40}.cls-10{fill:#1f7328}.cls-11{fill:#b949f5}.cls-12{fill:#7d2fa6}.cls-13{fill:#ebebeb}.cls-14{fill:#434343}.cls-15{fill:#585858}.cls-16{fill:#ced0d0}.cls-17{fill:#ed4f23}.cls-18{fill:#f09177}.cls-19{fill:#353535}.cls-20{fill:#424242}.cls-21{fill:#c6c6c6}.cls-22{fill:#d4d4d4}.cls-23{fill:#eee}.cls-24{fill:#ed4c06}</style></defs><title>Artboard 1</title><path class="cls-1" d="M0 360h1600v689H0z"/><path class="cls-2" d="M30 460h440a3.91 3.91 0 0 1 4 3.8v545.5a3.91 3.91 0 0 1-4 3.8H30a3.91 3.91 0 0 1-4-3.8V463.8a3.91 3.91 0 0 1 4-3.8z"/><path class="cls-3" d="M470 1014.1H30a4.91 4.91 0 0 1-5-4.8V463.8a4.91 4.91 0 0 1 5-4.8h440a4.91 4.91 0 0 1 5 4.8v545.5a4.91 4.91 0 0 1-5 4.8zM30 461a2.91 2.91 0 0 0-3 2.8v545.5a2.91 2.91 0 0 0 3 2.8h440a2.91 2.91 0 0 0 3-2.8V463.8a2.91 2.91 0 0 0-3-2.8z"/><path class="cls-4" d="M40 534h148v16H40zm0 51h401v16H40z"/><path class="cls-5" d="M40 557h378v21H40z"/><path class="cls-4" d="M40 640h148v16H40zm0 51h204v16H40z"/><path class="cls-5" d="M40 663h125v21H40z"/><path class="cls-4" d="M40 744h148v16H40zm0 51h131v16H40z"/><path class="cls-5" d="M40 767h270v21H40z"/><path class="cls-4" d="M40 848h148v16H40zm0 51h358v16H40z"/><path class="cls-5" d="M40 871h260v21H40z"/><path class="cls-4" d="M40 953h148v16H40z"/><path class="cls-5" d="M40 976h324v21H40z"/><path class="cls-3" d="M27 512h447v2H27zm0 104h447v2H27zm0 105h447v2H27zm0 105h447v2H27zm0 105h447v2H27z"/><path class="cls-5" d="M40 478h188v16H40z"/><path class="cls-6" d="M562.9 422.4v4.6H561v-11.4h3.2a5.71 5.71 0 0 1 3.3.8 3.1 3.1 0 0 1 1.1 2.5 3.05 3.05 0 0 1-2.2 3l3.2 5.1h-2.1l-2.7-4.6zm0-1.5h1.3a3.09 3.09 0 0 0 1.9-.5 1.93 1.93 0 0 0 0-2.8 3.36 3.36 0 0 0-1.9-.4H563v3.7zm11.9 6.3a4.38 4.38 0 0 1-3.2-1.2 4.32 4.32 0 0 1-1.1-3.2 4.86 4.86 0 0 1 1.1-3.3 3.7 3.7 0 0 1 2.9-1.2 3.62 3.62 0 0 1 2.7 1 3.8 3.8 0 0 1 1 2.9v1h-5.8a2.74 2.74 0 0 0 .7 1.9 2.14 2.14 0 0 0 1.8.7 6.15 6.15 0 0 0 1.4-.1 12.13 12.13 0 0 0 1.4-.5v1.5a5.78 5.78 0 0 1-1.4.5 7.45 7.45 0 0 0-1.5 0zm-.3-7.6a1.68 1.68 0 0 0-1.4.6 2.58 2.58 0 0 0-.6 1.6h3.9a2.35 2.35 0 0 0-.5-1.6 1.82 1.82 0 0 0-1.4-.6zm9.2 7.6a4.08 4.08 0 0 1-3-1.1 4.66 4.66 0 0 1-1-3.3 5 5 0 0 1 1.1-3.4 3.85 3.85 0 0 1 3.1-1.2 7 7 0 0 1 2.5.5l-.6 1.5a5.94 5.94 0 0 0-1.9-.5c-1.5 0-2.2 1-2.2 3a3.4 3.4 0 0 0 .6 2.2 1.86 1.86 0 0 0 1.6.7 4.65 4.65 0 0 0 2.3-.6v1.6a3.58 3.58 0 0 1-1.1.4 5.21 5.21 0 0 1-1.4.2zm8.3 0a4.38 4.38 0 0 1-3.2-1.2 4.32 4.32 0 0 1-1.1-3.2 4.86 4.86 0 0 1 1.1-3.3 3.7 3.7 0 0 1 2.9-1.2 3.62 3.62 0 0 1 2.7 1 3.8 3.8 0 0 1 1 2.9v1h-5.8a2.74 2.74 0 0 0 .7 1.9 2.14 2.14 0 0 0 1.8.7 6.15 6.15 0 0 0 1.4-.1 12.13 12.13 0 0 0 1.4-.5v1.5a5.78 5.78 0 0 1-1.4.5 7.5 7.5 0 0 0-1.5 0zm-.4-7.6a1.68 1.68 0 0 0-1.4.6 2.58 2.58 0 0 0-.6 1.6h3.9a2.35 2.35 0 0 0-.5-1.6 1.68 1.68 0 0 0-1.4-.6zM605 427h-1.8v-5.3a2.08 2.08 0 0 0-.4-1.5 1.73 1.73 0 0 0-1.3-.5 1.94 1.94 0 0 0-1.7.7 3.57 3.57 0 0 0-.5 2.3v4.3h-1.8v-8.6h1.4l.3 1.1h.1a3.57 3.57 0 0 1 1.1-1 4.15 4.15 0 0 1 1.6-.3c2.1 0 3.1 1.1 3.1 3.2v5.6zm5.8-1.3a5.85 5.85 0 0 0 1.3-.2v1.4a1.88 1.88 0 0 1-.8.2c-.3 0-.7.1-1 .1-1.7 0-2.6-.9-2.6-2.8v-4.7h-1.2v-.8l1.3-.7.6-1.8h1.1v1.9h2.5v1.4h-2.5v4.6a1.49 1.49 0 0 0 .3 1 1.28 1.28 0 0 0 1 .4z"/><path class="cls-3" d="M26 420h518v2H26zm606 0h518v2H632z"/><path class="cls-2" d="M506 460h640a4 4 0 0 1 4 4v130a4 4 0 0 1-4 4H506a4 4 0 0 1-4-4V464a4 4 0 0 1 4-4z"/><path class="cls-3" d="M1146 599H506a5 5 0 0 1-5-5V464a5 5 0 0 1 5-5h640a5 5 0 0 1 5 5v130a5 5 0 0 1-5 5zM506 461a3 3 0 0 0-3 3v130a3 3 0 0 0 3 3h640a3 3 0 0 0 3-3V464a3 3 0 0 0-3-3z"/><path class="cls-7" d="M516 474h68.3a2 2 0 0 1 2 2v68a2 2 0 0 1-2 2H516a2 2 0 0 1-2-2v-68a2 2 0 0 1 2-2z"/><path class="cls-5" d="M610.5 478H928v32H610.5z"/><path class="cls-4" d="M610 557h238v21H610zm0-34h272v21H610zm499.5-19.2c-1.2 0-2.3-.1-3.5-.2a26.53 26.53 0 0 1-11 5.8 25.58 25.58 0 0 1-2.7.5 1.07 1.07 0 0 1-1.1-.9c-.1-.6.3-1 .6-1.4 1.5-1.7 3.2-3.1 4.4-7.1-4.9-2.8-8.1-7.1-8.1-12 0-8.5 9.6-15.3 21.5-15.3s21.5 6.8 21.5 15.3-9.7 15.3-21.6 15.3z"/><path class="cls-8" d="M564.4 510.9a2 2 0 0 1-2 2h-8.7v8.7a2 2 0 0 1-2 2h-4a2 2 0 0 1-2-2v-8.7H537a2 2 0 0 1-2-2v-4a2 2 0 0 1 2-2h8.7v-8.7a2 2 0 0 1 2-2h4a2 2 0 0 1 2 2v8.7h8.7a2 2 0 0 1 2 2z"/><path class="cls-2" d="M506 620h640a4 4 0 0 1 4 4v165a4 4 0 0 1-4 4H506a4 4 0 0 1-4-4V624a4 4 0 0 1 4-4z"/><path class="cls-3" d="M1146 794H506a5 5 0 0 1-5-5V624a5 5 0 0 1 5-5h640a5 5 0 0 1 5 5v165a5 5 0 0 1-5 5zM506 621a3 3 0 0 0-3 3v165a3 3 0 0 0 3 3h640a3 3 0 0 0 3-3V624a3 3 0 0 0-3-3z"/><path class="cls-9" d="M516 634h68.3a2 2 0 0 1 2 2v68a2 2 0 0 1-2 2H516a2 2 0 0 1-2-2v-68a2 2 0 0 1 2-2z"/><path class="cls-5" d="M610 638h376v32H610z"/><path class="cls-4" d="M610 683h406v21H610zm0 68h256v21H610zm0-34h203v21H610zm499.5-53.2c-1.2 0-2.3-.1-3.5-.2a26.53 26.53 0 0 1-11 5.8 25.57 25.57 0 0 1-2.7.5 1.07 1.07 0 0 1-1.1-.9c-.1-.6.3-1 .6-1.4 1.5-1.7 3.2-3.1 4.4-7.1-4.9-2.8-8.1-7.1-8.1-12 0-8.5 9.6-15.3 21.5-15.3s21.5 6.8 21.5 15.3-9.7 15.3-21.6 15.3z"/><path class="cls-10" d="M565.3 664.8l-15.1 15.1-2.8 2.8a1.93 1.93 0 0 1-2.8 0l-2.8-2.8-7.6-7.6a1.93 1.93 0 0 1 0-2.8l2.8-2.8a1.93 1.93 0 0 1 2.8 0l6.1 6.2 13.7-13.7a1.93 1.93 0 0 1 2.8 0l2.8 2.8a2 2 0 0 1 .6 1.4 1.87 1.87 0 0 1-.5 1.4z"/><path class="cls-2" d="M506 815h640a4 4 0 0 1 4 4v130a4 4 0 0 1-4 4H506a4 4 0 0 1-4-4V819a4 4 0 0 1 4-4z"/><path class="cls-3" d="M1146 954H506a5 5 0 0 1-5-5V819a5 5 0 0 1 5-5h640a5 5 0 0 1 5 5v130a5 5 0 0 1-5 5zM506 816a3 3 0 0 0-3 3v130a3 3 0 0 0 3 3h640a3 3 0 0 0 3-3V819a3 3 0 0 0-3-3z"/><path class="cls-11" d="M516 829h68.3a2 2 0 0 1 2 2v68a2 2 0 0 1-2 2H516a2 2 0 0 1-2-2v-68a2 2 0 0 1 2-2z"/><path class="cls-5" d="M610 833h128v32H610z"/><path class="cls-4" d="M610 912h256v21H610zm0-34h349v21H610zm499.5-19.2c-1.2 0-2.3-.1-3.5-.2a26.53 26.53 0 0 1-11 5.8 25.57 25.57 0 0 1-2.7.5 1.07 1.07 0 0 1-1.1-.9c-.1-.6.3-1 .6-1.4 1.5-1.7 3.2-3.1 4.4-7.1-4.9-2.8-8.1-7.1-8.1-12 0-8.5 9.6-15.3 21.5-15.3s21.5 6.8 21.5 15.3-9.7 15.3-21.6 15.3z"/><path class="cls-12" d="M567.1 857.9v24a2 2 0 0 1-2 2h-28a2 2 0 0 1-2-2v-33.4a2 2 0 0 1 2-2h18.7a5.44 5.44 0 0 1 3.4 1.4l6.5 6.5a6.36 6.36 0 0 1 1.4 3.5zm-2.7 2h-8.7a2 2 0 0 1-2-2v-8.7h-16v32h26.7zm-8-2.7h7.8a1.93 1.93 0 0 0-.5-.9l-6.5-6.5a5.77 5.77 0 0 0-.9-.5v7.9z"/><path class="cls-2" d="M1181 420h376a4 4 0 0 1 4 4v297a4 4 0 0 1-4 4h-376a4 4 0 0 1-4-4V424a4 4 0 0 1 4-4z"/><path class="cls-13" d="M1557 726h-376a5 5 0 0 1-5-5V424a5 5 0 0 1 5-5h376a5 5 0 0 1 5 5v297a5 5 0 0 1-5 5zm-376-305a3 3 0 0 0-3 3v297a3 3 0 0 0 3 3h376a3 3 0 0 0 3-3V424a3 3 0 0 0-3-3z"/><path class="cls-7" d="M1178 420h4v49h-4z"/><path class="cls-3" d="M1178 469h382v2h-382zm0 52h382v2h-382zm0 51h382v2h-382zm0 51h382v2h-382zm0 51h382v2h-382z"/><path class="cls-7" d="M1227 436h174v18h-174zm-17.6 8.8a7.7 7.7 0 1 1-7.7-7.7 7.7 7.7 0 0 1 7.7 7.7zm-5.2-2.3c.1 0 .1-.2.1-.2l.2-.2a.9.9 0 0 1 .5-.1.75.75 0 0 1 .5.1s.2-.2.2-.3.2 0 .3-.1v-.2c-.2 0-.2-.1-.2-.3l-.1.1c0-.2-.2 0-.3-.1s-.2-.2-.3-.4-.2-.1-.2-.2a.22.22 0 0 0-.2-.2c-.1 0-.2.2-.2.2s-.1 0-.2.1h-.2c.2-.1-.1-.2-.2-.1.1 0 .1-.2 0-.3 0-.1-.3-.2-.4-.2s-.6-.2-.7-.1 0 .3 0 .4-.1.2-.1.3.3.1.2.4l-.3.3c-.1.1 0 .3.1.4s-.1.2-.2.2-.3-.2-.3-.3 0-.2-.2-.3-.3-.1-.3 0c-.1-.2-.3-.2-.4-.3a.64.64 0 0 0-.6 0c.1 0 0-.3-.2-.3v-.3a.35.35 0 0 1 .1-.2l.2-.3a.75.75 0 0 0 .5-.1c.1-.1.1-.2.2-.3s.3 0 .4.1.2-.2.1-.3c.1 0 0-.2 0-.3s-.4.1-.3.1-.3.5-.4.2c0-.1-.1-.3-.2-.3s-.1.1-.2.2c.1-.1-.3-.2-.4-.2.2-.1 0-.2-.1-.3s-.3-.1-.4 0 .2.3.3.3.2.1.1.1-.2.1-.3.1.1.2 0 .3c-.1-.1-.1-.2-.2-.3.1.1-.4 0-.4 0-.2 0-.4.1-.5 0v-.2c-.1-.1-.2-.1-.2-.2-.3.1-.6.3-.9.4h.1a.35.35 0 0 0 .2-.1c.1 0 .3-.2.4-.1.1.1.1.2.2.3h-.3c-.1 0-.2 0-.2.1s.1.1.1.2a1.38 1.38 0 0 0-.4-.3h-.2a6.36 6.36 0 0 0-2.4 2.2l.1.1c.1 0 0 .3.2.2s.1.1 0 .2l.4.3c.1.1.2.1.2.2s0 .2-.1.2-.2-.2-.2-.1 0 .3.1.3c-.2 0-.1.6-.1.8 0 .1.1.6.3.5-.1 0 .2.5.3.5s.3.2.4.3.1.4.2.5.2.3.2.4h-.1c.1.1.2.1.3.3s0 .3.1.2a1.42 1.42 0 0 0-.2-.6c-.1-.1-.1-.2-.2-.3s-.1-.2-.1-.3.3.1.2.1c-.1.2.3.6.4.7s.3.3.1.3c.1 0 .3.2.4.3a.9.9 0 0 1 .1.5 1 1 0 0 0 .5.4.76.76 0 0 0 .4.2c.2.1.3 0 .4 0 .3 0 .3.3.5.4a.61.61 0 0 0 .6.1c-.1 0 .2.4.2.5s.3.2.4.3l.1-.1a.45.45 0 0 0 .3.3c.1 0 .1-.2.1-.3a.37.37 0 0 1-.5-.2s-.2-.3 0-.3.1-.2 0-.3-.2-.2-.2-.4c-.1.1-.3.1-.3 0v.1h-.2a.6.6 0 0 1 .1-.4c0-.2.4-.5-.1-.5-.2 0-.2.1-.3.2s0 .2-.2.3h-.5c-.2-.1-.3-.5-.3-.7a2.15 2.15 0 0 0 0-.8c.1 0 .1-.2.2-.2s.1 0 .2-.1l-.1-.1c.2.1.4-.1.6 0s.2.1.2 0-.1-.2 0-.2c0 .2.1.2.3.1.1.1.2 0 .3.1s.1.2.3 0c.1.1.1.1.1.2s.1.4.2.4.2-.2.1-.3v-.3c-.3-.1-.2-.3 0-.5a1.42 1.42 0 0 0 .4-.2.52.52 0 0 0 .2-.4c.1 0 .1 0 .1-.1l-.2-.1c.1 0 .1-.1 0-.2.1-.1 0-.2.2-.2a.11.11 0 1 0 .2-.1c.1-.1.3-.1.4-.2s0-.2.1-.3a.37.37 0 0 1 .3-.1s.3-.1.2-.2c.2 0 .5-.2.3-.3 0-.1-.1-.1-.2-.2h.2c.1-.1 0-.1-.1-.2s-.3.1-.4.1c.9 0 .8.1.7.1zm2.1 6.7c-.1-.1-.2 0-.3-.1s-.1-.1-.2-.1c0-.2-.2-.3-.3-.4a.52.52 0 0 0-.4-.2l-.2.1a.52.52 0 0 0-.4-.2c-.2-.1-.3-.3-.4-.1s0 .2-.1.3c-.1-.1.1-.2 0-.4s-.3.1-.4.2-.1.1-.2.1a.31.31 0 0 0-.1.2c0-.1-.2-.1-.2-.1a1.7 1.7 0 0 0 .1.7c0 .1 0 .4-.1.5s-.3.2-.3.4a.37.37 0 0 0 .1.3c0 .2-.2.3-.2.4v.2a5.23 5.23 0 0 0 3.6-1.8z"/><path class="cls-4" d="M1227 487h249v18h-249z"/><path class="cls-5" d="M1208.1 496.1a1 1 0 0 1-1 1h-4.2v4.2a1 1 0 0 1-1 1h-1.9a1 1 0 0 1-1-1v-4.2h-4.2a1 1 0 0 1-1-1v-1.9a1 1 0 0 1 1-1h4.2V489a1 1 0 0 1 1-1h1.9a1 1 0 0 1 1 1v4.2h4.2a1 1 0 0 1 1 1z"/><path class="cls-4" d="M1227 538h229v18h-229z"/><path class="cls-5" d="M1209.4 543.2v11.6a1 1 0 0 1-1 1H1195a1 1 0 0 1-1-1v-16.1a1 1 0 0 1 1-1h9a2.36 2.36 0 0 1 1.6.7l3.1 3.1a3.1 3.1 0 0 1 .7 1.7zm-1.3 1h-4.2a1 1 0 0 1-1-1V539h-7.7v15.4h12.9v-10.2zm-3.8-1.3h3.8c-.1-.2-.2-.3-.2-.4l-3.1-3.1a.52.52 0 0 0-.4-.2v3.7z"/><path class="cls-4" d="M1227 589h203v18h-203z"/><path class="cls-5" d="M1210.5 595.1l-7.3 7.3-1.4 1.4a1 1 0 0 1-1.4 0l-1.4-1.4-3.6-3.6a1 1 0 0 1 0-1.4l1.4-1.4a1 1 0 0 1 1.4 0l3 3 6.6-6.6a1 1 0 0 1 1.4 0l1.4 1.4a.91.91 0 0 1 .3.7.68.68 0 0 1-.4.6z"/><path class="cls-4" d="M1227 640h296v18h-296z"/><path class="cls-5" d="M1206.8 653.7l-1.4 1.4a1 1 0 0 1-1.4 0l-3-3-3 3a1 1 0 0 1-1.4 0l-1.4-1.4a1 1 0 0 1 0-1.4l3-3-3-3a1 1 0 0 1 0-1.4l1.4-1.4a1 1 0 0 1 1.4 0l3 3 3-3a1 1 0 0 1 1.4 0l1.4 1.4a1 1 0 0 1 0 1.4l-3 3 3 3a.91.91 0 0 1 .3.7 1.14 1.14 0 0 1-.3.7z"/><path class="cls-4" d="M1227 691h221v18h-221z"/><path class="cls-5" d="M1203 706.2a7.57 7.57 0 0 1-1.5-.1 10.2 10.2 0 0 1-4.6 2.4 5.16 5.16 0 0 1-1.1.2.51.51 0 0 1-.5-.4.71.71 0 0 1 .3-.6 5.93 5.93 0 0 0 1.8-3c-2.1-1.2-3.4-3-3.4-5 0-3.5 4-6.4 9-6.4s9 2.9 9 6.4-4 6.5-9 6.5z"/><path class="cls-14" d="M0 65h1600v295H0z"/><path class="cls-7" d="M166.25 343.13q-2.51 0-5-.14a88.67 88.67 0 0 1 5-177.19c1.68 0 3.41 0 5.12.11a88.91 88.91 0 0 1 83.48 93.59 88.65 88.65 0 0 1-88.55 83.64zm0-170.33a81.67 81.67 0 1 0 54.47 142.59 80.85 80.85 0 0 0 27.13-56.28 81.91 81.91 0 0 0-76.91-86.21c-1.55-.1-3.17-.1-4.74-.1z"/><path class="cls-14" d="M113 204.5c-3.6-4.3-8.8-10.4-13.3-16.5 10.5-25 45-36.4 70.2-26.9.3 12.1-.3 13.8-.3 22.3-24-4.2-43.8 4.1-56.6 21.1z"/><path class="cls-9" d="M111.9 194a53.71 53.71 0 0 1-4.9-5.8c13.6-13.5 37.8-23.1 56.5-22.1.4 5.1.4 3.5.5 7.5-19.2.9-37.1 8.4-52.1 20.4z"/><path class="cls-2" d="M133.3 218.7c3.8 0 6.7.8 8.8 2.3a7.44 7.44 0 0 1 3.1 6.4 8.67 8.67 0 0 1-1.5 5 11.4 11.4 0 0 1-4.7 3.7 18.22 18.22 0 0 1 5.6 4.5 7.91 7.91 0 0 1 1.6 4.8 8.76 8.76 0 0 1-3.4 7.4c-2.3 1.7-5.5 2.6-9.6 2.6s-7.4-.9-9.6-2.6a8.64 8.64 0 0 1-3.3-7.3 9.18 9.18 0 0 1 1.5-5.3 13.14 13.14 0 0 1 5-4 12.28 12.28 0 0 1-4.1-4.1 9.12 9.12 0 0 1-1.3-4.8 7.52 7.52 0 0 1 3.2-6.4 15.52 15.52 0 0 1 8.7-2.2zm-4.2 26.4a3 3 0 0 0 1.1 2.4 4.48 4.48 0 0 0 3 .9c2.9 0 4.3-1.1 4.3-3.2a4 4 0 0 0-.9-2.4 12.5 12.5 0 0 0-3.3-2.6 10.35 10.35 0 0 0-3.1 2.3 4.09 4.09 0 0 0-1.1 2.6zm4.2-19.4a3.14 3.14 0 0 0-2.1.7 2.32 2.32 0 0 0-.9 1.9c0 1.4 1 2.6 2.9 3.7a11.26 11.26 0 0 0 2.4-1.8 3.29 3.29 0 0 0 .6-1.9 2.32 2.32 0 0 0-.9-1.9 2.72 2.72 0 0 0-2-.7zm30.7 5.8a11.24 11.24 0 0 1 5.5 1.4 10.44 10.44 0 0 1 3.8 4 13 13 0 0 1 1.4 6c0 4-1.2 7-3.6 9.2s-6 3.2-10.9 3.2c-4.2 0-7.6-.6-10.2-1.9v-7.9a20.8 20.8 0 0 0 4.8 1.6 21.5 21.5 0 0 0 4.6.6 6.68 6.68 0 0 0 4.1-1.1 4 4 0 0 0 1.4-3.4 3.8 3.8 0 0 0-1.5-3.2 7 7 0 0 0-4.4-1.1 15.48 15.48 0 0 0-4.9.9l-3.5-1.8 1.3-18.9h20.3v8h-12.1l-.4 4.7c1.3-.2 2.2-.4 2.7-.4a4.67 4.67 0 0 0 1.6.1zm32.4-1.6c0 3.6-.8 6.4-2.4 8.3s-3.9 2.9-6.9 2.9a8 8 0 0 1-6.6-3 12.9 12.9 0 0 1-2.4-8.2c0-3.6.8-6.3 2.4-8.3a8.27 8.27 0 0 1 6.7-2.9 8.52 8.52 0 0 1 6.8 3 13.33 13.33 0 0 1 2.4 8.2zm-11.1.1a13.25 13.25 0 0 0 .5 4.1c.3.8.8 1.2 1.4 1.2s1.1-.4 1.4-1.2a12.8 12.8 0 0 0 .5-4.1 13.25 13.25 0 0 0-.5-4.1c-.3-.8-.8-1.2-1.4-1.2s-1.1.4-1.4 1.3a12.09 12.09 0 0 0-.5 4zm28.8-10.8l-19.8 35.7h-7.2l19.8-35.7zm9.3 24.9c0 3.6-.8 6.3-2.4 8.3s-3.9 2.9-6.9 2.9a8 8 0 0 1-6.6-3 12.9 12.9 0 0 1-2.4-8.2c0-3.6.8-6.3 2.4-8.3a8.27 8.27 0 0 1 6.7-2.9 8.52 8.52 0 0 1 6.8 3 12.9 12.9 0 0 1 2.4 8.2zm-11 .1a13.25 13.25 0 0 0 .5 4.1c.3.8.8 1.2 1.4 1.2s1.2-.5 1.4-1.4a19.21 19.21 0 0 0 0-7.8c-.3-1-.8-1.4-1.4-1.4s-1.1.4-1.4 1.3a12.52 12.52 0 0 0-.5 4zm-96.2 25.5a4.16 4.16 0 0 0-3.2 1.4 6.16 6.16 0 0 0-1.2 4 6.36 6.36 0 0 0 1.1 4 3.88 3.88 0 0 0 3.2 1.4 11 11 0 0 0 1.8-.2 12.09 12.09 0 0 0 1.8-.5v2a11.22 11.22 0 0 1-3.8.6 5.91 5.91 0 0 1-4.8-1.9 8.22 8.22 0 0 1-1.7-5.5 9.35 9.35 0 0 1 .8-3.9 5.5 5.5 0 0 1 2.4-2.6 6.87 6.87 0 0 1 3.6-.9 9.46 9.46 0 0 1 4.1.9l-.8 2-1.5-.6a11 11 0 0 0-1.8-.2zm8.7 12.6h-2.3V267h2.3zm12.9-5.5a6.08 6.08 0 0 1-1.4 4.2 4.9 4.9 0 0 1-3.8 1.5 5 5 0 0 1-2.7-.7 4.38 4.38 0 0 1-1.8-2 7.31 7.31 0 0 1-.6-3 5.81 5.81 0 0 1 1.4-4.1 4.9 4.9 0 0 1 3.8-1.5 4.68 4.68 0 0 1 3.7 1.5 5.54 5.54 0 0 1 1.4 4.1zm-7.9 0c0 2.5.9 3.8 2.8 3.8s2.7-1.3 2.7-3.8-.9-3.7-2.8-3.7a2.18 2.18 0 0 0-2.1 1 6 6 0 0 0-.6 2.7zm17.9 2.4a2.62 2.62 0 0 1-1.2 2.4 5.39 5.39 0 0 1-3.3.9 7.28 7.28 0 0 1-3.5-.7v-2a8.66 8.66 0 0 0 3.6.9c1.4 0 2.1-.4 2.1-1.3a1.45 1.45 0 0 0-.2-.7 2.76 2.76 0 0 0-.8-.6c-.4-.2-.9-.4-1.5-.7a6 6 0 0 1-2.5-1.5 2.94 2.94 0 0 1-.7-1.9 2.66 2.66 0 0 1 1.1-2.2 5.45 5.45 0 0 1 3.1-.8 8.63 8.63 0 0 1 3.6.8l-.7 1.7a7.94 7.94 0 0 0-3-.7c-1.2 0-1.8.3-1.8 1a1.38 1.38 0 0 0 .5.9 10.32 10.32 0 0 0 2.1 1 9.22 9.22 0 0 1 2 1 2.84 2.84 0 0 1 .9 1 3.65 3.65 0 0 1 .2 1.5zm7.2 3.3a5 5 0 0 1-5.4-5.6 6 6 0 0 1 1.3-4.2 4.61 4.61 0 0 1 3.6-1.5 4.38 4.38 0 0 1 3.4 1.3 5.22 5.22 0 0 1 1.2 3.6v1.3H152a3 3 0 0 0 .9 2.4 2.87 2.87 0 0 0 2.3.9 11 11 0 0 0 1.8-.2 7.59 7.59 0 0 0 1.8-.6v1.9a5.78 5.78 0 0 1-1.7.6c-.7 0-1.3.1-2.1.1zm-.4-9.5a2.41 2.41 0 0 0-1.8.7 3.06 3.06 0 0 0-.8 2h4.9a2.81 2.81 0 0 0-.6-2 2.06 2.06 0 0 0-1.7-.7zm15.1 3.5v5.7h-2.3v-14.4h4.1a6.52 6.52 0 0 1 4.1 1 3.69 3.69 0 0 1 1.3 3.2 3.81 3.81 0 0 1-2.8 3.8l4.1 6.4h-2.7l-3.4-5.7zm0-1.9h1.6a3.84 3.84 0 0 0 2.4-.6 2.14 2.14 0 0 0 .7-1.8 2.2 2.2 0 0 0-.8-1.8 3.91 3.91 0 0 0-2.4-.5h-1.6v4.7h.1zm17 7.7l-.5-1.5h-.1a5 5 0 0 1-1.6 1.4 5.44 5.44 0 0 1-2 .4 3.12 3.12 0 0 1-3.4-3.4 2.79 2.79 0 0 1 1.2-2.5 6.45 6.45 0 0 1 3.8-.9l1.9-.1v-.6a2.54 2.54 0 0 0-.5-1.6 2.07 2.07 0 0 0-1.5-.5 7.77 7.77 0 0 0-1.6.2l-1.5.6-.7-1.7a10.66 10.66 0 0 1 1.9-.7 7.14 7.14 0 0 1 2-.2 4.59 4.59 0 0 1 3.1.9 3.61 3.61 0 0 1 1.1 2.8v7.3h-1.6v.1zm-3.4-1.6a2.72 2.72 0 0 0 2-.7 2.63 2.63 0 0 0 .8-2v-.9l-1.4.1a4.77 4.77 0 0 0-2.4.5 1.58 1.58 0 0 0-.7 1.5 1.25 1.25 0 0 0 .4 1.1 1.7 1.7 0 0 0 1.3.4zm12.4-.1a5.08 5.08 0 0 0 1.7-.3v1.7c-.3.1-.6.2-1 .3a5.28 5.28 0 0 1-1.3.1c-2.2 0-3.3-1.2-3.3-3.5V273h-1.5v-1l1.6-.8.8-2.3h1.4v2.4h3.1v1.8h-3.1v5.8c0 .6.1 1 .4 1.2a2.19 2.19 0 0 0 1.2.5zm8.6 1.9a5 5 0 0 1-5.4-5.6 6 6 0 0 1 1.3-4.2 4.61 4.61 0 0 1 3.6-1.5 4.38 4.38 0 0 1 3.4 1.3 5.22 5.22 0 0 1 1.2 3.6v1.3h-7.2a3 3 0 0 0 .9 2.4 2.87 2.87 0 0 0 2.3.9 11 11 0 0 0 1.8-.2 7.59 7.59 0 0 0 1.8-.6v1.9a5.78 5.78 0 0 1-1.7.6c-.6 0-1.3.1-2 .1zm-.5-9.5a2.41 2.41 0 0 0-1.8.7 3.06 3.06 0 0 0-.8 2h4.9a2.81 2.81 0 0 0-.6-2 1.83 1.83 0 0 0-1.7-.7z"/><path class="cls-15" d="M327.1 201.3h104.1V225H327.1z"/><path class="cls-7" d="M327.1 240.4h104.1v23.7H327.1z"/><path class="cls-9" d="M327.1 279.5h104.1v23.7H327.1z"/><path class="cls-2" d="M644 236.9a13.35 13.35 0 0 1-4.8 10.7c-3.2 2.7-7.7 4.3-13.4 4.8v8.5h-5.7v-8.4a44.45 44.45 0 0 1-17.8-3.6v-11a45.61 45.61 0 0 0 8.7 3.2 42.62 42.62 0 0 0 9.1 1.6v-12.9l-2.8-1.1c-5.5-2.2-9.4-4.5-11.7-7.1a13.43 13.43 0 0 1-3.4-9.4 12.41 12.41 0 0 1 4.7-9.9c3.1-2.6 7.5-4.2 13.2-4.7v-6.4h5.7v6.2a49.27 49.27 0 0 1 17.2 3.8l-3.9 9.8a44.75 44.75 0 0 0-13.3-3.3V220c5.4 2.1 9.3 3.9 11.5 5.4a14.86 14.86 0 0 1 5 5 11.7 11.7 0 0 1 1.7 6.5zm-29.2-24.7a3.8 3.8 0 0 0 1.3 3 13.34 13.34 0 0 0 4.1 2.4v-9.8c-3.6.6-5.4 2-5.4 4.4zm16.7 25.3a3.89 3.89 0 0 0-1.4-3 21 21 0 0 0-4.2-2.5v10.4c3.7-.6 5.6-2.3 5.6-4.9zm18.7-7.5c0-12.1 2.5-21 7.6-26.9s12.7-8.8 22.9-8.8a43.63 43.63 0 0 1 8.2.6v10.3a30.8 30.8 0 0 0-7.3-.8 25.71 25.71 0 0 0-10.8 2 13.39 13.39 0 0 0-6.3 5.9c-1.4 2.6-2.2 6.3-2.5 11.1h.5c2.7-4.7 7.1-7.1 13.2-7.1 5.4 0 9.7 1.7 12.8 5.1s4.6 8.1 4.6 14.2c0 6.5-1.8 11.7-5.5 15.4s-8.7 5.7-15.2 5.7a21.3 21.3 0 0 1-11.7-3.1 20.39 20.39 0 0 1-7.7-9.1 33.49 33.49 0 0 1-2.8-14.5zm22 16.5a7.41 7.41 0 0 0 6.3-2.8c1.5-1.8 2.2-4.5 2.2-7.9a10.63 10.63 0 0 0-2.1-7 7.51 7.51 0 0 0-6.2-2.6 9.62 9.62 0 0 0-6.7 2.5 8.06 8.06 0 0 0-2.8 5.9 13.77 13.77 0 0 0 2.6 8.4 8.21 8.21 0 0 0 6.7 3.5zm49.2-29.5c5.9 0 10.6 1.7 14 5s5.2 7.8 5.2 13.6c0 6.8-2.1 12.1-6.3 15.7s-10.2 5.5-18 5.5c-6.8 0-12.2-1.1-16.4-3.3v-11.1a34.4 34.4 0 0 0 7.7 2.9 35.78 35.78 0 0 0 8.3 1.1c7.8 0 11.8-3.2 11.8-9.7 0-6.1-4.1-9.2-12.2-9.2a29.32 29.32 0 0 0-4.9.4c-1.8.3-3.2.6-4.3.9l-5.1-2.8 2.3-31.1h33v10.9h-21.7l-1.1 12 1.5-.3a34.42 34.42 0 0 1 6.2-.5zm71.3 38.9H780v-27.2c0-3.4-.6-5.9-1.7-7.6s-2.9-2.5-5.3-2.5c-3.2 0-5.6 1.2-7.1 3.6s-2.2 6.3-2.2 11.8v21.9H751v-46.6h9.7l1.7 6h.7a12.5 12.5 0 0 1 5.4-5 17.86 17.86 0 0 1 8.1-1.8c7 0 11.7 2.3 14.1 6.8h1.1a12.19 12.19 0 0 1 5.5-5 18.29 18.29 0 0 1 8.2-1.8c5.3 0 9.3 1.4 12 4.1s4.1 7.1 4.1 13V256H809v-27.2c0-3.4-.6-5.9-1.7-7.6s-2.9-2.5-5.3-2.5a8.07 8.07 0 0 0-7 3.3c-1.5 2.2-2.3 5.8-2.3 10.6z"/><path class="cls-16" d="M614 289.8h2.3l-4.7 13.5h-2.3l-4.7-13.5h2.3l2.8 8.4c.1.4.3.9.5 1.6a5 5 0 0 1 .3 1.4 12.43 12.43 0 0 1 .4-1.6c.2-.6.3-1.1.4-1.4zm10.2 13.6l-.4-1.4h-.1a5.8 5.8 0 0 1-1.5 1.3 4.7 4.7 0 0 1-4.3-.5 2.82 2.82 0 0 1-.8-2.3 2.62 2.62 0 0 1 1.2-2.4 7.85 7.85 0 0 1 3.6-.9l1.8-.1v-.5a2.25 2.25 0 0 0-.5-1.5 2 2 0 0 0-1.4-.5 7.72 7.72 0 0 0-1.5.2 7.84 7.84 0 0 0-1.4.5l-.7-1.6a13.36 13.36 0 0 1 1.8-.7 6.48 6.48 0 0 1 1.9-.2 4 4 0 0 1 2.9.9 3.34 3.34 0 0 1 1 2.7v6.9h-1.6v.1zm-3.2-1.5a2.49 2.49 0 0 0 1.9-.7 2.35 2.35 0 0 0 .7-1.9v-.9l-1.3.1a4 4 0 0 0-2.2.5 1.51 1.51 0 0 0-.7 1.4 1.37 1.37 0 0 0 .4 1.1 2.14 2.14 0 0 0 1.2.4zm10 1.5h-2.2V289h2.2zm10.3 0l-.3-1.4h-.1a2.85 2.85 0 0 1-1.3 1.1 4.06 4.06 0 0 1-1.9.4 3.22 3.22 0 0 1-3.7-3.7v-6.7h2.2v6.3a3 3 0 0 0 .5 1.8 1.75 1.75 0 0 0 1.5.6 2.48 2.48 0 0 0 2-.8 4.69 4.69 0 0 0 .6-2.7v-5.1h2.2v10.2zm9.3.1a5 5 0 0 1-3.7-1.4 5.17 5.17 0 0 1-1.3-3.8 5.69 5.69 0 0 1 1.2-3.9 4.12 4.12 0 0 1 3.4-1.4 4.38 4.38 0 0 1 3.2 1.2 4.7 4.7 0 0 1 1.2 3.4v1.2h-6.8a3.2 3.2 0 0 0 .8 2.3 2.86 2.86 0 0 0 2.1.8 8.81 8.81 0 0 0 1.7-.2 7 7 0 0 0 1.7-.6v1.8a4.94 4.94 0 0 1-1.6.5 10.89 10.89 0 0 1-1.9.1zm-.4-8.9a2.19 2.19 0 0 0-1.7.7 2.49 2.49 0 0 0-.7 1.9h4.6a2.71 2.71 0 0 0-.6-1.9 1.86 1.86 0 0 0-1.6-.7zm20.8 3.6a5.26 5.26 0 0 1-1.3 3.9 4.74 4.74 0 0 1-3.6 1.4 4.87 4.87 0 0 1-2.5-.6 4.51 4.51 0 0 1-1.7-1.9 6.09 6.09 0 0 1-.6-2.8 5.26 5.26 0 0 1 1.3-3.9 4.74 4.74 0 0 1 3.6-1.4 4.67 4.67 0 0 1 3.5 1.4 5.58 5.58 0 0 1 1.3 3.9zm-7.4 0c0 2.4.9 3.5 2.6 3.5s2.6-1.2 2.6-3.5-.9-3.5-2.6-3.5a2.26 2.26 0 0 0-2 .9 4.76 4.76 0 0 0-.6 2.6zm15-3.4h-2.5v8.6H674v-8.6h-1.7v-1l1.7-.7v-.7a4.14 4.14 0 0 1 .8-2.7 3.42 3.42 0 0 1 2.6-.9 6.2 6.2 0 0 1 2.3.4l-.6 1.6a4 4 0 0 0-1.5-.3 1.29 1.29 0 0 0-1.1.5 2.65 2.65 0 0 0-.3 1.4v.7h2.5v1.7zm15.7 8.6h-2.2v-6.3a3 3 0 0 0-.5-1.8 1.75 1.75 0 0 0-1.5-.6 2.48 2.48 0 0 0-2 .8 4.69 4.69 0 0 0-.6 2.7v5.1h-2.2v-10.2h1.7l.3 1.3h.1a2.37 2.37 0 0 1 1.3-1.1 4.06 4.06 0 0 1 1.9-.4c2.5 0 3.7 1.3 3.7 3.8zm7.5.1a5 5 0 0 1-3.7-1.4 5.17 5.17 0 0 1-1.3-3.8 5.69 5.69 0 0 1 1.2-3.9 4.12 4.12 0 0 1 3.4-1.4 4.38 4.38 0 0 1 3.2 1.2 4.7 4.7 0 0 1 1.2 3.4v1.2H699a3.2 3.2 0 0 0 .8 2.3 2.86 2.86 0 0 0 2.1.8 8.81 8.81 0 0 0 1.7-.2 7 7 0 0 0 1.7-.6v1.8a4.94 4.94 0 0 1-1.6.5 10.89 10.89 0 0 1-1.9.1zm-.4-8.9a2.19 2.19 0 0 0-1.7.7 2.49 2.49 0 0 0-.7 1.9h4.6a2.71 2.71 0 0 0-.6-1.9 1.86 1.86 0 0 0-1.6-.7zm15.2 8.8l-1.3-4.8c-.2-.5-.4-1.7-.9-3.5h-.1a23.36 23.36 0 0 1-.9 3.5l-1.4 4.8h-2.4l-2.9-10.2h2.2l1.3 5a24.89 24.89 0 0 1 .6 3.2h.1c.1-.5.2-1 .3-1.6a8.57 8.57 0 0 1 .3-1.3l1.6-5.4h2.4l1.5 5.4a10.63 10.63 0 0 1 .3 1.4 10.4 10.4 0 0 1 .2 1.5h.1c.1-.8.3-1.8.6-3.2l1.3-5h2.2l-2.9 10.2zm15.4.1a3.61 3.61 0 0 1-3-1.4 7.46 7.46 0 0 1 0-7.8 3.93 3.93 0 0 1 6.1.1h.1a14.94 14.94 0 0 1-.2-1.7V289h2.2v14.4h-1.7l-.4-1.3h-.1a3.37 3.37 0 0 1-3 1.4zm.6-1.7a2.63 2.63 0 0 0 2-.8 4 4 0 0 0 .6-2.5v-.3a5.06 5.06 0 0 0-.6-2.8 2.48 2.48 0 0 0-2-.8 2 2 0 0 0-1.8.9 4.91 4.91 0 0 0-.6 2.7 4.76 4.76 0 0 0 .6 2.6 2.1 2.1 0 0 0 1.8 1zm16.8-3.6a5.26 5.26 0 0 1-1.3 3.9 4.74 4.74 0 0 1-3.6 1.4 4.87 4.87 0 0 1-2.5-.6 4.51 4.51 0 0 1-1.7-1.9 6.09 6.09 0 0 1-.6-2.8 5.26 5.26 0 0 1 1.3-3.9 4.74 4.74 0 0 1 3.6-1.4 4.67 4.67 0 0 1 3.5 1.4 5.58 5.58 0 0 1 1.3 3.9zm-7.4 0c0 2.4.9 3.5 2.6 3.5s2.6-1.2 2.6-3.5-.9-3.5-2.6-3.5a2.26 2.26 0 0 0-2 .9 4.76 4.76 0 0 0-.6 2.6zm14.1 5.3a4.51 4.51 0 0 1-3.5-1.4 6.87 6.87 0 0 1 .1-7.9 4.74 4.74 0 0 1 3.6-1.4 6.84 6.84 0 0 1 2.9.6l-.7 1.8a5.63 5.63 0 0 0-2.3-.5c-1.8 0-2.7 1.2-2.7 3.5a4 4 0 0 0 .7 2.6 2.32 2.32 0 0 0 1.9.9 5 5 0 0 0 2.7-.7v1.9a6.12 6.12 0 0 1-1.2.5 6.62 6.62 0 0 1-1.5.1zm12.4-.1l-.3-1.3h-.1a2.85 2.85 0 0 1-1.3 1.1 4.06 4.06 0 0 1-1.9.4 3.22 3.22 0 0 1-3.7-3.7v-6.7h2.2v6.3a3 3 0 0 0 .5 1.8 1.75 1.75 0 0 0 1.5.6 2.48 2.48 0 0 0 2-.8 4.69 4.69 0 0 0 .6-2.7v-5.1h2.2v10.2h-1.7zm13.4 0h-2.2V297a3 3 0 0 0-.4-1.8 1.68 1.68 0 0 0-1.4-.6 2.07 2.07 0 0 0-1.8.8 4.69 4.69 0 0 0-.6 2.7v5.1h-2.2V293h1.7l.3 1.3h.1a2.54 2.54 0 0 1 1.2-1.1 3.42 3.42 0 0 1 1.8-.4c1.6 0 2.6.5 3.1 1.6h.1a3 3 0 0 1 1.3-1.2 3.81 3.81 0 0 1 1.9-.4 3.67 3.67 0 0 1 2.7.9 3.91 3.91 0 0 1 .8 2.8v6.7h-2.2V297a3 3 0 0 0-.4-1.8 1.68 1.68 0 0 0-1.4-.6 2.41 2.41 0 0 0-1.9.8 3.84 3.84 0 0 0-.6 2.4v5.6zm14 .1a5 5 0 0 1-3.7-1.4 5.17 5.17 0 0 1-1.3-3.8 5.69 5.69 0 0 1 1.2-3.9 4.12 4.12 0 0 1 3.4-1.4 4.38 4.38 0 0 1 3.2 1.2 4.7 4.7 0 0 1 1.2 3.4v1.2h-6.8a3.2 3.2 0 0 0 .8 2.3 2.86 2.86 0 0 0 2.1.8 8.81 8.81 0 0 0 1.7-.2 7 7 0 0 0 1.7-.6v1.8a4.94 4.94 0 0 1-1.6.5 10.89 10.89 0 0 1-1.9.1zm-.4-8.9a2.19 2.19 0 0 0-1.7.7 2.49 2.49 0 0 0-.7 1.9h4.6a2.71 2.71 0 0 0-.6-1.9 1.86 1.86 0 0 0-1.6-.7zm15.8 8.8h-2.2v-6.3a3 3 0 0 0-.5-1.8 1.75 1.75 0 0 0-1.5-.6 2.48 2.48 0 0 0-2 .8 4.69 4.69 0 0 0-.6 2.7v5.1h-2.2v-10.2h1.7l.3 1.3h.1a2.37 2.37 0 0 1 1.3-1.1 4.06 4.06 0 0 1 1.9-.4c2.5 0 3.7 1.3 3.7 3.8zm6.9-1.6a4.53 4.53 0 0 0 1.6-.3v1.6a4.65 4.65 0 0 1-.9.3 4.87 4.87 0 0 1-1.2.1c-2.1 0-3.1-1.1-3.1-3.3v-5.5h-1.4v-1l1.5-.8.7-2.2h1.3v2.3h2.9v1.6h-2.9v5.5a1.59 1.59 0 0 0 .4 1.2 1.17 1.17 0 0 0 1.1.5zm10.5-1.4a2.71 2.71 0 0 1-1.1 2.3 5.45 5.45 0 0 1-3.1.8 7.48 7.48 0 0 1-3.3-.6V301a7.33 7.33 0 0 0 3.4.8c1.3 0 2-.4 2-1.2a.85.85 0 0 0-.2-.6 1.28 1.28 0 0 0-.7-.5 6.45 6.45 0 0 0-1.4-.6 6.24 6.24 0 0 1-2.4-1.4 2.61 2.61 0 0 1-.6-1.8 2.19 2.19 0 0 1 1.1-2 5.9 5.9 0 0 1 2.9-.7 8 8 0 0 1 3.4.7l-.7 1.6a6.74 6.74 0 0 0-2.8-.7c-1.1 0-1.7.3-1.7 1a.91.91 0 0 0 .4.8 14.39 14.39 0 0 0 2 .9 5.91 5.91 0 0 1 1.8.9 3.82 3.82 0 0 1 .9.9c0 .4.1.8.1 1.3z"/><path class="cls-2" d="M1039.7 255.9h-42.5v-9l15.3-15.5c4.5-4.6 7.5-7.9 8.9-9.7a21.26 21.26 0 0 0 3-5 12.8 12.8 0 0 0 .9-4.8 7.25 7.25 0 0 0-2-5.5 7.66 7.66 0 0 0-5.4-1.8 15.49 15.49 0 0 0-6.9 1.6 35.93 35.93 0 0 0-6.9 4.6l-7-8.3a42.58 42.58 0 0 1 7.4-5.4 23.47 23.47 0 0 1 6.4-2.4 31 31 0 0 1 7.8-.9 23.08 23.08 0 0 1 10.1 2.1 16.15 16.15 0 0 1 6.8 5.8 15.69 15.69 0 0 1 2.4 8.6 21 21 0 0 1-1.5 7.9 29.66 29.66 0 0 1-4.6 7.6 107.07 107.07 0 0 1-10.9 11l-7.8 7.4v.6h26.5zm27.1-61.7c5.8 0 10.5 1.3 14.1 4a12.56 12.56 0 0 1 5.3 10.7 14.11 14.11 0 0 1-2.6 8.3 22.06 22.06 0 0 1-8.3 6.5c4.5 2.4 7.8 5 9.8 7.7a14.34 14.34 0 0 1 3 8.7 14.74 14.74 0 0 1-5.9 12.1c-3.9 3-9.1 4.6-15.4 4.6-6.7 0-11.9-1.4-15.7-4.3s-5.7-6.9-5.7-12a15.72 15.72 0 0 1 2.8-9.3 22.72 22.72 0 0 1 8.9-7.1 22.26 22.26 0 0 1-7.5-7 15.6 15.6 0 0 1-2.3-8.2 12.6 12.6 0 0 1 5.4-10.6c3.6-2.8 8.3-4.1 14.1-4.1zm-9.5 45.5a6.63 6.63 0 0 0 2.5 5.6 10.79 10.79 0 0 0 6.8 2q4.8 0 7.2-2.1a6.85 6.85 0 0 0 2.4-5.4 7.48 7.48 0 0 0-2.3-5.2 30.73 30.73 0 0 0-7.6-5.2c-6.1 2.7-9 6.1-9 10.3zm9.4-36.1a8 8 0 0 0-5.3 1.7 5.62 5.62 0 0 0-2 4.5 6.72 6.72 0 0 0 1.6 4.5 18.43 18.43 0 0 0 5.8 4.1 17.41 17.41 0 0 0 5.7-3.9 7 7 0 0 0 1.6-4.6 5.41 5.41 0 0 0-2.1-4.5 7.92 7.92 0 0 0-5.3-1.8zm69.9 21.8c0 10.6-1.7 18.5-5.2 23.6s-8.8 7.7-16.1 7.7c-7 0-12.3-2.6-15.9-7.9s-5.3-13.1-5.3-23.4c0-10.8 1.7-18.7 5.2-23.8s8.8-7.7 16-7.7c7 0 12.3 2.7 15.9 8s5.4 13.3 5.4 23.5zm-29.8 0c0 7.5.6 12.8 1.9 16.1s3.5 4.9 6.5 4.9 5.2-1.6 6.5-4.9 2-8.6 2-16-.7-12.8-2-16.1-3.5-4.9-6.5-4.9-5.2 1.6-6.5 4.9-1.9 8.6-1.9 16z"/><path class="cls-16" d="M1012.4 296.4a6.57 6.57 0 0 1-1.9 5.1 7.33 7.33 0 0 1-5.4 1.8h-3.8v-13.5h4.2a7 7 0 0 1 5 1.7 5.94 5.94 0 0 1 1.9 4.9zm-2.3.1c0-3.2-1.5-4.9-4.5-4.9h-1.9v9.8h1.6c3.2.1 4.8-1.6 4.8-4.9zm14.1 1.7a5.26 5.26 0 0 1-1.3 3.9 4.74 4.74 0 0 1-3.6 1.4 4.87 4.87 0 0 1-2.5-.6 4.51 4.51 0 0 1-1.7-1.9 6.09 6.09 0 0 1-.6-2.8 5.26 5.26 0 0 1 1.3-3.9 4.74 4.74 0 0 1 3.6-1.4 4.67 4.67 0 0 1 3.5 1.4 5.58 5.58 0 0 1 1.3 3.9zm-7.5 0c0 2.4.9 3.5 2.6 3.5s2.6-1.2 2.6-3.5-.9-3.5-2.6-3.5a2.26 2.26 0 0 0-2 .9 5.86 5.86 0 0 0-.6 2.6zm14.1 5.3a4.51 4.51 0 0 1-3.5-1.4 6.87 6.87 0 0 1 .1-7.9 4.74 4.74 0 0 1 3.6-1.4 6.84 6.84 0 0 1 2.9.6l-.7 1.8a5.63 5.63 0 0 0-2.3-.5c-1.8 0-2.7 1.2-2.7 3.5a4 4 0 0 0 .7 2.6 2.32 2.32 0 0 0 1.9.9 5 5 0 0 0 2.7-.7v1.9a6.12 6.12 0 0 1-1.2.5 6.62 6.62 0 0 1-1.5.1zm12.5-.1l-.3-1.3h-.1a2.85 2.85 0 0 1-1.3 1.1 4.06 4.06 0 0 1-1.9.4 3.22 3.22 0 0 1-3.7-3.7v-6.7h2.2v6.3a3 3 0 0 0 .5 1.8 1.75 1.75 0 0 0 1.5.6 2.48 2.48 0 0 0 2-.8 4.69 4.69 0 0 0 .6-2.7v-5.1h2.2v10.2h-1.7v-.1zm13.4 0h-2.2V297a3 3 0 0 0-.4-1.8 1.68 1.68 0 0 0-1.4-.6 2.07 2.07 0 0 0-1.8.8 4.69 4.69 0 0 0-.6 2.7v5.1h-2.2V293h1.7l.3 1.3h.1a2.54 2.54 0 0 1 1.2-1.1 3.42 3.42 0 0 1 1.8-.4c1.6 0 2.6.5 3.1 1.6h.1a3 3 0 0 1 1.3-1.2 3.81 3.81 0 0 1 1.9-.4 3.67 3.67 0 0 1 2.7.9 3.91 3.91 0 0 1 .8 2.8v6.7h-2.2V297a3 3 0 0 0-.4-1.8 1.68 1.68 0 0 0-1.4-.6 2.41 2.41 0 0 0-1.9.8 3.84 3.84 0 0 0-.6 2.4l.1 5.6zm13.9.1a5 5 0 0 1-3.7-1.4 5.17 5.17 0 0 1-1.3-3.8 5.69 5.69 0 0 1 1.2-3.9 4.12 4.12 0 0 1 3.4-1.4 4.38 4.38 0 0 1 3.2 1.2 4.7 4.7 0 0 1 1.2 3.4v1.2h-6.8a3.2 3.2 0 0 0 .8 2.3 2.86 2.86 0 0 0 2.1.8 8.81 8.81 0 0 0 1.7-.2 7 7 0 0 0 1.7-.6v1.8a4.94 4.94 0 0 1-1.6.5 10.89 10.89 0 0 1-1.9.1zm-.4-8.9a2.19 2.19 0 0 0-1.7.7 2.49 2.49 0 0 0-.7 1.9h4.6a2.71 2.71 0 0 0-.6-1.9 1.75 1.75 0 0 0-1.6-.7zm15.9 8.8h-2.2v-6.3a3 3 0 0 0-.5-1.8 1.75 1.75 0 0 0-1.5-.6 2.48 2.48 0 0 0-2 .8 4.69 4.69 0 0 0-.6 2.7v5.1h-2.2v-10.2h1.7l.3 1.3h.1a2.37 2.37 0 0 1 1.3-1.1 4.06 4.06 0 0 1 1.9-.4c2.5 0 3.7 1.3 3.7 3.8v6.7zm6.8-1.6a4.53 4.53 0 0 0 1.6-.3v1.6a4.65 4.65 0 0 1-.9.3 4.87 4.87 0 0 1-1.2.1c-2.1 0-3.1-1.1-3.1-3.3v-5.5h-1.4v-1l1.5-.8.7-2.2h1.3v2.3h2.9v1.6h-2.9v5.5a1.59 1.59 0 0 0 .4 1.2 1.27 1.27 0 0 0 1.1.5zm10.5-1.4a2.71 2.71 0 0 1-1.1 2.3 5.45 5.45 0 0 1-3.1.8 7.48 7.48 0 0 1-3.3-.6V301a7.33 7.33 0 0 0 3.4.8c1.3 0 2-.4 2-1.2a.85.85 0 0 0-.2-.6 1.28 1.28 0 0 0-.7-.5 6.45 6.45 0 0 0-1.4-.6 6.24 6.24 0 0 1-2.4-1.4 2.61 2.61 0 0 1-.6-1.8 2.19 2.19 0 0 1 1.1-2 5.9 5.9 0 0 1 2.9-.7 8 8 0 0 1 3.4.7l-.7 1.6a6.74 6.74 0 0 0-2.8-.7c-1.1 0-1.7.3-1.7 1a.91.91 0 0 0 .4.8 14.39 14.39 0 0 0 2 .9 5.91 5.91 0 0 1 1.8.9 3.82 3.82 0 0 1 .9.9c0 .4.1.8.1 1.3zm11.4 3.1a4.51 4.51 0 0 1-3.5-1.4 6.87 6.87 0 0 1 .1-7.9 4.74 4.74 0 0 1 3.6-1.4 6.84 6.84 0 0 1 2.9.6l-.7 1.8a5.63 5.63 0 0 0-2.3-.5c-1.8 0-2.7 1.2-2.7 3.5a4 4 0 0 0 .7 2.6 2.32 2.32 0 0 0 1.9.9 5 5 0 0 0 2.7-.7v1.9a6.12 6.12 0 0 1-1.2.5 6.62 6.62 0 0 1-1.5.1zm10.4-10.6a3.75 3.75 0 0 1 1.1.1l-.2 2a3.08 3.08 0 0 0-1-.1 2.58 2.58 0 0 0-2.1.9 3.29 3.29 0 0 0-.8 2.2v5.4h-2.2v-10.2h1.7l.3 1.8h.1a4.71 4.71 0 0 1 1.3-1.5 3.23 3.23 0 0 1 1.8-.6zm7.5 10.6a5 5 0 0 1-3.7-1.4 5.17 5.17 0 0 1-1.3-3.8 5.69 5.69 0 0 1 1.2-3.9 4.12 4.12 0 0 1 3.4-1.4 4.38 4.38 0 0 1 3.2 1.2 4.7 4.7 0 0 1 1.2 3.4v1.2h-6.8a3.2 3.2 0 0 0 .8 2.3 2.86 2.86 0 0 0 2.1.8 8.81 8.81 0 0 0 1.7-.2 7 7 0 0 0 1.7-.6v1.8a4.94 4.94 0 0 1-1.6.5 11.48 11.48 0 0 1-1.9.1zm-.4-8.9a2.19 2.19 0 0 0-1.7.7 2.49 2.49 0 0 0-.7 1.9h4.6a2.71 2.71 0 0 0-.6-1.9 2 2 0 0 0-1.6-.7zm13.2 8.8l-.4-1.4h-.1a5.8 5.8 0 0 1-1.5 1.3 4.7 4.7 0 0 1-4.3-.5 2.82 2.82 0 0 1-.8-2.3 2.62 2.62 0 0 1 1.2-2.4 7.85 7.85 0 0 1 3.6-.9l1.8-.1v-.5a2.25 2.25 0 0 0-.5-1.5 2 2 0 0 0-1.4-.5 7.72 7.72 0 0 0-1.5.2 7.84 7.84 0 0 0-1.4.5l-.7-1.6a13.35 13.35 0 0 1 1.8-.7 6.48 6.48 0 0 1 1.9-.2 4 4 0 0 1 2.9.9 3.34 3.34 0 0 1 1 2.7v6.9h-1.6zm-3.2-1.5a2.49 2.49 0 0 0 1.9-.7 2.35 2.35 0 0 0 .7-1.9v-.9l-1.3.1a4 4 0 0 0-2.2.5 1.51 1.51 0 0 0-.7 1.4 1.37 1.37 0 0 0 .4 1.1 1.69 1.69 0 0 0 1.2.4zm11.6-.1a4.53 4.53 0 0 0 1.6-.3v1.6a4.65 4.65 0 0 1-.9.3 4.87 4.87 0 0 1-1.2.1c-2.1 0-3.1-1.1-3.1-3.3v-5.5h-1.4v-1l1.5-.8.7-2.2h1.3v2.3h2.9v1.6h-2.9v5.5a1.59 1.59 0 0 0 .4 1.2 1.27 1.27 0 0 0 1.1.5zm8.1 1.7a5 5 0 0 1-3.7-1.4 5.17 5.17 0 0 1-1.3-3.8 5.69 5.69 0 0 1 1.2-3.9 4.12 4.12 0 0 1 3.4-1.4 4.38 4.38 0 0 1 3.2 1.2 4.7 4.7 0 0 1 1.2 3.4v1.2h-6.8a3.2 3.2 0 0 0 .8 2.3 2.86 2.86 0 0 0 2.1.8 8.81 8.81 0 0 0 1.7-.2 7 7 0 0 0 1.7-.6v1.8a4.94 4.94 0 0 1-1.6.5 10.89 10.89 0 0 1-1.9.1zm-.4-8.9a2.19 2.19 0 0 0-1.7.7 2.49 2.49 0 0 0-.7 1.9h4.6a2.71 2.71 0 0 0-.6-1.9 1.86 1.86 0 0 0-1.6-.7zm10.3 8.9a3.61 3.61 0 0 1-3-1.4 7.46 7.46 0 0 1 0-7.8 3.93 3.93 0 0 1 6.1.1h.1a14.93 14.93 0 0 1-.2-1.7V289h2.2v14.4h-1.7l-.4-1.3h-.1a3.61 3.61 0 0 1-3 1.4zm.6-1.7a2.63 2.63 0 0 0 2-.8 4 4 0 0 0 .6-2.5v-.3a5.06 5.06 0 0 0-.6-2.8 2.48 2.48 0 0 0-2-.8 2 2 0 0 0-1.8.9 4.91 4.91 0 0 0-.6 2.7 4.76 4.76 0 0 0 .6 2.6 2 2 0 0 0 1.8 1z"/><path class="cls-2" d="M1340.2 194.2c5.8 0 10.5 1.3 14.1 4a12.56 12.56 0 0 1 5.3 10.7 14.11 14.11 0 0 1-2.6 8.3 22.06 22.06 0 0 1-8.3 6.5c4.5 2.4 7.8 5 9.8 7.7a14.34 14.34 0 0 1 3 8.7 14.74 14.74 0 0 1-5.9 12.1c-3.9 3-9.1 4.6-15.4 4.6-6.7 0-11.9-1.4-15.7-4.3s-5.7-6.9-5.7-12a15.72 15.72 0 0 1 2.8-9.3 22.72 22.72 0 0 1 8.9-7.1 22.26 22.26 0 0 1-7.5-7 15.6 15.6 0 0 1-2.3-8.2 12.6 12.6 0 0 1 5.4-10.6c3.6-2.8 8.3-4.1 14.1-4.1zm-9.5 45.5a6.63 6.63 0 0 0 2.5 5.6 10.79 10.79 0 0 0 6.8 2q4.8 0 7.2-2.1a6.85 6.85 0 0 0 2.4-5.4 7.48 7.48 0 0 0-2.3-5.2 30.73 30.73 0 0 0-7.6-5.2c-6 2.7-9 6.1-9 10.3zm9.4-36.1a8 8 0 0 0-5.3 1.7 5.62 5.62 0 0 0-2 4.5 6.72 6.72 0 0 0 1.6 4.5 18.43 18.43 0 0 0 5.8 4.1 17.41 17.41 0 0 0 5.7-3.9 7 7 0 0 0 1.6-4.6 5.41 5.41 0 0 0-2.1-4.5 7.57 7.57 0 0 0-5.3-1.8zm59.6 52.3h-12.9v-35.3l.1-5.8.2-6.3c-2.1 2.1-3.6 3.5-4.4 4.2l-7 5.6-6.2-7.8 19.6-15.6h10.6v61zm59.3 0h-42.5v-9l15.3-15.5c4.5-4.6 7.5-7.9 8.9-9.7a21.26 21.26 0 0 0 3-5 12.8 12.8 0 0 0 .9-4.8 7.25 7.25 0 0 0-2-5.5 7.66 7.66 0 0 0-5.4-1.8 15.49 15.49 0 0 0-6.9 1.6 35.93 35.93 0 0 0-6.9 4.6l-7-8.3a42.58 42.58 0 0 1 7.4-5.4 23.47 23.47 0 0 1 6.4-2.4 31 31 0 0 1 7.8-.9 23.08 23.08 0 0 1 10.1 2.1 16.15 16.15 0 0 1 6.8 5.8 15.69 15.69 0 0 1 2.4 8.6 21 21 0 0 1-1.5 7.9 29.66 29.66 0 0 1-4.6 7.6 107.07 107.07 0 0 1-10.9 11l-7.8 7.4v.6h26.5v11.1z"/><path class="cls-16" d="M1334.5 296.4a6.57 6.57 0 0 1-1.9 5.1 7.33 7.33 0 0 1-5.4 1.8h-3.8v-13.5h4.2a7 7 0 0 1 5 1.7 5.94 5.94 0 0 1 1.9 4.9zm-2.3.1c0-3.2-1.5-4.9-4.5-4.9h-1.9v9.8h1.6c3.2.1 4.8-1.6 4.8-4.9zm14.1 1.7a5.26 5.26 0 0 1-1.3 3.9 4.74 4.74 0 0 1-3.6 1.4 4.87 4.87 0 0 1-2.5-.6 4.51 4.51 0 0 1-1.7-1.9 6.09 6.09 0 0 1-.6-2.8 5.26 5.26 0 0 1 1.3-3.9 4.74 4.74 0 0 1 3.6-1.4 4.67 4.67 0 0 1 3.5 1.4 5.58 5.58 0 0 1 1.3 3.9zm-7.5 0c0 2.4.9 3.5 2.6 3.5s2.6-1.2 2.6-3.5-.9-3.5-2.6-3.5a2.26 2.26 0 0 0-2 .9 5.86 5.86 0 0 0-.6 2.6zm14.1 5.3a4.51 4.51 0 0 1-3.5-1.4 6.87 6.87 0 0 1 .1-7.9 4.74 4.74 0 0 1 3.6-1.4 6.84 6.84 0 0 1 2.9.6l-.7 1.8a5.63 5.63 0 0 0-2.3-.5c-1.8 0-2.7 1.2-2.7 3.5a4 4 0 0 0 .7 2.6 2.32 2.32 0 0 0 1.9.9 5 5 0 0 0 2.7-.7v1.9a6.12 6.12 0 0 1-1.2.5 6.62 6.62 0 0 1-1.5.1zm12.5-.1l-.3-1.3h-.1a2.85 2.85 0 0 1-1.3 1.1 4.06 4.06 0 0 1-1.9.4 3.22 3.22 0 0 1-3.7-3.7v-6.7h2.2v6.3a3 3 0 0 0 .5 1.8 1.75 1.75 0 0 0 1.5.6 2.48 2.48 0 0 0 2-.8 4.69 4.69 0 0 0 .6-2.7v-5.1h2.2v10.2h-1.7v-.1zm13.4 0h-2.2V297a3 3 0 0 0-.4-1.8 1.68 1.68 0 0 0-1.4-.6 2.07 2.07 0 0 0-1.8.8 4.69 4.69 0 0 0-.6 2.7v5.1h-2.2V293h1.7l.3 1.3h.1a2.54 2.54 0 0 1 1.2-1.1 3.42 3.42 0 0 1 1.8-.4c1.6 0 2.6.5 3.1 1.6h.1a3 3 0 0 1 1.3-1.2 3.81 3.81 0 0 1 1.9-.4 3.67 3.67 0 0 1 2.7.9 3.91 3.91 0 0 1 .8 2.8v6.7h-2.2V297a3 3 0 0 0-.4-1.8 1.68 1.68 0 0 0-1.4-.6 2.41 2.41 0 0 0-1.9.8 3.84 3.84 0 0 0-.6 2.4l.1 5.6zm13.9.1a5 5 0 0 1-3.7-1.4 5.17 5.17 0 0 1-1.3-3.8 5.69 5.69 0 0 1 1.2-3.9 4.12 4.12 0 0 1 3.4-1.4 4.38 4.38 0 0 1 3.2 1.2 4.7 4.7 0 0 1 1.2 3.4v1.2h-6.8a3.2 3.2 0 0 0 .8 2.3 2.86 2.86 0 0 0 2.1.8 8.81 8.81 0 0 0 1.7-.2 7 7 0 0 0 1.7-.6v1.8a4.94 4.94 0 0 1-1.6.5 10.89 10.89 0 0 1-1.9.1zm-.4-8.9a2.19 2.19 0 0 0-1.7.7 2.49 2.49 0 0 0-.7 1.9h4.6a2.71 2.71 0 0 0-.6-1.9 1.75 1.75 0 0 0-1.6-.7zm15.9 8.8h-2.2v-6.3a3 3 0 0 0-.5-1.8 1.75 1.75 0 0 0-1.5-.6 2.48 2.48 0 0 0-2 .8 4.69 4.69 0 0 0-.6 2.7v5.1h-2.2v-10.2h1.7l.3 1.3h.1a2.37 2.37 0 0 1 1.3-1.1 4.06 4.06 0 0 1 1.9-.4c2.5 0 3.7 1.3 3.7 3.8v6.7zm6.8-1.6a4.53 4.53 0 0 0 1.6-.3v1.6a4.65 4.65 0 0 1-.9.3 4.87 4.87 0 0 1-1.2.1c-2.1 0-3.1-1.1-3.1-3.3v-5.5h-1.4v-1l1.5-.8.7-2.2h1.3v2.3h2.9v1.6h-2.9v5.5a1.59 1.59 0 0 0 .4 1.2 1.27 1.27 0 0 0 1.1.5zm16.5-12h2.3l-4.7 13.5h-2.3l-4.7-13.5h2.3l2.8 8.4c.1.4.3.9.5 1.6a5 5 0 0 1 .3 1.4 12.42 12.42 0 0 1 .4-1.6c.2-.6.3-1.1.4-1.4zm3.7.6a1.06 1.06 0 1 1 .3.9 1.22 1.22 0 0 1-.3-.9zm2.3 13h-2.2v-10.2h2.2zm7.6.1a5 5 0 0 1-3.7-1.4 5.17 5.17 0 0 1-1.3-3.8 5.69 5.69 0 0 1 1.2-3.9 4.12 4.12 0 0 1 3.4-1.4 4.38 4.38 0 0 1 3.2 1.2 4.7 4.7 0 0 1 1.2 3.4v1.2h-6.8a3.2 3.2 0 0 0 .8 2.3 2.86 2.86 0 0 0 2.1.8 8.81 8.81 0 0 0 1.7-.2 7 7 0 0 0 1.7-.6v1.8a4.94 4.94 0 0 1-1.6.5 10.89 10.89 0 0 1-1.9.1zm-.4-8.9a2.19 2.19 0 0 0-1.7.7 2.49 2.49 0 0 0-.7 1.9h4.6a2.71 2.71 0 0 0-.6-1.9 1.86 1.86 0 0 0-1.6-.7zm15.2 8.8l-1.3-4.8c-.2-.5-.4-1.7-.9-3.5h-.1a23.36 23.36 0 0 1-.9 3.5l-1.4 4.8h-2.4l-2.9-10.2h2.2l1.3 5a24.88 24.88 0 0 1 .6 3.2h.1c.1-.5.2-1 .3-1.6a8.55 8.55 0 0 1 .3-1.3l1.6-5.4h2.4l1.5 5.4a10.64 10.64 0 0 1 .3 1.4 10.39 10.39 0 0 1 .2 1.5h.1c.1-.8.3-1.8.6-3.2l1.3-5h2.2l-2.9 10.2zm13.9-3a2.71 2.71 0 0 1-1.1 2.3 5.45 5.45 0 0 1-3.1.8 7.48 7.48 0 0 1-3.3-.6V301a7.33 7.33 0 0 0 3.4.8c1.3 0 2-.4 2-1.2a.85.85 0 0 0-.2-.6 1.28 1.28 0 0 0-.7-.5 6.45 6.45 0 0 0-1.4-.6 6.24 6.24 0 0 1-2.4-1.4 2.61 2.61 0 0 1-.6-1.8 2.19 2.19 0 0 1 1.1-2 5.9 5.9 0 0 1 2.9-.7 8 8 0 0 1 3.4.7l-.7 1.6a6.74 6.74 0 0 0-2.8-.7c-1.1 0-1.7.3-1.7 1a.91.91 0 0 0 .4.8 14.39 14.39 0 0 0 2 .9 5.91 5.91 0 0 1 1.8.9 3.82 3.82 0 0 1 .9.9c0 .4.1.8.1 1.3z"/><path class="cls-17" d="M1394 88h107a2 2 0 0 1 2 2v33a2 2 0 0 1-2 2h-107a2 2 0 0 1-2-2V90a2 2 0 0 1 2-2z"/><path class="cls-18" d="M1407 101h80v12h-80z"/><path class="cls-19" d="M1187 88h185a2 2 0 0 1 2 2v33a2 2 0 0 1-2 2h-185a2 2 0 0 1-2-2V90a2 2 0 0 1 2-2z"/><path class="cls-20" d="M1201 101h80v12h-80zm119 0h38v12h-38z"/><path class="cls-16" d="M99.5 111.1c0 3.5-1 6.2-2.9 8.1S92 122 88.4 122h-5.9v-21.4H89c3.3 0 5.9.9 7.8 2.8s2.7 4.4 2.7 7.7zm-2.6.1q0-4.2-2.1-6.3c-1.4-1.4-3.5-2.1-6.2-2.1H85v17.1h3c3 0 5.2-.7 6.7-2.2s2.2-3.7 2.2-6.5zm20.9 2.8a8.78 8.78 0 0 1-2 6.1 6.81 6.81 0 0 1-5.5 2.2 7 7 0 0 1-3.8-1 6.69 6.69 0 0 1-2.6-2.9 10.17 10.17 0 0 1-.9-4.4 8.78 8.78 0 0 1 2-6.1 6.73 6.73 0 0 1 5.4-2.2 7 7 0 0 1 5.4 2.2 8.49 8.49 0 0 1 2 6.1zm-12.2 0a7.76 7.76 0 0 0 1.2 4.7 4.85 4.85 0 0 0 7.2 0 7.76 7.76 0 0 0 1.2-4.7 8 8 0 0 0-1.2-4.7 4.2 4.2 0 0 0-3.7-1.6 4.13 4.13 0 0 0-3.6 1.6 7.79 7.79 0 0 0-1.1 4.7zm22.9 8.3a7 7 0 0 1-5.4-2.1c-1.3-1.4-1.9-3.5-1.9-6.1s.6-4.8 1.9-6.2a7.14 7.14 0 0 1 5.5-2.2 17.85 17.85 0 0 1 2.3.2 5.36 5.36 0 0 1 1.8.6l-.7 2.1a7.76 7.76 0 0 0-1.8-.5 11.14 11.14 0 0 0-1.7-.2c-3.3 0-4.9 2.1-4.9 6.2a7.11 7.11 0 0 0 1.2 4.5 4.33 4.33 0 0 0 3.5 1.6 10.49 10.49 0 0 0 4.1-.9v2.2a8.4 8.4 0 0 1-3.9.8zm10.1-16.4v10.4a4 4 0 0 0 .9 2.9 3.79 3.79 0 0 0 2.8 1 4.67 4.67 0 0 0 3.7-1.4q1.2-1.35 1.2-4.5v-8.4h2.4V122h-2l-.4-2.2h-.1a4.63 4.63 0 0 1-2.1 1.8 7.31 7.31 0 0 1-3 .6 6.27 6.27 0 0 1-4.4-1.4q-1.5-1.35-1.5-4.5v-10.5l2.5.1zm36.6 16.1v-10.4a4.77 4.77 0 0 0-.8-2.9 2.92 2.92 0 0 0-2.5-1 4.24 4.24 0 0 0-3.4 1.3 5.79 5.79 0 0 0-1.1 4v9H165v-10.4a4.77 4.77 0 0 0-.8-2.9 3 3 0 0 0-2.6-1 4 4 0 0 0-3.3 1.4 7.41 7.41 0 0 0-1.1 4.5v8.4h-2.4v-16.1h2l.4 2.2h.1a4.69 4.69 0 0 1 1.9-1.8 6.44 6.44 0 0 1 2.8-.7c2.5 0 4.2.9 4.9 2.7h.1a5.77 5.77 0 0 1 2.1-2 6.17 6.17 0 0 1 3.1-.7 5.64 5.64 0 0 1 4.1 1.4 6.21 6.21 0 0 1 1.4 4.5V122zm14.3.3a7.17 7.17 0 0 1-5.6-2.2 8.44 8.44 0 0 1-2.1-6 9.38 9.38 0 0 1 1.9-6.2 6.17 6.17 0 0 1 5.1-2.3 6.25 6.25 0 0 1 4.8 2 7.48 7.48 0 0 1 1.8 5.2v1.5h-11.1a6.17 6.17 0 0 0 1.4 4.3 4.9 4.9 0 0 0 3.8 1.5 13.38 13.38 0 0 0 5.1-1.1v2.2a16.79 16.79 0 0 1-2.4.8 10.59 10.59 0 0 1-2.7.3zm-.7-14.6a3.87 3.87 0 0 0-3.1 1.3 6.19 6.19 0 0 0-1.4 3.5h8.4a5.22 5.22 0 0 0-1-3.5 3.63 3.63 0 0 0-2.9-1.3zm21.7 14.3v-10.4a4 4 0 0 0-.9-2.9 3.79 3.79 0 0 0-2.8-1 4.67 4.67 0 0 0-3.7 1.4q-1.2 1.35-1.2 4.5v8.4h-2.4v-16.1h2l.4 2.2h.1a4.63 4.63 0 0 1 2.1-1.8 7.35 7.35 0 0 1 3-.7 6.45 6.45 0 0 1 4.4 1.4q1.5 1.35 1.5 4.5V122zm12.6-1.7a4.87 4.87 0 0 0 1.2-.1c.4-.1.7-.1 1-.2v1.9a10.38 10.38 0 0 1-1.2.3 7.08 7.08 0 0 1-1.4.1c-3.1 0-4.7-1.6-4.7-4.9v-9.6h-2.3v-1.2l2.3-1 1-3.4h1.4v3.7h4.7v1.9h-4.7v9.4a2.92 2.92 0 0 0 .7 2.2 2.88 2.88 0 0 0 2 .9zm27 1.7l-2.7-6.8h-8.6l-2.6 6.8h-2.5l8.5-21.5h2.1l8.4 21.5zm-3.4-9.1l-2.5-6.6a28.6 28.6 0 0 1-1-3.1 25.42 25.42 0 0 1-.9 3.1l-2.5 6.6zm15 9.4a7 7 0 0 1-5.4-2.1c-1.3-1.4-1.9-3.5-1.9-6.1s.6-4.8 1.9-6.2a7.14 7.14 0 0 1 5.5-2.2 17.85 17.85 0 0 1 2.3.2 5.36 5.36 0 0 1 1.8.6l-.7 2.1a7.76 7.76 0 0 0-1.8-.5 11.14 11.14 0 0 0-1.7-.2c-3.3 0-4.9 2.1-4.9 6.2a7.11 7.11 0 0 0 1.2 4.5 4.33 4.33 0 0 0 3.5 1.6 10.49 10.49 0 0 0 4.1-.9v2.2a8.4 8.4 0 0 1-3.9.8zm13-2a4.87 4.87 0 0 0 1.2-.1c.4-.1.7-.1 1-.2v1.9a10.38 10.38 0 0 1-1.2.3 7.08 7.08 0 0 1-1.4.1c-3.1 0-4.7-1.6-4.7-4.9v-9.6h-2.3v-1.2l2.3-1 1-3.4h1.4v3.7h4.7v1.9H272v9.4a2.92 2.92 0 0 0 .7 2.2 2.88 2.88 0 0 0 2 .9zm5.2-18.7c0-.6.1-1 .4-1.2a1.45 1.45 0 0 1 2 0 1.59 1.59 0 0 1 .4 1.2 1.46 1.46 0 0 1-.4 1.2 1.78 1.78 0 0 1-1 .4 1.16 1.16 0 0 1-1-.4 2.14 2.14 0 0 1-.4-1.2zm2.7 20.4h-2.4v-16.1h2.4zm8.7 0l-6.1-16.1h2.6l3.5 9.5c.8 2.2 1.2 3.7 1.4 4.3h.1a23.35 23.35 0 0 1 1-3.2c.6-1.6 1.9-5.2 3.8-10.6h2.6l-6.1 16.1zm11.3-20.4c0-.6.1-1 .4-1.2a1.45 1.45 0 0 1 2 0 1.59 1.59 0 0 1 .4 1.2 1.46 1.46 0 0 1-.4 1.2 1.78 1.78 0 0 1-1 .4 1.16 1.16 0 0 1-1-.4 2.14 2.14 0 0 1-.4-1.2zm2.6 20.4h-2.4v-16.1h2.4zm10.3-1.7a4.87 4.87 0 0 0 1.2-.1c.4-.1.7-.1 1-.2v1.9a10.38 10.38 0 0 1-1.2.3 7.08 7.08 0 0 1-1.4.1c-3.1 0-4.7-1.6-4.7-4.9v-9.6h-2.3v-1.2l2.3-1 1-3.4h1.4v3.7h4.7v1.9H313v9.4a2.92 2.92 0 0 0 .7 2.2 2.43 2.43 0 0 0 1.8.9zm2.9-14.4h2.6l3.5 9.2a22.7 22.7 0 0 1 1.4 4.5h.1c.1-.5.4-1.3.8-2.6s1.7-4.9 4-11.1h2.6l-6.9 18.3a8.88 8.88 0 0 1-2.4 3.8 4.81 4.81 0 0 1-3.4 1.1 16.35 16.35 0 0 1-2.2-.2V127a9 9 0 0 0 1.8.2c1.7 0 2.9-.9 3.6-2.8l.9-2.3z"/><path class="cls-15" d="M78 151h1426v2H78z"/><path class="cls-2" d="M0 0h1600v65H0z"/><circle class="cls-21" cx="1567.5" cy="31.5" r="21.5"/><path class="cls-22" d="M66 0h1v65h-1z"/><path class="cls-23" d="M67 0h1v65h-1z"/><path class="cls-22" d="M197 0h1v65h-1z"/><path class="cls-23" d="M198 0h1v65h-1z"/><path class="cls-22" d="M294 0h1v65h-1z"/><path class="cls-23" d="M295 0h1v65h-1z"/><path class="cls-22" d="M416 0h1v65h-1z"/><path class="cls-23" d="M417 0h1v65h-1z"/><path class="cls-4" d="M85 25h90v17H85zm135 0h48v17h-48zm100 0h72v17h-72z"/><path class="cls-24" d="M44.38 28.05a2.61 2.61 0 0 1-1.84-.75l-4.84-4.84a2.61 2.61 0 0 1 3.7-3.68l4.84 4.84a2.61 2.61 0 0 1 0 3.68 2.71 2.71 0 0 1-1.86.75zM28 47.57a2.61 2.61 0 0 1-1.84-.75l-8-8a2.6 2.6 0 1 1 3.68-3.68l8 7.95a2.61 2.61 0 0 1 0 3.68 2.57 2.57 0 0 1-1.84.8zM44.38 40a2.61 2.61 0 0 1-1.84-.75l-16.8-16.79a2.61 2.61 0 0 1 3.68-3.7l16.8 16.8a2.61 2.61 0 0 1 0 3.68 2.46 2.46 0 0 1-1.84.76zm0 12a2.61 2.61 0 0 1-1.84-.75L13.76 22.46a2.61 2.61 0 1 1 3.7-3.68l28.76 28.76a2.61 2.61 0 0 1 0 3.68 2.53 2.53 0 0 1-1.84.78z"/></svg>