<?xml version="1.0" encoding="utf-8"?>
<!-- Generator: Adobe Illustrator 20.0.0, SVG Export Plug-In . SVG Version: 6.00 Build 0)  -->
<svg version="1.1" id="Layer_1" xmlns="http://www.w3.org/2000/svg" xmlns:xlink="http://www.w3.org/1999/xlink" x="0px" y="0px"
	 viewBox="0 0 50 51.1" style="enable-background:new 0 0 50 51.1;" xml:space="preserve">
<path id="Path_90" d="M46.4,40.4c-0.4-3.8-3.5-6.6-7.3-6.7c-2.3,0-4.5,1.2-5.9,3.1c-0.3,0-0.5-0.1-0.8-0.1c-2.2,0-4,1.4-4.7,3.5
	c-1.8,1.1-2.8,3-2.8,5c0,3.2,2.5,5.8,5.7,5.8c0,0,0,0,0,0h14.1c3,0,5.4-2.5,5.3-5.5C50,43.3,48.5,41.2,46.4,40.4z M44.7,49.2H30.6
	c-2.2,0-3.9-1.8-3.8-4c0-1.5,0.9-2.9,2.2-3.6l0.4-0.2l0.1-0.4c0.3-1.4,1.5-2.4,2.9-2.5c0.3,0,0.6,0.1,0.9,0.2L34,39l0.4-0.6
	c1-1.7,2.8-2.7,4.7-2.7c3,0.1,5.5,2.5,5.5,5.6v0.7l0.7,0.1c2,0.4,3.2,2.4,2.8,4.3C47.7,48,46.3,49.2,44.7,49.2L44.7,49.2z
	 M22.8,37.4h-2.2l-1.3-0.1h-0.8c-0.6,0-1.1-0.1-1.7-0.2h-0.3c-0.6-0.1-1.2-0.1-1.8-0.2h0c-2.7-0.4-5.3-1.1-7.8-2.1l0,0
	c-0.4-0.2-0.7-0.3-1.1-0.5l-0.1-0.1C5.3,34.1,5,34,4.7,33.8l-0.2-0.1c-0.2-0.1-0.4-0.3-0.7-0.4l-0.2-0.2c-0.2-0.1-0.3-0.3-0.5-0.4
	l-0.2-0.2c-0.1-0.1-0.2-0.2-0.3-0.4l-0.2-0.3c-0.1-0.1-0.1-0.2-0.2-0.3c0-0.1-0.1-0.2-0.1-0.3c0-0.1-0.1-0.2-0.1-0.3
	c0-0.1-0.1-0.3-0.1-0.4v-7.5l0.1,0.1c0.2,0.2,0.4,0.3,0.6,0.5c3.4,2.6,10.3,4.6,20.3,4.6s16.8-2,20.2-4.6c0.3-0.2,0.5-0.4,0.8-0.6
	l0,0V31c0,0.5,0.4,0.9,0.9,0.9c0.5,0,0.9-0.4,0.9-0.9c0,0,0,0,0-0.1V8.2c0-0.2-0.1-0.3-0.1-0.4C44.4,3.8,36.5,0,22.8,0
	S1.2,3.8,0.1,7.8C0,7.9,0,8,0,8.2v33.7c0,0.1,0,0.3,0.1,0.4c1,4.4,9.7,7,18.1,7.6h0.1c0.5,0,0.9-0.4,0.9-0.9c0-0.5-0.4-0.9-0.9-0.9
	l0,0c-10.1-0.8-16-3.8-16.4-6.4c0,0,0-0.1,0-0.1V34L2,34.1c0.2,0.2,0.4,0.3,0.6,0.5c3.4,2.6,10.2,4.6,20.2,4.6
	c0.5,0,0.9-0.4,0.9-0.9C23.7,37.8,23.4,37.4,22.8,37.4C22.8,37.4,22.8,37.4,22.8,37.4L22.8,37.4z M2.4,12.6C2.7,12.8,3,13,3.3,13.2
	l0.2,0.1c0.3,0.2,0.5,0.3,0.8,0.5L4.7,14c0.3,0.2,0.7,0.3,1,0.5l0.1,0.1c0.4,0.2,0.9,0.4,1.3,0.5l0.4,0.1l1.2,0.4l0.4,0.1
	c0.5,0.1,1.1,0.3,1.7,0.4l0.2,0.1c0.5,0.1,1,0.2,1.6,0.3l0.6,0.1l1.6,0.2l0.4,0.1c0.7,0.1,1.4,0.2,2.1,0.2h0.5l1.8,0.1h6.2l1.8-0.1
	h0.5c0.7-0.1,1.4-0.1,2.1-0.2l0.4-0.1l1.6-0.2l0.6-0.1c0.5-0.1,1.1-0.2,1.6-0.3l0.2-0.1c0.6-0.1,1.1-0.3,1.7-0.4l0.4-0.1
	c0.4-0.1,0.8-0.2,1.2-0.4l0.4-0.1c0.5-0.2,0.9-0.3,1.4-0.5l0.2-0.1c0.4-0.2,0.7-0.3,1-0.5l0.3-0.2c0.3-0.2,0.6-0.3,0.8-0.5l0.2-0.1
	c0.3-0.2,0.6-0.4,0.9-0.6l0.2-0.2l0.4-0.3v7.5c0,0.2,0,0.3-0.1,0.4c0,0.1-0.1,0.2-0.1,0.3c0,0.1-0.1,0.2-0.1,0.3
	c-0.1,0.1-0.2,0.2-0.2,0.3L43,21.2c-0.1,0.1-0.2,0.2-0.3,0.4l-0.2,0.2c-0.1,0.1-0.3,0.3-0.5,0.4l-0.2,0.2c-0.2,0.1-0.4,0.3-0.7,0.4
	l-0.2,0.1c-0.3,0.2-0.6,0.3-0.9,0.5l-0.1,0.1c-0.3,0.2-0.7,0.3-1.1,0.5l0,0c-2.5,1-5.1,1.6-7.8,2h0c-0.6,0.1-1.2,0.2-1.8,0.2h-0.3
	c-0.5,0.1-1.1,0.1-1.7,0.2h-0.8L25,26.4h-4.4l-1.3-0.1h-0.8c-0.6,0-1.1-0.1-1.7-0.2h-0.3c-0.6-0.1-1.2-0.1-1.8-0.2h0
	c-2.7-0.4-5.3-1.1-7.8-2.1l0,0c-0.4-0.2-0.7-0.3-1.1-0.5l-0.1-0.1c-0.3-0.1-0.6-0.3-0.9-0.5l-0.2-0.1c-0.2-0.1-0.4-0.3-0.7-0.4
	l-0.2-0.2c-0.2-0.1-0.3-0.3-0.5-0.4l-0.3-0.2c-0.1-0.1-0.2-0.2-0.3-0.4L2.3,21c-0.1-0.1-0.1-0.2-0.2-0.3c0-0.1-0.1-0.2-0.1-0.3
	c0-0.1-0.1-0.2-0.1-0.3c0-0.1-0.1-0.3-0.1-0.4v-7.5l0.4,0.3L2.4,12.6z M22.8,1.8c12.4,0,21,3.6,21,6.8s-8.6,6.8-21,6.8
	s-21-3.6-21-6.8S10.4,1.8,22.8,1.8z"/>
</svg>
