<svg id="Layer_1" data-name="Layer 1" xmlns="http://www.w3.org/2000/svg" viewBox="0 0 31.56 31.55"><defs><style>.cls-1{fill:#f87d08}</style></defs><title>Artboard 1</title><path class="cls-1" d="M27.64 17H14.57V3.91a.5.5 0 0 0-.5-.5 14.07 14.07 0 1 0 14.07 14.07.5.5 0 0 0-.5-.48zM14.07 30.55a13.07 13.07 0 0 1-.5-26.13v13.06a.5.5 0 0 0 .5.5h13.06a13.08 13.08 0 0 1-13.06 12.57z"/><path class="cls-1" d="M17.49 0a.5.5 0 0 0-.5.5v13.57a.5.5 0 0 0 .5.5h13.57a.5.5 0 0 0 .5-.5A14.08 14.08 0 0 0 17.49 0zM18 13.57V1a13.09 13.09 0 0 1 12.55 12.57z"/></svg>