<svg xmlns="http://www.w3.org/2000/svg" viewBox="4059 463 50 51.048">
  <defs>
    <style>
      .cls-1 {
        fill: #fff;
      }
    </style>
  </defs>
  <path id="Path_90" data-name="Path 90" class="cls-1" d="M46.933,40.419a7.393,7.393,0,0,0-7.293-6.682,7.293,7.293,0,0,0-5.861,3.1,4.658,4.658,0,0,0-.8-.073,4.886,4.886,0,0,0-4.667,3.473,5.861,5.861,0,0,0-2.844,5.014,5.734,5.734,0,0,0,5.706,5.8H45.247a5.406,5.406,0,0,0,5.333-5.469A5.469,5.469,0,0,0,46.933,40.419Zm-1.686,8.806H31.163a3.911,3.911,0,0,1-3.838-3.974,4.02,4.02,0,0,1,2.206-3.592l.4-.191.091-.428a3.063,3.063,0,0,1,2.944-2.452,2.926,2.926,0,0,1,.912.155l.711.237.374-.647a5.4,5.4,0,0,1,4.7-2.735,5.579,5.579,0,0,1,5.469,5.579v.738l.729.137a3.646,3.646,0,0,1-.638,7.211ZM23.369,37.374H21.154l-1.3-.073h-.8a14.671,14.671,0,0,1-1.686-.155h-.319q-.912-.1-1.823-.237h-.046a35.4,35.4,0,0,1-7.83-2.087h0c-.383-.155-.738-.31-1.085-.474l-.119-.055c-.31-.146-.593-.3-.866-.456l-.219-.109c-.237-.137-.447-.283-.656-.419l-.237-.164c-.173-.128-.328-.255-.483-.392l-.237-.219q-.178-.178-.328-.356l-.2-.273a3.4,3.4,0,0,1-.21-.337,2.817,2.817,0,0,1-.128-.273,2.234,2.234,0,0,1-.109-.3,1.978,1.978,0,0,1-.073-.447V23.054l.082.073c.2.173.4.346.629.52,3.446,2.6,10.31,4.613,20.264,4.613S40.16,26.253,43.579,23.7a9.28,9.28,0,0,0,.757-.62h0v7.912a.912.912,0,1,0,1.823,0V8.2a.911.911,0,0,0-.137-.447C44.964,3.847,37.107,0,23.369,0S1.765,3.847.708,7.757A.912.912,0,0,0,.58,8.2V41.932a.857.857,0,0,0,.109.41c1.039,4.4,9.745,7,18.058,7.621h.073a.912.912,0,1,0,.064-1.823C8.757,47.383,2.85,44.293,2.476,41.759a1.039,1.039,0,0,0,0-.119V33.992l.082.073c.2.173.4.346.629.52,3.364,2.6,10.228,4.613,20.182,4.613a.912.912,0,1,0,0-1.823ZM2.95,12.58a8.371,8.371,0,0,0,.912.638l.21.128q.4.246.848.492l.337.173q.5.255,1.048.492l.128.082c.428.182.912.356,1.349.52l.4.137,1.167.365.438.128c.538.146,1.085.292,1.659.419l.246.055c.51.109,1.039.219,1.577.31l.556.091,1.6.237.419.055c.675.082,1.376.155,2.106.21h.547l1.768.1h6.162l1.768-.1h.547c.72-.064,1.422-.128,2.106-.21l.419-.055,1.6-.246.556-.091c.547-.091,1.076-.2,1.586-.31l.246-.055c.574-.128,1.13-.273,1.659-.419l.438-.128q.6-.173,1.167-.365l.4-.137c.474-.164.912-.337,1.358-.52l.173-.082Q41,14.257,41.5,14l.337-.173q.447-.237.848-.492l.21-.128c.319-.21.611-.419.912-.638l.2-.164.356-.292V19.6a1.969,1.969,0,0,1-.073.447,2.2,2.2,0,0,1-.109.328,2.617,2.617,0,0,1-.128.273,3.09,3.09,0,0,1-.246.319l-.2.255q-.15.178-.328.356l-.237.219c-.146.128-.3.255-.483.392l-.237.164c-.21.146-.419.283-.656.419l-.191.109c-.273.155-.556.3-.857.456l-.119.055c-.337.164-.7.319-1.085.474h0a35.287,35.287,0,0,1-7.8,1.978h-.046q-.912.137-1.823.237h-.319c-.547.055-1.112.109-1.686.155h-.8l-1.358.2h-4.43l-1.3-.073h-.8a14.672,14.672,0,0,1-1.686-.155h-.319q-.912-.1-1.823-.237h-.046a35.4,35.4,0,0,1-7.821-2.087h0c-.383-.155-.738-.31-1.085-.474l-.119-.055c-.31-.146-.593-.3-.866-.456l-.219-.109c-.237-.137-.447-.283-.656-.419l-.237-.164c-.173-.128-.328-.255-.483-.392L3.442,21.6q-.178-.178-.328-.356l-.2-.273a3.4,3.4,0,0,1-.21-.337,2.817,2.817,0,0,1-.128-.273,2.233,2.233,0,0,1-.109-.3,1.978,1.978,0,0,1-.073-.447V12.115l.356.292ZM23.369,1.823c12.361,0,20.966,3.646,20.966,6.837S35.73,15.5,23.369,15.5,2.4,11.85,2.4,8.66,10.99,1.823,23.369,1.823Z" transform="translate(4058.42 463)"/>
</svg>
