<svg id="Layer_1" data-name="Layer 1" xmlns="http://www.w3.org/2000/svg" viewBox="0 0 255.74 179.01"><defs><style>.cls-1{fill:#00a1e0}</style></defs><title>Artboard 1</title><path class="cls-1" d="M164.87 78.1a10.72 10.72 0 0 1 1.4 5.93 10.79 10.79 0 0 1-1.41 6 4.71 4.71 0 0 1-4.26 2.08 4.65 4.65 0 0 1-4.24-2.11 10.92 10.92 0 0 1-1.36-6 10.82 10.82 0 0 1 1.38-5.93A4.67 4.67 0 0 1 160.6 76a4.73 4.73 0 0 1 4.27 2.1zm-93 6.8a30.41 30.41 0 0 0-4-.34c-3 0-4.31 1.07-4.3 1.07a3.24 3.24 0 0 0-1.32 2.87 3.58 3.58 0 0 0 .44 1.93 3 3 0 0 0 .86.88s1.33 1 4.35.87a30.11 30.11 0 0 0 4-.53zM101 76a4.72 4.72 0 0 0-4.24 2.15 8.66 8.66 0 0 0-1.2 3.5h10.57a7.37 7.37 0 0 0-1-3.5A4.61 4.61 0 0 0 101 76zm118.72 0a4.72 4.72 0 0 0-4.24 2.15 8.61 8.61 0 0 0-1.2 3.5h10.57a7.33 7.33 0 0 0-1-3.5 4.6 4.6 0 0 0-4.14-2.15zm36 3.91c0 30.72-24.69 55.62-55.13 55.62a54.74 54.74 0 0 1-10.86-1.08A40.3 40.3 0 0 1 136.94 151a46 46 0 0 1-85.48-2.08 42.18 42.18 0 0 1-8.77.91 43.22 43.22 0 0 1-21.35-80.5 49.67 49.67 0 0 1 85.08-49.81A44.81 44.81 0 0 1 138.86 5.6 45.28 45.28 0 0 1 178.31 29a54.52 54.52 0 0 1 22.3-4.74c30.45-.01 55.13 24.89 55.13 55.6zm-201 8.84c0-4.15-3.68-5.66-7.13-6.75l-.45-.15c-2.6-.85-4.85-1.57-4.85-3.29v-.09c0-1.46 1.31-2.54 3.34-2.54a15.13 15.13 0 0 1 6.67 1.7s.51.33.69-.16c.1-.26 1-2.62 1.07-2.87a.49.49 0 0 0-.26-.59 14.88 14.88 0 0 0-7.52-2h-.52c-4.8 0-8.15 2.9-8.15 7.06v.09c0 4.38 3.7 5.8 7.16 6.79l.56.17c2.52.78 4.7 1.44 4.7 3.22v.09c0 1.62-1.41 2.83-3.69 2.83a12.41 12.41 0 0 1-6.76-1.95c-.37-.21-.58-.37-.87-.54a.42.42 0 0 0-.69.24l-1 2.87c-.16.42.06.51.11.58a15 15 0 0 0 1.46.88 15.57 15.57 0 0 0 7.65 1.79c5.25 0 8.5-2.79 8.5-7.28zm21.82 5.44v-13.6c0-3-.79-5.18-2.36-6.54S70.37 72 67.41 72a24.39 24.39 0 0 0-4 .37S60.2 73 58.87 74a.46.46 0 0 0-.13.59l1 2.82a.37.37 0 0 0 .48.24 1.92 1.92 0 0 0 .24-.12A15 15 0 0 1 67 76.06a6 6 0 0 1 3.66 1c.81.62 1.22 1.56 1.22 3.53v.63c-1.28-.18-2.44-.29-2.44-.29-.6 0-1.38-.07-2.31-.07a14.06 14.06 0 0 0-3.65.47 9.52 9.52 0 0 0-3.1 1.44 6.92 6.92 0 0 0-2.94 5.86 7.75 7.75 0 0 0 .65 3.37A6.1 6.1 0 0 0 60 94.29a8.1 8.1 0 0 0 3 1.31 17.71 17.71 0 0 0 4 .4 26.76 26.76 0 0 0 4.5-.38c1.45-.25 3.24-.61 3.73-.72l1-.27a.47.47 0 0 0 .35-.48zm9.61-30.72a.43.43 0 0 0-.43-.45h-3.88a.43.43 0 0 0-.42.45v31.59a.43.43 0 0 0 .42.45h3.93a.43.43 0 0 0 .43-.45zm24.1 15.07A9.2 9.2 0 0 0 108.4 75a8.71 8.71 0 0 0-2.81-2.15 10.84 10.84 0 0 0-4.25-.86 11.58 11.58 0 0 0-4.89 1A9.73 9.73 0 0 0 93 75.58a10.68 10.68 0 0 0-2 3.85 16.77 16.77 0 0 0-.65 4.73 15.85 15.85 0 0 0 .65 4.73 9.52 9.52 0 0 0 5.88 6.24 14.93 14.93 0 0 0 5.38.87c4.28 0 6.54-1 7.46-1.48.16-.09.32-.25.12-.71l-1-2.71a.43.43 0 0 0-.56-.26 14.3 14.3 0 0 1-6.09 1.09 7 7 0 0 1-5.07-1.74c-1.1-1.09-1.63-2.68-1.73-4.93h14.82a.44.44 0 0 0 .43-.39 15.86 15.86 0 0 0-.35-6.37zm21.27 10.3v-.09c0-4.15-3.68-5.66-7.13-6.75l-.45-.15c-2.6-.85-4.85-1.57-4.85-3.29v-.09c0-1.46 1.31-2.54 3.34-2.54a15.12 15.12 0 0 1 6.67 1.7s.51.33.69-.16c.1-.26 1-2.62 1.07-2.87a.49.49 0 0 0-.26-.59 14.88 14.88 0 0 0-7.52-2h-.52c-4.8 0-8.15 2.9-8.15 7.06v.09c0 4.38 3.7 5.8 7.16 6.79l.56.17c2.52.78 4.7 1.44 4.7 3.22v.09c0 1.62-1.42 2.83-3.7 2.83a12.41 12.41 0 0 1-6.76-1.95c-.37-.21-.59-.36-.86-.54a.45.45 0 0 0-.69.24l-1 2.87c-.16.42.06.51.11.58a15 15 0 0 0 1.46.88 15.57 15.57 0 0 0 7.65 1.79c5.26-.05 8.52-2.84 8.52-7.33zM149.5 73c0-.3-.09-.48-.48-.48h-4.74a20.57 20.57 0 0 1 .78-3.34 4.37 4.37 0 0 1 1-1.58 3.11 3.11 0 0 1 1.24-.77 5.16 5.16 0 0 1 1.59-.23 6.22 6.22 0 0 1 1.22.12c.46.1.64.15.76.19.48.15.55 0 .64-.23l1.13-3.11a.4.4 0 0 0-.27-.52 12.72 12.72 0 0 0-1.46-.35 11.6 11.6 0 0 0-2-.15 8.49 8.49 0 0 0-6.28 2.25 12.25 12.25 0 0 0-3 6.73l-.18 1h-3.37a.5.5 0 0 0-.5.43l-.49 3.04c0 .29.09.48.48.48h3.28L135.52 95a23 23 0 0 1-.89 3.65 7.47 7.47 0 0 1-1 2.11 2.76 2.76 0 0 1-1.36 1 5.52 5.52 0 0 1-1.75.25 6.55 6.55 0 0 1-1.19-.13 3.51 3.51 0 0 1-.8-.26.41.41 0 0 0-.54.24c-.12.32-1 2.72-1.1 3a.45.45 0 0 0 .23.59 12.13 12.13 0 0 0 1.36.4 9 9 0 0 0 2.17.2 10.86 10.86 0 0 0 3.64-.56 6.87 6.87 0 0 0 2.74-1.91 9.78 9.78 0 0 0 1.92-3.32 28.17 28.17 0 0 0 1.3-5l3.34-18.9h4.88A.5.5 0 0 0 149 76zm21.79 11a16.53 16.53 0 0 0-.64-4.71 10.54 10.54 0 0 0-2-3.8 9.63 9.63 0 0 0-3.36-2.49 12.19 12.19 0 0 0-9.39 0 9.68 9.68 0 0 0-3.37 2.56 10.71 10.71 0 0 0-2 3.8 17.6 17.6 0 0 0 0 9.41 10.6 10.6 0 0 0 2 3.8 9.4 9.4 0 0 0 3.36 2.54 12.46 12.46 0 0 0 9.39 0 9.4 9.4 0 0 0 3.36-2.54 10.54 10.54 0 0 0 2-3.8 16.54 16.54 0 0 0 .65-4.77zm17.45-11.31a12.86 12.86 0 0 0-2.48-.43 7.38 7.38 0 0 0-3.82.62 6.74 6.74 0 0 0-2.51 1.85V73a.43.43 0 0 0-.43-.45h-3.8a.43.43 0 0 0-.43.45v22.06a.45.45 0 0 0 .45.45h3.89a.45.45 0 0 0 .45-.45V84a12.94 12.94 0 0 1 .49-3.89 5.6 5.6 0 0 1 1.3-2.18 4.55 4.55 0 0 1 1.83-1.1 7.14 7.14 0 0 1 2-.28 8.32 8.32 0 0 1 1.63.2c.28 0 .44-.14.54-.4.26-.68 1-2.71 1.11-3.11a.4.4 0 0 0-.21-.52zm18.94 21.64l-1.07-3a.41.41 0 0 0-.56-.27 10.06 10.06 0 0 1-2 .58 15.83 15.83 0 0 1-2.4.17 6.67 6.67 0 0 1-5-1.88c-1.21-1.25-1.89-3.26-1.88-6a9.28 9.28 0 0 1 1.68-5.77 5.72 5.72 0 0 1 4.86-2.14 14.55 14.55 0 0 1 4.63.66s.35.15.51-.3c.38-1.06.67-1.83 1.07-3a.39.39 0 0 0-.27-.51 17.08 17.08 0 0 0-2.92-.74A21.92 21.92 0 0 0 201 72a11.91 11.91 0 0 0-4.88.94 10.11 10.11 0 0 0-3.53 2.55 10.87 10.87 0 0 0-2.13 3.8 15.15 15.15 0 0 0-.71 4.71 12.61 12.61 0 0 0 2.91 8.72c1.94 2.16 4.85 3.25 8.65 3.25a17.82 17.82 0 0 0 6.2-1.11.4.4 0 0 0 .17-.51zM229 78.5a9.21 9.21 0 0 0-1.9-3.47 8.71 8.71 0 0 0-2.81-2.15 10.84 10.84 0 0 0-4.25-.86 11.56 11.56 0 0 0-4.89 1 9.73 9.73 0 0 0-3.41 2.6 10.68 10.68 0 0 0-2 3.85 16.64 16.64 0 0 0-.65 4.73 15.86 15.86 0 0 0 .67 4.73 9.52 9.52 0 0 0 5.88 6.24A14.93 14.93 0 0 0 221 96c4.28 0 6.54-1 7.46-1.48.16-.09.32-.25.12-.71l-1-2.71a.43.43 0 0 0-.56-.26 14.31 14.31 0 0 1-6.02 1.09 7 7 0 0 1-5.07-1.74c-1.1-1.09-1.63-2.68-1.73-4.93H229a.44.44 0 0 0 .43-.39 15.9 15.9 0 0 0-.43-6.37z"/></svg>