<svg id="Layer_1" data-name="Layer 1" xmlns="http://www.w3.org/2000/svg" viewBox="0 0 12.82 12.62"><defs><style>.cls-1{fill:#fff}</style></defs><title>success-white</title><path class="cls-1" d="M12.32 2H10.6V1h.35a.5.5 0 0 0 0-1H1.87a.5.5 0 0 0 0 1h.35v1H.5a.5.5 0 0 0-.5.5v1.35a2.26 2.26 0 0 0 2.25 2.26 4.18 4.18 0 0 0 3.66 3.33v2.15H3.29a.5.5 0 0 0 0 1h6.24a.5.5 0 0 0 0-1H6.91V9.44a4.18 4.18 0 0 0 3.61-3.33 2.26 2.26 0 0 0 2.25-2.25V2.47a.5.5 0 0 0-.45-.47zM1 3.85V3h1.22v2.1A1.25 1.25 0 0 1 1 3.85zm5.41 4.64A3.19 3.19 0 0 1 3.22 5.3V1H9.6v4.3a3.19 3.19 0 0 1-3.19 3.19zm5.41-4.63A1.25 1.25 0 0 1 10.6 5.1V3h1.22z"/><path class="cls-1" d="M7.53 3.76l-.64-.09-.29-.59a.21.21 0 0 0-.38 0l-.29.58-.64.09a.21.21 0 0 0-.12.36l.46.45-.11.64a.21.21 0 0 0 .31.22l.57-.3.57.3a.21.21 0 0 0 .31-.22l-.08-.51a.21.21 0 0 1 .06-.19l.38-.37a.21.21 0 0 0-.11-.37z"/></svg>