<svg xmlns="http://www.w3.org/2000/svg" viewBox="435.671 3706.424 59.183 40.371">
  <path id="Path_50" data-name="Path 50" d="M70.183,23.564H11V16.47H70.183Zm-.744.655H11.744v7.534H69.438V24.22m.744-.655v8.807H11V23.564Zm-.744,8.807H11.744v7.5H69.438v-7.5m.744-.655V40.53H11V31.753Zm-.744,8.807H11.744v7.511H69.438v-7.5m.744-.655v8.814H11V39.875Zm-.744,8.807H11.744v7.511H69.438v-7.5m.744-.655v8.807H11V48.034Zm-.521-23.822H29.507v7.541H69.662V24.22m.521-.655v8.807H28.993V23.564Zm-.521,8.807H29.507v7.5H69.662v-7.5m.521-.655V40.53H28.993V31.753Zm-.521,8.807H29.507v7.511H69.662v-7.5m.521-.655v8.814H28.993V39.875Zm-.521,8.807H29.507v7.511H69.662v-7.5m.521-.655v8.807H28.993V48.034Zm-.35-23.822H42.5v7.541H69.811V24.22m.372-.655v8.807H42.14V23.564Zm-.372,8.807H42.5v7.5H69.811v-7.5m.372-.618V40.53H42.14V31.753Zm-.372,8.777H42.5v7.5H69.811v-7.5m.35-.655v8.814H42.14V39.875Zm-.35,8.814H42.5v7.5H69.811v-7.5m.35-.655v8.807H42.14V48.034Zm-.194-23.822H55.078v7.541H69.967V24.22m.216-.655v8.807H54.922V23.564Zm-.194,8.807H55.1v7.5H69.989v-7.5m.194-.618V40.53H54.922V31.753Zm-.194,8.807H55.1v7.474H69.989v-7.5m.194-.655v8.814H54.922V39.875Zm-.194,8.807H55.1v7.511H69.989v-7.5m.194-.655v8.807H54.922V48.034Z" transform="translate(424.671 3689.954)"/>
</svg>
