<svg id="Layer_1" data-name="Layer 1" xmlns="http://www.w3.org/2000/svg" viewBox="0 0 366.95 79.43"><defs><style>.cls-1{fill:#383939}.cls-2{fill:#686868}.cls-3{fill:#db6d3c}</style></defs><title>TinderBox-Logo-Dark</title><path class="cls-1" d="M50.44 30.89a8.75 8.75 0 0 0-8.75-8.74H8.75A8.75 8.75 0 0 0 0 30.89v5.26h9.31v-3.48a1.62 1.62 0 0 1 1.78-1.78h8.83v39.89h-3.47v8.66H34v-8.67h-3.48V30.89h8.83a1.62 1.62 0 0 1 1.78 1.78v3.48h9.31v-5.26zM114 70.77a1.62 1.62 0 0 1-1.81-1.77V46.88a8.75 8.75 0 0 0-8.75-8.75h-7.26a8.75 8.75 0 0 0-8.7 7.8h-.1a8.75 8.75 0 0 0-8.69-7.8H72.2v8.74h3.24a1.58 1.58 0 0 1 1.78 1.78v30.78h10.2V48.62a1.58 1.58 0 0 1 1.78-1.78h11a1.58 1.58 0 0 1 1.8 1.78v22.07a8.75 8.75 0 0 0 8.75 8.75h5.6l1.24-8.66H114zm44.61 0a1.58 1.58 0 0 1-1.78-1.77V30.89a8.75 8.75 0 0 0-8.75-8.74h-6.48v8.74h3.24a1.58 1.58 0 0 1 1.78 1.78v5.47H130a8.75 8.75 0 0 0-8.75 8.75v23.8a8.75 8.75 0 0 0 8.75 8.74h7.83a8.75 8.75 0 0 0 8.69-7.8h.11a8.75 8.75 0 0 0 8.7 7.8H161l1.24-8.66h-3.59zm-12-1.78a1.58 1.58 0 0 1-1.78 1.78h-11.56a1.58 1.58 0 0 1-1.78-1.77V48.62a1.58 1.58 0 0 1 1.78-1.78h13.36V69zm-76.8 1.78v8.66H52.68v-8.65h3.46V48.62a1.58 1.58 0 0 0-1.78-1.78h-1.81v-8.7h5a8.71 8.71 0 0 1 8.75 8.7v23.93h3.46zm-3.47-48.63h-10.2v10.2h10.2v-10.2zm163.2 16a8.75 8.75 0 0 0-8.7 7.8h-.11a8.75 8.75 0 0 0-8.69-7.8h-6.48v8.74h3.24a1.58 1.58 0 0 1 1.78 1.78v22.1h-3.34v8.66h16.53v-8.65h-3V48.66a1.58 1.58 0 0 1 1.78-1.78h13.51l1.24-8.75h-7.76zm-37.94 0h-16.55a8.75 8.75 0 0 0-8.75 8.75v23.8a8.75 8.75 0 0 0 8.75 8.75h23.25l1.59-8.66h-21.6a1.58 1.58 0 0 1-1.78-1.78v-5.21h15.09a8.75 8.75 0 0 0 8.75-8.79v-8.12a8.75 8.75 0 0 0-8.75-8.74zm-1.45 15.13a1.58 1.58 0 0 1-1.78 1.73h-11.86v-6.38a1.58 1.58 0 0 1 1.78-1.78h10.08a1.58 1.58 0 0 1 1.78 1.78v4.65z"/><path class="cls-2" d="M273.45 49.25v-.11c4 0 7.8-3.72 7.8-8.69v-9.57a8.74 8.74 0 0 0-8.75-8.74h-34.73v8.66h5v40h-5v8.66h36.09a8.74 8.74 0 0 0 8.75-8.74V57.95c-.01-6-4.73-8.7-9.16-8.7zm-20-18.44h15.87a1.59 1.59 0 0 1 1.68 1.78v10.47a1.58 1.58 0 0 1-1.78 1.78H253.4v-14zM272.4 69a1.58 1.58 0 0 1-1.78 1.78H253.4V53.54h17.23a1.59 1.59 0 0 1 1.78 1.78V69zm90.39 1.73a2.56 2.56 0 0 1-2.44-1.14l-7.52-11.35 13.3-20.11h-11.89L347 49.35l-4.49-7.12a9.13 9.13 0 0 0-7.4-4.09h-6.7v8.7h3.74a2.57 2.57 0 0 1 2.48 1.16l6.7 10.1-14.11 21.33h11.88l8-12.43 5.3 8.34a9.13 9.13 0 0 0 7.4 4.09h5.89l1.24-8.7h-4.16zm-47.52-32.57a23.74 23.74 0 0 1-7.84 3.94 12.17 12.17 0 0 1-1.53.94 4.67 4.67 0 0 0-.12-.68 24.5 24.5 0 0 1-8.67-4.21 8.74 8.74 0 0 0-8.48 8.73v23.8a8.75 8.75 0 0 0 8.75 8.75h17.48a8.74 8.74 0 0 0 8.75-8.75v-23.8a8.74 8.74 0 0 0-8.34-8.72zM313.4 69a1.58 1.58 0 0 1-1.78 1.78h-11a1.58 1.58 0 0 1-1.79-1.78V48.62a1.58 1.58 0 0 1 1.78-1.78h11a1.58 1.58 0 0 1 1.78 1.78V69z"/><path class="cls-3" d="M320.55 26.11c-.68-7.86-3.88-11-3.88-11a10.84 10.84 0 0 1-1.75 4.31 9.88 9.88 0 0 1-3.49 3.29s3.09-5.37.32-13.86A12.82 12.82 0 0 0 301.44 0a5.68 5.68 0 0 1 2.31 4.94c0 9.41-10.44 10.92-11.62 21.76-1.24 11.39 11.48 15.12 13.65 15.67a10.89 10.89 0 0 0-1.56-3.42c-1.54-2.32-4.57-3.68-4.57-9.38 0-6.38 5.82-8.79 5.82-8.79a7.06 7.06 0 0 0 1 4.82c1.77 2.5 5.61 2.52 5.61 8.63 0 4-2.8 6.59-4.62 7.88 3.71-1.11 14.04-5.11 13.09-16z"/></svg>