<svg xmlns="http://www.w3.org/2000/svg" viewBox="0 0 366.95 79.43"><path fill="#FFF" d="M50.44 36.15h-9.31v-3.48c0-1.13-.65-1.78-1.78-1.78h-8.83v39.88h3.46v8.66H16.45v-8.66h3.46V30.88h-8.83c-1.13 0-1.78.65-1.78 1.78v3.48H0v-5.26c0-4.83 3.92-8.74 8.75-8.74H41.7c4.83 0 8.75 3.92 8.75 8.74-.01 2.29-.01 5.27-.01 5.27zm63.53 34.62c-1.13 0-1.78-.65-1.78-1.78V46.88c0-4.83-3.92-8.74-8.75-8.74h-7.26c-4.51 0-8.22 3.42-8.69 7.8h-.11a8.737 8.737 0 0 0-8.69-7.8h-6.48v8.74h3.24c1.13 0 1.78.57 1.78 1.78v30.77h10.19V48.62c0-1.22.65-1.78 1.78-1.78h11.01c1.13 0 1.78.56 1.78 1.78v22.07c0 4.83 3.92 8.74 8.75 8.74h5.6l1.24-8.66h-3.61zm48.24 0l-1.24 8.66h-5.6c-4.51 0-8.22-3.42-8.69-7.8h-.11a8.737 8.737 0 0 1-8.69 7.8h-7.83c-4.83 0-8.75-3.92-8.75-8.74V46.88c0-4.83 3.92-8.74 8.75-8.74h16.59v-5.47c0-1.21-.65-1.78-1.78-1.78h-3.24v-8.74h6.48c4.83 0 8.75 3.92 8.75 8.74v38.1c0 1.22.65 1.78 1.78 1.78h3.58zm-15.58-23.93h-13.36c-1.13 0-1.78.56-1.78 1.78v20.37c0 1.22.65 1.78 1.78 1.78h11.57c1.13 0 1.78-.56 1.78-1.78V46.84zM66.34 70.77V46.84c0-4.83-3.91-8.7-8.75-8.7h-5.05v8.7h1.81c1.13 0 1.78.56 1.78 1.78v22.16h-3.46v8.66H69.8v-8.66h-3.46zm0-38.43h-10.2v-10.2h10.2v10.2zm163.2 5.8c-4.51 0-8.22 3.42-8.7 7.8h-.11a8.737 8.737 0 0 0-8.69-7.8h-6.48v8.74h3.24c1.13 0 1.78.57 1.78 1.78v22.1h-3.34v8.66h16.53v-8.66h-2.99v-22.1c0-1.22.65-1.78 1.78-1.78h13.51l1.24-8.74h-7.77zm-29.19 8.75v8.16c0 4.83-3.91 8.74-8.75 8.74h-15.09v5.19c0 1.22.65 1.78 1.78 1.78h21.6l-1.59 8.66h-23.24c-4.83 0-8.75-3.92-8.75-8.74v-23.8c0-4.83 3.92-8.74 8.75-8.74h16.54c4.83 0 8.75 3.92 8.75 8.75zm-10.2 1.73c0-1.22-.65-1.78-1.78-1.78h-10.08c-1.13 0-1.78.56-1.78 1.78v6.43h11.86c1.13 0 1.78-.57 1.78-1.78v-4.65zm92.45 9.33v12.74c0 4.83-3.91 8.74-8.75 8.74h-36.09v-8.66h5.02V30.81h-5.02v-8.66h34.73c4.83 0 8.75 3.92 8.75 8.74v9.56c0 4.97-3.79 8.69-7.8 8.69v.11c4.44 0 9.16 2.7 9.16 8.7zm-29.2-13.1h15.87c1.13 0 1.78-.57 1.78-1.78V32.59c0-1.22-.65-1.78-1.78-1.78H253.4v14.04zm19 10.47c0-1.22-.65-1.78-1.78-1.78h-17.23v17.23h17.23c1.13 0 1.78-.56 1.78-1.78V55.32zm90.39 15.42c-1.37 0-1.96-.44-2.44-1.14l-7.52-11.35 13.3-20.11h-11.88l-7.2 11.21-4.49-7.12c-1.55-2.46-4.57-4.09-7.4-4.09h-6.7v8.7h3.74c1.37 0 1.96.45 2.44 1.14l6.7 10.1-14.11 21.36h11.88L347.12 67l5.3 8.34c1.55 2.46 4.57 4.09 7.4 4.09h5.89l1.24-8.7h-4.16zM323.6 46.88v23.8c0 4.83-3.91 8.74-8.74 8.74h-17.48c-4.83 0-8.75-3.92-8.75-8.74v-23.8c0-4.74 3.77-8.59 8.48-8.73 3.43 2.74 7.53 3.92 8.67 4.21.1.43.12.68.12.68s.65-.32 1.53-.94c1.77-.52 5.01-1.69 7.84-3.94 4.64.22 8.33 4.04 8.33 8.72zm-10.2 1.74c0-1.22-.65-1.78-1.78-1.78h-11.01c-1.13 0-1.78.56-1.78 1.78v20.33c0 1.22.65 1.78 1.78 1.78h11.01c1.13 0 1.78-.56 1.78-1.78V48.62zm7.16-22.5c-.68-7.86-3.88-11.03-3.88-11.03s-.29 2.23-1.74 4.31c-1.74 2.49-3.49 3.29-3.49 3.29s3.09-5.37.32-13.86C309.13.77 301.44 0 301.44 0s2.31 1.38 2.31 4.94c0 9.41-10.44 10.93-11.62 21.76-1.24 11.39 11.48 15.12 13.65 15.67-.17-.72-.59-1.95-1.56-3.42-1.54-2.32-4.57-3.68-4.57-9.38 0-6.38 5.82-8.79 5.82-8.79s-.5 2.74.97 4.82c1.77 2.5 5.61 2.52 5.61 8.63 0 3.95-2.8 6.59-4.62 7.88 3.75-1.11 14.07-5.13 13.13-15.99z"/></svg>