<svg id="Layer_1" data-name="Layer 1" xmlns="http://www.w3.org/2000/svg" viewBox="0 0 19 19"><defs><style>.cls-1{fill:none;stroke:#000}</style></defs><title>twitter</title><path d="M16.25 6.2a5.81 5.81 0 0 1-1.48.4 2.45 2.45 0 0 0 1.1-1.42 5.14 5.14 0 0 1-1.6.62 2.54 2.54 0 0 0-4.39 1.77 2.6 2.6 0 0 0 .06.58 7.26 7.26 0 0 1-5.29-2.69 2.74 2.74 0 0 0-.33 1.29 2.53 2.53 0 0 0 1.12 2.13 2.3 2.3 0 0 1-1.15-.32 2.58 2.58 0 0 0 2 2.52 2.4 2.4 0 0 1-.67.08 2.82 2.82 0 0 1-.48 0 2.5 2.5 0 0 0 2.38 1.73A5.16 5.16 0 0 1 4.39 14h-.6a7.17 7.17 0 0 0 3.91 1.13A7.21 7.21 0 0 0 15 7.86v-.34a5.34 5.34 0 0 0 1.25-1.32z"/><path class="cls-1" d="M18.5 9.5a9 9 0 1 1-9-9 9 9 0 0 1 9 9z"/></svg>