<svg id="Layer_1" data-name="Layer 1" xmlns="http://www.w3.org/2000/svg" viewBox="0 0 16.24 11"><defs><style>.cls-1{fill:#ed4c06}</style></defs><title>whitepaper</title><path class="cls-1" d="M15.74 2.17h-1.42V.5a.5.5 0 0 0-.5-.5h-3.5a2.69 2.69 0 0 0-2.2 1.14A2.69 2.69 0 0 0 5.93 0H2.42a.5.5 0 0 0-.5.5v1.67H.5a.5.5 0 0 0-.5.5v7.56a.5.5 0 0 0 .5.5h4.84a.5.5 0 1 0 0-1H1V3.17h.92v5.14a.5.5 0 0 0 .5.5h3.5a1.7 1.7 0 0 1 1.7 1.69.5.5 0 0 0 1 0 1.7 1.7 0 0 1 1.69-1.69h3.5a.5.5 0 0 0 .5-.5V3.17h.92v6.56H10.9a.5.5 0 1 0 0 1h4.84a.5.5 0 0 0 .5-.5V2.67a.5.5 0 0 0-.5-.5zM7.62 8.41a2.68 2.68 0 0 0-1.69-.6h-3V1h3a1.7 1.7 0 0 1 1.69 1.69zm5.7-.6h-3a2.69 2.69 0 0 0-1.69.6V2.69A1.7 1.7 0 0 1 10.32 1h3z"/></svg>