<svg xmlns="http://www.w3.org/2000/svg" xmlns:xlink="http://www.w3.org/1999/xlink" viewBox="0 0 400 356.78">
  <defs>
    <style>.cls-1{fill:url(#linear-gradient);}.cls-2{fill:url(#linear-gradient-2);}.cls-3{fill:#303030;}.cls-4{fill:url(#linear-gradient-3);}.cls-5{fill:url(#linear-gradient-4);}</style>
  <linearGradient id="linear-gradient" x1="181.94" y1="297.9" x2="345.12" y2="135.61" gradientTransform="matrix(1, 0, 0, -1, 0, 356)" gradientUnits="userSpaceOnUse">
    <stop offset="0" stop-color="#ec5024"/>
  <stop offset="1" stop-color="#905ba5"/>
  </linearGradient>
  <linearGradient id="linear-gradient-2" x1="113.35" y1="240.01" x2="329.5" y2="28.92" gradientTransform="matrix(1, 0, 0, -1, 0, 356)" gradientUnits="userSpaceOnUse">
    <stop offset="0" stop-color="#41b0d7"/>
  <stop offset="1" stop-color="#905ba5"/>
  </linearGradient>
  <linearGradient id="linear-gradient-3" x1="86.49" y1="142.12" x2="212.47" y2="20.45" gradientTransform="matrix(1, 0, 0, -1, 0, 356)" gradientUnits="userSpaceOnUse">
    <stop offset="0" stop-color="#fde003"/>
  <stop offset="1" stop-color="#ec5024"/>
  </linearGradient>
  <linearGradient id="linear-gradient-4" x1="283.18" y1="336.3" x2="342.89" y2="277.53" gradientTransform="matrix(1, 0, 0, -1, 5.76, 375.98)" gradientUnits="userSpaceOnUse">
    <stop offset="0" stop-color="#32ab4a"/>
  <stop offset="1" stop-color="#41b0d7"/>
  </linearGradient>
</defs>
<title>404</title>
<path class="cls-1" d="M327.45,231.26a27.11,27.11,0,0,1-19.18-7.88L133,46.77a27.5,27.5,0,0,1,0-38.58,26.87,26.87,0,0,1,38-.63l.37.36L346.63,184.25a27.5,27.5,0,0,1,0,38.58A25.55,25.55,0,0,1,327.45,231.26Z"/>
<path class="cls-2" d="M327.45,356.78a27.11,27.11,0,0,1-19.18-7.88L7.9,46.77a27.5,27.5,0,0,1,0-38.58,27,27,0,0,1,38.18-.45l.45.45,300.1,301.87a27.5,27.5,0,0,1,0,38.58A26.29,26.29,0,0,1,327.45,356.78Z"/>
<path class="cls-3" d="M122.63,184.07h-15v31.34H72.28V184.07H12.67V157.59l47.69-82.1h47.25v79.89h15v28.69ZM72.28,155.38V139.49q0-3.53.11-7.83t.33-8.72q.22-4.41.44-8.72t.44-7.83h-.87q-2.65,6.4-5.52,12.58t-6,12.58L48.44,155.38Z"/>
<path class="cls-3" d="M206.34,216.84a71.38,71.38,0,1,1,71.42-71.38A71.38,71.38,0,0,1,206.34,216.84Zm0-113a41.74,41.74,0,1,0,41.76,41.74,41.74,41.74,0,0,0-41.76-41.74Z"/>
<path class="cls-3" d="M400,184.07H385v31.34H349.66V184.07H290V157.59l47.69-82.1H385v79.89h15Zm-50.34-28.69V139.49q0-3.53.11-7.83t.33-8.72q.22-4.41.44-8.72t.44-7.83h-.88q-2.65,6.4-5.52,12.58t-6,12.58l-12.81,23.83h23.89Z"/>
<path class="cls-4" d="M171.05,304.83a1.19,1.19,0,0,1,1.68-1.68,1.17,1.17,0,0,1,.17,1.42,29.32,29.32,0,0,0,2.74-2.4,27,27,0,0,0,3.06-3.72,1.17,1.17,0,0,1-.94-.33,1.19,1.19,0,0,1,1.68-1.68,1.17,1.17,0,0,1,.27.42,27.5,27.5,0,0,0,3.77-15.47,1.17,1.17,0,0,1-.23.35,1.19,1.19,0,1,1,0-1.68h0a1.15,1.15,0,0,1,.18.28,27.7,27.7,0,0,0-.73-4.15,1.15,1.15,0,0,1-.22-.9,27,27,0,0,0-6.84-11.71l-83.2-83.41a26.77,26.77,0,0,0-8.33-5.67,1.21,1.21,0,1,1-1.61-.63,27.17,27.17,0,0,0-8-1.58,1.15,1.15,0,0,1-.28.51,1.19,1.19,0,0,1-1.68,0,1.15,1.15,0,0,1-.29-.53,27.3,27.3,0,0,0-3.39.33,1.17,1.17,0,0,1-.13,1.48,1.19,1.19,0,0,1-1.68,0,1.16,1.16,0,0,1-.31-1,27,27,0,0,0-3.18,1,1.18,1.18,0,1,1-2.16.94A26.72,26.72,0,0,0,49.26,186.8a1.16,1.16,0,0,1,.64.31,1.18,1.18,0,0,1-1.58,1.74,27.31,27.31,0,0,0-1.22,3.63,1.17,1.17,0,0,1,1.51.11A1.19,1.19,0,0,1,47,194.2a1.15,1.15,0,0,1-.19-.29,27.73,27.73,0,0,0-.49,3.74,1.21,1.21,0,1,1-.07,2.29,27.31,27.31,0,0,0,6.2,17,1.15,1.15,0,0,1,1.19,1.33c.17.18.32.37.49.55l2.33,2.35a1.14,1.14,0,0,1,1.35,1.36l2.82,2.83A1.14,1.14,0,0,1,62,226.68l2.8,2.82a1.14,1.14,0,0,1,1.39,1.4L69,233.7a1.14,1.14,0,0,1,1.41,1.41l44.49,44.75a1.17,1.17,0,0,1,1.56,1.57l2.62,2.63a1.17,1.17,0,0,1,1.56,1.57l2.61,2.63a1.16,1.16,0,0,1,1.57,1.58l2.61,2.62A1.16,1.16,0,0,1,129,294l2.6,2.62a1.16,1.16,0,0,1,1.58,1.59l2.6,2.61a1.16,1.16,0,0,1,1.59,1.59,26,26,0,0,0,2.91,2.48,1.14,1.14,0,0,1,1.45,1,27.08,27.08,0,0,0,7.3,3.3,1.16,1.16,0,0,1,.3-1.07,1.19,1.19,0,0,1,1.68,0,1.17,1.17,0,0,1,.07,1.57,27.47,27.47,0,0,0,5.47.56,26.36,26.36,0,0,0,15.7-5.2A1.17,1.17,0,0,1,171.05,304.83ZM94.75,186.66a1.19,1.19,0,1,1,0,1.68h0A1.19,1.19,0,0,1,94.75,186.66Zm-1.23,5.42a1.19,1.19,0,1,1,0,1.68h0A1.19,1.19,0,0,1,93.52,192.08Zm-3-9.61a1.19,1.19,0,1,1,0,1.68h0a1.19,1.19,0,0,1,0-1.68Zm-1.23,5.42a1.19,1.19,0,1,1,0,1.68h0a1.19,1.19,0,0,1,0-1.68Zm.39,5.48a1.19,1.19,0,1,1-1.68,0h0a1.18,1.18,0,0,1,1.67-.05l.05.05Zm-1.23,7.09a1.19,1.19,0,1,1,0-1.68h0a1.19,1.19,0,0,1,0,1.68Zm-2.13-22.18a1.19,1.19,0,1,1,0,1.68h0a1.19,1.19,0,0,1,.05-1.68Zm-1.23,5.42a1.19,1.19,0,1,1,0,1.68h0a1.19,1.19,0,0,1,.05-1.68Zm-1.29,5.48a1.19,1.19,0,1,1,0,1.68h0a1.19,1.19,0,0,1,.05-1.68Zm.45,5.42a1.19,1.19,0,1,1-1.68,0h0a1.18,1.18,0,0,1,1.67-.07l.06.06Zm-3,7.16a1.19,1.19,0,1,1,1.68,0h0a1.18,1.18,0,0,1-1.6,0Zm.45,5.42a1.19,1.19,0,1,1,0-1.68h0a1.19,1.19,0,0,1,.09,1.66Zm-.84-27.66a1.19,1.19,0,1,1,0,1.68h0a1.19,1.19,0,0,1,.08-1.68h-.08ZM79.66,185a1.19,1.19,0,1,1,0,1.68h0A1.19,1.19,0,0,1,79.66,185Zm.45,5.42a1.19,1.19,0,1,1-1.68,0h0a1.18,1.18,0,0,1,1.67,0h0Zm-9.67,13.86a1.19,1.19,0,1,1,1.68,0h0a1.18,1.18,0,0,1-1.67,0l0,0Zm.45,5.42a1.19,1.19,0,1,1,0-1.68h0a1.19,1.19,0,0,1,0,1.66Zm.84-10.9a1.19,1.19,0,1,1,1.68,0h0a1.18,1.18,0,0,1-1.67,0l0,0Zm1.68,13.41a1.19,1.19,0,1,1,0,1.68h0a1.19,1.19,0,0,1,0-1.68l0,0Zm1.23-3.74a1.19,1.19,0,1,1,1.68,0h0a1.18,1.18,0,0,1-1.67,0l0,0ZM75.92,203a1.19,1.19,0,1,1,1.68,0h0a1.18,1.18,0,0,1-1.67,0Zm1.23-5.42a1.19,1.19,0,1,1,1.68,0h0a1.18,1.18,0,0,1-1.67,0l0,0Zm-.39-22.24a1.19,1.19,0,1,1,0,1.68h0a1.19,1.19,0,0,1,0-1.68l0,0Zm-1.29,5.48a1.19,1.19,0,1,1,0,1.68h0a1.19,1.19,0,0,1,0-1.68l0,0Zm-1.23,5.42a1.19,1.19,0,1,1,0,1.68h0a1.19,1.19,0,0,1,0-1.68l0,0Zm.39,5.48a1.19,1.19,0,1,1-1.68,0h0a1.18,1.18,0,0,1,1.67,0h0Zm-3.35-15.09a1.19,1.19,0,1,1,0,1.68h0a1.19,1.19,0,0,1,0-1.68l0,0ZM70,182a1.19,1.19,0,1,1,0,1.68h0A1.19,1.19,0,0,1,70,182Zm-1.29,5.48a1.19,1.19,0,1,1,0,1.68h0a1.19,1.19,0,0,1,.05-1.66Zm.45,5.42a1.19,1.19,0,1,1-1.68,0h0a1.18,1.18,0,0,1,1.67,0l.06.06Zm-3,7.16a1.19,1.19,0,1,1,1.68,0h0a1.18,1.18,0,0,1-1.6,0Zm.45,5.42a1.19,1.19,0,1,1,0-1.68h0a1.19,1.19,0,0,1,.09,1.68h-.09Zm-.84-27.66a1.19,1.19,0,1,1,0,1.68h0a1.19,1.19,0,0,1,.09-1.67Zm-1.29,5.48a1.19,1.19,0,1,1,0,1.68h0a1.19,1.19,0,0,1,.09-1.67Zm-1.23,5.42a1.19,1.19,0,1,1,0,1.68h0a1.19,1.19,0,0,1,.09-1.67Zm.39,5.48a1.19,1.19,0,1,1-1.68,0h0a1.18,1.18,0,0,1,1.67-.1l.1.1Zm-1.14,7.1a1.19,1.19,0,1,1,0-1.68h0A1.19,1.19,0,0,1,62.5,201.3Zm-2.13-22.18a1.19,1.19,0,1,1,0,1.68h0A1.19,1.19,0,0,1,60.37,179.12Zm-1.23,5.42a1.19,1.19,0,1,1,0,1.68h0a1.19,1.19,0,0,1,0-1.68h0ZM57.86,190a1.19,1.19,0,1,1,0,1.68h0A1.19,1.19,0,0,1,57.86,190Zm.45,5.42a1.19,1.19,0,1,1-1.68,0h0a1.18,1.18,0,0,1,1.67,0h0ZM55,180.34A1.19,1.19,0,1,1,55,182l0,0A1.19,1.19,0,0,1,55,180.34Zm-1.29,5.48a1.19,1.19,0,1,1,0,1.68h0a1.19,1.19,0,0,1,0-1.68Zm-1.23,5.42a1.19,1.19,0,1,1,0,1.68h0a1.19,1.19,0,0,1,0-1.68Zm-2.13,18.05a1.19,1.19,0,1,1,0-1.68h0a1.19,1.19,0,0,1,0,1.68Zm1.29-5.48a1.19,1.19,0,1,1,0-1.68h0a1.19,1.19,0,0,1,0,1.68Zm-.45-5.42a1.19,1.19,0,1,1,1.68,0h0a1.18,1.18,0,0,1-1.67.06l-.05-.05Zm3.35,15.09a1.19,1.19,0,1,1,0-1.68h0a1.19,1.19,0,0,1,0,1.68ZM55.79,208a1.19,1.19,0,1,1,0-1.68h0A1.19,1.19,0,0,1,55.79,208Zm-.45-5.42a1.19,1.19,0,1,1,1.68,0h0a1.18,1.18,0,0,1-1.67,0h0Zm3.35,15.09a1.19,1.19,0,1,1,0-1.68h0a1.19,1.19,0,0,1,0,1.68ZM60,212.19a1.19,1.19,0,1,1,0-1.68h0A1.19,1.19,0,0,1,60,212.19Zm-.45-5.42a1.19,1.19,0,1,1,1.68,0h0a1.18,1.18,0,0,1-1.67,0l0,0Zm3.35,15.09a1.19,1.19,0,1,1,0-1.68h0a1.19,1.19,0,0,1,0,1.68Zm1.29-5.48a1.19,1.19,0,1,1,0-1.68h0a1.19,1.19,0,0,1,0,1.68ZM63.73,211a1.19,1.19,0,1,1,1.68,0h0a1.18,1.18,0,0,1-1.67,0Zm3.35,15.09a1.19,1.19,0,1,1,0-1.68h0a1.19,1.19,0,0,1,0,1.64Zm1.29-5.48a1.19,1.19,0,1,1,0-1.68h0a1.19,1.19,0,0,1,0,1.64Zm-.45-5.42a1.19,1.19,0,1,1,1.68,0h0a1.18,1.18,0,0,1-1.67,0h0Zm3.35,15.09a1.19,1.19,0,1,1,0-1.68h0a1.06,1.06,0,0,1,.35,1.53.27.27,0,0,1-.35.11Zm1.29-5.48a1.19,1.19,0,1,1,0-1.68h0a1.19,1.19,0,0,1,0,1.64Zm-.45-5.42a1.19,1.19,0,1,1,1.68,0h0a1.18,1.18,0,0,1-1.67,0h0Zm3.35,15.09a1.19,1.19,0,1,1,0-1.68h0a1.19,1.19,0,0,1,0,1.64Zm1.3-5.47a1.19,1.19,0,1,1,0-1.68h0A1.19,1.19,0,0,1,76.76,229ZM78,223.54a1.19,1.19,0,1,1,0-1.68h0A1.19,1.19,0,0,1,78,223.54Zm1.29-5.48a1.19,1.19,0,1,1,0-1.68h0a1.19,1.19,0,0,1,0,1.68Zm-.45-5.42a1.19,1.19,0,1,1,1.68,0h0a1.18,1.18,0,0,1-1.67,0l0,0Zm3.35,15.09a1.19,1.19,0,1,1,0-1.68h0a1.19,1.19,0,0,1,0,1.68Zm1.29-5.48a1.19,1.19,0,1,1,0-1.68h0a1.19,1.19,0,0,1,0,1.68Zm1.23-5.42a1.19,1.19,0,1,1,0-1.68h0a1.19,1.19,0,0,1,0,1.68ZM86,211.35a1.19,1.19,0,1,1,0-1.68h0A1.19,1.19,0,0,1,86,211.35Zm-.45-5.42a1.19,1.19,0,1,1,1.68,0h0a1.18,1.18,0,0,1-1.67,0l0,0ZM88.88,221a1.19,1.19,0,1,1,0-1.68h0A1.19,1.19,0,0,1,88.88,221Zm1.29-5.48a1.19,1.19,0,1,1,0-1.68h0a1.19,1.19,0,0,1,0,1.68l0,0Zm1.23-5.42a1.19,1.19,0,1,1,0-1.68h0a1.19,1.19,0,0,1,0,1.68l0,0Zm1.29-5.48a1.19,1.19,0,1,1,0-1.68h0a1.19,1.19,0,0,1,0,1.68l0,0Zm-.45-5.42a1.19,1.19,0,1,1,1.68,0h0a1.18,1.18,0,0,1-1.67.05l0,0Zm3.35,15.09a1.19,1.19,0,1,1,0-1.68h0c.26.4,0,1.11,0,1.71Zm1.29-5.48a1.19,1.19,0,1,1,0-1.68h0c.31.42.1,1.14,0,1.71Zm1.23-5.42a1.19,1.19,0,1,1,0-1.68h0a1.19,1.19,0,0,1,0,1.68l0,0Zm1.29-5.48a1.19,1.19,0,1,1,0-1.68h0a1.19,1.19,0,0,1,0,1.68l0,0ZM99,192.49a1.19,1.19,0,1,1,1.68,0h0a1.18,1.18,0,0,1-1.67.06l0,0Zm3.35,15.09a1.19,1.19,0,1,1,0-1.68h0a1.62,1.62,0,0,1,0,1.71Zm1.29-5.48a1.19,1.19,0,1,1,0-1.68h0a1.27,1.27,0,0,1,0,1.71Zm1.23-5.42a1.19,1.19,0,1,1,0-1.68h0a1.19,1.19,0,0,1,0,1.68l0,0Zm4.19,4.19a1.19,1.19,0,1,1,0-1.68h0a1.19,1.19,0,0,1,0,1.68l0,0Zm12.58,79.62a1.19,1.19,0,1,1,0-1.68h0a1.19,1.19,0,0,1,0,1.68l0,0Zm1.29-5.48a1.19,1.19,0,1,1,0-1.68h0a1.19,1.19,0,0,1,0,1.67Zm47.79,9.22a1.19,1.19,0,1,1,1.68,0h0a1.18,1.18,0,0,1-1.67.06l0,0ZM174,299.35a1.19,1.19,0,1,1,0-1.68h0A1.19,1.19,0,0,1,174,299.35Zm1.23-5.42a1.19,1.19,0,1,1,0-1.68h0a1.19,1.19,0,0,1,0,1.68h0Zm1.29-5.48a1.19,1.19,0,1,1,0-1.68h0a1.19,1.19,0,0,1,0,1.68h0Zm4.19,4.19a1.19,1.19,0,1,1,0-1.68h0a1.19,1.19,0,0,1,0,1.68h0Zm1.23-7.09a1.19,1.19,0,1,1-1.68,0h0a1.18,1.18,0,0,1,1.67-.06l.07.07Zm-3.35-15.09a1.19,1.19,0,1,1,0,1.68h0a1.19,1.19,0,0,1,0-1.67Zm-1.23,5.42a1.19,1.19,0,1,1,0,1.68h0a1.19,1.19,0,0,1,0-1.67Zm.39,5.48a1.19,1.19,0,1,1-1.68,0h0a1.18,1.18,0,0,1,1.67,0l0,0Zm-3.35-15.09a1.19,1.19,0,1,1,0,1.68h0a1.19,1.19,0,0,1,0-1.67Zm-1.23,5.42a1.19,1.19,0,1,1,0,1.68h0a1.19,1.19,0,0,1,0-1.67Zm.39,5.48a1.19,1.19,0,1,1-1.68,0h0a1.18,1.18,0,0,1,1.67,0l0,0Zm-3.35-15.09a1.19,1.19,0,1,1,0,1.68h0a1.18,1.18,0,0,1,0-1.67ZM169,267.51a1.19,1.19,0,1,1,0,1.68h0A1.19,1.19,0,0,1,169,267.51Zm.39,5.48a1.19,1.19,0,1,1-1.68,0h0a1.18,1.18,0,0,1,1.66,0Zm-2.9,7.09a1.19,1.19,0,1,1,1.68,0h0a1.18,1.18,0,0,1-1.67,0l0,0Zm.39,5.48a1.19,1.19,0,1,1,0-1.68h0a1.19,1.19,0,0,1,0,1.68ZM166,257.9a1.19,1.19,0,1,1,0,1.68h0A1.19,1.19,0,0,1,166,257.9Zm-1.23,5.42a1.19,1.19,0,1,1,0,1.68h0a1.19,1.19,0,0,1,0-1.68Zm.39,5.48a1.19,1.19,0,1,1-1.68,0h0a1.18,1.18,0,0,1,1.67,0l0,0Zm-19.28,10.9a1.19,1.19,0,1,1,1.68,0h0a1.18,1.18,0,0,1-1.66,0Zm.45,5.42a1.19,1.19,0,1,1,0-1.68h0a1.19,1.19,0,0,1,0,1.67Zm.84-10.9a1.19,1.19,0,1,1,1.68,0h0a1.18,1.18,0,0,1-1.66,0Zm1.23-5.42a1.19,1.19,0,1,1,1.68,0h0a1.18,1.18,0,0,1-1.67,0h0Zm1.68,13.41a1.19,1.19,0,1,1,0,1.68h0a1.19,1.19,0,0,1,0-1.68h0Zm1.29-3.8a1.19,1.19,0,1,1,1.68,0h0a1.18,1.18,0,0,1-1.67,0h0ZM152.6,273a1.19,1.19,0,1,1,1.68,0h0a1.18,1.18,0,0,1-1.67,0h0Zm1.29-7.16a1.19,1.19,0,1,1,0,1.68h0a1.19,1.19,0,0,1,0-1.68Zm.39,20.57a1.19,1.19,0,1,1,0,1.68h0a1.19,1.19,0,0,1,0-1.68h0Zm1.29-3.8a1.19,1.19,0,1,1,1.68,0h0a1.18,1.18,0,0,1-1.67,0h0Zm1.23-5.42a1.19,1.19,0,1,1,1.68,0h0a1.18,1.18,0,0,1-1.67,0h0Zm1.29-5.48a1.19,1.19,0,1,1,1.68,0h0a1.18,1.18,0,0,1-1.67,0h0Zm1.68,13.41a1.19,1.19,0,1,1,0,1.68h0a1.19,1.19,0,0,1,0-1.68Zm1.23-3.74a1.19,1.19,0,1,1,1.68,0h0a1.18,1.18,0,0,1-1.67,0h0Zm1.29-5.48a1.19,1.19,0,1,1,1.68,0h0a1.18,1.18,0,0,1-1.67,0l0,0Zm-.45-22.18a1.19,1.19,0,1,1,0,1.68h0a1.19,1.19,0,0,1,0-1.68Zm-1.23,5.42a1.19,1.19,0,1,1,0,1.68h0a1.19,1.19,0,0,1,0-1.68h0Zm.39,5.47a1.19,1.19,0,1,1-1.68,0h0a1.18,1.18,0,0,1,1.67,0Zm-3.35-15.09a1.19,1.19,0,1,1,0,1.68h0a1.19,1.19,0,0,1,0-1.67Zm-1.23,5.42a1.19,1.19,0,1,1,0,1.68h0a1.19,1.19,0,0,1,0-1.68Zm.39,5.48a1.19,1.19,0,1,1-1.68,0h0a1.18,1.18,0,0,1,1.67,0h0Zm-3.35-15.09a1.19,1.19,0,1,1,0,1.68h0a1.19,1.19,0,0,1,0-1.67Zm-1.23,5.42a1.19,1.19,0,1,1,0,1.68h0a1.19,1.19,0,0,1,0-1.68Zm-1.29,5.48a1.19,1.19,0,1,1,0,1.68h0a1.19,1.19,0,0,1,0-1.68Zm.45,5.42a1.19,1.19,0,1,1-1.68,0h0a1.18,1.18,0,0,1,1.67,0h0ZM148,246.55a1.19,1.19,0,1,1,0,1.68h0A1.19,1.19,0,0,1,148,246.55ZM146.74,252a1.19,1.19,0,1,1,0,1.68h0A1.19,1.19,0,0,1,146.74,252Zm-1.23,5.42a1.19,1.19,0,1,1,0,1.68h0a1.54,1.54,0,0,1,0-1.65Zm-1.29,5.48a1.19,1.19,0,1,1,0,1.68h0a1.4,1.4,0,0,1,0-1.65Zm.45,5.42a1.19,1.19,0,1,1-1.68,0h0a1.18,1.18,0,0,1,1.67,0h0Zm-3,7.16a1.19,1.19,0,1,1,1.68,0h0a1.18,1.18,0,0,1-1.64,0Zm.45,5.42a1.19,1.19,0,1,1,0-1.68h0a1.19,1.19,0,0,1,.06,1.68l0,0Zm-.84-27.66a1.19,1.19,0,1,1,0,1.68h0a1.19,1.19,0,0,1,0-1.66Zm-1.28,5.5a1.19,1.19,0,1,1,0,1.68h0A1.19,1.19,0,0,1,140,258.74Zm-1.23,5.42a1.19,1.19,0,1,1,0,1.68h0a1.19,1.19,0,0,1,0-1.68h0Zm-1.29,5.48a1.19,1.19,0,1,1,0,1.68h0a1.19,1.19,0,0,1,0-1.68h0ZM138,275a1.19,1.19,0,1,1-1.68,0h0a1.18,1.18,0,0,1,1.67,0Zm-3.39-15a1.19,1.19,0,1,1,0,1.68h0A1.19,1.19,0,0,1,134.61,260Zm-1.29,5.48a1.19,1.19,0,1,1,0,1.68h0a1.19,1.19,0,0,1,0-1.68l0,0Zm-1.23,5.42a1.19,1.19,0,1,1,0,1.68h0a1.37,1.37,0,0,1,0-1.72Zm-4.19-4.19a1.19,1.19,0,1,1,0,1.68h0c-.23-.38.17-1.1,0-1.72Zm-2.13,18a1.19,1.19,0,1,1,0-1.68h0a1.72,1.72,0,0,1,0,1.64Zm1.29-5.48a1.19,1.19,0,1,1,0-1.68h0a1.19,1.19,0,0,1,0,1.64Zm-.45-5.42a1.19,1.19,0,1,1,1.68,0h0a1.18,1.18,0,0,1-1.67,0h0ZM130,288.91a1.19,1.19,0,1,1,0-1.68h0A1.19,1.19,0,0,1,130,288.91Zm1.29-5.48a1.19,1.19,0,1,1,0-1.68h0a1.19,1.19,0,0,1,0,1.68ZM130.8,278a1.19,1.19,0,1,1,1.68,0h0a1.18,1.18,0,0,1-1.67,0Zm3.35,15.09a1.19,1.19,0,1,1,0-1.68h0a1.19,1.19,0,0,1,0,1.68h0Zm1.29-5.48a1.19,1.19,0,1,1,0-1.68h0a1.19,1.19,0,0,1,0,1.68h0ZM135,282.2a1.19,1.19,0,1,1,1.68,0h0a1.18,1.18,0,0,1-1.67,0Zm3.35,15.09a1.19,1.19,0,1,1,0-1.68h0A1.19,1.19,0,0,1,138.35,297.29Zm1.29-5.48a1.19,1.19,0,1,1,0-1.68h0A1.19,1.19,0,0,1,139.64,291.81Zm-.45-5.42a1.19,1.19,0,1,1,1.68,0h0a1.18,1.18,0,0,1-1.67,0h0Zm3.35,15.09a1.19,1.19,0,1,1,0-1.68h0a1.66,1.66,0,0,1,0,1.68Zm1.29-5.48a1.19,1.19,0,1,1,0-1.68h0a1.19,1.19,0,0,1,0,1.68Zm-.45-5.42a1.19,1.19,0,1,1,1.68,0h0a1.18,1.18,0,0,1-1.67,0h0Zm3.35,15.09a1.19,1.19,0,1,1,0-1.68h0a1.19,1.19,0,0,1,0,1.68Zm1.29-5.48a1.19,1.19,0,1,1,0-1.68h0a1.19,1.19,0,0,1,0,1.68Zm1.23-5.42a1.19,1.19,0,1,1,0-1.68h0a1.19,1.19,0,0,1,0,1.68h0Zm-.39-5.48a1.19,1.19,0,1,1,1.68,0h0a1.18,1.18,0,0,1-1.67,0h0Zm3.35,15.09a1.19,1.19,0,1,1,0-1.68h0a1.19,1.19,0,0,1,0,1.68Zm1.23-5.42a1.19,1.19,0,1,1,0-1.68h0a1.19,1.19,0,0,1,0,1.68l0,0Zm-.39-5.48a1.19,1.19,0,1,1,1.68,0h0a1.18,1.18,0,0,1-1.67,0h0Zm3.35,15.09a1.19,1.19,0,1,1,0-1.68h0a1.19,1.19,0,0,1,0,1.68Zm1.23-5.42a1.19,1.19,0,1,1,0-1.68h0a1.19,1.19,0,0,1,0,1.68h0Zm1.29-5.48a1.19,1.19,0,1,1,0-1.68h0a1.19,1.19,0,0,1,0,1.68h0Zm-.45-5.42a1.19,1.19,0,1,1,1.68,0h0a1.18,1.18,0,0,1-1.67,0h0Zm3.35,15.09a1.19,1.19,0,1,1,0-1.68h0a1.19,1.19,0,0,1,0,1.68h0Zm1.29-5.48a1.19,1.19,0,1,1,0-1.68h0a1.19,1.19,0,0,1,0,1.68h0Zm1.23-5.42a1.19,1.19,0,1,1,0-1.68h0a1.19,1.19,0,0,1,0,1.68h0ZM164,291a1.19,1.19,0,1,1,1.68,0h0a1.18,1.18,0,0,1-1.67,0Zm3.35,15.09a1.19,1.19,0,1,1,0-1.68h0a1.19,1.19,0,0,1,0,1.65Zm1.23-5.42a1.19,1.19,0,1,1,0-1.68h0a1.19,1.19,0,0,1,0,1.65Zm1.29-5.48a1.19,1.19,0,1,1,0-1.68h0a1.19,1.19,0,0,1,0,1.65Zm-.45-5.42a1.19,1.19,0,1,1,1.68,0h0a1.18,1.18,0,0,1-1.67,0l-.06-.06Z"/>
<path class="cls-5" d="M348.82,93.63A1.19,1.19,0,0,1,350.49,92a1.15,1.15,0,0,1,.3.61A27.6,27.6,0,0,0,354,72a1.13,1.13,0,0,1-.2-.13,1.17,1.17,0,0,1-.18-1.41A27,27,0,0,0,346.9,59L296.39,8.18A27.45,27.45,0,0,0,283.66.9a1.16,1.16,0,0,1-1-.25A27,27,0,0,0,278.8.12h0a1.19,1.19,0,1,1-1.68,0h0l.16-.1A26.62,26.62,0,0,0,262.6,4.21a1.17,1.17,0,0,1-.19,1.4,1.19,1.19,0,0,1-1.68,0V5.55a26.9,26.9,0,0,0-5.08,5l.09.06a1.18,1.18,0,0,1,0,1.67h0a1.17,1.17,0,0,1-1.46.15,27.57,27.57,0,0,0-4,19.7,1.18,1.18,0,0,1,.44,1.94h0A27,27,0,0,0,257,45.9a1.15,1.15,0,0,1,1.2,1.29l2.9,2.92a1.14,1.14,0,0,1,1.29,1.3l2.88,2.9a1.14,1.14,0,0,1,1.31,1.31l32,32.24a1.15,1.15,0,0,1,1.45,1.46l2.72,2.74a1.16,1.16,0,0,1,1.47,1.48l2.7,2.72a1.16,1.16,0,0,1,1.49,1.48,26.07,26.07,0,0,0,3.2,2.66,1.1,1.1,0,0,1,1,.68A27.09,27.09,0,0,0,320,104.4a1.16,1.16,0,0,1,.32-.71,1.18,1.18,0,0,1,1.94,1.26,27.47,27.47,0,0,0,5.21.5A28,28,0,0,0,343,100.67a1.17,1.17,0,0,1-.91-.33,1.19,1.19,0,1,1,1.94-.4,28.67,28.67,0,0,0,2.86-2.36,27,27,0,0,0,3-3.65A1.17,1.17,0,0,1,348.82,93.63ZM291,7.3A1.19,1.19,0,1,1,291,9a1.19,1.19,0,0,1,0-1.7Zm-1.23,5.42a1.19,1.19,0,1,1,0,1.68h0a1.19,1.19,0,0,1,0-1.68Zm-3-9.61a1.19,1.19,0,1,1,0,1.68h0A1.19,1.19,0,0,1,286.77,3.11Zm-1.23,5.42a1.19,1.19,0,1,1,0,1.68h0a1.19,1.19,0,0,1,0-1.68ZM284.25,14a1.19,1.19,0,1,1,0,1.68h0A1.19,1.19,0,0,1,284.25,14Zm.45,5.42a1.19,1.19,0,1,1-1.68,0h0a1.18,1.18,0,0,1,1.67,0ZM281.35,4.34a1.19,1.19,0,1,1,0,1.68h0A1.19,1.19,0,0,1,281.35,4.34Zm-1.29,5.48a1.19,1.19,0,1,1,0,1.68h0A1.19,1.19,0,0,1,280.06,9.82Zm-1.23,5.42a1.19,1.19,0,1,1,0,1.68h0a1.19,1.19,0,0,1,0-1.68h0Zm.39,5.48a1.19,1.19,0,1,1-1.68,0h0a1.18,1.18,0,0,1,1.67,0h0ZM278,27.8a1.19,1.19,0,1,1,0-1.68h0A1.19,1.19,0,0,1,278,27.8ZM275.87,5.63a1.19,1.19,0,1,1,0,1.68h0A1.19,1.19,0,0,1,275.87,5.63ZM274.64,11a1.19,1.19,0,1,1,0,1.68h0A1.19,1.19,0,0,1,274.64,11Zm.36,5.52a1.19,1.19,0,1,1-1.68,0h0a1.18,1.18,0,0,1,1.67,0Zm-4.19,12.57a1.19,1.19,0,1,1,1.68,0h0a1.18,1.18,0,0,1-1.65,0Zm.45,5.42a1.19,1.19,0,1,1,0-1.68h0a1.19,1.19,0,0,1,0,1.68Zm.84-10.9a1.19,1.19,0,1,1,1.68,0h0a1.18,1.18,0,0,1-1.65,0Zm-.42-22.17a1.19,1.19,0,1,1,0,1.68h0A1.19,1.19,0,0,1,271.68,1.44Zm-1.23,5.42a1.19,1.19,0,1,1,0,1.68h0a1.19,1.19,0,0,1,0-1.68h0Zm-1.29,5.48a1.19,1.19,0,1,1,0,1.68h0a1.19,1.19,0,0,1,0-1.68h0Zm.45,5.42a1.19,1.19,0,1,1-1.68,0h0a1.18,1.18,0,0,1,1.67,0h0Zm-3,7.16a1.19,1.19,0,1,1,1.68,0h0a1.18,1.18,0,0,1-1.65,0Zm.45,5.42a1.19,1.19,0,1,1,0-1.68h0a1.19,1.19,0,0,1,0,1.66Zm-.8-27.68a1.19,1.19,0,1,1,0,1.68h0A1.19,1.19,0,0,1,266.26,2.66ZM265,8.14a1.19,1.19,0,1,1,0,1.68h0A1.19,1.19,0,0,1,265,8.14Zm-1.23,5.42a1.19,1.19,0,1,1,0,1.68h0a1.19,1.19,0,0,1,0-1.68ZM262.45,19a1.19,1.19,0,1,1,0,1.68h0A1.19,1.19,0,0,1,262.45,19Zm.45,5.42a1.19,1.19,0,1,1-1.68,0h0a1.18,1.18,0,0,1,1.67,0h0ZM259.55,9.37a1.19,1.19,0,1,1,0,1.68h0A1.19,1.19,0,0,1,259.55,9.37Zm-1.29,5.48a1.19,1.19,0,1,1,0,1.68h0a1.19,1.19,0,0,1,0-1.68ZM257,20.26a1.19,1.19,0,1,1,0,1.68h0A1.19,1.19,0,0,1,257,20.26Zm-4.19-4.19a1.19,1.19,0,1,1,0,1.68h0a1.19,1.19,0,0,1,0-1.68ZM252,28.64A1.19,1.19,0,1,1,252,27l0,0A1.19,1.19,0,0,1,252,28.64Zm-.45-5.42a1.19,1.19,0,1,1,1.68,0h0a1.18,1.18,0,0,1-1.67,0h0Zm3.35,15.09a1.19,1.19,0,1,1,0-1.68h0a1.19,1.19,0,0,1,0,1.68Zm1.29-5.48a1.19,1.19,0,1,1,0-1.68h0a1.19,1.19,0,0,1,0,1.68Zm-.45-5.42a1.19,1.19,0,1,1,1.68,0h0a1.18,1.18,0,0,1-1.67,0h0ZM259.1,42.5a1.19,1.19,0,1,1,0-1.68h0A1.19,1.19,0,0,1,259.1,42.5Zm1.29-5.5a1.19,1.19,0,1,1,0-1.68h0A1.19,1.19,0,0,1,260.39,37Zm-.45-5.42a1.19,1.19,0,1,1,1.68,0h0a1.18,1.18,0,0,1-1.67,0h0Zm3.35,15.09a1.19,1.19,0,1,1,0-1.68h0a1.19,1.19,0,0,1,0,1.68l0,0Zm1.29-5.48a1.19,1.19,0,1,1,0-1.68h0a1.19,1.19,0,0,1,0,1.68l0,0Zm-.45-5.42a1.19,1.19,0,1,1,1.68,0h0a1.18,1.18,0,0,1-1.67,0h0Zm3.35,15.09a1.19,1.19,0,1,1,0-1.68h0a1.19,1.19,0,0,1,0,1.68l0,0Zm1.29-5.48a1.19,1.19,0,1,1,0-1.68h0a1.19,1.19,0,0,1,0,1.68l0,0ZM268.32,40A1.19,1.19,0,1,1,270,40h0a1.18,1.18,0,0,1-1.67,0Zm3.35,15.09a1.19,1.19,0,1,1,0-1.68h0a1.19,1.19,0,0,1,0,1.66Zm1.33-5.5a1.19,1.19,0,1,1,0-1.68h0A1.19,1.19,0,0,1,273,49.59Zm1.23-5.42a1.19,1.19,0,1,1,0-1.68h0a1.19,1.19,0,0,1,0,1.68h0Zm1.29-5.48a1.19,1.19,0,1,1,0-1.68h0a1.19,1.19,0,0,1,0,1.68h0ZM275,33.28a1.19,1.19,0,1,1,1.68,0h0a1.18,1.18,0,0,1-1.67,0Zm3.35,15.09a1.19,1.19,0,1,1,0-1.68h0a1.19,1.19,0,0,1,0,1.68Zm1.29-5.48a1.19,1.19,0,1,1,0-1.68h0a1.19,1.19,0,0,1,0,1.68Zm1.23-5.42a1.19,1.19,0,1,1,0-1.68h0a1.19,1.19,0,0,1,0,1.68ZM282.19,32a1.19,1.19,0,1,1,0-1.68h0A1.19,1.19,0,0,1,282.19,32Zm-.45-5.42a1.19,1.19,0,1,1,1.68,0h0a1.18,1.18,0,0,1-1.67,0Zm3.35,15.09a1.19,1.19,0,1,1,0-1.68h0A1.19,1.19,0,0,1,285.09,41.67Zm1.29-5.48a1.19,1.19,0,1,1,0-1.68h0A1.19,1.19,0,0,1,286.38,36.19Zm1.23-5.42a1.19,1.19,0,1,1,0-1.68h0a1.19,1.19,0,0,1,0,1.68Zm1.29-5.48a1.19,1.19,0,1,1,0-1.68h0a1.19,1.19,0,0,1,0,1.68Zm-.45-5.42a1.19,1.19,0,1,1,1.68,0h0a1.18,1.18,0,0,1-1.67,0l0,0ZM291.8,35a1.19,1.19,0,1,1,0-1.68h0A1.19,1.19,0,0,1,291.8,35Zm1.29-5.48a1.19,1.19,0,1,1,0-1.68h0a1.19,1.19,0,0,1,0,1.64Zm1.23-5.42a1.19,1.19,0,1,1,0-1.68h0a1.19,1.19,0,0,1,0,1.65Zm1.29-5.48a1.19,1.19,0,1,1,0-1.68h0a1.19,1.19,0,0,1,0,1.65Zm-.45-5.42a1.19,1.19,0,1,1,1.68,0h0a1.18,1.18,0,0,1-1.67,0l0,0Zm3.35,15.09a1.19,1.19,0,1,1,0-1.68h0a1.19,1.19,0,0,1,0,1.65Zm-.39-5.48a1.19,1.19,0,1,1,1.68,0h0a1.18,1.18,0,0,1-1.67,0h0ZM301,84.41a1.19,1.19,0,1,1,0-1.68h0A1.19,1.19,0,0,1,301,84.41Zm0-67a1.19,1.19,0,1,1,0-1.68h0a1.19,1.19,0,0,1,0,1.63ZM351.76,88.2a1.19,1.19,0,1,1,0-1.68h0a1.19,1.19,0,0,1,0,1.63Zm.84-12.57a1.19,1.19,0,1,1,0,1.68h0a1.19,1.19,0,0,1,0-1.68l0,0Zm.4,5.43a1.19,1.19,0,1,1-1.68,0h0A1.18,1.18,0,0,1,353,81ZM349.65,66a1.19,1.19,0,1,1,0,1.68h0A1.19,1.19,0,0,1,349.65,66Zm-1.23,5.42a1.19,1.19,0,1,1,0,1.68h0a1.19,1.19,0,0,1,0-1.68l0,0Zm-3-9.61a1.19,1.19,0,1,1,0,1.68h0a1.19,1.19,0,0,1,0-1.68l0,0Zm-1.23,5.42a1.19,1.19,0,1,1,0,1.68h0a1.19,1.19,0,0,1,0-1.68l0,0Zm.39,5.48a1.19,1.19,0,1,1-1.68,0h0a1.18,1.18,0,0,1,1.67-.09l.05.05Zm-3.35-15.09a1.19,1.19,0,1,1,0,1.68h0a1.19,1.19,0,0,1,0-1.68l0,0ZM340,63a1.19,1.19,0,1,1,0,1.68h0A1.19,1.19,0,0,1,340,63Zm.39,5.48a1.19,1.19,0,1,1-1.68,0h0a1.18,1.18,0,0,1,1.67-.05l.05.05Zm-2.9,7.09a1.19,1.19,0,1,1,1.68,0h0a1.18,1.18,0,0,1-1.64,0Zm.39,5.48a1.19,1.19,0,1,1,0-1.68h0a1.19,1.19,0,0,1,0,1.68h0Zm-.8-27.65a1.19,1.19,0,1,1,0,1.68h0A1.19,1.19,0,0,1,337.08,53.4Zm-1.23,5.42a1.19,1.19,0,1,1,0,1.68h0a1.19,1.19,0,0,1,0-1.68h0Zm.39,5.48a1.19,1.19,0,1,1-1.68,0h0a1.18,1.18,0,0,1,1.67,0h0ZM332,76.87a1.19,1.19,0,1,1,1.68,0h0a1.18,1.18,0,0,1-1.67,0Zm.45,5.42a1.19,1.19,0,1,1,0-1.68h0a1.19,1.19,0,0,1,0,1.67Zm.84-10.9a1.19,1.19,0,1,1,1.68,0h0a1.18,1.18,0,0,1-1.63,0Zm-.45-22.18a1.19,1.19,0,1,1,0,1.68h0a1.19,1.19,0,0,1,0-1.68Zm-1.23,5.42a1.19,1.19,0,1,1,0,1.68h0a1.19,1.19,0,0,1,0-1.68h0Zm-1.29,5.48a1.19,1.19,0,1,1,0,1.68h0a1.19,1.19,0,0,1,0-1.68h0Zm-1.23,5.42a1.19,1.19,0,1,1,0,1.68h0a1.19,1.19,0,0,1,0-1.68h0Zm.44,5.47a1.19,1.19,0,1,1-1.68,0h0a1.18,1.18,0,0,1,1.67,0Zm-2.9,7.09a1.19,1.19,0,1,1,1.68,0h0a1.18,1.18,0,0,1-1.67,0Zm.37,5.48a1.19,1.19,0,1,1,0-1.68h0A1.19,1.19,0,0,1,327,83.57Zm-.84-27.66a1.19,1.19,0,1,1,0,1.68h0a1.19,1.19,0,0,1,0-1.68ZM325,61.33A1.19,1.19,0,1,1,325,63h0A1.19,1.19,0,0,1,325,61.33Zm-1.29,5.48a1.19,1.19,0,1,1,0,1.68h0a1.19,1.19,0,0,1,0-1.68Zm-1.23,5.42a1.19,1.19,0,1,1,0,1.68h0a1.19,1.19,0,0,1,0-1.68h0Zm.39,5.48a1.19,1.19,0,1,1-1.68,0h0a1.18,1.18,0,0,1,1.63,0Zm-3.35-15.09a1.19,1.19,0,1,1,0,1.68h0a1.19,1.19,0,0,1,0-1.68ZM318.24,68a1.19,1.19,0,1,1,0,1.68h0A1.19,1.19,0,0,1,318.24,68ZM317,73.51a1.19,1.19,0,1,1,0,1.68h0A1.19,1.19,0,0,1,317,73.51Zm-1.23,5.42a1.19,1.19,0,1,1,0,1.68h0a1.19,1.19,0,0,1,0-1.68Zm-3-9.61a1.19,1.19,0,1,1,0,1.68h0a1.19,1.19,0,0,1,0-1.68Zm-1.23,5.42a1.19,1.19,0,1,1,0,1.68h0a1.19,1.19,0,0,1,0-1.68Zm-8-54.86a1.19,1.19,0,1,1,0,1.68h0a1.19,1.19,0,0,1,0-1.68h0Zm1.68,68.72a1.19,1.19,0,1,1,0-1.68h0a1.19,1.19,0,0,1,0,1.68Zm1.29-5.48a1.19,1.19,0,1,1,0-1.68h0a1.19,1.19,0,0,1,0,1.68Zm-.45-5.42a1.19,1.19,0,1,1,1.68,0h0a1.18,1.18,0,0,1-1.67,0l0,0Zm3.35,15.09a1.19,1.19,0,1,1,0-1.68h0a1.19,1.19,0,0,1,0,1.68h0Zm1.29-5.48a1.19,1.19,0,1,1,0-1.68h0a1.19,1.19,0,0,1,0,1.68Zm-.45-5.42a1.19,1.19,0,1,1,1.68,0h0a1.18,1.18,0,0,1-1.67,0h0ZM313.6,97a1.19,1.19,0,1,1,0-1.68h0A1.19,1.19,0,0,1,313.6,97Zm1.29-5.48a1.19,1.19,0,1,1,0-1.68h0a1.19,1.19,0,0,1,0,1.66Zm-.45-5.42a1.19,1.19,0,1,1,1.68,0h0a1.18,1.18,0,0,1-1.67,0h0Zm3.35,15.09a1.19,1.19,0,1,1,0-1.68h0a1.19,1.19,0,0,1,0,1.66Zm1.29-5.48a1.19,1.19,0,1,1,0-1.68h0a1.2,1.2,0,0,1,0,1.66Zm1.23-5.42a1.19,1.19,0,1,1,0-1.68h0a1.18,1.18,0,0,1,0,1.66Zm-.39-5.48a1.19,1.19,0,1,1,1.68,0h0a1.18,1.18,0,0,1-1.67,0h0Zm3.35,15.09a1.19,1.19,0,1,1,0-1.68h0a1.2,1.2,0,0,1,0,1.66Zm1.23-5.42a1.19,1.19,0,1,1,0-1.68h0a1.19,1.19,0,0,1,0,1.66ZM324.11,89a1.19,1.19,0,1,1,1.68,0h0a1.18,1.18,0,0,1-1.67,0Zm3.35,15.09a1.19,1.19,0,1,1,0-1.68h0a1.19,1.19,0,0,1,0,1.66Zm1.23-5.42a1.19,1.19,0,1,1,0-1.68h0a1.19,1.19,0,0,1,0,1.67ZM330,93.18a1.19,1.19,0,1,1,0-1.68h0A1.19,1.19,0,0,1,330,93.18Zm-.45-5.42a1.19,1.19,0,1,1,1.68,0h0a1.18,1.18,0,0,1-1.67,0l0,0Zm3.35,15.09a1.19,1.19,0,1,1,0-1.68h0a1.19,1.19,0,0,1,0,1.68Zm1.29-5.48a1.19,1.19,0,1,1,0-1.68h0a1.19,1.19,0,0,1,0,1.68ZM335.4,92a1.19,1.19,0,1,1,0-1.68h0A1.19,1.19,0,0,1,335.4,92Zm-.4-5.53a1.19,1.19,0,1,1,1.68,0h0a1.18,1.18,0,0,1-1.67,0Zm3.35,15.09a1.19,1.19,0,1,1,0-1.68h0a1.19,1.19,0,0,1,0,1.68Zm1.23-5.42a1.19,1.19,0,1,1,0-1.68h0a1.19,1.19,0,0,1,0,1.68Zm1.29-5.48a1.19,1.19,0,1,1,0-1.68h0a1.19,1.19,0,0,1,0,1.68Zm1.23-5.42a1.19,1.19,0,1,1,0-1.68h0a1.19,1.19,0,0,1,0,1.68h0Zm-.39-5.48a1.19,1.19,0,1,1,1.68,0h0a1.18,1.18,0,0,1-1.67,0h0Zm3.35,15.09a1.19,1.19,0,1,1,0-1.68h0a1.19,1.19,0,0,1,0,1.68Zm1.23-5.42a1.19,1.19,0,1,1,0-1.68h0a1.19,1.19,0,0,1,0,1.68h0Zm1.3-5.43a1.19,1.19,0,1,1,0-1.68h0A1.19,1.19,0,0,1,347.59,84Zm-.45-5.42a1.19,1.19,0,1,1,1.68,0h0a1.18,1.18,0,0,1-1.67,0h0Z"/>
</svg>