<svg version="1.1" xmlns="http://www.w3.org/2000/svg" xmlns:xlink="http://www.w3.org/1999/xlink" viewBox="0 0 19.4 14.6" xml:space="preserve">
	<path d="M10.4-125.9l4.2,4.2l-8.4,8.4H2v-4.2L10.4-125.9z M5.6-114.6l0.9-0.9l-2.4-2.4L3.3-117v1.1h1.3v1.3H5.6z M10.9-123.9 c0-0.1-0.1-0.2-0.2-0.2c-0.1,0-0.1,0-0.2,0.1l-5.4,5.4c0,0-0.1,0.1-0.1,0.2c0,0.1,0.1,0.2,0.2,0.2c0.1,0,0.1,0,0.2-0.1l5.4-5.4 C10.9-123.8,10.9-123.9,10.9-123.9z M17.2-124.9c0,0.4-0.1,0.7-0.4,0.9l-1.7,1.7l-4.2-4.2l1.7-1.7c0.2-0.3,0.5-0.4,0.9-0.4 c0.4,0,0.7,0.1,0.9,0.4l2.4,2.4C17.1-125.5,17.2-125.2,17.2-124.9z"/>
	<path d="M19.4,13.4v1.2H0V0h1.2v13.4H19.4z M6.1,7.3v4.9H3.6V7.3H6.1z M9.7,2.4v9.7H7.3V2.4H9.7z M13.4,4.9v7.3h-2.4V4.9H13.4z M17,1.2v10.9h-2.4V1.2H17z"/>
	<path d="M167.4-120.2c-1,0-1.8,0.4-2.4,1.1h-1.2c-0.5,0-0.9-0.1-1.2-0.4s-0.5-0.6-0.5-1.1c0-2.1,0.4-3.2,1.1-3.2 c0,0,0.2,0.1,0.4,0.2c0.2,0.1,0.5,0.3,0.9,0.4s0.7,0.2,1.1,0.2c0.4,0,0.8-0.1,1.2-0.2c0,0.2,0,0.4,0,0.6 C166.7-121.6,167-120.9,167.4-120.2z M167.2-127.5c0.4,0.4,0.7,1,0.7,1.6c0,0.6-0.2,1.2-0.7,1.6s-1,0.7-1.6,0.7s-1.2-0.2-1.6-0.7 s-0.7-1-0.7-1.6c0-0.6,0.2-1.2,0.7-1.6c0.4-0.4,1-0.7,1.6-0.7S166.7-127.9,167.2-127.5z M177-114.5c0,0.7-0.2,1.3-0.7,1.7 s-1,0.6-1.7,0.6h-7.8c-0.7,0-1.3-0.2-1.7-0.6s-0.7-1-0.7-1.7c0-0.3,0-0.6,0-0.9c0-0.3,0.1-0.6,0.1-1c0.1-0.3,0.1-0.7,0.2-1 c0.1-0.3,0.2-0.6,0.4-0.9s0.3-0.5,0.6-0.7c0.2-0.2,0.5-0.4,0.8-0.5c0.3-0.1,0.6-0.2,1-0.2c0.1,0,0.2,0.1,0.4,0.2s0.4,0.3,0.7,0.4 c0.2,0.2,0.6,0.3,1,0.4c0.4,0.1,0.8,0.2,1.2,0.2c0.4,0,0.8-0.1,1.2-0.2c0.4-0.1,0.7-0.3,1-0.4c0.2-0.2,0.5-0.3,0.7-0.4 s0.3-0.2,0.4-0.2c0.4,0,0.7,0.1,1,0.2c0.3,0.1,0.6,0.3,0.8,0.5c0.2,0.2,0.4,0.4,0.6,0.7c0.2,0.3,0.3,0.6,0.4,0.9 c0.1,0.3,0.2,0.6,0.2,1c0.1,0.3,0.1,0.7,0.1,1C177-115.1,177-114.8,177-114.5z M173.1-124.9c0.7,0.7,1,1.5,1,2.4s-0.3,1.8-1,2.4 c-0.7,0.7-1.5,1-2.4,1s-1.8-0.3-2.4-1c-0.7-0.7-1-1.5-1-2.4s0.3-1.8,1-2.4c0.7-0.7,1.5-1,2.4-1S172.5-125.6,173.1-124.9z  M177.5-127.5c0.4,0.4,0.7,1,0.7,1.6c0,0.6-0.2,1.2-0.7,1.6s-1,0.7-1.6,0.7s-1.2-0.2-1.6-0.7c-0.4-0.4-0.7-1-0.7-1.6 c0-0.6,0.2-1.2,0.7-1.6c0.4-0.4,1-0.7,1.6-0.7S177-127.9,177.5-127.5z M179.3-120.4c0,0.5-0.2,0.8-0.5,1.1 c-0.3,0.2-0.7,0.4-1.2,0.4h-1.2c-0.6-0.7-1.4-1.1-2.4-1.1c0.5-0.7,0.7-1.5,0.7-2.3c0-0.2,0-0.4,0-0.6c0.4,0.1,0.8,0.2,1.2,0.2 c0.4,0,0.7-0.1,1.1-0.2c0.4-0.1,0.6-0.3,0.9-0.4c0.2-0.1,0.4-0.2,0.4-0.2C178.9-123.6,179.3-122.5,179.3-120.4z"/>
	<path d="M167.3-64.1c1.1-0.2,2.2-0.3,3.4-0.3c1.2,0,2.4,0.1,3.4,0.3s1.9,0.5,2.5,0.8c0.6,0.4,0.9,0.7,0.9,1.1v1.1 c0,0.4-0.3,0.8-0.9,1.1c-0.6,0.4-1.4,0.6-2.5,0.8c-1.1,0.2-2.2,0.3-3.4,0.3c-1.2,0-2.4-0.1-3.4-0.3c-1.1-0.2-1.9-0.5-2.5-0.8 c-0.6-0.4-0.9-0.7-0.9-1.1v-1.1c0-0.4,0.3-0.8,0.9-1.1C165.4-63.6,166.2-63.9,167.3-64.1z M166.8-57.9c1.2,0.3,2.5,0.4,4,0.4 c1.4,0,2.7-0.1,4-0.4s2.2-0.6,2.9-1.1v1.5c0,0.4-0.3,0.8-0.9,1.1c-0.6,0.4-1.4,0.6-2.5,0.8c-1.1,0.2-2.2,0.3-3.4,0.3 c-1.2,0-2.4-0.1-3.4-0.3c-1.1-0.2-1.9-0.5-2.5-0.8c-0.6-0.4-0.9-0.7-0.9-1.1V-59C164.6-58.5,165.5-58.1,166.8-57.9z M166.8-54.5 c1.2,0.3,2.5,0.4,4,0.4c1.4,0,2.7-0.1,4-0.4s2.2-0.6,2.9-1.1v1.5c0,0.4-0.3,0.8-0.9,1.1c-0.6,0.4-1.4,0.6-2.5,0.8 c-1.1,0.2-2.2,0.3-3.4,0.3c-1.2,0-2.4-0.1-3.4-0.3c-1.1-0.2-1.9-0.5-2.5-0.8c-0.6-0.4-0.9-0.7-0.9-1.1v-1.5 C164.6-55.1,165.5-54.7,166.8-54.5z M166.8-51c1.2,0.3,2.5,0.4,4,0.4c1.4,0,2.7-0.1,4-0.4s2.2-0.6,2.9-1.1v1.5 c0,0.4-0.3,0.8-0.9,1.1c-0.6,0.4-1.4,0.6-2.5,0.8s-2.2,0.3-3.4,0.3c-1.2,0-2.4-0.1-3.4-0.3s-1.9-0.5-2.5-0.8 c-0.6-0.4-0.9-0.7-0.9-1.1v-1.5C164.6-51.7,165.5-51.3,166.8-51z"/>
	<path d="M1-59.5c-0.2-0.1-0.4-0.3-0.3-0.6c0.1-0.2,0.3-0.4,0.6-0.3c1.6,0.6,2.9,1.7,3.7,3.2c2.1-4.1,5.7-7.2,10.1-8.6 c0.2-0.1,0.5,0,0.6,0.3c0.1,0.2,0,0.5-0.3,0.6c-4.5,1.4-8.1,4.7-10,9v0l0,0l0,0l0,0l0,0c0,0,0,0,0,0c0,0,0,0,0,0c0,0,0,0,0,0h0h0h0 h0h0h0h0h0h0h0c0,0,0,0,0,0c0,0,0,0,0,0h0c0,0,0,0,0,0l0,0l0,0c0,0,0,0,0,0l0,0c0,0,0,0,0-0.1v0C4-57.6,2.7-58.9,1-59.5 M12.4-53.6 c-0.3,0-0.6,0.2-0.7,0.5c-0.1,0.3-0.1,0.6,0.1,0.9l-1.1,1.9c-0.1,0.1,0,0.4,0.1,0.4c0.1,0.1,0.4,0,0.4-0.1l1.1-1.9 c0.3,0,0.6-0.1,0.8-0.4c0.2-0.3,0.2-0.6,0-0.9C13-53.4,12.7-53.6,12.4-53.6 M15.6-55.3L15.6-55.3L13-56.8l2.2-3.8l2.7,1.5L15.6-55.3 z M14.1-53.5L14.1-53.5C14.1-53.5,14.1-53.5,14.1-53.5L14.1-53.5L14.1-53.5L14.1-53.5l0,0.1v0v0v0l-0.1,2c0,0.2-0.1,0.4-0.3,0.5 L10-48.6l0.1-4.3c0-0.2,0.1-0.4,0.3-0.5l1.7-1.1l0,0l0,0l0,0l0,0l0.7-1.2l1.9,1.1L14.1-53.5z M18.7-59.3c-0.1-0.2-0.2-0.4-0.4-0.5 l-2.7-1.5c-0.4-0.2-0.9-0.1-1.2,0.3l-2.2,3.9c-0.2,0.3-0.1,0.6,0,0.9l-0.7,1.2L9.9-54c-0.4,0.3-0.6,0.7-0.6,1.2l-0.1,4.5H1.7 c-0.2,0-0.4,0.2-0.4,0.4c0,0.2,0.2,0.4,0.4,0.4h8c0,0,0.1,0,0.2,0c0.1,0,0.2,0,0.3-0.1c0,0,0,0,0,0l4-2.5c0.4-0.2,0.6-0.7,0.7-1.2 l0.1-1.9l0.7-1.2c0.3,0,0.6-0.1,0.7-0.4c0,0,0,0,0,0l2.2-3.9C18.7-58.9,18.7-59.1,18.7-59.3"/>
	<path d="M171.3,11.1c-0.1,0.1-0.2,0.2-0.2,0.4V13c0,0.2-0.2,0.4-0.4,0.4c-0.2,0-0.4-0.2-0.4-0.4v-1.5c0-0.2-0.1-0.3-0.2-0.4 c-0.6-0.4-0.8-1.1-0.5-1.7c0.4-0.6,1.1-0.8,1.7-0.5c0.6,0.4,0.8,1.1,0.5,1.7C171.7,10.9,171.5,11,171.3,11.1 M172,8.4 c-0.9-0.7-2.2-0.6-3,0.3c-0.7,0.9-0.6,2.2,0.3,3c0,0,0,0,0.1,0.1V13c0,0.7,0.6,1.3,1.3,1.3c0.7,0,1.3-0.6,1.3-1.3v0v-1.3 c0.9-0.7,1.1-2,0.4-2.9C172.3,8.6,172.2,8.5,172,8.4 M176.6,15.1c0,0.2-0.2,0.4-0.4,0.4h-11c-0.2,0-0.4-0.2-0.4-0.4v-8 c0-0.2,0.2-0.4,0.4-0.4h11c0.2,0,0.4,0.2,0.4,0.4V15.1z M166.9,2.4c0-2.1,1.7-3.8,3.8-3.8c2.1,0,3.8,1.7,3.8,3.8v0.1v3.4h-7.6V2.4z  M176.2,5.8h-0.9V2.4c0-2.6-2.1-4.6-4.6-4.6c-2.5,0-4.6,2.1-4.6,4.6v3.4h-0.9c-0.7,0-1.3,0.6-1.3,1.3v8c0,0.7,0.6,1.3,1.3,1.3h11 c0.7,0,1.3-0.6,1.3-1.3v-8C177.5,6.4,176.9,5.8,176.2,5.8"/>
</svg>
