<svg class="animated-signature" version="1.1" xmlns="http://www.w3.org/2000/svg" xmlns:xlink="http://www.w3.org/1999/xlink" viewBox="0 0 303.9 51.5" xml:space="preserve">
	<path d="M302.8,23c-14.7,3-29.1,5.3-44.5,7.3l-11.2,1.4l3.5-2.3c9.8-6.7,18.4-13.9,22.2-16c0.4-0.2,0.7-0.4,0.9-0.6 c0.1-0.1,0.4-0.4-0.2-0.8c-0.6-0.3-1.5-0.2-1.6-0.2c-2.6,0.2-13.8,3.8-26.1,7.3c-5.9,1.7-11.8,3.3-16.5,4.5 c-3.9,0.9-6.5,1.3-7.8,1.4l-0.8,0l0-0.1c0-0.2,0.2-0.5,1-1.2l-2.1-0.7c-2.4,1.1-4.5,1.7-6.3,2.1l-0.7,0.1v-0.7c-0.8,0-1.5,0-2.1,0 l-0.3,0l-3.3,0.1c-13.3,0.7-26.1,3.8-36.9,5.7c-6.5,1.2-13.9,2.2-20,4.1c-0.9,0.3-2,0.9-2.9,1.5l-0.1,0l0.1-0.7 c3.3-10.2,29.6-24.1,37.7-33.9l-2.5-0.4c-6.3,7.7-24.9,18.4-33.6,27.7c-15.6,0.1-27.6,3-40.9,3.7l-2.8,0.1l0.1-0.1 c0.6-0.4,1.2-0.8,1.7-1.2l-2.1-0.7C99.8,33,93,35.5,89.3,36c-1.3,0.2-1.7,0.1-1.8-0.6c0-1,1.2-3,4.5-6.2c0.3-0.3,0.9-0.7,1.6-1.1 l0.5-0.2l2.9-0.4c1.4-0.2,2.9-0.5,4.2-0.8c5.7-1.2,11.8-2.9,13.3-4c1.5-1.1,2.3-2,2-2.6c-0.2-0.4-0.9-0.7-1.8-0.8 c-2.7-0.2-8.4,1.7-13.2,3.6c-2.5,1-5.1,2.1-7.2,3.1l-1.7,0.9L92,26.8c-2.1,0.2-3.5,0.2-4,0l-1.5-0.1c-3.6,0.8-5.8,1.9-8.7,2.4h-0.1 l0.1-0.3c-0.1-0.4-0.9-0.6-1.8-0.6C75,28.4,72.2,29,69,29.9l-0.7,0.2l2.4-2.1c0.8-0.7,1.5-1.5,2.1-2.2c7.8-8.8,5.8-17.2-13.5-17 C62,6,64.6,3.3,67.1,0.4L64.8,0c-2.7,3-5.5,6-8.4,8.9c-6.2,0.3-13.9,1.4-23.4,3.5C19.7,15.3,7.1,19.1,0,25.3l2.3,0.5 C9,19.9,21,16.3,34.1,13.4c8.6-1.9,15.5-2.9,21.1-3.3c-7.1,7.2-14.6,14.4-22.4,21.5C21.8,33.8,11,36.6,8.8,38 C7,39.1-1.8,44.6,6.9,46c3.5,0.6,6.9,0.9,10.4,0.9c0.4,0,0.9,0,1.3,0c-0.2,0.2-0.3,0.5-0.5,0.7c-1,1.3-1.9,2.7-1.9,3.2 c0,0,0,0.4,0.8,0.6c0.2,0,0.5,0.1,0.7,0.1c0.6,0,1-0.2,1-0.2c0.3-0.1,0.6-0.3,0.9-0.6c1.6-1.2,1.8-2.4,2.6-3.4l-1.1-0.2l0.2-0.3 c15.7-0.6,30.4-5.9,40.7-12.4l3.2-2.2l2.1-0.6c2-0.6,4.1-1.1,5.7-1.5l1-0.2l0.6,0.7c4.1,0,7.5-1.2,10.4-2.1l2.1-0.6l0.2,0.1 c0.4,0.1,0.9,0.1,1.5,0.1l1.7-0.1l-0.9,0.6c-3.3,3.3-4.7,5.4-4.7,6.7c0,1.6,2.2,2.1,5,1.7c2.2-0.3,5.2-1.1,8.2-2.2l3.6-1.4l0.3,0.3 c15.9,0,28.9-3.6,45.7-3.8c-2.2,2.6-3.6,5.1-3.6,7.4c0,0.1,0,0.2,0,0.3c0.2,0.6,1.7,0.8,2.6,0.4c1.3-0.5,3.1-2.1,4.7-2.6 c5.8-1.8,12.6-2.8,19.5-4c9.6-1.7,20-4.1,30.8-5.2l4.1-0.3c0.1,0.2,0.5,0.5,1,0.6c1.7,0.4,5.4,0.3,9.9-1.1l1.4-0.5l0.2,0.3 c0.2,0.2,0.6,0.4,1.1,0.6c2.3,0.5,6.9-0.4,11.2-1.4c4.9-1.2,10.8-2.8,16.7-4.5c6.1-1.8,13.7-4.1,18.9-5.6l2.7-0.8l-2,1.4 c-4.6,3.3-11.5,8.7-18.6,13.6c-1.2,0.9-2.5,1.7-3.7,2.5l-1.5,0.9l-0.6,0.1l-0.1,0c-0.7,0.1-10.3,1.8-17.7,3.6 c-3.6,0.9-7,1.9-8.2,2.9c-1.8,1.4,0.6,2.4,5,2.8c0.5,0,1.1,0.1,1.6,0.1c6.1-0.1,13.3-3.4,20.2-7.5l1.4-0.9l14.3-1.8 c15.5-2.1,30-4.3,44.9-7.4L302.8,23z M99.5,25.1c1.2-0.5,2.4-1,3.7-1.5c4.6-1.8,8.8-3,10.5-3.2l0.2,0l-0.2,0.3 c-0.2,0.3-0.7,0.7-1.5,1.3c-1,0.8-6.2,2.3-12.1,3.5L97.5,26L99.5,25.1z M17.4,45.8c-3.2,0-6.4-0.3-9.6-0.8c-4.8-0.8-0.1-4.3,3.1-6.3 c1.5-1,10.3-3.4,20.1-5.4c-3.7,3.4-7,6.7-9.9,10.4c-0.5,0.6-1,1.3-1.7,2.1C18.8,45.8,18.1,45.8,17.4,45.8z M59.8,33.9 c-9.8,6.1-23.4,11-37.6,11.8c0.5-0.6,0.9-1.2,1.3-1.7c3.2-4.1,6.9-7.6,11.1-11.5c1.9-0.4,3.8-0.7,5.6-1c6.4-1.1,12-1.6,15.1-1.3 c2.3,0.2,3.6,0.9,0.7,3.5l1.9,0.7c0.3-0.1,0.8-0.2,1.4-0.4l0.8-0.2L59.8,33.9z M65.8,29.7l-2.4,1.7l-0.8,0.2l-2.7,0.8l0.1-0.2 c0.9-1.7-0.5-2.9-4.1-3.2c-3.9-0.3-10.1,0.3-16.5,1.4c-1,0.2-2,0.3-3,0.5c7.6-7,14.9-13.9,21.8-21c6.2-0.2,10.3,0.6,12.9,1.9 c5.1,2.6,4.5,7.8-0.6,13.5C69.1,26.8,67.5,28.3,65.8,29.7z M207.4,26l-0.1-0.2l0.5,0.2L207.4,26z M237.3,35.6 c-5.4,2.9-10.2,4.7-14,4.8c-0.4,0-0.8,0-1.2,0c-2.1-0.2-3-0.4-3.3-0.6c-0.1-0.1-0.3-0.2,0.1-0.4c0.9-0.7,3.6-1.5,7.3-2.5 c4.5-1.1,9.9-2.2,13.4-2.9l0.9-0.2L237.3,35.6z M154,30.5c3.8-1.8,8.8-2.3,13.8-2.4l0.1,1.2c-4.7,0.1-8.8,0.5-12,2L154,30.5z"/>
</svg>
