<svg version="1.1" xmlns="http://www.w3.org/2000/svg" xmlns:xlink="http://www.w3.org/1999/xlink" viewBox="0 0 15.2 15.2" xml:space="preserve">
	<path style="fill: #ffffff;" d="M8.4,2.7l4.2,4.2l-8.4,8.4H0V11L8.4,2.7z M3.6,13.9L4.6,13l-2.4-2.4l-0.9,0.9v1.1h1.3v1.3H3.6z M8.9,4.6 c0-0.1-0.1-0.2-0.2-0.2c-0.1,0-0.1,0-0.2,0.1L3.1,9.9C3,10,3,10,3,10.1c0,0.1,0.1,0.2,0.2,0.2c0.1,0,0.1,0,0.2-0.1l5.4-5.4 C8.9,4.7,8.9,4.7,8.9,4.6z M15.2,3.6c0,0.4-0.1,0.7-0.4,0.9l-1.7,1.7L9,2l1.7-1.7C10.9,0.1,11.2,0,11.6,0c0.4,0,0.7,0.1,0.9,0.4 l2.4,2.4C15.1,3,15.2,3.3,15.2,3.6z"/>
	<path style="fill: #ffffff;" d="M17.4,141.9v1.2H-2v-14.6h1.2v13.4H17.4z M4.1,135.8v4.9H1.6v-4.9H4.1z M7.7,131v9.7H5.3V131H7.7z M11.4,133.4v7.3H8.9 v-7.3H11.4z M15,129.7v10.9h-2.4v-10.9H15z"/>
	<path style="fill: #ffffff;" d="M165.4,8.4c-1,0-1.8,0.4-2.4,1.1h-1.2c-0.5,0-0.9-0.1-1.2-0.4s-0.5-0.6-0.5-1.1c0-2.1,0.4-3.2,1.1-3.2c0,0,0.2,0.1,0.4,0.2 c0.2,0.1,0.5,0.3,0.9,0.4s0.7,0.2,1.1,0.2c0.4,0,0.8-0.1,1.2-0.2c0,0.2,0,0.4,0,0.6C164.7,6.9,165,7.7,165.4,8.4z M165.2,1 c0.4,0.4,0.7,1,0.7,1.6c0,0.6-0.2,1.2-0.7,1.6s-1,0.7-1.6,0.7s-1.2-0.2-1.6-0.7s-0.7-1-0.7-1.6c0-0.6,0.2-1.2,0.7-1.6 c0.4-0.4,1-0.7,1.6-0.7S164.7,0.6,165.2,1z M175,14c0,0.7-0.2,1.3-0.7,1.7s-1,0.6-1.7,0.6h-7.8c-0.7,0-1.3-0.2-1.7-0.6 s-0.7-1-0.7-1.7c0-0.3,0-0.6,0-0.9c0-0.3,0.1-0.6,0.1-1c0.1-0.3,0.1-0.7,0.2-1c0.1-0.3,0.2-0.6,0.4-0.9s0.3-0.5,0.6-0.7 c0.2-0.2,0.5-0.4,0.8-0.5c0.3-0.1,0.6-0.2,1-0.2c0.1,0,0.2,0.1,0.4,0.2s0.4,0.3,0.7,0.4c0.2,0.2,0.6,0.3,1,0.4 c0.4,0.1,0.8,0.2,1.2,0.2c0.4,0,0.8-0.1,1.2-0.2c0.4-0.1,0.7-0.3,1-0.4c0.2-0.2,0.5-0.3,0.7-0.4s0.3-0.2,0.4-0.2 c0.4,0,0.7,0.1,1,0.2c0.3,0.1,0.6,0.3,0.8,0.5c0.2,0.2,0.4,0.4,0.6,0.7c0.2,0.3,0.3,0.6,0.4,0.9c0.1,0.3,0.2,0.6,0.2,1 c0.1,0.3,0.1,0.7,0.1,1C175,13.4,175,13.7,175,14z M171.1,3.7c0.7,0.7,1,1.5,1,2.4s-0.3,1.8-1,2.4c-0.7,0.7-1.5,1-2.4,1 s-1.8-0.3-2.4-1c-0.7-0.7-1-1.5-1-2.4s0.3-1.8,1-2.4c0.7-0.7,1.5-1,2.4-1S170.5,3,171.1,3.7z M175.5,1c0.4,0.4,0.7,1,0.7,1.6 c0,0.6-0.2,1.2-0.7,1.6s-1,0.7-1.6,0.7s-1.2-0.2-1.6-0.7c-0.4-0.4-0.7-1-0.7-1.6c0-0.6,0.2-1.2,0.7-1.6c0.4-0.4,1-0.7,1.6-0.7 S175,0.6,175.5,1z M177.3,8.1c0,0.5-0.2,0.8-0.5,1.1c-0.3,0.2-0.7,0.4-1.2,0.4h-1.2c-0.6-0.7-1.4-1.1-2.4-1.1 c0.5-0.7,0.7-1.5,0.7-2.3c0-0.2,0-0.4,0-0.6c0.4,0.1,0.8,0.2,1.2,0.2c0.4,0,0.7-0.1,1.1-0.2c0.4-0.1,0.6-0.3,0.9-0.4 c0.2-0.1,0.4-0.2,0.4-0.2C176.9,4.9,177.3,6,177.3,8.1z"/>
	<path style="fill: #ffffff;" d="M165.3,64.5c1.1-0.2,2.2-0.3,3.4-0.3c1.2,0,2.4,0.1,3.4,0.3s1.9,0.5,2.5,0.8c0.6,0.4,0.9,0.7,0.9,1.1v1.1 c0,0.4-0.3,0.8-0.9,1.1c-0.6,0.4-1.4,0.6-2.5,0.8c-1.1,0.2-2.2,0.3-3.4,0.3c-1.2,0-2.4-0.1-3.4-0.3c-1.1-0.2-1.9-0.5-2.5-0.8 c-0.6-0.4-0.9-0.7-0.9-1.1v-1.1c0-0.4,0.3-0.8,0.9-1.1C163.4,65,164.2,64.7,165.3,64.5z M164.8,70.6c1.2,0.3,2.5,0.4,4,0.4 c1.4,0,2.7-0.1,4-0.4s2.2-0.6,2.9-1.1V71c0,0.4-0.3,0.8-0.9,1.1c-0.6,0.4-1.4,0.6-2.5,0.8c-1.1,0.2-2.2,0.3-3.4,0.3 c-1.2,0-2.4-0.1-3.4-0.3c-1.1-0.2-1.9-0.5-2.5-0.8c-0.6-0.4-0.9-0.7-0.9-1.1v-1.5C162.6,70,163.5,70.4,164.8,70.6z M164.8,74.1 c1.2,0.3,2.5,0.4,4,0.4c1.4,0,2.7-0.1,4-0.4s2.2-0.6,2.9-1.1v1.5c0,0.4-0.3,0.8-0.9,1.1c-0.6,0.4-1.4,0.6-2.5,0.8 c-1.1,0.2-2.2,0.3-3.4,0.3c-1.2,0-2.4-0.1-3.4-0.3c-1.1-0.2-1.9-0.5-2.5-0.8c-0.6-0.4-0.9-0.7-0.9-1.1v-1.5 C162.6,73.4,163.5,73.8,164.8,74.1z M164.8,77.5c1.2,0.3,2.5,0.4,4,0.4c1.4,0,2.7-0.1,4-0.4s2.2-0.6,2.9-1.1v1.5 c0,0.4-0.3,0.8-0.9,1.1c-0.6,0.4-1.4,0.6-2.5,0.8s-2.2,0.3-3.4,0.3c-1.2,0-2.4-0.1-3.4-0.3s-1.9-0.5-2.5-0.8 c-0.6-0.4-0.9-0.7-0.9-1.1v-1.5C162.6,76.9,163.5,77.2,164.8,77.5z"/>
	<path style="fill: #ffffff;" d="M-1,69.1c-0.2-0.1-0.4-0.3-0.3-0.6c0.1-0.2,0.3-0.4,0.6-0.3c1.6,0.6,2.9,1.7,3.7,3.2c2.1-4.1,5.7-7.2,10.1-8.6 c0.2-0.1,0.5,0,0.6,0.3c0.1,0.2,0,0.5-0.3,0.6c-4.5,1.4-8.1,4.7-10,9v0l0,0l0,0l0,0l0,0c0,0,0,0,0,0c0,0,0,0,0,0c0,0,0,0,0,0h0h0h0 h0h0h0h0h0h0h0c0,0,0,0,0,0c0,0,0,0,0,0h0c0,0,0,0,0,0l0,0l0,0c0,0,0,0,0,0l0,0c0,0,0,0,0-0.1v0C2,70.9,0.7,69.6-1,69.1 M10.4,74.9 c-0.3,0-0.6,0.2-0.7,0.5c-0.1,0.3-0.1,0.6,0.1,0.9l-1.1,1.9c-0.1,0.1,0,0.4,0.1,0.4c0.1,0.1,0.4,0,0.4-0.1l1.1-1.9 c0.3,0,0.6-0.1,0.8-0.4c0.2-0.3,0.2-0.6,0-0.9C11,75.1,10.7,74.9,10.4,74.9 M13.6,73.3L13.6,73.3L11,71.7l2.2-3.8l2.7,1.5L13.6,73.3 z M12.1,75L12.1,75C12.1,75.1,12.1,75.1,12.1,75L12.1,75L12.1,75L12.1,75l0,0.1v0v0v0l-0.1,2c0,0.2-0.1,0.4-0.3,0.5L8,80l0.1-4.3 c0-0.2,0.1-0.4,0.3-0.5l1.7-1.1l0,0l0,0l0,0l0,0l0.7-1.2l1.9,1.1L12.1,75z M16.7,69.2c-0.1-0.2-0.2-0.4-0.4-0.5l-2.7-1.5 c-0.4-0.2-0.9-0.1-1.2,0.3l-2.2,3.9c-0.2,0.3-0.1,0.6,0,0.9l-0.7,1.2l-1.6,1.1c-0.4,0.3-0.6,0.7-0.6,1.2l-0.1,4.5h-7.5 c-0.2,0-0.4,0.2-0.4,0.4c0,0.2,0.2,0.4,0.4,0.4h8c0,0,0.1,0,0.2,0C7.9,81,8,81,8.1,81c0,0,0,0,0,0l4-2.5c0.4-0.2,0.6-0.7,0.7-1.2 l0.1-1.9l0.7-1.2c0.3,0,0.6-0.1,0.7-0.4c0,0,0,0,0,0l2.2-3.9C16.7,69.6,16.7,69.4,16.7,69.2"/>
	<path style="fill: #ffffff;" d="M169.3,139.7c-0.1,0.1-0.2,0.2-0.2,0.4v1.5c0,0.2-0.2,0.4-0.4,0.4c-0.2,0-0.4-0.2-0.4-0.4V140c0-0.2-0.1-0.3-0.2-0.4 c-0.6-0.4-0.8-1.1-0.5-1.7c0.4-0.6,1.1-0.8,1.7-0.5c0.6,0.4,0.8,1.1,0.5,1.7C169.7,139.4,169.5,139.6,169.3,139.7 M170,136.9 c-0.9-0.7-2.2-0.6-3,0.3c-0.7,0.9-0.6,2.2,0.3,3c0,0,0,0,0.1,0.1v1.3c0,0.7,0.6,1.3,1.3,1.3c0.7,0,1.3-0.6,1.3-1.3v0v-1.3 c0.9-0.7,1.1-2,0.4-2.9C170.3,137.1,170.2,137,170,136.9 M174.6,143.6c0,0.2-0.2,0.4-0.4,0.4h-11c-0.2,0-0.4-0.2-0.4-0.4v-8 c0-0.2,0.2-0.4,0.4-0.4h11c0.2,0,0.4,0.2,0.4,0.4V143.6z M164.9,131c0-2.1,1.7-3.8,3.8-3.8c2.1,0,3.8,1.7,3.8,3.8v0.1v3.4h-7.6V131z  M174.2,134.3h-0.9V131c0-2.6-2.1-4.6-4.6-4.6c-2.5,0-4.6,2.1-4.6,4.6v3.4h-0.9c-0.7,0-1.3,0.6-1.3,1.3v8c0,0.7,0.6,1.3,1.3,1.3h11 c0.7,0,1.3-0.6,1.3-1.3v-8C175.5,134.9,174.9,134.3,174.2,134.3"/>
</svg>
