<svg version="1.1" xmlns="http://www.w3.org/2000/svg" xmlns:xlink="http://www.w3.org/1999/xlink" viewBox="0 0 235 235" xml:space="preserve">
  <path d="M35.5,0C15.9,0,0,15.9,0,35.5v164C0,219.1,15.9,235,35.5,235h164c19.6,0,35.5-15.9,35.5-35.5v-164C235,15.9,219.1,0,199.5,0 C199.5,0,35.5,0,35.5,0z M53.7,39.8c12.1,0,19.5,7.9,19.8,18.4c0,10.2-7.7,18.4-20,18.4h-0.2c-11.9,0-19.5-8.2-19.5-18.4 C33.7,47.7,41.6,39.8,53.7,39.8z M157.8,88.5c23.2,0,40.7,15.2,40.7,47.8v61h-35.3v-56.9c0-14.3-5.2-24-17.9-24 c-9.8,0-15.6,6.5-18.2,12.9c-0.9,2.3-1.1,5.4-1.1,8.6v59.4H90.7c0,0,0.4-96.3,0-106.3H126v15C130.7,98.8,139.1,88.5,157.8,88.5 L157.8,88.5z M35.8,91h35.3v106.3H35.8V91z"/>
</svg>
