<svg version="1.1" xmlns="http://www.w3.org/2000/svg" xmlns:xlink="http://www.w3.org/1999/xlink" viewBox="0 0 25 25" xml:space="preserve">
	<path style="fill: #ffffff;" d="M25,10.7v3.6c0,0.1,0,0.3-0.1,0.4c-0.1,0.1-0.2,0.2-0.3,0.2l-3,0.5c-0.2,0.6-0.4,1.1-0.6,1.5c0.4,0.5,1,1.3,1.7,2.2 c0.1,0.1,0.2,0.3,0.2,0.4c0,0.1,0,0.3-0.1,0.4c-0.3,0.4-0.8,1-1.6,1.8c-0.8,0.8-1.3,1.2-1.5,1.2c-0.1,0-0.3,0-0.4-0.1l-2.2-1.8 c-0.5,0.3-1,0.5-1.5,0.6c-0.2,1.5-0.3,2.5-0.5,3c-0.1,0.3-0.3,0.5-0.6,0.5h-3.6c-0.2,0-0.3,0-0.4-0.1c-0.1-0.1-0.2-0.2-0.2-0.3 l-0.5-3c-0.5-0.2-1-0.4-1.5-0.6l-2.3,1.7c-0.1,0.1-0.2,0.1-0.4,0.1c-0.2,0-0.3-0.1-0.4-0.2c-1.4-1.2-2.3-2.1-2.7-2.7 c-0.1-0.1-0.1-0.2-0.1-0.4c0-0.1,0-0.3,0.1-0.4c0.2-0.2,0.4-0.6,0.8-1.1c0.4-0.5,0.7-0.9,0.9-1.1c-0.3-0.5-0.5-1.1-0.7-1.6l-3-0.4 c-0.1,0-0.3-0.1-0.3-0.2C0,14.5,0,14.4,0,14.3v-3.6c0-0.1,0-0.3,0.1-0.4c0.1-0.1,0.2-0.2,0.3-0.2l3-0.5c0.2-0.5,0.4-1,0.6-1.5 c-0.4-0.6-1-1.4-1.7-2.2C2.3,5.7,2.2,5.6,2.2,5.5c0-0.1,0-0.2,0.1-0.4c0.3-0.4,0.8-1,1.6-1.8c0.8-0.8,1.3-1.2,1.5-1.2 c0.1,0,0.3,0.1,0.4,0.2l2.2,1.7c0.5-0.2,1-0.5,1.5-0.6C9.8,2,10,1,10.1,0.5C10.2,0.2,10.4,0,10.7,0h3.6c0.2,0,0.3,0,0.4,0.1 s0.2,0.2,0.2,0.4l0.5,3c0.5,0.2,1,0.4,1.5,0.6l2.3-1.7c0.1-0.1,0.2-0.1,0.4-0.1c0.1,0,0.3,0.1,0.4,0.2c1.4,1.3,2.3,2.2,2.7,2.8 c0.1,0.1,0.1,0.2,0.1,0.4c0,0.1,0,0.3-0.1,0.4c-0.2,0.2-0.4,0.6-0.8,1.1c-0.4,0.5-0.7,0.9-0.9,1.1c0.3,0.5,0.5,1.1,0.7,1.6l3,0.5 c0.1,0,0.3,0.1,0.3,0.2C25,10.5,25,10.6,25,10.7z M15.4,15.4c0.8-0.8,1.2-1.8,1.2-2.9s-0.4-2.1-1.2-2.9c-0.8-0.8-1.8-1.2-2.9-1.2 c-1.1,0-2.1,0.4-2.9,1.2c-0.8,0.8-1.2,1.8-1.2,2.9s0.4,2.1,1.2,2.9c0.8,0.8,1.8,1.2,2.9,1.2C13.6,16.7,14.6,16.3,15.4,15.4z"/>
</svg>
