<svg version="1.1" xmlns="http://www.w3.org/2000/svg" xmlns:xlink="http://www.w3.org/1999/xlink" viewBox="0 0 13.5 18.6" xml:space="preserve">
	<path d="M-153.6-123.6l4.2,4.2l-8.4,8.4h-4.2v-4.2L-153.6-123.6z M-158.3-112.4l0.9-0.9l-2.4-2.4l-0.9,0.9v1.1h1.3v1.3H-158.3z  M-153.1-121.7c0-0.1-0.1-0.2-0.2-0.2c-0.1,0-0.1,0-0.2,0.1l-5.4,5.4c0,0-0.1,0.1-0.1,0.2c0,0.1,0.1,0.2,0.2,0.2 c0.1,0,0.1,0,0.2-0.1l5.4-5.4C-153.1-121.6-153.1-121.6-153.1-121.7z M-146.7-122.7c0,0.4-0.1,0.7-0.4,0.9l-1.7,1.7l-4.2-4.2 l1.7-1.7c0.2-0.3,0.5-0.4,0.9-0.4c0.4,0,0.7,0.1,0.9,0.4l2.4,2.4C-146.9-123.3-146.7-123-146.7-122.7z"/>
	<path d="M-144.5,15.6v1.2H-164V2.2h1.2v13.4H-144.5z M-157.9,9.5v4.9h-2.4V9.5H-157.9z M-154.2,4.6v9.7h-2.4V4.6H-154.2z M-150.6,7.1v7.3h-2.4V7.1H-150.6z M-147,3.4v10.9h-2.4V3.4H-147z"/>
	<path d="M3.5-118c-1,0-1.8,0.4-2.4,1.1h-1.2c-0.5,0-0.9-0.1-1.2-0.4s-0.5-0.6-0.5-1.1c0-2.1,0.4-3.2,1.1-3.2c0,0,0.2,0.1,0.4,0.2 c0.2,0.1,0.5,0.3,0.9,0.4s0.7,0.2,1.1,0.2c0.4,0,0.8-0.1,1.2-0.2c0,0.2,0,0.4,0,0.6C2.8-119.4,3-118.7,3.5-118z M3.2-125.3 c0.4,0.4,0.7,1,0.7,1.6c0,0.6-0.2,1.2-0.7,1.6s-1,0.7-1.6,0.7s-1.2-0.2-1.6-0.7s-0.7-1-0.7-1.6c0-0.6,0.2-1.2,0.7-1.6 c0.4-0.4,1-0.7,1.6-0.7S2.8-125.7,3.2-125.3z M13-112.3c0,0.7-0.2,1.3-0.7,1.7s-1,0.6-1.7,0.6H2.8c-0.7,0-1.3-0.2-1.7-0.6 s-0.7-1-0.7-1.7c0-0.3,0-0.6,0-0.9c0-0.3,0.1-0.6,0.1-1c0.1-0.3,0.1-0.7,0.2-1c0.1-0.3,0.2-0.6,0.4-0.9s0.3-0.5,0.6-0.7 c0.2-0.2,0.5-0.4,0.8-0.5c0.3-0.1,0.6-0.2,1-0.2c0.1,0,0.2,0.1,0.4,0.2s0.4,0.3,0.7,0.4c0.2,0.2,0.6,0.3,1,0.4 c0.4,0.1,0.8,0.2,1.2,0.2c0.4,0,0.8-0.1,1.2-0.2c0.4-0.1,0.7-0.3,1-0.4c0.2-0.2,0.5-0.3,0.7-0.4s0.3-0.2,0.4-0.2 c0.4,0,0.7,0.1,1,0.2c0.3,0.1,0.6,0.3,0.8,0.5c0.2,0.2,0.4,0.4,0.6,0.7c0.2,0.3,0.3,0.6,0.4,0.9c0.1,0.3,0.2,0.6,0.2,1 c0.1,0.3,0.1,0.7,0.1,1C13-112.9,13-112.6,13-112.3z M9.2-122.7c0.7,0.7,1,1.5,1,2.4s-0.3,1.8-1,2.4c-0.7,0.7-1.5,1-2.4,1 s-1.8-0.3-2.4-1c-0.7-0.7-1-1.5-1-2.4s0.3-1.8,1-2.4c0.7-0.7,1.5-1,2.4-1S8.5-123.3,9.2-122.7z M13.5-125.3c0.4,0.4,0.7,1,0.7,1.6 c0,0.6-0.2,1.2-0.7,1.6s-1,0.7-1.6,0.7s-1.2-0.2-1.6-0.7c-0.4-0.4-0.7-1-0.7-1.6c0-0.6,0.2-1.2,0.7-1.6c0.4-0.4,1-0.7,1.6-0.7 S13.1-125.7,13.5-125.3z M15.3-118.2c0,0.5-0.2,0.8-0.5,1.1c-0.3,0.2-0.7,0.4-1.2,0.4h-1.2c-0.6-0.7-1.4-1.1-2.4-1.1 c0.5-0.7,0.7-1.5,0.7-2.3c0-0.2,0-0.4,0-0.6c0.4,0.1,0.8,0.2,1.2,0.2c0.4,0,0.7-0.1,1.1-0.2c0.4-0.1,0.6-0.3,0.9-0.4 c0.2-0.1,0.4-0.2,0.4-0.2C15-121.4,15.3-120.3,15.3-118.2z"/>
	<path d="M3.3-61.8c1.1-0.2,2.2-0.3,3.4-0.3c1.2,0,2.4,0.1,3.4,0.3s1.9,0.5,2.5,0.8c0.6,0.4,0.9,0.7,0.9,1.1v1.1 c0,0.4-0.3,0.8-0.9,1.1c-0.6,0.4-1.4,0.6-2.5,0.8c-1.1,0.2-2.2,0.3-3.4,0.3c-1.2,0-2.4-0.1-3.4-0.3c-1.1-0.2-1.9-0.5-2.5-0.8 c-0.6-0.4-0.9-0.7-0.9-1.1v-1.1c0-0.4,0.3-0.8,0.9-1.1C1.4-61.4,2.3-61.6,3.3-61.8z M2.8-55.7c1.2,0.3,2.5,0.4,4,0.4 c1.4,0,2.7-0.1,4-0.4s2.2-0.6,2.9-1.1v1.5c0,0.4-0.3,0.8-0.9,1.1c-0.6,0.4-1.4,0.6-2.5,0.8C9.1-53.1,8-53,6.7-53 c-1.2,0-2.4-0.1-3.4-0.3c-1.1-0.2-1.9-0.5-2.5-0.8c-0.6-0.4-0.9-0.7-0.9-1.1v-1.5C0.6-56.3,1.6-55.9,2.8-55.7z M2.8-52.3 c1.2,0.3,2.5,0.4,4,0.4c1.4,0,2.7-0.1,4-0.4s2.2-0.6,2.9-1.1v1.5c0,0.4-0.3,0.8-0.9,1.1c-0.6,0.4-1.4,0.6-2.5,0.8 c-1.1,0.2-2.2,0.3-3.4,0.3c-1.2,0-2.4-0.1-3.4-0.3c-1.1-0.2-1.9-0.5-2.5-0.8c-0.6-0.4-0.9-0.7-0.9-1.1v-1.5 C0.6-52.9,1.6-52.5,2.8-52.3z M2.8-48.8c1.2,0.3,2.5,0.4,4,0.4c1.4,0,2.7-0.1,4-0.4s2.2-0.6,2.9-1.1v1.5c0,0.4-0.3,0.8-0.9,1.1 c-0.6,0.4-1.4,0.6-2.5,0.8S8-46.2,6.7-46.2c-1.2,0-2.4-0.1-3.4-0.3s-1.9-0.5-2.5-0.8c-0.6-0.4-0.9-0.7-0.9-1.1V-50 C0.6-49.5,1.6-49.1,2.8-48.8z"/>
	<path d="M-162.9-57.3c-0.2-0.1-0.4-0.3-0.3-0.6c0.1-0.2,0.3-0.4,0.6-0.3c1.6,0.6,2.9,1.7,3.7,3.2c2.1-4.1,5.7-7.2,10.1-8.6 c0.2-0.1,0.5,0,0.6,0.3c0.1,0.2,0,0.5-0.3,0.6c-4.5,1.4-8.1,4.7-10,9v0l0,0l0,0l0,0l0,0c0,0,0,0,0,0c0,0,0,0,0,0c0,0,0,0,0,0h0h0h0 h0h0h0h0h0h0h0c0,0,0,0,0,0c0,0,0,0,0,0h0c0,0,0,0,0,0l0,0l0,0c0,0,0,0,0,0l0,0c0,0,0,0,0-0.1v0C-160-55.4-161.3-56.7-162.9-57.3  M-151.5-51.4c-0.3,0-0.6,0.2-0.7,0.5c-0.1,0.3-0.1,0.6,0.1,0.9l-1.1,1.9c-0.1,0.1,0,0.4,0.1,0.4c0.1,0.1,0.4,0,0.4-0.1l1.1-1.9 c0.3,0,0.6-0.1,0.8-0.4c0.2-0.3,0.2-0.6,0-0.9C-150.9-51.2-151.2-51.4-151.5-51.4 M-148.3-53.1L-148.3-53.1l-2.7-1.5l2.2-3.8 l2.7,1.5L-148.3-53.1z M-149.9-51.3L-149.9-51.3C-149.9-51.3-149.9-51.3-149.9-51.3L-149.9-51.3L-149.9-51.3L-149.9-51.3l0,0.1v0v0 v0l-0.1,2c0,0.2-0.1,0.4-0.3,0.5l-3.6,2.3l0.1-4.3c0-0.2,0.1-0.4,0.3-0.5l1.7-1.1l0,0l0,0l0,0l0,0l0.7-1.2l1.9,1.1L-149.9-51.3z  M-145.3-57.1c-0.1-0.2-0.2-0.4-0.4-0.5l-2.7-1.5c-0.4-0.2-0.9-0.1-1.2,0.3l-2.2,3.9c-0.2,0.3-0.1,0.6,0,0.9l-0.7,1.2l-1.6,1.1 c-0.4,0.3-0.6,0.7-0.6,1.2l-0.1,4.5h-7.5c-0.2,0-0.4,0.2-0.4,0.4c0,0.2,0.2,0.4,0.4,0.4h8c0,0,0.1,0,0.2,0c0.1,0,0.2,0,0.3-0.1 c0,0,0,0,0,0l4-2.5c0.4-0.2,0.6-0.7,0.7-1.2l0.1-1.9l0.7-1.2c0.3,0,0.6-0.1,0.7-0.4c0,0,0,0,0,0l2.2-3.9 C-145.2-56.7-145.2-56.9-145.3-57.1"/>
	<path d="M7.4,13.3c-0.1,0.1-0.2,0.2-0.2,0.4v1.5c0,0.2-0.2,0.4-0.4,0.4c-0.2,0-0.4-0.2-0.4-0.4v-1.5c0-0.2-0.1-0.3-0.2-0.4 c-0.6-0.4-0.8-1.1-0.5-1.7C6,11,6.8,10.8,7.4,11.1c0.6,0.4,0.8,1.1,0.5,1.7C7.7,13.1,7.6,13.2,7.4,13.3 M8.1,10.6 c-0.9-0.7-2.2-0.6-3,0.3c-0.7,0.9-0.6,2.2,0.3,3c0,0,0,0,0.1,0.1v1.3c0,0.7,0.6,1.3,1.3,1.3c0.7,0,1.3-0.6,1.3-1.3v0V14 c0.9-0.7,1.1-2,0.4-2.9C8.3,10.8,8.2,10.7,8.1,10.6 M12.7,17.3c0,0.2-0.2,0.4-0.4,0.4h-11c-0.2,0-0.4-0.2-0.4-0.4v-8 c0-0.2,0.2-0.4,0.4-0.4h11c0.2,0,0.4,0.2,0.4,0.4V17.3z M2.9,4.6c0-2.1,1.7-3.8,3.8-3.8c2.1,0,3.8,1.7,3.8,3.8v0.1V8H2.9V4.6z  M12.2,8h-0.9V4.6C11.4,2.1,9.3,0,6.8,0C4.2,0,2.1,2.1,2.1,4.6V8H1.3C0.6,8,0,8.6,0,9.3v8c0,0.7,0.6,1.3,1.3,1.3h11 c0.7,0,1.3-0.6,1.3-1.3v-8C13.5,8.6,12.9,8,12.2,8"/>
</svg>
