<svg xmlns="http://www.w3.org/2000/svg" viewBox="0 0 1280 720">
  <defs>
    <style>.oct-shell-1{fill:#444545;}.oct-shell-2,.oct-shell-5{fill:#fff;}.oct-shell-3{fill:#ec4f24;}.oct-shell-4{fill-opacity:0.1;}.oct-shell-5{opacity:0.25;}.oct-shell-6{fill:#eb4e24;}</style>
  </defs>
  <title>octiv shell</title>
  <rect class="oct-shell-1" y="100" width="340.03" height="620"/>
  <rect class="oct-shell-2" width="1280" height="100"/>
  <path class="oct-shell-3" d="M76.18,39.8a3.81,3.81,0,0,1-2.71-1.12l-7.11-7.11a3.83,3.83,0,1,1,5.42-5.42l7.11,7.11a3.83,3.83,0,0,1,0,5.42A3.89,3.89,0,0,1,76.18,39.8ZM54.78,67.37a3.83,3.83,0,0,0,0-5.42L43.07,50.24a3.83,3.83,0,0,0-5.42,5.42L49.36,67.37a3.85,3.85,0,0,0,5.42,0ZM78.89,56.27a3.83,3.83,0,0,0,0-5.42L54.18,26.12a3.83,3.83,0,1,0-5.42,5.42L73.49,56.27a3.81,3.81,0,0,0,2.71,1.12A3.72,3.72,0,0,0,78.89,56.27Zm0,17.61a3.83,3.83,0,0,0,0-5.42L36.57,26.14a3.83,3.83,0,1,0-5.42,5.42L73.47,73.88a3.85,3.85,0,0,0,5.42,0Z"/>
  <rect class="oct-shell-4" x="120.13" y="42.51" width="100" height="15"/>
  <rect class="oct-shell-4" x="240.03" y="42.51" width="100" height="15"/>
  <rect class="oct-shell-4" x="359.93" y="42.51" width="100" height="15"/>
  <rect class="oct-shell-5" x="30.02" y="154.11" width="276.42" height="25"/>
  <rect class="oct-shell-5" x="30.02" y="203.81" width="276.42" height="25"/>
  <rect class="oct-shell-5" x="30.02" y="253.51" width="276.42" height="25"/>
  <rect class="oct-shell-5" x="30.02" y="303.21" width="276.42" height="25"/>
  <rect class="oct-shell-5" x="30.02" y="352.92" width="276.42" height="25"/>
  <rect class="oct-shell-6" x="1116.92" y="154.11" width="107.99" height="107.99" rx="4.99" ry="4.99"/>
  <path class="oct-shell-2" d="M1162.11,216.62h-24.7v-17h24.7V174h17.61v25.55h24.7v17h-24.7v25.55h-17.61Z"/>
</svg>