<svg id="Layer_1" data-name="Layer 1" xmlns="http://www.w3.org/2000/svg" viewBox="0 0 1000 1000"><defs><style>.cls-1{fill:#fff;opacity:.1}</style></defs><title>Artboard 1</title><path class="cls-1" d="M374.68 374.73a44.17 44.17 0 0 0 0-62.47L62.41 0H0v62.52l312.22 312.21a44.17 44.17 0 0 0 62.46 0zM386.9 387c-17.24 17.25-13.73 48.73 7.85 70.31L937.48 1000H1000v-62.42L457.21 394.8c-21.58-21.58-53.06-25.09-70.31-7.8zM247.37 647.16c17.25-17.25 16-46.46-2.78-65.24L0 337.32v124.93l182.13 182.13c18.78 18.78 47.99 20.03 65.24 2.78zm13.63 13.6c-17.27 17.24-16 46.46 2.75 65.24l274 274h124.93L326.22 663.54c-18.79-18.78-48-20.03-65.22-2.78zM861.97 0H737.04L1000 262.96V138.03L861.97 0zm-287.4 174.85a44.17 44.17 0 0 0 0-62.47L462.19 0H337.26l174.85 174.84a44.17 44.17 0 0 0 62.46.01zm12.22 12.22c-17.25 17.25-15.66 46.81 3.56 66L1000 662.74V537.81L652.82 190.62c-19.22-19.21-48.82-20.8-66.03-3.55zM0 862.03L137.97 1000H262.9L0 737.1v124.93zM699.85 500c-17.25 17.25-15.68 46.79 3.51 66L1000 862.63V737.7L765.82 503.52c-19.19-19.19-48.72-20.76-65.97-3.52zM253.34 116l375.2 375.2c15.24 15.24 41.57 13.61 58.82-3.64s18.88-43.58 3.64-58.82L315.8 53.49 262.3 0H137.37l115.9 115.89zM0 1000h63.01L0 936.99V1000zM1000 0h-63.08L1000 63.08V0zM300.09 899.77c-17.25 17.25-15.68 46.78 3.51 66l34.26 34.23h124.93l-96.73-96.73c-19.18-19.18-48.72-20.75-65.97-3.5zm-12.49-12.49c17.25-17.25 18.88-43.58 3.64-58.82L0 537.22v124.93l228.77 228.77c15.23 15.24 41.58 13.61 58.83-3.64zM500 699.89c-17.24 17.24-15.67 46.78 3.51 66L737.63 1000h124.9l-296.6-296.6c-19.19-19.18-48.72-20.76-65.93-3.51zM101.06 363.42L428.67 691c15.24 15.24 41.57 13.61 58.81-3.64s18.87-43.57 3.63-58.81l-375.2-375.2h-.05L0 137.47V262.4l100.21 100.21c.27.28.56.54.85.81zm798.68-63.3c-17.25 17.25-15.68 46.78 3.51 66l96.75 96.73V337.91l-34.29-34.29c-19.19-19.18-48.71-20.75-65.97-3.5zm-12.5-12.49c17.25-17.25 18.88-43.58 3.64-58.82L662.08 0H537.15l291.27 291.27c15.24 15.24 41.58 13.61 58.82-3.64z"/></svg>