<svg id="Layer_1" data-name="Layer 1" xmlns="http://www.w3.org/2000/svg" viewBox="0 0 158.22 74.71"><defs><style>.cls-1{font-size:25.01px;fill:#60686e;font-family:SalesforceSans-Light, Salesforce Sans;letter-spacing:0.01em;}.cls-2{letter-spacing:0em;}.cls-3{letter-spacing:0.01em;}.cls-4{letter-spacing:0.01em;}.cls-5{fill:#17a0db;}.cls-6{fill:#fff;}</style></defs><title>Salesforce-Files</title><text class="cls-1" transform="translate(113.22 38.8)">f<tspan class="cls-2" x="8" y="0">il</tspan><tspan class="cls-3" x="20" y="0">e</tspan><tspan class="cls-4" x="34" y="0">s</tspan></text><path class="cls-5" d="M44.42,8.15A18.7,18.7,0,0,1,58,2.34,18.9,18.9,0,0,1,74.42,12.1a22.76,22.76,0,0,1,9.31-2,23.21,23.21,0,0,1,0,46.43,22.85,22.85,0,0,1-4.53-.45,16.82,16.82,0,0,1-22,6.92,19.19,19.19,0,0,1-35.68-.87,17.61,17.61,0,0,1-3.66.38,18,18,0,0,1-8.91-33.6A20.73,20.73,0,0,1,44.42,8.15"/><path class="cls-6" d="M15.46,38.74c-.07.17,0,.21,0,.24a6.24,6.24,0,0,0,.61.37,6.5,6.5,0,0,0,3.19.75c2.19,0,3.55-1.16,3.55-3v0c0-1.73-1.53-2.36-3-2.82l-.19-.06c-1.09-.35-2-.66-2-1.37v0c0-.61.55-1.06,1.4-1.06a6.31,6.31,0,0,1,2.78.71s.21.14.29-.07l.45-1.2a.2.2,0,0,0-.11-.25A6.21,6.21,0,0,0,19.34,30h-.22c-2,0-3.4,1.21-3.4,2.95v0c0,1.83,1.54,2.42,3,2.84l.23.07c1.05.32,2,.6,2,1.34v0c0,.68-.59,1.18-1.54,1.18a5.18,5.18,0,0,1-2.82-.81l-.36-.23a.17.17,0,0,0-.29.1l-.43,1.2Z"/><path class="cls-6" d="M47.52,38.74c-.07.17,0,.21,0,.24a6.24,6.24,0,0,0,.61.37,6.5,6.5,0,0,0,3.19.75c2.19,0,3.55-1.16,3.55-3v0c0-1.73-1.53-2.36-3-2.82l-.19-.06c-1.09-.35-2-.66-2-1.37v0c0-.61.55-1.06,1.4-1.06a6.31,6.31,0,0,1,2.78.71s.21.14.29-.07l.45-1.2a.2.2,0,0,0-.11-.25A6.21,6.21,0,0,0,51.4,30h-.22c-2,0-3.4,1.21-3.4,2.95v0c0,1.83,1.54,2.42,3,2.84l.23.07c1.05.32,2,.6,2,1.34v0c0,.68-.59,1.18-1.54,1.18a5.18,5.18,0,0,1-2.82-.81l-.36-.23a.19.19,0,0,0-.29.1l-.43,1.2Z"/><path class="cls-6" d="M69.4,35.07a4.5,4.5,0,0,1-.59,2.48,2,2,0,0,1-1.78.87,1.94,1.94,0,0,1-1.77-.87,4.56,4.56,0,0,1-.58-2.48,4.52,4.52,0,0,1,.58-2.48A2,2,0,0,1,67,31.74a2,2,0,0,1,1.78.86,4.47,4.47,0,0,1,.59,2.48m1.83-2a4.4,4.4,0,0,0-.83-1.59A4,4,0,0,0,69,30.45a5.09,5.09,0,0,0-3.92,0,4,4,0,0,0-1.4,1.07,4.47,4.47,0,0,0-.83,1.59,7.34,7.34,0,0,0,0,3.93,4.43,4.43,0,0,0,.83,1.59,3.92,3.92,0,0,0,1.4,1.06,5.2,5.2,0,0,0,3.92,0,3.92,3.92,0,0,0,1.4-1.06A4.4,4.4,0,0,0,71.23,37a7.3,7.3,0,0,0,0-3.93"/><path class="cls-6" d="M86.23,38.14A.17.17,0,0,0,86,38a4.2,4.2,0,0,1-.85.24,6.61,6.61,0,0,1-1,.07,2.78,2.78,0,0,1-2.09-.78,3.49,3.49,0,0,1-.78-2.5,3.87,3.87,0,0,1,.7-2.41,2.39,2.39,0,0,1,2-.89,6.07,6.07,0,0,1,1.93.28s.14.06.21-.13c.16-.44.28-.76.45-1.25a.16.16,0,0,0-.11-.21,7.13,7.13,0,0,0-1.22-.31,9.15,9.15,0,0,0-1.37-.09,5,5,0,0,0-2,.39,4.22,4.22,0,0,0-1.47,1.07,4.54,4.54,0,0,0-.89,1.59,6.32,6.32,0,0,0-.3,2,5.26,5.26,0,0,0,1.22,3.64A4.62,4.62,0,0,0,84,40.06a7.44,7.44,0,0,0,2.59-.46.17.17,0,0,0,.07-.22l-.45-1.24Z"/><path class="cls-6" d="M89.43,34.06a3.59,3.59,0,0,1,.5-1.46,2,2,0,0,1,1.77-.9,1.92,1.92,0,0,1,1.73.9,3.06,3.06,0,0,1,.41,1.46Zm6.15-1.29a3.84,3.84,0,0,0-.79-1.45,3.64,3.64,0,0,0-1.17-.9,4.52,4.52,0,0,0-1.77-.36,4.83,4.83,0,0,0-2,.4,4.06,4.06,0,0,0-1.42,1.09,4.46,4.46,0,0,0-.84,1.61,6.94,6.94,0,0,0-.27,2,6.62,6.62,0,0,0,.28,2A4,4,0,0,0,90,39.7a6.23,6.23,0,0,0,2.25.36,6.46,6.46,0,0,0,3.12-.62c.07,0,.13-.1.05-.3L95,38a.18.18,0,0,0-.23-.11,6,6,0,0,1-2.54.46,2.53,2.53,0,0,1-2.84-2.79h6.19a.18.18,0,0,0,.18-.16,6.64,6.64,0,0,0-.18-2.67Z"/><path class="cls-6" d="M39.88,34.06a3.62,3.62,0,0,1,.5-1.46,2,2,0,0,1,1.77-.9,1.92,1.92,0,0,1,1.73.9,3.08,3.08,0,0,1,.41,1.46ZM46,32.76a3.84,3.84,0,0,0-.79-1.45,3.64,3.64,0,0,0-1.17-.9,4.52,4.52,0,0,0-1.77-.36,4.83,4.83,0,0,0-2,.4,4.06,4.06,0,0,0-1.42,1.09A4.46,4.46,0,0,0,38,33.15a7,7,0,0,0-.27,2,6.62,6.62,0,0,0,.28,2,4,4,0,0,0,2.45,2.6,6.23,6.23,0,0,0,2.25.36,6.46,6.46,0,0,0,3.12-.62c.07,0,.13-.1.05-.3L45.46,38a.18.18,0,0,0-.23-.11,6,6,0,0,1-2.54.46,2.53,2.53,0,0,1-2.84-2.79H46a.18.18,0,0,0,.18-.16A6.62,6.62,0,0,0,46,32.76Z"/><path class="cls-6" d="M26.51,38.11a1.25,1.25,0,0,1-.36-.37,1.5,1.5,0,0,1-.18-.8,1.35,1.35,0,0,1,.55-1.2,2.77,2.77,0,0,1,1.79-.45,12.69,12.69,0,0,1,1.68.14v2.81h0a12.57,12.57,0,0,1-1.67.22,2.78,2.78,0,0,1-1.81-.36M29,33.76c-.25,0-.58,0-1,0a5.87,5.87,0,0,0-1.52.2,4,4,0,0,0-1.29.6A2.89,2.89,0,0,0,24,37a3.23,3.23,0,0,0,.28,1.41,2.55,2.55,0,0,0,.81,1,3.38,3.38,0,0,0,1.26.55,7.39,7.39,0,0,0,1.64.17,11.17,11.17,0,0,0,1.88-.16c.61-.1,1.35-.25,1.56-.3l.43-.11a.19.19,0,0,0,.14-.2V33.64a3.46,3.46,0,0,0-1-2.73,4.21,4.21,0,0,0-2.84-.86,10.18,10.18,0,0,0-1.66.15,6,6,0,0,0-1.91.7.19.19,0,0,0-.05.25L25,32.32a.16.16,0,0,0,.2.1l.1-.05a6.28,6.28,0,0,1,2.7-.63,2.49,2.49,0,0,1,1.53.4c.34.26.51.65.51,1.47v.26c-.53-.08-1-.12-1-.12"/><path class="cls-6" d="M78.87,30.57a.17.17,0,0,0-.09-.22,5.37,5.37,0,0,0-1-.18,3.08,3.08,0,0,0-1.6.26,2.81,2.81,0,0,0-1,.77v-.75a.18.18,0,0,0-.18-.19H73.34a.18.18,0,0,0-.18.19v9.23a.19.19,0,0,0,.19.19H75a.19.19,0,0,0,.19-.19V35.07a5.4,5.4,0,0,1,.21-1.62,2.34,2.34,0,0,1,.54-.91,1.9,1.9,0,0,1,.76-.46A3,3,0,0,1,77.5,32a3.47,3.47,0,0,1,.68.08c.12,0,.19-.06.23-.17.11-.28.41-1.13.47-1.3"/><path class="cls-6" d="M63.62,26.3a5.32,5.32,0,0,0-.61-.15,4.84,4.84,0,0,0-.84-.06,3.54,3.54,0,0,0-2.62.94,5.11,5.11,0,0,0-1.24,2.81l-.08.42h-1.4a.21.21,0,0,0-.21.18l-.23,1.29c0,.12,0,.2.2.2h1.37l-1.39,7.74a9.58,9.58,0,0,1-.37,1.53,3.12,3.12,0,0,1-.43.88,1.15,1.15,0,0,1-.57.44,2.3,2.3,0,0,1-.73.1,2.73,2.73,0,0,1-.5-.05,1.47,1.47,0,0,1-.33-.11.17.17,0,0,0-.22.1L53,43.8A.19.19,0,0,0,53,44a5.06,5.06,0,0,0,.57.17,3.75,3.75,0,0,0,.91.09A4.53,4.53,0,0,0,56,44.06a2.87,2.87,0,0,0,1.14-.8,4.08,4.08,0,0,0,.8-1.39,11.76,11.76,0,0,0,.54-2.08l1.39-7.89h2a.21.21,0,0,0,.21-.18l.23-1.29c0-.12,0-.2-.2-.2h-2a8.59,8.59,0,0,1,.33-1.4A1.83,1.83,0,0,1,61,28.2a1.3,1.3,0,0,1,.52-.32,2.15,2.15,0,0,1,.66-.09,2.6,2.6,0,0,1,.51.05l.32.08c.2.06.23,0,.27-.1l.47-1.3a.17.17,0,0,0-.11-.22"/><path class="cls-6" d="M36,39.68a.18.18,0,0,1-.18.19H34.16a.18.18,0,0,1-.18-.19V26.47a.18.18,0,0,1,.18-.19H35.8a.18.18,0,0,1,.18.19v13.2Z"/></svg>