<svg version="1.1" xmlns="http://www.w3.org/2000/svg" xmlns:xlink="http://www.w3.org/1999/xlink" viewBox="0 0 17.1 16" xml:space="preserve">
	<path style="fill: #ffffff;" d="M-151.8,2.3l4.2,4.2l-8.4,8.4h-4.2v-4.2L-151.8,2.3z M-156.5,13.6l0.9-0.9l-2.4-2.4l-0.9,0.9v1.1h1.3v1.3H-156.5z  M-151.2,4.2c0-0.1-0.1-0.2-0.2-0.2c-0.1,0-0.1,0-0.2,0.1l-5.4,5.4c0,0-0.1,0.1-0.1,0.2c0,0.1,0.1,0.2,0.2,0.2c0.1,0,0.1,0,0.2-0.1 l5.4-5.4C-151.3,4.4-151.2,4.3-151.2,4.2z M-144.9,3.3c0,0.4-0.1,0.7-0.4,0.9l-1.7,1.7l-4.2-4.2l1.7-1.7c0.2-0.3,0.5-0.4,0.9-0.4 c0.4,0,0.7,0.1,0.9,0.4l2.4,2.4C-145,2.6-144.9,2.9-144.9,3.3z"/>
	<path style="fill: #ffffff;" d="M-142.7,141.5v1.2h-19.4v-14.6h1.2v13.4H-142.7z M-156.1,135.5v4.9h-2.4v-4.9H-156.1z M-152.4,130.6v9.7h-2.4v-9.7H-152.4z M-148.8,133v7.3h-2.4V133H-148.8z M-145.1,129.4v10.9h-2.4v-10.9H-145.1z"/>
	<path style="fill: #ffffff;" d="M5.3,8c-1,0-1.8,0.4-2.4,1.1H1.7C1.2,9.1,0.8,9,0.5,8.8S0,8.2,0,7.7c0-2.1,0.4-3.2,1.1-3.2c0,0,0.2,0.1,0.4,0.2 C1.7,4.9,2,5,2.4,5.1s0.7,0.2,1.1,0.2c0.4,0,0.8-0.1,1.2-0.2c0,0.2,0,0.4,0,0.6C4.6,6.5,4.8,7.3,5.3,8z M5,0.7 c0.4,0.4,0.7,1,0.7,1.6c0,0.6-0.2,1.2-0.7,1.6s-1,0.7-1.6,0.7S2.3,4.3,1.8,3.9s-0.7-1-0.7-1.6c0-0.6,0.2-1.2,0.7-1.6 C2.3,0.2,2.8,0,3.4,0S4.6,0.2,5,0.7z M14.9,13.7c0,0.7-0.2,1.3-0.7,1.7s-1,0.6-1.7,0.6H4.7c-0.7,0-1.3-0.2-1.7-0.6s-0.7-1-0.7-1.7 c0-0.3,0-0.6,0-0.9c0-0.3,0.1-0.6,0.1-1c0.1-0.3,0.1-0.7,0.2-1c0.1-0.3,0.2-0.6,0.4-0.9s0.3-0.5,0.6-0.7C3.8,9,4.1,8.9,4.4,8.8 c0.3-0.1,0.6-0.2,1-0.2c0.1,0,0.2,0.1,0.4,0.2S6.2,9,6.4,9.2c0.2,0.2,0.6,0.3,1,0.4c0.4,0.1,0.8,0.2,1.2,0.2c0.4,0,0.8-0.1,1.2-0.2 c0.4-0.1,0.7-0.3,1-0.4C11,9,11.2,8.9,11.4,8.8s0.3-0.2,0.4-0.2c0.4,0,0.7,0.1,1,0.2c0.3,0.1,0.6,0.3,0.8,0.5 c0.2,0.2,0.4,0.4,0.6,0.7c0.2,0.3,0.3,0.6,0.4,0.9c0.1,0.3,0.2,0.6,0.2,1c0.1,0.3,0.1,0.7,0.1,1C14.8,13.1,14.9,13.4,14.9,13.7z  M11,3.3c0.7,0.7,1,1.5,1,2.4s-0.3,1.8-1,2.4c-0.7,0.7-1.5,1-2.4,1s-1.8-0.3-2.4-1c-0.7-0.7-1-1.5-1-2.4s0.3-1.8,1-2.4 c0.7-0.7,1.5-1,2.4-1S10.3,2.6,11,3.3z M15.3,0.7c0.4,0.4,0.7,1,0.7,1.6c0,0.6-0.2,1.2-0.7,1.6s-1,0.7-1.6,0.7s-1.2-0.2-1.6-0.7 c-0.4-0.4-0.7-1-0.7-1.6c0-0.6,0.2-1.2,0.7-1.6c0.4-0.4,1-0.7,1.6-0.7S14.9,0.2,15.3,0.7z M17.1,7.7c0,0.5-0.2,0.8-0.5,1.1 c-0.3,0.2-0.7,0.4-1.2,0.4h-1.2C13.6,8.4,12.8,8,11.8,8c0.5-0.7,0.7-1.5,0.7-2.3c0-0.2,0-0.4,0-0.6c0.4,0.1,0.8,0.2,1.2,0.2 c0.4,0,0.7-0.1,1.1-0.2c0.4-0.1,0.6-0.3,0.9-0.4C15.9,4.6,16,4.6,16,4.6C16.8,4.6,17.1,5.6,17.1,7.7z"/>
	<path style="fill: #ffffff;" d="M5.1,64.1c1.1-0.2,2.2-0.3,3.4-0.3c1.2,0,2.4,0.1,3.4,0.3s1.9,0.5,2.5,0.8c0.6,0.4,0.9,0.7,0.9,1.1v1.1 c0,0.4-0.3,0.8-0.9,1.1c-0.6,0.4-1.4,0.6-2.5,0.8c-1.1,0.2-2.2,0.3-3.4,0.3c-1.2,0-2.4-0.1-3.4-0.3c-1.1-0.2-1.9-0.5-2.5-0.8 C2,68,1.7,67.6,1.7,67.2v-1.1c0-0.4,0.3-0.8,0.9-1.1C3.2,64.6,4.1,64.3,5.1,64.1z M4.6,70.3c1.2,0.3,2.5,0.4,4,0.4 c1.4,0,2.7-0.1,4-0.4s2.2-0.6,2.9-1.1v1.5c0,0.4-0.3,0.8-0.9,1.1c-0.6,0.4-1.4,0.6-2.5,0.8C11,72.8,9.8,73,8.6,73 c-1.2,0-2.4-0.1-3.4-0.3c-1.1-0.2-1.9-0.5-2.5-0.8c-0.6-0.4-0.9-0.7-0.9-1.1v-1.5C2.4,69.6,3.4,70,4.6,70.3z M4.6,73.7 c1.2,0.3,2.5,0.4,4,0.4c1.4,0,2.7-0.1,4-0.4s2.2-0.6,2.9-1.1v1.5c0,0.4-0.3,0.8-0.9,1.1c-0.6,0.4-1.4,0.6-2.5,0.8 c-1.1,0.2-2.2,0.3-3.4,0.3c-1.2,0-2.4-0.1-3.4-0.3c-1.1-0.2-1.9-0.5-2.5-0.8c-0.6-0.4-0.9-0.7-0.9-1.1v-1.5 C2.4,73.1,3.4,73.5,4.6,73.7z M4.6,77.1c1.2,0.3,2.5,0.4,4,0.4c1.4,0,2.7-0.1,4-0.4s2.2-0.6,2.9-1.1v1.5c0,0.4-0.3,0.8-0.9,1.1 c-0.6,0.4-1.4,0.6-2.5,0.8s-2.2,0.3-3.4,0.3c-1.2,0-2.4-0.1-3.4-0.3S3.2,79,2.6,78.7c-0.6-0.4-0.9-0.7-0.9-1.1V76 C2.4,76.5,3.4,76.9,4.6,77.1z"/>
	<path style="fill: #ffffff;" d="M-161.1,68.7c-0.2-0.1-0.4-0.3-0.3-0.6c0.1-0.2,0.3-0.4,0.6-0.3c1.6,0.6,2.9,1.7,3.7,3.2c2.1-4.1,5.7-7.2,10.1-8.6 c0.2-0.1,0.5,0,0.6,0.3c0.1,0.2,0,0.5-0.3,0.6c-4.5,1.4-8.1,4.7-10,9v0l0,0l0,0l0,0l0,0c0,0,0,0,0,0c0,0,0,0,0,0c0,0,0,0,0,0h0h0h0 h0h0h0h0h0h0h0c0,0,0,0,0,0c0,0,0,0,0,0h0c0,0,0,0,0,0l0,0l0,0c0,0,0,0,0,0l0,0c0,0,0,0,0-0.1v0C-158.1,70.6-159.4,69.3-161.1,68.7  M-149.7,74.6c-0.3,0-0.6,0.2-0.7,0.5c-0.1,0.3-0.1,0.6,0.1,0.9l-1.1,1.9c-0.1,0.1,0,0.4,0.1,0.4c0.1,0.1,0.4,0,0.4-0.1l1.1-1.9 c0.3,0,0.6-0.1,0.8-0.4c0.2-0.3,0.2-0.6,0-0.9C-149.1,74.7-149.4,74.6-149.7,74.6 M-146.5,72.9L-146.5,72.9l-2.7-1.5l2.2-3.8 l2.7,1.5L-146.5,72.9z M-148,74.7L-148,74.7C-148,74.7-148.1,74.7-148,74.7L-148,74.7L-148,74.7L-148,74.7l0,0.1v0v0v0l-0.1,2 c0,0.2-0.1,0.4-0.3,0.5l-3.6,2.3l0.1-4.3c0-0.2,0.1-0.4,0.3-0.5l1.7-1.1l0,0l0,0l0,0l0,0l0.7-1.2l1.9,1.1L-148,74.7z M-143.5,68.8 c-0.1-0.2-0.2-0.4-0.4-0.5l-2.7-1.5c-0.4-0.2-0.9-0.1-1.2,0.3l-2.2,3.9c-0.2,0.3-0.1,0.6,0,0.9l-0.7,1.2l-1.6,1.1 c-0.4,0.3-0.6,0.7-0.6,1.2l-0.1,4.5h-7.5c-0.2,0-0.4,0.2-0.4,0.4c0,0.2,0.2,0.4,0.4,0.4h8c0,0,0.1,0,0.2,0c0.1,0,0.2,0,0.3-0.1 c0,0,0,0,0,0l4-2.5c0.4-0.2,0.6-0.7,0.7-1.2l0.1-1.9l0.7-1.2c0.3,0,0.6-0.1,0.7-0.4c0,0,0,0,0,0l2.2-3.9 C-143.4,69.3-143.4,69-143.5,68.8"/>
	<path style="fill: #ffffff;" d="M9.2,139.3c-0.1,0.1-0.2,0.2-0.2,0.4v1.5c0,0.2-0.2,0.4-0.4,0.4c-0.2,0-0.4-0.2-0.4-0.4v-1.5c0-0.2-0.1-0.3-0.2-0.4 c-0.6-0.4-0.8-1.1-0.5-1.7c0.4-0.6,1.1-0.8,1.7-0.5c0.6,0.4,0.8,1.1,0.5,1.7C9.6,139,9.4,139.2,9.2,139.3 M9.9,136.6 c-0.9-0.7-2.2-0.6-3,0.3c-0.7,0.9-0.6,2.2,0.3,3c0,0,0,0,0.1,0.1v1.3c0,0.7,0.6,1.3,1.3,1.3c0.7,0,1.3-0.6,1.3-1.3v0v-1.3 c0.9-0.7,1.1-2,0.4-2.9C10.2,136.8,10,136.7,9.9,136.6 M14.5,143.3c0,0.2-0.2,0.4-0.4,0.4h-11c-0.2,0-0.4-0.2-0.4-0.4v-8 c0-0.2,0.2-0.4,0.4-0.4h11c0.2,0,0.4,0.2,0.4,0.4V143.3z M4.8,130.6c0-2.1,1.7-3.8,3.8-3.8c2.1,0,3.8,1.7,3.8,3.8v0.1v3.4H4.8V130.6 z M14.1,134h-0.9v-3.4c0-2.6-2.1-4.6-4.6-4.6c-2.5,0-4.6,2.1-4.6,4.6v3.4H3.1c-0.7,0-1.3,0.6-1.3,1.3v8c0,0.7,0.6,1.3,1.3,1.3h11 c0.7,0,1.3-0.6,1.3-1.3v-8C15.3,134.6,14.8,134,14.1,134"/>
</svg>
