<?xml version="1.0" encoding="utf-8"?>
<!-- Generator: Adobe Illustrator 20.0.0, SVG Export Plug-In . SVG Version: 6.00 Build 0)  -->
<svg version="1.1" id="Layer_1" xmlns="http://www.w3.org/2000/svg" xmlns:xlink="http://www.w3.org/1999/xlink" x="0px" y="0px"
	 viewBox="0 0 18 18.2" style="enable-background:new 0 0 18 18.2;" xml:space="preserve">
<g>
	<path d="M9.6-60.1l4.2,4.2l-8.4,8.4H1.3v-4.2L9.6-60.1z M4.9-48.9l0.9-0.9l-2.4-2.4l-0.9,0.9v1.1h1.3v1.3H4.9z M10.2-58.2
		c0-0.1-0.1-0.2-0.2-0.2c-0.1,0-0.1,0-0.2,0.1l-5.4,5.4c0,0-0.1,0.1-0.1,0.2c0,0.1,0.1,0.2,0.2,0.2c0.1,0,0.1,0,0.2-0.1l5.4-5.4
		C10.2-58.1,10.2-58.1,10.2-58.2z M16.5-59.1c0,0.4-0.1,0.7-0.4,0.9l-1.7,1.7l-4.2-4.2l1.7-1.7c0.2-0.3,0.5-0.4,0.9-0.4
		c0.4,0,0.7,0.1,0.9,0.4l2.4,2.4C16.4-59.8,16.5-59.5,16.5-59.1z"/>
</g>
<g>
	<path d="M18.7,79.1v1.2H-0.7V65.7h1.2v13.4H18.7z M5.4,73v4.9H2.9V73H5.4z M9,68.2v9.7H6.6v-9.7H9z M12.6,70.6v7.3h-2.4v-7.3H12.6z
		 M16.3,67v10.9h-2.4V67H16.3z"/>
</g>
<g>
	<path d="M166.7-54.4c-1,0-1.8,0.4-2.4,1.1h-1.2c-0.5,0-0.9-0.1-1.2-0.4s-0.5-0.6-0.5-1.1c0-2.1,0.4-3.2,1.1-3.2
		c0,0,0.2,0.1,0.4,0.2c0.2,0.1,0.5,0.3,0.9,0.4s0.7,0.2,1.1,0.2c0.4,0,0.8-0.1,1.2-0.2c0,0.2,0,0.4,0,0.6
		C166-55.9,166.2-55.1,166.7-54.4z M166.5-61.8c0.4,0.4,0.7,1,0.7,1.6c0,0.6-0.2,1.2-0.7,1.6s-1,0.7-1.6,0.7s-1.2-0.2-1.6-0.7
		s-0.7-1-0.7-1.6c0-0.6,0.2-1.2,0.7-1.6c0.4-0.4,1-0.7,1.6-0.7S166-62.2,166.5-61.8z M176.3-48.7c0,0.7-0.2,1.3-0.7,1.7
		s-1,0.6-1.7,0.6h-7.8c-0.7,0-1.3-0.2-1.7-0.6s-0.7-1-0.7-1.7c0-0.3,0-0.6,0-0.9c0-0.3,0.1-0.6,0.1-1c0.1-0.3,0.1-0.7,0.2-1
		c0.1-0.3,0.2-0.6,0.4-0.9s0.3-0.5,0.6-0.7c0.2-0.2,0.5-0.4,0.8-0.5c0.3-0.1,0.6-0.2,1-0.2c0.1,0,0.2,0.1,0.4,0.2s0.4,0.3,0.7,0.4
		c0.2,0.2,0.6,0.3,1,0.4c0.4,0.1,0.8,0.2,1.2,0.2c0.4,0,0.8-0.1,1.2-0.2c0.4-0.1,0.7-0.3,1-0.4c0.2-0.2,0.5-0.3,0.7-0.4
		s0.3-0.2,0.4-0.2c0.4,0,0.7,0.1,1,0.2c0.3,0.1,0.6,0.3,0.8,0.5c0.2,0.2,0.4,0.4,0.6,0.7c0.2,0.3,0.3,0.6,0.4,0.9
		c0.1,0.3,0.2,0.6,0.2,1c0.1,0.3,0.1,0.7,0.1,1C176.3-49.4,176.3-49.1,176.3-48.7z M172.4-59.1c0.7,0.7,1,1.5,1,2.4s-0.3,1.8-1,2.4
		c-0.7,0.7-1.5,1-2.4,1s-1.8-0.3-2.4-1c-0.7-0.7-1-1.5-1-2.4s0.3-1.8,1-2.4c0.7-0.7,1.5-1,2.4-1S171.8-59.8,172.4-59.1z M176.8-61.8
		c0.4,0.4,0.7,1,0.7,1.6c0,0.6-0.2,1.2-0.7,1.6s-1,0.7-1.6,0.7s-1.2-0.2-1.6-0.7c-0.4-0.4-0.7-1-0.7-1.6c0-0.6,0.2-1.2,0.7-1.6
		c0.4-0.4,1-0.7,1.6-0.7S176.3-62.2,176.8-61.8z M178.6-54.7c0,0.5-0.2,0.8-0.5,1.1c-0.3,0.2-0.7,0.4-1.2,0.4h-1.2
		c-0.6-0.7-1.4-1.1-2.4-1.1c0.5-0.7,0.7-1.5,0.7-2.3c0-0.2,0-0.4,0-0.6c0.4,0.1,0.8,0.2,1.2,0.2c0.4,0,0.7-0.1,1.1-0.2
		c0.4-0.1,0.6-0.3,0.9-0.4c0.2-0.1,0.4-0.2,0.4-0.2C178.2-57.9,178.6-56.8,178.6-54.7z"/>
</g>
<g>
	<path d="M166.6,1.7c1.1-0.2,2.2-0.3,3.4-0.3c1.2,0,2.4,0.1,3.4,0.3s1.9,0.5,2.5,0.8c0.6,0.4,0.9,0.7,0.9,1.1v1.1
		c0,0.4-0.3,0.8-0.9,1.1c-0.6,0.4-1.4,0.6-2.5,0.8c-1.1,0.2-2.2,0.3-3.4,0.3c-1.2,0-2.4-0.1-3.4-0.3c-1.1-0.2-1.9-0.5-2.5-0.8
		c-0.6-0.4-0.9-0.7-0.9-1.1V3.7c0-0.4,0.3-0.8,0.9-1.1C164.7,2.2,165.5,1.9,166.6,1.7z M166,7.9c1.2,0.3,2.5,0.4,4,0.4
		c1.4,0,2.7-0.1,4-0.4c1.2-0.3,2.2-0.6,2.9-1.1v1.5c0,0.4-0.3,0.8-0.9,1.1c-0.6,0.4-1.4,0.6-2.5,0.8c-1.1,0.2-2.2,0.3-3.4,0.3
		c-1.2,0-2.4-0.1-3.4-0.3c-1.1-0.2-1.9-0.5-2.5-0.8c-0.6-0.4-0.9-0.7-0.9-1.1V6.7C163.8,7.2,164.8,7.6,166,7.9z M166,11.3
		c1.2,0.3,2.5,0.4,4,0.4c1.4,0,2.7-0.1,4-0.4s2.2-0.6,2.9-1.1v1.5c0,0.4-0.3,0.8-0.9,1.1c-0.6,0.4-1.4,0.6-2.5,0.8
		c-1.1,0.2-2.2,0.3-3.4,0.3c-1.2,0-2.4-0.1-3.4-0.3c-1.1-0.2-1.9-0.5-2.5-0.8c-0.6-0.4-0.9-0.7-0.9-1.1v-1.5
		C163.8,10.6,164.8,11,166,11.3z M166,14.7c1.2,0.3,2.5,0.4,4,0.4c1.4,0,2.7-0.1,4-0.4s2.2-0.6,2.9-1.1v1.5c0,0.4-0.3,0.8-0.9,1.1
		c-0.6,0.4-1.4,0.6-2.5,0.8s-2.2,0.3-3.4,0.3c-1.2,0-2.4-0.1-3.4-0.3s-1.9-0.5-2.5-0.8c-0.6-0.4-0.9-0.7-0.9-1.1v-1.5
		C163.8,14.1,164.8,14.5,166,14.7z"/>
</g>
<path d="M0.3,6.3C0.1,6.2-0.1,6,0,5.7c0.1-0.2,0.3-0.4,0.6-0.3C2.2,6,3.5,7.1,4.3,8.6C6.3,4.5,10,1.4,14.4,0c0.2-0.1,0.5,0,0.6,0.3
	c0.1,0.2,0,0.5-0.3,0.6c-4.5,1.4-8.1,4.7-10,9v0l0,0l0,0l0,0l0,0c0,0,0,0,0,0c0,0,0,0,0,0c0,0,0,0,0,0h0h0h0h0h0h0h0h0h0h0
	c0,0,0,0,0,0c0,0,0,0,0,0h0c0,0,0,0,0,0l0,0l0,0c0,0,0,0,0,0l0,0c0,0,0,0,0-0.1v0C3.3,8.1,2,6.8,0.3,6.3 M11.7,12.2
	c-0.3,0-0.6,0.2-0.7,0.5c-0.1,0.3-0.1,0.6,0.1,0.9L10,15.4c-0.1,0.1,0,0.4,0.1,0.4c0.1,0.1,0.4,0,0.4-0.1l1.1-1.9
	c0.3,0,0.6-0.1,0.8-0.4c0.2-0.3,0.2-0.6,0-0.9C12.3,12.3,12,12.2,11.7,12.2 M14.9,10.5L14.9,10.5l-2.7-1.5l2.2-3.8l2.7,1.5
	L14.9,10.5z M13.4,12.2L13.4,12.2C13.4,12.3,13.4,12.3,13.4,12.2L13.4,12.2L13.4,12.2L13.4,12.2l0,0.1v0v0v0l-0.1,2
	c0,0.2-0.1,0.4-0.3,0.5l-3.6,2.3l0.1-4.3c0-0.2,0.1-0.4,0.3-0.5l1.7-1.1l0,0l0,0l0,0l0,0l0.7-1.2l1.9,1.1L13.4,12.2z M18,6.4
	c-0.1-0.2-0.2-0.4-0.4-0.5l-2.7-1.5c-0.4-0.2-0.9-0.1-1.2,0.3l-2.2,3.9c-0.2,0.3-0.1,0.6,0,0.9l-0.7,1.2l-1.6,1.1
	c-0.4,0.3-0.6,0.7-0.6,1.2l-0.1,4.5H1c-0.2,0-0.4,0.2-0.4,0.4c0,0.2,0.2,0.4,0.4,0.4h8c0,0,0.1,0,0.2,0c0.1,0,0.2,0,0.3-0.1
	c0,0,0,0,0,0l4-2.5c0.4-0.2,0.6-0.7,0.7-1.2l0.1-1.9l0.7-1.2c0.3,0,0.6-0.1,0.7-0.4c0,0,0,0,0,0l2.2-3.9C18,6.9,18,6.6,18,6.4"/>
<path d="M170.6,76.9c-0.1,0.1-0.2,0.2-0.2,0.4v1.5c0,0.2-0.2,0.4-0.4,0.4c-0.2,0-0.4-0.2-0.4-0.4v-1.5c0-0.2-0.1-0.3-0.2-0.4
	c-0.6-0.4-0.8-1.1-0.5-1.7c0.4-0.6,1.1-0.8,1.7-0.5c0.6,0.4,0.8,1.1,0.5,1.7C171,76.6,170.8,76.8,170.6,76.9 M171.3,74.1
	c-0.9-0.7-2.2-0.6-3,0.3c-0.7,0.9-0.6,2.2,0.3,3c0,0,0,0,0.1,0.1v1.3c0,0.7,0.6,1.3,1.3,1.3c0.7,0,1.3-0.6,1.3-1.3v0v-1.3
	c0.9-0.7,1.1-2,0.4-2.9C171.6,74.4,171.5,74.3,171.3,74.1 M175.9,80.8c0,0.2-0.2,0.4-0.4,0.4h-11c-0.2,0-0.4-0.2-0.4-0.4v-8
	c0-0.2,0.2-0.4,0.4-0.4h11c0.2,0,0.4,0.2,0.4,0.4V80.8z M166.2,68.2c0-2.1,1.7-3.8,3.8-3.8c2.1,0,3.8,1.7,3.8,3.8v0.1v3.4h-7.6V68.2
	z M175.5,71.5h-0.9v-3.4c0-2.6-2.1-4.6-4.6-4.6c-2.5,0-4.6,2.1-4.6,4.6v3.4h-0.9c-0.7,0-1.3,0.6-1.3,1.3v8c0,0.7,0.6,1.3,1.3,1.3h11
	c0.7,0,1.3-0.6,1.3-1.3v-8C176.7,72.1,176.2,71.5,175.5,71.5"/>
</svg>
