<svg version="1.1" xmlns="http://www.w3.org/2000/svg" xmlns:xlink="http://www.w3.org/1999/xlink" viewBox="0 0 13.7 16" xml:space="preserve">
	<path d="M-153.5-61.5l4.2,4.2l-8.4,8.4h-4.2v-4.2L-153.5-61.5z M-158.2-50.2l0.9-0.9l-2.4-2.4l-0.9,0.9v1.1h1.3v1.3H-158.2z  M-153-59.6c0-0.1-0.1-0.2-0.2-0.2c-0.1,0-0.1,0-0.2,0.1l-5.4,5.4c0,0-0.1,0.1-0.1,0.2c0,0.1,0.1,0.2,0.2,0.2c0.1,0,0.1,0,0.2-0.1 l5.4-5.4C-153-59.4-153-59.5-153-59.6z M-146.6-60.5c0,0.4-0.1,0.7-0.4,0.9l-1.7,1.7l-4.2-4.2l1.7-1.7c0.2-0.3,0.5-0.4,0.9-0.4 c0.4,0,0.7,0.1,0.9,0.4l2.4,2.4C-146.8-61.2-146.6-60.9-146.6-60.5z"/>
	<path d="M-144.4,77.7v1.2h-19.4V64.4h1.2v13.4H-144.4z M-157.8,71.6v4.9h-2.4v-4.9H-157.8z M-154.1,66.8v9.7h-2.4v-9.7H-154.1z M-150.5,69.2v7.3h-2.4v-7.3H-150.5z M-146.9,65.6v10.9h-2.4V65.6H-146.9z"/>
	<path d="M3.6-55.8c-1,0-1.8,0.4-2.4,1.1H0c-0.5,0-0.9-0.1-1.2-0.4s-0.5-0.6-0.5-1.1c0-2.1,0.4-3.2,1.1-3.2c0,0,0.2,0.1,0.4,0.2 c0.2,0.1,0.5,0.3,0.9,0.4s0.7,0.2,1.1,0.2c0.4,0,0.8-0.1,1.2-0.2c0,0.2,0,0.4,0,0.6C2.9-57.3,3.1-56.5,3.6-55.8z M3.3-63.1 c0.4,0.4,0.7,1,0.7,1.6c0,0.6-0.2,1.2-0.7,1.6s-1,0.7-1.6,0.7s-1.2-0.2-1.6-0.7s-0.7-1-0.7-1.6c0-0.6,0.2-1.2,0.7-1.6 c0.4-0.4,1-0.7,1.6-0.7S2.9-63.6,3.3-63.1z M13.1-50.1c0,0.7-0.2,1.3-0.7,1.7s-1,0.6-1.7,0.6H3c-0.7,0-1.3-0.2-1.7-0.6 s-0.7-1-0.7-1.7c0-0.3,0-0.6,0-0.9c0-0.3,0.1-0.6,0.1-1c0.1-0.3,0.1-0.7,0.2-1c0.1-0.3,0.2-0.6,0.4-0.9s0.3-0.5,0.6-0.7 c0.2-0.2,0.5-0.4,0.8-0.5c0.3-0.1,0.6-0.2,1-0.2c0.1,0,0.2,0.1,0.4,0.2s0.4,0.3,0.7,0.4c0.2,0.2,0.6,0.3,1,0.4 C6.1-54.1,6.5-54,6.9-54c0.4,0,0.8-0.1,1.2-0.2c0.4-0.1,0.7-0.3,1-0.4c0.2-0.2,0.5-0.3,0.7-0.4s0.3-0.2,0.4-0.2 c0.4,0,0.7,0.1,1,0.2c0.3,0.1,0.6,0.3,0.8,0.5c0.2,0.2,0.4,0.4,0.6,0.7c0.2,0.3,0.3,0.6,0.4,0.9c0.1,0.3,0.2,0.6,0.2,1 c0.1,0.3,0.1,0.7,0.1,1C13.1-50.7,13.1-50.4,13.1-50.1z M9.3-60.5c0.7,0.7,1,1.5,1,2.4s-0.3,1.8-1,2.4c-0.7,0.7-1.5,1-2.4,1 s-1.8-0.3-2.4-1c-0.7-0.7-1-1.5-1-2.4s0.3-1.8,1-2.4c0.7-0.7,1.5-1,2.4-1S8.6-61.2,9.3-60.5z M13.6-63.1c0.4,0.4,0.7,1,0.7,1.6 c0,0.6-0.2,1.2-0.7,1.6s-1,0.7-1.6,0.7s-1.2-0.2-1.6-0.7c-0.4-0.4-0.7-1-0.7-1.6c0-0.6,0.2-1.2,0.7-1.6c0.4-0.4,1-0.7,1.6-0.7 S13.2-63.6,13.6-63.1z M15.4-56.1c0,0.5-0.2,0.8-0.5,1.1c-0.3,0.2-0.7,0.4-1.2,0.4h-1.2c-0.6-0.7-1.4-1.1-2.4-1.1 c0.5-0.7,0.7-1.5,0.7-2.3c0-0.2,0-0.4,0-0.6c0.4,0.1,0.8,0.2,1.2,0.2c0.4,0,0.7-0.1,1.1-0.2c0.4-0.1,0.6-0.3,0.9-0.4 c0.2-0.1,0.4-0.2,0.4-0.2C15.1-59.2,15.4-58.2,15.4-56.1z"/>
	<path d="M3.4,0.3C4.5,0.1,5.6,0,6.9,0c1.2,0,2.4,0.1,3.4,0.3s1.9,0.5,2.5,0.8c0.6,0.4,0.9,0.7,0.9,1.1v1.1c0,0.4-0.3,0.8-0.9,1.1 c-0.6,0.4-1.4,0.6-2.5,0.8C9.2,5.6,8.1,5.7,6.9,5.7c-1.2,0-2.4-0.1-3.4-0.3C2.4,5.2,1.5,4.9,0.9,4.6C0.3,4.2,0,3.8,0,3.4V2.3 c0-0.4,0.3-0.8,0.9-1.1C1.5,0.8,2.4,0.5,3.4,0.3z M2.9,6.5c1.2,0.3,2.5,0.4,4,0.4c1.4,0,2.7-0.1,4-0.4s2.2-0.6,2.9-1.1v1.5 c0,0.4-0.3,0.8-0.9,1.1c-0.6,0.4-1.4,0.6-2.5,0.8C9.2,9,8.1,9.1,6.9,9.1C5.6,9.1,4.5,9,3.4,8.8C2.4,8.6,1.5,8.4,0.9,8 C0.3,7.6,0,7.3,0,6.9V5.3C0.7,5.8,1.7,6.2,2.9,6.5z M2.9,9.9c1.2,0.3,2.5,0.4,4,0.4c1.4,0,2.7-0.1,4-0.4s2.2-0.6,2.9-1.1v1.5 c0,0.4-0.3,0.8-0.9,1.1c-0.6,0.4-1.4,0.6-2.5,0.8c-1.1,0.2-2.2,0.3-3.4,0.3c-1.2,0-2.4-0.1-3.4-0.3c-1.1-0.2-1.9-0.5-2.5-0.8 C0.3,11.1,0,10.7,0,10.3V8.8C0.7,9.3,1.7,9.6,2.9,9.9z M2.9,13.3c1.2,0.3,2.5,0.4,4,0.4c1.4,0,2.7-0.1,4-0.4s2.2-0.6,2.9-1.1v1.5 c0,0.4-0.3,0.8-0.9,1.1c-0.6,0.4-1.4,0.6-2.5,0.8S8.1,16,6.9,16c-1.2,0-2.4-0.1-3.4-0.3s-1.9-0.5-2.5-0.8C0.3,14.5,0,14.1,0,13.7 v-1.5C0.7,12.7,1.7,13.1,2.9,13.3z"/>
	<path d="M-162.8,4.9c-0.2-0.1-0.4-0.3-0.3-0.6c0.1-0.2,0.3-0.4,0.6-0.3c1.6,0.6,2.9,1.7,3.7,3.2c2.1-4.1,5.7-7.2,10.1-8.6 c0.2-0.1,0.5,0,0.6,0.3c0.1,0.2,0,0.5-0.3,0.6c-4.5,1.4-8.1,4.7-10,9v0l0,0l0,0l0,0l0,0c0,0,0,0,0,0c0,0,0,0,0,0c0,0,0,0,0,0h0h0h0 h0h0h0h0h0h0h0c0,0,0,0,0,0c0,0,0,0,0,0h0c0,0,0,0,0,0l0,0l0,0c0,0,0,0,0,0l0,0c0,0,0,0,0-0.1v0C-159.9,6.8-161.2,5.5-162.8,4.9  M-151.4,10.8c-0.3,0-0.6,0.2-0.7,0.5c-0.1,0.3-0.1,0.6,0.1,0.9l-1.1,1.9c-0.1,0.1,0,0.4,0.1,0.4c0.1,0.1,0.4,0,0.4-0.1l1.1-1.9 c0.3,0,0.6-0.1,0.8-0.4c0.2-0.3,0.2-0.6,0-0.9C-150.8,10.9-151.1,10.8-151.4,10.8 M-148.2,9.1L-148.2,9.1l-2.7-1.5l2.2-3.8l2.7,1.5 L-148.2,9.1z M-149.7,10.9L-149.7,10.9C-149.7,10.9-149.8,10.9-149.7,10.9L-149.7,10.9L-149.7,10.9L-149.7,10.9l0,0.1v0v0v0l-0.1,2 c0,0.2-0.1,0.4-0.3,0.5l-3.6,2.3l0.1-4.3c0-0.2,0.1-0.4,0.3-0.5l1.7-1.1l0,0l0,0l0,0l0,0l0.7-1.2l1.9,1.1L-149.7,10.9z M-145.2,5 c-0.1-0.2-0.2-0.4-0.4-0.5l-2.7-1.5c-0.4-0.2-0.9-0.1-1.2,0.3l-2.2,3.9c-0.2,0.3-0.1,0.6,0,0.9l-0.7,1.2l-1.6,1.1 c-0.4,0.3-0.6,0.7-0.6,1.2l-0.1,4.5h-7.5c-0.2,0-0.4,0.2-0.4,0.4c0,0.2,0.2,0.4,0.4,0.4h8c0,0,0.1,0,0.2,0c0.1,0,0.2,0,0.3-0.1 c0,0,0,0,0,0l4-2.5c0.4-0.2,0.6-0.7,0.7-1.2l0.1-1.9l0.7-1.2c0.3,0,0.6-0.1,0.7-0.4c0,0,0,0,0,0l2.2-3.9 C-145.1,5.5-145.1,5.2-145.2,5"/>
	<path d="M7.5,75.5c-0.1,0.1-0.2,0.2-0.2,0.4v1.5c0,0.2-0.2,0.4-0.4,0.4c-0.2,0-0.4-0.2-0.4-0.4v-1.5c0-0.2-0.1-0.3-0.2-0.4 c-0.6-0.4-0.8-1.1-0.5-1.7c0.4-0.6,1.1-0.8,1.7-0.5C8.1,73.7,8.3,74.4,8,75C7.9,75.2,7.7,75.4,7.5,75.5 M8.2,72.7 c-0.9-0.7-2.2-0.6-3,0.3c-0.7,0.9-0.6,2.2,0.3,3c0,0,0,0,0.1,0.1v1.3c0,0.7,0.6,1.3,1.3,1.3c0.7,0,1.3-0.6,1.3-1.3v0v-1.3 c0.9-0.7,1.1-2,0.4-2.9C8.4,73,8.3,72.9,8.2,72.7 M12.8,79.5c0,0.2-0.2,0.4-0.4,0.4h-11c-0.2,0-0.4-0.2-0.4-0.4v-8 c0-0.2,0.2-0.4,0.4-0.4h11c0.2,0,0.4,0.2,0.4,0.4V79.5z M3.1,66.8c0-2.1,1.7-3.8,3.8-3.8c2.1,0,3.8,1.7,3.8,3.8v0.1v3.4H3.1V66.8z  M12.4,70.2h-0.9v-3.4c0-2.6-2.1-4.6-4.6-4.6c-2.5,0-4.6,2.1-4.6,4.6v3.4H1.4c-0.7,0-1.3,0.6-1.3,1.3v8c0,0.7,0.6,1.3,1.3,1.3h11 c0.7,0,1.3-0.6,1.3-1.3v-8C13.6,70.8,13,70.2,12.4,70.2"/>
</svg>
