<svg version="1.1" xmlns="http://www.w3.org/2000/svg" xmlns:xlink="http://www.w3.org/1999/xlink" viewBox="0 0 50 41.7" xml:space="preserve">
  <path d="M50,4.9c-1.8,0.8-3.8,1.4-5.9,1.7c2.1-1.3,3.7-3.4,4.5-5.8c-2,1.2-4.2,2.1-6.5,2.5c-1.9-2-4.5-3.3-7.5-3.3 C29,0,24.4,4.7,24.4,10.5c0,0.8,0.1,1.6,0.3,2.4c-8.5-0.4-16.1-4.6-21.1-11C2.6,3.5,2.1,5.3,2.1,7.2c0,3.6,1.8,6.9,4.6,8.8 C5,15.9,3.4,15.4,2,14.7v0.1c0,5.1,3.5,9.4,8.2,10.3c-0.9,0.2-1.8,0.4-2.7,0.4c-0.7,0-1.3-0.1-1.9-0.2c1.3,4.2,5.1,7.2,9.6,7.3 c-3.5,2.8-7.9,4.5-12.7,4.5c-0.8,0-1.6,0-2.4-0.1c4.5,3,9.9,4.7,15.7,4.7c18.9,0,29.2-16,29.2-29.9c0-0.5,0-0.9,0-1.4 C46.9,8.9,48.6,7,50,4.9"/>
</svg>
