<?xml version="1.0" encoding="utf-8"?>
<!-- Generator: Adobe Illustrator 19.2.0, SVG Export Plug-In . SVG Version: 6.00 Build 0)  -->
<svg version="1.1" id="Layer_1" xmlns="http://www.w3.org/2000/svg" xmlns:xlink="http://www.w3.org/1999/xlink" x="0px" y="0px"
	 viewBox="0 0 111.5 37.6" style="enable-background:new 0 0 111.5 37.6;" xml:space="preserve" fill="#fff">
<path d="M111.5,31.5c0.1-3-6.8-5.6-10-5.6C90,26,78.6,26,67.1,26.1L36,0l-5.1,2.8l9.3,23.5c-11,0.2-31.2,0.5-34.8,0.6
	c-3.1,0,17,9.9,22.1,10.7c0,0,41.2,0.1,59.4,0c4.7,0,9.4,0,14.1-0.1C104.1,37.5,111.3,34.8,111.5,31.5z"/>
<polygon points="3.7,11.8 0,13.5 4.7,24.9 17,24.6 "/>
</svg>
