<?xml version="1.0" encoding="utf-8"?>
<!-- Generator: Adobe Illustrator 19.2.0, SVG Export Plug-In . SVG Version: 6.00 Build 0)  -->
<svg version="1.1" id="Layer_1" xmlns="http://www.w3.org/2000/svg" xmlns:xlink="http://www.w3.org/1999/xlink" x="0px" y="0px"
	 viewBox="0 0 109.8 54.3" style="enable-background:new 0 0 109.8 54.3;" xml:space="preserve">
<style type="text/css">
	.st0{fill:#fff;}
</style>
<path class="st0" d="M109.8,37.2c0.4-3-6.4-6.1-9.5-6.3c-11.4-0.8-22.8-1.7-34.3-2.4L36.9,0l-5.3,2.4l7.5,24.1
	c-11-0.6-31.2-1.9-34.8-2.1c-3.1-0.3,16.2,11.2,21.3,12.4c0,0,41.1,3.2,59.2,4.6c4.7,0.3,9.3,0.7,14,1
	C101.9,42.6,109.4,40.4,109.8,37.2z"/>
<polygon class="st0" points="3.9,9.3 0,10.7 3.8,22.5 16.1,23.2 "/>
<ellipse transform="matrix(0.9691 -0.2469 0.2469 0.9691 -8.244 24.7651)" class="st0" cx="94.6" cy="45.3" rx="1.9" ry="1.9"/>
<ellipse transform="matrix(0.9691 -0.2469 0.2469 0.9691 -8.2974 23.3469)" class="st0" cx="89" cy="44.8" rx="1.9" ry="1.9"/>
<rect x="83.2" y="52.1" class="st0" width="25" height="2.2"/>
</svg>
