<?xml version="1.0" encoding="utf-8"?>
<!-- Generator: Adobe Illustrator 19.2.0, SVG Export Plug-In . SVG Version: 6.00 Build 0)  -->
<svg version="1.1" id="Layer_1" xmlns="http://www.w3.org/2000/svg" xmlns:xlink="http://www.w3.org/1999/xlink" x="0px" y="0px"
	 viewBox="0 0 366.949 79.434" enable-background="new 0 0 366.949 79.434" xml:space="preserve">
<path fill="#FFFFFF" d="M50.441,36.148h-9.31v-3.481c0-1.133-0.649-1.78-1.781-1.78h-8.826V70.77h3.463v8.664H16.454v-8.657h3.464
	v-39.89h-8.826c-1.135,0-1.782,0.647-1.782,1.78v3.481H0v-5.263c0-4.829,3.917-8.744,8.748-8.744h32.947
	c4.83,0,8.746,3.915,8.746,8.744C50.441,33.175,50.441,36.149,50.441,36.148z M113.97,70.769c-1.135,0-1.782-0.646-1.782-1.781
	V46.884c0-4.829-3.916-8.745-8.746-8.745h-7.259c-4.512,0-8.224,3.416-8.695,7.802h-0.112c-0.471-4.386-4.183-7.802-8.694-7.802
	l-6.484,0.001v8.744h3.238c1.134,0,1.78,0.566,1.78,1.782v30.767H87.42V48.617c0-1.216,0.648-1.78,1.781-1.78h11.007
	c1.132,0,1.78,0.565,1.78,1.782v22.067c0,4.829,3.916,8.745,8.747,8.745h5.595l1.236-8.664L113.97,70.769L113.97,70.769z
	 M162.205,70.769l-1.237,8.664l-5.603,0.001c-4.511,0-8.223-3.417-8.695-7.803h-0.113c-0.469,4.386-4.182,7.803-8.694,7.803h-7.826
	c-4.83,0-8.746-3.916-8.746-8.745V46.884c0-4.829,3.916-8.745,8.746-8.745l16.591,0.001v-5.474c0-1.214-0.648-1.78-1.782-1.78
	h-3.238v-8.744h6.475c4.832,0,8.748,3.915,8.748,8.744v38.101c0,1.217,0.646,1.782,1.78,1.782H162.205z M146.629,46.837h-13.356
	c-1.132,0-1.78,0.565-1.78,1.782v20.367c0,1.217,0.648,1.782,1.78,1.782h11.574c1.134,0,1.782-0.564,1.782-1.779V46.837z
	 M66.342,70.769V46.837c0-4.829-3.915-8.698-8.746-8.698h-5.047v8.698h1.811c1.133,0,1.781,0.564,1.781,1.78v22.158h-3.463v8.657
	h17.128v-8.664H66.342z M66.342,32.343H56.141V22.142h10.201V32.343z M229.544,38.139c-4.513,0-8.225,3.416-8.696,7.802h-0.111
	c-0.471-4.386-4.184-7.802-8.694-7.802l-6.483,0.001v8.744h3.238c1.133,0,1.78,0.566,1.78,1.782v22.103h-3.336v8.664h16.532v-8.664
	h-2.992V48.664c0-1.215,0.646-1.78,1.781-1.78h13.508l1.238-8.745H229.544z M200.346,46.885v8.165c0,4.829-3.914,8.745-8.748,8.745
	l-15.091-0.002v5.193c0,1.217,0.648,1.782,1.78,1.782h21.604l-1.593,8.663l-23.244,0.001c-4.832,0-8.748-3.916-8.748-8.745V46.884
	c0-4.829,3.916-8.745,8.748-8.745h16.543C196.432,38.139,200.346,42.055,200.346,46.885z M190.145,48.619
	c0-1.217-0.648-1.782-1.779-1.782h-10.077c-1.132,0-1.78,0.565-1.78,1.782v6.43h11.857c1.131,0,1.779-0.566,1.779-1.782V48.619z
	 M282.603,57.946v12.743c0,4.828-3.914,8.744-8.746,8.744h-36.086v-8.664h5.018V30.805h-5.018v-8.663h34.73
	c4.832,0,8.747,3.915,8.747,8.743l-0.002,9.558c0,4.973-3.793,8.694-7.802,8.694v0.112
	C277.879,49.249,282.603,51.949,282.603,57.946z M253.396,44.845h15.871c1.131,0,1.779-0.566,1.779-1.782V32.588
	c0-1.216-0.648-1.783-1.779-1.783h-15.871V44.845z M272.402,55.324c0-1.217-0.648-1.783-1.78-1.783h-17.226v17.228h17.226
	c1.132,0,1.78-0.565,1.78-1.782V55.324z M362.789,70.735c-1.374,0-1.957-0.445-2.443-1.138l-7.524-11.351l13.3-20.107h-11.883
	l-7.196,11.214l-4.491-7.123c-1.549-2.457-4.574-4.091-7.403-4.091h-6.701v8.698h3.736c1.373,0,1.956,0.446,2.443,1.138l6.7,10.102
	l-14.108,21.356h11.884L347.116,67l5.304,8.342c1.549,2.457,4.574,4.091,7.404,4.091h5.888l1.237-8.698H362.789z M323.603,46.884
	v23.803c0,4.829-3.913,8.745-8.745,8.745H297.38c-4.832,0-8.747-3.916-8.747-8.745V46.883c0-4.739,3.773-8.588,8.478-8.732
	c3.431,2.737,7.525,3.92,8.67,4.211c0.104,0.433,0.121,0.681,0.121,0.681s0.652-0.319,1.53-0.944c1.772-0.52,5.015-1.695,7.84-3.938
	C319.91,38.378,323.603,42.195,323.603,46.884z M313.404,48.619c0-1.217-0.648-1.782-1.78-1.782h-11.009
	c-1.133,0-1.78,0.565-1.78,1.782v20.333c0,1.216,0.647,1.781,1.78,1.781h11.009c1.132,0,1.78-0.565,1.78-1.781V48.619z
	 M320.555,26.115c-0.684-7.856-3.878-11.032-3.878-11.032s-0.291,2.231-1.745,4.312c-1.737,2.487-3.486,3.286-3.486,3.286
	s3.09-5.372,0.316-13.86C309.13,0.766,301.439,0,301.439,0s2.307,1.375,2.307,4.936c0,9.406-10.439,10.925-11.616,21.758
	c-1.237,11.387,11.479,15.115,13.651,15.668c-0.174-0.721-0.586-1.955-1.557-3.418c-1.539-2.319-4.572-3.684-4.572-9.384
	c0-6.377,5.822-8.791,5.822-8.791s-0.504,2.739,0.969,4.82c1.766,2.496,5.608,2.521,5.608,8.625c0,3.951-2.801,6.586-4.621,7.883
	C311.175,41.003,321.5,36.984,320.555,26.115z"/>
</svg>
