<svg id="Layer_1" data-name="Layer 1" xmlns="http://www.w3.org/2000/svg" viewBox="0 0 300 23.44"><defs><style>.cls-1{fill:#fff;}.cls-2{fill:#ec4f24;}.cls-3{fill-opacity:0.1;}</style></defs><title>app-header</title><rect class="cls-1" width="300" height="23.44"/><path class="cls-2" d="M17.85,9.33a.89.89,0,0,1-.64-.26L15.55,7.4a.9.9,0,0,1,1.27-1.27l1.67,1.67a.9.9,0,0,1,0,1.27A.91.91,0,0,1,17.85,9.33Zm-5,6.46a.9.9,0,0,0,0-1.27l-2.74-2.74A.9.9,0,1,0,8.82,13l2.74,2.74a.9.9,0,0,0,1.27,0Zm5.65-2.6a.9.9,0,0,0,0-1.27L12.7,6.12a.9.9,0,1,0-1.27,1.27l5.8,5.8a.89.89,0,0,0,.64.26A.87.87,0,0,0,18.49,13.19Zm0,4.13a.9.9,0,0,0,0-1.27L8.57,6.13A.9.9,0,0,0,7.3,7.4l9.92,9.92a.9.9,0,0,0,1.27,0Z"/><rect class="cls-3" x="28.16" y="9.96" width="23.44" height="3.52"/><rect class="cls-3" x="56.26" y="9.96" width="23.44" height="3.52"/><rect class="cls-3" x="84.36" y="9.96" width="23.44" height="3.52"/></svg>