<svg version="1.1" xmlns="http://www.w3.org/2000/svg" xmlns:xlink="http://www.w3.org/1999/xlink" viewBox="0 0 50 50" xml:space="preserve">
<path d="M1.3,41.4c0.6,1.6,1.5,3,2.9,4.4C5.6,47.2,7,48,8.6,48.7c1.6,0.6,3.4,1,6.1,1.2C17.4,50,18.2,50,25,50 s7.6,0,10.3-0.2c2.7-0.1,4.5-0.5,6.1-1.2c1.6-0.6,3-1.5,4.4-2.9c1.4-1.4,2.2-2.8,2.9-4.4c0.6-1.6,1-3.4,1.2-6.1 C50,32.6,50,31.8,50,25c0-6.8,0-7.6-0.2-10.3c-0.1-2.7-0.5-4.5-1.2-6.1c-0.6-1.6-1.5-3-2.9-4.4C44.4,2.8,43,2,41.4,1.3 c-1.6-0.6-3.4-1-6.1-1.2C32.8,0,31.9,0,26.4,0h-2.7c-5.5,0-6.5,0-8.9,0.2C12,0.3,10.2,0.7,8.6,1.3C7,2,5.6,2.8,4.2,4.2 C2.8,5.6,2,7,1.3,8.6c-0.6,1.6-1,3.4-1.2,6.1C0,17.1,0,18.1,0,23.3v3.4c0,5.3,0,6.2,0.2,8.6C0.3,38,0.7,39.8,1.3,41.4z M4.7,14.9 c0.1-2.4,0.5-3.8,0.9-4.6c0.5-1.2,1-2,1.9-2.9C8.3,6.5,9.1,6,10.3,5.5c0.9-0.3,2.2-0.7,4.6-0.9c2.6-0.1,3.4-0.1,10.1-0.1 s7.5,0,10.1,0.1c2.4,0.1,3.8,0.5,4.6,0.9c1.2,0.5,2,1,2.9,1.9c0.9,0.9,1.4,1.7,1.9,2.9c0.3,0.9,0.8,2.2,0.9,4.6 c0.1,2.6,0.1,3.4,0.1,10.1c0,6.7,0,7.5-0.1,10.1c-0.1,2.4-0.5,3.8-0.9,4.6c-0.5,1.2-1,2-1.9,2.9c-0.9,0.9-1.7,1.4-2.9,1.9 c-0.9,0.3-2.2,0.8-4.6,0.9c-2.6,0.1-3.4,0.1-10.1,0.1s-7.5,0-10.1-0.1c-2.4-0.1-3.8-0.5-4.6-0.9c-1.2-0.5-2-1-2.9-1.9 c-0.9-0.9-1.4-1.7-1.9-2.9c-0.3-0.9-0.8-2.2-0.9-4.6C4.5,32.5,4.5,31.7,4.5,25C4.5,18.3,4.5,17.5,4.7,14.9z M25,37.8 c7.1,0,12.8-5.7,12.8-12.8c0-7.1-5.7-12.8-12.8-12.8c-7.1,0-12.8,5.7-12.8,12.8C12.2,32.1,17.9,37.8,25,37.8z M25,16.7 c4.6,0,8.3,3.7,8.3,8.3c0,4.6-3.7,8.3-8.3,8.3c-4.6,0-8.3-3.7-8.3-8.3C16.7,20.4,20.4,16.7,25,16.7z M35.3,11.7c0-1.7,1.3-3,3-3 c1.7,0,3,1.3,3,3c0,1.7-1.3,3-3,3C36.7,14.7,35.3,13.3,35.3,11.7z"/>
</svg>
