<svg version="1.1" xmlns="http://www.w3.org/2000/svg" xmlns:xlink="http://www.w3.org/1999/xlink" viewBox="0 0 300 300" xml:space="preserve">
  <path style="fill: #42b0d8;" d="M148.3,254.2c8.9-8.9,8.9-23.7,0-32.6l0,0L78,151.4c-9.3-8.9-23.7-8.6-32.6,0.3c-8.6,8.9-8.6,23.3,0,32.2l70.3,70.3 C125,263.1,139.4,263.1,148.3,254.2L148.3,254.2z"/>
  <path style="fill: #33ab40;" d="M293,293.3c8.9-8.9,8.9-23.7,0-32.6l0,0L39.3,6.7C30-2.2,15.6-2.2,6.7,6.7s-8.9,23.7,0,32.6l254.1,254.1 C269.7,302.2,284.1,302.2,293,293.3L293,293.3z"/>
  <path style="fill: #b949f5;" d="M293,187.4c8.9-8.9,8.9-23.7,0-32.6l0,0L144.9,6.7c-8.9-8.9-23.7-8.9-32.6,0s-8.9,23.7,0,32.6l148.5,148.5 c4.5,4.5,10.3,6.9,16.1,6.9C283,194.2,288.9,191.8,293,187.4z"/>
  <path style="fill: #fac500;" d="M276.9,88.6c-6.2,0-12-2.4-16.1-6.9l-42.9-42.5c-8.9-8.9-8.9-23.7,0-32.6s23.7-8.9,32.6,0l0,0l42.9,42.9 c8.9,8.9,8.9,23.7,0,32.6l0,0C288.9,86.2,283,88.6,276.9,88.6z"/>
</svg>