<svg xmlns="http://www.w3.org/2000/svg" viewBox="0 0 22.71 37">
  <defs>
    <style>.cls-1{fill:#fff;}.cls-2{fill:#828282;}.cls-3{fill:#ed4c06;}</style>
  </defs>
  <title>phone</title>
  <rect class="cls-1" y="4.92" width="22.7" height="25.14"/>
  <path class="cls-2" d="M11.4,31.4a1.9,1.9,0,1,0,1.9,1.9,1.9,1.9,0,0,0-1.9-1.9m0,2.9a1,1,0,1,1,1-1,1,1,0,0,1-1,1M9.7,2.5H13v.8H9.7ZM20.5,0H2.3A2.33,2.33,0,0,0,0,2.3V34.7A2.26,2.26,0,0,0,2.3,37H20.4a2.26,2.26,0,0,0,2.3-2.3V2.3A2.18,2.18,0,0,0,20.5,0M2.3,1.3H20.4a1,1,0,0,1,1,1V4.4H1.3V2.3a1,1,0,0,1,1-1m-1,3.9H21.5V29.7H1.3ZM20.5,35.8H2.3a1,1,0,0,1-1-1V30.6H21.5v4.2a1.08,1.08,0,0,1-1,1"/>
  <rect class="cls-3" x="3.12" y="7.78" width="16.47" height="18.87"/>
  <path class="cls-1 phone-notification" d="M13.47,12.23a.38.38,0,0,1-.27-.11l-.71-.71a.38.38,0,1,1,.54-.54l.71.71a.38.38,0,0,1,0,.54A.39.39,0,0,1,13.47,12.23ZM11.33,15a.38.38,0,0,0,0-.54l-1.17-1.17a.38.38,0,0,0-.54.54L10.79,15a.39.39,0,0,0,.54,0Zm2.41-1.11a.38.38,0,0,0,0-.54l-2.47-2.47a.38.38,0,1,0-.54.54l2.47,2.47a.38.38,0,0,0,.27.11A.37.37,0,0,0,13.74,13.88Zm0,1.76a.38.38,0,0,0,0-.54L9.51,10.87a.38.38,0,0,0-.54.54l4.23,4.23a.39.39,0,0,0,.54,0Z"/>
  <path class="cls-1 phone-notification" d="M7.39,18,7,17.24h.3l.11.29.1.27h0l.1-.27.11-.29H8l-.38.8v.44H7.39Z"/>
  <path class="cls-1 phone-notification" d="M8.45,17.52A.5.5,0,1,1,8,18,.46.46,0,0,1,8.45,17.52Zm0,.77c.11,0,.17-.1.17-.27s-.06-.27-.17-.27-.17.11-.17.27S8.34,18.28,8.45,18.28Z"/>
  <path class="cls-1 phone-notification" d="M9.09,17.54h.28v.55c0,.14,0,.18.12.18s.11,0,.17-.1v-.63h.28v.95H9.71l0-.13h0a.37.37,0,0,1-.3.15c-.21,0-.29-.15-.29-.38Z"/>
  <path class="cls-1 phone-notification" d="M10.19,17.54h.23l0,.17h0a.32.32,0,0,1,.27-.19l.11,0,0,.24-.1,0a.23.23,0,0,0-.21.17v.55h-.28Z"/>
  <path class="cls-1 phone-notification" d="M11.3,17.86a.57.57,0,1,1,1.13,0,.57.57,0,1,1-1.13,0Zm.84,0c0-.25-.11-.4-.28-.4s-.28.15-.28.4.11.41.28.41S12.15,18.11,12.15,17.86Z"/>
  <path class="cls-1 phone-notification" d="M13.08,17.52a.38.38,0,0,1,.28.11l-.13.17a.2.2,0,0,0-.13-.06c-.14,0-.22.11-.22.27s.09.27.21.27a.27.27,0,0,0,.17-.07l.11.18a.49.49,0,0,1-.32.12.46.46,0,0,1-.47-.5A.48.48,0,0,1,13.08,17.52Z"/>
  <path class="cls-1 phone-notification" d="M13.57,17.76h-.13v-.21h.15l0-.25h.23v.25h.23v.22h-.23v.38c0,.11,0,.15.12.15l.09,0,0,.2a.69.69,0,0,1-.21,0c-.24,0-.33-.15-.33-.37Z"/>
  <path class="cls-1 phone-notification" d="M14.24,17.25a.15.15,0,0,1,.16-.15.15.15,0,1,1,0,.29A.15.15,0,0,1,14.24,17.25Zm0,.29h.28v.95h-.28Z"/>
  <path class="cls-1 phone-notification" d="M14.69,17.54H15l.12.45.08.29h0l.07-.29.12-.45h.27l-.31.95H15Z"/>
  <path class="cls-1 phone-notification" d="M5.67,19.42a.31.31,0,0,1,.23.1v-.47h.28v1.34H5.94l0-.09h0a.37.37,0,0,1-.25.12c-.24,0-.39-.19-.39-.5A.44.44,0,0,1,5.67,19.42Zm.07.76a.18.18,0,0,0,.15-.09v-.39a.22.22,0,0,0-.16-.06c-.09,0-.17.08-.17.26S5.63,20.19,5.74,20.19Z"/>
  <path class="cls-1 phone-notification" d="M6.83,19.42a.5.5,0,1,1-.46.5A.46.46,0,0,1,6.83,19.42Zm0,.77c.11,0,.17-.1.17-.27s-.06-.27-.17-.27-.17.11-.17.27S6.71,20.19,6.83,20.19Z"/>
  <path class="cls-1 phone-notification" d="M7.91,19.42a.38.38,0,0,1,.28.11l-.13.17a.2.2,0,0,0-.13-.06c-.14,0-.22.11-.22.27s.09.27.21.27a.27.27,0,0,0,.17-.07l.11.18a.49.49,0,0,1-.32.12.46.46,0,0,1-.47-.5A.48.48,0,0,1,7.91,19.42Z"/>
  <path class="cls-1 phone-notification" d="M8.36,19.45h.28V20c0,.14,0,.18.12.18s.11,0,.17-.1v-.63h.28v.95H9l0-.13H9a.37.37,0,0,1-.3.15c-.21,0-.29-.15-.29-.38Z"/>
  <path class="cls-1 phone-notification" d="M9.45,19.45h.23l0,.12h0a.4.4,0,0,1,.29-.14.26.26,0,0,1,.26.16.41.41,0,0,1,.3-.16c.2,0,.3.14.3.38v.59h-.28v-.55c0-.14,0-.18-.12-.18a.25.25,0,0,0-.16.09v.64H10v-.55c0-.14,0-.18-.12-.18a.25.25,0,0,0-.16.09v.64H9.45Z"/>
  <path class="cls-1 phone-notification" d="M11.48,19.42a.4.4,0,0,1,.4.45.56.56,0,0,1,0,.12H11.3a.23.23,0,0,0,.25.21.38.38,0,0,0,.2-.06l.09.17a.62.62,0,0,1-.34.11.5.5,0,0,1,0-1Zm.16.4c0-.11,0-.19-.16-.19s-.16.06-.18.19Z"/>
  <path class="cls-1 phone-notification" d="M12.07,19.45h.23l0,.12h0a.44.44,0,0,1,.3-.14c.21,0,.29.14.29.38v.59h-.28v-.55c0-.14,0-.18-.12-.18a.24.24,0,0,0-.18.09v.64h-.28Z"/>
  <path class="cls-1 phone-notification" d="M13.2,19.67h-.13v-.21h.15l0-.25h.23v.25h.23v.22h-.23V20c0,.11,0,.15.12.15l.09,0,0,.2a.69.69,0,0,1-.21,0c-.24,0-.33-.15-.33-.37Z"/>
  <path class="cls-1 phone-notification" d="M14.21,19.45h.28l.09.44,0,.28h0c0-.1,0-.19.06-.28l.11-.44H15l.11.44c0,.09,0,.19.06.28h0c0-.1,0-.19,0-.28l.09-.44h.26l-.23.95H15L15,20c0-.09,0-.18-.05-.28h0c0,.1,0,.19,0,.28l-.08.38h-.32Z"/>
  <path class="cls-1 phone-notification" d="M16.25,19.79a.13.13,0,0,0-.15-.14.51.51,0,0,0-.25.09l-.1-.19a.78.78,0,0,1,.41-.12c.24,0,.38.14.38.43v.54H16.3l0-.1h0a.41.41,0,0,1-.28.12.27.27,0,0,1-.28-.29C15.71,19.93,15.87,19.82,16.25,19.79Zm-.16.41a.21.21,0,0,0,.16-.08V20c-.2,0-.26.08-.26.16S16,20.2,16.09,20.2Z"/>
  <path class="cls-1 phone-notification" d="M16.81,20.11a.41.41,0,0,0,.24.1c.08,0,.12,0,.12-.08S17.08,20,17,20s-.25-.12-.25-.28.14-.3.36-.3a.54.54,0,0,1,.33.12l-.13.17a.35.35,0,0,0-.2-.08c-.07,0-.11,0-.11.07s.09.08.19.12.26.11.26.28-.14.31-.39.31a.61.61,0,0,1-.36-.13Z"/>
  <path class="cls-1 phone-notification" d="M6.53,21.35h.28v.94c0,.21-.08.38-.34.38a.43.43,0,0,1-.17,0l0-.21h.07c.07,0,.1,0,.1-.15Zm0-.29a.16.16,0,1,1,.16.15A.15.15,0,0,1,6.5,21.07Z"/>
  <path class="cls-1 phone-notification" d="M7,21.35h.28v.55c0,.14,0,.18.12.18s.11,0,.17-.1v-.63h.28v.95H7.66l0-.13h0a.37.37,0,0,1-.3.15c-.21,0-.29-.15-.29-.38Z"/>
  <path class="cls-1 phone-notification" d="M8.18,22a.41.41,0,0,0,.24.1c.08,0,.12,0,.12-.08s-.1-.09-.19-.13-.25-.12-.25-.28.14-.3.36-.3a.55.55,0,0,1,.33.12l-.13.17a.35.35,0,0,0-.2-.08c-.07,0-.11,0-.11.07s.09.08.19.12.26.11.26.28-.14.31-.39.31a.61.61,0,0,1-.36-.13Z"/>
  <path class="cls-1 phone-notification" d="M9,21.57H8.89v-.21H9l0-.25H9.3v.25h.23v.22H9.3V22c0,.11,0,.15.12.15l.09,0,0,.2a.7.7,0,0,1-.21,0c-.24,0-.33-.15-.33-.37Z"/>
  <path class="cls-1 phone-notification" d="M10.51,21.33a.5.5,0,1,1-.46.5A.46.46,0,0,1,10.51,21.33Zm0,.77c.11,0,.17-.11.17-.27s-.06-.27-.17-.27-.17.1-.17.27S10.4,22.1,10.51,22.1Z"/>
  <path class="cls-1 phone-notification" d="M11.45,22.37v.28h-.28v-1.3h.23l0,.09h0a.42.42,0,0,1,.27-.12c.23,0,.37.19.37.48s-.19.51-.4.51a.33.33,0,0,1-.23-.1Zm.15-.28c.1,0,.18-.08.18-.28s-.05-.26-.16-.26a.22.22,0,0,0-.16.09V22A.22.22,0,0,0,11.6,22.09Z"/>
  <path class="cls-1 phone-notification" d="M12.65,21.33a.4.4,0,0,1,.4.45.56.56,0,0,1,0,.12h-.57a.23.23,0,0,0,.25.21.38.38,0,0,0,.2-.06l.09.17a.62.62,0,0,1-.34.11.5.5,0,0,1,0-1Zm.16.4c0-.11,0-.19-.16-.19s-.16.06-.18.19Z"/>
  <path class="cls-1 phone-notification" d="M13.24,21.35h.23l0,.12h0a.44.44,0,0,1,.3-.14c.21,0,.29.15.29.38v.59h-.28v-.55c0-.14,0-.18-.12-.18a.24.24,0,0,0-.18.09v.64h-.28Z"/>
  <path class="cls-1 phone-notification" d="M14.73,21.33a.4.4,0,0,1,.4.45.56.56,0,0,1,0,.12h-.57a.23.23,0,0,0,.25.21A.38.38,0,0,0,15,22l.09.17a.62.62,0,0,1-.34.11.5.5,0,0,1,0-1Zm.16.4c0-.11,0-.19-.16-.19s-.16.06-.18.19Z"/>
  <path class="cls-1 phone-notification" d="M15.67,21.33a.31.31,0,0,1,.23.1V21h.28V22.3h-.23l0-.09h0a.37.37,0,0,1-.25.12c-.24,0-.39-.19-.39-.5A.44.44,0,0,1,15.67,21.33Zm.07.76a.18.18,0,0,0,.15-.09v-.39a.22.22,0,0,0-.16-.06c-.09,0-.17.08-.17.26S15.62,22.09,15.73,22.09Z"/>
</svg>