<?xml version="1.0" encoding="utf-8"?>
<!-- Generator: Adobe Illustrator 20.0.0, SVG Export Plug-In . SVG Version: 6.00 Build 0)  -->
<svg version="1.1" id="Layer_1" xmlns="http://www.w3.org/2000/svg" xmlns:xlink="http://www.w3.org/1999/xlink" x="0px" y="0px"
	 viewBox="0 0 7.3 10.9" style="enable-background:new 0 0 7.3 10.9;" xml:space="preserve">
<path d="M7.2,9.7c0,0.1-0.1,0.3-0.2,0.4c-0.1,0.2-0.2,0.3-0.3,0.4c-0.2,0.2-0.5,0.3-1,0.4c-0.5,0.1-0.9,0-1.3-0.1
	c-0.1,0-0.2-0.1-0.3-0.1c-0.1-0.1-0.2-0.1-0.3-0.2c-0.1-0.1-0.2-0.2-0.3-0.2c-0.1,0-0.2-0.1-0.3-0.3C3.1,9.8,3,9.8,2.9,9.7
	C2.6,9.4,2.3,9.1,2,8.8c-0.4-0.5-0.8-1.2-1.2-2S0.3,5.3,0.1,4.7C0,4.3,0,3.8,0,3.4c0,0,0-0.2,0-0.3c0-0.2,0-0.3,0-0.4
	c0-0.1,0-0.2,0-0.3C0,2.2,0,2,0.1,1.9c0-0.1,0.1-0.2,0.1-0.3c0.1-0.4,0.4-0.7,0.7-1.1C1.3,0.2,1.6,0,1.9,0C2,0,2.1,0,2.3,0
	c0.2,0,0.4,0.1,0.5,0.1c0.1,0,0.1,0,0.1,0.1C3,0.2,3.1,0.4,3.1,0.8c0,0.1,0,0.2,0.1,0.4c0,0.2,0.1,0.3,0.1,0.5c0,0.1,0,0.3,0.1,0.4
	c0,0,0,0.1,0.1,0.2c0,0.1,0,0.2,0.1,0.3c0,0.1,0,0.1,0,0.2c0,0.1-0.1,0.2-0.3,0.2C2.9,3.1,2.8,3.2,2.6,3.2C2.4,3.3,2.2,3.3,2.1,3.4
	C1.9,3.5,1.8,3.5,1.8,3.6c0,0,0,0.1,0,0.2c0,0.1,0,0.1,0,0.1c0,0,0,0.1,0,0.2c0,0.1,0,0.1,0,0.1c0.1,0.7,0.3,1.3,0.6,1.9
	C2.6,6.7,3,7.2,3.5,7.8c0,0,0,0,0.1,0.1C3.6,8,3.6,8,3.7,8c0,0,0.1,0.1,0.1,0.1c0,0,0.1,0.1,0.1,0.1c0.1,0,0.2,0,0.4-0.1
	C4.4,8.1,4.6,8,4.7,7.9c0.2-0.1,0.3-0.2,0.5-0.3c0.2-0.1,0.3-0.1,0.4-0.1c0.1,0,0.1,0.1,0.2,0.1c0.1,0.1,0.1,0.1,0.2,0.2
	C6,8,6.1,8,6.1,8c0.1,0.1,0.2,0.2,0.3,0.3c0.1,0.1,0.2,0.2,0.3,0.4C6.8,8.9,6.9,9,6.9,9c0.2,0.3,0.4,0.4,0.4,0.5
	C7.3,9.6,7.3,9.6,7.2,9.7z"/>
</svg>
