<svg id="Layer_1" data-name="Layer 1" xmlns="http://www.w3.org/2000/svg" viewBox="0 0 679.33 1540.95"><defs><style>.cls-1{fill:#fff;}.cls-2{opacity:0.25;}.cls-3{fill:#eb4e24;}.cls-4,.cls-8{opacity:0.1;}.cls-5{opacity:0.05;}.cls-6{fill:#42b0d7;opacity:0.5;}.cls-7,.cls-8{fill:#231f20;}</style></defs><title>repository list</title><path class="cls-1" d="M197,0H64V58.83H0v197a3,3,0,0,0,3,3H197a3,3,0,0,0,3-3V3A3,3,0,0,0,197,0Z"/><polygon class="cls-2" points="64 0 64 58.83 0 58.23 64 0"/><path class="cls-1" d="M436.64,0h-133V58.83h-64v197a3,3,0,0,0,3,3h194a3,3,0,0,0,3-3V3A3,3,0,0,0,436.64,0Z"/><polygon class="cls-2" points="303.67 0 303.67 58.83 239.67 58.23 303.67 0"/><path class="cls-1" d="M676.31,0h-133V58.83h-64v197a3,3,0,0,0,3,3h194a3,3,0,0,0,3-3V3A3,3,0,0,0,676.31,0Z"/><polygon class="cls-2" points="543.33 0 543.33 58.83 479.33 58.23 543.33 0"/><path class="cls-1" d="M197,309H64v58.38H0V562.89a3,3,0,0,0,3,3H197a3,3,0,0,0,3-3V312A3,3,0,0,0,197,309Z"/><polygon class="cls-2" points="64 309.04 64 367.42 0 366.83 64 309.04"/><path class="cls-1" d="M436.64,309h-133v58.38h-64V562.89a3,3,0,0,0,3,3h194a3,3,0,0,0,3-3V312A3,3,0,0,0,436.64,309Z"/><polygon class="cls-2" points="303.67 309.04 303.67 367.42 239.67 366.83 303.67 309.04"/><path class="cls-1" d="M676.31,309h-133v58.38h-64V562.89a3,3,0,0,0,3,3h194a3,3,0,0,0,3-3V312A3,3,0,0,0,676.31,309Z"/><polygon class="cls-2" points="543.33 309.04 543.33 367.42 479.33 366.83 543.33 309.04"/><rect class="cls-3" x="107.17" y="56.6" width="72.81" height="72.81"/><rect class="cls-4" x="499.35" y="380.13" width="72.81" height="72.81"/><rect class="cls-3" x="590.35" y="380.13" width="72.81" height="72.81"/><rect class="cls-4" x="499.35" y="468.48" width="72.81" height="72.81"/><rect class="cls-4" x="590.35" y="468.48" width="72.81" height="72.81"/><rect class="cls-4" x="499.35" y="558.39" width="72.81" height="7.5"/><rect class="cls-4" x="590.35" y="558.39" width="72.81" height="7.5"/><path class="cls-1" d="M197.79,925.11h-133v58.38H.82V1179a3,3,0,0,0,3,3h194a3,3,0,0,0,3-3V928.11A3,3,0,0,0,197.79,925.11Z"/><polygon class="cls-2" points="64.82 925.11 64.82 983.49 0.82 982.89 64.82 925.11"/><rect class="cls-4" x="20.83" y="996.19" width="72.81" height="72.81"/><rect class="cls-3" x="111.83" y="996.19" width="72.81" height="72.81"/><rect class="cls-4" x="20.83" y="1084.54" width="72.81" height="72.81"/><rect class="cls-4" x="111.83" y="1084.54" width="72.81" height="72.81"/><rect class="cls-4" x="20.83" y="1174.46" width="72.81" height="7.5"/><rect class="cls-4" x="111.83" y="1174.46" width="72.81" height="7.5"/><rect class="cls-4" x="20.02" y="70.2" width="72.81" height="15"/><rect class="cls-4" x="20.02" y="92.05" width="72.81" height="15"/><rect class="cls-4" x="20.02" y="113.9" width="72.81" height="15"/><rect class="cls-4" x="19.88" y="153.6" width="159.97" height="15"/><rect class="cls-4" x="20.02" y="198.05" width="159.97" height="15"/><rect class="cls-4" x="20.38" y="220.27" width="104.39" height="15"/><rect class="cls-4" x="130.21" y="220.27" width="49.32" height="15"/><rect class="cls-4" x="20.34" y="175.83" width="49.32" height="15"/><rect class="cls-3" x="79.67" y="175.83" width="66.23" height="15"/><rect class="cls-4" x="154.82" y="175.83" width="24.66" height="15"/><path class="cls-1" d="M675.49,616.11h-133v58.83h-64v197a3,3,0,0,0,3,3h194a3,3,0,0,0,3-3V619.13A3,3,0,0,0,675.49,616.11Z"/><polygon class="cls-2" points="542.52 616.11 542.52 674.94 478.52 674.34 542.52 616.11"/><rect class="cls-3" x="585.69" y="672.71" width="72.81" height="72.81"/><rect class="cls-4" x="498.53" y="686.31" width="72.81" height="15"/><rect class="cls-4" x="498.53" y="708.16" width="72.81" height="15"/><rect class="cls-4" x="498.53" y="730.01" width="72.81" height="15"/><rect class="cls-4" x="498.39" y="769.71" width="159.97" height="15"/><rect class="cls-4" x="498.53" y="814.16" width="159.97" height="15"/><rect class="cls-4" x="498.9" y="836.38" width="104.39" height="15"/><rect class="cls-4" x="608.72" y="836.38" width="49.32" height="15"/><rect class="cls-4" x="498.85" y="791.94" width="49.32" height="15"/><rect class="cls-3" x="558.19" y="791.94" width="66.23" height="15"/><rect class="cls-4" x="633.34" y="791.94" width="24.66" height="15"/><path class="cls-1" d="M436.64,1232.13h-133V1291h-64v197a3,3,0,0,0,3,3h194a3,3,0,0,0,3-3V1235.15A3,3,0,0,0,436.64,1232.13Z"/><polygon class="cls-2" points="303.67 1232.13 303.67 1290.96 239.67 1290.36 303.67 1232.13"/><rect class="cls-3" x="346.84" y="1288.73" width="72.81" height="72.81"/><rect class="cls-4" x="259.68" y="1302.33" width="72.81" height="15"/><rect class="cls-4" x="259.68" y="1324.18" width="72.81" height="15"/><rect class="cls-4" x="259.68" y="1346.03" width="72.81" height="15"/><rect class="cls-4" x="259.55" y="1385.74" width="159.97" height="15"/><rect class="cls-4" x="259.68" y="1430.18" width="159.97" height="15"/><rect class="cls-4" x="260.05" y="1452.4" width="104.39" height="15"/><rect class="cls-4" x="369.87" y="1452.4" width="49.32" height="15"/><rect class="cls-4" x="260" y="1407.96" width="49.32" height="15"/><rect class="cls-3" x="319.34" y="1407.96" width="66.23" height="15"/><rect class="cls-4" x="394.49" y="1407.96" width="24.66" height="15"/><rect class="cls-4" x="499.35" y="80.57" width="159.97" height="15"/><rect class="cls-4" x="499.35" y="212.82" width="159.97" height="2"/><rect class="cls-4" x="499.35" y="125.01" width="159.97" height="15"/><rect class="cls-4" x="499.76" y="147.23" width="104.39" height="15"/><rect class="cls-4" x="609.59" y="147.23" width="49.32" height="15"/><rect class="cls-4" x="499.76" y="102.79" width="49.32" height="15"/><rect class="cls-3" x="559.1" y="102.79" width="66.23" height="15"/><rect class="cls-4" x="634.25" y="102.79" width="24.66" height="15"/><rect class="cls-4" x="259.68" y="386.81" width="159.97" height="15"/><rect class="cls-4" x="259.68" y="431.25" width="159.97" height="15"/><rect class="cls-4" x="260.1" y="453.48" width="104.39" height="15"/><rect class="cls-4" x="369.92" y="453.48" width="49.32" height="15"/><rect class="cls-4" x="260.1" y="409.03" width="49.32" height="15"/><rect class="cls-3" x="319.43" y="409.03" width="66.23" height="15"/><rect class="cls-4" x="394.58" y="409.03" width="24.66" height="15"/><rect class="cls-4" x="259.68" y="484.22" width="159.97" height="15"/><rect class="cls-4" x="259.68" y="528.67" width="159.97" height="15"/><rect class="cls-4" x="260.1" y="550.89" width="104.39" height="15"/><rect class="cls-4" x="369.92" y="550.89" width="49.32" height="15"/><rect class="cls-4" x="260.1" y="506.45" width="49.32" height="15"/><rect class="cls-3" x="319.43" y="506.45" width="66.23" height="15"/><rect class="cls-4" x="394.58" y="506.45" width="24.66" height="15"/><path class="cls-1" d="M675.35,925.11h-133v58.38h-64V1179a3,3,0,0,0,3,3h194a3,3,0,0,0,3-3V928.11A3,3,0,0,0,675.35,925.11Z"/><polygon class="cls-2" points="542.38 925.11 542.38 983.49 478.38 982.89 542.38 925.11"/><rect class="cls-4" x="498.39" y="1002.88" width="159.97" height="15"/><rect class="cls-4" x="498.39" y="1047.32" width="159.97" height="15"/><rect class="cls-4" x="498.81" y="1069.54" width="104.39" height="15"/><rect class="cls-4" x="608.63" y="1069.54" width="49.32" height="15"/><rect class="cls-4" x="498.81" y="1025.1" width="49.32" height="15"/><rect class="cls-3" x="558.14" y="1025.1" width="66.23" height="15"/><rect class="cls-4" x="633.29" y="1025.1" width="24.66" height="15"/><rect class="cls-4" x="498.39" y="1100.29" width="159.97" height="15"/><rect class="cls-4" x="498.39" y="1144.73" width="159.97" height="15"/><rect class="cls-4" x="498.81" y="1166.96" width="104.39" height="15"/><rect class="cls-4" x="608.63" y="1166.96" width="49.32" height="15"/><rect class="cls-4" x="498.81" y="1122.51" width="49.32" height="15"/><rect class="cls-3" x="558.14" y="1122.51" width="66.23" height="15"/><rect class="cls-4" x="633.29" y="1122.51" width="24.66" height="15"/><path class="cls-1" d="M197.79,1232.13h-133v58.38H.82V1486a3,3,0,0,0,3,3h194a3,3,0,0,0,3-3V1235.13A3,3,0,0,0,197.79,1232.13Z"/><polygon class="cls-2" points="64.82 1232.13 64.82 1290.51 0.82 1289.92 64.82 1232.13"/><rect class="cls-4" x="20.83" y="1309.9" width="159.97" height="15"/><rect class="cls-4" x="20.83" y="1354.34" width="159.97" height="15"/><rect class="cls-4" x="21.25" y="1376.56" width="104.39" height="15"/><rect class="cls-4" x="131.07" y="1376.56" width="49.32" height="15"/><rect class="cls-4" x="21.25" y="1332.12" width="49.32" height="15"/><rect class="cls-3" x="80.58" y="1332.12" width="66.23" height="15"/><rect class="cls-4" x="155.73" y="1332.12" width="24.66" height="15"/><rect class="cls-4" x="20.83" y="1407.31" width="159.97" height="15"/><rect class="cls-4" x="20.83" y="1451.76" width="159.97" height="15"/><rect class="cls-4" x="21.25" y="1473.98" width="104.39" height="15"/><rect class="cls-4" x="131.07" y="1473.98" width="49.32" height="15"/><rect class="cls-4" x="21.25" y="1429.53" width="49.32" height="15"/><rect class="cls-3" x="80.58" y="1429.53" width="66.23" height="15"/><rect class="cls-4" x="155.73" y="1429.53" width="24.66" height="15"/><path class="cls-5" d="M157.47,460.61A56.7,56.7,0,0,0,92.7,407l8.14,56.1-52.66-21a56.7,56.7,0,0,0,83.2,68.76l-30.54-47.76Z"/><path class="cls-6" d="M85.1,397.59a56.75,56.75,0,0,0-44.52,35.1l52.66,21Z"/><path class="cls-3" d="M169.67,468.13c0-.82,0-1.64-.06-2.45L113,468.39l30.54,47.5A56.64,56.64,0,0,0,169.67,468.13Z"/><path class="cls-1" d="M436.64,925.11h-133v58.38h-64V1179a3,3,0,0,0,3,3h194a3,3,0,0,0,3-3V928.11A3,3,0,0,0,436.64,925.11Z"/><polygon class="cls-2" points="303.67 925.11 303.67 983.49 239.67 982.89 303.67 925.11"/><path class="cls-5" d="M397.14,1076.67A56.7,56.7,0,0,0,332.37,1023l8.14,56.1-52.66-21a56.7,56.7,0,0,0,83.2,68.76l-30.54-47.76Z"/><path class="cls-6" d="M324.76,1013.65a56.75,56.75,0,0,0-44.52,35.1l52.66,21Z"/><path class="cls-3" d="M409.34,1084.19c0-.82,0-1.64-.06-2.45l-56.63,2.71L383.2,1132A56.64,56.64,0,0,0,409.34,1084.19Z"/><g class="cls-4"><path class="cls-7" d="M501.91,203.44,499.43,201l1.71-1.71,2.47,2.47,2.56-2.56,1.76,1.76-2.56,2.56,2.47,2.47-1.71,1.71-2.47-2.47-2.56,2.56L499.35,206Z"/></g><path class="cls-1" d="M197.79,616.11h-133v58.83H.82v197a3,3,0,0,0,3,3h194a3,3,0,0,0,3-3V619.13A3,3,0,0,0,197.79,616.11Z"/><polygon class="cls-2" points="64.82 616.11 64.82 674.94 0.82 674.34 64.82 616.11"/><rect class="cls-4" x="20.83" y="696.68" width="159.97" height="15"/><rect class="cls-4" x="20.83" y="828.93" width="159.97" height="2"/><rect class="cls-4" x="20.83" y="741.12" width="159.97" height="15"/><rect class="cls-4" x="21.25" y="763.34" width="104.39" height="15"/><rect class="cls-4" x="131.07" y="763.34" width="49.32" height="15"/><rect class="cls-4" x="21.25" y="718.9" width="49.32" height="15"/><rect class="cls-3" x="80.58" y="718.9" width="66.23" height="15"/><rect class="cls-4" x="155.73" y="718.9" width="24.66" height="15"/><g class="cls-4"><path class="cls-7" d="M23.39,819.55l-2.47-2.47,1.71-1.71,2.47,2.47,2.56-2.56L29.42,817l-2.56,2.56,2.47,2.47-1.71,1.71-2.47-2.47-2.56,2.56-1.76-1.76Z"/></g><polygon class="cls-3" points="256.79 151.06 256.79 236.5 419.71 236.5 419.71 167.82 378.25 114.64 311.25 175.57 256.79 151.06"/><circle class="cls-8" cx="301.37" cy="106.02" r="30.88"/><path class="cls-1" d="M436.64,616.11h-133v58.83h-64v197a3,3,0,0,0,3,3h194a3,3,0,0,0,3-3V619.13A3,3,0,0,0,436.64,616.11Z"/><polygon class="cls-2" points="303.67 616.11 303.67 674.94 239.67 674.34 303.67 616.11"/><polygon class="cls-3" points="256.79 767.17 256.79 852.61 419.71 852.61 419.71 783.93 378.25 730.75 311.25 791.68 256.79 767.17"/><circle class="cls-8" cx="301.37" cy="722.13" r="30.88"/><path class="cls-1" d="M675.35,1232.13h-133V1291h-64v197a3,3,0,0,0,3,3h194a3,3,0,0,0,3-3V1235.15A3,3,0,0,0,675.35,1232.13Z"/><polygon class="cls-2" points="542.38 1232.13 542.38 1290.96 478.38 1290.36 542.38 1232.13"/><polygon class="cls-3" points="495.5 1383.19 495.5 1468.63 658.42 1468.63 658.42 1399.95 616.96 1346.78 549.96 1407.7 495.5 1383.19"/><circle class="cls-8" cx="540.08" cy="1338.15" r="30.88"/></svg>