<svg id="Layer_1" data-name="Layer 1" xmlns="http://www.w3.org/2000/svg" viewBox="0 0 40 21.6"><defs><style>.cls-1{fill:#22a7f0;}</style></defs><title>Artboard 1</title><path class="cls-1" d="M39.7,19.2a1.54,1.54,0,0,1-.2,2.1,1.67,1.67,0,0,1-2.2-.2l-3.5-4.5L30.4,21a1.57,1.57,0,0,1-2.2.2,1.46,1.46,0,0,1-.3-2.1l4-5.2-4-5.2a1.68,1.68,0,0,1,.3-2.2,1.68,1.68,0,0,1,2.2.3l3.4,4.5L37.3,7a1.53,1.53,0,1,1,2.4,1.9L35.8,14ZM21.5,6.4a7.74,7.74,0,0,0-6.8,4,7.78,7.78,0,0,0-6.9-4A8.22,8.22,0,0,0,3.1,7.9V1.5A1.54,1.54,0,0,0,1.6,0,1.56,1.56,0,0,0,0,1.5V14.1a7.66,7.66,0,0,0,7.7,7.5,7.87,7.87,0,0,0,6.9-4.1,7.83,7.83,0,0,0,6.8,4.1,7.73,7.73,0,0,0,7.8-7.7A7.54,7.54,0,0,0,21.5,6.4ZM7.7,18.6A4.61,4.61,0,0,1,3,14a4.7,4.7,0,0,1,9.4,0A4.61,4.61,0,0,1,7.7,18.6Zm13.8,0A4.61,4.61,0,0,1,16.8,14a4.7,4.7,0,0,1,9.4,0A4.74,4.74,0,0,1,21.5,18.6Z"/></svg>