<?xml version="1.0" encoding="utf-8"?>
<!-- Generator: Adobe Illustrator 20.0.0, SVG Export Plug-In . SVG Version: 6.00 Build 0)  -->
<svg version="1.1" id="Layer_1" xmlns="http://www.w3.org/2000/svg" xmlns:xlink="http://www.w3.org/1999/xlink" x="0px" y="0px"
	 viewBox="0 0 320 120" style="enable-background:new 0 0 320 120;" xml:space="preserve">
<style type="text/css">
	.st0{fill:#FFFFFF;}
	.st1{fill:#ED4C06;}
	.st2{enable-background:new    ;}
	.st3{fill:#3AB449;}
	.st4{fill:#D9D9D6;}
	.st5{fill:#75787B;}
</style>
<title>Artboard 1 copy</title>
<g>
	<path class="st0" d="M8,0h304c4.4,0,8,3.6,8,8v104c0,4.4-3.6,8-8,8H8c-4.4,0-8-3.6-8-8V8C0,3.6,3.6,0,8,0z"/>
</g>
<g id="Stroke-6">
	<path class="st1" d="M257.4,29.9h-0.5c-2.4,0-4.4-2-4.4-4.4V13.9c0-2.4,2-4.4,4.4-4.4h46.5c2.4,0,4.4,2,4.4,4.4v11.6
		c0,2.4-2,4.4-4.4,4.4L257.4,29.9z M256.9,10.5c-1.9,0-3.4,1.5-3.4,3.4v11.6c0,1.8,1.4,3.3,3.2,3.4l0.2,0h46.5
		c1.9,0,3.4-1.5,3.4-3.4V13.9c0-1.9-1.5-3.4-3.4-3.4H256.9z"/>
</g>
<g class="st2">
	<path class="st1" d="M261.4,21.8c0.6,0.5,1.3,0.8,1.9,0.8c0.7,0,1.1-0.3,1.1-0.8c0-0.5-0.4-0.6-1.1-0.9l-1-0.4
		c-0.8-0.3-1.6-1-1.6-2.1c0-1.3,1.2-2.3,2.8-2.3c0.9,0,1.8,0.4,2.5,1l-0.9,1.1c-0.5-0.4-1-0.6-1.6-0.6c-0.6,0-1,0.3-1,0.7
		c0,0.5,0.5,0.6,1.2,0.9l1,0.4c0.9,0.4,1.5,1,1.5,2.1c0,1.3-1.1,2.4-2.9,2.4c-1,0-2.1-0.4-2.9-1.1L261.4,21.8z"/>
	<path class="st1" d="M267.8,16.2h1.8V24h-1.8V16.2z"/>
	<path class="st1" d="M275.1,16c1.1,0,1.9,0.5,2.4,1l-1,1.1c-0.4-0.4-0.8-0.6-1.4-0.6c-1.2,0-2.1,0.9-2.1,2.5c0,1.6,0.7,2.5,2.2,2.5
		c0.3,0,0.6-0.1,0.8-0.2V21h-1.3v-1.4h2.9v3.6c-0.6,0.5-1.5,0.9-2.6,0.9c-2.1,0-3.8-1.4-3.8-4C271.2,17.5,273,16,275.1,16z"/>
	<path class="st1" d="M279.5,16.2h1.8l2,3.9l0.8,1.7h0c-0.1-0.8-0.2-1.9-0.2-2.9v-2.8h1.7V24h-1.8l-2-3.9l-0.8-1.7h0
		c0.1,0.9,0.2,1.9,0.2,2.8V24h-1.7V16.2z"/>
	<path class="st1" d="M287.7,16.2h4.9v1.5h-3.1v1.6h2.7v1.5h-2.7v1.8h3.2V24h-5V16.2z"/>
	<path class="st1" d="M298.7,24l-1.5-2.8h-1V24h-1.8v-7.8h2.8c1.7,0,3,0.6,3,2.4c0,1.2-0.6,1.9-1.4,2.3l1.8,3.1H298.7z M296.2,19.8
		h0.9c0.9,0,1.4-0.4,1.4-1.2s-0.5-1-1.4-1h-0.9V19.8z"/>
</g>
<g class="st2">
	<path class="st3" d="M103.8,101.6h-2.9l-0.8,2.4h-1l2.7-7.9h1.1l2.7,7.9h-1.1L103.8,101.6z M103.5,100.8l-0.4-1.2
		c-0.3-0.9-0.5-1.7-0.8-2.7h0c-0.3,0.9-0.5,1.8-0.8,2.7l-0.4,1.2H103.5z"/>
</g>
<g class="st2">
	<path class="st3" d="M109.1,98c0.8,0,1.3,0.3,1.7,0.7l-0.5,0.6c-0.3-0.3-0.7-0.5-1.2-0.5c-1.1,0-1.8,0.9-1.8,2.3
		c0,1.3,0.7,2.2,1.8,2.2c0.6,0,1-0.3,1.4-0.6l0.4,0.6c-0.5,0.5-1.2,0.8-1.9,0.8c-1.5,0-2.7-1.1-2.7-3C106.3,99.1,107.6,98,109.1,98z
		"/>
</g>
<g class="st2">
	<path class="st3" d="M114.4,98c0.8,0,1.3,0.3,1.7,0.7l-0.5,0.6c-0.3-0.3-0.7-0.5-1.2-0.5c-1.1,0-1.8,0.9-1.8,2.3
		c0,1.3,0.7,2.2,1.8,2.2c0.6,0,1-0.3,1.4-0.6l0.4,0.6c-0.5,0.5-1.2,0.8-1.9,0.8c-1.5,0-2.7-1.1-2.7-3C111.6,99.1,112.9,98,114.4,98z
		"/>
</g>
<g class="st2">
	<path class="st3" d="M119.8,98c1.5,0,2.3,1.1,2.3,2.7c0,0.2,0,0.4,0,0.5h-3.9c0.1,1.3,0.8,2.1,1.9,2.1c0.6,0,1-0.2,1.5-0.5l0.3,0.6
		c-0.5,0.3-1.1,0.6-1.9,0.6c-1.6,0-2.8-1.1-2.8-3S118.4,98,119.8,98z M121.2,100.7c0-1.2-0.5-1.8-1.4-1.8c-0.8,0-1.6,0.7-1.7,1.8
		H121.2z"/>
	<path class="st3" d="M124.8,104.5v2h-1v-8.3h0.8l0.1,0.7h0c0.5-0.4,1.2-0.8,1.9-0.8c1.5,0,2.3,1.2,2.3,3c0,2-1.2,3.1-2.5,3.1
		c-0.5,0-1.1-0.3-1.6-0.7L124.8,104.5z M126.2,103.3c1,0,1.7-0.9,1.7-2.3c0-1.3-0.4-2.1-1.5-2.1c-0.5,0-1,0.3-1.6,0.8v3.1
		C125.3,103.1,125.8,103.3,126.2,103.3z"/>
</g>
<g class="st2">
	<path class="st3" d="M130.8,99h-0.9v-0.7l0.9-0.1l0.1-1.6h0.8v1.6h1.6V99h-1.6v3.2c0,0.7,0.2,1.1,0.9,1.1c0.2,0,0.5-0.1,0.7-0.2
		l0.2,0.7c-0.3,0.1-0.7,0.2-1.1,0.2c-1.2,0-1.7-0.8-1.7-1.9V99z"/>
</g>
<g class="st2">
	<path class="st3" d="M136.9,98c1.5,0,2.3,1.1,2.3,2.7c0,0.2,0,0.4,0,0.5h-3.9c0.1,1.3,0.8,2.1,1.9,2.1c0.6,0,1-0.2,1.5-0.5l0.3,0.6
		c-0.5,0.3-1.1,0.6-1.9,0.6c-1.6,0-2.8-1.1-2.8-3S135.6,98,136.9,98z M138.4,100.7c0-1.2-0.5-1.8-1.4-1.8c-0.8,0-1.6,0.7-1.7,1.8
		H138.4z"/>
	<path class="st3" d="M143,98c0.7,0,1.1,0.3,1.6,0.7l0-1v-2.2h1v8.5h-0.8l-0.1-0.7h0c-0.5,0.4-1.1,0.8-1.8,0.8c-1.5,0-2.4-1.1-2.4-3
		C140.5,99.2,141.7,98,143,98z M143.1,103.3c0.5,0,1-0.3,1.5-0.8v-3c-0.5-0.4-0.9-0.6-1.4-0.6c-0.9,0-1.7,0.9-1.7,2.2
		C141.5,102.5,142.1,103.3,143.1,103.3z"/>
</g>
<g id="Oval-46">
	<circle class="st3" cx="87.5" cy="100.5" r="6.5"/>
</g>
<g id="Page-1">
	<path class="st0" d="M86.6,103.3c-0.1,0-0.3-0.1-0.4-0.2l-1.6-1.7c-0.2-0.2-0.2-0.5,0-0.7c0.2-0.2,0.5-0.2,0.7,0l1.2,1.3l4-4.4
		c0.2-0.2,0.5-0.2,0.7,0c0.2,0.2,0.2,0.5,0,0.7l-4.4,4.8C86.9,103.2,86.8,103.3,86.6,103.3C86.6,103.3,86.6,103.3,86.6,103.3z"/>
</g>
<g id="Line-02">
	<polygon class="st4" points="80.9,85.5 225,85.5 225,75.5 80.9,75.5 	"/>
</g>
<g id="Line-01">
	<polygon class="st4" points="80.9,66.1 200.9,66.1 200.9,56.1 80.9,56.1 	"/>
</g>
<g id="Name">
	<polygon class="st5" points="81,24 181,24 181,14 81,14 	"/>
</g>
<g id="Fill-8">
	<path class="st3" d="M68.8,39.8c0,16.1-13,29.1-29.1,29.1s-29.1-13-29.1-29.1s13-29.1,29.1-29.1l0,0l0,0
		C55.8,10.7,68.8,23.7,68.8,39.8z"/>
</g>
<g id="Stroke-14">
	<path class="st0" d="M51.9,61.6c-0.3,0-0.5-0.2-0.5-0.5c0-5.7-4.6-10.3-10.3-10.3h-2.7c0,0,0,0,0,0c-5.7,0-10.3,4.6-10.3,10.3
		c0,0.3-0.2,0.5-0.5,0.5h0c-0.3,0-0.5-0.2-0.5-0.5c0-6.2,5.1-11.3,11.3-11.3c0,0,0,0,0,0h2.7c6.2,0,11.3,5.1,11.3,11.3
		C52.4,61.4,52.2,61.6,51.9,61.6z"/>
</g>
<g id="Stroke-15">
	<path class="st0" d="M39.8,45c-5.1,0-9.2-4.1-9.2-9.2c0-5.1,4.1-9.2,9.2-9.2s9.2,4.1,9.2,9.2C48.9,40.9,44.8,45,39.8,45z
		 M39.8,27.6c-4.5,0-8.2,3.7-8.2,8.2c0,4.5,3.7,8.2,8.2,8.2s8.2-3.7,8.2-8.2C47.9,31.3,44.3,27.6,39.8,27.6z"/>
</g>
</svg>
