<?xml version="1.0" encoding="utf-8"?>
<!-- Generator: Adobe Illustrator 20.0.0, SVG Export Plug-In . SVG Version: 6.00 Build 0)  -->
<svg version="1.1" id="Layer_1" xmlns="http://www.w3.org/2000/svg" xmlns:xlink="http://www.w3.org/1999/xlink" x="0px" y="0px"
	 viewBox="0 0 320 120" style="enable-background:new 0 0 320 120;" xml:space="preserve">
<style type="text/css">
	.st0{fill:#FFFFFF;}
	.st1{fill:#ED4C06;}
	.st2{enable-background:new    ;}
	.st3{fill:#D9D9D6;}
	.st4{fill:#75787B;}
	.st5{fill:#4BB9DD;}
</style>
<title>Artboard 1</title>
<g>
	<path class="st0" d="M8,0h304c4.4,0,8,3.6,8,8v104c0,4.4-3.6,8-8,8H8c-4.4,0-8-3.6-8-8V8C0,3.6,3.6,0,8,0z"/>
</g>
<g id="Stroke-6-2">
	<path class="st1" d="M257.4,29.9h-0.5c-2.4,0-4.4-2-4.4-4.4V13.9c0-2.4,2-4.4,4.4-4.4h46.5c2.4,0,4.4,2,4.4,4.4v11.6
		c0,2.4-2,4.4-4.4,4.4L257.4,29.9z M256.9,10.5c-1.9,0-3.4,1.5-3.4,3.4v11.6c0,1.8,1.4,3.3,3.2,3.4l0.2,0h46.5
		c1.9,0,3.4-1.5,3.4-3.4V13.9c0-1.9-1.5-3.4-3.4-3.4H256.9z"/>
</g>
<g class="st2">
	<path class="st1" d="M260.6,20.1c0-2.6,1.5-4,3.6-4c2.1,0,3.5,1.5,3.5,4c0,2.6-1.4,4.1-3.5,4.1C262,24.1,260.6,22.6,260.6,20.1z
		 M265.9,20.1c0-1.6-0.7-2.5-1.7-2.5c-1.1,0-1.7,0.9-1.7,2.5c0,1.6,0.7,2.6,1.7,2.6C265.2,22.6,265.9,21.6,265.9,20.1z"/>
	<path class="st1" d="M268.6,16.2h1.8l0.5,3.7c0.1,0.8,0.2,1.6,0.3,2.5h0c0.1-0.8,0.3-1.7,0.5-2.5l0.8-3.7h1.5l0.9,3.7
		c0.2,0.8,0.3,1.6,0.5,2.5h0c0.1-0.8,0.2-1.7,0.3-2.5l0.5-3.7h1.7l-1.4,7.8h-2.2l-0.8-3.5c-0.1-0.6-0.2-1.2-0.3-1.8h0
		c-0.1,0.6-0.2,1.2-0.3,1.8l-0.7,3.5h-2.2L268.6,16.2z"/>
	<path class="st1" d="M279.4,16.2h1.8l2,3.9l0.8,1.7h0c-0.1-0.8-0.2-1.9-0.2-2.9v-2.8h1.7V24h-1.8l-2-3.9l-0.8-1.7h0
		c0.1,0.9,0.2,1.9,0.2,2.8V24h-1.7V16.2z"/>
	<path class="st1" d="M287.6,16.2h4.9v1.5h-3.1v1.6h2.7v1.5h-2.7v1.8h3.2V24h-5V16.2z"/>
	<path class="st1" d="M298.6,24l-1.5-2.8h-1V24h-1.8v-7.8h2.8c1.7,0,3,0.6,3,2.4c0,1.2-0.6,1.9-1.4,2.3l1.8,3.1H298.6z M296.1,19.8
		h0.9c0.9,0,1.4-0.4,1.4-1.2s-0.5-1-1.4-1h-0.9V19.8z"/>
</g>
<g id="Line-03">
	<polygon class="st3" points="80.9,104.9 168,104.9 168,94.9 80.9,94.9 	"/>
</g>
<g id="Line-02-2">
	<polygon class="st3" points="80.9,85.5 225,85.5 225,75.5 80.9,75.5 	"/>
</g>
<g id="Line-01-2">
	<polygon class="st3" points="80.9,66.1 200.9,66.1 200.9,56.1 80.9,56.1 	"/>
</g>
<g id="Name-2">
	<polygon class="st4" points="81,24 181,24 181,14 81,14 	"/>
</g>
<g id="Fill-8-2">
	<path class="st5" d="M68.8,39.8c0,16.1-13,29.1-29.1,29.1s-29.1-13-29.1-29.1s13-29.1,29.1-29.1l0,0C55.8,10.7,68.8,23.7,68.8,39.8
		z"/>
</g>
<g id="Stroke-14-2">
	<path class="st0" d="M51.9,61.6c-0.3,0-0.5-0.2-0.5-0.5c0-5.7-4.6-10.3-10.3-10.3h-2.7c0,0,0,0,0,0c-5.7,0-10.3,4.6-10.3,10.3
		c0,0.3-0.2,0.5-0.5,0.5h0c-0.3,0-0.5-0.2-0.5-0.5c0-6.2,5.1-11.3,11.3-11.3c0,0,0,0,0,0h2.7c6.2,0,11.3,5.1,11.3,11.3
		C52.4,61.4,52.2,61.6,51.9,61.6z"/>
</g>
<g id="Stroke-15-2">
	<path class="st0" d="M39.8,45c-5.1,0-9.2-4.1-9.2-9.2c0-5.1,4.1-9.2,9.2-9.2s9.2,4.1,9.2,9.2C48.9,40.9,44.8,45,39.8,45z
		 M39.8,27.6c-4.5,0-8.2,3.7-8.2,8.2c0,4.5,3.7,8.2,8.2,8.2s8.2-3.7,8.2-8.2C47.9,31.3,44.3,27.6,39.8,27.6z"/>
</g>
</svg>
