<svg id="Layer_1" data-name="Layer 1" xmlns="http://www.w3.org/2000/svg" viewBox="0 0 34.23 21.68"><defs><style>.cls-1{fill:#f87d08;}</style></defs><title>Artboard 1</title><g id="Page-1"><path class="cls-1" d="M28,21.68H6.54A6.54,6.54,0,0,1,4.69,8.87a4.54,4.54,0,0,1,7.39-3.51,8.88,8.88,0,0,1,17,3.52q0,.23,0,.45A6.22,6.22,0,0,1,28,21.68ZM9.23,5.35A3.54,3.54,0,0,0,5.69,8.89c0,.11,0,.21,0,.32a.5.5,0,0,1-.39.53A5.54,5.54,0,0,0,6.54,20.68H28a5.22,5.22,0,0,0,.51-10.42.5.5,0,0,1-.45-.55,8.08,8.08,0,0,0,0-.83A7.88,7.88,0,0,0,12.75,6.4a.5.5,0,0,1-.38.33.51.51,0,0,1-.48-.16A3.54,3.54,0,0,0,9.23,5.35Z"/></g></svg>