<svg id="Layer_1" data-name="Layer 1" xmlns="http://www.w3.org/2000/svg" viewBox="0 0 30.54 25.15"><defs><style>.cls-1{fill:#f87d08;}</style></defs><title>Artboard 1</title><path class="cls-1" d="M29.71,0H.83A.83.83,0,0,0,0,.83V20.67a.83.83,0,0,0,.83.83h11L11.56,23a.74.74,0,0,1-.6.59.79.79,0,0,0,.15,1.56h8.3a.79.79,0,0,0,.14-1.56A.74.74,0,0,1,19,23l-.28-1.5h11a.83.83,0,0,0,.83-.83V.83A.83.83,0,0,0,29.71,0ZM18,23.18a1.75,1.75,0,0,0,.53,1H12a1.75,1.75,0,0,0,.53-1l.32-1.68h4.81ZM29.54,20.5H18.09v0H12v0H1V1H29.54Z"/><path class="cls-1" d="M15.27,16.7a6,6,0,1,0-5.89-6A5.93,5.93,0,0,0,15.27,16.7Zm0-10.91a5,5,0,1,1-4.89,5A4.93,4.93,0,0,1,15.27,5.79Z"/><path class="cls-1" d="M13.87,12.89a.5.5,0,0,0,.36.15h0a.5.5,0,0,0,.36-.15l3.53-3.57a.5.5,0,0,0-.71-.7l-3.18,3.21-1.1-1.12a.5.5,0,1,0-.71.7Z"/></svg>