<svg id="Layer_1" data-name="Layer 1" xmlns="http://www.w3.org/2000/svg" viewBox="0 0 72 53.97"><defs><style>.cls-1{fill:#fff;}</style></defs><title>Artboard 1</title><path class="cls-1" d="M17.19,36.88a1,1,0,0,1-1-1V27.46a5.28,5.28,0,0,0-5.27-5.27H9.37A5.28,5.28,0,0,0,4.1,27.46v8.43a1,1,0,0,1-2,0V27.46a7.28,7.28,0,0,1,7.27-7.27h1.55a7.28,7.28,0,0,1,7.27,7.27v8.43A1,1,0,0,1,17.19,36.88Zm-1-24.09a6,6,0,1,0-6,6A6,6,0,0,0,16.17,12.79Zm-2,0a4,4,0,1,1-4-4A4,4,0,0,1,14.17,12.79ZM29.1,6.05a6,6,0,1,0-6,6A6,6,0,0,0,29.1,6.05Zm-2,0a4,4,0,1,1-4-4A4,4,0,0,1,27.1,6.05ZM55,6.05a6,6,0,1,0-6,6A6,6,0,0,0,55,6.05Zm-2,0a4,4,0,1,1-4-4A4,4,0,0,1,53,6.05ZM46.84,36.82a1,1,0,0,0,.61-1.28L43.74,25a7.29,7.29,0,0,0-6.86-4.85H35.12A7.29,7.29,0,0,0,28.26,25L24.55,35.55a1,1,0,1,0,1.89.67L30.15,25.7a5.28,5.28,0,0,1,5-3.52h1.75a5.28,5.28,0,0,1,5,3.52l3.71,10.51a1,1,0,0,0,1.28.61ZM42,12.79a6,6,0,1,0-6,6A6,6,0,0,0,42,12.79Zm-2,0a4,4,0,1,1-4-4A4,4,0,0,1,40,12.79ZM69.9,35.88V27.46a7.28,7.28,0,0,0-7.27-7.27H61.08a7.28,7.28,0,0,0-7.27,7.27v8.43a1,1,0,0,0,2,0V27.46a5.28,5.28,0,0,1,5.27-5.27h1.55a5.28,5.28,0,0,1,5.27,5.27v8.43a1,1,0,0,0,2,0Zm-2-23.09a6,6,0,1,0-6,6A6,6,0,0,0,67.88,12.79Zm-2,0a4,4,0,1,1-4-4A4,4,0,0,1,65.88,12.79ZM7.94,52.95V34.16a1,1,0,0,0-2,0V52.95a1,1,0,0,0,2,0Zm6.41,0V34.16a1,1,0,0,0-2,0V52.95a1,1,0,0,0,2,0Zm45.3,0V34.16a1,1,0,0,0-2,0V52.95a1,1,0,0,0,2,0Zm6.41,0V34.16a1,1,0,0,0-2,0V52.95a1,1,0,0,0,2,0ZM46.12,43.22,41.68,30.66a1,1,0,1,0-1.89.67l4,11.23H28.24l4-11.23a1,1,0,0,0-1.89-.67L25.88,43.22a1,1,0,0,0,.94,1.33h5v8.39a1,1,0,0,0,2,0V44.55h4.41v8.39a1,1,0,0,0,2,0V44.55h5a1,1,0,0,0,.94-1.33Z"/></svg>