<svg id="Layer_1" data-name="Layer 1" xmlns="http://www.w3.org/2000/svg" viewBox="0 0 72 53.97"><defs><style>.cls-1{fill:#fff;}.cls-2{fill:none;}</style></defs><title>Artboard 4</title><path class="cls-1" d="M8.68,18.55h-3a1,1,0,0,1,0-2h3a1,1,0,1,1,0,2Z"/><path class="cls-1" d="M13.33,21.74H5.66a1,1,0,0,1,0-2h7.67a1,1,0,0,1,0,2Z"/><path class="cls-1" d="M25.52,18.55H23.9a1,1,0,0,1,0-2h1.63a1,1,0,0,1,0,2Z"/><path class="cls-1" d="M25.52,29.42H5.66a1,1,0,1,1,0-2H25.52a1,1,0,0,1,0,2Z"/><path class="cls-1" d="M25.52,33.88H5.66a1,1,0,0,1,0-2H25.52a1,1,0,0,1,0,2Z"/><path class="cls-1" d="M25.52,38.35H5.66a1,1,0,0,1,0-2H25.52a1,1,0,0,1,0,2Z"/><path class="cls-1" d="M17.74,48.72H5.66a1,1,0,0,1,0-2H17.74a1,1,0,1,1,0,2Z"/><path class="cls-1" d="M12.76,45.93a1,1,0,0,1-.51-.15,3.84,3.84,0,0,1-.56-.43,1.53,1.53,0,0,1-1.78.33,1.77,1.77,0,0,1-.76-1L8.36,45c-1.76.88-2.12,1.06-2.69.72a1,1,0,0,1,.42-1.85c.26-.1.93-.43,1.38-.66,1.76-.88,2.13-1.06,2.69-.73a1.71,1.71,0,0,1,.73.94,1.34,1.34,0,0,1,1.48-.11,4.07,4.07,0,0,1,.59.45l1-.51c1.69-.85,2.1-1,2.66-.71a1,1,0,0,1-.42,1.85c-.26.1-.91.42-1.35.65A6.24,6.24,0,0,1,12.76,45.93Zm2.88-1.64h0ZM6.7,44h0Z"/><path class="cls-2" d="M44.69,5.66H19.38V11.3h10.8a1,1,0,0,1,1,1v8.94L33.43,19a3.05,3.05,0,0,1-.33-1.35,3.09,3.09,0,0,1,6.18,0A3.05,3.05,0,0,1,39,19l7.38,7.38a3,3,0,0,1,2.7,0l9.65-9.65a3.05,3.05,0,0,1-.32-1.35,3.09,3.09,0,1,1,3.09,3.09,3.06,3.06,0,0,1-1.35-.32l-9.65,9.65a3.05,3.05,0,0,1,.33,1.35,3.09,3.09,0,0,1-6.18,0,3.05,3.05,0,0,1,.32-1.35l-7.38-7.38a3,3,0,0,1-2.7,0l-3.66,3.66V38.86H70V5.66H44.69Z"/><path class="cls-2" d="M36.2,16.55A1.09,1.09,0,1,0,37,18.41h0a1.09,1.09,0,0,0-.77-1.86Z"/><polygon class="cls-2" points="29.18 13.3 2 13.3 2 51.97 29.18 51.97 29.18 39.86 29.18 39.86 29.18 13.3"/><circle class="cls-2" cx="47.7" cy="29.14" r="1.09"/><circle class="cls-2" cx="61.46" cy="15.38" r="1.09"/><path class="cls-1" d="M71,3.66H45.69V1a1,1,0,0,0-2,0V3.66H18.38a1,1,0,0,0-1,1V11.3H1a1,1,0,0,0-1,1V53a1,1,0,0,0,1,1H30.18a1,1,0,0,0,1-1V40.86H43.69V42.8l-9.46,9.46a1,1,0,0,0,1.41,1.41l8-8v2.94a1,1,0,0,0,2,0V45.63l8,8a1,1,0,1,0,1.41-1.41L45.69,42.8V40.86H71a1,1,0,0,0,1-1V4.66A1,1,0,0,0,71,3.66ZM29.18,52H2V13.3H29.18V39.86h0ZM70,38.86H31.18V24.07l3.66-3.66a3,3,0,0,0,2.7,0l7.38,7.38a3.05,3.05,0,0,0-.32,1.35,3.09,3.09,0,0,0,6.18,0,3.05,3.05,0,0,0-.33-1.35l9.65-9.65a3.06,3.06,0,0,0,1.35.32,3.09,3.09,0,1,0-3.09-3.09,3.05,3.05,0,0,0,.32,1.35L49,26.37a3,3,0,0,0-2.7,0L39,19a3.05,3.05,0,0,0,.32-1.35,3.09,3.09,0,0,0-6.18,0A3.05,3.05,0,0,0,33.43,19l-2.25,2.25V12.3a1,1,0,0,0-1-1H19.38V5.66H70ZM37,18.41h0a1.09,1.09,0,1,1,.32-.77A1.08,1.08,0,0,1,37,18.41ZM48.79,29.14A1.09,1.09,0,1,1,47.7,28,1.09,1.09,0,0,1,48.79,29.14ZM60.37,15.38a1.09,1.09,0,1,1,1.09,1.09A1.09,1.09,0,0,1,60.37,15.38Z"/></svg>