<svg id="Layer_1" data-name="Layer 1" xmlns="http://www.w3.org/2000/svg" viewBox="0 0 72 53.97"><defs><style>.cls-1{fill:#fff;}</style></defs><title>Artboard 1</title><path class="cls-1" d="M29.35,11.76a5.84,5.84,0,0,1-5.78-5.88,5.78,5.78,0,1,1,11.56,0A5.84,5.84,0,0,1,29.35,11.76Zm0-10a4,4,0,0,0-4,4.08,4,4,0,1,0,8,0A4,4,0,0,0,29.35,1.8Z"/><path class="cls-1" d="M56.22,26.06H52.77l3-3a.9.9,0,1,0-1.29-1.26L50,26.33h0a.84.84,0,0,0-.06.09.89.89,0,0,0-.13.2.9.9,0,0,0,0,.69.89.89,0,0,0,.13.2.84.84,0,0,0,.06.09h0l4.46,4.55a.9.9,0,1,0,1.29-1.26l-3-3h3.45a5.6,5.6,0,0,1,5.53,5.66v8a5.6,5.6,0,0,1-5.53,5.66H27A5.88,5.88,0,1,0,27,49h29.2a7.4,7.4,0,0,0,7.33-7.46v-8A7.4,7.4,0,0,0,56.22,26.06ZM21.31,52.17a4.08,4.08,0,1,1,4-4.08A4,4,0,0,1,21.31,52.17Z"/><path class="cls-1" d="M42.84,21.13a5.82,5.82,0,0,0-5.71,5H16a5.6,5.6,0,0,1-5.53-5.66v-8A5.6,5.6,0,0,1,16,6.78h3.45l-3,3a.9.9,0,0,0,1.29,1.26l4.46-4.56a.86.86,0,0,0,.09-.14.88.88,0,0,0,.1-.15.9.9,0,0,0,.07-.34h0v0a.9.9,0,0,0-.07-.32.89.89,0,0,0-.14-.22s0,0,0-.07h0L17.75.69A.9.9,0,0,0,16.46,2l3,3H16a7.4,7.4,0,0,0-7.33,7.46v8A7.4,7.4,0,0,0,16,27.91H37.13a5.79,5.79,0,1,0,5.71-6.78Zm0,10a4.08,4.08,0,1,1,4-4.08A4,4,0,0,1,42.84,31.08Z"/><path class="cls-1" d="M44.1,5.88l4-4.05A.9.9,0,1,0,46.79.56l-3.95,4-3.95-4a.9.9,0,1,0-1.29,1.26l4,4.05-4,4.05a.9.9,0,1,0,1.29,1.26l3.95-4,3.95,4a.9.9,0,1,0,1.29-1.26Z"/></svg>