<svg id="Layer_1" data-name="Layer 1" xmlns="http://www.w3.org/2000/svg" viewBox="0 0 220 200"><defs><style>.cls-1{fill:#fff;}.cls-2{fill:#3ab449;}.cls-3{fill:#d9d9d6;}.cls-4{fill:#75787b;}</style></defs><title>Artboard 2</title><path class="cls-1" d="M5,0H215a5,5,0,0,1,5,5V195a5,5,0,0,1-5,5H5a5,5,0,0,1-5-5V5A5,5,0,0,1,5,0Z"/><path id="Fill-3-2" class="cls-2" d="M5,0H215a5,5,0,0,1,5,5V30H0V5A5,5,0,0,1,5,0"/><polygon id="Fill-21" class="cls-3" points="30 60.17 190 60.17 190 50.17 30 50.17 30 60.17"/><polygon id="Fill-23" class="cls-3" points="30 80.17 190 80.17 190 70.17 30 70.17 30 80.17"/><polygon id="Fill-24" class="cls-3" points="30 100.17 89.13 100.17 89.13 90.17 30 90.17 30 100.17"/><polygon id="Fill-25" class="cls-3" points="30 140.17 190 140.17 190 130.17 30 130.17 30 140.17"/><path id="Fill-26" class="cls-4" d="M85.15,164.26a1.83,1.83,0,0,0-.62-.46,2.3,2.3,0,0,0-.73-.2v0l.11-.35V163a1.7,1.7,0,0,0,0-.17,4,4,0,0,0,.06-.56,2.22,2.22,0,0,0-.23-1,2.59,2.59,0,0,0-.56-.68,1.89,1.89,0,0,0-.75-.41,2,2,0,0,0-1.17.07,2.37,2.37,0,0,0-1,.71v.06l-.06.07-.26.29-.37.45q-.2.25-.46.53a1.91,1.91,0,0,0-.06-.32,2.47,2.47,0,0,0-.12-.32h0a1.92,1.92,0,0,0-1.42-1.2,2.64,2.64,0,0,0-2,.37,4.68,4.68,0,0,0-.39.29l-.52.44-.45.47a2.39,2.39,0,0,0-.21-.84,2.58,2.58,0,0,0-.56-.68,1.88,1.88,0,0,0-.75-.41,2,2,0,0,0-1.17.07,2.37,2.37,0,0,0-1,.71V161l-.06.07-.26.29-.37.45q-.2.25-.46.53a1.91,1.91,0,0,0-.06-.32,2.62,2.62,0,0,0-.12-.32h0a1.92,1.92,0,0,0-1.42-1.2,2.64,2.64,0,0,0-2,.37,4.52,4.52,0,0,0-.39.29l-.52.44-.47.62-.2.22c0-.23.07-.45.08-.65a1.84,1.84,0,0,0-.26-1,2,2,0,0,0-.48-.55,1.7,1.7,0,0,0-.66-.33,1.78,1.78,0,0,0-1.77.46l-.52.48-.56.5-.71.59a17.28,17.28,0,0,1-2,1.46l-.19.11.07-.23v-.16a1.47,1.47,0,0,0,0-.17,3.84,3.84,0,0,0,.07-.56,2.23,2.23,0,0,0-.23-1,2.58,2.58,0,0,0-.56-.68,1.88,1.88,0,0,0-.75-.41,2,2,0,0,0-1.17.07,2.37,2.37,0,0,0-1,.71v.06l-.06.07-.26.29-.37.45q-.2.25-.46.53a1.91,1.91,0,0,0-.06-.32,2.47,2.47,0,0,0-.12-.32h0a1.93,1.93,0,0,0-1.42-1.2,2.64,2.64,0,0,0-2,.37,4.68,4.68,0,0,0-.39.29l-.52.44-.5.53-.21.22a6.43,6.43,0,0,0,.09-.65,1.84,1.84,0,0,0-.26-1,2,2,0,0,0-.48-.55,1.71,1.71,0,0,0-.66-.33,1.79,1.79,0,0,0-1.77.46l-.52.48-.56.5-.71.59a17.36,17.36,0,0,1-2,1.46l-.19.11.07-.23v-.16a1.47,1.47,0,0,0,0-.17,3.89,3.89,0,0,0,.06-.56,2.22,2.22,0,0,0-.23-1,2.62,2.62,0,0,0-.56-.68,1.89,1.89,0,0,0-.75-.41,2,2,0,0,0-1.17.07,2.38,2.38,0,0,0-1,.71v.06l-.06.07-.26.29-.37.45-.46.53a1.82,1.82,0,0,0-.06-.32,2.62,2.62,0,0,0-.12-.32h0a1.92,1.92,0,0,0-1.42-1.2,2.64,2.64,0,0,0-2,.37,4.37,4.37,0,0,0-.39.29l-.52.44-.49.53-.53.56-.37.41a6.74,6.74,0,0,1-.45.52l-.34.35a2.45,2.45,0,0,0-.53.71,1.88,1.88,0,0,0-.19.84,2.06,2.06,0,0,0,.44,1.25,1,1,0,0,0,.28.28l.35.24a2.9,2.9,0,0,0,0,.57,2.48,2.48,0,0,0,0,.43,1.71,1.71,0,0,0,.17.47,2,2,0,0,0,.61.78,2.63,2.63,0,0,0,.92.47h.69a4.24,4.24,0,0,0,.66-.06,3,3,0,0,0,.66-.18c.23-.1.48-.21.74-.35a7.19,7.19,0,0,0,.81-.5h0l.46-.32.42-.34a1.8,1.8,0,0,0,.49.43,2,2,0,0,0,.62.25,3.15,3.15,0,0,0,.89.13,4.17,4.17,0,0,0,2.14-.65,10.72,10.72,0,0,0,.91-.63q.43-.33.82-.66l.09-.09.18-.18a10.35,10.35,0,0,0,1.06-.58.15.15,0,0,0,0,0,.15.15,0,0,1,0,.06.14.14,0,0,0,0,.06,1.86,1.86,0,0,0,0,1.07,1.78,1.78,0,0,0,.61.89,1.74,1.74,0,0,0,1.16.41,1.84,1.84,0,0,0,.89-.24l.24-.12.6-.32.23-.12v.24a1.74,1.74,0,0,0,.17.47,2,2,0,0,0,.61.78,2.62,2.62,0,0,0,.92.47h.62a4.25,4.25,0,0,0,.66-.06,3,3,0,0,0,.66-.18c.23-.1.48-.21.74-.35a7.2,7.2,0,0,0,.81-.5h0l.46-.32.43-.34a1.78,1.78,0,0,0,.49.43,2,2,0,0,0,.62.25,3.14,3.14,0,0,0,.88.13,4.17,4.17,0,0,0,2.14-.65,10.74,10.74,0,0,0,.91-.63q.43-.33.82-.66l.09-.09.18-.18a10.35,10.35,0,0,0,1.06-.58.15.15,0,0,0,0,0,.14.14,0,0,1,0,.06.15.15,0,0,0,0,.06,1.87,1.87,0,0,0,0,1.07,1.78,1.78,0,0,0,.61.89,1.74,1.74,0,0,0,1.16.41,1.85,1.85,0,0,0,.89-.24l.24-.12.6-.32.23-.12a2.36,2.36,0,0,0,0,.24,1.74,1.74,0,0,0,.17.47,2,2,0,0,0,.61.78,2.61,2.61,0,0,0,.92.47h.62A4.27,4.27,0,0,0,66,170a3,3,0,0,0,.66-.18c.23-.1.48-.21.74-.35a7.29,7.29,0,0,0,.81-.5h0l.46-.32.42-.34a1.8,1.8,0,0,0,.49.43,2,2,0,0,0,.62.25,3.16,3.16,0,0,0,.89.13,4,4,0,0,0,1.85-.49.23.23,0,0,0,.05.14,2,2,0,0,0,.61.78,2.62,2.62,0,0,0,.92.47h.65a4.25,4.25,0,0,0,.66-.06,3,3,0,0,0,.66-.18c.23-.1.48-.21.74-.35A7.2,7.2,0,0,0,78,169h0l.46-.32.43-.34a1.8,1.8,0,0,0,.49.43A2,2,0,0,0,80,169a3.15,3.15,0,0,0,.89.13,4.17,4.17,0,0,0,2.14-.65,10.74,10.74,0,0,0,.91-.63q.43-.33.82-.66l.09-.09a2,2,0,0,0,.76-1.57,2.15,2.15,0,0,0-.48-1.33"/><path id="Fill-27" class="cls-4" d="M153.68,165a1.82,1.82,0,0,0-.38-.62,1.78,1.78,0,0,0-.57-.42,2,2,0,0,0-.68-.18,1.65,1.65,0,0,0-.71.1h-.24a6.64,6.64,0,0,0,.51-1.25,2.16,2.16,0,0,0-1.46-2.63,3.36,3.36,0,0,0-1-.11,5.49,5.49,0,0,0-1.1.17,7.49,7.49,0,0,0-1.83.65,17.26,17.26,0,0,0-1.76.88l-1.71,1-1.32.75h-.06l.07-.21V163a1.44,1.44,0,0,0,0-.18,3.87,3.87,0,0,0,.06-.56,2.22,2.22,0,0,0-.23-1,2.6,2.6,0,0,0-.56-.68,1.89,1.89,0,0,0-.75-.41,2,2,0,0,0-1.17.07,2.37,2.37,0,0,0-1,.71v0l-.06.07-.26.29-.37.45a6.87,6.87,0,0,1-.46.52,1.82,1.82,0,0,0-.06-.32,2.62,2.62,0,0,0-.12-.32h0a1.92,1.92,0,0,0-1.42-1.2,2.63,2.63,0,0,0-2,.37,4.37,4.37,0,0,0-.39.29l-.52.44-.53.54-.53.56-.37.41-.09.1a5.29,5.29,0,0,0,.21-.6,2.16,2.16,0,0,0-1.46-2.63,3.35,3.35,0,0,0-1-.11,5.51,5.51,0,0,0-1.1.17,7.5,7.5,0,0,0-1.83.65,17.26,17.26,0,0,0-1.76.88l-1.71,1-1.32.75-.9.47h-.31a6.65,6.65,0,0,0,.51-1.25,2.06,2.06,0,0,0-.08-1.37,2,2,0,0,0-1.38-1.26,3.36,3.36,0,0,0-1-.11,5.49,5.49,0,0,0-1.1.17,7.49,7.49,0,0,0-1.83.65,17.47,17.47,0,0,0-1.76.88l-1.71,1-1.32.75h-.06l.07-.21v-.16a1.44,1.44,0,0,0,0-.18,3.83,3.83,0,0,0,.06-.56,2.23,2.23,0,0,0-.23-1,2.56,2.56,0,0,0-.56-.68,1.88,1.88,0,0,0-.75-.41,2,2,0,0,0-1.17.07,2.38,2.38,0,0,0-1,.71v0l-.06.07-.26.29-.37.45c-.14.17-.29.34-.46.52a1.91,1.91,0,0,0-.06-.32,2.62,2.62,0,0,0-.12-.32h0a1.92,1.92,0,0,0-1.42-1.2,2.63,2.63,0,0,0-2,.37,4.52,4.52,0,0,0-.39.29l-.52.44-.53.54-.21.22a6.47,6.47,0,0,0,.08-.65,1.83,1.83,0,0,0-.26-1,2.05,2.05,0,0,0-.21-.24,1.71,1.71,0,0,0-.66-.33,1.79,1.79,0,0,0-1.77.46l-.52.48-.56.5-.71.59a17,17,0,0,1-2,1.46A8,8,0,0,1,92,164a1.75,1.75,0,0,0-.62.39,1.89,1.89,0,0,0-.42.58,2,2,0,0,0-.18.69,1.54,1.54,0,0,0,.12.72,1.74,1.74,0,0,0,.39.62,1.94,1.94,0,0,0,.57.41,1.83,1.83,0,0,0,1.4.06,11.59,11.59,0,0,0,1.85-.92.16.16,0,0,0,0,.06.13.13,0,0,1,0,.06.14.14,0,0,0,0,0,1.87,1.87,0,0,0,0,1.07,1.78,1.78,0,0,0,.61.89,1.74,1.74,0,0,0,1.16.41,1.85,1.85,0,0,0,.89-.24l.24-.12.6-.32.23-.12a2.36,2.36,0,0,0,0,.24,1.74,1.74,0,0,0,.17.47,2,2,0,0,0,.61.78,2.61,2.61,0,0,0,.92.47h.65a4.27,4.27,0,0,0,.67-.06,2.91,2.91,0,0,0,.66-.18c.23-.1.48-.21.74-.35a7.59,7.59,0,0,0,.81-.5h0l.46-.32.43-.34a1.82,1.82,0,0,0,.49.43,2,2,0,0,0,.62.25,3.16,3.16,0,0,0,.89.13,4.17,4.17,0,0,0,2.14-.65,10.74,10.74,0,0,0,.91-.63q.43-.33.82-.66l.09-.09a2.47,2.47,0,0,0,.25-.26l.52-.27q.69-.38,1.45-.84c.28-.15.56-.3.83-.47s.55-.32.83-.47l-.1.17-.08.16a6,6,0,0,0-.33.74,2.14,2.14,0,0,0,0,1.59,1.9,1.9,0,0,0,.5.73,1.75,1.75,0,0,0,.79.42,2,2,0,0,0,.57.09,4.27,4.27,0,0,0,.87-.1c.32-.07.74-.18,1.25-.32l1.27-.43,1.39-.49a1.76,1.76,0,0,0,.36-.13q.59-.26,1.28-.64t1.45-.84c.28-.15.56-.3.83-.47s.55-.32.83-.47l-.1.17-.08.16a5.84,5.84,0,0,0-.33.74,2.15,2.15,0,0,0,0,1.59,1.92,1.92,0,0,0,.5.73,1.75,1.75,0,0,0,.79.42,2,2,0,0,0,.57.09,4.27,4.27,0,0,0,.87-.1c.32-.07.74-.18,1.26-.32l1.27-.43h0a2.48,2.48,0,0,0,0,.43,1.74,1.74,0,0,0,.17.47,2,2,0,0,0,.61.78,2.62,2.62,0,0,0,.92.47h.65a4.27,4.27,0,0,0,.66-.06,2.91,2.91,0,0,0,.66-.18c.23-.1.48-.21.74-.35a7.49,7.49,0,0,0,.81-.5h0l.46-.32.43-.34a1.82,1.82,0,0,0,.49.43,2,2,0,0,0,.62.25,3.15,3.15,0,0,0,.89.13,4.17,4.17,0,0,0,2.14-.65,10.73,10.73,0,0,0,.91-.63q.43-.33.82-.66l.09-.09a2.47,2.47,0,0,0,.25-.26l.52-.27q.69-.38,1.45-.84c.28-.15.56-.3.83-.47s.55-.32.83-.47l-.1.17-.08.16a5.84,5.84,0,0,0-.33.74,2.15,2.15,0,0,0,0,1.59,1.92,1.92,0,0,0,.5.73,1.75,1.75,0,0,0,.79.42,2,2,0,0,0,.57.09,4.27,4.27,0,0,0,.87-.1c.32-.07.74-.18,1.25-.32l1.27-.43,1.59-.56a1.79,1.79,0,0,0,1.05-1,1.85,1.85,0,0,0,.17-.68,1.9,1.9,0,0,0-.11-.73"/></svg>