<svg id="Layer_1" data-name="Layer 1" xmlns="http://www.w3.org/2000/svg" viewBox="0 0 300 200"><defs><style>.cls-1{fill:#fff;}.cls-2{fill:#3ab449;}.cls-3{fill:#d9d9d6;}.cls-4{fill:#75787b;}</style></defs><title>Artboard 1</title><path class="cls-1" d="M5,0H295a5,5,0,0,1,5,5V195a5,5,0,0,1-5,5H5a5,5,0,0,1-5-5V5A5,5,0,0,1,5,0Z"/><path id="Fill-3" class="cls-2" d="M5,0H295a5,5,0,0,1,5,5V30H0V5A5,5,0,0,1,5,0"/><polygon id="Fill-5" class="cls-3" points="30 100.17 157.07 100.17 157.07 90.17 30 90.17 30 100.17"/><polygon id="Fill-7" class="cls-3" points="30 120.17 103.71 120.17 103.71 110.17 30 110.17 30 120.17"/><polygon id="Fill-8" class="cls-4" points="30 80.17 70.29 80.17 70.29 70.17 30 70.17 30 80.17"/><polygon id="Fill-9" class="cls-3" points="30 170.17 70.29 170.17 70.29 160.17 30 160.17 30 170.17"/><polygon id="Fill-10" class="cls-3" points="220 170.17 270 170.17 270 160.17 220 160.17 220 170.17"/><path id="Fill-11" class="cls-3" d="M215.82,57.77l6.09,16.06a22.82,22.82,0,0,1,17.69,42.06l7.2,15.6a40,40,0,0,0-30.94-73.71"/><path id="Fill-12" class="cls-4" d="M221.91,73.83h0l-6.09-16.06a39,39,0,0,0-18.49,14.32l14,9.9a22.71,22.71,0,0,1,10.55-8.17"/><path id="Fill-13" class="cls-2" d="M238.09,116.51A22.83,22.83,0,0,1,211.35,82l-14-9.9a39,39,0,0,0-3.65,39.83,40,40,0,0,0,53.07,19.56l-7.2-15.6c-.48.22-1,.43-1.47.62"/></svg>