<svg id="Layer_1" data-name="Layer 1" xmlns="http://www.w3.org/2000/svg" viewBox="0 0 31.89 29.26"><defs><style>.cls-1{fill:#f87d08;}</style></defs><title>Artboard 1</title><path class="cls-1" d="M14.24,21.51a.5.5,0,0,0,.5-.5V19.77a3.48,3.48,0,0,0-3.48-3.48h-.73a3.48,3.48,0,0,0-3.48,3.48V21a.5.5,0,0,0,1,0V19.77a2.48,2.48,0,0,1,2.48-2.48h.73a2.48,2.48,0,0,1,2.48,2.48V21A.5.5,0,0,0,14.24,21.51Z"/><path class="cls-1" d="M10.9,15.69A2.88,2.88,0,1,0,8,12.81,2.89,2.89,0,0,0,10.9,15.69Zm0-4.77A1.88,1.88,0,1,1,9,12.81,1.89,1.89,0,0,1,10.9,10.93Z"/><path class="cls-1" d="M21.68,18.31a.5.5,0,0,0,.5-.5v-1.2a3.48,3.48,0,0,0-3.48-3.48H18a3.48,3.48,0,0,0-3.48,3.48.5.5,0,0,0,1,0A2.48,2.48,0,0,1,18,14.13h.7a2.48,2.48,0,0,1,2.48,2.48v1.2A.5.5,0,0,0,21.68,18.31Z"/><path class="cls-1" d="M18.34,12.53a2.88,2.88,0,1,0-2.88-2.88A2.89,2.89,0,0,0,18.34,12.53Zm0-4.77a1.88,1.88,0,1,1-1.88,1.88A1.89,1.89,0,0,1,18.34,7.76Z"/><path class="cls-1" d="M31.74,14.45a.5.5,0,0,0-.71,0l-1.77,1.77v-1.6A14.62,14.62,0,1,0,25,25a.5.5,0,0,0-.71-.71,13.63,13.63,0,1,1,4-9.64v1.62l-1.79-1.8a.5.5,0,0,0-.71.71L28.4,17.8a.5.5,0,0,0,.71,0h0l2.62-2.62A.5.5,0,0,0,31.74,14.45Z"/></svg>