<svg id="Layer_1" data-name="Layer 1" xmlns="http://www.w3.org/2000/svg" viewBox="0 0 23.37 31.54"><defs><style>.cls-1{fill:#f87d08;}</style></defs><title>Artboard 1</title><path class="cls-1" d="M3.54,4.48h5a.5.5,0,0,0,0-1h-5a.5.5,0,0,0,0,1Z"/><path class="cls-1" d="M15.45,4.48h1.06a.5.5,0,0,0,0-1H15.45a.5.5,0,0,0,0,1Z"/><path class="cls-1" d="M3.54,10.84h13a.5.5,0,0,0,0-1h-13a.5.5,0,0,0,0,1Z"/><path class="cls-1" d="M3.54,14.91h13a.5.5,0,0,0,0-1h-13a.5.5,0,0,0,0,1Z"/><path class="cls-1" d="M16.51,19a.5.5,0,0,0,0-1h-13a.5.5,0,1,0,0,1Z"/><path class="cls-1" d="M5.27,23.73l.65-.33a1.14,1.14,0,0,0,.48.78c.47.27.89-.1,1.09-.28h0l.1.09a2.28,2.28,0,0,0,.31.25.51.51,0,0,0,.29.09,4.37,4.37,0,0,0,1.5-.64c.25-.13.59-.31.73-.37a.51.51,0,0,0,.27-.1.5.5,0,0,0,.09-.7c-.29-.38-.58-.22-1.56.29-.27.14-.69.36-.93.47l0,0a2.93,2.93,0,0,0-.43-.34.81.81,0,0,0-1,.21,1.14,1.14,0,0,0-.46-.75c-.3-.2-.5-.09-1.61.47-.32.16-.78.4-1,.46a.5.5,0,0,0-.23.93C3.93,24.41,4.16,24.29,5.27,23.73Z"/><path class="cls-1" d="M22.87,3.51H20.06V.5a.5.5,0,0,0-.5-.5H.5A.5.5,0,0,0,0,.5v27a.5.5,0,0,0,.5.5H3.31v3a.5.5,0,0,0,.5.5H22.87a.5.5,0,0,0,.5-.5V4A.5.5,0,0,0,22.87,3.51ZM1,1H19.06V27H1ZM22.37,30.54H4.31V28H19.56a.5.5,0,0,0,.5-.5v-23h2.31Z"/></svg>