<svg id="Layer_1" data-name="Layer 1" xmlns="http://www.w3.org/2000/svg" viewBox="0 0 364 103"><defs><style>.cls-1{fill:#334f9f;}.cls-2{fill:#010101;}</style></defs><title>Artboard 1</title><path class="cls-1" d="M17.44,61h-6v-31h6.81c9.72,0,17.94,4.81,17.94,15C36.18,56.91,28.16,61,17.44,61Zm-.2-41.59H0V71.54H18.74c15.53,0,29.36-9,29.36-26C48.11,26.65,34.07,19.43,17.24,19.43Z"/><path class="cls-1" d="M70.56,62.82c-5.51,0-8.82-3.71-8.82-9.12s3.31-9,8.82-9,8.82,3.71,8.82,9S76.07,62.82,70.56,62.82Zm0-27.86c-11,0-19.84,7.42-19.84,18.74s8.82,18.84,19.84,18.84S90.5,65.13,90.5,53.7,81.58,35,70.56,35Z"/><path class="cls-1" d="M113.45,44.69a6.82,6.82,0,0,1,5.41,2.71l7.32-7.62c-3.51-3.51-8.52-4.81-12.73-4.81-11,0-19.84,7.42-19.84,18.74s8.82,18.84,19.84,18.84c4.21,0,9.32-1.3,12.73-4.81L118.86,60a6.82,6.82,0,0,1-5.41,2.71c-5.51,0-8.82-3.71-8.82-9.12S107.94,44.69,113.45,44.69Z"/><path class="cls-1" d="M152.84,53.6c0,4.61-.9,9.12-6.61,9.12s-5.71-5.31-5.71-9.42V35.77h-11V55.51c0,9.62,2,16.94,13.23,16.94,5.41,0,9-2.91,10.42-5.71h.1v4.91h10.62V35.77h-11Z"/><path class="cls-2" d="M287,69.34c2.61-3.41,9.92-21.25,9.92-23.85,0-4.31-3.91-6.61-8.12-6.61-13.93,0-36.38,23.75-41.09,23.75-5.31,0,2.91-11.32,2.91-15.83,0-2.91-2.61-6-4.71-6-4.11,0-17,12.33-25.56,15.13a19,19,0,0,0,2.81-8.52c0-15.13-43-9.52-43-18,0-7.62,26.86-20.85,42.69-20.85,2.2,0,16.74.9,16.74,6,0,1.9-3.11,2.51-3.11,4.41s1.6,2.2,3.51,2.2c2.81,0,4.71-2.51,4.71-5.71C244.74,2.89,233.51.29,224.49.29c-23.25,0-50.91,20.24-50.91,29.36,0,12,39.19,9.82,39.19,20.55,0,8-16.15,15.59-28.46,20.9V68.54H166.77v3.61H182c-5.7,2.49-11.23,4.93-11.23,5.81,0,3.21,2.2,2.91,4.71,2.81,4.77,0,15.91-4.37,25.46-8.62h9V68.54h-1c15.53-8.22,30.17-17.84,32.27-19.94.3,6.61-2.51,12.93-2.51,15.73s2,6.41,5,6.61v1.2h17.54V68.44H249.55a102.14,102.14,0,0,1,9.32-6c-.3,2.2,1.6,5.71,4.11,5.71,5.41,0,21.85-13.33,25-15.53-.7,6-4.61,12.93-6.82,15.63a18.86,18.86,0,0,0-5.31-.7,7.51,7.51,0,0,0-2.91.8h-3.61v2.2c-7.82,5.71-18.14,18.24-18.14,25,0,3.51,1.9,6.92,5.41,6.92,4.81,0,22.25-14.43,28.56-29,2.81.3,7.42,2.41,7.42.2S289.54,69.94,287,69.34ZM184.31,71.13l2.35-.25-2.35.26Zm80.28-8c-1.9-1.9,17.34-17.24,23.05-16.44C285.53,53.4,266.49,65,264.58,63.13ZM258.17,95.2c-1.1,0-1.8-.5-1.8-3,0-8.12,16.94-19.64,22.85-19.64C275.71,80,261.27,95.2,258.17,95.2Z"/><rect class="cls-2" x="218.08" y="68.54" width="17.54" height="3.61"/><rect class="cls-2" x="346.46" y="68.54" width="17.54" height="3.61"/><path class="cls-2" d="M256.56,27.75a4.08,4.08,0,0,0,3.91-4.31,4,4,0,1,0-7.92,0A4.22,4.22,0,0,0,256.56,27.75Z"/><path class="cls-2" d="M355.08,56c0-.9-1-2.61-2.31-2.61-.8,0-10.42,11.73-14.53,11.73-3.51,0,0-7.32,0-12,0-4.91-.8-9.12-5.71-9.12-6.61,0-16.14,8.52-18.34,9.82a8,8,0,0,0,1.3-4.11c0-2.51-3.21-5.41-5.71-5.41-2.2,0-13.83,6-13.83,13.63,0,1.9,6.92-4.81,9.82-3.91-2.2,2.81-7.92,9.52-7.92,12a4.64,4.64,0,0,0,.6,2.51h-3.21v3.61h17.44V68.54h-8.22c6.51-4.51,18-17,24.05-17,4.21,0-.4,12,3.21,17H320.81v3.61h17.54v-1.7C343.66,68.84,355.08,60.82,355.08,56Z"/><path class="cls-2" d="M356.78,91.69a5.31,5.31,0,0,1,0-10.62,5.28,5.28,0,0,1,5.31,5.31A5.22,5.22,0,0,1,356.78,91.69Zm0-11.83a6.51,6.51,0,1,0,6.51,6.51A6.5,6.5,0,0,0,356.78,79.86Z"/><path class="cls-2" d="M355.68,85.78v-2.1h1c.8,0,1.8,0,1.8,1s-.9,1-1.8,1Zm4.11-1c0-1.4-.8-2.2-2.61-2.2h-2.91V90h1.4V87h1l1.8,3h1.4L358,86.88A1.88,1.88,0,0,0,359.79,84.77Z"/></svg>