<svg id="Layer_1" data-name="Layer 1" xmlns="http://www.w3.org/2000/svg" viewBox="0 0 17 12"><defs><style>.cls-1{fill:#fff;}</style></defs><title>Artboard 1</title><path class="cls-1" d="M16.08,2s0,0,0,0a.48.48,0,0,0,0-.1,1,1,0,0,0-1-.89H2a1,1,0,0,0-1,.89.48.48,0,0,0,0,.1s0,0,0,0V10s0,0,0,0a.48.48,0,0,0,0,.1,1,1,0,0,0,1,.9H15a1,1,0,0,0,1-.89.48.48,0,0,0,0-.11s0,0,0,0ZM2,2.93,6.63,6.15l-4.71,3ZM8.5,6.23l-.67-.46h0L2.24,1.92,14.7,2Zm-1,.54.69.48a.5.5,0,0,0,.57,0l.69-.48,5.24,3.31H2.29Zm2.84-.62,4.71-3.24,0,6.2Z"/></svg>