<svg id="Layer_1" data-name="Layer 1" xmlns="http://www.w3.org/2000/svg" viewBox="0 0 32.55 26.55"><defs><style>.cls-1{fill:#f87d08;}</style></defs><title>Artboard 1</title><path class="cls-1" d="M32.05,25.55H.5a.5.5,0,0,0,0,1H32.05a.5.5,0,0,0,0-1Z"/><path class="cls-1" d="M15.9,22.56a.5.5,0,0,0,.75,0l10.46-12a.5.5,0,0,0-.38-.83H21.48V.5A.5.5,0,0,0,21,0H11.57a.5.5,0,0,0-.5.5V9.77H5.81a.5.5,0,0,0-.38.83ZM11.57,10.77a.5.5,0,0,0,.5-.5V1h8.41v9.27a.5.5,0,0,0,.5.5h4.66L16.28,21.47,6.91,10.77Z"/></svg>