<?xml version="1.0" encoding="utf-8"?>
<!-- Generator: Adobe Illustrator 20.0.0, SVG Export Plug-In . SVG Version: 6.00 Build 0)  -->
<svg version="1.1" id="Layer_1" xmlns="http://www.w3.org/2000/svg" xmlns:xlink="http://www.w3.org/1999/xlink" x="0px" y="0px"
	 viewBox="0 0 300 230.3" style="enable-background:new 0 0 300 230.3;" xml:space="preserve">
<style type="text/css">
	.st0{fill:#FFFFFF;}
	.st1{enable-background:new    ;}
	.st2{fill:#75787B;}
	.st3{fill:#D9D9D6;}
	.st4{fill:#F87D08;}
	.st5{fill:#00396B;}
	.st6{opacity:0.1;}
	.st7{fill:#00A1E0;}
	.st8{fill:#ED4C06;}
</style>
<title>Artboard 1</title>
<g id="path-3">
	<polygon class="st0" points="60.5,36.7 60.5,15.6 30.5,15.6 30.5,36.7 	"/>
</g>
<g>
	<path class="st0" d="M8,0h284c4.4,0,8,3.6,8,8v214c0,4.4-3.6,8-8,8H8c-4.4,0-8-3.6-8-8V8C0,3.6,3.6,0,8,0z"/>
</g>
<g class="st1">
	<path class="st2" d="M32,108.7h-1.8v-0.6h4.3v0.6h-1.8v5.3H32V108.7z"/>
	<path class="st2" d="M35.7,108.1h0.8v5.9h-0.8V108.1z"/>
	<path class="st2" d="M38.2,108.1h0.9l1.1,3.2l0.4,1.2h0l0.4-1.2l1.1-3.2h0.9v5.9h-0.7v-3.2c0-0.5,0.1-1.2,0.1-1.7h0l-0.5,1.3
		l-1.1,3.1h-0.4l-1.1-3.1l-0.5-1.3h0c0,0.5,0.1,1.2,0.1,1.7v3.2h-0.7V108.1z"/>
	<path class="st2" d="M44.9,108.1h3.4v0.6h-2.6v1.9h2.2v0.6h-2.2v2.1h2.7v0.6h-3.5V108.1z"/>
	<path class="st2" d="M51.8,112.7c0.4,0.4,1,0.7,1.6,0.7c0.8,0,1.2-0.4,1.2-1c0-0.6-0.4-0.8-1-1l-0.8-0.4c-0.5-0.2-1.2-0.7-1.2-1.5
		c0-0.9,0.8-1.6,1.9-1.6c0.7,0,1.3,0.3,1.7,0.7l-0.4,0.5c-0.4-0.3-0.8-0.6-1.3-0.6c-0.7,0-1.1,0.3-1.1,0.9c0,0.6,0.5,0.8,1,1
		l0.8,0.4c0.7,0.3,1.2,0.7,1.2,1.6c0,0.9-0.8,1.7-2,1.7c-0.8,0-1.5-0.3-2.1-0.9L51.8,112.7z"/>
	<path class="st2" d="M56.7,108.1h1.8c1.3,0,2.2,0.4,2.2,1.7c0,1.2-0.9,1.8-2.2,1.8h-1.1v2.3h-0.8V108.1z M58.4,111
		c1,0,1.5-0.4,1.5-1.2c0-0.9-0.5-1.1-1.5-1.1h-1v2.3H58.4z"/>
	<path class="st2" d="M62,108.1h3.4v0.6h-2.6v1.9H65v0.6h-2.2v2.1h2.7v0.6H62V108.1z"/>
	<path class="st2" d="M66.9,108.1h0.8l2.1,3.7l0.6,1.2h0c0-0.6-0.1-1.3-0.1-1.9v-3.1h0.7v5.9h-0.8l-2.1-3.7l-0.6-1.2h0
		c0,0.6,0.1,1.2,0.1,1.8v3.1h-0.7V108.1z"/>
	<path class="st2" d="M74,108.7h-1.8v-0.6h4.3v0.6h-1.8v5.3H74V108.7z"/>
	<path class="st2" d="M79.8,108.1h1.8c1.3,0,2.2,0.4,2.2,1.7c0,1.2-0.9,1.8-2.2,1.8h-1.1v2.3h-0.8V108.1z M81.5,111
		c1,0,1.5-0.4,1.5-1.2c0-0.9-0.5-1.1-1.5-1.1h-1v2.3H81.5z"/>
	<path class="st2" d="M85.1,108.1h3.4v0.6h-2.6v1.9h2.2v0.6h-2.2v2.1h2.7v0.6h-3.5V108.1z"/>
	<path class="st2" d="M93.2,114l-1.4-2.5h-1.1v2.5h-0.8v-5.9h1.9c1.2,0,2.1,0.4,2.1,1.7c0,0.9-0.5,1.5-1.3,1.7L94,114H93.2z
		 M90.7,110.9h1c0.9,0,1.4-0.4,1.4-1.1c0-0.8-0.5-1.1-1.4-1.1h-1V110.9z"/>
</g>
<g class="st1">
	<path class="st2" d="M96.9,108.1h1.8c1.3,0,2.2,0.4,2.2,1.7c0,1.2-0.9,1.8-2.2,1.8h-1.1v2.3h-0.8V108.1z M98.6,111
		c1,0,1.5-0.4,1.5-1.2c0-0.9-0.5-1.1-1.5-1.1h-1v2.3H98.6z"/>
</g>
<g class="st1">
	<path class="st2" d="M104.4,112.2h-2.2l-0.6,1.8h-0.8l2-5.9h0.8l2,5.9H105L104.4,112.2z M104.2,111.6l-0.3-0.9
		c-0.2-0.7-0.4-1.3-0.6-2h0c-0.2,0.7-0.4,1.3-0.6,2l-0.3,0.9H104.2z"/>
</g>
<g class="st1">
	<path class="st2" d="M109,108c0.8,0,1.3,0.4,1.7,0.7l-0.4,0.5c-0.3-0.3-0.7-0.5-1.3-0.5c-1.2,0-2,0.9-2,2.4c0,1.5,0.7,2.4,2,2.4
		c0.4,0,0.8-0.1,1.1-0.4v-1.5h-1.3v-0.6h1.9v2.5c-0.4,0.4-1,0.7-1.8,0.7c-1.5,0-2.7-1.1-2.7-3.1C106.3,109.1,107.4,108,109,108z"/>
	<path class="st2" d="M112.3,108.1h3.4v0.6H113v1.9h2.2v0.6H113v2.1h2.7v0.6h-3.5V108.1z"/>
</g>
<g id="Fill-21">
	<polygon class="st2" points="30,136.7 59.3,136.7 59.3,129 30,129 	"/>
</g>
<g id="Fill-23">
	<polygon class="st3" points="30,151.7 75.6,151.7 75.6,144 30,144 	"/>
</g>
<g id="Fill-24">
	<polygon class="st3" points="30,167.7 120.9,167.7 120.9,160 30,160 	"/>
</g>
<g id="Fill-25">
	<polygon class="st3" points="30,182.7 75.6,182.7 75.6,175 30,175 	"/>
</g>
<g id="Fill-26">
	<polygon class="st3" points="30,197.7 97.5,197.7 97.5,190 30,190 	"/>
</g>
<g id="Fill-28">
	<polygon class="st4" points="167.4,153.8 269.7,153.8 269.7,142.3 167.4,142.3 	"/>
</g>
<g id="Fill-29">
	<polygon class="st4" points="167.4,169.2 252.8,169.2 252.8,157.7 167.4,157.7 	"/>
</g>
<g id="Fill-30">
	<polygon class="st4" points="167.4,184.6 227.8,184.6 227.8,173.1 167.4,173.1 	"/>
</g>
<g id="Fill-31">
	<polygon class="st4" points="167.4,200 196.7,200 196.7,188.5 167.4,188.5 	"/>
</g>
<g id="Fill-33">
	<path class="st5" d="M0,51.4h300V8c0-4.4-3.6-8-8-8H8C3.6,0,0,3.6,0,8V51.4z"/>
</g>
<g id="Fill-33-2" class="st6">
	<path class="st3" d="M0,89.8h300v132.5c0,4.4-3.6,8-8,8H8c-4.4,0-8-3.6-8-8V89.8z"/>
</g>
<g id="Fill-1">
	<path class="st7" d="M43,17.9c2-2.1,5.3-2.2,7.5-0.2c0.4,0.4,0.7,0.8,1,1.3c0.8-0.4,1.7-0.6,2.6-0.6c3.6,0,6.6,2.9,6.6,6.5
		s-2.9,6.6-6.5,6.6c-0.5,0-0.9,0-1.4-0.1c-1.2,2.2-3.9,3.1-6.2,2c-1.2,2.7-4.4,4-7.1,2.8c-1.3-0.6-2.4-1.7-2.9-3
		c-0.3,0.1-0.7,0.1-1,0.1c-2.8,0-5.1-2.3-5-5.1c0-1.8,1-3.4,2.5-4.3c-1.3-3,0.1-6.4,3.1-7.7C38.6,15.1,41.5,15.8,43,17.9"/>
</g>
<g id="Fill-4">
	<path class="st0" d="M34.8,26.5L34.8,26.5l0.2,0.2c0.3,0.1,0.6,0.2,0.9,0.2c0.6,0,1-0.3,1-0.9l0,0c0-0.5-0.4-0.7-0.8-0.8H36
		c-0.3-0.1-0.6-0.2-0.6-0.4l0,0c0-0.2,0.2-0.3,0.4-0.3c0.3,0,0.5,0.1,0.8,0.2h0.1l0.1-0.3c0,0,0,0,0-0.1c-0.3-0.2-0.6-0.2-0.9-0.2
		h-0.1c-0.5-0.1-0.9,0.2-1,0.7c0,0,0,0.1,0,0.1l0,0c0,0.5,0.4,0.7,0.8,0.8h0.1c0.3,0.1,0.5,0.2,0.5,0.4l0,0c0,0.2-0.2,0.3-0.4,0.3
		c-0.3,0-0.6-0.1-0.8-0.2L35,26.2h-0.1L34.8,26.5z"/>
</g>
<g id="Fill-6">
	<path class="st0" d="M43.9,26.5L43.9,26.5l0.2,0.2c0.3,0.1,0.6,0.2,0.9,0.2c0.6,0,1-0.3,1-0.9l0,0c0-0.5-0.4-0.7-0.8-0.8H45
		c-0.3-0.1-0.6-0.2-0.6-0.4l0,0c0-0.2,0.2-0.3,0.4-0.3c0.3,0,0.5,0.1,0.8,0.2h0.1l0.1-0.3c0,0,0,0,0-0.1c-0.3-0.2-0.6-0.2-0.9-0.2
		h-0.1c-0.5-0.1-0.9,0.2-1,0.7c0,0,0,0.1,0,0.1l0,0c0,0.5,0.4,0.7,0.8,0.8h0.1c0.3,0.1,0.5,0.2,0.5,0.4l0,0c0,0.2-0.2,0.3-0.4,0.3
		c-0.3,0-0.6-0.1-0.8-0.2L44,26.2c0,0-0.1,0-0.1,0l0,0L43.9,26.5z"/>
</g>
<g id="Fill-8">
	<path class="st0" d="M50,25.5c0,0.2,0,0.5-0.2,0.7c-0.1,0.2-0.3,0.3-0.5,0.2c-0.2,0-0.4-0.1-0.5-0.2c-0.2-0.4-0.2-1,0-1.4
		c0.1-0.2,0.3-0.3,0.5-0.2c0.2,0,0.4,0.1,0.5,0.2C50,25,50,25.3,50,25.5 M50.5,25c0-0.2-0.1-0.3-0.2-0.5c-0.1-0.1-0.2-0.2-0.4-0.3
		c-0.4-0.1-0.7-0.1-1.1,0c-0.2,0.1-0.3,0.2-0.4,0.3c-0.1,0.1-0.2,0.3-0.2,0.5c-0.1,0.4-0.1,0.7,0,1.1c0,0.2,0.1,0.3,0.2,0.5
		c0.1,0.1,0.2,0.2,0.4,0.3c0.4,0.1,0.7,0.1,1.1,0c0.2-0.1,0.3-0.2,0.4-0.3c0.1-0.1,0.2-0.3,0.2-0.5C50.6,25.7,50.6,25.3,50.5,25"/>
</g>
<g id="Fill-10">
	<path class="st0" d="M54.8,26.4l-0.2,0.1h-0.3c-0.2,0-0.5-0.1-0.6-0.2c-0.2-0.2-0.2-0.4-0.2-0.7c0-0.2,0.1-0.5,0.2-0.7
		c0.1-0.2,0.4-0.3,0.6-0.2c0.2,0,0.4,0,0.5,0.1h0.1l0.1-0.4l-0.3-0.1h-0.4c-0.2,0-0.4,0-0.6,0.1c-0.2,0.1-0.3,0.2-0.4,0.3
		c-0.1,0.1-0.2,0.3-0.2,0.5c-0.1,0.2-0.1,0.4-0.1,0.5c0,0.4,0.1,0.7,0.3,1c0.3,0.3,0.6,0.4,1,0.4c0.2,0,0.5,0,0.7-0.1L54.8,26.4z"/>
</g>
<g id="Fill-12">
	<path class="st0" d="M55.7,25.2c0-0.1,0.1-0.3,0.1-0.4c0.1-0.2,0.3-0.3,0.5-0.2c0.2,0,0.4,0.1,0.5,0.2c0.1,0.1,0.1,0.3,0.1,0.4
		H55.7z M57.4,24.8c0-0.2-0.1-0.3-0.2-0.4c-0.1-0.1-0.2-0.2-0.3-0.2c-0.2-0.1-0.3-0.1-0.5-0.1c-0.2,0-0.4,0-0.6,0.1
		c-0.2,0.1-0.3,0.2-0.4,0.3c-0.1,0.1-0.2,0.3-0.2,0.5c-0.1,0.2-0.1,0.4-0.1,0.6c0,0.2,0,0.4,0.1,0.6c0.1,0.3,0.4,0.6,0.7,0.7
		c0.2,0.1,0.4,0.1,0.6,0.1c0.3,0,0.6,0,0.9-0.2v-0.1l-0.1-0.3c-0.2,0.1-0.5,0.1-0.7,0.1c-0.4,0.1-0.8-0.2-0.8-0.5c0-0.1,0-0.2,0-0.3
		h1.8C57.5,25.3,57.5,25.1,57.4,24.8L57.4,24.8z"/>
</g>
<g id="Fill-14">
	<path class="st0" d="M41.7,25.2c0-0.1,0.1-0.3,0.1-0.4c0.1-0.2,0.3-0.3,0.5-0.2c0.2,0,0.4,0.1,0.5,0.2c0.1,0.1,0.1,0.3,0.1,0.4
		H41.7z M43.4,24.8c0-0.2-0.1-0.3-0.2-0.4c-0.1-0.1-0.2-0.2-0.3-0.2c-0.2-0.1-0.3-0.1-0.5-0.1c-0.2,0-0.4,0-0.6,0.1
		c-0.2,0.1-0.3,0.2-0.4,0.3c-0.1,0.1-0.2,0.3-0.2,0.5c-0.1,0.2-0.1,0.4-0.1,0.6c0,0.2,0,0.4,0.1,0.6c0,0.2,0.1,0.3,0.2,0.4
		c0.1,0.1,0.3,0.2,0.4,0.3c0.2,0.1,0.4,0.1,0.6,0.1c0.3,0,0.6,0,0.9-0.2v-0.1l-0.1-0.3c-0.2,0.1-0.5,0.1-0.7,0.1
		c-0.2,0-0.4-0.1-0.6-0.2c-0.1-0.2-0.2-0.4-0.2-0.6h1.8C43.6,25.4,43.6,25.2,43.4,24.8L43.4,24.8z"/>
</g>
<g id="Fill-16">
	<path class="st0" d="M37.9,26.4c0,0-0.1-0.1-0.1-0.1c0-0.1-0.1-0.2,0-0.2c0-0.1,0.1-0.3,0.2-0.3c0.1-0.1,0.3-0.1,0.5-0.1
		c0.2,0,0.3,0,0.5,0v0.8l0,0c-0.2,0-0.3,0.1-0.5,0.1C38.3,26.4,38.1,26.4,37.9,26.4 M38.6,25.1h-0.3c-0.1,0-0.3,0-0.4,0
		c-0.1,0-0.3,0.1-0.4,0.2c-0.1,0.1-0.2,0.2-0.2,0.3c-0.1,0.1-0.1,0.3-0.1,0.4c0,0.1,0,0.3,0.1,0.4c0.1,0.1,0.1,0.2,0.2,0.3
		c0.1,0.1,0.2,0.1,0.3,0.1c0.2,0,0.3,0,0.5,0c0.2,0,0.4,0,0.5,0l0.4-0.1h0.1v-1.6c0-0.3-0.1-0.6-0.3-0.8c-0.2-0.2-0.5-0.3-0.8-0.2
		c-0.2,0-0.3,0-0.5,0c-0.2,0-0.4,0.1-0.5,0.2c0,0,0,0,0,0.1l0.1,0.3l0,0c0.2-0.1,0.5-0.2,0.8-0.2c0.2,0,0.3,0,0.4,0.1
		c0.1,0.1,0.1,0.2,0.1,0.4v0.1h-0.3"/>
</g>
<g id="Fill-18">
	<path class="st0" d="M52.7,24.2h-0.3c-0.2,0-0.3,0-0.5,0.1c-0.1,0-0.2,0.1-0.3,0.2v-0.2h-0.5v2.6h0.3c0,0,0,0,0,0l0,0v-1.3
		c0-0.2,0-0.3,0.1-0.5c0-0.1,0.1-0.2,0.2-0.3c0.1-0.1,0.1-0.1,0.2-0.1c0.1,0,0.2,0,0.2,0h0.2l0.1-0.4"/>
</g>
<g id="Fill-20">
	<path class="st0" d="M48.4,23H48c-0.3,0-0.5,0.1-0.7,0.3c-0.2,0.2-0.3,0.5-0.3,0.8v0.1h-0.4c0,0,0,0-0.1,0l-0.1,0.4
		c0,0,0,0.1,0.1,0.1l0,0h0.4l-0.4,2.2c0,0.1-0.1,0.3-0.1,0.4c0,0.1-0.1,0.2-0.1,0.2c0,0.1-0.1,0.1-0.2,0.1c-0.1,0-0.1,0-0.2,0h-0.3
		l-0.1,0.4h0.4c0.1,0,0.3,0,0.4-0.1c0.1,0,0.2-0.1,0.3-0.1c0.1-0.1,0.2-0.2,0.2-0.4c0.1-0.2,0.1-0.4,0.2-0.6l0.4-2.2h0.6
		c0,0,0,0,0.1,0l0.1-0.4h-0.6c0-0.1,0-0.3,0.1-0.4c0-0.1,0-0.1,0.1-0.2c0,0,0.1-0.1,0.2-0.1h0.5l0.1-0.4"/>
</g>
<g id="Fill-22">
	<path class="st0" d="M40.6,26.8L40.6,26.8h-0.5l0,0v-3.7h0.5V26.8z"/>
</g>
<g id="Fill-35">
	<path class="st2" d="M271.1,73.6c0,4.7-3.9,8.6-8.6,8.5c-4.7,0-8.6-3.9-8.5-8.6c0-4.7,3.9-8.6,8.6-8.5
		C267.3,65,271.2,68.9,271.1,73.6C271.1,73.6,271.1,73.6,271.1,73.6L271.1,73.6"/>
</g>
<g id="Fill-38">
	<path class="st8" d="M43,70.8c-0.3,0-0.6-0.1-0.8-0.3l-2-2c-0.5-0.3-0.6-1-0.3-1.5c0.3-0.5,1-0.6,1.5-0.3c0.1,0.1,0.2,0.2,0.3,0.3
		l2,2c0.4,0.4,0.4,1.1-0.1,1.5C43.5,70.7,43.2,70.8,43,70.8"/>
</g>
<g id="Fill-39">
	<path class="st8" d="M36.2,78.8c-0.3,0-0.6-0.1-0.8-0.3l-3.3-3.3c-0.4-0.4-0.4-1.1,0-1.5c0.4-0.4,1.1-0.4,1.5,0l0,0L37,77
		c0.4,0.4,0.4,1.1,0,1.5C36.8,78.7,36.5,78.8,36.2,78.8"/>
</g>
<g id="Fill-40">
	<path class="st8" d="M43,75.7c-0.3,0-0.6-0.1-0.8-0.3l-6.9-6.9c-0.5-0.4-0.5-1.1-0.1-1.5c0.4-0.5,1.1-0.5,1.5-0.1
		c0.1,0,0.1,0.1,0.2,0.2l6.9,6.9c0.4,0.4,0.4,1.1-0.1,1.5C43.5,75.6,43.3,75.7,43,75.7"/>
</g>
<g id="Fill-41">
	<path class="st8" d="M43,80.7c-0.3,0-0.6-0.1-0.8-0.3L30.4,68.5C30,68,30.1,67.3,30.6,67c0.4-0.3,0.9-0.3,1.3,0l11.9,11.8
		c0.4,0.4,0.4,1.1,0,1.5C43.5,80.5,43.3,80.6,43,80.7"/>
</g>
<g id="Fill-53">
	<path class="st7" d="M262.4,34.4c4.3-0.2,7.6-3.7,7.4-8c-0.1-4-3.4-7.3-7.4-7.4h-31.7c-4.3,0.2-7.6,3.7-7.4,8
		c0.1,4,3.4,7.3,7.4,7.4H262.4z"/>
</g>
<g class="st1">
	<path class="st0" d="M237.3,26.7c0-1.5,0.8-2.4,2-2.4c1.1,0,2,0.9,2,2.4c0,1.5-0.8,2.4-2,2.4C238.2,29.1,237.3,28.2,237.3,26.7z
		 M240.7,26.7c0-1.1-0.5-1.8-1.4-1.8c-0.8,0-1.4,0.7-1.4,1.8c0,1.1,0.5,1.9,1.4,1.9C240.1,28.6,240.7,27.8,240.7,26.7z"/>
</g>
<g class="st1">
	<path class="st0" d="M244.1,24.3c0.5,0,1,0.3,1.3,0.6l-0.3,0.4c-0.2-0.3-0.5-0.4-0.9-0.4c-0.9,0-1.5,0.7-1.5,1.9
		c0,1.2,0.6,1.9,1.4,1.9c0.4,0,0.8-0.2,1-0.5l0.3,0.4c-0.4,0.4-0.8,0.7-1.4,0.7c-1.2,0-2-0.9-2-2.4
		C242.1,25.2,242.9,24.3,244.1,24.3z"/>
</g>
<g class="st1">
	<path class="st0" d="M247.2,24.9h-1.4v-0.5h3.4v0.5h-1.4V29h-0.6V24.9z"/>
	<path class="st0" d="M250.1,24.4h0.6V29h-0.6V24.4z"/>
	<path class="st0" d="M251.5,24.4h0.6l0.7,2.5c0.2,0.5,0.3,1,0.4,1.5h0c0.2-0.5,0.3-1,0.4-1.5l0.7-2.5h0.6l-1.5,4.6h-0.7L251.5,24.4
		z"/>
</g>
</svg>
