<svg id="Layer_1" data-name="Layer 1" xmlns="http://www.w3.org/2000/svg" viewBox="0 0 19 19"><defs><style>.cls-1{fill:none;stroke:#000;}</style></defs><title>g+</title><path d="M4.09,16.47,2.75,15.13A9.09,9.09,0,0,0,4.09,16.47Z"/><path d="M10.23,4.17H5.1A4.91,4.91,0,0,0,1.66,5.62L.8,9a3.72,3.72,0,0,0,3.75,2.63H5a2.18,2.18,0,0,0-.25,1A2.07,2.07,0,0,0,5.45,14H4.57a6.26,6.26,0,0,0-2.31.44l.48.67a4.51,4.51,0,0,1,2.37-.62,4,4,0,0,1,1.27.21c1.06.73,1.83,1.14,2,2a2.09,2.09,0,0,1,.06.52,2.65,2.65,0,0,1-.23,1.15,8.94,8.94,0,0,1-4.18-1.91L5.51,17.9l2.68.72,1.24-.12A3.26,3.26,0,0,0,9.83,17,3.57,3.57,0,0,0,8,13.71c-.47-.33-1.34-1.12-1.34-1.61s.14-.81,1-1.46A3.43,3.43,0,0,0,9.1,8,3,3,0,0,0,7.46,5H9.07Zm-4.94,7C4,11.08,2.72,9.65,2.49,7.92s.65-3.07,2-3S7,6.34,7.26,8.06,6.6,11.17,5.29,11.13Z"/><polygon points="14.29 6.13 14.29 3.88 13.16 3.88 13.16 6.13 10.91 6.13 10.91 7.25 13.16 7.25 13.16 9.5 14.29 9.5 14.29 7.25 16.54 7.25 16.54 6.13 14.29 6.13"/><path class="cls-1" d="M18.5,9.5a9,9,0,1,1-9-9A9,9,0,0,1,18.5,9.5Z"/></svg>