<svg id="Layer_1" data-name="Layer 1" xmlns="http://www.w3.org/2000/svg" viewBox="0 0 126.12 126.08"><defs><style>.cls-1{fill:#ed4c06;}</style></defs><title>Artboard 1</title><path class="cls-1" d="M116.39,37.27a9.67,9.67,0,0,1-6.82-2.78l-18-18A9.67,9.67,0,0,1,105.35,2.89l18,18a9.68,9.68,0,0,1,0,13.63A10.06,10.06,0,0,1,116.39,37.27Z"/><path class="cls-1" d="M55.62,109.66a9.67,9.67,0,0,1-6.82-2.78L19.23,77.3A9.64,9.64,0,0,1,32.86,63.67L62.43,93.15a9.68,9.68,0,0,1,0,13.63A9.53,9.53,0,0,1,55.62,109.66Z"/><path class="cls-1" d="M116.39,81.72a9.67,9.67,0,0,1-6.82-2.78L47.26,16.53a9.68,9.68,0,0,1,0-13.63A9.59,9.59,0,0,1,60.9,2.8l62.31,62.31a9.68,9.68,0,0,1,0,13.63A9.11,9.11,0,0,1,116.39,81.72Z"/><path class="cls-1" d="M116.39,126.08a9.67,9.67,0,0,1-6.82-2.78L2.81,16.53A9.67,9.67,0,0,1,16.54,2.89L123.21,109.57a9.68,9.68,0,0,1,0,13.63A9.37,9.37,0,0,1,116.39,126.08Z"/></svg>