<?xml version="1.0" encoding="utf-8"?>
<!-- Generator: Adobe Illustrator 20.0.0, SVG Export Plug-In . SVG Version: 6.00 Build 0)  -->
<svg version="1.1" id="Layer_1" xmlns="http://www.w3.org/2000/svg" xmlns:xlink="http://www.w3.org/1999/xlink" x="0px" y="0px"
	 viewBox="0 0 600 131.3" style="enable-background:new 0 0 600 131.3;" xml:space="preserve">
<style type="text/css">
	.st0{fill:#ED4C06;}
</style>
<g>
	<g>
		<path class="st0" d="M121.2,38.8c-2.6,0-5.2-1-7.1-2.9L95.4,17.2c-3.9-3.9-3.9-10.3,0-14.2C99.3-1,105.7-1,109.7,3l18.7,18.7
			c3.9,3.9,3.9,10.3,0,14.2C126.4,37.8,123.8,38.8,121.2,38.8z"/>
		<path class="st0" d="M57.9,114.2c-2.6,0-5.2-1-7.1-2.9L20,80.5c-3.9-3.9-3.9-10.3,0-14.2c3.9-3.9,10.3-3.9,14.2,0L65,97
			c3.9,3.9,3.9,10.3,0,14.2C63,113.2,60.5,114.2,57.9,114.2z"/>
		<path class="st0" d="M121.2,85.1c-2.6,0-5.2-1-7.1-2.9L49.2,17.2c-3.9-3.9-3.9-10.3,0-14.2C53.1-1,59.5-1,63.4,2.9l64.9,64.9
			c3.9,3.9,3.9,10.3,0,14.2C126.4,84.1,123.8,85.1,121.2,85.1z"/>
		<path class="st0" d="M121.2,131.3c-2.6,0-5.2-1-7.1-2.9L2.9,17.2C-1,13.3-1,6.9,2.9,3C6.9-1,13.3-1,17.2,3l111.1,111.1
			c3.9,3.9,3.9,10.3,0,14.2C126.4,130.3,123.8,131.3,121.2,131.3z"/>
	</g>
	<g>
		<g>
			<path d="M223.5,114c-26.7,0-48.4-21.7-48.4-48.4s21.7-48.4,48.4-48.4s48.4,21.7,48.4,48.4S250.2,114,223.5,114z M223.5,37.4
				c-15.6,0-28.3,12.7-28.3,28.3c0,15.6,12.7,28.3,28.3,28.3s28.3-12.7,28.3-28.3C251.8,50.1,239.1,37.4,223.5,37.4z"/>
		</g>
		<g>
			<path d="M486.4,114h-12.6c-2.1,0-3.7-1.7-3.7-3.7v-88c0-2.1,1.7-3.7,3.7-3.7h12.6c2.1,0,3.7,1.7,3.7,3.7v88
				C490.2,112.4,488.5,114,486.4,114z"/>
		</g>
		<g>
			<path d="M449.8,18.5h-70.1c-2.1,0-3.7,1.7-3.7,3.7v12.6c0,2.1,1.7,3.7,3.7,3.7h25v71.6c0,2.1,1.7,3.7,3.7,3.7h12.6
				c2.1,0,3.7-1.7,3.7-3.7V38.7h25c2.1,0,3.7-1.7,3.7-3.7V22.3C453.6,20.2,451.9,18.5,449.8,18.5z"/>
		</g>
		<g>
			<path d="M330.7,114c-26.7,0-48.4-21.7-48.4-48.4s21.7-48.4,48.4-48.4c11.9,0,23.5,4.5,32.3,12.4c1.7,1.5,1.7,4,0.1,5.6l-8.9,8.3
				c-1.6,1.5-4.1,1.6-5.8,0.2c-4.9-4-11.1-6.3-17.6-6.3c-14.7-0.1-27.3,11.3-28.4,26c-1.3,16.6,11.8,30.5,28.2,30.5
				c6.6,0,12.8-2.2,17.8-6.3c1.7-1.4,4.2-1.3,5.8,0.2l8.9,8.3c1.6,1.5,1.6,4,0,5.5C354.3,109.5,342.7,114,330.7,114z"/>
		</g>
		<g>
			<path d="M579.1,20.8l-25.9,60.9l-25.8-60.9c-0.6-1.4-1.9-2.3-3.5-2.3h-13.7c-2.7,0-4.5,2.7-3.5,5.2l37.2,88
				c0.6,1.4,1.9,2.3,3.5,2.3h11.4c1.5,0,2.9-0.9,3.4-2.3l37.4-88c1-2.5-0.8-5.2-3.4-5.2h-13.7C581,18.5,579.6,19.4,579.1,20.8z"/>
		</g>
	</g>
</g>
</svg>
