<svg id="Layer_1" data-name="Layer 1" xmlns="http://www.w3.org/2000/svg" viewBox="0 0 576 126.08"><defs><style>.cls-1{fill:#fff;}</style></defs><title>Artboard 1</title><path class="cls-1" d="M116.39,37.27a9.67,9.67,0,0,1-6.82-2.78l-18-18A9.67,9.67,0,0,1,105.35,2.89l18,18a9.68,9.68,0,0,1,0,13.63A10.06,10.06,0,0,1,116.39,37.27Z"/><path class="cls-1" d="M55.62,109.66a9.67,9.67,0,0,1-6.82-2.78L19.23,77.3A9.64,9.64,0,0,1,32.86,63.67L62.43,93.15a9.68,9.68,0,0,1,0,13.63A9.53,9.53,0,0,1,55.62,109.66Z"/><path class="cls-1" d="M116.39,81.72a9.67,9.67,0,0,1-6.82-2.78L47.26,16.53a9.68,9.68,0,0,1,0-13.63A9.59,9.59,0,0,1,60.9,2.8l62.31,62.31a9.68,9.68,0,0,1,0,13.63A9.11,9.11,0,0,1,116.39,81.72Z"/><path class="cls-1" d="M116.39,126.08a9.67,9.67,0,0,1-6.82-2.78L2.81,16.53A9.67,9.67,0,0,1,16.54,2.89L123.21,109.57a9.68,9.68,0,0,1,0,13.63A9.37,9.37,0,0,1,116.39,126.08Z"/><path class="cls-1" d="M214.62,109.47A46.47,46.47,0,1,1,261.09,63,46.51,46.51,0,0,1,214.62,109.47Zm0-73.55a27.17,27.17,0,1,0,27.17,27.17A27.21,27.21,0,0,0,214.62,35.92Z"/><path class="cls-1" d="M467,109.47h-12.1a3.54,3.54,0,0,1-3.55-3.55V21.42a3.54,3.54,0,0,1,3.55-3.55H467a3.54,3.54,0,0,1,3.55,3.55v84.49A3.43,3.43,0,0,1,467,109.47Z"/><path class="cls-1" d="M431.9,17.77H364.59A3.54,3.54,0,0,0,361,21.33v12.1A3.54,3.54,0,0,0,364.59,37h24v68.75a3.54,3.54,0,0,0,3.55,3.55h12.1a3.54,3.54,0,0,0,3.55-3.55V37.17h24a3.54,3.54,0,0,0,3.55-3.55V21.42A3.38,3.38,0,0,0,431.9,17.77Z"/><path class="cls-1" d="M317.55,109.47a46.47,46.47,0,1,1,31-81,3.64,3.64,0,0,1,.1,5.38l-8.55,8a4.24,4.24,0,0,1-5.57.19,26.75,26.75,0,0,0-16.9-6,27.12,27.12,0,1,0-.19,54.25,26.73,26.73,0,0,0,17.09-6,4.24,4.24,0,0,1,5.57.19l8.55,8a3.6,3.6,0,0,1,0,5.28A46.73,46.73,0,0,1,317.55,109.47Z"/><path class="cls-1" d="M556,20,531.18,78.46,506.41,20A3.57,3.57,0,0,0,503,17.77H489.89a3.62,3.62,0,0,0-3.36,5l35.72,84.49a3.57,3.57,0,0,0,3.36,2.21h10.95a3.45,3.45,0,0,0,3.26-2.21l35.91-84.49a3.61,3.61,0,0,0-3.26-5H559.31A3.45,3.45,0,0,0,556,20Z"/></svg>