<svg id="Layer_1" data-name="Layer 1" xmlns="http://www.w3.org/2000/svg" viewBox="0 0 1000 1000"><defs><style>.cls-1{fill:#fff;opacity:0.1;}</style></defs><title>Artboard 1</title><path class="cls-1" d="M374.68,374.73a44.17,44.17,0,0,0,0-62.47L62.41,0H0V62.52L312.22,374.73A44.17,44.17,0,0,0,374.68,374.73Z"/><path class="cls-1" d="M386.9,387c-17.24,17.25-13.73,48.73,7.85,70.31L937.48,1000H1000V937.58L457.21,394.8C435.63,373.22,404.15,369.71,386.9,387Z"/><path class="cls-1" d="M247.37,647.16c17.25-17.25,16-46.46-2.78-65.24L0,337.32V462.25L182.13,644.38C200.91,663.16,230.12,664.41,247.37,647.16Z"/><path class="cls-1" d="M261,660.76C243.73,678,245,707.22,263.75,726l274,274H662.68L326.22,663.54C307.43,644.76,278.22,643.51,261,660.76Z"/><polygon class="cls-1" points="861.97 0 737.04 0 1000 262.96 1000 138.03 861.97 0"/><path class="cls-1" d="M574.57,174.85a44.17,44.17,0,0,0,0-62.47L462.19,0H337.26L512.11,174.84A44.17,44.17,0,0,0,574.57,174.85Z"/><path class="cls-1" d="M586.79,187.07c-17.25,17.25-15.66,46.81,3.56,66L1000,662.74V537.81L652.82,190.62C633.6,171.41,604,169.82,586.79,187.07Z"/><polygon class="cls-1" points="0 862.03 137.97 1000 262.9 1000 0 737.1 0 862.03"/><path class="cls-1" d="M699.85,500c-17.25,17.25-15.68,46.79,3.51,66L1000,862.63V737.7L765.82,503.52C746.63,484.33,717.1,482.76,699.85,500Z"/><path class="cls-1" d="M253.34,116l375.2,375.2c15.24,15.24,41.57,13.61,58.82-3.64s18.88-43.58,3.64-58.82L315.8,53.49h0L262.3,0H137.37L253.27,115.89Z"/><polygon class="cls-1" points="0 1000 63.01 1000 0 936.99 0 1000"/><polygon class="cls-1" points="1000 0 936.92 0 1000 63.08 1000 0"/><path class="cls-1" d="M300.09,899.77c-17.25,17.25-15.68,46.78,3.51,66L337.86,1000H462.79l-96.73-96.73C346.88,884.09,317.34,882.52,300.09,899.77Z"/><path class="cls-1" d="M287.6,887.28c17.25-17.25,18.88-43.58,3.64-58.82L0,537.22V662.15L228.77,890.92C244,906.16,270.35,904.53,287.6,887.28Z"/><path class="cls-1" d="M500,699.89c-17.24,17.24-15.67,46.78,3.51,66L737.63,1000H862.53L565.93,703.4C546.74,684.22,517.21,682.64,500,699.89Z"/><path class="cls-1" d="M101.06,363.42,428.67,691c15.24,15.24,41.57,13.61,58.81-3.64s18.87-43.57,3.63-58.81l-375.2-375.2-.05,0L0,137.47V262.4L100.21,362.61C100.48,362.89,100.77,363.15,101.06,363.42Z"/><path class="cls-1" d="M899.74,300.12c-17.25,17.25-15.68,46.78,3.51,66L1000,462.85V337.91l-34.29-34.29C946.52,284.44,917,282.87,899.74,300.12Z"/><path class="cls-1" d="M887.24,287.63c17.25-17.25,18.88-43.58,3.64-58.82L662.08,0H537.15L828.42,291.27C843.66,306.51,870,304.88,887.24,287.63Z"/></svg>