<svg id="Tablet" xmlns="http://www.w3.org/2000/svg" viewBox="0 0 750 1000"><defs><style>.cls-1{fill:#f5f5f5;}.cls-2{fill:#989898;}.cls-3{fill:#e1e1e1;}.cls-11,.cls-15,.cls-4{fill:#fff;}.cls-4{stroke:#e1e1e1;}.cls-11,.cls-4{stroke-width:2px;}.cls-5{fill:#42b0d8;}.cls-6{fill:#b9b9b9;}.cls-7{fill:#e2e2e2;}.cls-8{fill:#2a7692;}.cls-9{fill:#33ab40;}.cls-10{fill:#1f7328;}.cls-11{stroke:#ebebeb;}.cls-12{fill:#bdbdbd;}.cls-13{fill:#434343;}.cls-14{fill:none;stroke:#42b0d8;stroke-width:7px;}.cls-16{fill:#585858;}.cls-17{fill:#ced0d0;}.cls-18{fill:#ed4f23;}.cls-19{fill:#f09177;}.cls-20{fill:#353535;}.cls-21{fill:#424242;}.cls-22{fill:#c6c6c6;}.cls-23{opacity:0;}.cls-24{fill:#d4d4d4;}.cls-25{fill:#eee;}.cls-26{fill:#ed4c06;}</style></defs><title>Artboard 1</title><rect class="cls-1" y="516" width="750" height="484"/><path class="cls-2" d="M349.9,617.4V622H348V610.6h3.2a5.71,5.71,0,0,1,3.3.8,3.1,3.1,0,0,1,1.1,2.5,3.05,3.05,0,0,1-2.2,3l3.2,5.1h-2.1l-2.7-4.6h-1.9Zm0-1.5h1.3a3.09,3.09,0,0,0,1.9-.5,1.93,1.93,0,0,0,0-2.8,3.36,3.36,0,0,0-1.9-.4H350v3.7Z"/><path class="cls-2" d="M361.8,622.2a4.38,4.38,0,0,1-3.2-1.2,4.32,4.32,0,0,1-1.1-3.2,4.86,4.86,0,0,1,1.1-3.3,3.7,3.7,0,0,1,2.9-1.2,3.62,3.62,0,0,1,2.7,1,3.8,3.8,0,0,1,1,2.9v1h-5.8a2.74,2.74,0,0,0,.7,1.9,2.14,2.14,0,0,0,1.8.7,6.15,6.15,0,0,0,1.4-.1,12.12,12.12,0,0,0,1.4-.5v1.5a5.78,5.78,0,0,1-1.4.5A7.44,7.44,0,0,0,361.8,622.2Zm-.3-7.6a1.68,1.68,0,0,0-1.4.6,2.58,2.58,0,0,0-.6,1.6h3.9a2.35,2.35,0,0,0-.5-1.6A1.82,1.82,0,0,0,361.5,614.6Z"/><path class="cls-2" d="M370.7,622.2a4.08,4.08,0,0,1-3-1.1,4.66,4.66,0,0,1-1-3.3,5,5,0,0,1,1.1-3.4,3.85,3.85,0,0,1,3.1-1.2,7,7,0,0,1,2.5.5l-.6,1.5a5.94,5.94,0,0,0-1.9-.5c-1.5,0-2.2,1-2.2,3a3.4,3.4,0,0,0,.6,2.2,1.86,1.86,0,0,0,1.6.7,4.65,4.65,0,0,0,2.3-.6v1.6a3.58,3.58,0,0,1-1.1.4A5.22,5.22,0,0,1,370.7,622.2Z"/><path class="cls-2" d="M379,622.2a4.38,4.38,0,0,1-3.2-1.2,4.32,4.32,0,0,1-1.1-3.2,4.86,4.86,0,0,1,1.1-3.3,3.7,3.7,0,0,1,2.9-1.2,3.62,3.62,0,0,1,2.7,1,3.8,3.8,0,0,1,1,2.9v1h-5.8a2.74,2.74,0,0,0,.7,1.9,2.14,2.14,0,0,0,1.8.7,6.15,6.15,0,0,0,1.4-.1,12.12,12.12,0,0,0,1.4-.5v1.5a5.78,5.78,0,0,1-1.4.5A7.49,7.49,0,0,0,379,622.2Zm-.4-7.6a1.68,1.68,0,0,0-1.4.6,2.58,2.58,0,0,0-.6,1.6h3.9a2.35,2.35,0,0,0-.5-1.6A1.68,1.68,0,0,0,378.6,614.6Z"/><path class="cls-2" d="M392,622h-1.8v-5.3a2.08,2.08,0,0,0-.4-1.5,1.73,1.73,0,0,0-1.3-.5,1.94,1.94,0,0,0-1.7.7,3.57,3.57,0,0,0-.5,2.3V622h-1.8v-8.6h1.4l.3,1.1h.1a3.57,3.57,0,0,1,1.1-1,4.15,4.15,0,0,1,1.6-.3c2.1,0,3.1,1.1,3.1,3.2V622Z"/><path class="cls-2" d="M397.8,620.7a5.85,5.85,0,0,0,1.3-.2v1.4a1.88,1.88,0,0,1-.8.2c-.3,0-.7.1-1,.1-1.7,0-2.6-.9-2.6-2.8v-4.7h-1.2v-.8l1.3-.7.6-1.8h1.1v1.9H399v1.4h-2.5v4.6a1.49,1.49,0,0,0,.3,1A1.28,1.28,0,0,0,397.8,620.7Z"/><rect class="cls-3" x="54" y="613.4" width="277" height="2.6"/><rect id="Rectangle_13_copy" data-name="Rectangle 13 copy" class="cls-3" x="419" y="615" width="280" height="2"/><path id="Rounded_Rectangle_4" data-name="Rounded Rectangle 4" class="cls-4" d="M55,645H695a4,4,0,0,1,4,4V779a4,4,0,0,1-4,4H55a4,4,0,0,1-4-4V649A4,4,0,0,1,55,645Z"/><path id="Rounded_Rectangle_5" data-name="Rounded Rectangle 5" class="cls-5" d="M65,659h68.3a2,2,0,0,1,2,2v68a2,2,0,0,1-2,2H65a2,2,0,0,1-2-2V661A2,2,0,0,1,65,659Z"/><rect class="cls-6" x="159.5" y="663" width="317.5" height="32"/><rect id="Rectangle_11_copy_6" data-name="Rectangle 11 copy 6" class="cls-7" x="159" y="742" width="238" height="21"/><rect id="Rectangle_11_copy_7" data-name="Rectangle 11 copy 7" class="cls-7" x="159" y="708" width="272" height="21"/><path class="cls-7" d="M658.5,688.8c-1.2,0-2.3-.1-3.5-.2a26.53,26.53,0,0,1-11,5.8,25.57,25.57,0,0,1-2.7.5,1.07,1.07,0,0,1-1.1-.9h0c-.1-.6.3-1,.6-1.4,1.5-1.7,3.2-3.1,4.4-7.1-4.9-2.8-8.1-7.1-8.1-12,0-8.5,9.6-15.3,21.5-15.3S680,665,680,673.5,670.4,688.8,658.5,688.8Z"/><path class="cls-8" d="M113.4,695.9a2,2,0,0,1-2,2h-8.7v8.7a2,2,0,0,1-2,2h-4a2,2,0,0,1-2-2v-8.7H86a2,2,0,0,1-2-2v-4a2,2,0,0,1,2-2h8.7v-8.7a2,2,0,0,1,2-2h4a2,2,0,0,1,2,2v8.7h8.7a2,2,0,0,1,2,2Z"/><path id="Rounded_Rectangle_4-2" data-name="Rounded Rectangle 4-2" class="cls-4" d="M55,805H695a4,4,0,0,1,4,4V974a4,4,0,0,1-4,4H55a4,4,0,0,1-4-4V809A4,4,0,0,1,55,805Z"/><path id="Rounded_Rectangle_5-2" data-name="Rounded Rectangle 5-2" class="cls-9" d="M65,819h68.3a2,2,0,0,1,2,2v68a2,2,0,0,1-2,2H65a2,2,0,0,1-2-2V821A2,2,0,0,1,65,819Z"/><rect class="cls-6" x="159" y="823" width="376" height="32"/><rect id="Rectangle_11_copy" data-name="Rectangle 11 copy" class="cls-7" x="159" y="868" width="406" height="21"/><rect id="Rectangle_11_copy_4" data-name="Rectangle 11 copy 4" class="cls-7" x="159" y="936" width="256" height="21"/><rect id="Rectangle_11_copy_2" data-name="Rectangle 11 copy 2" class="cls-7" x="159" y="902" width="203" height="21"/><path class="cls-7" d="M658.5,848.8c-1.2,0-2.3-.1-3.5-.2a26.53,26.53,0,0,1-11,5.8,25.57,25.57,0,0,1-2.7.5,1.07,1.07,0,0,1-1.1-.9h0c-.1-.6.3-1,.6-1.4,1.5-1.7,3.2-3.1,4.4-7.1-4.9-2.8-8.1-7.1-8.1-12,0-8.5,9.6-15.3,21.5-15.3S680,825,680,833.5,670.4,848.8,658.5,848.8Z"/><path class="cls-10" d="M114.3,849.8,99.2,864.9l-2.8,2.8a1.93,1.93,0,0,1-2.8,0l-2.8-2.8-7.6-7.6a1.93,1.93,0,0,1,0-2.8l2.8-2.8a1.93,1.93,0,0,1,2.8,0l6.1,6.2,13.7-13.7a1.93,1.93,0,0,1,2.8,0l2.8,2.8a2,2,0,0,1,.6,1.4A1.87,1.87,0,0,1,114.3,849.8Z"/><path id="Background" class="cls-11" d="M55,537H695a4,4,0,0,1,4,4v49a4,4,0,0,1-4,4H55a4,4,0,0,1-4-4V541A4,4,0,0,1,55,537Z"/><rect class="cls-5" x="53" y="539" width="7" height="53"/><rect id="text" class="cls-5" x="135" y="554" width="235" height="24"/><path class="cls-5" d="M109.2,565.5a13,13,0,1,1-13-12.9A13,13,0,0,1,109.2,565.5Zm-8.7-3.9c.1,0,.2-.3.2-.4a1.38,1.38,0,0,1,.4-.3,2.92,2.92,0,0,1,.9-.2.8.8,0,0,1,.9.2c-.1-.1.4-.4.4-.4.2-.1.4-.1.5-.2v-.4c-.3,0-.4-.2-.4-.5a.1.1,0,0,1-.1.1c0-.3-.3-.1-.4-.1-.4-.1-.3-.4-.5-.7s-.3-.2-.3-.4-.1-.3-.3-.3-.3.4-.3.3c-.2-.1-.2,0-.3.1s-.2,0-.3.1c.3-.1-.1-.3-.3-.2.2-.1.1-.3,0-.4h.1c0-.2-.5-.3-.7-.4s-1-.3-1.1-.2.1.5.1.6-.2.3-.2.4c0,.3.5.2.4.6-.1.2-.4.3-.5.5a.48.48,0,0,0,.2.6c.1.1-.2.3-.3.3-.3.1-.5-.3-.6-.5s-.1-.4-.3-.5-.4-.1-.5,0c-.1-.3-.5-.4-.7-.4a3.08,3.08,0,0,0-1-.1c.1,0,0-.5-.3-.5a1.09,1.09,0,0,0,.1-.5.76.76,0,0,1,.2-.4c0-.1.4-.5.3-.5a1.08,1.08,0,0,0,.8-.2c.2-.2.2-.4.4-.6s.5.1.7.1.3-.4.1-.5c.2,0,0-.4-.1-.4s-.7.1-.4.2c-.1,0-.5.8-.7.4-.1-.1-.1-.4-.3-.5s-.2.2-.3.3c.1-.2-.5-.4-.6-.4.3-.2.1-.4-.1-.5s-.6-.2-.7,0c-.3.4.3.4.5.5s.3.2.1.2-.4.1-.4.2.1.3,0,.5c-.2-.2-.2-.4-.3-.6.2.2-.6.1-.6.1-.3,0-.7.2-.8-.1,0-.1,0-.5.1-.4a1.38,1.38,0,0,1-.4-.3,7.74,7.74,0,0,0-1.6.7h.2c.1-.1.3-.1.4-.2s.5-.3.7-.1l.1-.1c.1.1.2.3.3.4-.1-.1-.4,0-.5,0a.76.76,0,0,0-.4.2.37.37,0,0,1,.1.3,1,1,0,0,0-.7-.4H91a11.83,11.83,0,0,0-4,3.7c.1.1.1.1.2.1s0,.5.3.3a.37.37,0,0,1,.1.3s.7.4.7.5.3.2.4.4-.1.3-.2.3-.3-.3-.3-.2,0,.5.2.5c-.3,0-.2,1.1-.2,1.3h0c-.1.2.1,1,.5.9-.2,0,.4.8.5.9s.5.3.6.5.2.6.4.8c-.1.2.4.4.3.7h-.1c.1.2.4.2.5.5.1.1,0,.5.2.4a1.78,1.78,0,0,0-.4-1c-.1-.2-.2-.3-.3-.5s-.1-.3-.2-.5a1.47,1.47,0,0,1,.4.2c-.1.3.5.9.7,1.1s.4.6.2.6c.2,0,.5.3.6.5s.1.6.2.8.6.5.8.6a4.35,4.35,0,0,0,.7.4c.4.1.4,0,.7,0s.5.4.8.6.7.3.9.2c-.1,0,.4.7.4.8.2.2.4.3.6.5.1,0,.1-.1.1-.2-.1.2.3.5.4.5s.2-.4.2-.5c-.3.2-.6,0-.8-.3,0-.1-.3-.6-.1-.6s.1-.3.1-.5-.3-.4-.4-.6a.28.28,0,0,1-.5,0c0,.1-.1.1-.1.2h-.3c0-.2.1-.5.1-.7s.6-.9-.1-.9c-.3,0-.4.1-.4.3s-.1.4-.3.5a1.06,1.06,0,0,1-.8-.1,1.61,1.61,0,0,1-.5-1.1c0-.5.2-.9,0-1.3.1-.1.2-.3.3-.3s.2.1.3-.2a.1.1,0,0,1-.1-.1c.3.1.7-.2.9,0a.3.3,0,0,0,.4,0c0-.1-.1-.3-.1-.4.1.3.2.3.5.2.1.1.4.1.6.2s.2.3.4.1c.1.2.2.2.2.4s.2.7.3.7c.4.2.3-.4.2-.6V566c-.5-.1-.3-.5,0-.8a3.29,3.29,0,0,0,.6-.3.71.71,0,0,0,.3-.6.22.22,0,0,0,.2-.2c-.1,0-.3-.2-.3-.2a.19.19,0,0,0,0-.3c.2-.1.1-.3.3-.4.2.3.6,0,.4-.2.2-.2.6-.1.7-.3.3.1.1-.3.2-.4s.3-.2.5-.2c0,0,.4-.2.3-.3.3,0,.9-.3.4-.5.1-.2-.2-.2-.3-.3h.4c.2-.2.1-.2-.1-.3s-.5.1-.7.2C100.7,561.4,100.6,561.6,100.5,561.6Zm3.5,11.3a.6.6,0,0,0-.4-.1c-.1-.1-.2-.1-.4-.1,0-.3-.3-.5-.6-.6s-.4-.4-.7-.3c0,0-.4.1-.3.2a1.28,1.28,0,0,0-.6-.4c-.3-.1-.5-.4-.7-.1a.75.75,0,0,0-.1.5c-.2-.2.2-.4,0-.6s-.6.2-.7.3-.2.1-.3.2-.1.3-.2.4c-.1-.1-.3-.1-.4-.2.1.4.1.8.2,1.2a.83.83,0,0,1-.2.8c-.2.2-.5.4-.5.7s0,.4.2.4c0,.3-.3.4-.3.7v.3A12.17,12.17,0,0,0,104,572.9Z"/><path class="cls-12" d="M670.4,572.8a.67.67,0,0,1-1,0l-8.6-8.6a.78.78,0,0,1,0-1.1l1.9-1.9a.67.67,0,0,1,1,0l6.1,6.1,6.1-6.1a.67.67,0,0,1,1,0l1.9,1.9a.78.78,0,0,1,0,1.1Z"/><rect class="cls-13" y="65" width="750" height="451"/><path class="cls-14" d="M286,189.4c1.6,0,3.2,0,4.8.1C335,192,370,229,370,274.2c0,46.8-37.6,84.8-84,84.8s-84-38-84-84.8a85,85,0,0,1,23.4-58.7A83.21,83.21,0,0,1,286,189.4Z"/><path id="Shape_2_copy" data-name="Shape 2 copy" class="cls-13" d="M233.6,224.4c-3.5-4.3-8.7-10.4-13.1-16.4,10.3-24.8,44.4-36.2,69.2-26.7.3,12-.3,13.7-.3,22.2C265.7,199.2,246.2,207.5,233.6,224.4Z"/><path class="cls-9" d="M232.5,214a55.54,55.54,0,0,1-4.9-5.8c13.4-13.4,37.2-22.9,55.7-22,.4,5.1.3,3.5.5,7.5C264.9,194.6,247.2,202.1,232.5,214Z"/><path class="cls-15" d="M253.6,238.5c3.7,0,6.6.8,8.6,2.3a7.32,7.32,0,0,1,3.1,6.4,8.14,8.14,0,0,1-1.5,4.9,12.67,12.67,0,0,1-4.6,3.7,17.64,17.64,0,0,1,5.5,4.5,7.91,7.91,0,0,1,1.6,4.8,8.45,8.45,0,0,1-3.4,7.3c-2.3,1.7-5.4,2.6-9.5,2.6s-7.3-.8-9.5-2.5a8.64,8.64,0,0,1-3.3-7.3,9.18,9.18,0,0,1,1.5-5.3A12.59,12.59,0,0,1,247,256a13.3,13.3,0,0,1-4.1-4.1,8.88,8.88,0,0,1-1.3-4.8,7.26,7.26,0,0,1,3.1-6.3A15.87,15.87,0,0,1,253.6,238.5Zm-4.2,26.3a3,3,0,0,0,1.1,2.4,4.37,4.37,0,0,0,2.9.9c2.8,0,4.2-1,4.2-3.1a3.52,3.52,0,0,0-.9-2.3,12.5,12.5,0,0,0-3.3-2.6,11.85,11.85,0,0,0-3.1,2.3A3.3,3.3,0,0,0,249.4,264.8Zm4.2-19.4a3.14,3.14,0,0,0-2.1.7,2.24,2.24,0,0,0-.8,1.9c0,1.4.9,2.6,2.8,3.7a10.12,10.12,0,0,0,2.3-1.8,3.08,3.08,0,0,0,.6-1.9,2.56,2.56,0,0,0-.8-1.9A3.46,3.46,0,0,0,253.6,245.4Z"/><path class="cls-15" d="M283.9,251.3a11.52,11.52,0,0,1,5.5,1.4,9.78,9.78,0,0,1,3.8,4,12.66,12.66,0,0,1,1.4,6c0,4-1.2,7-3.5,9.1s-5.9,3.2-10.7,3.2a22.29,22.29,0,0,1-10-1.9v-7.9a28.75,28.75,0,0,0,4.7,1.6,21.47,21.47,0,0,0,4.5.6,6.89,6.89,0,0,0,4.1-1.1,4.22,4.22,0,0,0,1.4-3.3,4,4,0,0,0-1.4-3.2c-1-.8-2.4-1.1-4.4-1.1a17.2,17.2,0,0,0-4.8.8l-3.5-1.7,1.3-18.7h20v8h-12l-.4,4.7a22,22,0,0,1,2.7-.4A5.7,5.7,0,0,1,283.9,251.3Z"/><path class="cls-15" d="M315.8,249.6c0,3.6-.8,6.3-2.4,8.3s-3.8,2.9-6.8,2.9a7.8,7.8,0,0,1-6.5-3c-1.6-2-2.4-4.7-2.4-8.2s.8-6.3,2.4-8.2a8.2,8.2,0,0,1,6.6-2.9,8.32,8.32,0,0,1,6.7,3C315.1,243.5,315.8,246.2,315.8,249.6Zm-10.9.1a12.09,12.09,0,0,0,.5,4c.3.8.8,1.2,1.4,1.2s1.1-.4,1.4-1.2a13.51,13.51,0,0,0,.4-4.1,12.77,12.77,0,0,0-.4-4c-.3-.8-.7-1.2-1.4-1.2s-1.1.4-1.4,1.3A12.52,12.52,0,0,0,304.9,249.7ZM333.3,239l-19.5,35.5h-7.1L326.2,239Zm9.2,24.7c0,3.5-.8,6.3-2.4,8.2a8.34,8.34,0,0,1-6.8,2.9,7.8,7.8,0,0,1-6.5-3,12.61,12.61,0,0,1-2.4-8.1c0-3.6.8-6.3,2.4-8.2a8.2,8.2,0,0,1,6.6-2.9,8.32,8.32,0,0,1,6.7,3A12.61,12.61,0,0,1,342.5,263.7Zm-10.9.1a12.09,12.09,0,0,0,.5,4c.3.8.8,1.2,1.4,1.2s1.2-.5,1.4-1.4a18.25,18.25,0,0,0,0-7.6c-.3-.9-.7-1.4-1.4-1.4s-1.1.4-1.4,1.3A11.82,11.82,0,0,0,331.6,263.8Z"/><path class="cls-15" d="M236.7,289.2a3.81,3.81,0,0,0-3.1,1.4,6,6,0,0,0-1.1,3.9,6.36,6.36,0,0,0,1.1,4,3.82,3.82,0,0,0,3.2,1.3,8.81,8.81,0,0,0,1.7-.2,16.69,16.69,0,0,0,1.8-.5v2a11.22,11.22,0,0,1-3.8.6,5.91,5.91,0,0,1-4.8-1.9,8.12,8.12,0,0,1-1.7-5.4,9.35,9.35,0,0,1,.8-3.9,5.82,5.82,0,0,1,2.3-2.6,6.87,6.87,0,0,1,3.6-.9,9,9,0,0,1,4,.9l-.8,1.9-1.5-.6A9.63,9.63,0,0,1,236.7,289.2Z"/><path class="cls-15" d="M245.3,301.7H243V286.5h2.3Z"/><path class="cls-15" d="M258.1,296.2a5.78,5.78,0,0,1-1.3,4.1,4.68,4.68,0,0,1-3.7,1.5,5,5,0,0,1-2.7-.7,4.38,4.38,0,0,1-1.8-2,7,7,0,0,1-.6-3,5.78,5.78,0,0,1,1.3-4.1,4.76,4.76,0,0,1,3.8-1.5,4.82,4.82,0,0,1,3.7,1.5A7.22,7.22,0,0,1,258.1,296.2Zm-7.8,0c0,2.5.9,3.7,2.7,3.7s2.7-1.2,2.7-3.7-.9-3.7-2.7-3.7a2.28,2.28,0,0,0-2.1,1A5.15,5.15,0,0,0,250.3,296.2Z"/><path class="cls-15" d="M267.9,298.6a2.78,2.78,0,0,1-1.1,2.4,5.39,5.39,0,0,1-3.3.8,6.62,6.62,0,0,1-3.4-.7v-2a8.25,8.25,0,0,0,3.5.9c1.4,0,2.1-.4,2.1-1.3a1.45,1.45,0,0,0-.2-.7,2.76,2.76,0,0,0-.8-.6c-.4-.2-.8-.4-1.5-.7a8.73,8.73,0,0,1-2.5-1.4,2.94,2.94,0,0,1-.7-1.9,2.79,2.79,0,0,1,1.1-2.2,5.1,5.1,0,0,1,3-.8,8.63,8.63,0,0,1,3.6.8l-.7,1.7a7.52,7.52,0,0,0-2.9-.7c-1.2,0-1.8.3-1.8,1a1.38,1.38,0,0,0,.5.9,11.73,11.73,0,0,0,2,1,11.57,11.57,0,0,1,1.9.9,2.84,2.84,0,0,1,.9,1A5,5,0,0,1,267.9,298.6Z"/><path class="cls-15" d="M275,301.9a5,5,0,0,1-3.9-1.5,5.81,5.81,0,0,1-1.4-4.1,6,6,0,0,1,1.3-4.2,4.61,4.61,0,0,1,3.6-1.5,4.52,4.52,0,0,1,3.4,1.3,5.22,5.22,0,0,1,1.2,3.6v1.2H272a3.46,3.46,0,0,0,.8,2.4,2.73,2.73,0,0,0,2.2.8,11,11,0,0,0,1.8-.2,7.59,7.59,0,0,0,1.8-.6V301a5.78,5.78,0,0,1-1.7.6A9.47,9.47,0,0,1,275,301.9Zm-.4-9.5a2.06,2.06,0,0,0-1.7.7,3.67,3.67,0,0,0-.8,2H277a2.81,2.81,0,0,0-.6-2A2.41,2.41,0,0,0,274.6,292.4Z"/><path class="cls-15" d="M289.5,296v5.7h-2.3V287.4h4a6.71,6.71,0,0,1,4.1,1,3.62,3.62,0,0,1,1.3,3.1c0,1.8-.9,3-2.8,3.8l4,6.3h-2.6l-3.4-5.7h-2.3Zm0-2h1.6a3.34,3.34,0,0,0,2.3-.6,2.48,2.48,0,0,0,.7-1.8,1.88,1.88,0,0,0-.8-1.7,3.91,3.91,0,0,0-2.4-.5h-1.5V294Z"/><path class="cls-15" d="M306.3,301.7l-.5-1.5h-.1a3.2,3.2,0,0,1-1.6,1.3,5.44,5.44,0,0,1-2,.4,3.33,3.33,0,0,1-2.5-.9,3.24,3.24,0,0,1-.9-2.4,2.79,2.79,0,0,1,1.2-2.5,6.31,6.31,0,0,1,3.7-.9l1.9-.1v-.6a1.77,1.77,0,0,0-2-2,8.75,8.75,0,0,0-1.6.2,9.38,9.38,0,0,0-1.5.6l-.7-1.6a10.66,10.66,0,0,1,1.9-.7,6.8,6.8,0,0,1,2-.2,4.59,4.59,0,0,1,3.1.9,3.43,3.43,0,0,1,1,2.8v7.3h-1.4Zm-3.4-1.6a2.72,2.72,0,0,0,2-.7,2.63,2.63,0,0,0,.8-2v-.9l-1.4.1a4.11,4.11,0,0,0-2.3.5,1.81,1.81,0,0,0-.7,1.5,1.25,1.25,0,0,0,.4,1.1A1.46,1.46,0,0,0,302.9,300.1Z"/><path class="cls-15" d="M315.1,300a5.08,5.08,0,0,0,1.7-.3v1.7c-.3.1-.6.2-1,.3a4.87,4.87,0,0,1-1.2.1c-2.2,0-3.2-1.1-3.2-3.4v-5.8h-1.5v-1l1.6-.8.8-2.3h1.4v2.4h3.1v1.7h-3.1v5.8c0,.6.1,1,.4,1.2A1.16,1.16,0,0,0,315.1,300Z"/><path class="cls-15" d="M323.6,301.9a5,5,0,0,1-3.9-1.5,5.81,5.81,0,0,1-1.4-4.1,6,6,0,0,1,1.3-4.2,4.61,4.61,0,0,1,3.6-1.5,4.52,4.52,0,0,1,3.4,1.3,5.22,5.22,0,0,1,1.2,3.6v1.2h-7.1a3.46,3.46,0,0,0,.8,2.4,2.73,2.73,0,0,0,2.2.8,11,11,0,0,0,1.8-.2,7.59,7.59,0,0,0,1.8-.6V301a5.78,5.78,0,0,1-1.7.6A12,12,0,0,1,323.6,301.9Zm-.4-9.5a2.06,2.06,0,0,0-1.7.7,3.67,3.67,0,0,0-.8,2h4.9a2.81,2.81,0,0,0-.6-2A2.67,2.67,0,0,0,323.2,292.4Z"/><path class="cls-16" d="M420.8,210.5H546v28.6H420.8Z"/><path id="Rectangle_4_copy" data-name="Rectangle 4 copy" class="cls-5" d="M420.8,257.7H546v28.7H420.8Z"/><path id="Rectangle_4_copy_2" data-name="Rectangle 4 copy 2" class="cls-9" d="M420.8,305H546v28.6H420.8Z"/><path class="cls-15" d="M113.3,433.1a9,9,0,0,1-3.2,7.2,15.93,15.93,0,0,1-9.1,3.2v5.8H97.1v-5.7A32.18,32.18,0,0,1,85,441.2v-7.4a30.82,30.82,0,0,0,5.9,2.1,32.56,32.56,0,0,0,6.2,1.1v-8.7l-1.9-.7c-3.7-1.5-6.4-3.1-7.9-4.8a9.29,9.29,0,0,1-2.3-6.4,8.34,8.34,0,0,1,3.2-6.7c2.1-1.8,5.1-2.8,8.9-3.2v-4.3H101v4.2a33.43,33.43,0,0,1,11.7,2.6l-2.6,6.6a31.22,31.22,0,0,0-9-2.2v8.3a35.86,35.86,0,0,1,7.8,3.7,11,11,0,0,1,3.4,3.4A8.54,8.54,0,0,1,113.3,433.1ZM93.5,416.5a2.52,2.52,0,0,0,.9,2,9.85,9.85,0,0,0,2.8,1.6v-6.6C94.7,413.9,93.5,414.9,93.5,416.5Zm11.4,17.1a2.33,2.33,0,0,0-1-2,13.82,13.82,0,0,0-2.9-1.7v7Q104.9,436.3,104.9,433.6Z"/><path class="cls-15" d="M117.5,428.5c0-8.1,1.7-14.2,5.2-18.2s8.6-6,15.5-6a26.86,26.86,0,0,1,5.5.4v6.9a21.36,21.36,0,0,0-5-.6,16.94,16.94,0,0,0-7.3,1.4,8.61,8.61,0,0,0-4.2,4,19.78,19.78,0,0,0-1.7,7.5h.4c1.9-3.2,4.8-4.8,8.9-4.8,3.7,0,6.6,1.2,8.6,3.5s3.1,5.5,3.1,9.6c0,4.4-1.2,7.9-3.7,10.4s-5.9,3.8-10.3,3.8a15.16,15.16,0,0,1-8-2.1,13.31,13.31,0,0,1-5.2-6.2A22.53,22.53,0,0,1,117.5,428.5Zm14.9,11.1a5,5,0,0,0,4.3-1.9,8.17,8.17,0,0,0,1.5-5.3,7.31,7.31,0,0,0-1.4-4.7,5.14,5.14,0,0,0-4.2-1.7,6.44,6.44,0,0,0-4.5,1.7,5.44,5.44,0,0,0-1.9,4,9.23,9.23,0,0,0,1.8,5.7A5.06,5.06,0,0,0,132.4,439.6Z"/><path class="cls-15" d="M165.7,419.7c4,0,7.1,1.1,9.5,3.3s3.5,5.3,3.5,9.2c0,4.6-1.4,8.1-4.3,10.6s-6.9,3.7-12.2,3.7c-4.6,0-8.3-.7-11.1-2.2v-7.5a24.79,24.79,0,0,0,10.8,2.6c5.3,0,8-2.2,8-6.5,0-4.1-2.8-6.2-8.3-6.2a20.2,20.2,0,0,0-3.3.3,28.43,28.43,0,0,0-2.9.6l-3.5-1.9,1.5-21h22.3v7.4H161l-.8,8.1,1-.2C162.6,419.9,164,419.7,165.7,419.7Z"/><path class="cls-15" d="M214,446h-8.6V427.6a9.65,9.65,0,0,0-1.1-5.1,4.2,4.2,0,0,0-3.6-1.7,5.24,5.24,0,0,0-4.8,2.4c-1,1.6-1.5,4.3-1.5,8V446h-8.6V414.6h6.6l1.2,4h.5a8.74,8.74,0,0,1,3.7-3.4,12,12,0,0,1,5.5-1.2c4.7,0,7.9,1.5,9.6,4.6h.8a8.16,8.16,0,0,1,3.7-3.4A12.47,12.47,0,0,1,223,414q5.4,0,8.1,2.7c1.8,1.8,2.7,4.8,2.7,8.8V446H225V427.6a9.65,9.65,0,0,0-1.1-5.1,4.2,4.2,0,0,0-3.6-1.7,5.32,5.32,0,0,0-4.7,2.3c-1,1.5-1.6,3.9-1.6,7.1V446Z"/><path class="cls-17" d="M78.9,468.9h1.6L77.3,478H75.7l-3.2-9.1H74l1.9,5.7c.1.3.2.6.3,1a4.4,4.4,0,0,1,.2,1,6.15,6.15,0,0,1,.3-1.1,4.65,4.65,0,0,1,.3-.9Z"/><path class="cls-17" d="M85.9,478l-.3-1h0a4.06,4.06,0,0,1-1,.9,3.31,3.31,0,0,1-2.9-.3,2.11,2.11,0,0,1-.6-1.6,1.82,1.82,0,0,1,.8-1.6,4.65,4.65,0,0,1,2.4-.6h1.2v-.4a1.49,1.49,0,0,0-.3-1,1.33,1.33,0,0,0-1-.3,3,3,0,0,0-1,.2,3.55,3.55,0,0,0-.9.4l-.5-1a5.64,5.64,0,0,1,1.2-.4,5.85,5.85,0,0,1,1.3-.2,3,3,0,0,1,2,.6,2.48,2.48,0,0,1,.7,1.8v4.7H85.9Zm-2.2-1a1.84,1.84,0,0,0,1.3-.4,1.73,1.73,0,0,0,.5-1.3v-.6h-.9a2.81,2.81,0,0,0-1.5.3,1.05,1.05,0,0,0-.5.9.91.91,0,0,0,.3.7A1,1,0,0,0,83.7,477Z"/><path class="cls-17" d="M90.4,478H89v-9.7h1.5V478Z"/><path class="cls-17" d="M97.4,478l-.2-.9h-.1a2.36,2.36,0,0,1-.9.8,2.77,2.77,0,0,1-1.3.3,2.71,2.71,0,0,1-1.9-.6,2.55,2.55,0,0,1-.6-1.9v-4.5H94v4.3a2.13,2.13,0,0,0,.3,1.2,1.16,1.16,0,0,0,1,.4,1.68,1.68,0,0,0,1.4-.6,3.16,3.16,0,0,0,.4-1.9v-3.4h1.5v6.9H97.4Z"/><path class="cls-17" d="M103.7,478.1a3.33,3.33,0,0,1-2.5-.9,3.57,3.57,0,0,1-.9-2.6,4.55,4.55,0,0,1,.8-2.7,3.08,3.08,0,0,1,2.3-1,3.29,3.29,0,0,1,2.2.8,3.37,3.37,0,0,1,.8,2.3v.8h-4.6a2.07,2.07,0,0,0,.5,1.5,1.62,1.62,0,0,0,1.4.5,3.75,3.75,0,0,0,1.1-.1,7.6,7.6,0,0,0,1.1-.4v1.2a4.87,4.87,0,0,1-1.1.4C104.6,478.1,104.2,478.1,103.7,478.1Zm-.3-6a1.37,1.37,0,0,0-1.1.4,2.23,2.23,0,0,0-.5,1.3h3.1a1.7,1.7,0,0,0-.4-1.3A1.25,1.25,0,0,0,103.4,472.1Z"/><path class="cls-17" d="M117.5,474.5a3.57,3.57,0,0,1-.9,2.6,3.54,3.54,0,0,1-4.1.6,2.37,2.37,0,0,1-1.1-1.3,3.81,3.81,0,0,1-.4-1.9,3.57,3.57,0,0,1,.9-2.6,3.24,3.24,0,0,1,2.4-.9,3,3,0,0,1,2.4,1A3.74,3.74,0,0,1,117.5,474.5Zm-5,0q0,2.4,1.8,2.4t1.8-2.4q0-2.4-1.8-2.4a1.38,1.38,0,0,0-1.3.6A4.28,4.28,0,0,0,112.5,474.5Z"/><path class="cls-17" d="M122.7,472.2H121V478h-1.5v-5.8h-1.1v-.7l1.1-.5v-.5a2.12,2.12,0,0,1,2.4-2.4,4,4,0,0,1,1.5.3l-.4,1.1a4.4,4.4,0,0,0-1-.2.78.78,0,0,0-.7.3c-.2.2-.2.5-.2.9v.5h1.7v1.2Z"/><path class="cls-17" d="M133.3,478h-1.5v-4.3a2.13,2.13,0,0,0-.3-1.2,1.16,1.16,0,0,0-1-.4,1.68,1.68,0,0,0-1.4.6,3,3,0,0,0-.4,1.8v3.4h-1.5V471h1.2l.2.9h.1a2.36,2.36,0,0,1,.9-.8,2.77,2.77,0,0,1,1.3-.3,2.18,2.18,0,0,1,2.5,2.5V478Z"/><path class="cls-17" d="M138.4,478.1a3.33,3.33,0,0,1-2.5-.9,3.57,3.57,0,0,1-.9-2.6,4.55,4.55,0,0,1,.8-2.7,3.08,3.08,0,0,1,2.3-1,3.29,3.29,0,0,1,2.2.8,3.37,3.37,0,0,1,.8,2.3v.8h-4.6a2.07,2.07,0,0,0,.5,1.5,1.62,1.62,0,0,0,1.4.5,3.75,3.75,0,0,0,1.1-.1,7.6,7.6,0,0,0,1.1-.4v1.2a4.87,4.87,0,0,1-1.1.4A2,2,0,0,1,138.4,478.1Zm-.3-6a1.37,1.37,0,0,0-1.1.4,2.23,2.23,0,0,0-.5,1.3h3.1a1.7,1.7,0,0,0-.4-1.3A1.37,1.37,0,0,0,138.1,472.1Z"/><path class="cls-17" d="M148.4,478l-.9-3.2q-.15-.45-.6-2.4h-.1a13.61,13.61,0,0,1-.6,2.4l-.9,3.2h-1.6l-1.9-6.9h1.5l.9,3.4c.2.8.3,1.6.4,2.2h0a3.55,3.55,0,0,1,.2-1,5.07,5.07,0,0,0,.2-.9l1.1-3.6h1.6l1,3.6a6.37,6.37,0,0,1,.2.9c.1.4.1.7.2,1h.1c.1-.5.2-1.2.4-2.1l.9-3.4H152l-2,6.9h-1.6Z"/><path class="cls-17" d="M158.8,478.1a2.38,2.38,0,0,1-2-.9,5.18,5.18,0,0,1,0-5.2,2.52,2.52,0,0,1,2-.9,2.39,2.39,0,0,1,2.1,1h.1a5.74,5.74,0,0,1-.1-1.2v-2.5h1.5v9.7h-1.2l-.3-.9h-.1A2.15,2.15,0,0,1,158.8,478.1Zm.4-1.2a1.73,1.73,0,0,0,1.3-.5,2.5,2.5,0,0,0,.4-1.7v-.2a3.16,3.16,0,0,0-.4-1.9,1.49,1.49,0,0,0-1.3-.6,1.43,1.43,0,0,0-1.2.6,4.25,4.25,0,0,0,0,3.6A1.31,1.31,0,0,0,159.2,476.9Z"/><path class="cls-17" d="M170.6,474.5a3.57,3.57,0,0,1-.9,2.6,3.54,3.54,0,0,1-4.1.6,2.37,2.37,0,0,1-1.1-1.3,3.81,3.81,0,0,1-.4-1.9,3.57,3.57,0,0,1,.9-2.6,3.24,3.24,0,0,1,2.4-.9,3,3,0,0,1,2.4,1A3.74,3.74,0,0,1,170.6,474.5Zm-5,0q0,2.4,1.8,2.4t1.8-2.4q0-2.4-1.8-2.4a1.38,1.38,0,0,0-1.3.6A4.28,4.28,0,0,0,165.6,474.5Z"/><path class="cls-17" d="M175.1,478.1a3.24,3.24,0,0,1-2.4-.9,4,4,0,0,1-.8-2.6,3.67,3.67,0,0,1,.9-2.7,3.33,3.33,0,0,1,2.5-.9,4.48,4.48,0,0,1,2,.4l-.4,1.2a5.62,5.62,0,0,0-1.5-.4q-1.8,0-1.8,2.4a2.5,2.5,0,0,0,.4,1.7,1.78,1.78,0,0,0,1.3.6,4.14,4.14,0,0,0,1.9-.5v1.3a1.33,1.33,0,0,1-.8.3A6.15,6.15,0,0,1,175.1,478.1Z"/><path class="cls-17" d="M183.6,478l-.2-.9h-.1a2.36,2.36,0,0,1-.9.8,2.77,2.77,0,0,1-1.3.3,2.71,2.71,0,0,1-1.9-.6,2.55,2.55,0,0,1-.6-1.9v-4.5h1.5v4.3a2.13,2.13,0,0,0,.3,1.2,1.16,1.16,0,0,0,1,.4,1.68,1.68,0,0,0,1.4-.6,3.16,3.16,0,0,0,.4-1.9v-3.4h1.5v6.9h-1.1Z"/><path class="cls-17" d="M192.6,478h-1.5v-4.3a2.13,2.13,0,0,0-.3-1.2,1,1,0,0,0-.9-.4,1.21,1.21,0,0,0-1.2.6,3,3,0,0,0-.4,1.8v3.4h-1.5V471H188l.2.9h.1a3,3,0,0,1,.8-.8,2.66,2.66,0,0,1,1.2-.3,2.05,2.05,0,0,1,2.1,1.1h.1a2.36,2.36,0,0,1,.9-.8,2.77,2.77,0,0,1,1.3-.3,2.44,2.44,0,0,1,1.8.6,2.71,2.71,0,0,1,.6,1.9v4.5h-1.5v-4.3a2.13,2.13,0,0,0-.3-1.2,1,1,0,0,0-.9-.4,1.73,1.73,0,0,0-1.3.5,2.54,2.54,0,0,0-.4,1.6v4Z"/><path class="cls-17" d="M202.1,478.1a3.33,3.33,0,0,1-2.5-.9,3.57,3.57,0,0,1-.9-2.6,4.55,4.55,0,0,1,.8-2.7,3.08,3.08,0,0,1,2.3-1,3.29,3.29,0,0,1,2.2.8,3.37,3.37,0,0,1,.8,2.3v.8h-4.6a2.07,2.07,0,0,0,.5,1.5,1.62,1.62,0,0,0,1.4.5,3.75,3.75,0,0,0,1.1-.1,7.6,7.6,0,0,0,1.1-.4v1.2a4.87,4.87,0,0,1-1.1.4C203,478.1,202.6,478.1,202.1,478.1Zm-.3-6a1.37,1.37,0,0,0-1.1.4,2.23,2.23,0,0,0-.5,1.3h3.1a1.7,1.7,0,0,0-.4-1.3A1.37,1.37,0,0,0,201.8,472.1Z"/><path class="cls-17" d="M212.5,478H211v-4.3a2.13,2.13,0,0,0-.3-1.2,1.16,1.16,0,0,0-1-.4,1.68,1.68,0,0,0-1.4.6,3,3,0,0,0-.4,1.8v3.4h-1.5V471h1.2l.2.9h.1a2.36,2.36,0,0,1,.9-.8,2.77,2.77,0,0,1,1.3-.3,2.18,2.18,0,0,1,2.5,2.5V478Z"/><path class="cls-17" d="M217.2,476.9a4.25,4.25,0,0,0,1.1-.2v1.1c-.2.1-.4.1-.6.2s-.5.1-.8.1c-1.4,0-2.1-.7-2.1-2.2v-3.7h-.9v-.7l1-.5.5-1.5h.9V471h2v1.1h-2v3.7a1,1,0,0,0,.3.8A.71.71,0,0,0,217.2,476.9Z"/><path class="cls-17" d="M224.3,476a1.86,1.86,0,0,1-.7,1.6,3.28,3.28,0,0,1-2.1.5,4.56,4.56,0,0,1-2.2-.4v-1.3a5.25,5.25,0,0,0,2.3.6c.9,0,1.4-.3,1.4-.8a.52.52,0,0,0-.2-.4c-.1-.1-.3-.2-.5-.4a1.88,1.88,0,0,0-1-.4,4.49,4.49,0,0,1-1.6-.9,1.59,1.59,0,0,1-.4-1.2,1.51,1.51,0,0,1,.7-1.4,3.56,3.56,0,0,1,1.9-.5,5.93,5.93,0,0,1,2.3.5l-.5,1.1a5.37,5.37,0,0,0-1.9-.5c-.8,0-1.2.2-1.2.7a.55.55,0,0,0,.3.5,3.12,3.12,0,0,0,1.3.6,3.26,3.26,0,0,1,1.2.6,1.7,1.7,0,0,1,.6.6A2.39,2.39,0,0,1,224.3,476Z"/><path class="cls-15" d="M356.8,446H328v-6l10.3-10.4a74.86,74.86,0,0,0,6-6.5,13.65,13.65,0,0,0,2-3.4,8.66,8.66,0,0,0,.6-3.2,4.82,4.82,0,0,0-1.4-3.7,5.22,5.22,0,0,0-3.6-1.2,10.72,10.72,0,0,0-4.6,1.1,23.71,23.71,0,0,0-4.7,3.1l-4.7-5.6a41.32,41.32,0,0,1,5-3.7,12.87,12.87,0,0,1,4.4-1.6,21.46,21.46,0,0,1,5.3-.6,16.18,16.18,0,0,1,6.8,1.4,11.06,11.06,0,0,1,4.6,3.9,10.11,10.11,0,0,1,1.6,5.8,13.17,13.17,0,0,1-1,5.3,19.92,19.92,0,0,1-3.1,5.1,96.33,96.33,0,0,1-7.4,7.5l-5.3,5v.4h17.9V446Z"/><path class="cls-15" d="M375.1,404.3a15.51,15.51,0,0,1,9.5,2.7,8.55,8.55,0,0,1,3.6,7.2,9.75,9.75,0,0,1-1.7,5.6,14.6,14.6,0,0,1-5.6,4.4,19.68,19.68,0,0,1,6.6,5.2,10,10,0,0,1,2,5.9,9.52,9.52,0,0,1-4,8.1c-2.6,2.1-6.1,3.1-10.4,3.1-4.5,0-8-1-10.6-2.9a9.44,9.44,0,0,1-3.9-8.1,10.35,10.35,0,0,1,1.9-6.2,15.86,15.86,0,0,1,6-4.8,17,17,0,0,1-5.1-4.8,10.58,10.58,0,0,1-1.5-5.5,8.35,8.35,0,0,1,3.7-7.1A15.75,15.75,0,0,1,375.1,404.3Zm-6.4,30.8a4.72,4.72,0,0,0,1.7,3.8,7.19,7.19,0,0,0,4.6,1.3,7.05,7.05,0,0,0,4.8-1.4,4.57,4.57,0,0,0,1.6-3.7,4.75,4.75,0,0,0-1.6-3.5,20.12,20.12,0,0,0-5.2-3.5C370.7,429.9,368.7,432.2,368.7,435.1Zm6.4-24.4a5.72,5.72,0,0,0-3.6,1.1,4,4,0,0,0-1.4,3.1,4.82,4.82,0,0,0,1.1,3,10.85,10.85,0,0,0,3.9,2.7A13.08,13.08,0,0,0,379,418a4.89,4.89,0,0,0,1.1-3.1,4,4,0,0,0-1.4-3.1A5.34,5.34,0,0,0,375.1,410.7Z"/><path class="cls-15" d="M422.4,425.4c0,7.2-1.2,12.5-3.5,15.9s-6,5.2-10.9,5.2-8.3-1.8-10.7-5.3-3.6-8.8-3.6-15.8c0-7.3,1.2-12.6,3.5-16s6-5.2,10.8-5.2,8.3,1.8,10.8,5.4S422.4,418.5,422.4,425.4Zm-20.1,0c0,5,.4,8.7,1.3,10.8s2.3,3.3,4.4,3.3,3.5-1.1,4.4-3.3,1.4-5.8,1.4-10.8-.5-8.7-1.4-10.9-2.4-3.3-4.4-3.3-3.5,1.1-4.4,3.3S402.3,420.4,402.3,425.4Z"/><path class="cls-17" d="M323.2,473.3a4.46,4.46,0,0,1-1.3,3.5,4.89,4.89,0,0,1-3.6,1.2h-2.6v-9.1h2.8a4.55,4.55,0,0,1,3.4,1.2A3.82,3.82,0,0,1,323.2,473.3Zm-1.6.1c0-2.2-1-3.3-3.1-3.3h-1.3v6.6h1.1Q321.6,476.7,321.6,473.4Z"/><path class="cls-17" d="M331.1,474.5a3.57,3.57,0,0,1-.9,2.6,3.54,3.54,0,0,1-4.1.6,2.37,2.37,0,0,1-1.1-1.3,3.81,3.81,0,0,1-.4-1.9,3.57,3.57,0,0,1,.9-2.6,3.24,3.24,0,0,1,2.4-.9,3,3,0,0,1,2.4,1A3.74,3.74,0,0,1,331.1,474.5Zm-5,0q0,2.4,1.8,2.4t1.8-2.4q0-2.4-1.8-2.4a1.38,1.38,0,0,0-1.3.6A2.73,2.73,0,0,0,326.1,474.5Z"/><path class="cls-17" d="M335.6,478.1a3.24,3.24,0,0,1-2.4-.9,4,4,0,0,1-.8-2.6,3.67,3.67,0,0,1,.9-2.7,3.33,3.33,0,0,1,2.5-.9,4.48,4.48,0,0,1,2,.4l-.4,1.2a5.62,5.62,0,0,0-1.5-.4q-1.8,0-1.8,2.4a2.5,2.5,0,0,0,.4,1.7,1.49,1.49,0,0,0,1.3.6,4.14,4.14,0,0,0,1.9-.5v1.3a1.33,1.33,0,0,1-.8.3A6.15,6.15,0,0,1,335.6,478.1Z"/><path class="cls-17" d="M344,478l-.2-.9h-.1a2.36,2.36,0,0,1-.9.8,2.77,2.77,0,0,1-1.3.3,2.71,2.71,0,0,1-1.9-.6,2.55,2.55,0,0,1-.6-1.9v-4.5h1.5v4.3a2.13,2.13,0,0,0,.3,1.2,1.16,1.16,0,0,0,1,.4,1.68,1.68,0,0,0,1.4-.6,3.16,3.16,0,0,0,.4-1.9v-3.4h1.5v6.9H344Z"/><path class="cls-17" d="M353.1,478h-1.5v-4.3a2.13,2.13,0,0,0-.3-1.2,1,1,0,0,0-.9-.4,1.21,1.21,0,0,0-1.2.6,3,3,0,0,0-.4,1.8v3.4h-1.5V471h1.2l.2.9h.1a3,3,0,0,1,.8-.8,2.66,2.66,0,0,1,1.2-.3,2.05,2.05,0,0,1,2.1,1.1h.1a2.36,2.36,0,0,1,.9-.8,2.77,2.77,0,0,1,1.3-.3,2.44,2.44,0,0,1,1.8.6,2.71,2.71,0,0,1,.6,1.9v4.5H356v-4.3a2.13,2.13,0,0,0-.3-1.2,1,1,0,0,0-.9-.4,1.73,1.73,0,0,0-1.3.5,2.54,2.54,0,0,0-.4,1.6v4Z"/><path class="cls-17" d="M362.6,478.1a3.33,3.33,0,0,1-2.5-.9,3.57,3.57,0,0,1-.9-2.6,4.55,4.55,0,0,1,.8-2.7,3.08,3.08,0,0,1,2.3-1,3.29,3.29,0,0,1,2.2.8,3.37,3.37,0,0,1,.8,2.3v.8h-4.6a2.07,2.07,0,0,0,.5,1.5,2,2,0,0,0,1.4.5,3.75,3.75,0,0,0,1.1-.1,7.6,7.6,0,0,0,1.1-.4v1.2a4.87,4.87,0,0,1-1.1.4C363.5,478.1,363,478.1,362.6,478.1Zm-.3-6a1.37,1.37,0,0,0-1.1.4,1.73,1.73,0,0,0-.5,1.3h3.1a1.7,1.7,0,0,0-.4-1.3A1.37,1.37,0,0,0,362.3,472.1Z"/><path class="cls-17" d="M373,478h-1.5v-4.3a2.13,2.13,0,0,0-.3-1.2,1.16,1.16,0,0,0-1-.4,1.68,1.68,0,0,0-1.4.6,3,3,0,0,0-.4,1.8v3.4h-1.5V471h1.2l.2.9h.1a2.36,2.36,0,0,1,.9-.8,2.77,2.77,0,0,1,1.3-.3,2.18,2.18,0,0,1,2.5,2.5V478Z"/><path class="cls-17" d="M377.6,476.9a4.25,4.25,0,0,0,1.1-.2v1.1c-.2.1-.4.1-.6.2a2,2,0,0,1-.8.1c-1.4,0-2.1-.7-2.1-2.2v-3.7h-.9v-.7l1-.5.5-1.5h.9V471h2v1.1h-2v3.7a1,1,0,0,0,.3.8C377.1,476.9,377.4,476.9,377.6,476.9Z"/><path class="cls-17" d="M384.8,476a1.86,1.86,0,0,1-.7,1.6,3.28,3.28,0,0,1-2.1.5,4.56,4.56,0,0,1-2.2-.4v-1.3a5.25,5.25,0,0,0,2.3.6c.9,0,1.4-.3,1.4-.8,0-.2,0-.3-.1-.4s-.3-.2-.5-.4a1.88,1.88,0,0,0-1-.4,4.49,4.49,0,0,1-1.6-.9,1.59,1.59,0,0,1-.4-1.2,1.51,1.51,0,0,1,.7-1.4,3.56,3.56,0,0,1,1.9-.5,5.93,5.93,0,0,1,2.3.5l-.5,1.1a5.37,5.37,0,0,0-1.9-.5c-.8,0-1.2.2-1.2.7a.55.55,0,0,0,.3.5,3.12,3.12,0,0,0,1.3.6,3.26,3.26,0,0,1,1.2.6,1.7,1.7,0,0,1,.6.6A2.92,2.92,0,0,1,384.8,476Z"/><path class="cls-17" d="M392.5,478.1a3.24,3.24,0,0,1-2.4-.9,4,4,0,0,1-.8-2.6,3.67,3.67,0,0,1,.9-2.7,3.33,3.33,0,0,1,2.5-.9,4.48,4.48,0,0,1,2,.4l-.4,1.2a5.62,5.62,0,0,0-1.5-.4q-1.8,0-1.8,2.4a2.5,2.5,0,0,0,.4,1.7,1.49,1.49,0,0,0,1.3.6,4.14,4.14,0,0,0,1.9-.5v1.3a1.33,1.33,0,0,1-.8.3A6.15,6.15,0,0,1,392.5,478.1Z"/><path class="cls-17" d="M399.5,471a1.48,1.48,0,0,1,.7.1l-.1,1.4c-.2,0-.4-.1-.7-.1a1.68,1.68,0,0,0-1.4.6,2,2,0,0,0-.5,1.5v3.6H396v-6.9h1.2l.2,1.2h.1a2.84,2.84,0,0,1,.9-1A1.5,1.5,0,0,1,399.5,471Z"/><path class="cls-17" d="M404.6,478.1a3.33,3.33,0,0,1-2.5-.9,3.57,3.57,0,0,1-.9-2.6,4.55,4.55,0,0,1,.8-2.7,3.08,3.08,0,0,1,2.3-1,3.29,3.29,0,0,1,2.2.8,3.37,3.37,0,0,1,.8,2.3v.8h-4.6a2.07,2.07,0,0,0,.5,1.5,2,2,0,0,0,1.4.5,3.75,3.75,0,0,0,1.1-.1,7.6,7.6,0,0,0,1.1-.4v1.2a4.87,4.87,0,0,1-1.1.4C405.5,478.1,405,478.1,404.6,478.1Zm-.3-6a1.37,1.37,0,0,0-1.1.4,1.73,1.73,0,0,0-.5,1.3h3.1a1.7,1.7,0,0,0-.4-1.3A1.37,1.37,0,0,0,404.3,472.1Z"/><path class="cls-17" d="M413.3,478l-.3-1h-.1a4.06,4.06,0,0,1-1,.9,3.31,3.31,0,0,1-2.9-.3,2.11,2.11,0,0,1-.6-1.6,1.82,1.82,0,0,1,.8-1.6,3.84,3.84,0,0,1,2.4-.6h1.2v-.4a1.49,1.49,0,0,0-.3-1,1.33,1.33,0,0,0-1-.3,3,3,0,0,0-1,.2,3.55,3.55,0,0,0-.9.4l-.5-1a5.64,5.64,0,0,1,1.2-.4,5.85,5.85,0,0,1,1.3-.2,3,3,0,0,1,2,.6,2.48,2.48,0,0,1,.7,1.8v4.7h-1Zm-2.2-1a1.84,1.84,0,0,0,1.3-.4,1.73,1.73,0,0,0,.5-1.3v-.6H412a2.81,2.81,0,0,0-1.5.3,1.05,1.05,0,0,0-.5.9.91.91,0,0,0,.3.7A1,1,0,0,0,411.1,477Z"/><path class="cls-17" d="M418.9,476.9a4.25,4.25,0,0,0,1.1-.2v1.1c-.2.1-.4.1-.6.2a2,2,0,0,1-.8.1c-1.4,0-2.1-.7-2.1-2.2v-3.7h-.9v-.7l1-.5.5-1.5h.9V471h2v1.1h-2v3.7a1,1,0,0,0,.3.8C418.4,476.9,418.7,476.9,418.9,476.9Z"/><path class="cls-17" d="M424.4,478.1a3.33,3.33,0,0,1-2.5-.9,3.57,3.57,0,0,1-.9-2.6,4.55,4.55,0,0,1,.8-2.7,3.08,3.08,0,0,1,2.3-1,3.29,3.29,0,0,1,2.2.8,3.37,3.37,0,0,1,.8,2.3v.8h-4.6a2.07,2.07,0,0,0,.5,1.5,2,2,0,0,0,1.4.5,3.75,3.75,0,0,0,1.1-.1,7.6,7.6,0,0,0,1.1-.4v1.2a4.87,4.87,0,0,1-1.1.4C425.3,478.1,424.9,478.1,424.4,478.1Zm-.2-6a1.37,1.37,0,0,0-1.1.4,1.73,1.73,0,0,0-.5,1.3h3.1a1.7,1.7,0,0,0-.4-1.3A1.5,1.5,0,0,0,424.2,472.1Z"/><path class="cls-17" d="M431.1,478.1a2.38,2.38,0,0,1-2-.9,5.18,5.18,0,0,1,0-5.2,2.52,2.52,0,0,1,2-.9,2.39,2.39,0,0,1,2.1,1h.1a5.74,5.74,0,0,1-.1-1.2v-2.5h1.5v9.7h-1.2l-.3-.9h-.1A2.26,2.26,0,0,1,431.1,478.1Zm.4-1.2a1.73,1.73,0,0,0,1.3-.5,2.5,2.5,0,0,0,.4-1.7v-.2a3.16,3.16,0,0,0-.4-1.9,1.49,1.49,0,0,0-1.3-.6,1.43,1.43,0,0,0-1.2.6,4.25,4.25,0,0,0,0,3.6A1.31,1.31,0,0,0,431.5,476.9Z"/><path class="cls-15" d="M560.9,404.3a15.51,15.51,0,0,1,9.5,2.7,8.55,8.55,0,0,1,3.6,7.2,9.75,9.75,0,0,1-1.7,5.6,14.61,14.61,0,0,1-5.6,4.4,19.68,19.68,0,0,1,6.6,5.2,10,10,0,0,1,2,5.9,9.52,9.52,0,0,1-4,8.1c-2.6,2.1-6.1,3.1-10.4,3.1-4.5,0-8-1-10.6-2.9a9.44,9.44,0,0,1-3.9-8.1,10.35,10.35,0,0,1,1.9-6.2,15.86,15.86,0,0,1,6-4.8,17,17,0,0,1-5.1-4.8,10.58,10.58,0,0,1-1.5-5.5,8.35,8.35,0,0,1,3.7-7.1A15.75,15.75,0,0,1,560.9,404.3Zm-6.4,30.8a4.72,4.72,0,0,0,1.7,3.8,7.19,7.19,0,0,0,4.6,1.3,7.05,7.05,0,0,0,4.8-1.4,4.57,4.57,0,0,0,1.6-3.7,4.75,4.75,0,0,0-1.6-3.5,20.12,20.12,0,0,0-5.2-3.5C556.5,429.9,554.5,432.2,554.5,435.1Zm6.3-24.4a5.72,5.72,0,0,0-3.6,1.1,4,4,0,0,0-1.4,3.1,4.82,4.82,0,0,0,1.1,3,10.85,10.85,0,0,0,3.9,2.7,13.08,13.08,0,0,0,3.9-2.6,4.89,4.89,0,0,0,1.1-3.1,4,4,0,0,0-1.4-3.1A5.18,5.18,0,0,0,560.8,410.7Z"/><path class="cls-15" d="M601.1,446h-8.7V422.2l.1-3.9.1-4.3c-1.4,1.4-2.5,2.4-3,2.8l-4.7,3.8-4.2-5.2L594,404.9h7.2V446Z"/><path class="cls-15" d="M641.3,446H612.5v-6l10.3-10.4a74.87,74.87,0,0,0,6-6.5,13.65,13.65,0,0,0,2-3.4,8.66,8.66,0,0,0,.6-3.2,4.82,4.82,0,0,0-1.4-3.7,5.22,5.22,0,0,0-3.6-1.2,10.72,10.72,0,0,0-4.6,1.1,23.72,23.72,0,0,0-4.7,3.1l-4.7-5.6a41.32,41.32,0,0,1,5-3.7,12.87,12.87,0,0,1,4.4-1.6,21.46,21.46,0,0,1,5.3-.6,16.18,16.18,0,0,1,6.8,1.4,11.06,11.06,0,0,1,4.6,3.9,10.11,10.11,0,0,1,1.6,5.8,13.17,13.17,0,0,1-1,5.3,19.92,19.92,0,0,1-3.1,5.1,96.34,96.34,0,0,1-7.4,7.5l-5.3,5v.4h17.9V446Z"/><path class="cls-17" d="M545,473.3a4.46,4.46,0,0,1-1.3,3.5,4.89,4.89,0,0,1-3.6,1.2h-2.6v-9.1h2.8a4.55,4.55,0,0,1,3.4,1.2A3.82,3.82,0,0,1,545,473.3Zm-1.6.1c0-2.2-1-3.3-3.1-3.3H539v6.6h1.1Q543.4,476.7,543.4,473.4Z"/><path class="cls-17" d="M553,474.5a3.57,3.57,0,0,1-.9,2.6,3.54,3.54,0,0,1-4.1.6,2.36,2.36,0,0,1-1.1-1.3,3.81,3.81,0,0,1-.4-1.9,3.57,3.57,0,0,1,.9-2.6,3.24,3.24,0,0,1,2.4-.9,3,3,0,0,1,2.4,1A3.74,3.74,0,0,1,553,474.5Zm-5.1,0q0,2.4,1.8,2.4t1.8-2.4q0-2.4-1.8-2.4a1.38,1.38,0,0,0-1.3.6A3.45,3.45,0,0,0,547.9,474.5Z"/><path class="cls-17" d="M557.4,478.1a3.24,3.24,0,0,1-2.4-.9,4,4,0,0,1-.8-2.6,3.67,3.67,0,0,1,.9-2.7,3.33,3.33,0,0,1,2.5-.9,4.48,4.48,0,0,1,2,.4l-.4,1.2a5.62,5.62,0,0,0-1.5-.4q-1.8,0-1.8,2.4a2.5,2.5,0,0,0,.4,1.7,1.49,1.49,0,0,0,1.3.6,4.14,4.14,0,0,0,1.9-.5v1.3a1.33,1.33,0,0,1-.8.3A5.7,5.7,0,0,1,557.4,478.1Z"/><path class="cls-17" d="M565.9,478l-.2-.9h-.1a2.36,2.36,0,0,1-.9.8,2.77,2.77,0,0,1-1.3.3,2.71,2.71,0,0,1-1.9-.6,2.55,2.55,0,0,1-.6-1.9v-4.5h1.5v4.3a2.13,2.13,0,0,0,.3,1.2,1.16,1.16,0,0,0,1,.4,1.68,1.68,0,0,0,1.4-.6,3.16,3.16,0,0,0,.4-1.9v-3.4H567v6.9h-1.1Z"/><path class="cls-17" d="M575,478h-1.5v-4.3a2.13,2.13,0,0,0-.3-1.2,1,1,0,0,0-.9-.4,1.21,1.21,0,0,0-1.2.6,3,3,0,0,0-.4,1.8v3.4h-1.5V471h1.2l.2.9h.1a3,3,0,0,1,.8-.8,2.66,2.66,0,0,1,1.2-.3,2.05,2.05,0,0,1,2.1,1.1h.1a2.36,2.36,0,0,1,.9-.8,2.77,2.77,0,0,1,1.3-.3,2.44,2.44,0,0,1,1.8.6,2.71,2.71,0,0,1,.6,1.9v4.5H578v-4.3a2.13,2.13,0,0,0-.3-1.2,1,1,0,0,0-.9-.4,1.73,1.73,0,0,0-1.3.5,2.54,2.54,0,0,0-.4,1.6v4Z"/><path class="cls-17" d="M584.4,478.1a3.33,3.33,0,0,1-2.5-.9,3.57,3.57,0,0,1-.9-2.6,4.55,4.55,0,0,1,.8-2.7,3.08,3.08,0,0,1,2.3-1,3.29,3.29,0,0,1,2.2.8,3.37,3.37,0,0,1,.8,2.3v.8h-4.6a2.07,2.07,0,0,0,.5,1.5,2,2,0,0,0,1.4.5,3.75,3.75,0,0,0,1.1-.1,7.6,7.6,0,0,0,1.1-.4v1.2a4.88,4.88,0,0,1-1.1.4C585.3,478.1,584.9,478.1,584.4,478.1Zm-.3-6a1.37,1.37,0,0,0-1.1.4,1.73,1.73,0,0,0-.5,1.3h3.1a1.7,1.7,0,0,0-.4-1.3A1.25,1.25,0,0,0,584.1,472.1Z"/><path class="cls-17" d="M594.9,478h-1.5v-4.3a2.13,2.13,0,0,0-.3-1.2,1.16,1.16,0,0,0-1-.4,1.68,1.68,0,0,0-1.4.6,3,3,0,0,0-.4,1.8v3.4h-1.5V471H590l.2.9h.1a2.36,2.36,0,0,1,.9-.8,2.77,2.77,0,0,1,1.3-.3,2.18,2.18,0,0,1,2.5,2.5V478Z"/><path class="cls-17" d="M599.5,476.9a4.25,4.25,0,0,0,1.1-.2v1.1c-.2.1-.4.1-.6.2a2,2,0,0,1-.8.1c-1.4,0-2.1-.7-2.1-2.2v-3.7h-.9v-.7l1-.5.5-1.5h.9V471h2v1.1h-2v3.7a1,1,0,0,0,.3.8C599,476.9,599.2,476.9,599.5,476.9Z"/><path class="cls-17" d="M610.6,468.9h1.6L609,478h-1.6l-3.2-9.1h1.5l1.9,5.7c.1.3.2.6.3,1a4.4,4.4,0,0,1,.2,1,6.15,6.15,0,0,1,.3-1.1,4.65,4.65,0,0,1,.3-.9Z"/><path class="cls-17" d="M613.1,469.3a.8.8,0,1,1,1.6,0,1.07,1.07,0,0,1-.2.6,1,1,0,0,1-1.2,0A1.07,1.07,0,0,1,613.1,469.3Zm1.6,8.7h-1.5v-6.9h1.5Z"/><path class="cls-17" d="M619.8,478.1a3.33,3.33,0,0,1-2.5-.9,3.57,3.57,0,0,1-.9-2.6,4.55,4.55,0,0,1,.8-2.7,3.08,3.08,0,0,1,2.3-1,3.29,3.29,0,0,1,2.2.8,3.37,3.37,0,0,1,.8,2.3v.8h-4.6a2.07,2.07,0,0,0,.5,1.5,2,2,0,0,0,1.4.5,3.75,3.75,0,0,0,1.1-.1,7.6,7.6,0,0,0,1.1-.4v1.2a4.88,4.88,0,0,1-1.1.4C620.7,478.1,620.3,478.1,619.8,478.1Zm-.2-6a1.37,1.37,0,0,0-1.1.4,1.73,1.73,0,0,0-.5,1.3h3.1a1.7,1.7,0,0,0-.4-1.3A1.5,1.5,0,0,0,619.6,472.1Z"/><path class="cls-17" d="M629.9,478l-.9-3.2q-.15-.45-.6-2.4h-.1a13.62,13.62,0,0,1-.6,2.4l-.9,3.2h-1.6l-1.9-6.9h1.5l.9,3.4c.2.8.3,1.6.4,2.2h0a3.55,3.55,0,0,1,.2-1,5.08,5.08,0,0,0,.2-.9l1.1-3.6h1.6l1,3.6a6.38,6.38,0,0,1,.2.9c.1.4.1.7.2,1h0c.1-.5.2-1.2.4-2.1l.9-3.4h1.5l-2,6.9h-1.5Z"/><path class="cls-17" d="M639.3,476a1.86,1.86,0,0,1-.7,1.6,3.28,3.28,0,0,1-2.1.5,4.56,4.56,0,0,1-2.2-.4v-1.3a5.25,5.25,0,0,0,2.3.6c.9,0,1.4-.3,1.4-.8,0-.2,0-.3-.1-.4s-.3-.2-.5-.4a1.88,1.88,0,0,0-1-.4,4.49,4.49,0,0,1-1.6-.9,1.59,1.59,0,0,1-.4-1.2,1.51,1.51,0,0,1,.7-1.4,3.56,3.56,0,0,1,1.9-.5,5.93,5.93,0,0,1,2.3.5l-.5,1.1a5.37,5.37,0,0,0-1.9-.5c-.8,0-1.2.2-1.2.7a.55.55,0,0,0,.3.5,3.12,3.12,0,0,0,1.3.6,3.26,3.26,0,0,1,1.2.6,1.7,1.7,0,0,1,.6.6A1.49,1.49,0,0,1,639.3,476Z"/><path id="Rounded_Rectangle_1" data-name="Rounded Rectangle 1" class="cls-18" d="M622,88H729a2,2,0,0,1,2,2v33a2,2,0,0,1-2,2H622a2,2,0,0,1-2-2V90A2,2,0,0,1,622,88Z"/><rect class="cls-19" x="635" y="101" width="80" height="12"/><path id="Rounded_Rectangle_1_copy" data-name="Rounded Rectangle 1 copy" class="cls-20" d="M415,88H600a2,2,0,0,1,2,2v33a2,2,0,0,1-2,2H415a2,2,0,0,1-2-2V90A2,2,0,0,1,415,88Z"/><rect id="Rectangle_6_copy" data-name="Rectangle 6 copy" class="cls-21" x="429" y="101" width="80" height="12"/><rect id="Rectangle_6_copy_2" data-name="Rectangle 6 copy 2" class="cls-21" x="548" y="101" width="38" height="12"/><path class="cls-17" d="M46.5,103.1c0,3.5-1,6.2-2.9,8.1S39,114,35.4,114H29.5V92.6H36c3.3,0,5.9.9,7.8,2.8S46.5,99.8,46.5,103.1Zm-2.6.1q0-4.2-2.1-6.3c-1.4-1.4-3.5-2.1-6.2-2.1H32v17.1h3c3,0,5.2-.7,6.7-2.2S43.9,106,43.9,103.2Z"/><path class="cls-17" d="M64.8,106a8.78,8.78,0,0,1-2,6.1,6.81,6.81,0,0,1-5.5,2.2,7,7,0,0,1-3.8-1,6.69,6.69,0,0,1-2.6-2.9A10.17,10.17,0,0,1,50,106a8.78,8.78,0,0,1,2-6.1,6.73,6.73,0,0,1,5.4-2.2,7,7,0,0,1,5.4,2.2A8.49,8.49,0,0,1,64.8,106Zm-12.2,0a7.76,7.76,0,0,0,1.2,4.7,4.13,4.13,0,0,0,3.6,1.6,4.13,4.13,0,0,0,3.6-1.6,7.76,7.76,0,0,0,1.2-4.7,8,8,0,0,0-1.2-4.7,4.2,4.2,0,0,0-3.7-1.6,4.13,4.13,0,0,0-3.6,1.6A7.79,7.79,0,0,0,52.6,106Z"/><path class="cls-17" d="M75.5,114.3a7,7,0,0,1-5.4-2.1c-1.3-1.4-1.9-3.5-1.9-6.1s.6-4.8,1.9-6.2a7.14,7.14,0,0,1,5.5-2.2,17.85,17.85,0,0,1,2.3.2,5.36,5.36,0,0,1,1.8.6l-.7,2.1a7.76,7.76,0,0,0-1.8-.5,11.14,11.14,0,0,0-1.7-.2c-3.3,0-4.9,2.1-4.9,6.2a7.11,7.11,0,0,0,1.2,4.5,4.33,4.33,0,0,0,3.5,1.6,10.49,10.49,0,0,0,4.1-.9v2.2A8.4,8.4,0,0,1,75.5,114.3Z"/><path class="cls-17" d="M85.6,97.9v10.4a4,4,0,0,0,.9,2.9,3.79,3.79,0,0,0,2.8,1,4.67,4.67,0,0,0,3.7-1.4q1.2-1.35,1.2-4.5V97.9h2.4V114h-2l-.4-2.2h-.1a4.63,4.63,0,0,1-2.1,1.8,7.31,7.31,0,0,1-3,.6,6.27,6.27,0,0,1-4.4-1.4q-1.5-1.35-1.5-4.5V97.9Z"/><path class="cls-17" d="M122.2,114V103.6a4.77,4.77,0,0,0-.8-2.9,2.92,2.92,0,0,0-2.5-1,4.24,4.24,0,0,0-3.4,1.3,5.79,5.79,0,0,0-1.1,4v9H112V103.6a4.77,4.77,0,0,0-.8-2.9,3,3,0,0,0-2.6-1,4,4,0,0,0-3.3,1.4,7.41,7.41,0,0,0-1.1,4.5V114h-2.4V97.9h2l.4,2.2h.1a4.69,4.69,0,0,1,1.9-1.8,6.44,6.44,0,0,1,2.8-.7c2.5,0,4.2.9,4.9,2.7h.1a5.77,5.77,0,0,1,2.1-2,6.17,6.17,0,0,1,3.1-.7,5.64,5.64,0,0,1,4.1,1.4,6.21,6.21,0,0,1,1.4,4.5V114Z"/><path class="cls-17" d="M136.5,114.3a7.17,7.17,0,0,1-5.6-2.2,8.44,8.44,0,0,1-2.1-6,9.38,9.38,0,0,1,1.9-6.2,6.17,6.17,0,0,1,5.1-2.3,6.25,6.25,0,0,1,4.8,2,7.48,7.48,0,0,1,1.8,5.2v1.5H131.3a6.17,6.17,0,0,0,1.4,4.3,4.9,4.9,0,0,0,3.8,1.5,13.38,13.38,0,0,0,5.1-1.1v2.2a16.79,16.79,0,0,1-2.4.8A10.59,10.59,0,0,1,136.5,114.3Zm-.7-14.6a3.87,3.87,0,0,0-3.1,1.3,6.19,6.19,0,0,0-1.4,3.5h8.4a5.22,5.22,0,0,0-1-3.5A3.63,3.63,0,0,0,135.8,99.7Z"/><path class="cls-17" d="M157.5,114V103.6a4,4,0,0,0-.9-2.9,3.79,3.79,0,0,0-2.8-1,4.67,4.67,0,0,0-3.7,1.4q-1.2,1.35-1.2,4.5V114h-2.4V97.9h2l.4,2.2h.1a4.63,4.63,0,0,1,2.1-1.8,7.35,7.35,0,0,1,3-.7,6.45,6.45,0,0,1,4.4,1.4q1.5,1.35,1.5,4.5V114Z"/><path class="cls-17" d="M170.1,112.3a4.87,4.87,0,0,0,1.2-.1c.4-.1.7-.1,1-.2v1.9a10.38,10.38,0,0,1-1.2.3,7.08,7.08,0,0,1-1.4.1c-3.1,0-4.7-1.6-4.7-4.9V99.8h-2.3V98.6l2.3-1,1-3.4h1.4v3.7h4.7v1.9h-4.7v9.4a2.92,2.92,0,0,0,.7,2.2A2.88,2.88,0,0,0,170.1,112.3Z"/><path class="cls-17" d="M197.1,114l-2.7-6.8h-8.6l-2.6,6.8h-2.5l8.5-21.5h2.1l8.4,21.5Zm-3.4-9.1-2.5-6.6a28.6,28.6,0,0,1-1-3.1,25.42,25.42,0,0,1-.9,3.1l-2.5,6.6Z"/><path class="cls-17" d="M208.7,114.3a7,7,0,0,1-5.4-2.1c-1.3-1.4-1.9-3.5-1.9-6.1s.6-4.8,1.9-6.2a7.14,7.14,0,0,1,5.5-2.2,17.85,17.85,0,0,1,2.3.2,5.36,5.36,0,0,1,1.8.6l-.7,2.1a7.76,7.76,0,0,0-1.8-.5,11.14,11.14,0,0,0-1.7-.2c-3.3,0-4.9,2.1-4.9,6.2a7.11,7.11,0,0,0,1.2,4.5,4.33,4.33,0,0,0,3.5,1.6,10.49,10.49,0,0,0,4.1-.9v2.2A8.4,8.4,0,0,1,208.7,114.3Z"/><path class="cls-17" d="M221.7,112.3a4.87,4.87,0,0,0,1.2-.1c.4-.1.7-.1,1-.2v1.9a10.38,10.38,0,0,1-1.2.3,7.08,7.08,0,0,1-1.4.1c-3.1,0-4.7-1.6-4.7-4.9V99.8h-2.3V98.6l2.3-1,1-3.4H219v3.7h4.7v1.9H219v9.4a2.92,2.92,0,0,0,.7,2.2A2.88,2.88,0,0,0,221.7,112.3Z"/><path class="cls-17" d="M226.9,93.6c0-.6.1-1,.4-1.2a1.45,1.45,0,0,1,2,0,1.59,1.59,0,0,1,.4,1.2,1.46,1.46,0,0,1-.4,1.2,1.78,1.78,0,0,1-1,.4,1.16,1.16,0,0,1-1-.4A2.14,2.14,0,0,1,226.9,93.6Zm2.7,20.4h-2.4V97.9h2.4Z"/><path class="cls-17" d="M238.3,114l-6.1-16.1h2.6l3.5,9.5c.8,2.2,1.2,3.7,1.4,4.3h.1a23.35,23.35,0,0,1,1-3.2c.6-1.6,1.9-5.2,3.8-10.6h2.6L241.1,114Z"/><path class="cls-17" d="M249.6,93.6c0-.6.1-1,.4-1.2a1.45,1.45,0,0,1,2,0,1.59,1.59,0,0,1,.4,1.2,1.46,1.46,0,0,1-.4,1.2,1.78,1.78,0,0,1-1,.4,1.16,1.16,0,0,1-1-.4A2.14,2.14,0,0,1,249.6,93.6Zm2.6,20.4h-2.4V97.9h2.4Z"/><path class="cls-17" d="M262.5,112.3a4.87,4.87,0,0,0,1.2-.1c.4-.1.7-.1,1-.2v1.9a10.38,10.38,0,0,1-1.2.3,7.08,7.08,0,0,1-1.4.1c-3.1,0-4.7-1.6-4.7-4.9V99.8h-2.3V98.6l2.3-1,1-3.4h1.4v3.7h4.7v1.9H260v9.4a2.92,2.92,0,0,0,.7,2.2A2.43,2.43,0,0,0,262.5,112.3Z"/><path class="cls-17" d="M265.4,97.9H268l3.5,9.2a22.7,22.7,0,0,1,1.4,4.5h.1c.1-.5.4-1.3.8-2.6s1.7-4.9,4-11.1h2.6l-6.9,18.3a8.88,8.88,0,0,1-2.4,3.8,4.81,4.81,0,0,1-3.4,1.1,16.35,16.35,0,0,1-2.2-.2V119a9,9,0,0,0,1.8.2c1.7,0,2.9-.9,3.6-2.8l.9-2.3Z"/><rect class="cls-16" x="25" y="141" width="706" height="2"/><rect id="White" class="cls-15" width="750" height="65"/><circle id="Avatar" class="cls-22" cx="714.5" cy="31.5" r="21.5"/><rect class="cls-23" x="13" y="18" width="34" height="34"/><rect class="cls-24" x="66" width="1" height="65"/><rect id="Rectangle_8_copy" data-name="Rectangle 8 copy" class="cls-25" x="67" width="1" height="65"/><rect class="cls-24" x="197" width="1" height="65"/><rect id="Rectangle_8_copy-2" data-name="Rectangle 8 copy-2" class="cls-25" x="198" width="1" height="65"/><rect class="cls-24" x="294" width="1" height="65"/><rect id="Rectangle_8_copy-3" data-name="Rectangle 8 copy-3" class="cls-25" x="295" width="1" height="65"/><rect class="cls-24" x="416" width="1" height="65"/><rect id="Rectangle_8_copy-4" data-name="Rectangle 8 copy-4" class="cls-25" x="417" width="1" height="65"/><rect class="cls-7" x="85" y="25" width="90" height="17"/><rect id="Rectangle_9_copy" data-name="Rectangle 9 copy" class="cls-7" x="220" y="25" width="48" height="17"/><rect id="Rectangle_9_copy_2" data-name="Rectangle 9 copy 2" class="cls-7" x="320" y="25" width="72" height="17"/><path class="cls-26" d="M44.38,28.05a2.61,2.61,0,0,1-1.84-.75L37.7,22.46a2.61,2.61,0,0,1,3.7-3.68l4.84,4.84a2.61,2.61,0,0,1,0,3.68A2.71,2.71,0,0,1,44.38,28.05Z"/><path class="cls-26" d="M28,47.57a2.61,2.61,0,0,1-1.84-.75l-8-8a2.6,2.6,0,1,1,3.68-3.68l8,7.95a2.61,2.61,0,0,1,0,3.68A2.57,2.57,0,0,1,28,47.57Z"/><path class="cls-26" d="M44.38,40a2.61,2.61,0,0,1-1.84-.75L25.74,22.46a2.61,2.61,0,0,1,3.68-3.7l16.8,16.8a2.61,2.61,0,0,1,0,3.68A2.46,2.46,0,0,1,44.38,40Z"/><path class="cls-26" d="M44.38,52a2.61,2.61,0,0,1-1.84-.75L13.76,22.46a2.61,2.61,0,1,1,3.7-3.68L46.22,47.54a2.61,2.61,0,0,1,0,3.68A2.53,2.53,0,0,1,44.38,52Z"/></svg>