<svg id="Layer_1" data-name="Layer 1" xmlns="http://www.w3.org/2000/svg" viewBox="0 0 300 300"><defs><style>.cls-1{fill:#fff;}.cls-2{fill:#75787b;}.cls-3{fill:#ffe281;}.cls-4{fill:#9f231f;}.cls-5{fill:none;stroke:#4bb9dd;stroke-width:2px;}.cls-6{fill:#d9d9d6;}</style></defs><title>Artboard 1</title><rect class="cls-1" width="300" height="300" rx="8" ry="8"/><path class="cls-2" d="M31.26,179a3.57,3.57,0,0,0,2.54,1.15c1.2,0,1.92-.6,1.92-1.5S35,177.42,34.18,177l-1.32-.57a2.46,2.46,0,0,1,1-4.8,3.76,3.76,0,0,1,2.7,1.13l-.62.76a3,3,0,0,0-2.09-.87c-1,0-1.72.52-1.72,1.34s.81,1.22,1.53,1.53l1.32.56a2.56,2.56,0,0,1,1.89,2.45c0,1.46-1.2,2.62-3.14,2.62a4.42,4.42,0,0,1-3.13-1.37Z"/><path class="cls-2" d="M38.34,172a.8.8,0,1,1,.8.8A.8.8,0,0,1,38.34,172Zm.21,2.14H39.7V181H38.6Z"/><path class="cls-2" d="M42.47,180.76v-.06a1.26,1.26,0,0,1-.6-1.11,1.59,1.59,0,0,1,.74-1.26v-.06A2.4,2.4,0,0,1,44.29,174a2.73,2.73,0,0,1,1,.17H47.6v.88H46.2a2,2,0,0,1,.56,1.4,2.34,2.34,0,0,1-2.3,2.37h-.19a2.38,2.38,0,0,1-1-.24,1,1,0,0,0-.43.81c0,.43.28.74,1.2.74h1.32c1.58,0,2.38.49,2.38,1.63s-1.33,2.35-3.45,2.35c-1.67,0-2.82-.66-2.82-1.83A2,2,0,0,1,42.47,180.76Zm2,2.58c1.3,0,2.16-.67,2.16-1.39s-.49-.84-1.37-.84H44.07a3.32,3.32,0,0,1-.88-.11,1.44,1.44,0,0,0-.7,1.15c0,.73.74,1.19,2,1.19Zm1.27-6.89a1.45,1.45,0,1,0,0,.24A1.45,1.45,0,0,0,45.74,176.45Z"/><path class="cls-2" d="M49,174.19h1l.1,1h0A3.21,3.21,0,0,1,52.43,174c1.43,0,2.07.92,2.07,2.66V181H53.35v-4.16c0-1.27-.39-1.82-1.29-1.82a2.58,2.58,0,0,0-1.86,1.05V181H49Z"/><path class="cls-2" d="M60.6,176.69c0-.87-.29-1.71-1.4-1.71a3.66,3.66,0,0,0-2,.73l-.46-.8a5,5,0,0,1,2.68-.88c1.67,0,2.37,1.11,2.37,2.8V181h-1l-.1-.81h0a3.7,3.7,0,0,1-2.26,1,1.86,1.86,0,0,1-2-1.93C56.38,177.75,57.66,177,60.6,176.69Zm-1.86,3.56a2.79,2.79,0,0,0,1.86-.91v-1.89c-2.28.28-3.05.84-3.05,1.71a1,1,0,0,0,1.15,1.08Z"/><path class="cls-2" d="M64.15,175.13h-1v-.87l1.07-.07.14-1.91h1v1.91h1.83v.94H65.31v3.78c0,.84.27,1.32,1.05,1.32a2.47,2.47,0,0,0,.77-.18l.22.87a4.21,4.21,0,0,1-1.26.25c-1.46,0-1.95-.92-1.95-2.27Z"/><path class="cls-2" d="M68.36,174.19h1.16v4.16c0,1.27.38,1.82,1.27,1.82.7,0,1.19-.35,1.83-1.15v-4.83h1.15V181h-1l-.1-1.06h0a2.88,2.88,0,0,1-2.24,1.23c-1.44,0-2.09-.92-2.09-2.66Z"/><path class="cls-2" d="M76.07,174.19h1l.1,1.23h0A2.33,2.33,0,0,1,79.1,174a1.7,1.7,0,0,1,.73.14l-.22,1a1.9,1.9,0,0,0-.66-.11c-.57,0-1.26.42-1.72,1.57V181H76.08Z"/><path class="cls-2" d="M83.1,174c1.74,0,2.72,1.25,2.72,3.19a4.09,4.09,0,0,1,0,.63H81.23a2.27,2.27,0,0,0,2.15,2.39h.12a3.08,3.08,0,0,0,1.69-.53l.41.76a4.06,4.06,0,0,1-2.24.7,3.6,3.6,0,0,1-.21-7.14Zm1.71,3.07c0-1.39-.62-2.16-1.68-2.16a2.12,2.12,0,0,0-2,2.16Z"/><path class="cls-2" d="M88.09,174.36a.88.88,0,1,1-.84.92v0a.83.83,0,0,1,.78-.88Zm0,5a.88.88,0,1,1-.84.92v0a.85.85,0,0,1,.84-.86h0Z"/><path class="cls-2" d="M31.26,244a3.57,3.57,0,0,0,2.54,1.15c1.2,0,1.92-.6,1.92-1.5S35,242.42,34.18,242l-1.32-.57a2.46,2.46,0,0,1,1-4.8,3.76,3.76,0,0,1,2.7,1.13l-.62.76a3,3,0,0,0-2.09-.87c-1,0-1.72.52-1.72,1.34s.81,1.22,1.53,1.53l1.32.56a2.56,2.56,0,0,1,1.89,2.45c0,1.46-1.2,2.62-3.14,2.62a4.42,4.42,0,0,1-3.13-1.37Z"/><path class="cls-2" d="M38.34,237.05a.8.8,0,1,1,.8.8A.8.8,0,0,1,38.34,237.05Zm.21,2.14H39.7V246H38.6Z"/><path class="cls-2" d="M42.47,245.76v-.06a1.26,1.26,0,0,1-.6-1.11,1.59,1.59,0,0,1,.74-1.26v-.06A2.4,2.4,0,0,1,44.29,239a2.73,2.73,0,0,1,1,.17H47.6v.88H46.2a2,2,0,0,1,.56,1.4,2.34,2.34,0,0,1-2.3,2.37h-.19a2.38,2.38,0,0,1-1-.24,1,1,0,0,0-.43.81c0,.43.28.74,1.2.74h1.32c1.58,0,2.38.49,2.38,1.63s-1.33,2.35-3.45,2.35c-1.67,0-2.82-.66-2.82-1.83A2,2,0,0,1,42.47,245.76Zm2,2.58c1.3,0,2.16-.67,2.16-1.39s-.49-.84-1.37-.84H44.07a3.32,3.32,0,0,1-.88-.11,1.44,1.44,0,0,0-.7,1.15c0,.73.74,1.19,2,1.19Zm1.27-6.89a1.45,1.45,0,1,0,0,.24A1.45,1.45,0,0,0,45.74,241.45Z"/><path class="cls-2" d="M49,239.19h1l.1,1h0A3.21,3.21,0,0,1,52.43,239c1.43,0,2.07.92,2.07,2.66V246H53.35v-4.16c0-1.27-.39-1.82-1.29-1.82a2.58,2.58,0,0,0-1.86,1V246H49Z"/><path class="cls-2" d="M60.6,241.69c0-.87-.29-1.71-1.4-1.71a3.66,3.66,0,0,0-2,.73l-.46-.8a5,5,0,0,1,2.68-.88c1.67,0,2.37,1.11,2.37,2.8V246h-1l-.1-.81h0a3.7,3.7,0,0,1-2.26,1,1.86,1.86,0,0,1-2-1.93C56.38,242.75,57.66,242,60.6,241.69Zm-1.86,3.56a2.79,2.79,0,0,0,1.86-.91v-1.89c-2.28.28-3.05.84-3.05,1.71a1,1,0,0,0,1.15,1.08Z"/><path class="cls-2" d="M64.15,240.13h-1v-.87l1.07-.07.14-1.91h1v1.91h1.83v.94H65.31v3.78c0,.84.27,1.32,1.05,1.32a2.47,2.47,0,0,0,.77-.18l.22.87a4.21,4.21,0,0,1-1.26.25c-1.46,0-1.95-.92-1.95-2.27Z"/><path class="cls-2" d="M68.36,239.19h1.16v4.16c0,1.27.38,1.82,1.27,1.82.7,0,1.19-.35,1.83-1.15v-4.83h1.15V246h-1l-.1-1.06h0a2.88,2.88,0,0,1-2.24,1.23c-1.44,0-2.09-.92-2.09-2.66Z"/><path class="cls-2" d="M76.07,239.19h1l.1,1.23h0A2.33,2.33,0,0,1,79.1,239a1.7,1.7,0,0,1,.73.14l-.22,1a1.9,1.9,0,0,0-.66-.11c-.57,0-1.26.42-1.72,1.57V246H76.08Z"/><path class="cls-2" d="M83.1,239c1.74,0,2.72,1.25,2.72,3.19a4.09,4.09,0,0,1,0,.63H81.23a2.27,2.27,0,0,0,2.15,2.39h.12a3.08,3.08,0,0,0,1.69-.53l.41.76a4.06,4.06,0,0,1-2.24.7,3.6,3.6,0,0,1-.21-7.14Zm1.71,3.07c0-1.39-.62-2.16-1.68-2.16a2.12,2.12,0,0,0-2,2.16Z"/><path class="cls-2" d="M88.09,239.36a.88.88,0,1,1-.84.92v0a.83.83,0,0,1,.78-.88Zm0,5a.88.88,0,1,1-.84.92v0a.85.85,0,0,1,.84-.86h0Z"/><path id="Fill-2" class="cls-3" d="M186.92,269.8H112.6a3.57,3.57,0,0,1-3.57-3.57h0V218.6a3.57,3.57,0,0,1,3.54-3.6h74.37a3.57,3.57,0,0,1,3.57,3.57h0v47.65a3.57,3.57,0,0,1-3.57,3.57h0"/><polygon id="Fill-3" class="cls-4" points="154.94 245.89 154.94 238.33 145.77 238.33 145.77 245.89 140.83 245.89 150.36 255.42 159.89 245.89 154.94 245.89"/><polygon id="Fill-4" class="cls-4" points="132.73 259.29 167.99 259.29 167.99 256.92 132.73 256.92 132.73 259.29"/><path id="Fill-5" class="cls-4" d="M135.11,231.6a3.35,3.35,0,0,0,2.2,1c.94,0,1.47-.42,1.47-1.08s-.54-.91-1.31-1.24l-1.15-.5a2.41,2.41,0,0,1-1.7-2.24,2.56,2.56,0,0,1,2.73-2.38h.09a3.72,3.72,0,0,1,2.6,1.07l-.77,1a2.72,2.72,0,0,0-1.83-.72c-.8,0-1.31.37-1.31,1s.64.9,1.34,1.19l1.13.48a2.34,2.34,0,0,1,1.7,2.28c0,1.36-1.13,2.5-3,2.5a4.33,4.33,0,0,1-3-1.24Z"/><polygon id="Fill-6" class="cls-4" points="143.86 233.69 145.35 233.69 145.35 225.28 143.86 225.28 143.86 233.69"/><path id="Fill-7" class="cls-4" d="M153.07,225.12a3.42,3.42,0,0,1,2.51,1.07l-.82.93a2.2,2.2,0,0,0-1.67-.69c-1.49,0-2.5,1.16-2.5,3s.9,3.08,2.59,3.08a1.84,1.84,0,0,0,1.2-.37v-1.81H152.8v-1.22h2.92v3.71a4.07,4.07,0,0,1-2.72,1c-2.24,0-3.94-1.54-3.94-4.34s1.75-4.39,4-4.39"/><path id="Fill-8" class="cls-4" d="M159.6,225.28h1.53l2.61,4.74.88,1.79h.05c-.08-.86-.19-1.93-.19-2.87v-3.65h1.42v8.42h-1.53L161.76,229l-.88-1.79h-.05c.08.89.19,1.91.19,2.84v3.68H159.6Z"/><path id="Stroke-9" class="cls-5" d="M130.6,200.9H117.43a9.36,9.36,0,0,1-9.36-9.36h0V162.73a9.36,9.36,0,0,1,9.36-9.36H130.6"/><polygon id="Fill-10" class="cls-6" points="30 140 270 140 270 130 30 130 30 140"/><polygon id="Fill-11" class="cls-6" points="30 100 100 100 100 90 30 90 30 100"/><polygon id="Fill-12" class="cls-6" points="30 80 270 80 270 70 30 70 30 80"/><polygon id="Fill-13" class="cls-6" points="30 60 270 60 270 50 30 50 30 60"/><polygon id="Fill-14" class="cls-6" points="30 40 270 40 270 30 30 30 30 40"/><path class="cls-2" d="M133.43,182.38a3.86,3.86,0,0,1-.13.55,2.69,2.69,0,0,0-.07.59,1.08,1.08,0,0,0,.08.43.32.32,0,0,0,.33.18,1.84,1.84,0,0,0,.81-.24,7.34,7.34,0,0,0,1-.65q.54-.41,1.12-.94t1.14-1.11q.57-.57,1.08-1.15t.92-1.08l.47,1.67q-.83,1.11-1.71,2.12a16.93,16.93,0,0,1-1.79,1.8,9.3,9.3,0,0,1-1.83,1.24,4,4,0,0,1-1.82.47,2.15,2.15,0,0,1-.9-.17,1.55,1.55,0,0,1-.6-.47,2,2,0,0,1-.33-.68,3,3,0,0,1-.11-.81v-2l-4.46.28h-2.07q-.53,1.14-1,2-.23.38-.48.74a6.72,6.72,0,0,1-.5.65,2.72,2.72,0,0,1-.5.45.88.88,0,0,1-.49.17,1.44,1.44,0,0,1-.62-.11,1.06,1.06,0,0,1-.38-.28,1,1,0,0,1-.19-.38,1.58,1.58,0,0,1-.06-.4,2.43,2.43,0,0,1,.09-.65,2.64,2.64,0,0,1,.25-.61l1.66-2.79c.08-.12.23-.4.46-.84s.53-1,.89-1.64.78-1.37,1.26-2.15,1-1.59,1.55-2.39,1.15-1.59,1.77-2.36a18.12,18.12,0,0,1,1.92-2,10,10,0,0,1,2-1.42,4.23,4.23,0,0,1,2-.53,3.34,3.34,0,0,1,1.83.58,5.9,5.9,0,0,1,1.71,1.9.7.7,0,0,1,.09.3.68.68,0,0,1-.09.33,1,1,0,0,1-.23.29,1.23,1.23,0,0,1-.32.2.91.91,0,0,1-.36.08,1.64,1.64,0,0,1-.52-.1,1.26,1.26,0,0,1-.56-.43,2.61,2.61,0,0,0-.81-.66,1.87,1.87,0,0,0-.83-.21,2.53,2.53,0,0,0-1.21.33,6.24,6.24,0,0,0-1.24.91,13,13,0,0,0-1.24,1.32q-.62.75-1.19,1.58T128.1,176l-1,1.66-.87,1.46q-.4.67-.7,1.12h2.3l3.88-.29.3-.68.42-1,.51-1.17.56-1.26.56-1.26.52-1.15a1.24,1.24,0,0,1,.48-.68,1.27,1.27,0,0,1,.68-.2,1.31,1.31,0,0,1,.38.06,1.07,1.07,0,0,1,.35.18.94.94,0,0,1,.26.3,1,1,0,0,1,.11.43,2.9,2.9,0,0,1-.21.82q-.21.58-.53,1.36t-.72,1.69q-.4.91-.78,1.82t-.71,1.75Q133.6,181.75,133.43,182.38Z"/><path class="cls-2" d="M141.84,185.53a3.1,3.1,0,0,1,.27-1.23,9.76,9.76,0,0,1,.68-1.29q.42-.67.9-1.35t.93-1.4a2.63,2.63,0,0,0,.2-.38,1,1,0,0,0,.08-.37.49.49,0,0,0-.11-.33.41.41,0,0,0-.33-.13,2.36,2.36,0,0,0-1,.22,4.31,4.31,0,0,0-.92.58,6.47,6.47,0,0,0-.84.82,8.09,8.09,0,0,0-.74,1q-.34.54-.65,1l-.55.89a7.57,7.57,0,0,0-.41.9,8.17,8.17,0,0,1-.41.9,3,3,0,0,1-.5.7,1,1,0,0,1-1.67-.69,2.46,2.46,0,0,1,.16-.7q.16-.48.42-1.11t.58-1.35l.65-1.42.6-1.32.47-1.06a1.82,1.82,0,0,1,.6-.8,1.27,1.27,0,0,1,.73-.26.79.79,0,0,1,.56.23.88.88,0,0,1,.24.67,2,2,0,0,1-.15.72l.73-.68a6.69,6.69,0,0,1,.85-.67,4.54,4.54,0,0,1,1-.51,3.79,3.79,0,0,1,1.27-.2,2.5,2.5,0,0,1,.67.09,1.62,1.62,0,0,1,.56.28,1.46,1.46,0,0,1,.4.49,1.79,1.79,0,0,1,.18.73q.29-.29.63-.57a5.09,5.09,0,0,1,.73-.51,4.07,4.07,0,0,1,.86-.37,3.62,3.62,0,0,1,1-.14,3.53,3.53,0,0,1,.79.09,1.93,1.93,0,0,1,.67.3,1.48,1.48,0,0,1,.46.53,1.73,1.73,0,0,1,.17.8,3.12,3.12,0,0,1-.35,1.43,6.83,6.83,0,0,1-.81,1.24l-.4.48q-.25.29-.49.62a4.91,4.91,0,0,0-.41.67,1.44,1.44,0,0,0-.18.65.35.35,0,0,0,.17.35,1.11,1.11,0,0,0,.45.08,2.54,2.54,0,0,0,1.14-.31,7.86,7.86,0,0,0,1.2-.76,13.31,13.31,0,0,0,1.09-.93q.51-.48.81-.81a.43.43,0,0,1,.18-.12.53.53,0,0,1,.61.16.76.76,0,0,1,.18.53,1.25,1.25,0,0,1-.15.55,1.83,1.83,0,0,1-.52.59q-.68.65-1.39,1.25a13.39,13.39,0,0,1-1.43,1.06,8,8,0,0,1-1.44.73,4,4,0,0,1-1.44.28,2.4,2.4,0,0,1-1.5-.44,1.65,1.65,0,0,1-.57-1.39,3,3,0,0,1,.24-1.18,6.18,6.18,0,0,1,.59-1.06q.35-.51.74-1a8.26,8.26,0,0,0,.68-1,2.57,2.57,0,0,0,.2-.38,1,1,0,0,0,.08-.37.49.49,0,0,0-.11-.33.41.41,0,0,0-.33-.13,2.36,2.36,0,0,0-1,.22,4.32,4.32,0,0,0-.92.58,6.47,6.47,0,0,0-.84.82,8.09,8.09,0,0,0-.74,1q-.34.54-.65,1l-.55.89a7.57,7.57,0,0,0-.41.9,8.29,8.29,0,0,1-.41.9,3,3,0,0,1-.5.7.93.93,0,0,1-.69.28,1.07,1.07,0,0,1-.33-.06,1.2,1.2,0,0,1-.32-.16.92.92,0,0,1-.24-.24A.6.6,0,0,1,141.84,185.53Z"/><path class="cls-2" d="M168,182.34l-.6.59q-.38.38-.86.82l-1,.89a11.89,11.89,0,0,1-1.12.81,7.45,7.45,0,0,1-1.12.6,2.69,2.69,0,0,1-1,.23,1.45,1.45,0,0,1-.75-.19,1.67,1.67,0,0,1-.52-.49,2.19,2.19,0,0,1-.31-.69,3.13,3.13,0,0,1-.1-.79,3.64,3.64,0,0,1,0-.52,2.18,2.18,0,0,1,.13-.48c-.26.35-.56.71-.89,1.09a9,9,0,0,1-1.07,1,6,6,0,0,1-1.19.75,2.93,2.93,0,0,1-1.26.3,2.69,2.69,0,0,1-.76-.13,2.57,2.57,0,0,1-.82-.43,2.49,2.49,0,0,1-.65-.78,2.38,2.38,0,0,1-.26-1.17,5.88,5.88,0,0,1,.16-1.23,8.87,8.87,0,0,1,.48-1.49,9.19,9.19,0,0,1,.82-1.53,6.69,6.69,0,0,1,1.17-1.35,5.71,5.71,0,0,1,1.55-1,4.87,4.87,0,0,1,1.93-.37,3.06,3.06,0,0,1,1,.14,4.06,4.06,0,0,1,.7.3,3.49,3.49,0,0,1,.58.44l.44-.21.4-.16a1.17,1.17,0,0,1,.36-.07,1.14,1.14,0,0,1,.78.26.77.77,0,0,1,.3.58.59.59,0,0,1,0,.14,2.51,2.51,0,0,1-.19.6l-.3.81-.44,1q-.17.48-.31.95t-.23.87a3.38,3.38,0,0,0-.09.7,1.35,1.35,0,0,0,.13.62.44.44,0,0,0,.43.24,1.09,1.09,0,0,0,.45-.12,4.27,4.27,0,0,0,.56-.32q.3-.2.62-.46l.62-.52q.7-.63,1.49-1.43a.62.62,0,0,1,.39-.16.5.5,0,0,1,.42.24.94.94,0,0,1,.17.55A.8.8,0,0,1,168,182.34Zm-8.71-3.24a2.35,2.35,0,0,0-1.14.3,3.56,3.56,0,0,0-1,.79,3.94,3.94,0,0,0-.68,1.1,3.18,3.18,0,0,0-.25,1.22,4.47,4.47,0,0,0,0,.52,1.47,1.47,0,0,0,.14.5,1,1,0,0,0,.32.38.93.93,0,0,0,.56.15,1.23,1.23,0,0,0,.65-.24,5.39,5.39,0,0,0,.77-.63,10.13,10.13,0,0,0,.77-.84q.38-.46.68-.9a8.69,8.69,0,0,0,.49-.79,1.28,1.28,0,0,0,.19-.52.66.66,0,0,0-.16-.43,1.49,1.49,0,0,0-.4-.33,2.14,2.14,0,0,0-1-.28Z"/><path class="cls-2" d="M168.71,178.33a2,2,0,0,1,.63-.8,1.29,1.29,0,0,1,.74-.26.78.78,0,0,1,.54.22.84.84,0,0,1,.24.65,1.74,1.74,0,0,1,0,.35,1.67,1.67,0,0,1-.14.4,3.92,3.92,0,0,1,.79-.72,7.24,7.24,0,0,1,1.14-.67,8.37,8.37,0,0,1,1.28-.48,4.55,4.55,0,0,1,1.25-.19,1.85,1.85,0,0,1,1.11.32,1.25,1.25,0,0,1,.45,1.09,3.48,3.48,0,0,1-.14.94,7.14,7.14,0,0,1-.36,1q-.22.49-.49,1l-.53.89-.48.76q-.22.34-.35.57a.72.72,0,0,0-.16.47.27.27,0,0,0,.06.18.25.25,0,0,0,.2.08h.2A.73.73,0,0,0,175,184a11.48,11.48,0,0,0,1.39-.63q.71-.38,1.36-.8t1.2-.84a10.36,10.36,0,0,0,.91-.76.67.67,0,0,1,.2-.13.55.55,0,0,1,.19,0,.39.39,0,0,1,.33.16.69.69,0,0,1,.12.41,1.92,1.92,0,0,1-.24.87,2.74,2.74,0,0,1-.77.89l-1.31.94q-.6.43-1.22.8a13.05,13.05,0,0,1-1.33.69,12.44,12.44,0,0,1-1.67.6,5.28,5.28,0,0,1-.6.15,2.78,2.78,0,0,1-.5.05,1.19,1.19,0,0,1-1-.37,1.57,1.57,0,0,1-.31-1v-.35a2.87,2.87,0,0,1,.21-.85,9.42,9.42,0,0,1,.44-1q.26-.49.55-1l.53-.92c.16-.29.3-.55.41-.77a1.35,1.35,0,0,0,.16-.55.49.49,0,0,0-.11-.32.38.38,0,0,0-.32-.13,2.73,2.73,0,0,0-1.53.48,7,7,0,0,0-1.35,1.17,13.47,13.47,0,0,0-1.16,1.48l-.95,1.33a7.73,7.73,0,0,0-.46.89q-.21.47-.43.88a2.82,2.82,0,0,1-.51.68,1,1,0,0,1-.71.27.89.89,0,0,1-.69-.28,1,1,0,0,1-.25-.68,2.34,2.34,0,0,1,.18-.69q.18-.48.45-1.11t.62-1.35l.69-1.43.66-1.34Q168.51,178.77,168.71,178.33Z"/><path class="cls-2" d="M186.3,183.41a.15.15,0,0,0,0,.06.13.13,0,0,1,0,.06,1.12,1.12,0,0,0,.11.47.38.38,0,0,0,.37.24.35.35,0,0,0,.15,0,5.86,5.86,0,0,0,1.45-.68,14.5,14.5,0,0,0,1.41-1,15.67,15.67,0,0,0,1.25-1.13q.57-.58.95-1a.51.51,0,0,1,.39-.21.42.42,0,0,1,.33.18.73.73,0,0,1,.14.48,1.57,1.57,0,0,1-.13.57,2.91,2.91,0,0,1-.43.7q-.74.82-1.52,1.57a15.4,15.4,0,0,1-1.57,1.34,8.55,8.55,0,0,1-1.58.94,3.75,3.75,0,0,1-1.54.35,2,2,0,0,1-1.45-.52,2.11,2.11,0,0,1-.53-1.56v-.13a.68.68,0,0,1,0-.13,4,4,0,0,1-.74,1,5,5,0,0,1-1,.74,5.16,5.16,0,0,1-1.12.48,4,4,0,0,1-1.12.17,2.77,2.77,0,0,1-.85-.13,1.69,1.69,0,0,1-.67-.4,1.88,1.88,0,0,1-.44-.7,3,3,0,0,1-.16-1,6.11,6.11,0,0,1,.33-2,7.37,7.37,0,0,1,.87-1.75,8,8,0,0,1,1.24-1.43,9,9,0,0,1,1.44-1.08,7.32,7.32,0,0,1,1.49-.69,4.47,4.47,0,0,1,1.36-.24,2.91,2.91,0,0,1,1.23.24,1.8,1.8,0,0,1,.46.34l.1-.21.23-.52.14-.32a1.81,1.81,0,0,1,.21-.53l.41-1,.5-1.2.5-1.21.39-1c.11-.27.18-.45.2-.52a3.28,3.28,0,0,1,.24-.61,2.16,2.16,0,0,1,.36-.51,1.64,1.64,0,0,1,.48-.35,1.46,1.46,0,0,1,.63-.13,1.41,1.41,0,0,1,.79.21.89.89,0,0,1,.31.8,2,2,0,0,1-.06.49,1.71,1.71,0,0,1-.14.49,3.8,3.8,0,0,1-.18.47l-.17.43q-.63,1.26-1.32,2.73t-1.37,3q-.68,1.49-1.29,2.91T186.3,183.41Zm-.38-4.91a5.11,5.11,0,0,0-1.58.33,5.63,5.63,0,0,0-1.75,1,5.76,5.76,0,0,0-1.34,1.59,4.85,4.85,0,0,0-.62,2.16c0,.33.14.5.43.5a2.38,2.38,0,0,0,1-.22,4,4,0,0,0,.91-.59,6,6,0,0,0,.81-.85,10.51,10.51,0,0,0,.7-1q.32-.51.58-1t.45-.95l.18-.39Z"/><path class="cls-2" d="M204.47,182.34l-.6.59q-.38.38-.86.82l-1,.89a11.89,11.89,0,0,1-1.12.81,7.46,7.46,0,0,1-1.13.6,2.68,2.68,0,0,1-1,.23,1.45,1.45,0,0,1-.75-.19,1.69,1.69,0,0,1-.52-.49,2.19,2.19,0,0,1-.31-.69,3.08,3.08,0,0,1-.1-.79,3.47,3.47,0,0,1,0-.52,2.18,2.18,0,0,1,.12-.48q-.39.53-.89,1.09a8.87,8.87,0,0,1-1.07,1A6,6,0,0,1,194,186a2.92,2.92,0,0,1-1.26.3,2.69,2.69,0,0,1-.76-.13,2.56,2.56,0,0,1-.82-.43,2.48,2.48,0,0,1-.65-.78,2.39,2.39,0,0,1-.26-1.17,5.89,5.89,0,0,1,.16-1.23,8.82,8.82,0,0,1,.48-1.49,9.23,9.23,0,0,1,.82-1.53,6.73,6.73,0,0,1,1.18-1.35,5.71,5.71,0,0,1,1.54-1,4.88,4.88,0,0,1,1.94-.37,3.07,3.07,0,0,1,1,.14,4,4,0,0,1,.7.3,3.46,3.46,0,0,1,.58.44l.44-.21.4-.16a1.18,1.18,0,0,1,.36-.07,1.14,1.14,0,0,1,.78.26.76.76,0,0,1,.3.58.68.68,0,0,1,0,.14,2.2,2.2,0,0,1-.2.6l-.29.81-.33.93q-.17.48-.31.95t-.23.87a3.4,3.4,0,0,0-.09.7,1.34,1.34,0,0,0,.13.62.44.44,0,0,0,.43.24,1.09,1.09,0,0,0,.45-.12,4.35,4.35,0,0,0,.56-.32q.3-.2.62-.46l.62-.52q.7-.63,1.5-1.43a.62.62,0,0,1,.39-.16.5.5,0,0,1,.42.24.94.94,0,0,1,.17.55A.8.8,0,0,1,204.47,182.34Zm-8.71-3.24a2.36,2.36,0,0,0-1.14.3,3.58,3.58,0,0,0-1,.79,3.94,3.94,0,0,0-.68,1.1,3.19,3.19,0,0,0-.25,1.22,4.47,4.47,0,0,0,0,.52,1.46,1.46,0,0,0,.14.5,1,1,0,0,0,.32.38.94.94,0,0,0,.56.15,1.22,1.22,0,0,0,.65-.24,5.4,5.4,0,0,0,.77-.63,10.34,10.34,0,0,0,.77-.84q.38-.46.68-.9a9,9,0,0,0,.49-.79,1.3,1.3,0,0,0,.19-.52.66.66,0,0,0-.16-.43,1.52,1.52,0,0,0-.4-.33,2.16,2.16,0,0,0-.94-.28Z"/><path class="cls-2" d="M223.14,169.35a3,3,0,0,1,.45-.67,2.76,2.76,0,0,1,.57-.48,2.51,2.51,0,0,1,.62-.28,2.06,2.06,0,0,1,.59-.09,1.1,1.1,0,0,1,.68.21.71.71,0,0,1,.28.61,1.67,1.67,0,0,1-.16.68q-.7,1.51-1.43,3l-1.46,3q-.73,1.46-1.44,2.81t-1.36,2.51q-.65,1.16-1.22,2.07t-1,1.52q1.09-.08,2-.2t1.75-.29q.84-.16,1.69-.36l1.83-.4h.28a.72.72,0,0,1,.62.31,1.15,1.15,0,0,1,.23.7q0,.24-.45.51A6.49,6.49,0,0,1,225,185q-.79.26-1.85.51c-.71.16-1.47.31-2.29.43s-1.68.22-2.58.29-1.79.11-2.68.11a14.39,14.39,0,0,1-2.66-.21,6.72,6.72,0,0,1-1.84-.59,2.81,2.81,0,0,1-1.07-.89,2,2,0,0,1-.35-1.12,2.08,2.08,0,0,1,.22-1,1.77,1.77,0,0,1,.6-.66,2.65,2.65,0,0,1,.9-.36,5.31,5.31,0,0,1,1.12-.11,3.2,3.2,0,0,1,1,.18,6.14,6.14,0,0,1,1,.46,8.2,8.2,0,0,1,1,.63,6.66,6.66,0,0,1,.8.7q.29-.75.7-1.68l.89-2,1-2.1q.52-1.1,1.06-2.12l1-2,.93-1.77.76-1.42Zm-11.17,14a.48.48,0,0,0,.18.33,1.72,1.72,0,0,0,.55.32,4.46,4.46,0,0,0,1,.24,10,10,0,0,0,1.4.11l-.76-.42-.73-.4q-.35-.18-.64-.3a1.32,1.32,0,0,0-.49-.12c-.36,0-.51.06-.51.22Z"/><path class="cls-2" d="M231.13,176.81a2.15,2.15,0,0,1,1.56.5,1.86,1.86,0,0,1,.51,1.39,2.57,2.57,0,0,1-.28,1.11,3.83,3.83,0,0,1-1,1.17,10.15,10.15,0,0,1-1.82,1.22,21.4,21.4,0,0,1-2.85,1.25.82.82,0,0,0,.39.57,1.59,1.59,0,0,0,.87.21,5,5,0,0,0,1.24-.17,10,10,0,0,0,1.31-.43q.65-.26,1.26-.57c.41-.2.78-.4,1.11-.58l.83-.48.45-.25a.49.49,0,0,1,.21-.09h.17a.43.43,0,0,1,.25.07.69.69,0,0,1,.17.16.56.56,0,0,1,.09.2.82.82,0,0,1,0,.18,1.78,1.78,0,0,1,0,.27.82.82,0,0,1-.19.36l-.42.34c-.24.18-.55.4-.92.65s-.81.52-1.31.8a15.42,15.42,0,0,1-1.58.77,12.43,12.43,0,0,1-1.74.58,7.12,7.12,0,0,1-1.78.23,3,3,0,0,1-2.34-1.07,3.47,3.47,0,0,1-.62-1.13,4.22,4.22,0,0,1-.21-1.34,3.81,3.81,0,0,1,.21-1.19,6.24,6.24,0,0,1,.62-1.3,8,8,0,0,1,1-1.28,7.31,7.31,0,0,1,1.31-1.1,6.84,6.84,0,0,1,1.6-.77A5.92,5.92,0,0,1,231.13,176.81Zm-.45,1.73h-.23a2.13,2.13,0,0,0-.89.19,3,3,0,0,0-.76.5,4,4,0,0,0-.62.7,9,9,0,0,0-.48.77,6.54,6.54,0,0,0-.36.74,5.84,5.84,0,0,0-.22.59q.44-.23.91-.51l.89-.55.72-.48.43-.29a2.66,2.66,0,0,0,.78-.66,1,1,0,0,0,.21-.53.4.4,0,0,0-.12-.3.52.52,0,0,0-.26-.16Z"/><path class="cls-2" d="M237.94,178.88a7.46,7.46,0,0,1,1.37.92,6.62,6.62,0,0,1,1,1.09A4.78,4.78,0,0,1,241,182a3.28,3.28,0,0,1,.22,1.16,2.16,2.16,0,0,1-.41,1.29,3.49,3.49,0,0,1-1.07,1,5.42,5.42,0,0,1-1.51.6,7.22,7.22,0,0,1-1.71.21,5.52,5.52,0,0,1-1.27-.14,4,4,0,0,1-1.12-.45,3.06,3.06,0,0,1-.87-.77,2.88,2.88,0,0,1-.52-1.12.72.72,0,0,1,0-.16.81.81,0,0,1,.24-.58.72.72,0,0,1,.53-.25,1.12,1.12,0,0,1,.31.05.42.42,0,0,1,.26.23,1.77,1.77,0,0,0,.46.54,3.12,3.12,0,0,0,.66.41,3.93,3.93,0,0,0,.77.26,3.55,3.55,0,0,0,.8.09,4,4,0,0,0,.77-.08,2.15,2.15,0,0,0,.65-.24,1.29,1.29,0,0,0,.46-.5,1.11,1.11,0,0,0,.16-.62,2.46,2.46,0,0,0-.29-1.18,4.29,4.29,0,0,0-.75-1,7.22,7.22,0,0,0-1-.85l-1.16-.76a.82.82,0,0,1-.19-.22.65.65,0,0,1-.13-.37.36.36,0,0,1,.08-.24,6.75,6.75,0,0,1,.47-.54,5,5,0,0,1,.57-.51,2.84,2.84,0,0,1,.65-.38,1.89,1.89,0,0,1,.73-.14,1.73,1.73,0,0,1,.52.08,1.39,1.39,0,0,1,.4.2,1,1,0,0,1,.26.26.49.49,0,0,1,.09.27.71.71,0,0,1-.09.34,1.43,1.43,0,0,1-.23.31,3.76,3.76,0,0,1-.33.3Z"/><path class="cls-2" d="M245.75,179c-.31.6-.6,1.19-.88,1.77l-.78,1.59a6.54,6.54,0,0,0-.29.7,2.07,2.07,0,0,0-.14.7.43.43,0,0,0,.08.28.33.33,0,0,0,.27.1,1.91,1.91,0,0,0,.67-.16,7.46,7.46,0,0,0,.87-.41l1-.59a10.53,10.53,0,0,0,1-.69q.5-.36,1-.72l.8-.66a.68.68,0,0,1,.38-.14.42.42,0,0,1,.35.19.79.79,0,0,1,.14.48,1.41,1.41,0,0,1-.14.59,1.7,1.7,0,0,1-.5.59q-.82.74-1.65,1.41a17.56,17.56,0,0,1-1.66,1.18,9.38,9.38,0,0,1-1.63.81,4.45,4.45,0,0,1-1.56.3,2.35,2.35,0,0,1-.84-.13,1.39,1.39,0,0,1-.55-.37,1.35,1.35,0,0,1-.3-.54,2.43,2.43,0,0,1-.09-.66,4.34,4.34,0,0,1,.21-1.31,8.74,8.74,0,0,1,.48-1.22l.75-1.54.72-1.47h-.54a1.53,1.53,0,0,1-1-.23.67.67,0,0,1-.26-.51.79.79,0,0,1,.08-.31,1.14,1.14,0,0,1,.24-.34,1.46,1.46,0,0,1,.38-.27,1.14,1.14,0,0,1,.52-.11h1.36l2.65-5.26a1.61,1.61,0,0,1,.62-.68,1.55,1.55,0,0,1,.77-.21,1.25,1.25,0,0,1,.69.2.73.73,0,0,1,.31.67,1.19,1.19,0,0,1-.11.48q-.11.25-.28.57l-.28.51-.35.63-.38.7-.38.7-.91,1.7h4.1a4.41,4.41,0,0,1,.55,0,1.27,1.27,0,0,1,.43.13.7.7,0,0,1,.28.26.84.84,0,0,1,.1.44.9.9,0,0,1,0,.28.58.58,0,0,1-.16.25.94.94,0,0,1-.33.19,2.07,2.07,0,0,1-.53.1Z"/><path class="cls-2" d="M254.28,176.81a2.15,2.15,0,0,1,1.56.5,1.86,1.86,0,0,1,.51,1.39,2.57,2.57,0,0,1-.28,1.11,3.8,3.8,0,0,1-1,1.17,10.15,10.15,0,0,1-1.82,1.22,21.54,21.54,0,0,1-2.85,1.25.82.82,0,0,0,.39.57,1.59,1.59,0,0,0,.87.21,5,5,0,0,0,1.24-.17,10,10,0,0,0,1.31-.43q.65-.26,1.26-.57l1.11-.58.83-.48.45-.25a.49.49,0,0,1,.21-.09h.17a.43.43,0,0,1,.25.07.73.73,0,0,1,.17.16.58.58,0,0,1,.09.2.81.81,0,0,1,0,.18,1.77,1.77,0,0,1,0,.27.82.82,0,0,1-.19.36l-.42.34q-.36.28-.92.65t-1.31.8a15.32,15.32,0,0,1-1.58.77,12.36,12.36,0,0,1-1.74.58,7.13,7.13,0,0,1-1.78.23,3,3,0,0,1-2.34-1.07,3.47,3.47,0,0,1-.62-1.13,4.22,4.22,0,0,1-.21-1.34,3.81,3.81,0,0,1,.21-1.19,6.18,6.18,0,0,1,.62-1.3,7.9,7.9,0,0,1,1-1.28,7.3,7.3,0,0,1,1.31-1.1,6.84,6.84,0,0,1,1.6-.77A5.92,5.92,0,0,1,254.28,176.81Zm-.45,1.73h-.23a2.12,2.12,0,0,0-.89.19,3,3,0,0,0-.76.5,4,4,0,0,0-.62.7,9,9,0,0,0-.48.77,7,7,0,0,0-.36.74q-.14.35-.22.59.44-.23.91-.51l.89-.55.72-.48.43-.29a2.65,2.65,0,0,0,.78-.66,1,1,0,0,0,.21-.53.39.39,0,0,0-.12-.3.52.52,0,0,0-.26-.16Z"/><path class="cls-2" d="M261.87,178.6a11.06,11.06,0,0,1,1-.55c.35-.17.68-.31,1-.43a8.3,8.3,0,0,1,.94-.29,3.5,3.5,0,0,1,.8-.11,1.28,1.28,0,0,1,.87.27,1.16,1.16,0,0,1,.31.91v.3a2.44,2.44,0,0,1,0,.33,2.07,2.07,0,0,1-.38.77,11.59,11.59,0,0,1-.73.92l-.9,1-.89.89q-.41.41-.68.71c-.18.2-.27.34-.27.41a.46.46,0,0,0,0,.14H263q.68-.29,1.51-.7l1.66-.83,1.57-.84,1.26-.71.23-.11a.64.64,0,0,1,.22,0,.51.51,0,0,1,.38.15.55.55,0,0,1,.15.4,1.25,1.25,0,0,1-.24.66,3.09,3.09,0,0,1-.82.77l-1,.62-1.14.72-1.21.72q-.61.35-1.18.63a9.11,9.11,0,0,1-1.06.45,2.73,2.73,0,0,1-.86.17,1.81,1.81,0,0,1-1.3-.41,1.41,1.41,0,0,1-.43-1.07.77.77,0,0,1,0-.15,4,4,0,0,1,.33-1.07,8,8,0,0,1,.54-1c.2-.31.41-.61.63-.89l.6-.79a7,7,0,0,0,.45-.69,1.2,1.2,0,0,0,.18-.58.34.34,0,0,0,0-.13.11.11,0,0,0-.11-.06,1.86,1.86,0,0,0-.5.11,5.82,5.82,0,0,0-.73.3,5.42,5.42,0,0,0-.74.43,1.59,1.59,0,0,0-.5.52c-.13.24-.29.53-.47.89l-.55,1.13-.55,1.17-.45,1a2.42,2.42,0,0,1-.4.65,2.77,2.77,0,0,1-.53.49,2.71,2.71,0,0,1-.59.31,1.59,1.59,0,0,1-.55.11.67.67,0,0,1-.46-.15.63.63,0,0,1-.17-.49,1.8,1.8,0,0,1,0-.35,1.68,1.68,0,0,1,.18-.46q.23-.43.46-.93l.53-1.15.7-1.48q.4-.84.94-1.93a1.32,1.32,0,0,1-.3-.37,1.13,1.13,0,0,1-.12-.55,1,1,0,0,1,.47-.88,1.6,1.6,0,0,1,.5-.21,2.51,2.51,0,0,1,.6-.07,3.81,3.81,0,0,1,.65.06,2.5,2.5,0,0,1,.58.17,1.37,1.37,0,0,1,.42.28.52.52,0,0,1,.16.38.28.28,0,0,1,0,.1l-.06.14-.06.14a.28.28,0,0,0,0,.1h0Z"/><polygon id="Fill-16" class="cls-6" points="134.87 156.22 199.2 156.22 199.2 150.51 134.87 150.51 134.87 156.22"/><polygon id="Fill-18" class="cls-6" points="134.87 203.76 215.07 203.76 215.07 198.04 134.87 198.04 134.87 203.76"/></svg>