<svg id="Tablet" xmlns="http://www.w3.org/2000/svg" viewBox="0 0 560 1000"><defs><style>.cls-1{fill:#f5f5f5;}.cls-2{fill:#989898;}.cls-3{fill:#e1e1e1;}.cls-4{fill:#fff;}.cls-5{fill:#42b0d8;}.cls-6{fill:#b9b9b9;}.cls-7{fill:#e2e2e2;}.cls-8{fill:#b5db69;}.cls-9{fill:#b949f5;}.cls-10{fill:#ebebeb;}.cls-11{fill:#bdbdbd;}.cls-12{fill:#434343;}.cls-13{fill:#33ab40;}.cls-14{fill:#585858;}.cls-15{fill:#ced0d0;}.cls-16{fill:#ed4f23;}.cls-17{opacity:0.4;isolation:isolate;}.cls-18{fill:#f4f5f5;}.cls-19{fill:#353535;}.cls-20{fill:#424242;}.cls-21{fill:#c6c6c6;}.cls-22{fill:#d4d4d4;}.cls-23{fill:#eee;}.cls-24{fill:#919191;}.cls-25{fill:#ed4c06;}</style></defs><title>Artboard 1</title><rect class="cls-1" y="460" width="560" height="540"/><path class="cls-2" d="M254.9,575.4V580H253V568.6h3.2a5.71,5.71,0,0,1,3.3.8,3.1,3.1,0,0,1,1.1,2.5,3.05,3.05,0,0,1-2.2,3l3.2,5.1h-2.1l-2.7-4.6h-1.9Zm0-1.5h1.3a3.09,3.09,0,0,0,1.9-.5,1.93,1.93,0,0,0,0-2.8,3.36,3.36,0,0,0-1.9-.4H255v3.7Z"/><path class="cls-2" d="M266.8,580.2a4.38,4.38,0,0,1-3.2-1.2,4.32,4.32,0,0,1-1.1-3.2,4.86,4.86,0,0,1,1.1-3.3,3.7,3.7,0,0,1,2.9-1.2,3.62,3.62,0,0,1,2.7,1,3.8,3.8,0,0,1,1,2.9v1h-5.8a2.74,2.74,0,0,0,.7,1.9,2.14,2.14,0,0,0,1.8.7,6.15,6.15,0,0,0,1.4-.1,12.12,12.12,0,0,0,1.4-.5v1.5a5.78,5.78,0,0,1-1.4.5A7.44,7.44,0,0,0,266.8,580.2Zm-.3-7.6a1.68,1.68,0,0,0-1.4.6,2.58,2.58,0,0,0-.6,1.6h3.9a2.35,2.35,0,0,0-.5-1.6A1.82,1.82,0,0,0,266.5,572.6Z"/><path class="cls-2" d="M275.7,580.2a4.08,4.08,0,0,1-3-1.1,4.66,4.66,0,0,1-1-3.3,5,5,0,0,1,1.1-3.4,3.85,3.85,0,0,1,3.1-1.2,7,7,0,0,1,2.5.5l-.6,1.5a5.94,5.94,0,0,0-1.9-.5c-1.5,0-2.2,1-2.2,3a3.4,3.4,0,0,0,.6,2.2,1.86,1.86,0,0,0,1.6.7,4.65,4.65,0,0,0,2.3-.6v1.6a3.58,3.58,0,0,1-1.1.4A5.22,5.22,0,0,1,275.7,580.2Z"/><path class="cls-2" d="M284,580.2a4.38,4.38,0,0,1-3.2-1.2,4.32,4.32,0,0,1-1.1-3.2,4.86,4.86,0,0,1,1.1-3.3,3.7,3.7,0,0,1,2.9-1.2,3.62,3.62,0,0,1,2.7,1,3.8,3.8,0,0,1,1,2.9v1h-5.8a2.74,2.74,0,0,0,.7,1.9,2.14,2.14,0,0,0,1.8.7,6.15,6.15,0,0,0,1.4-.1,12.12,12.12,0,0,0,1.4-.5v1.5a5.78,5.78,0,0,1-1.4.5A7.49,7.49,0,0,0,284,580.2Zm-.4-7.6a1.68,1.68,0,0,0-1.4.6,2.58,2.58,0,0,0-.6,1.6h3.9a2.35,2.35,0,0,0-.5-1.6A1.68,1.68,0,0,0,283.6,572.6Z"/><path class="cls-2" d="M297,580h-1.8v-5.3a2.08,2.08,0,0,0-.4-1.5,1.73,1.73,0,0,0-1.3-.5,1.94,1.94,0,0,0-1.7.7,3.57,3.57,0,0,0-.5,2.3V580h-1.8v-8.6h1.4l.3,1.1h.1a3.57,3.57,0,0,1,1.1-1,4.15,4.15,0,0,1,1.6-.3c2.1,0,3.1,1.1,3.1,3.2V580Z"/><path class="cls-2" d="M302.8,578.7a5.85,5.85,0,0,0,1.3-.2v1.4a1.88,1.88,0,0,1-.8.2c-.3,0-.7.1-1,.1-1.7,0-2.6-.9-2.6-2.8v-4.7h-1.2v-.8l1.3-.7.6-1.8h1.1v1.9H304v1.4h-2.5v4.6a1.49,1.49,0,0,0,.3,1A1.28,1.28,0,0,0,302.8,578.7Z"/><rect class="cls-3" x="28" y="573" width="208" height="2"/><g id="Rectangle_13_copy" data-name="Rectangle 13 copy"><rect class="cls-3" x="324" y="573" width="208" height="2"/></g><g id="Rounded_Rectangle_4" data-name="Rounded Rectangle 4"><path class="cls-4" d="M32,607H528a4,4,0,0,1,4,4v99.2a4,4,0,0,1-4,4H32a4,4,0,0,1-4-4V611A4,4,0,0,1,32,607Z"/><path class="cls-3" d="M528,715.2H32a5,5,0,0,1-5-5V611a5,5,0,0,1,5-5H528a5,5,0,0,1,5,5v99.2A5,5,0,0,1,528,715.2ZM32,608a3,3,0,0,0-3,3v99.2a3,3,0,0,0,3,3H528a3,3,0,0,0,3-3V611a3,3,0,0,0-3-3Z"/></g><g id="Rounded_Rectangle_5" data-name="Rounded Rectangle 5"><path class="cls-5" d="M39.3,617.9H91.6a2,2,0,0,1,2,2v51.9a2,2,0,0,1-2,2H39.3a2,2,0,0,1-2-2V619.9A2,2,0,0,1,39.3,617.9Z"/></g><path class="cls-6" d="M112.4,621h247v24.9h-247Z"/><g id="Rectangle_11_copy_6" data-name="Rectangle 11 copy 6"><path class="cls-7" d="M112,682.4H297.1v16.3H112Z"/></g><g id="Rectangle_11_copy_7" data-name="Rectangle 11 copy 7"><path class="cls-7" d="M112,655.9H323.6v16.3H112Z"/></g><path class="cls-7" d="M500.5,641.1c-.9,0-1.8-.1-2.7-.1a19.25,19.25,0,0,1-8.6,4.5,15.53,15.53,0,0,1-2.1.4,1,1,0,0,1-.9-.7h0c-.1-.5.2-.7.5-1.1a11.54,11.54,0,0,0,3.4-5.5c-3.8-2.2-6.3-5.5-6.3-9.3,0-6.6,7.5-11.9,16.7-11.9s16.7,5.3,16.7,11.9S509.8,641.1,500.5,641.1Z"/><path d="M76.5,646.5a1.58,1.58,0,0,1-1.6,1.6H68.2v6.7a1.58,1.58,0,0,1-1.6,1.6H63.5a1.58,1.58,0,0,1-1.6-1.6v-6.7H55.2a1.58,1.58,0,0,1-1.6-1.6v-3.1a1.58,1.58,0,0,1,1.6-1.6H62v-6.7a1.58,1.58,0,0,1,1.6-1.6h3.1a1.58,1.58,0,0,1,1.6,1.6v6.7H75a1.58,1.58,0,0,1,1.6,1.6v3.1Z"/><g id="Rounded_Rectangle_4-2" data-name="Rounded Rectangle 4-2"><path class="cls-4" d="M32,731.3H528a4,4,0,0,1,4,4V861.7a4,4,0,0,1-4,4H32a4,4,0,0,1-4-4V735.3A4,4,0,0,1,32,731.3Z"/><path class="cls-3" d="M528,866.7H32a5,5,0,0,1-5-5V735.3a5,5,0,0,1,5-5H528a5,5,0,0,1,5,5V861.7A5,5,0,0,1,528,866.7ZM32,732.3a3,3,0,0,0-3,3V861.7a3,3,0,0,0,3,3H528a3,3,0,0,0,3-3V735.3a3,3,0,0,0-3-3Z"/></g><g id="Rounded_Rectangle_5-2" data-name="Rounded Rectangle 5-2"><path class="cls-8" d="M39.3,742.2H91.6a2,2,0,0,1,2,2v51.9a2,2,0,0,1-2,2H39.3a2,2,0,0,1-2-2V744.2A2,2,0,0,1,39.3,742.2Z"/></g><path class="cls-6" d="M112,745.3H404.4v24.9H112Z"/><g id="Rectangle_11_copy" data-name="Rectangle 11 copy"><path class="cls-7" d="M112,780.2H427.8v16.3H112Z"/></g><g id="Rectangle_11_copy_4" data-name="Rectangle 11 copy 4"><path class="cls-7" d="M112,833.1H311.1v16.3H112Z"/></g><g id="Rectangle_11_copy_2" data-name="Rectangle 11 copy 2"><path class="cls-7" d="M112,806.7H269.9V823H112Z"/></g><path class="cls-7" d="M500.5,765.4c-.9,0-1.8-.1-2.7-.1a19.25,19.25,0,0,1-8.6,4.5,15.53,15.53,0,0,1-2.1.4,1,1,0,0,1-.9-.7h0c-.1-.5.2-.7.5-1.1a11.54,11.54,0,0,0,3.4-5.5c-3.8-2.2-6.3-5.5-6.3-9.3,0-6.6,7.5-11.9,16.7-11.9s16.7,5.3,16.7,11.9S509.8,765.4,500.5,765.4Z"/><path d="M77.2,766.1,65.5,777.8,63.3,780a1.46,1.46,0,0,1-2.2,0l-2.2-2.2L53,771.9a1.46,1.46,0,0,1,0-2.2l2.2-2.2a1.46,1.46,0,0,1,2.2,0l4.8,4.8,10.6-10.6a1.46,1.46,0,0,1,2.2,0l2.2,2.2a1.46,1.46,0,0,1,0,2.2Z"/><g id="Rounded_Rectangle_4-3" data-name="Rounded Rectangle 4-3"><path class="cls-4" d="M32,882.8H528a4,4,0,0,1,4,4V986a4,4,0,0,1-4,4H32a4,4,0,0,1-4-4V886.8A4,4,0,0,1,32,882.8Z"/><path class="cls-3" d="M528,991H32a5,5,0,0,1-5-5V886.8a5,5,0,0,1,5-5H528a5,5,0,0,1,5,5V986A5,5,0,0,1,528,991ZM32,883.8a3,3,0,0,0-3,3V986a3,3,0,0,0,3,3H528a3,3,0,0,0,3-3V886.8a3,3,0,0,0-3-3Z"/></g><g id="Rounded_Rectangle_5-3" data-name="Rounded Rectangle 5-3"><path class="cls-9" d="M39.3,893.7H91.6a2,2,0,0,1,2,2v51.9a2,2,0,0,1-2,2H39.3a2,2,0,0,1-2-2V895.7A2,2,0,0,1,39.3,893.7Z"/></g><path class="cls-6" d="M112,896.8h99.6v24.9H112Z"/><g id="Rectangle_11_copy_8" data-name="Rectangle 11 copy 8"><path class="cls-7" d="M112,958.1H311.1v16.3H112Z"/></g><g id="Rectangle_11_copy_9" data-name="Rectangle 11 copy 9"><path class="cls-7" d="M112,931.7H383.4V948H112Z"/></g><path class="cls-7" d="M500.5,916.9c-.9,0-1.8-.1-2.7-.1a19.25,19.25,0,0,1-8.6,4.5,15.53,15.53,0,0,1-2.1.4,1,1,0,0,1-.9-.7h0c-.1-.5.2-.7.5-1.1a11.54,11.54,0,0,0,3.4-5.5c-3.8-2.2-6.3-5.5-6.3-9.3,0-6.6,7.5-11.9,16.7-11.9s16.7,5.3,16.7,11.9S509.8,916.9,500.5,916.9Z"/><path d="M78.6,916.1v18.7a1.58,1.58,0,0,1-1.6,1.6H55.2a1.58,1.58,0,0,1-1.6-1.6V908.9a1.58,1.58,0,0,1,1.6-1.6H69.7a4.36,4.36,0,0,1,2.7,1.1l5.1,5.1A3.88,3.88,0,0,1,78.6,916.1Zm-2.1,1.6H69.8a1.58,1.58,0,0,1-1.6-1.6v-6.7H55.8v24.9H76.6V917.7Zm-6.2-2.1h6.1c-.1-.3-.2-.6-.4-.7l-5.1-5.1a2.15,2.15,0,0,0-.7-.4v6.2Z"/><g id="Background"><path class="cls-4" d="M32,487H528a4,4,0,0,1,4,4v49a4,4,0,0,1-4,4H32a4,4,0,0,1-4-4V491A4,4,0,0,1,32,487Z"/><path class="cls-10" d="M528,545H32a5,5,0,0,1-5-5V491a5,5,0,0,1,5-5H528a5,5,0,0,1,5,5v49A5,5,0,0,1,528,545ZM32,488a3,3,0,0,0-3,3v49a3,3,0,0,0,3,3H528a3,3,0,0,0,3-3V491a3,3,0,0,0-3-3Z"/></g><rect class="cls-5" x="30" y="489" width="7" height="53"/><g id="text"><rect class="cls-5" x="112" y="504" width="235" height="24"/></g><path class="cls-5" d="M86.2,515.5a13,13,0,1,1-13-12.9A13,13,0,0,1,86.2,515.5Zm-8.7-3.9c.1,0,.2-.3.2-.4a1.38,1.38,0,0,1,.4-.3,2.92,2.92,0,0,1,.9-.2.8.8,0,0,1,.9.2c-.1-.1.4-.4.4-.4.2-.1.4-.1.5-.2v-.4c-.3,0-.4-.2-.4-.5a.1.1,0,0,1-.1.1c0-.3-.3-.1-.4-.1-.4-.1-.3-.4-.5-.7s-.3-.2-.3-.4-.1-.3-.3-.3-.3.4-.3.3c-.2-.1-.2,0-.3.1s-.2,0-.3.1c.3-.1-.1-.3-.3-.2.2-.1.1-.3,0-.4h.1c0-.2-.5-.3-.7-.4s-1-.3-1.1-.2.1.5.1.6-.2.3-.2.4c0,.3.5.2.4.6-.1.2-.4.3-.5.5a.48.48,0,0,0,.2.6c.1.1-.2.3-.3.3-.3.1-.5-.3-.6-.5s-.1-.4-.3-.5-.4-.1-.5,0c-.1-.3-.5-.4-.7-.4a3.08,3.08,0,0,0-1-.1c.1,0,0-.5-.3-.5a1.09,1.09,0,0,0,.1-.5.76.76,0,0,1,.2-.4c0-.1.4-.5.3-.5a1.08,1.08,0,0,0,.8-.2c.2-.2.2-.4.4-.6s.5.1.7.1.3-.4.1-.5c.2,0,0-.4-.1-.4s-.7.1-.4.2c-.1,0-.5.8-.7.4-.1-.1-.1-.4-.3-.5s-.2.2-.3.3c.1-.2-.5-.4-.6-.4.3-.2.1-.4-.1-.5s-.6-.2-.7,0c-.3.4.3.4.5.5s.3.2.1.2-.4.1-.4.2.1.3,0,.5c-.2-.2-.2-.4-.3-.6.2.2-.6.1-.6.1-.3,0-.7.2-.8-.1,0-.1,0-.5.1-.4a1.38,1.38,0,0,1-.4-.3,7.74,7.74,0,0,0-1.6.7h.2c.1-.1.3-.1.4-.2s.5-.3.7-.1l.1-.1c.1.1.2.3.3.4-.1-.1-.4,0-.5,0a.76.76,0,0,0-.4.2.37.37,0,0,1,.1.3,1,1,0,0,0-.7-.4H68a11.83,11.83,0,0,0-4,3.7c.1.1.1.1.2.1s0,.5.3.3a.37.37,0,0,1,.1.3s.7.4.7.5.3.2.4.4-.1.3-.2.3-.3-.3-.3-.2,0,.5.2.5c-.3,0-.2,1.1-.2,1.3h0c-.1.2.1,1,.5.9-.2,0,.4.8.5.9s.5.3.6.5.2.6.4.8c-.1.2.4.4.3.7h-.1c.1.2.4.2.5.5.1.1,0,.5.2.4a1.78,1.78,0,0,0-.4-1c-.1-.2-.2-.3-.3-.5s-.1-.3-.2-.5a1.47,1.47,0,0,1,.4.2c-.1.3.5.9.7,1.1s.4.6.2.6c.2,0,.5.3.6.5s.1.6.2.8.6.5.8.6a4.35,4.35,0,0,0,.7.4c.4.1.4,0,.7,0s.5.4.8.6.7.3.9.2c-.1,0,.4.7.4.8.2.2.4.3.6.5.1,0,.1-.1.1-.2-.1.2.3.5.4.5s.2-.4.2-.5c-.3.2-.6,0-.8-.3,0-.1-.3-.6-.1-.6s.1-.3.1-.5-.3-.4-.4-.6a.28.28,0,0,1-.5,0c0,.1-.1.1-.1.2h-.3c0-.2.1-.5.1-.7s.6-.9-.1-.9c-.3,0-.4.1-.4.3s-.1.4-.3.5a1.06,1.06,0,0,1-.8-.1,1.61,1.61,0,0,1-.5-1.1c0-.5.2-.9,0-1.3.1-.1.2-.3.3-.3s.2.1.3-.2a.1.1,0,0,1-.1-.1c.3.1.7-.2.9,0a.3.3,0,0,0,.4,0c0-.1-.1-.3-.1-.4.1.3.2.3.5.2.1.1.4.1.6.2s.2.3.4.1c.1.2.2.2.2.4s.2.7.3.7c.4.2.3-.4.2-.6V516c-.5-.1-.3-.5,0-.8a3.29,3.29,0,0,0,.6-.3.71.71,0,0,0,.3-.6.22.22,0,0,0,.2-.2c-.1,0-.3-.2-.3-.2a.19.19,0,0,0,0-.3c.2-.1.1-.3.3-.4.2.3.6,0,.4-.2.2-.2.6-.1.7-.3.3.1.1-.3.2-.4s.3-.2.5-.2c0,0,.4-.2.3-.3.3,0,.9-.3.4-.5.1-.2-.2-.2-.3-.3h.4c.2-.2.1-.2-.1-.3s-.5.1-.7.2C77.7,511.4,77.6,511.6,77.5,511.6ZM81,522.9a.6.6,0,0,0-.4-.1c-.1-.1-.2-.1-.4-.1,0-.3-.3-.5-.6-.6s-.4-.4-.7-.3c0,0-.4.1-.3.2a1.28,1.28,0,0,0-.6-.4c-.3-.1-.5-.4-.7-.1a.75.75,0,0,0-.1.5c-.2-.2.2-.4,0-.6s-.6.2-.7.3-.2.1-.3.2-.1.3-.2.4c-.1-.1-.3-.1-.4-.2.1.4.1.8.2,1.2a.83.83,0,0,1-.2.8c-.2.2-.5.4-.5.7s0,.4.2.4c0,.3-.3.4-.3.7v.3A12.17,12.17,0,0,0,81,522.9Z"/><path class="cls-11" d="M500.4,522.8a.67.67,0,0,1-1,0l-8.6-8.6a.78.78,0,0,1,0-1.1l1.9-1.9a.67.67,0,0,1,1,0l6.1,6.1,6.1-6.1a.67.67,0,0,1,1,0l1.9,1.9a.78.78,0,0,1,0,1.1Z"/><rect class="cls-12" y="-3" width="560" height="466"/><path class="cls-5" d="M207.6,328.5c-39.76,0-72.1-32.7-72.1-72.9a73,73,0,0,1,20.06-50.41,72,72,0,0,1,52-22.4c1.34,0,2.73,0,4.17.11,38.06,2.21,67.93,34.15,67.93,72.69C279.7,295.8,247.36,328.5,207.6,328.5Zm0-138.7a65,65,0,0,0-47,20.21A66.08,66.08,0,0,0,142.5,255.6c0,36.34,29.2,65.9,65.1,65.9s65.1-29.56,65.1-65.9c0-34.84-27-63.7-61.4-65.71C210.07,189.8,208.87,189.8,207.6,189.8Z"/><g id="Shape_2_copy" data-name="Shape 2 copy"><path class="cls-12" d="M164.8,215c-2.9-3.5-7.1-8.5-10.7-13.4,8.4-20.3,36.3-29.6,56.5-21.8.2,9.8-.3,11.2-.2,18.1C191,194.4,175.1,201.1,164.8,215Z"/></g><path class="cls-13" d="M163.9,206.4c-1.4-1.5-2.7-3.1-4-4.7,10.9-11,30.4-18.7,45.5-18,.3,4.2.3,2.9.4,6.1C190.4,190.5,175.9,196.7,163.9,206.4Z"/><path class="cls-4" d="M181.2,226.5a12.23,12.23,0,0,1,7.1,1.8,6,6,0,0,1,2.5,5.2,6.76,6.76,0,0,1-1.2,4,8.49,8.49,0,0,1-3.8,3,14.69,14.69,0,0,1,4.5,3.6,6.31,6.31,0,0,1,1.3,3.9,7,7,0,0,1-2.8,6,12.57,12.57,0,0,1-7.7,2.1q-5.1,0-7.8-2.1a7.15,7.15,0,0,1-2.7-6,7.5,7.5,0,0,1,1.2-4.3,9.58,9.58,0,0,1,4-3.2,10.35,10.35,0,0,1-3.3-3.3,7.56,7.56,0,0,1-1-3.9,6.22,6.22,0,0,1,2.6-5.2A13.81,13.81,0,0,1,181.2,226.5Zm-3.4,21.4a2.52,2.52,0,0,0,.9,2,3.61,3.61,0,0,0,2.4.7c2.3,0,3.5-.9,3.5-2.6a3.15,3.15,0,0,0-.8-1.9,11.45,11.45,0,0,0-2.7-2.1,6.54,6.54,0,0,0-2.5,1.9A2.87,2.87,0,0,0,177.8,247.9Zm3.3-15.8a2.52,2.52,0,0,0-1.7.6,1.8,1.8,0,0,0-.7,1.5c0,1.1.8,2.1,2.3,3a5.21,5.21,0,0,0,1.9-1.5,2.69,2.69,0,0,0,.5-1.5,1.8,1.8,0,0,0-.7-1.5A2.11,2.11,0,0,0,181.1,232.1Z"/><path class="cls-4" d="M205.9,236.9a8.92,8.92,0,0,1,4.5,1.2,8.22,8.22,0,0,1,3.1,3.3,10.73,10.73,0,0,1,1.1,4.9,9.86,9.86,0,0,1-2.9,7.5c-1.9,1.7-4.9,2.6-8.8,2.6a17.88,17.88,0,0,1-8.2-1.6v-6.4a17.81,17.81,0,0,0,3.9,1.3,19,19,0,0,0,3.7.5,5.39,5.39,0,0,0,3.3-.9,3.16,3.16,0,0,0,1.2-2.7,3.09,3.09,0,0,0-1.2-2.6,6,6,0,0,0-3.6-.9,11.51,11.51,0,0,0-3.9.7l-2.8-1.4,1.1-15.3h16.4v6.5H203l-.4,3.8a12.22,12.22,0,0,1,2.2-.3A2,2,0,0,1,205.9,236.9Z"/><path class="cls-4" d="M231.9,235.6c0,2.9-.6,5.2-1.9,6.8a6.64,6.64,0,0,1-5.5,2.4,6.19,6.19,0,0,1-5.3-2.5,10.49,10.49,0,0,1-2-6.7c0-2.9.6-5.1,1.9-6.7a6.5,6.5,0,0,1,5.4-2.3A6.91,6.91,0,0,1,230,229,10.17,10.17,0,0,1,231.9,235.6Zm-8.9,0a9.15,9.15,0,0,0,.4,3.3c.2.7.6,1,1.1,1s.9-.3,1.1-1a12.18,12.18,0,0,0,.4-3.3,9.15,9.15,0,0,0-.4-3.3c-.2-.7-.6-1-1.1-1s-.9.3-1.1,1A12.18,12.18,0,0,0,223,235.6Zm23.2-8.7-15.9,29h-5.8l15.9-29Zm7.6,20.2a10.29,10.29,0,0,1-2,6.7,6.64,6.64,0,0,1-5.5,2.4,6.19,6.19,0,0,1-5.3-2.5,10.49,10.49,0,0,1-2-6.7c0-2.9.6-5.1,1.9-6.7a6.5,6.5,0,0,1,5.4-2.3,6.91,6.91,0,0,1,5.5,2.4A10.68,10.68,0,0,1,253.8,247.1Zm-8.9.1a9.15,9.15,0,0,0,.4,3.3c.2.7.6,1,1.1,1s1-.4,1.2-1.2a13,13,0,0,0,.3-3.1,12.39,12.39,0,0,0-.3-3.1q-.3-1.2-1.2-1.2c-.5,0-.9.3-1.1,1A9.15,9.15,0,0,0,244.9,247.2Z"/><path class="cls-4" d="M167.4,267.9a3.22,3.22,0,0,0-2.6,1.2,5.27,5.27,0,0,0-.9,3.2,5.39,5.39,0,0,0,.9,3.3,3.31,3.31,0,0,0,2.6,1.1,6.15,6.15,0,0,0,1.4-.1,10.26,10.26,0,0,0,1.4-.4v1.6a9.59,9.59,0,0,1-3.1.5,4.72,4.72,0,0,1-3.9-1.6,6.45,6.45,0,0,1-1.4-4.4,6.57,6.57,0,0,1,.7-3.2,4.84,4.84,0,0,1,1.9-2.1,5.43,5.43,0,0,1,2.9-.7,7.31,7.31,0,0,1,3.3.8l-.7,1.6a7.85,7.85,0,0,0-2.5-.8Z"/><path class="cls-4" d="M174.4,278.1h-1.9V265.7h1.9Z"/><path class="cls-4" d="M184.8,273.7a5.14,5.14,0,0,1-1.1,3.4,4,4,0,0,1-3.1,1.2,4.28,4.28,0,0,1-2.2-.6,3.64,3.64,0,0,1-1.4-1.6,6,6,0,0,1-.5-2.4,5.14,5.14,0,0,1,1.1-3.4,4,4,0,0,1,3.1-1.2,3.77,3.77,0,0,1,3,1.2A5.33,5.33,0,0,1,184.8,273.7Zm-6.4,0c0,2,.7,3.1,2.2,3.1s2.2-1,2.2-3.1-.7-3-2.2-3a2,2,0,0,0-1.7.8A4.2,4.2,0,0,0,178.4,273.7Z"/><path class="cls-4" d="M192.8,275.6a2.38,2.38,0,0,1-.9,2,4.15,4.15,0,0,1-2.7.7,7,7,0,0,1-2.8-.5v-1.6a6.48,6.48,0,0,0,2.9.7c1.1,0,1.7-.3,1.7-1a1.42,1.42,0,0,0-.2-.6,3.81,3.81,0,0,0-.6-.5,7.26,7.26,0,0,0-1.2-.5,4.92,4.92,0,0,1-2-1.2,2,2,0,0,1-.5-1.5,2.14,2.14,0,0,1,.9-1.8,4.4,4.4,0,0,1,2.5-.6,7.17,7.17,0,0,1,2.9.6l-.6,1.4a6,6,0,0,0-2.4-.6c-1,0-1.5.3-1.5.8a.75.75,0,0,0,.4.7,6.78,6.78,0,0,0,1.7.8,7.88,7.88,0,0,1,1.6.8,1.78,1.78,0,0,1,.7.8C192.7,274.8,192.8,275.2,192.8,275.6Z"/><path class="cls-4" d="M198.6,278.3a4.22,4.22,0,0,1-3.2-1.2,4.46,4.46,0,0,1-1.2-3.3,5.14,5.14,0,0,1,1.1-3.4,3.7,3.7,0,0,1,2.9-1.2,3.39,3.39,0,0,1,2.7,1.1,4,4,0,0,1,1,2.9v1h-5.8a3,3,0,0,0,.7,2,2.14,2.14,0,0,0,1.8.7,6.15,6.15,0,0,0,1.4-.1,12.13,12.13,0,0,0,1.4-.5v1.5a7.84,7.84,0,0,1-1.4.5A6.26,6.26,0,0,0,198.6,278.3Zm-.3-7.8a1.68,1.68,0,0,0-1.4.6,2.65,2.65,0,0,0-.6,1.7h4a2.86,2.86,0,0,0-.5-1.7A2,2,0,0,0,198.3,270.5Z"/><path class="cls-4" d="M210.4,273.5v4.7h-1.9V266.5h3.3a5.71,5.71,0,0,1,3.3.8,3,3,0,0,1,1.1,2.6A3.09,3.09,0,0,1,214,273l3.3,5.2h-2.2l-2.8-4.7Zm0-1.6h1.3a3.09,3.09,0,0,0,1.9-.5,1.75,1.75,0,0,0,.6-1.5,1.56,1.56,0,0,0-.6-1.4,3.36,3.36,0,0,0-1.9-.4h-1.3Z"/><path class="cls-4" d="M224.2,278.1l-.4-1.2h-.1a3.34,3.34,0,0,1-1.3,1.1,3.81,3.81,0,0,1-1.6.3,2.44,2.44,0,0,1-2.7-2.7,2.39,2.39,0,0,1,1-2.1,6.07,6.07,0,0,1,3.1-.8h1.5v-.5a1.7,1.7,0,0,0-.4-1.3,1.59,1.59,0,0,0-1.2-.4,5.85,5.85,0,0,0-1.3.2,6.12,6.12,0,0,0-1.2.5l-.6-1.3a7.58,7.58,0,0,1,1.6-.6,10,10,0,0,1,1.6-.2,3.56,3.56,0,0,1,2.5.7,2.87,2.87,0,0,1,.9,2.3v6Zm-2.8-1.3a2.06,2.06,0,0,0,2.2-2.2v-.8h-1.1a4.14,4.14,0,0,0-1.9.4,1.43,1.43,0,0,0-.6,1.2,1.22,1.22,0,0,0,.3.9A1.88,1.88,0,0,0,221.4,276.8Z"/><path class="cls-4" d="M231.4,276.8a6.75,6.75,0,0,0,1.4-.2V278a1.88,1.88,0,0,1-.8.2c-.3,0-.7.1-1,.1-1.8,0-2.6-.9-2.6-2.8v-4.8h-1.2v-.8l1.3-.7.6-1.9h1.1v2h2.5v1.4h-2.5v4.7a1.33,1.33,0,0,0,.3,1A1.27,1.27,0,0,0,231.4,276.8Z"/><path class="cls-4" d="M238.3,278.3a4.22,4.22,0,0,1-3.2-1.2,4.46,4.46,0,0,1-1.2-3.3,5.14,5.14,0,0,1,1.1-3.4,3.7,3.7,0,0,1,2.9-1.2,3.39,3.39,0,0,1,2.7,1.1,4,4,0,0,1,1,2.9v1h-5.8a3,3,0,0,0,.7,2,2.14,2.14,0,0,0,1.8.7,6.15,6.15,0,0,0,1.4-.1,12.13,12.13,0,0,0,1.4-.5v1.5a7.84,7.84,0,0,1-1.4.5A6.39,6.39,0,0,0,238.3,278.3Zm-.3-7.8a1.68,1.68,0,0,0-1.4.6,2.65,2.65,0,0,0-.6,1.7h4a2.86,2.86,0,0,0-.5-1.7A2.2,2.2,0,0,0,238,270.5Z"/><path class="cls-14" d="M317.7,203.6H420V227H317.7Z"/><g id="Rectangle_4_copy" data-name="Rectangle 4 copy"><path class="cls-5" d="M317.7,242.2H420v23.5H317.7Z"/></g><g id="Rectangle_4_copy_2" data-name="Rectangle 4 copy 2"><path class="cls-13" d="M317.7,280.8H420v23.4H317.7Z"/></g><path class="cls-4" d="M68.9,386.6a7.41,7.41,0,0,1-2.8,6.1,13.89,13.89,0,0,1-7.8,2.8v4.9H55v-4.8a27,27,0,0,1-10.3-2.1v-6.3a26.31,26.31,0,0,0,5,1.8,29.37,29.37,0,0,0,5.3.9v-7.5l-1.6-.6c-3.2-1.3-5.4-2.6-6.8-4.1a8,8,0,0,1-2-5.4,7.1,7.1,0,0,1,2.7-5.7,13.76,13.76,0,0,1,7.6-2.7v-3.7h3.3v3.6a28.73,28.73,0,0,1,10,2.2l-2.3,5.6a26.33,26.33,0,0,0-7.7-1.9v7.1a36.46,36.46,0,0,1,6.7,3.1,10,10,0,0,1,2.9,2.9A6.48,6.48,0,0,1,68.9,386.6ZM52,372.4a2.06,2.06,0,0,0,.7,1.7,8.4,8.4,0,0,0,2.4,1.4v-5.7C53,370.2,52,371,52,372.4ZM61.7,387a2.29,2.29,0,0,0-.8-1.7,9.22,9.22,0,0,0-2.5-1.4v6C60.6,389.5,61.7,388.5,61.7,387Z"/><path class="cls-4" d="M72.5,382.7c0-7,1.5-12.1,4.4-15.5s7.4-5.1,13.2-5.1a19.46,19.46,0,0,1,4.7.4v5.9a20.07,20.07,0,0,0-4.2-.5,13.68,13.68,0,0,0-6.2,1.2,7.92,7.92,0,0,0-3.6,3.4,14.82,14.82,0,0,0-1.4,6.4h.3a8.19,8.19,0,0,1,7.6-4.1,9.5,9.5,0,0,1,7.4,3c1.8,2,2.7,4.7,2.7,8.2a12.27,12.27,0,0,1-3.2,8.9c-2.1,2.2-5.1,3.3-8.8,3.3a11.68,11.68,0,0,1-11.3-7.1A19.68,19.68,0,0,1,72.5,382.7Zm12.7,9.5a4.44,4.44,0,0,0,3.7-1.6,7,7,0,0,0,1.3-4.6,6.45,6.45,0,0,0-1.2-4.1,4.33,4.33,0,0,0-3.6-1.5,5.61,5.61,0,0,0-3.9,1.5,4.4,4.4,0,0,0-1.6,3.4,7.64,7.64,0,0,0,1.5,4.8A4.55,4.55,0,0,0,85.2,392.2Z"/><path class="cls-4" d="M113.7,375.2a11.3,11.3,0,0,1,8.1,2.9,10.25,10.25,0,0,1,3,7.8c0,3.9-1.2,6.9-3.6,9.1s-5.9,3.2-10.4,3.2c-3.9,0-7.1-.6-9.5-1.9v-6.4a17.5,17.5,0,0,0,4.4,1.6,21,21,0,0,0,4.8.6c4.5,0,6.8-1.9,6.8-5.6,0-3.5-2.4-5.3-7.1-5.3a14.07,14.07,0,0,0-2.8.3c-1,.2-1.9.3-2.5.5l-3-1.6,1.3-17.9h19.1v6.3H109.7l-.7,6.9.8-.2A23.76,23.76,0,0,1,113.7,375.2Z"/><path class="cls-4" d="M155,397.6h-7.3V381.9a7.75,7.75,0,0,0-1-4.4,3.39,3.39,0,0,0-3.1-1.5,4.47,4.47,0,0,0-4.1,2.1c-.9,1.4-1.3,3.6-1.3,6.8v12.6h-7.3V370.6h5.6l1,3.4h.4a7.89,7.89,0,0,1,3.1-2.9,10.15,10.15,0,0,1,4.7-1c4,0,6.8,1.3,8.2,3.9h.7a7,7,0,0,1,3.2-2.9,10.58,10.58,0,0,1,4.8-1c3.1,0,5.4.8,6.9,2.3s2.3,4.1,2.3,7.5v17.5h-7.4V381.7a7.75,7.75,0,0,0-1-4.4,3.39,3.39,0,0,0-3.1-1.5,4.47,4.47,0,0,0-4,1.9c-.9,1.3-1.3,3.3-1.3,6.1v13.8Z"/><path class="cls-15" d="M39.5,417.2h1.3L38.1,425H36.8l-2.7-7.8h1.3l1.6,4.9a4.65,4.65,0,0,1,.3.9,4.5,4.5,0,0,1,.2.8,2.92,2.92,0,0,1,.2-.9,3.09,3.09,0,0,0,.2-.8Z"/><path class="cls-15" d="M45.4,425l-.3-.8h0a1.85,1.85,0,0,1-.9.7,3.59,3.59,0,0,1-1.1.2,2.17,2.17,0,0,1-1.4-.5,1.9,1.9,0,0,1-.5-1.3,1.51,1.51,0,0,1,.7-1.4,3.81,3.81,0,0,1,2.1-.5h1v-.3c0-.4-.1-.7-.3-.8a1.14,1.14,0,0,0-.8-.3,2.77,2.77,0,0,0-.9.1c-.3.1-.5.2-.8.3l-.4-.9a3.58,3.58,0,0,1,1.1-.4A4.1,4.1,0,0,1,44,419a2.65,2.65,0,0,1,1.7.5,1.75,1.75,0,0,1,.6,1.5v4h-.9Zm-1.9-.9a1.38,1.38,0,0,0,1.5-1.5v-.5h-.8a2.27,2.27,0,0,0-1.3.3.81.81,0,0,0-.4.8.85.85,0,0,0,.2.6A.91.91,0,0,0,43.5,424.1Z"/><path class="cls-15" d="M49.3,425H48v-8.3h1.3Z"/><path class="cls-15" d="M55.3,425l-.2-.8H55a1.34,1.34,0,0,1-.7.6,2,2,0,0,1-1.1.2,2.35,2.35,0,0,1-1.6-.5,2.07,2.07,0,0,1-.5-1.6V419h1.3v3.6a1.33,1.33,0,0,0,.3,1,1.22,1.22,0,0,0,.9.3,1.66,1.66,0,0,0,1.2-.5,2.83,2.83,0,0,0,.4-1.6v-2.9h1.3v5.9H55.3Z"/><path class="cls-15" d="M60.7,425.1a3.29,3.29,0,0,1-2.2-.8,3.11,3.11,0,0,1-.8-2.2,3.33,3.33,0,0,1,.7-2.3,2.32,2.32,0,0,1,2-.8,2.49,2.49,0,0,1,1.9.7,2.58,2.58,0,0,1,.7,2v.7H59a1.73,1.73,0,0,0,.5,1.3,1.66,1.66,0,0,0,1.2.5,3.4,3.4,0,0,0,1-.1c.3-.1.6-.2,1-.3v1l-.9.3A4,4,0,0,1,60.7,425.1Zm-.3-5.2a1.28,1.28,0,0,0-1,.4,1.82,1.82,0,0,0-.4,1.1h2.7a1.25,1.25,0,0,0-.4-1.1A1.1,1.1,0,0,0,60.4,419.9Z"/><path class="cls-15" d="M72.5,422a3.33,3.33,0,0,1-.7,2.3,2.86,2.86,0,0,1-2.1.8,2.6,2.6,0,0,1-1.5-.4,2.17,2.17,0,0,1-1-1.1,4.15,4.15,0,0,1-.3-1.6,2.92,2.92,0,0,1,.7-2.2,2.86,2.86,0,0,1,2.1-.8,2.63,2.63,0,0,1,2,.8A3.11,3.11,0,0,1,72.5,422Zm-4.3,0c0,1.4.5,2,1.5,2s1.5-.7,1.5-2-.5-2-1.5-2a1.29,1.29,0,0,0-1.1.5A2.41,2.41,0,0,0,68.2,422Z"/><path class="cls-15" d="M76.9,420H75.5v5H74.2v-5h-1v-.6l1-.4v-.4a2.54,2.54,0,0,1,.5-1.6,2.07,2.07,0,0,1,1.5-.5,5.85,5.85,0,0,1,1.3.2l-.3,1a2.77,2.77,0,0,0-.9-.1.6.6,0,0,0-.6.3,1.55,1.55,0,0,0-.2.8v.4h1.4Z"/><path class="cls-15" d="M86,425H84.7v-3.6a1.33,1.33,0,0,0-.3-1,1.22,1.22,0,0,0-.9-.3,1.66,1.66,0,0,0-1.2.5,2.2,2.2,0,0,0-.4,1.6v2.9H80.6v-5.9h1l.2.8H82a1.85,1.85,0,0,1,.8-.7,2,2,0,0,1,1.1-.2c1.4,0,2.1.7,2.1,2.2Z"/><path class="cls-15" d="M90.3,425.1a3.29,3.29,0,0,1-2.2-.8,3.11,3.11,0,0,1-.8-2.2,3.33,3.33,0,0,1,.7-2.3,2.32,2.32,0,0,1,2-.8,2.49,2.49,0,0,1,1.9.7,2.58,2.58,0,0,1,.7,2v.7H88.7a1.73,1.73,0,0,0,.5,1.3,1.66,1.66,0,0,0,1.2.5,3.4,3.4,0,0,0,1-.1c.3-.1.6-.2,1-.3v1l-.9.3A4.8,4.8,0,0,1,90.3,425.1Zm-.2-5.2a1.28,1.28,0,0,0-1,.4,1.82,1.82,0,0,0-.4,1.1h2.7a1.25,1.25,0,0,0-.4-1.1A1.27,1.27,0,0,0,90.1,419.9Z"/><path class="cls-15" d="M98.9,425l-.8-2.8a18.21,18.21,0,0,1-.5-2h0c-.2,1-.4,1.6-.5,2l-.8,2.7H94.9L93.2,419h1.3l.8,2.9c.2.7.3,1.3.4,1.8h0a2.92,2.92,0,0,1,.2-.9c.1-.3.1-.6.2-.8l.9-3.1h1.4l.9,3.1a4.54,4.54,0,0,1,.2.8,2.81,2.81,0,0,1,.1.8h0c.1-.4.2-1.1.4-1.8l.8-2.9h1.3l-1.7,5.9H98.9Z"/><path class="cls-15" d="M107.8,425.1a2.14,2.14,0,0,1-1.7-.8,3.71,3.71,0,0,1-.6-2.3,3.92,3.92,0,0,1,.6-2.3,2.14,2.14,0,0,1,1.7-.8,2,2,0,0,1,1.8.9h.1a4.14,4.14,0,0,1-.1-1v-2.2h1.3v8.3h-1l-.2-.8h-.1A1.9,1.9,0,0,1,107.8,425.1Zm.4-1a1.25,1.25,0,0,0,1.1-.4,2.59,2.59,0,0,0,.4-1.4v-.2a2.36,2.36,0,0,0-.4-1.6,1.43,1.43,0,0,0-1.1-.5,1.23,1.23,0,0,0-1,.5,3.31,3.31,0,0,0-.4,1.5,2.81,2.81,0,0,0,.3,1.5A1.36,1.36,0,0,0,108.2,424.1Z"/><path class="cls-15" d="M117.9,422a3.33,3.33,0,0,1-.7,2.3,2.86,2.86,0,0,1-2.1.8,2.6,2.6,0,0,1-1.5-.4,2.17,2.17,0,0,1-1-1.1,4.15,4.15,0,0,1-.3-1.6,2.92,2.92,0,0,1,.7-2.2,2.86,2.86,0,0,1,2.1-.8,2.63,2.63,0,0,1,2,.8A3.11,3.11,0,0,1,117.9,422Zm-4.3,0c0,1.4.5,2,1.5,2s1.5-.7,1.5-2-.5-2-1.5-2a1.29,1.29,0,0,0-1.1.5A2.41,2.41,0,0,0,113.6,422Z"/><path class="cls-15" d="M121.7,425.1a2.48,2.48,0,0,1-2-.8,3.07,3.07,0,0,1-.7-2.2,3.17,3.17,0,0,1,.7-2.3,2.86,2.86,0,0,1,2.1-.8,4.67,4.67,0,0,1,1.7.3l-.4,1a3.91,3.91,0,0,0-1.3-.3c-1,0-1.5.7-1.5,2a2.08,2.08,0,0,0,.4,1.5,1.43,1.43,0,0,0,1.1.5,2.93,2.93,0,0,0,1.6-.4v1.1c-.2.1-.5.2-.7.3A2.79,2.79,0,0,1,121.7,425.1Z"/><path class="cls-15" d="M129,425l-.2-.8h-.1a1.34,1.34,0,0,1-.7.6,2,2,0,0,1-1.1.2,2.35,2.35,0,0,1-1.6-.5,2.07,2.07,0,0,1-.5-1.6V419h1.3v3.6a1.33,1.33,0,0,0,.3,1,1.22,1.22,0,0,0,.9.3,1.66,1.66,0,0,0,1.2-.5,2.83,2.83,0,0,0,.4-1.6v-2.9h1.3v5.9H129Z"/><path class="cls-15" d="M136.7,425h-1.3v-3.6a1.33,1.33,0,0,0-.3-1,1,1,0,0,0-.8-.3,1.43,1.43,0,0,0-1.1.5,3,3,0,0,0-.3,1.6v2.9h-1.3v-5.9h1l.2.8h.1a2.34,2.34,0,0,1,.7-.7,2.35,2.35,0,0,1,2.8.7h.1a2.34,2.34,0,0,1,.7-.7,2,2,0,0,1,1.1-.2,2.07,2.07,0,0,1,1.5.5,2.35,2.35,0,0,1,.5,1.6v3.9H139v-3.6a1.33,1.33,0,0,0-.3-1,1,1,0,0,0-.8-.3,1.43,1.43,0,0,0-1.1.5c-.3.3-.3.8-.3,1.4V425Z"/><path class="cls-15" d="M144.8,425.1a3.29,3.29,0,0,1-2.2-.8,3.11,3.11,0,0,1-.8-2.2,3.33,3.33,0,0,1,.7-2.3,2.32,2.32,0,0,1,2-.8,2.49,2.49,0,0,1,1.9.7,2.58,2.58,0,0,1,.7,2v.7h-3.9a1.73,1.73,0,0,0,.5,1.3,1.66,1.66,0,0,0,1.2.5,3.4,3.4,0,0,0,1-.1c.3-.1.6-.2,1-.3v1l-.9.3A4.8,4.8,0,0,1,144.8,425.1Zm-.2-5.2a1.28,1.28,0,0,0-1,.4,1.82,1.82,0,0,0-.4,1.1h2.7a1.25,1.25,0,0,0-.4-1.1A1.27,1.27,0,0,0,144.6,419.9Z"/><path class="cls-15" d="M153.7,425h-1.3v-3.6a1.33,1.33,0,0,0-.3-1,1.22,1.22,0,0,0-.9-.3,1.66,1.66,0,0,0-1.2.5,2.2,2.2,0,0,0-.4,1.6v2.9h-1.3v-5.9h1l.2.8h.1a1.85,1.85,0,0,1,.8-.7,2,2,0,0,1,1.1-.2c1.4,0,2.1.7,2.1,2.2V425Z"/><path class="cls-15" d="M157.7,424.1a2.77,2.77,0,0,0,.9-.1v.9c-.1.1-.3.1-.5.2s-.4.1-.7.1c-1.2,0-1.8-.6-1.8-1.9V420h-.8v-.6l.9-.5.4-1.3h.8v1.3h1.7v1h-1.7v3.2a1.45,1.45,0,0,0,.2.7A.86.86,0,0,0,157.7,424.1Z"/><path class="cls-15" d="M163.8,423.3a1.49,1.49,0,0,1-.6,1.3,3,3,0,0,1-1.8.5,3.58,3.58,0,0,1-1.9-.4v-1.1a4.89,4.89,0,0,0,1.9.5c.8,0,1.2-.2,1.2-.7,0-.2,0-.3-.1-.4a1.38,1.38,0,0,0-.4-.3,5.9,5.9,0,0,1-.8-.4,4.29,4.29,0,0,1-1.4-.8,1.28,1.28,0,0,1-.4-1,1.43,1.43,0,0,1,.6-1.2,2.86,2.86,0,0,1,1.7-.4,4.48,4.48,0,0,1,2,.4l-.4.9a3.73,3.73,0,0,0-1.6-.4c-.7,0-1,.2-1,.6,0,.2.1.3.3.5s.6.3,1.1.5.8.4,1.1.5.4.3.5.5S163.8,423,163.8,423.3Z"/><path class="cls-4" d="M277.3,397.6H252.7v-5.2l8.8-8.9a71.26,71.26,0,0,0,5.1-5.6,9.91,9.91,0,0,0,1.7-2.9,6.46,6.46,0,0,0,.5-2.7,3.72,3.72,0,0,0-1.2-3.1,4.45,4.45,0,0,0-3.1-1,9.34,9.34,0,0,0-4,.9,17.6,17.6,0,0,0-4,2.7l-4-4.8a24.27,24.27,0,0,1,4.3-3.1,14.91,14.91,0,0,1,3.7-1.4,20.65,20.65,0,0,1,4.5-.5,13.36,13.36,0,0,1,5.8,1.2,8.67,8.67,0,0,1,3.9,3.4,9.15,9.15,0,0,1,1.4,5,12.16,12.16,0,0,1-.9,4.6,20.28,20.28,0,0,1-2.6,4.4,70.15,70.15,0,0,1-6.3,6.4l-4.5,4.3v.3h15.3v6Z"/><path class="cls-4" d="M292.9,362a13.73,13.73,0,0,1,8.2,2.3,7.2,7.2,0,0,1,3.1,6.2,8.05,8.05,0,0,1-1.5,4.8,12.83,12.83,0,0,1-4.8,3.8,18.45,18.45,0,0,1,5.7,4.4,8.62,8.62,0,0,1-1.7,12c-2.3,1.8-5.2,2.6-8.9,2.6-3.9,0-6.9-.8-9.1-2.5a8.13,8.13,0,0,1-3.3-6.9,8.75,8.75,0,0,1,1.6-5.3,13.54,13.54,0,0,1,5.1-4.1,12.18,12.18,0,0,1-4.3-4.1,8.54,8.54,0,0,1-1.3-4.7,7.15,7.15,0,0,1,3.1-6.1A13,13,0,0,1,292.9,362Zm-5.5,26.3a3.88,3.88,0,0,0,1.4,3.2,6.46,6.46,0,0,0,3.9,1.2,6.08,6.08,0,0,0,4.1-1.2,4,4,0,0,0,1.4-3.1,4.22,4.22,0,0,0-1.4-3,20.46,20.46,0,0,0-4.4-3C289.2,383.9,287.4,385.9,287.4,388.3Zm5.5-20.8a4.45,4.45,0,0,0-3.1,1,3.09,3.09,0,0,0-1.2,2.6,4.11,4.11,0,0,0,.9,2.6,9,9,0,0,0,3.4,2.3,8.21,8.21,0,0,0,3.3-2.3,4.39,4.39,0,0,0,.9-2.7,3.09,3.09,0,0,0-1.2-2.6A4.66,4.66,0,0,0,292.9,367.5Z"/><path class="cls-4" d="M333.4,380.1c0,6.1-1,10.7-3,13.6s-5.1,4.4-9.3,4.4-7.1-1.5-9.2-4.6-3.1-7.5-3.1-13.5c0-6.2,1-10.8,3-13.7s5.1-4.4,9.3-4.4,7.1,1.5,9.2,4.6S333.4,374.1,333.4,380.1Zm-17.2,0c0,4.3.4,7.4,1.1,9.3a3.81,3.81,0,0,0,3.8,2.8,4,4,0,0,0,3.8-2.8c.8-1.9,1.2-5,1.2-9.2s-.4-7.4-1.2-9.3-2-2.8-3.7-2.8-3,.9-3.8,2.8C316.5,372.6,316.2,375.7,316.2,380.1Z"/><path class="cls-15" d="M248.5,421a4.08,4.08,0,0,1-1.1,3,4.29,4.29,0,0,1-3.1,1h-2.2v-7.8h2.4a4,4,0,0,1,2.9,1A3.42,3.42,0,0,1,248.5,421Zm-1.3.1c0-1.9-.9-2.8-2.6-2.8h-1.1V424h.9A2.61,2.61,0,0,0,247.2,421.1Z"/><path class="cls-15" d="M255.3,422a3.33,3.33,0,0,1-.7,2.3,2.86,2.86,0,0,1-2.1.8,2.6,2.6,0,0,1-1.5-.4,2.17,2.17,0,0,1-1-1.1,4.15,4.15,0,0,1-.3-1.6,2.92,2.92,0,0,1,.7-2.2,2.86,2.86,0,0,1,2.1-.8,2.63,2.63,0,0,1,2,.8A3.11,3.11,0,0,1,255.3,422Zm-4.3,0c0,1.4.5,2,1.5,2s1.5-.7,1.5-2-.5-2-1.5-2a1.29,1.29,0,0,0-1.1.5A2.41,2.41,0,0,0,251,422Z"/><path class="cls-15" d="M259.2,425.1a2.48,2.48,0,0,1-2-.8,3.07,3.07,0,0,1-.7-2.2,3.17,3.17,0,0,1,.7-2.3,2.86,2.86,0,0,1,2.1-.8,4.67,4.67,0,0,1,1.7.3l-.4,1a3.91,3.91,0,0,0-1.3-.3c-1,0-1.5.7-1.5,2a2.08,2.08,0,0,0,.4,1.5,1.43,1.43,0,0,0,1.1.5,2.93,2.93,0,0,0,1.6-.4v1.1c-.2.1-.5.2-.7.3A3.08,3.08,0,0,1,259.2,425.1Z"/><path class="cls-15" d="M266.4,425l-.2-.8h-.1a1.34,1.34,0,0,1-.7.6,2,2,0,0,1-1.1.2,2.35,2.35,0,0,1-1.6-.5,2.07,2.07,0,0,1-.5-1.6V419h1.3v3.6a1.33,1.33,0,0,0,.3,1,1.22,1.22,0,0,0,.9.3,1.66,1.66,0,0,0,1.2-.5,2.83,2.83,0,0,0,.4-1.6v-2.9h1.3v5.9h-1.2Z"/><path class="cls-15" d="M274.1,425h-1.3v-3.6a1.33,1.33,0,0,0-.3-1,1,1,0,0,0-.8-.3,1.43,1.43,0,0,0-1.1.5,3,3,0,0,0-.3,1.6v2.9H269v-5.9h1l.2.8h.1a2.34,2.34,0,0,1,.7-.7,2.35,2.35,0,0,1,2.8.7h.1a2.34,2.34,0,0,1,.7-.7,2,2,0,0,1,1.1-.2,2.07,2.07,0,0,1,1.5.5,2.35,2.35,0,0,1,.5,1.6v3.9h-1.3v-3.6a1.33,1.33,0,0,0-.3-1,1,1,0,0,0-.8-.3,1.43,1.43,0,0,0-1.1.5c-.3.3-.3.8-.3,1.4V425Z"/><path class="cls-15" d="M282.2,425.1a3.29,3.29,0,0,1-2.2-.8,3.11,3.11,0,0,1-.8-2.2,3.33,3.33,0,0,1,.7-2.3,2.32,2.32,0,0,1,2-.8,2.49,2.49,0,0,1,1.9.7,2.58,2.58,0,0,1,.7,2v.7h-3.9a1.73,1.73,0,0,0,.5,1.3,1.66,1.66,0,0,0,1.2.5,3.4,3.4,0,0,0,1-.1c.3-.1.6-.2,1-.3v1l-.9.3Zm-.2-5.2a1.28,1.28,0,0,0-1,.4,1.82,1.82,0,0,0-.4,1.1h2.7a1.25,1.25,0,0,0-.4-1.1A1.27,1.27,0,0,0,282,419.9Z"/><path class="cls-15" d="M291.1,425h-1.3v-3.6a1.33,1.33,0,0,0-.3-1,1.22,1.22,0,0,0-.9-.3,1.66,1.66,0,0,0-1.2.5,2.2,2.2,0,0,0-.4,1.6v2.9h-1.3v-5.9h1l.2.8h.1a1.85,1.85,0,0,1,.8-.7,2.15,2.15,0,0,1,1.1-.2c1.4,0,2.1.7,2.1,2.2V425Z"/><path class="cls-15" d="M295.1,424.1a2.77,2.77,0,0,0,.9-.1v.9c-.1.1-.3.1-.5.2s-.4.1-.7.1c-1.2,0-1.8-.6-1.8-1.9V420h-.8v-.6l.9-.5.4-1.3h.8v1.3H296v1h-1.7v3.2a1.45,1.45,0,0,0,.2.7A.86.86,0,0,0,295.1,424.1Z"/><path class="cls-15" d="M301.2,423.3a1.49,1.49,0,0,1-.6,1.3,3,3,0,0,1-1.8.5,3.58,3.58,0,0,1-1.9-.4v-1.1a4.89,4.89,0,0,0,1.9.5c.8,0,1.2-.2,1.2-.7,0-.2,0-.3-.1-.4a1.38,1.38,0,0,0-.4-.3,5.9,5.9,0,0,1-.8-.4,4.29,4.29,0,0,1-1.4-.8,1.78,1.78,0,0,1-.4-1,1.43,1.43,0,0,1,.6-1.2,2.86,2.86,0,0,1,1.7-.4,4.48,4.48,0,0,1,2,.4l-.4.9a3.73,3.73,0,0,0-1.6-.4c-.7,0-1,.2-1,.6,0,.2.1.3.3.5a6.14,6.14,0,0,0,1.1.5c.5.2.8.4,1.1.5s.4.3.5.5A2.7,2.7,0,0,0,301.2,423.3Z"/><path class="cls-15" d="M307.8,425.1a2.48,2.48,0,0,1-2-.8,3.07,3.07,0,0,1-.7-2.2,3.17,3.17,0,0,1,.7-2.3,2.86,2.86,0,0,1,2.1-.8,4.67,4.67,0,0,1,1.7.3l-.4,1a3.91,3.91,0,0,0-1.3-.3c-1,0-1.5.7-1.5,2a2.08,2.08,0,0,0,.4,1.5,1.43,1.43,0,0,0,1.1.5,2.93,2.93,0,0,0,1.6-.4v1.1c-.2.1-.5.2-.7.3A3.75,3.75,0,0,1,307.8,425.1Z"/><path class="cls-15" d="M313.8,419c.3,0,.5,0,.6.1l-.1,1.2c-.2,0-.4-.1-.6-.1a1.66,1.66,0,0,0-1.2.5,1.9,1.9,0,0,0-.5,1.3v3.1h-1.3v-5.9h1l.2,1h.1a2,2,0,0,1,.8-.8A2.11,2.11,0,0,1,313.8,419Z"/><path class="cls-15" d="M318.1,425.1a3.29,3.29,0,0,1-2.2-.8,3.11,3.11,0,0,1-.8-2.2,3.33,3.33,0,0,1,.7-2.3,2.32,2.32,0,0,1,2-.8,2.49,2.49,0,0,1,1.9.7,2.58,2.58,0,0,1,.7,2v.7h-3.9a1.73,1.73,0,0,0,.5,1.3,1.66,1.66,0,0,0,1.2.5,3.4,3.4,0,0,0,1-.1c.3-.1.6-.2,1-.3v1l-.9.3Zm-.2-5.2a1.28,1.28,0,0,0-1,.4,1.82,1.82,0,0,0-.4,1.1h2.7a1.25,1.25,0,0,0-.4-1.1A1.27,1.27,0,0,0,317.9,419.9Z"/><path class="cls-15" d="M325.6,425l-.3-.8h0a1.85,1.85,0,0,1-.9.7,3.59,3.59,0,0,1-1.1.2,2.17,2.17,0,0,1-1.4-.5,1.9,1.9,0,0,1-.5-1.3,1.51,1.51,0,0,1,.7-1.4,3.81,3.81,0,0,1,2.1-.5h1v-.3c0-.4-.1-.7-.3-.8a1.14,1.14,0,0,0-.8-.3,2.77,2.77,0,0,0-.9.1c-.3.1-.5.2-.8.3l-.4-.9a3.58,3.58,0,0,1,1.1-.4,4.1,4.1,0,0,1,1.1-.1,2.65,2.65,0,0,1,1.7.5,1.75,1.75,0,0,1,.6,1.5v4h-.9Zm-1.9-.9a1.38,1.38,0,0,0,1.5-1.5v-.5h-.8a2.27,2.27,0,0,0-1.3.3.81.81,0,0,0-.4.8.85.85,0,0,0,.2.6A.83.83,0,0,0,323.7,424.1Z"/><path class="cls-15" d="M330.4,424.1a2.77,2.77,0,0,0,.9-.1v.9c-.1.1-.3.1-.5.2s-.4.1-.7.1c-1.2,0-1.8-.6-1.8-1.9V420h-.8v-.6l.9-.5.4-1.3h.8v1.3h1.7v1h-1.7v3.2a1.45,1.45,0,0,0,.2.7A.86.86,0,0,0,330.4,424.1Z"/><path class="cls-15" d="M335.1,425.1a3.29,3.29,0,0,1-2.2-.8,3.11,3.11,0,0,1-.8-2.2,3.33,3.33,0,0,1,.7-2.3,2.32,2.32,0,0,1,2-.8,2.49,2.49,0,0,1,1.9.7,2.58,2.58,0,0,1,.7,2v.7h-3.9a1.73,1.73,0,0,0,.5,1.3,1.66,1.66,0,0,0,1.2.5,3.4,3.4,0,0,0,1-.1c.3-.1.6-.2,1-.3v1l-.9.3Zm-.2-5.2a1.28,1.28,0,0,0-1,.4,1.82,1.82,0,0,0-.4,1.1h2.7a1.25,1.25,0,0,0-.4-1.1A1.27,1.27,0,0,0,334.9,419.9Z"/><path class="cls-15" d="M340.8,425.1a2.14,2.14,0,0,1-1.7-.8,3.71,3.71,0,0,1-.6-2.3,3.92,3.92,0,0,1,.6-2.3,2.14,2.14,0,0,1,1.7-.8,2,2,0,0,1,1.8.9h.1a4.14,4.14,0,0,1-.1-1v-2.2h1.3v8.3h-1l-.2-.8h-.1A1.9,1.9,0,0,1,340.8,425.1Zm.4-1a1.25,1.25,0,0,0,1.1-.4,2.59,2.59,0,0,0,.4-1.4v-.2a2.36,2.36,0,0,0-.4-1.6,1.29,1.29,0,0,0-1.1-.5,1.23,1.23,0,0,0-1,.5,3,3,0,0,0-.4,1.5,2.81,2.81,0,0,0,.3,1.5A1.25,1.25,0,0,0,341.2,424.1Z"/><path class="cls-4" d="M451.9,362a13.73,13.73,0,0,1,8.2,2.3,7.2,7.2,0,0,1,3.1,6.2,8.05,8.05,0,0,1-1.5,4.8,12.83,12.83,0,0,1-4.8,3.8,18.45,18.45,0,0,1,5.7,4.4,8.62,8.62,0,0,1-1.7,12c-2.3,1.8-5.2,2.6-8.9,2.6-3.9,0-6.9-.8-9.1-2.5a8.13,8.13,0,0,1-3.3-6.9,8.75,8.75,0,0,1,1.6-5.3,13.54,13.54,0,0,1,5.1-4.1,12.18,12.18,0,0,1-4.3-4.1,8.54,8.54,0,0,1-1.3-4.7,7.15,7.15,0,0,1,3.1-6.1A12.6,12.6,0,0,1,451.9,362Zm-5.5,26.3a3.88,3.88,0,0,0,1.4,3.2,7.26,7.26,0,0,0,8,0,4,4,0,0,0,1.4-3.1,4.22,4.22,0,0,0-1.4-3,20.46,20.46,0,0,0-4.4-3C448.1,383.9,446.4,385.9,446.4,388.3Zm5.4-20.8a4.45,4.45,0,0,0-3.1,1,3.09,3.09,0,0,0-1.2,2.6,4.11,4.11,0,0,0,.9,2.6,9,9,0,0,0,3.4,2.3,8.21,8.21,0,0,0,3.3-2.3,4.39,4.39,0,0,0,.9-2.7,3.09,3.09,0,0,0-1.2-2.6A4.66,4.66,0,0,0,451.8,367.5Z"/><path class="cls-4" d="M486.3,397.6h-7.4V377.3l.1-3.3.1-3.7a35.08,35.08,0,0,1-2.6,2.4l-4,3.2-3.6-4.5,11.3-9h6.1Z"/><path class="cls-4" d="M520.7,397.6H496v-5.2l8.8-8.9a71.26,71.26,0,0,0,5.1-5.6,9.91,9.91,0,0,0,1.7-2.9,6.46,6.46,0,0,0,.5-2.7,3.72,3.72,0,0,0-1.2-3.1,4.45,4.45,0,0,0-3.1-1,9.34,9.34,0,0,0-4,.9,17.6,17.6,0,0,0-4,2.7l-4-4.8a24.27,24.27,0,0,1,4.3-3.1,14.91,14.91,0,0,1,3.7-1.4,20.65,20.65,0,0,1,4.5-.5,13.36,13.36,0,0,1,5.8,1.2,8.67,8.67,0,0,1,3.9,3.4,9.15,9.15,0,0,1,1.4,5,12.16,12.16,0,0,1-.9,4.6,20.28,20.28,0,0,1-2.6,4.4,70.15,70.15,0,0,1-6.3,6.4l-4.5,4.3v.3h15.3v6Z"/><path class="cls-15" d="M438.3,421a4.08,4.08,0,0,1-1.1,3,4.29,4.29,0,0,1-3.1,1h-2.2v-7.8h2.4a4,4,0,0,1,2.9,1A3.76,3.76,0,0,1,438.3,421Zm-1.3.1c0-1.9-.9-2.8-2.6-2.8h-1.1V424h.9A2.61,2.61,0,0,0,437,421.1Z"/><path class="cls-15" d="M445.1,422a3.33,3.33,0,0,1-.7,2.3,2.86,2.86,0,0,1-2.1.8,2.6,2.6,0,0,1-1.5-.4,2.17,2.17,0,0,1-1-1.1,4.15,4.15,0,0,1-.3-1.6,2.92,2.92,0,0,1,.7-2.2,2.86,2.86,0,0,1,2.1-.8,2.63,2.63,0,0,1,2,.8A2.86,2.86,0,0,1,445.1,422Zm-4.3,0c0,1.4.5,2,1.5,2s1.5-.7,1.5-2-.5-2-1.5-2a1.29,1.29,0,0,0-1.1.5A2.41,2.41,0,0,0,440.8,422Z"/><path class="cls-15" d="M448.9,425.1a2.48,2.48,0,0,1-2-.8,3.07,3.07,0,0,1-.7-2.2,3.17,3.17,0,0,1,.7-2.3,2.86,2.86,0,0,1,2.1-.8,4.67,4.67,0,0,1,1.7.3l-.4,1a3.91,3.91,0,0,0-1.3-.3c-1,0-1.5.7-1.5,2a2.08,2.08,0,0,0,.4,1.5,1.43,1.43,0,0,0,1.1.5,2.93,2.93,0,0,0,1.6-.4v1.1c-.2.1-.5.2-.7.3A3.08,3.08,0,0,1,448.9,425.1Z"/><path class="cls-15" d="M456.1,425l-.2-.8h-.1a1.34,1.34,0,0,1-.7.6,2,2,0,0,1-1.1.2,2.35,2.35,0,0,1-1.6-.5,2.07,2.07,0,0,1-.5-1.6V419h1.3v3.6a1.33,1.33,0,0,0,.3,1,1.22,1.22,0,0,0,.9.3,1.66,1.66,0,0,0,1.2-.5,2.83,2.83,0,0,0,.4-1.6v-2.9h1.3v5.9h-1.2Z"/><path class="cls-15" d="M463.9,425h-1.3v-3.6a1.33,1.33,0,0,0-.3-1,1,1,0,0,0-.8-.3,1.43,1.43,0,0,0-1.1.5,3,3,0,0,0-.3,1.6v2.9h-1.3v-5.9h1l.2.8h.1a2.34,2.34,0,0,1,.7-.7,2.35,2.35,0,0,1,2.8.7h.1a2.34,2.34,0,0,1,.7-.7,2,2,0,0,1,1.1-.2,2.07,2.07,0,0,1,1.5.5,2.35,2.35,0,0,1,.5,1.6v3.9h-1.3v-3.6a1.33,1.33,0,0,0-.3-1,1,1,0,0,0-.8-.3,1.43,1.43,0,0,0-1.1.5c-.3.3-.3.8-.3,1.4V425Z"/><path class="cls-15" d="M472,425.1a3.29,3.29,0,0,1-2.2-.8,3.11,3.11,0,0,1-.8-2.2,3.33,3.33,0,0,1,.7-2.3,2.32,2.32,0,0,1,2-.8,2.49,2.49,0,0,1,1.9.7,2.58,2.58,0,0,1,.7,2v.7h-3.9a1.73,1.73,0,0,0,.5,1.3,1.66,1.66,0,0,0,1.2.5,3.4,3.4,0,0,0,1-.1c.3-.1.6-.2,1-.3v1l-.9.3Zm-.2-5.2a1.28,1.28,0,0,0-1,.4,1.82,1.82,0,0,0-.4,1.1h2.7a1.25,1.25,0,0,0-.4-1.1A1.27,1.27,0,0,0,471.8,419.9Z"/><path class="cls-15" d="M480.9,425h-1.3v-3.6a1.33,1.33,0,0,0-.3-1,1.22,1.22,0,0,0-.9-.3,1.66,1.66,0,0,0-1.2.5,2.83,2.83,0,0,0-.4,1.6v2.9h-1.3v-5.9h1l.2.8h.1a1.85,1.85,0,0,1,.8-.7,2.15,2.15,0,0,1,1.1-.2c1.4,0,2.1.7,2.1,2.2V425Z"/><path class="cls-15" d="M484.9,424.1a2.77,2.77,0,0,0,.9-.1v.9c-.1.1-.3.1-.5.2s-.4.1-.7.1c-1.2,0-1.8-.6-1.8-1.9V420H482v-.6l.9-.5.4-1.3h.8v1.3h1.7v1h-1.7v3.2a1.45,1.45,0,0,0,.2.7A.6.6,0,0,0,484.9,424.1Z"/><path class="cls-15" d="M494.4,417.2h1.3L493,425h-1.3l-2.7-7.8h1.3l1.6,4.9a4.65,4.65,0,0,1,.3.9,4.5,4.5,0,0,1,.2.8,2.92,2.92,0,0,1,.2-.9,3.09,3.09,0,0,0,.2-.8Z"/><path class="cls-15" d="M496.6,417.5a.68.68,0,1,1,.2.5A.76.76,0,0,1,496.6,417.5Zm1.3,7.5h-1.3v-5.9h1.3Z"/><path class="cls-15" d="M502.3,425.1a3.29,3.29,0,0,1-2.2-.8,3.11,3.11,0,0,1-.8-2.2,3.33,3.33,0,0,1,.7-2.3,2.32,2.32,0,0,1,2-.8,2.49,2.49,0,0,1,1.9.7,2.58,2.58,0,0,1,.7,2v.7h-3.9a1.73,1.73,0,0,0,.5,1.3,1.66,1.66,0,0,0,1.2.5,3.4,3.4,0,0,0,1-.1c.3-.1.6-.2,1-.3v1l-.9.3Zm-.2-5.2a1.28,1.28,0,0,0-1,.4,1.82,1.82,0,0,0-.4,1.1h2.7a1.25,1.25,0,0,0-.4-1.1A1.27,1.27,0,0,0,502.1,419.9Z"/><path class="cls-15" d="M510.9,425l-.8-2.8a18.21,18.21,0,0,1-.5-2h0c-.2,1-.4,1.6-.5,2l-.8,2.7h-1.4l-1.7-5.9h1.3l.8,2.9c.2.7.3,1.3.4,1.8h0a2.92,2.92,0,0,1,.2-.9c.1-.3.1-.6.2-.8l.9-3.1h1.4l.9,3.1a4.54,4.54,0,0,1,.2.8,2.81,2.81,0,0,1,.1.8h0c.1-.4.2-1.1.4-1.8l.8-2.9h1.3l-1.7,5.9h-1.5Z"/><path class="cls-15" d="M519,423.3a1.49,1.49,0,0,1-.6,1.3,3,3,0,0,1-1.8.5,3.58,3.58,0,0,1-1.9-.4v-1.1a4.89,4.89,0,0,0,1.9.5c.8,0,1.2-.2,1.2-.7,0-.2,0-.3-.1-.4a1.38,1.38,0,0,0-.4-.3,5.9,5.9,0,0,1-.8-.4,4.29,4.29,0,0,1-1.4-.8,1.28,1.28,0,0,1-.4-1,1.43,1.43,0,0,1,.6-1.2,2.86,2.86,0,0,1,1.7-.4,4.48,4.48,0,0,1,2,.4l-.4.9a3.73,3.73,0,0,0-1.6-.4c-.7,0-1,.2-1,.6,0,.2.1.3.3.5a3.83,3.83,0,0,0,1.1.5c.5.2.8.4,1.1.5s.4.3.5.5A2.7,2.7,0,0,0,519,423.3Z"/><g id="Rounded_Rectangle_1" data-name="Rounded Rectangle 1"><path class="cls-16" d="M330,110H437a2,2,0,0,1,2,2v33a2,2,0,0,1-2,2H330a2,2,0,0,1-2-2V112A2,2,0,0,1,330,110Z"/></g><g class="cls-17"><rect class="cls-18" x="343" y="123" width="80" height="12"/></g><g id="Rounded_Rectangle_1_copy" data-name="Rounded Rectangle 1 copy"><path class="cls-19" d="M123,110H308a2,2,0,0,1,2,2v33a2,2,0,0,1-2,2H123a2,2,0,0,1-2-2V112A2,2,0,0,1,123,110Z"/></g><g id="Rectangle_6_copy" data-name="Rectangle 6 copy"><rect class="cls-20" x="137" y="123" width="80" height="12"/></g><g id="Rectangle_6_copy_2" data-name="Rectangle 6 copy 2"><rect class="cls-20" x="256" y="123" width="38" height="12"/></g><path class="cls-15" d="M177.9,38.1c0,3.5-1,6.2-2.9,8.1s-4.7,2.8-8.3,2.8h-5.9V27.6h6.6c3.3,0,5.9.9,7.8,2.8S177.9,34.8,177.9,38.1Zm-2.7.1q0-4.2-2.1-6.3c-1.4-1.4-3.5-2.1-6.2-2.1h-3.6V46.9h3c3,0,5.2-.7,6.7-2.2S175.2,41,175.2,38.2Z"/><path class="cls-15" d="M196.1,41a8.78,8.78,0,0,1-2,6.1,6.81,6.81,0,0,1-5.5,2.2,7,7,0,0,1-3.8-1,6.69,6.69,0,0,1-2.6-2.9,10.17,10.17,0,0,1-.9-4.4,8.78,8.78,0,0,1,2-6.1,6.73,6.73,0,0,1,5.4-2.2,7,7,0,0,1,5.4,2.2A8.49,8.49,0,0,1,196.1,41Zm-12.2,0a7.76,7.76,0,0,0,1.2,4.7,4.85,4.85,0,0,0,7.2,0,7.76,7.76,0,0,0,1.2-4.7,8,8,0,0,0-1.2-4.7,4.2,4.2,0,0,0-3.7-1.6,4.13,4.13,0,0,0-3.6,1.6A7.79,7.79,0,0,0,183.9,41Z"/><path class="cls-15" d="M206.8,49.3a7,7,0,0,1-5.4-2.1c-1.3-1.4-1.9-3.5-1.9-6.1s.6-4.8,1.9-6.2a7.14,7.14,0,0,1,5.5-2.2,17.85,17.85,0,0,1,2.3.2,5.36,5.36,0,0,1,1.8.6l-.7,2.1a7.76,7.76,0,0,0-1.8-.5,11.14,11.14,0,0,0-1.7-.2c-3.3,0-4.9,2.1-4.9,6.2a7.11,7.11,0,0,0,1.2,4.5,4.33,4.33,0,0,0,3.5,1.6,10.49,10.49,0,0,0,4.1-.9v2.2A8.4,8.4,0,0,1,206.8,49.3Z"/><path class="cls-15" d="M217,32.9V43.3a4,4,0,0,0,.9,2.9,3.79,3.79,0,0,0,2.8,1,4.67,4.67,0,0,0,3.7-1.4q1.2-1.35,1.2-4.5V32.9H228V49h-2l-.4-2.2h-.1a4.63,4.63,0,0,1-2.1,1.8,7.31,7.31,0,0,1-3,.6,6.27,6.27,0,0,1-4.4-1.4q-1.5-1.35-1.5-4.5V32.9Z"/><path class="cls-15" d="M253.5,49V38.6a4.77,4.77,0,0,0-.8-2.9,2.92,2.92,0,0,0-2.5-1,4.24,4.24,0,0,0-3.4,1.3,5.79,5.79,0,0,0-1.1,4v9h-2.4V38.6a4.77,4.77,0,0,0-.8-2.9,3,3,0,0,0-2.6-1,4,4,0,0,0-3.3,1.4,7.41,7.41,0,0,0-1.1,4.5V49h-2.4V32.9h2l.4,2.2h.1a4.69,4.69,0,0,1,1.9-1.8,6.44,6.44,0,0,1,2.8-.7c2.5,0,4.2.9,4.9,2.7h.1a5.77,5.77,0,0,1,2.1-2,6.17,6.17,0,0,1,3.1-.7,5.64,5.64,0,0,1,4.1,1.4,6.21,6.21,0,0,1,1.4,4.5V49Z"/><path class="cls-15" d="M267.8,49.3a7.17,7.17,0,0,1-5.6-2.2,8.44,8.44,0,0,1-2.1-6,9.38,9.38,0,0,1,1.9-6.2,6.17,6.17,0,0,1,5.1-2.3,6.25,6.25,0,0,1,4.8,2,7.48,7.48,0,0,1,1.8,5.2v1.5H262.6a6.17,6.17,0,0,0,1.4,4.3,4.9,4.9,0,0,0,3.8,1.5,13.38,13.38,0,0,0,5.1-1.1v2.2a16.79,16.79,0,0,1-2.4.8A10.06,10.06,0,0,1,267.8,49.3Zm-.7-14.6A3.87,3.87,0,0,0,264,36a6.19,6.19,0,0,0-1.4,3.5H271a5.22,5.22,0,0,0-1-3.5A3.63,3.63,0,0,0,267.1,34.7Z"/><path class="cls-15" d="M288.8,49V38.6a4,4,0,0,0-.9-2.9,3.79,3.79,0,0,0-2.8-1,4.67,4.67,0,0,0-3.7,1.4q-1.2,1.35-1.2,4.5V49h-2.4V32.9h2l.4,2.2h.1a4.63,4.63,0,0,1,2.1-1.8,7.35,7.35,0,0,1,3-.7,6.45,6.45,0,0,1,4.4,1.4q1.5,1.35,1.5,4.5V49Z"/><path class="cls-15" d="M301.4,47.3a4.87,4.87,0,0,0,1.2-.1c.4-.1.7-.1,1-.2v1.9a10.38,10.38,0,0,1-1.2.3,7.08,7.08,0,0,1-1.4.1c-3.1,0-4.7-1.6-4.7-4.9V34.8H294V33.6l2.3-1,1-3.4h1.4v3.7h4.7v1.9h-4.7v9.4a2.92,2.92,0,0,0,.7,2.2A2.88,2.88,0,0,0,301.4,47.3Z"/><path class="cls-15" d="M328.4,49l-2.7-6.8h-8.6L314.5,49H312l8.5-21.5h2.1L331,49ZM325,39.9l-2.5-6.6a28.6,28.6,0,0,1-1-3.1,25.43,25.43,0,0,1-.9,3.1l-2.5,6.6Z"/><path class="cls-15" d="M340,49.3a7,7,0,0,1-5.4-2.1c-1.3-1.4-1.9-3.5-1.9-6.1s.6-4.8,1.9-6.2a7.14,7.14,0,0,1,5.5-2.2,17.85,17.85,0,0,1,2.3.2,5.36,5.36,0,0,1,1.8.6l-.7,2.1a7.76,7.76,0,0,0-1.8-.5,11.14,11.14,0,0,0-1.7-.2c-3.3,0-4.9,2.1-4.9,6.2a7.11,7.11,0,0,0,1.2,4.5,4.33,4.33,0,0,0,3.5,1.6,10.49,10.49,0,0,0,4.1-.9v2.2A8.4,8.4,0,0,1,340,49.3Z"/><path class="cls-15" d="M353.1,47.3a4.87,4.87,0,0,0,1.2-.1c.4-.1.7-.1,1-.2v1.9a10.38,10.38,0,0,1-1.2.3,7.08,7.08,0,0,1-1.4.1c-3.1,0-4.7-1.6-4.7-4.9V34.8h-2.3V33.6l2.3-1,1-3.4h1.4v3.7h4.7v1.9h-4.7v9.4a2.92,2.92,0,0,0,.7,2.2A2.88,2.88,0,0,0,353.1,47.3Z"/><path class="cls-15" d="M358.3,28.6c0-.6.1-1,.4-1.2a1.45,1.45,0,0,1,2,0,1.59,1.59,0,0,1,.4,1.2,1.46,1.46,0,0,1-.4,1.2,1.78,1.78,0,0,1-1,.4,1.16,1.16,0,0,1-1-.4A2.14,2.14,0,0,1,358.3,28.6ZM360.9,49h-2.4V32.9h2.4Z"/><path class="cls-15" d="M369.6,49l-6.1-16.1h2.6l3.5,9.5c.8,2.2,1.2,3.7,1.4,4.3h.1a23.35,23.35,0,0,1,1-3.2c.6-1.6,1.9-5.2,3.8-10.6h2.6L372.4,49Z"/><path class="cls-15" d="M380.9,28.6c0-.6.1-1,.4-1.2a1.45,1.45,0,0,1,2,0,1.59,1.59,0,0,1,.4,1.2,1.46,1.46,0,0,1-.4,1.2,1.78,1.78,0,0,1-1,.4,1.16,1.16,0,0,1-1-.4A2.14,2.14,0,0,1,380.9,28.6ZM383.5,49h-2.4V32.9h2.4Z"/><path class="cls-15" d="M393.9,47.3a4.87,4.87,0,0,0,1.2-.1c.4-.1.7-.1,1-.2v1.9a10.38,10.38,0,0,1-1.2.3,7.08,7.08,0,0,1-1.4.1c-3.1,0-4.7-1.6-4.7-4.9V34.8h-2.3V33.6l2.3-1,1-3.4h1.4v3.7h4.7v1.9h-4.7v9.4a2.92,2.92,0,0,0,.7,2.2A2.88,2.88,0,0,0,393.9,47.3Z"/><path class="cls-15" d="M396.7,32.9h2.6l3.5,9.2a22.7,22.7,0,0,1,1.4,4.5h.1c.1-.5.4-1.3.8-2.6s1.7-4.9,4-11.1h2.6l-6.9,18.3a8.88,8.88,0,0,1-2.4,3.8,4.81,4.81,0,0,1-3.4,1.1,16.35,16.35,0,0,1-2.2-.2V54a9,9,0,0,0,1.8.2c1.7,0,2.9-.9,3.6-2.8l.9-2.3Z"/><rect class="cls-14" x="28" y="79" width="504" height="2"/><g id="White"><rect class="cls-4" y="931" width="560" height="69"/></g><g id="Avatar"><circle class="cls-21" cx="504" cy="966" r="23"/></g><rect class="cls-22" x="111" y="931" width="1" height="69"/><g id="Rectangle_8_copy" data-name="Rectangle 8 copy"><rect class="cls-23" x="112" y="931" width="1" height="69"/></g><rect class="cls-22" x="223" y="931" width="1" height="69"/><g id="Rectangle_8_copy-2" data-name="Rectangle 8 copy-2"><rect class="cls-23" x="224" y="931" width="1" height="69"/></g><rect class="cls-22" x="335" y="931" width="1" height="69"/><g id="Rectangle_8_copy-3" data-name="Rectangle 8 copy-3"><rect class="cls-23" x="336" y="931" width="1" height="69"/></g><rect class="cls-22" x="447" y="931" width="1" height="69"/><g id="Rectangle_8_copy-4" data-name="Rectangle 8 copy-4"><rect class="cls-23" x="448" y="931" width="1" height="69"/></g><path class="cls-24" d="M182.1,960.3v20.5a1.58,1.58,0,0,1-1.6,1.6H164.3a1.58,1.58,0,0,1-1.6-1.6V976h-9.2a1.58,1.58,0,0,1-1.6-1.6V963a4.89,4.89,0,0,1,1.1-2.8l6.9-6.9a4.64,4.64,0,0,1,2.8-1.1h7a1.58,1.58,0,0,1,1.6,1.6v5.5a4.73,4.73,0,0,1,2.2-.7h7A1.73,1.73,0,0,1,182.1,960.3Zm-12.9,1.1v-7h-6.5v7a1.58,1.58,0,0,1-1.6,1.6h-7v10.8h8.6v-4.3a4.89,4.89,0,0,1,1.1-2.8Zm-13.7-.6h5.1v-5.1Zm24.5,0h-6.5v7a1.58,1.58,0,0,1-1.6,1.6h-7v10.8H180Zm-13.7,6.5h5.1v-5.1Z"/><path class="cls-24" d="M296.3,977.6a2.69,2.69,0,0,1-2.7,2.7h-27a2.69,2.69,0,0,1-2.7-2.7V957.1a2.69,2.69,0,0,1,2.7-2.7h27a2.69,2.69,0,0,1,2.7,2.7Zm-29.7-21.1a.54.54,0,0,0-.5.5v20.5a.54.54,0,0,0,.5.5h27a.54.54,0,0,0,.5-.5V957a.54.54,0,0,0-.5-.5Zm4.8,8.7a3.22,3.22,0,0,1-3.2-3.2,3.2,3.2,0,1,1,6.4,0A3.22,3.22,0,0,1,271.4,965.2ZM292,976H268.2v-3.2l5.4-5.4,2.7,2.7,8.6-8.6,7,7V976Z"/><path class="cls-24" d="M409.5,980.3H374.9V954.4h2.2v23.8h32.4ZM385.7,976h-4.3v-8.6h4.3Zm6.5,0h-4.3V958.7h4.3Zm6.5,0h-4.3V963h4.3Zm6.4,0h-4.3V956.5h4.3Z"/><rect class="cls-3" y="929" width="560" height="2"/><path class="cls-25" d="M68,959.81A2.73,2.73,0,0,1,66.1,959L61,954a2.74,2.74,0,0,1,3.88-3.86L70,955.17A2.74,2.74,0,0,1,70,959,2.85,2.85,0,0,1,68,959.81Z"/><path class="cls-25" d="M50.84,980.28a2.73,2.73,0,0,1-1.93-.79l-8.36-8.36a2.73,2.73,0,0,1,3.86-3.86l8.36,8.33a2.74,2.74,0,0,1,0,3.86A2.69,2.69,0,0,1,50.84,980.28Z"/><path class="cls-25" d="M68,972.38a2.73,2.73,0,0,1-1.93-.79L48.48,954a2.74,2.74,0,0,1,3.86-3.88L70,967.69a2.74,2.74,0,0,1,0,3.86A2.58,2.58,0,0,1,68,972.38Z"/><path class="cls-25" d="M68,984.93a2.73,2.73,0,0,1-1.93-.79L35.91,954a2.74,2.74,0,0,1,3.88-3.86L70,980.26a2.74,2.74,0,0,1,0,3.86A2.65,2.65,0,0,1,68,984.93Z"/></svg>