<svg id="Layer_1" data-name="Layer 1" xmlns="http://www.w3.org/2000/svg" viewBox="0 0 31.56 31.55"><defs><style>.cls-1{fill:#f87d08;}</style></defs><title>Artboard 1</title><path class="cls-1" d="M27.64,17H14.57V3.91a.5.5,0,0,0-.5-.5A14.07,14.07,0,1,0,28.14,17.48.5.5,0,0,0,27.64,17ZM14.07,30.55a13.07,13.07,0,0,1-.5-26.13V17.48a.5.5,0,0,0,.5.5H27.13A13.08,13.08,0,0,1,14.07,30.55Z"/><path class="cls-1" d="M17.49,0a.5.5,0,0,0-.5.5V14.07a.5.5,0,0,0,.5.5H31.06a.5.5,0,0,0,.5-.5A14.08,14.08,0,0,0,17.49,0ZM18,13.57V1A13.09,13.09,0,0,1,30.55,13.57Z"/></svg>