<?xml version="1.0" encoding="utf-8"?>
<!-- Generator: Adobe Illustrator 20.0.0, SVG Export Plug-In . SVG Version: 6.00 Build 0)  -->
<svg version="1.1" id="Layer_1" xmlns="http://www.w3.org/2000/svg" xmlns:xlink="http://www.w3.org/1999/xlink" x="0px" y="0px"
	 viewBox="0 0 12 12" style="enable-background:new 0 0 12 12;" xml:space="preserve">
<style type="text/css">
	.st0{fill:#FFFFFF;}
</style>
<path class="st0" d="M11.9,11.1L7.7,7c0.6-0.7,0.9-1.7,0.9-2.7C8.7,2,6.7,0,4.3,0S0,2,0,4.4s1.9,4.4,4.3,4.4c1,0,2-0.4,2.7-1
	l4.1,4.1c0.1,0.1,0.2,0.1,0.4,0.1s0.3,0,0.4-0.1C12,11.7,12,11.3,11.9,11.1z M4.3,7.7C2.5,7.7,1,6.2,1,4.4C1,2.5,2.5,1,4.3,1
	s3.4,1.5,3.4,3.4C7.7,6.2,6.2,7.7,4.3,7.7z"/>
</svg>
