<svg id="Layer_1" data-name="Layer 1" xmlns="http://www.w3.org/2000/svg" viewBox="0 0 3157.44 1050"><defs><style>.cls-1{fill:#7c868d;}.cls-2{fill:#00a1e0;}</style></defs><title>Artboard 1</title><path class="cls-1" d="M3157.44,562.91c-12.33,0-24.66.24-37,0-1.89,0-4.23-1.69-5.54-3.28q-34.5-41.82-68.78-83.83c-1-1.26-2.14-2.47-3.5-4-5.87,5.51-11.67,10.73-17.14,16.28-1,1-1,3.36-1,5.09-.06,21.33,0,42.66,0,64v5.65h-31.63V297.83h31.5V452.47c11-10.19,20.93-19.43,30.87-28.68,17.56-16.33,35-32.74,52.75-48.92a12.27,12.27,0,0,1,7.37-2.83c11-.3,21.93-.13,34.28-.13l-84.5,78.91,27.16,32.87q31.34,38,62.7,75.91a24.83,24.83,0,0,0,2.49,2.31Z"/><path class="cls-1" d="M2420.41,543.46l-3.16,19.6h-25.8V297.84h31.44V399.6c4.21-4.92,7.37-9.19,11.11-12.86,11.86-11.67,26.48-17.65,42.83-19.34,27.36-2.83,52,2.8,71.5,23.81,11.54,12.45,18.12,27.43,21.54,43.81,6.3,30.12,5.31,59.72-9.06,87.6-14.46,28.05-38.16,42.71-69.41,45.3C2464.65,570.12,2441,562.69,2420.41,543.46Zm1.73-60.59.73,0c0,9.83.13,19.66-.07,29.48a10.08,10.08,0,0,0,3.46,8.3c14.28,13.28,30.68,21.61,50.53,21.92,21.42.33,40-6.41,50.76-25.74,18.68-33.52,18.09-67.79-.36-101.36-5.61-10.2-14.88-17.07-26.18-20.45-31.78-9.51-69,6.28-76.25,45C2422.13,454,2422.91,468.59,2422.14,482.87Z"/><path class="cls-1" d="M2273.11,479.14H2132c.59,15,4.4,28.49,12.82,40.51,12.54,17.9,30.84,23.17,51.47,23s39.12-6.94,56.46-19l14.39,20.79a113.74,113.74,0,0,1-31.77,16.89,124.31,124.31,0,0,1-68.4,4.18c-31-6.84-51-26.65-61-56.13s-9.64-59.67,1.32-89.1c12.13-32.54,40.14-52.16,74.91-53.43,11.89-.43,23.63.22,35.08,3.7,28.42,8.64,43.81,29.36,52,56.54C2274.08,442.85,2275.65,466.77,2273.11,479.14Zm-141.19-25.31h110.52c2.13-37.37-21.6-63.29-57-62.49C2154.46,392,2128.77,421.85,2131.92,453.83Z"/><path class="cls-1" d="M2052,523.7l14.39,20.79a114.47,114.47,0,0,1-31.55,16.79,124.8,124.8,0,0,1-68.4,4.33c-29.31-6.33-49.34-24.52-59.7-52.23-12.06-32.24-12-65.07,1.55-96.94,13.15-31,37.8-46.77,71-49.44a100.19,100.19,0,0,1,37.09,3.49c27,8.1,42.53,27.36,51.11,53.09,5.44,16.31,6.64,33.22,5.81,50.31-.08,1.61-.45,3.21-.74,5.17H1931.24a74.57,74.57,0,0,0,8.81,34.2c11.87,22.15,31.65,29.62,55.43,29.38C2016.11,542.45,2034.6,535.66,2052,523.7Zm-121.17-69.9H2041.6c3.34-32.66-19.68-61-50.49-62.44C1955.91,389.68,1930.34,415.89,1930.79,453.8Z"/><path class="cls-1" d="M1748.75,387.33l-14,19.49c-4.48-2.44-8.71-5-13.17-7.13-17-8.06-34.7-10.52-53-5.67-16.18,4.29-23.21,16.62-19.3,32.31a21.26,21.26,0,0,0,13.22,15.28c10.19,4,20.84,6.7,31.15,10.39,11.39,4.07,23.22,7.46,33.79,13.15,34.41,18.54,30.29,68.19,5.13,86.63-15.4,11.29-32.57,16.21-51.37,16.45-23.14.3-45-4.27-64.53-17.33-1.25-.83-2.45-1.72-3.66-2.61-.8-.59-1.57-1.22-2.86-2.22l14.4-19.61c6.5,3.36,12.62,7.06,19.14,9.78,17.56,7.33,35.75,9.45,54.13,3.68,17.52-5.51,25.4-21.18,20.24-38.77a22,22,0,0,0-13.69-15c-11.19-4.18-22.62-7.75-34.08-11.13-11.7-3.44-23-7.6-33.5-13.95-26.29-15.84-27.85-60.48-2.61-79.31,11.45-8.54,24.28-13,38.27-14.39,25.78-2.49,50.11,1.65,72,16.44,1,.65,1.92,1.33,2.84,2A15.9,15.9,0,0,1,1748.75,387.33Z"/><path class="cls-1" d="M2950.74,524.94l11.71,22.57a101.2,101.2,0,0,1-34.29,16.63c-20.19,5.48-40.55,5.91-60.68.42-25-6.83-42.74-22.91-52.57-46.72-12.45-30.16-13.46-61.25-3.32-92.26,11.33-34.63,41.94-56.85,79-58.7,24.28-1.21,47,3.4,67.53,16.92,1.64,1.08,3.21,2.29,5,3.6l-12.55,21.82c-5.69-3-10.9-6.26-16.44-8.72-16.16-7.19-33.14-8.72-50.34-5.36-21.57,4.21-34.65,18.41-41.24,38.57-7.11,21.77-7.39,44-.24,65.8,11,33.52,36,44.57,67.56,40.84C2924.57,538.63,2937.77,532.85,2950.74,524.94Z"/><path class="cls-1" d="M1881.55,540.58l4.84,23.21c-5.66,1.25-11.06,3.27-16.53,3.46-9.91.35-20.15,1-29.74-1-24.05-4.92-37.62-23.89-37.67-50.66q-.11-56.49,0-113v-5.92H1769V375.78l33.05-3.9c0-7.34,0-14.45,0-21.56s-.15-14.34.12-21.49c.06-1.59,1.23-4.07,2.5-4.54,9.62-3.63,19.39-6.86,29.72-10.42v58h50.57v24.71h-50.48c0,2.31,0,4.08,0,5.86q0,53,0,106a78.3,78.3,0,0,0,.94,12.42c2.15,13.14,10.45,20.72,23.83,21.09C1866.48,542.1,1873.74,541.08,1881.55,540.58Z"/><path class="cls-1" d="M2311,297.84h31.41V562.67H2311Z"/><path class="cls-1" d="M2641.86,562.75h-31.92c-1.5-63.64,1.73-127-2.09-190.6H2638l2.77,30c15.38-29.83,40.18-37.87,71.2-34.57l-1.72,27.09h-10.64c-28.93-.09-48.34,14.94-55,43.18a102.15,102.15,0,0,0-2.63,22.23c-.28,32.15-.12,64.31-.13,96.47C2641.86,558.54,2641.86,560.5,2641.86,562.75Z"/><path class="cls-1" d="M2768.23,562.78h-31.29V372.19h31.29Z"/><path class="cls-1" d="M2752.33,326.33c-13.4-.14-20.66-7-20.65-19.54,0-13.54,7.24-20.38,21.47-20.3,13.85.08,20.61,6.89,20.44,20.58C2773.42,320,2766.25,326.48,2752.33,326.33Z"/><path class="cls-2" d="M967.07,458.1c5.45,8.21,8.23,19.92,8.23,34.79s-2.78,26.63-8.25,34.92S953.46,540,942,540s-19.57-4-24.9-12.2-8.12-20-8.12-34.92,2.74-26.58,8.12-34.79S930.61,446,942,446,961.64,450,967.07,458.1ZM421.51,498a178.35,178.35,0,0,0-23.59-2c-17.74-.23-25.28,6.3-25.22,6.28-5.24,3.7-7.76,9.19-7.76,16.84,0,4.83.88,8.63,2.59,11.3,1.15,1.75,1.62,2.44,5,5.15-.06,0,7.8,6.15,25.49,5.09a176.61,176.61,0,0,0,23.48-3.12h0ZM592.38,445.5c-11.41,0-19.53,4.47-24.85,12.61-3.53,5.36-5.79,12.24-7,20.51h62c-.62-8-2.18-15.15-5.75-20.51C611.34,450,603.79,445.5,592.38,445.5Zm696.36,0c-11.41,0-19.53,4.47-24.85,12.61-3.53,5.36-5.81,12.24-7,20.51h62c-.62-8-2.18-15.15-5.77-20.51C1307.69,450,1300.15,445.5,1288.74,445.5Zm211.38,23c0,180.19-144.8,326.24-323.4,326.24a321.06,321.06,0,0,1-63.7-6.35c-40.52,72.27-117.72,121.1-206.34,121.1a235.29,235.29,0,0,1-103.43-23.81C762.18,982.26,666.49,1050,555,1050c-116.14,0-215.12-73.49-253.12-176.55a247.42,247.42,0,0,1-51.46,5.36C112.1,878.81,0,765.55,0,625.82A253.38,253.38,0,0,1,125.2,406.68a289.61,289.61,0,0,1-24-115.71c0-160.7,130.46-291,291.37-291A291,291,0,0,1,624.26,114.52C672.64,64.11,740,32.84,814.49,32.84c99,0,185.42,55.22,231.43,137.19a319.79,319.79,0,0,1,130.8-27.8C1355.32,142.23,1500.12,288.29,1500.12,468.46ZM321.22,520.34c0-24.36-21.56-33.21-41.8-39.6l-2.63-.85c-15.26-5-28.42-9.23-28.42-19.28v-.53c0-8.59,7.69-14.92,19.62-14.92,13.25,0,29,4.4,39.11,10,0,0,3,1.92,4.06-1,.6-1.54,5.73-15.34,6.26-16.84a2.87,2.87,0,0,0-1.5-3.46c-11.56-7-27.54-11.84-44.08-11.84l-3.08,0c-28.16,0-47.82,17-47.82,41.39V464c0,25.71,21.69,34,42,39.85l3.27,1c14.81,4.55,27.57,8.46,27.57,18.89v.51c0,9.53-8.29,16.63-21.67,16.63a72.77,72.77,0,0,1-39.64-11.41c-2.16-1.26-3.42-2.18-5.09-3.18-.88-.56-3.08-1.52-4,1.39l-6.07,16.84c-.94,2.46.34,3,.64,3.4a87.77,87.77,0,0,0,8.57,5.17c15.3,8.12,29.75,10.49,44.85,10.49,30.77,0,49.88-16.37,49.88-42.72Zm128,31.91,0-79.51c0-17.44-4.66-30.37-13.83-38.38s-22.57-12-39.94-12a143,143,0,0,0-23.29,2.16s-19,3.68-26.82,9.79a2.71,2.71,0,0,0-.77,3.46l6.15,16.54a2.2,2.2,0,0,0,2.84,1.41,11.25,11.25,0,0,0,1.43-.71c16.73-9.1,37.89-8.83,37.89-8.83,9.4,0,16.63,1.88,21.5,5.62s7.16,9.12,7.16,20.71v3.68c-7.48-1.07-14.34-1.69-14.34-1.69-3.53-.26-8.1-.41-13.57-.41a82.48,82.48,0,0,0-21.41,2.76A55.84,55.84,0,0,0,354,485.23a40.57,40.57,0,0,0-17.24,34.38c0,7.69,1.33,14.38,4,19.85a35.79,35.79,0,0,0,11.35,13.59,47.53,47.53,0,0,0,17.72,7.67,103.87,103.87,0,0,0,23,2.35,157,157,0,0,0,26.41-2.2c8.53-1.45,19-3.57,21.9-4.23s6.09-1.56,6.09-1.56A2.73,2.73,0,0,0,449.21,552.25ZM505.59,372a2.52,2.52,0,0,0-2.5-2.63H480a2.5,2.5,0,0,0-2.48,2.63V557.61a2.5,2.5,0,0,0,2.48,2.63h23.06a2.52,2.52,0,0,0,2.5-2.63ZM647,460.44a54,54,0,0,0-11.11-20.34c-5.6-6-11.07-10.24-16.5-12.59a63.58,63.58,0,0,0-24.92-5c-10.83,0-20.71,1.82-28.7,5.58a57.09,57.09,0,0,0-20,15.28,62.64,62.64,0,0,0-11.77,22.57,98.36,98.36,0,0,0-3.83,27.76,93,93,0,0,0,4,27.76A55.83,55.83,0,0,0,568.53,558c8.74,3.38,19.36,5.13,31.56,5.11,25.11-.09,38.34-5.68,43.79-8.7,1-.53,1.88-1.47.73-4.17l-5.66-15.92a2.52,2.52,0,0,0-3.29-1.5c-6.22,2.31-15,6.45-35.71,6.41-13.46,0-23.46-4-29.72-10.21-6.43-6.37-9.57-15.73-10.13-28.93l87,.09a2.57,2.57,0,0,0,2.52-2.27A93,93,0,0,0,647,460.44ZM771.7,520.85v-.51c0-24.36-21.56-33.21-41.8-39.6l-2.63-.85c-15.26-5-28.42-9.23-28.42-19.28v-.53c0-8.59,7.69-14.92,19.62-14.92,13.25,0,29,4.4,39.11,10,0,0,3,1.92,4.06-1,.6-1.54,5.73-15.34,6.26-16.84a2.87,2.87,0,0,0-1.5-3.46c-11.56-7-27.55-11.84-44.08-11.84l-3.08,0c-28.16,0-47.82,17-47.82,41.39V464c0,25.71,21.69,34,42,39.85l3.27,1c14.81,4.55,27.59,8.46,27.59,18.89v.51c0,9.53-8.31,16.63-21.69,16.63A72.77,72.77,0,0,1,683,529.46c-2.16-1.26-3.44-2.14-5.06-3.18-.56-.36-3.16-1.37-4.06,1.39l-6.07,16.84c-.94,2.46.34,3,.64,3.4a87.73,87.73,0,0,0,8.57,5.17c15.3,8.12,29.75,10.49,44.85,10.49C752.6,563.57,771.7,547.2,771.7,520.85ZM877,427.93c.21-1.73-.51-2.8-2.84-2.8h-27.8a120.67,120.67,0,0,1,4.59-19.62,25.66,25.66,0,0,1,6.09-9.27,18.24,18.24,0,0,1,7.29-4.53,30.24,30.24,0,0,1,9.34-1.32,36.49,36.49,0,0,1,7.14.7c2.69.58,3.74.88,4.44,1.09,2.84.85,3.23,0,3.78-1.35l6.65-18.25a2.33,2.33,0,0,0-1.6-3,74.61,74.61,0,0,0-8.59-2.05,68,68,0,0,0-11.82-.9c-15.73,0-28.12,4.44-36.82,13.21s-14.53,22-17.48,39.45l-1.07,5.88H798.51a2.93,2.93,0,0,0-2.91,2.52l-3.23,18.1c-.24,1.71.51,2.8,2.82,2.8h19.21L794.92,557.37a134.65,134.65,0,0,1-5.21,21.43c-1.9,5.39-3.76,9.42-6.07,12.37s-4.32,4.91-7.95,6.13a32.35,32.35,0,0,1-10.24,1.47,38.41,38.41,0,0,1-7-.77,20.6,20.6,0,0,1-4.7-1.52,2.4,2.4,0,0,0-3.14,1.39c-.71,1.86-5.83,15.94-6.45,17.67a2.62,2.62,0,0,0,1.35,3.48,71.14,71.14,0,0,0,7.95,2.33,52.75,52.75,0,0,0,12.74,1.2,63.72,63.72,0,0,0,21.35-3.31,40.31,40.31,0,0,0,16.07-11.2c5.06-5.6,8.25-11.45,11.28-19.47a165.21,165.21,0,0,0,7.65-29.19l19.6-110.84H870.8a2.92,2.92,0,0,0,2.91-2.54Zm127.81,65a97,97,0,0,0-3.78-27.61A61.81,61.81,0,0,0,989.29,443a56.5,56.5,0,0,0-19.72-15c-7.84-3.65-17.12-5.51-27.52-5.51s-19.7,1.86-27.54,5.51a56.78,56.78,0,0,0-19.75,15,62.85,62.85,0,0,0-11.69,22.31,103.22,103.22,0,0,0,0,55.22,62.2,62.2,0,0,0,11.71,22.31,55.12,55.12,0,0,0,19.72,14.87c7.86,3.57,17.12,5.39,27.54,5.39s19.66-1.82,27.52-5.39a55.12,55.12,0,0,0,19.72-14.87A61.81,61.81,0,0,0,1001,520.5,97,97,0,0,0,1004.77,492.89Zm102.38-66.35a75.42,75.42,0,0,0-14.57-2.5c-10.92-.66-17,1.18-22.42,3.61s-11.37,6.37-14.7,10.83V427.91a2.53,2.53,0,0,0-2.5-2.65h-22.29a2.53,2.53,0,0,0-2.5,2.65V557.6a2.66,2.66,0,0,0,2.65,2.65h22.84a2.65,2.65,0,0,0,2.63-2.65V492.81c0-8.7,1-17.37,2.88-22.82a32.84,32.84,0,0,1,7.61-12.8,26.7,26.7,0,0,1,10.75-6.45,41.91,41.91,0,0,1,11.67-1.65,48.79,48.79,0,0,1,9.55,1.18c1.67.19,2.61-.83,3.16-2.35,1.5-4,5.73-15.88,6.54-18.25A2.34,2.34,0,0,0,1107.15,426.54Zm111.07,126.91-6.3-17.42a2.43,2.43,0,0,0-3.27-1.56,59,59,0,0,1-11.95,3.42,92.87,92.87,0,0,1-14.08,1c-12.44,0-22.31-3.7-29.38-11s-11.07-19.13-11-35.11c0-14.55,3.55-25.49,9.85-33.83s15.79-12.54,28.51-12.54a85.37,85.37,0,0,1,27.14,3.89s2,.88,3-1.77c2.24-6.24,3.91-10.71,6.3-17.57a2.31,2.31,0,0,0-1.58-3,100.16,100.16,0,0,0-17.14-4.32,128.59,128.59,0,0,0-19.28-1.3c-10.79,0-20.41,1.84-28.63,5.51a59.31,59.31,0,0,0-20.69,15,63.75,63.75,0,0,0-12.5,22.31,88.84,88.84,0,0,0-4.19,27.65c0,21.31,5.75,38.53,17.1,51.14S1158.53,563,1180.8,563c13.16,0,26.67-2.67,36.37-6.5A2.34,2.34,0,0,0,1218.22,553.45Zm125.12-93a54,54,0,0,0-11.13-20.34c-5.6-6-11.07-10.24-16.5-12.59a63.59,63.59,0,0,0-24.92-5c-10.86,0-20.71,1.82-28.7,5.58a57.09,57.09,0,0,0-20,15.28,62.64,62.64,0,0,0-11.77,22.57,97.59,97.59,0,0,0-3.83,27.76,93,93,0,0,0,4,27.76A55.83,55.83,0,0,0,1264.89,558c8.74,3.38,19.36,5.13,31.56,5.11,25.11-.09,38.34-5.68,43.79-8.7,1-.53,1.88-1.47.73-4.17l-5.68-15.92a2.5,2.5,0,0,0-3.27-1.5c-6.22,2.31-15.07,6.45-35.69,6.41-13.48,0-23.49-4-29.75-10.21-6.43-6.37-9.57-15.73-10.13-28.93l87,.09a2.57,2.57,0,0,0,2.52-2.27A93.26,93.26,0,0,0,1343.34,460.44Z"/></svg>