<svg id="Layer_1" data-name="Layer 1" xmlns="http://www.w3.org/2000/svg" viewBox="0 0 12.82 12.62"><defs><style>.cls-1{fill:#b949f5;}</style></defs><title>success</title><path class="cls-1" d="M12.32,2H10.6V1h.35a.5.5,0,0,0,0-1H1.87a.5.5,0,0,0,0,1h.35V2H.5a.5.5,0,0,0-.5.5V3.85A2.26,2.26,0,0,0,2.25,6.11h0A4.18,4.18,0,0,0,5.91,9.44v2.15H3.29a.5.5,0,0,0,0,1H9.53a.5.5,0,0,0,0-1H6.91V9.44a4.18,4.18,0,0,0,3.61-3.33h0a2.26,2.26,0,0,0,2.25-2.25V2.47A.5.5,0,0,0,12.32,2ZM1,3.85V3H2.22V5.1A1.25,1.25,0,0,1,1,3.85ZM6.41,8.49A3.19,3.19,0,0,1,3.22,5.3V1H9.6V5.3A3.19,3.19,0,0,1,6.41,8.49Zm5.41-4.63A1.25,1.25,0,0,1,10.6,5.1V3h1.22Z"/><path class="cls-1" d="M7.53,3.76l-.64-.09L6.6,3.08a.21.21,0,0,0-.38,0l-.29.58-.64.09a.21.21,0,0,0-.12.36l.46.45-.11.64a.21.21,0,0,0,.31.22l.57-.3.57.3a.21.21,0,0,0,.31-.22L7.2,4.69a.21.21,0,0,1,.06-.19l.38-.37A.21.21,0,0,0,7.53,3.76Z"/></svg>