<svg id="Layer_1" data-name="Layer 1" xmlns="http://www.w3.org/2000/svg" viewBox="0 0 301.08 301.74"><defs><style>.cls-1,.cls-2{fill:none;}.cls-1{stroke:#4db9de;stroke-linecap:round;stroke-linejoin:round;stroke-width:2px;}</style></defs><title>Artboard 1</title><path class="cls-1" d="M91.84,13c-8,15.55-9,28.14-29.91,49.1S28.47,84,13,92.06"/><rect class="cls-2" x="82.88" y="12.24" width="9.74" height="80.2"/><rect class="cls-2" x="82.88" y="12.24" width="9.74" height="80.2"/><path class="cls-1" d="M119.92,4.15c-26,28.12-15.78,41-45.32,70.63S32.18,94.15,4.14,120.18"/><rect class="cls-2" x="82.88" y="3.25" width="37.85" height="117.68"/><rect class="cls-2" x="82.88" y="3.25" width="37.85" height="117.68"/><path class="cls-1" d="M149.94,1a120.49,120.49,0,0,0-13.51,11.82c-30.91,31-18.25,43.67-49.17,74.66s-43.58,18.29-74.49,49.28A120.89,120.89,0,0,0,1,150.26"/><rect class="cls-2" x="82.88" y="0.25" width="67.84" height="150.66"/><rect class="cls-2" x="82.88" y="0.25" width="67.84" height="150.66"/><path class="cls-1" d="M179.52,3.81c-8.79,4-18.17,9.41-30.43,21.69-30.91,31-18.25,43.67-49.17,74.65s-43.58,18.29-74.49,49.28C13.19,161.7,7.79,171.1,3.8,179.9"/><rect class="cls-2" x="82.88" y="3.25" width="97.44" height="177.65"/><rect class="cls-2" x="82.88" y="3.25" width="97.44" height="177.65"/><path class="cls-1" d="M131.25,88.43c8.57-16.08,9.08-28.77,30.5-50.24,18.12-18.17,30-21.32,42.91-27.07"/><rect class="cls-2" x="130.85" y="10.74" width="74.21" height="78.7"/><rect class="cls-2" x="130.85" y="10.74" width="74.21" height="78.7"/><path class="cls-1" d="M88.23,131.55c-16,8.6-28.71,9.1-50.14,30.58-18.11,18.15-21.27,30-27,43"/><rect class="cls-2" x="82.88" y="130.67" width="6.37" height="74.96"/><rect class="cls-2" x="82.88" y="130.67" width="6.37" height="74.96"/><path class="cls-1" d="M85.34,151.3c-10,4.27-20.38,9.28-34.58,23.51-21.3,21.34-21.91,34-30.34,49.95"/><rect class="cls-2" x="82.88" y="150.91" width="3.37" height="74.96"/><rect class="cls-2" x="82.88" y="150.91" width="3.37" height="74.96"/><path class="cls-1" d="M151,85.52c4.26-10.05,9.26-20.42,23.45-34.64,21.31-21.36,33.94-22,49.86-30.43"/><rect class="cls-2" x="150.34" y="19.74" width="74.96" height="66.71"/><rect class="cls-2" x="150.34" y="19.74" width="74.96" height="66.71"/><path class="cls-1" d="M168.4,88c3.8-7.13,9.18-14.91,18.67-24.43,22.88-22.93,35.77-22,53.46-32.46"/><rect class="cls-2" x="167.58" y="30.23" width="73.46" height="58.47"/><rect class="cls-2" x="167.58" y="30.23" width="73.46" height="58.47"/><path class="cls-1" d="M87.81,168.78c-7.11,3.81-14.89,9.2-24.4,18.72-22.87,22.92-21.9,35.84-32.37,53.55"/><rect class="cls-2" x="82.88" y="168.15" width="6" height="73.46"/><rect class="cls-2" x="82.88" y="168.15" width="6" height="73.46"/><path class="cls-1" d="M94.77,184.82A109.53,109.53,0,0,0,76.08,200.2C52.67,223.65,54.23,236.63,43,255"/><rect class="cls-2" x="82.88" y="183.89" width="12.74" height="71.96"/><rect class="cls-2" x="82.88" y="183.89" width="12.74" height="71.96"/><path class="cls-1" d="M184.4,95a109.73,109.73,0,0,1,15.33-18.71c23.42-23.47,36.36-21.9,54.7-33.21"/><rect class="cls-2" x="183.32" y="42.23" width="71.96" height="53.22"/><rect class="cls-2" x="183.32" y="42.23" width="71.96" height="53.22"/><path class="cls-1" d="M105.87,198.53a112.41,112.41,0,0,0-17.13,14.36C65.6,236.08,66.87,249,56,267.06"/><rect class="cls-2" x="82.88" y="198.13" width="23.99" height="69.71"/><rect class="cls-2" x="82.88" y="198.13" width="23.99" height="69.71"/><path class="cls-1" d="M198.08,106.1A112.61,112.61,0,0,1,212.4,89c23.15-23.2,36.07-21.92,54.08-32.82"/><rect class="cls-2" x="197.56" y="55.72" width="69.71" height="50.97"/><rect class="cls-2" x="197.56" y="55.72" width="69.71" height="50.97"/><path class="cls-1" d="M121.37,209.39a107.38,107.38,0,0,0-20,16.19c-22.06,22.12-21.94,34.91-31.29,51.69"/><rect class="cls-2" x="82.88" y="208.63" width="39.35" height="69.71"/><rect class="cls-2" x="82.88" y="208.63" width="39.35" height="69.71"/><path class="cls-1" d="M208.92,121.63a107.58,107.58,0,0,1,16.13-20c22.08-22.12,34.85-22,51.6-31.38"/><rect class="cls-2" x="208.05" y="69.21" width="69.71" height="53.22"/><rect class="cls-2" x="208.05" y="69.21" width="69.71" height="53.22"/><path class="cls-1" d="M215.62,145.85c4-9.11,9.38-18.76,22.1-31.52,20.17-20.21,32.57-21.85,47.34-29.14"/><rect class="cls-2" x="214.8" y="84.2" width="71.21" height="62.21"/><rect class="cls-2" x="214.8" y="84.2" width="71.21" height="62.21"/><path class="cls-1" d="M145.55,216.09c-9.1,4-18.74,9.4-31.49,22.17C93.9,258.47,92.27,270.89,85,285.68"/><rect class="cls-2" x="84.38" y="215.37" width="62.21" height="71.21"/><rect class="cls-2" x="84.38" y="215.37" width="62.21" height="71.21"/><path class="cls-1" d="M291.55,100.72c-12.27,5.3-23.86,9-41.17,26.3-30.91,31-18.25,43.67-49.17,74.66S157.64,220,126.72,251c-17.3,17.34-21,28.95-26.23,41.24"/><rect class="cls-2" x="99.37" y="99.94" width="192.64" height="192.64"/><rect class="cls-2" x="99.37" y="99.94" width="192.64" height="192.64"/><path class="cls-1" d="M296.23,116.79c-9.61,4.15-19.65,9.35-33.19,22.92-30.91,31-18.25,43.67-49.17,74.65s-43.58,18.29-74.49,49.28c-13.53,13.56-18.72,23.62-22.86,33.24"/><rect class="cls-2" x="115.86" y="115.68" width="181.39" height="182.14"/><rect class="cls-2" x="115.86" y="115.68" width="181.39" height="182.14"/><path class="cls-1" d="M299.22,134.16c-6.88,3.78-14.4,9.11-23.52,18.24-30.91,31-18.25,43.67-49.17,74.65S183,245.35,152,276.33c-9.11,9.13-14.42,16.66-18.19,23.55"/><rect class="cls-2" x="133.1" y="133.67" width="167.15" height="167.15"/><rect class="cls-2" x="133.1" y="133.67" width="167.15" height="167.15"/><path class="cls-1" d="M300.08,154.65a124.44,124.44,0,0,0-11.71,10.44c-30.91,31-18.25,43.67-49.17,74.65S195.62,258,164.71,289a124.69,124.69,0,0,0-10.4,11.72"/><rect class="cls-2" x="153.34" y="153.91" width="147.66" height="147.66"/><rect class="cls-2" x="153.34" y="153.91" width="147.66" height="147.66"/><path class="cls-1" d="M296.91,182.09c-25.66,27.91-15.61,40.84-45,70.34s-42.33,19.44-70.17,45.13"/><rect class="cls-2" x="181.07" y="181.64" width="116.93" height="116.93"/><rect class="cls-2" x="181.07" y="181.64" width="116.93" height="116.93"/></svg>