<svg id="Layer_1" data-name="Layer 1" xmlns="http://www.w3.org/2000/svg" viewBox="0 0 16.24 11"><defs><style>.cls-1{fill:#fff;}</style></defs><title>whitepaper-white</title><path class="cls-1" d="M15.74,2.17H14.32V.5a.5.5,0,0,0-.5-.5h-3.5A2.69,2.69,0,0,0,8.12,1.14,2.69,2.69,0,0,0,5.93,0H2.42a.5.5,0,0,0-.5.5V2.17H.5a.5.5,0,0,0-.5.5v7.56a.5.5,0,0,0,.5.5H5.34a.5.5,0,1,0,0-1H1V3.17h.92V8.31a.5.5,0,0,0,.5.5h3.5A1.7,1.7,0,0,1,7.62,10.5a.5.5,0,0,0,1,0,1.7,1.7,0,0,1,1.69-1.69h3.5a.5.5,0,0,0,.5-.5V3.17h.92V9.73H10.9a.5.5,0,1,0,0,1h4.84a.5.5,0,0,0,.5-.5V2.67A.5.5,0,0,0,15.74,2.17ZM7.62,8.41a2.68,2.68,0,0,0-1.69-.6h-3V1h3A1.7,1.7,0,0,1,7.62,2.69Zm5.7-.6h-3a2.69,2.69,0,0,0-1.69.6V2.69A1.7,1.7,0,0,1,10.32,1h3Z"/></svg>